<?xml version="1.0" standalone="no"?>
<!DOCTYPE svg PUBLIC "-//W3C//DTD SVG 1.1//EN" "http://www.w3.org/Graphics/SVG/1.1/DTD/svg11.dtd" >
<svg xmlns="http://www.w3.org/2000/svg" xmlns:xlink="http://www.w3.org/1999/xlink" version="1.1">
<metadata></metadata>
<defs>
<font id="jmh_typewriter_mono_fineIt" horiz-adv-x="1500" >
<font-face units-per-em="2048" ascent="1638" descent="-410" />
<missing-glyph horiz-adv-x="500" />
<glyph horiz-adv-x="0" />
<glyph unicode="&#xd;" />
<glyph />
<glyph />
<glyph unicode=" " />
<glyph unicode="!" d="M852 1564h94l10 -10q6 0 16 -2t18 -4v-28h20l-10 -48h22l-14 -68h24v-6h-24l-32 -160h-20l-34 -160l-16 -8q-10 -42 -22 -89t-22 -91l-14 -8q-20 -98 -44 -204t-44 -206h-28q-4 -14 -5 -32t-5 -34h-50q0 -14 -2 -24h-2l-10 12q-4 0 -12 2l2 34h-16l22 114h-24l84 438h-20 l34 184h-24l14 72h-18q10 52 16 98t16 92l14 10q2 12 10 28t12 30h28v10t2 14l14 10q0 2 1 7t3 7h36v20zM766 150l-22 -92h-22v-9t-2 -15l-16 -8l-8 -16h-56q0 -4 -1 -9t-1 -11h-64l-6 -24h-4l-10 12q-14 0 -34 6v26h-16l-10 12q-2 0 -6 1t-6 1l2 34h-16q6 42 14 74t14 70 h16l6 22h32v10t2 14l14 12q0 8 4 12h56v24h54v-24h16l10 -12q4 0 12 -2l-2 -34h16l-6 -22h28v-26h16l-2 -28l28 -8l-10 -8h-20l2 16zM740 250l20 -26h-28z" />
<glyph unicode="&#x22;" d="M368 1634h122l10 -10q6 0 14 -2t18 -4v-28h18q-4 -30 -11 -52t-11 -48l-16 -8q-8 -40 -20 -86t-22 -88l-16 -8q-14 -60 -30 -124t-28 -124h-24v-10t-2 -14l-16 -10q0 -2 -4 -10h-34l-12 10q-2 0 -5 1t-5 1l2 32h-18l22 116h-20l30 162h-26l32 160h-22q4 30 12 52t12 48 h22v10t2 14h26v20zM1062 1634h96l10 -10q6 0 14 -2t18 -4v-28h20q-6 -36 -13 -63t-13 -59l-18 -8q-16 -84 -37 -169t-37 -169h-20q-2 -12 -6 -32t-8 -38l-16 -10q0 -2 -1 -7t-3 -7h-34q0 -10 -2 -20h-26l-10 10q-2 0 -5 1t-7 1l4 32h-20l24 116h-26l42 208h-20l26 140h-24 q4 22 8 38t8 36h26v10t2 14h48v20z" />
<glyph unicode="#" d="M344 -310v44h-24v28h24v94h22v114h26v72h20v90h22v70h26v136h-26v20h-274v24h-26v50h26v24h300v24h44v92h24v70h24v134h-92v22h-208v22h-24v52h24v24h320v24h26v92h22v70h24v138h24v92h24v116h20v92h48v24h26l10 -14q2 0 14 -4v-104l-14 -10q0 -16 -4 -38t-6 -44h-22v-70 l-14 -10q0 -18 -4 -40t-6 -44h-22v-114h-22v-140l-14 -10q0 -12 -3 -27t-5 -29h-24v-94l-14 -10q0 -24 -4 -51t-6 -53h-22v-118l-16 -10q0 -16 -4 -38t-6 -42h-22v-92l-14 -12q0 -26 -4 -53t-6 -55h-22v-92l-14 -10q0 -30 -4 -63t-6 -63h-22v-140l-14 -10q0 -16 -5 -39 t-7 -43h-20v-48l-14 -10q0 -2 -1 -5t-1 -5h-10v-46l-22 20v26h-26zM1128 1544h4l10 -14q2 0 14 -4v-34h44l-20 -20h-24v-94l-14 -10q0 -6 -2 -17t-4 -21l-14 -10q0 -16 -4 -39t-6 -43l-16 -10q0 -26 -4 -52t-6 -54h-22v-116h-20v-64h20v-46h232l10 -14q6 0 17 -2t21 -4v-26 h20v-30h-20v-22h-124l-10 -34l-6 12v22h-118v-22h-90v-24l-14 -10q0 -18 -4 -40t-6 -44h-22v-178h46v-24h230l10 -14q2 0 14 -4v-28h22v-4h-22v-24h-46v-24h-254v-20h-46v-72l-14 -12q0 -12 -4 -27t-6 -29l-14 -10q0 -28 -4 -64t-6 -66l-14 -10q0 -36 -4 -75t-6 -75h-22v-72 l-14 -12q0 -12 -3 -27t-5 -29l-14 -10q0 -8 -2 -18l-4 -20h-28v-20h-28v20h-20v98h20v94h24v114h24v68h20v118h24v70h24v116h24v116h20v92h26v116h22v112h24v96h24v136h24v116h20v118h26v138h22v92h24v24h28v42l20 -22h-4v-20z" />
<glyph unicode="$" d="M1128 1146l-12 10q-2 0 -4 1t-4 1l10 56h-24l28 138h-22l-10 14q-2 0 -6 1t-6 1l2 30h-88v24h-156v-10t-2 -14h-48q0 -10 -2 -20h-46l-6 -26h-48v-9t-2 -13l-16 -10q0 -2 -1 -7t-3 -7h-32l-8 -46h-22q-2 -12 -6 -32t-8 -38l-16 -8l-32 -126h24l10 -10q2 0 4 -1t4 -1 l-10 -56h24v-24h18l-8 -22h48l10 -12q12 0 27 -3t31 -5l10 -16q22 0 50 -4t52 -6v-24h62l12 -12q12 0 24 -3t28 -5l10 -16q12 0 26 -3t28 -7l10 -12q6 0 16 -2t18 -4v-28h18l10 -14q4 0 12 -2l-2 -30h42l-4 -46h16l10 -12q2 0 6 -1t6 -1l-16 -78h20l-14 -76h44l-20 -20v4 h-26q-4 -22 -10 -49t-10 -49h-20l-12 -48l-16 -10q-2 -6 -6 -17t-8 -19h-24l-8 -46l-18 -8q0 -4 -2 -8l-4 -8h-30v-10t-2 -14h-50q0 -10 -2 -20l-14 -10q0 -2 -1 -8t-3 -8h-56v-9t-2 -13h-46l-6 -24h-74v-8t-2 -14l-14 -10q0 -8 -4 -12h-32q-8 -48 -20 -104t-22 -106h-20 q-6 -40 -17 -89t-19 -93l-16 -10l-14 -38h-28l-12 12q-2 0 -4 1t-4 1l2 34h-20l76 392h-48l-10 12q-18 0 -37 4t-41 6l-10 12q-22 0 -48 4t-50 6l-10 12q-16 0 -34 6l2 28h-42v26h-18l4 44h-20q8 46 17 85t19 83h24q2 12 6 32t8 38h30l14 34l6 -10q-2 -8 -2 -14v-10h22 l-12 -48h24l-12 -68h24l-12 -48h26l10 -10q4 0 12 -2l-2 -32h16l10 -12q4 0 12 -2l-2 -34h42l-6 -22h294l6 22h54v10t2 14h46v10t2 14l16 10q0 2 1 7t3 7h34q0 10 2 20h20q2 8 4 22t6 26h26q4 14 5 33t5 35l16 8l26 80h-24l10 70h-22l-10 12q-2 0 -6 2l2 34h-20l-10 10 q-4 0 -7 1t-5 1l2 32h-40l-10 12q-14 0 -27 4t-29 6l-10 14q-10 0 -25 3t-29 7v24h-64l-10 12q-18 0 -38 5t-40 7l-10 12q-6 0 -15 2t-19 4v26h-40v26h-44l-10 10q-2 0 -5 1t-5 1l2 32h-18l-10 12q-4 0 -14 2l2 34h-16l4 44h-18l12 48h-26q10 54 19 96t19 94h26l8 44l14 8 q2 10 5 20t7 20h24l6 24h26l8 46l14 10q0 8 4 12h58v10t2 14h20l6 24h52q0 10 2 20h50v10t2 14h48v10t2 14l14 8q8 38 20 77t20 79h28q0 10 2 20h22v26h54v-26h16l-32 -160h24v-24h18l10 -12q14 0 27 -4t29 -6v-26h64l10 -10q10 0 25 -3t29 -5l-6 -26h26v-24h16l10 -12 q4 0 14 -2l-6 -54h18q-8 -48 -18 -86t-18 -84l-14 -10q0 -2 -4 -10h-38l-16 -34l-4 10q2 8 2 14v10h-48zM620 992l18 -28h-26zM500 250l18 -26h-26zM1222 1478l18 -26q-16 0 -26 2z" />
<glyph unicode="%" d="M540 1612h26l10 -12q24 0 50 -4t52 -6l10 -12q10 0 24 -4t30 -8l10 -12q20 0 49 -4t51 -6v-24h66l10 -12q2 0 5 -1t5 -1q-2 -10 -5 -18t-5 -18l-14 -10q0 -2 -1 -7t-3 -7h-102v-9t-2 -15h-22q-4 -28 -12 -66t-14 -70l-16 -12q-2 -6 -7 -16t-9 -20h-24l-10 -48l-16 -10 q0 -2 -1 -7t-3 -7h-34q0 -10 -2 -20l-16 -12q0 -8 -4 -12h-52l-6 -24h-52q0 -10 -2 -20h-116l-10 10q-6 0 -16 2t-18 4l2 28h-40l-10 12q-2 0 -6 2t-6 2l2 28h-20v24h-16l-10 12q-4 0 -12 2l18 82h-24q6 34 12 61t12 57l14 8q2 12 9 29t11 31h30v10t2 14h22v10t2 14h28v10 t2 14l14 10q0 2 4 10h76l6 26h74v22zM926 388h212v-24h64l10 -12q2 0 5 -1t5 -1l-2 -34h18l12 -10q4 0 12 -2l-6 -56h16l-14 -72h22q-4 -28 -10 -48t-10 -46l-14 -10q-2 -6 -7 -17t-9 -21l-14 -10q-2 -6 -6 -16t-8 -18h-24l-6 -24h-28q0 -14 -2 -24l-16 -10q0 -2 -1 -7 t-3 -7h-56q0 -10 -2 -20h-46l-6 -26h-140l-10 12q-14 0 -30 8v26h-44v24h-20l-10 12q-2 0 -5 1t-5 1l10 54h-24l12 48h-24q10 46 19 84t17 82h20l8 48h26l8 44l14 8q0 6 8 18h56v9t2 13h26v24zM1228 1590h50l10 -12q2 0 4 -2t4 -2q-2 -16 -5 -31t-7 -29h-20l-10 -44l-18 -10 q-2 -6 -6 -17t-8 -21h-24q-2 -12 -6 -32t-8 -38l-18 -10q0 -8 -4 -12h-28q-4 -14 -5 -33t-5 -37h-24l-12 -46l-16 -12q-2 -6 -6 -16l-8 -20l-14 -8q-2 -12 -9 -29t-11 -31h-28l-8 -46l-14 -8q-4 -14 -10 -30t-10 -32h-30v-9t-2 -13l-14 -8q-4 -14 -9 -30t-9 -32h-28 q-2 -12 -6 -32t-8 -38h-20l-8 -44l-16 -10q-4 -14 -11 -29t-11 -31h-24l-8 -48l-16 -10q-2 -8 -7 -16t-9 -20h-24l-8 -46l-16 -10q-2 -8 -7 -18l-9 -18h-24q-2 -12 -6 -33t-8 -37h-20l-8 -44l-18 -10q-2 -12 -9 -28t-11 -30h-24l-8 -48l-18 -8q-4 -14 -10 -31t-10 -33h-24 q-4 -14 -5 -33t-5 -35h-28q-2 -12 -6 -32t-8 -36h-20l-8 -48l-18 -8q-4 -14 -10 -29t-10 -31h-24l-8 -48l-18 -10q0 -2 -4 -10h-26l-6 -26h-28l-12 12q-2 0 -4 1t-4 1q6 36 14 67t14 63h20l8 48h24l12 44l14 12q0 8 4 12h30l20 92l14 8l12 40h28l8 44l16 8q2 10 6 20l8 20 h28q4 14 5 33t5 35l14 8l16 40h28q4 14 5 33t5 35l16 10q2 8 7 18t9 20h28q4 14 5 33t5 35l16 8q2 8 7 19t9 21h28l8 44h20l8 48l16 8q2 8 6 17t8 21h28q4 14 5 33t5 37l16 8q2 8 6 17t8 19h28q4 14 5 35t5 37l18 8q2 12 9 29t11 31h28q0 10 2 20h22q2 14 6 35t8 37h24l8 48 l14 8l14 38h28q2 8 3 21t5 25l16 8q4 16 9 30t11 30h26q2 12 6 32t8 36h20q4 14 6 35t6 37h28q0 10 2 20l14 8zM796 64h26l10 -12q2 0 4 -1t4 -1l-2 -34h20l10 -12q8 0 15 -2t15 -4l-2 -28h108l6 24h72v9t2 13h48l8 48h24l30 154h-24v24h-20l12 48h-26l-10 12l-214 10v-9 t-2 -13l-16 -10q0 -2 -1 -7t-3 -7h-30l-10 -48l-16 -8zM664 1290h20l16 88h-20l12 68h-24v24h-18l8 22h-48l-10 12l-124 10v-8t-2 -14h-44l-6 -22h-28v-10t-2 -14l-16 -10q-2 -8 -6 -18l-8 -20l-16 -8l-32 -126h20l-4 -44h20l12 -14q6 0 15 -2t17 -4l-2 -28h152l6 24h50v9 t2 15l14 10q0 2 1 7t3 7h32z" />
<glyph unicode="&#x26;" d="M1304 150l-20 -92l-14 -10q0 -8 -6 -14h-52l-6 -24h-50q0 -4 -1 -9t-1 -11h-50v20h-62l-10 12q-2 0 -6 1t-6 1l2 34h-18v24h-44l-10 12l-56 10v-9t-2 -13h-44v-10t-2 -14h-48v-9t-2 -15h-46l-6 -24h-48q0 -4 -1 -9t-1 -11h-68l-6 -24h-210l-10 12q-12 0 -28 3t-30 7v22 h-40l-10 12q-8 0 -15 2t-17 6v28h-42v24h-18l-10 12q-4 0 -12 2l2 30h-16l-10 12q-4 0 -6 1l-6 3l10 56h-22l4 44h-20l12 48h-24l10 48h-28q12 64 25 119t23 115h24l12 44l14 10q2 8 5 18t7 20h26l6 24l18 12q0 8 4 12h34v9t2 13h22v9t2 13h28v9t2 15h44v10t2 14h50 q0 10 2 20h44l6 26h26l18 110h-24l12 46h-22v24h-20l10 48h-24l14 68h-26q6 34 13 61t13 57h24l8 48l14 8q2 10 16 38h30v10t2 14h22v9t2 13h50v10t2 14h20l6 24h54q0 10 2 20h116v24h6v-24h62v10t2 14h4v-24h88l10 -10q4 0 12 -2l6 -18q6 0 16 -2t20 -6l-10 -52h18l-8 -52 l-14 -10q0 -2 -1 -7t-3 -7h-58q0 -10 -2 -20h-28l-10 10q-2 0 -5 1t-5 1l2 32h-42l-12 12l-168 10v-9t-2 -13h-50v-10t-2 -14h-22q0 -10 -2 -20l-16 -10l-42 -172h26l-14 -48h24l10 -10q4 0 12 -2l-6 -56h18v-24h18l-6 -22h24l10 -12q2 0 5 -1t5 -1l-2 -32h20v-24h16l12 -12 q2 0 5 -1t5 -1l-2 -34h18l10 -10q4 0 12 -2l-6 -56h18l12 -12q4 0 12 -2l-2 -30h16l10 -12q4 0 12 -2l-14 -56h24v-26h22l10 -10q2 0 3 -1t3 -1l-2 -32h20l-10 -48h24l-4 -44h16l-12 -48h68l6 24h50q6 42 16 92t18 94l16 8q2 8 6 18l8 20h30v10t2 14h234q-6 -30 -13 -52 t-11 -48h-48v-9t-4 -13h-44v-10t-2 -14h-50v-8t-2 -14l-16 -8q-4 -14 -10 -31t-10 -33l-16 -8q-4 -14 -9 -28t-9 -30h-26l-10 -48l-16 -10q-2 -6 -6 -17t-8 -19h-26l-28 -156h46v-24h66v10t2 14h22q0 10 2 20h50v11t2 15h24v-26h44l-2 -28l28 -8l-10 -8h-20l2 16zM236 364 h22l-14 -68h24l-10 -48h24v-24h18l-6 -22h24l-6 -46h44v-24h20l12 -12q12 0 23 -3t27 -5l10 -16l236 -12l6 24h76q0 14 2 24h22v10t2 14h50q0 10 2 20h26v11t2 15h20l22 110h-22l4 46h-20l12 48h-24l4 44h-20l12 48h-22l-10 12q-6 0 -14 2l6 54h-18v24h-20l-10 12q-2 0 -5 1 t-5 1l12 54h-26v24h-16l-10 12q-2 0 -5 2t-5 2l2 32h-18l-10 12q-2 0 -5 1t-5 1l2 32h-180v-10t-2 -14l-16 -10q0 -8 -4 -12h-54l-6 -24l-14 -12q0 -8 -4 -12h-36v-10t-2 -14l-14 -10q-2 -8 -6 -16t-8 -20h-30q-4 -14 -5 -32t-5 -36l-14 -8zM686 992l18 -28h-28z" />
<glyph unicode="'" d="M760 1656h28v-26h64l-6 -22h48l-4 -46h18l-10 -30h-20q-4 -30 -12 -68t-14 -72l-16 -8q-10 -38 -21 -77t-19 -75l-14 -10l-14 -54h16l-28 -144h-26v-9t-2 -13l-16 -10q0 -10 -4 -14h-80l-10 14q-2 0 -5 1t-5 1l2 30h-20l30 140h-24l44 228h-24l20 120h-18q4 22 8 37t8 35 h22v10t2 14h20l6 22h76v26zM860 1658l18 -28h-26z" />
<glyph unicode="(" d="M1086 1612h50l12 -12q2 0 5 -1t5 -1l-2 -34h18q-2 -10 -4 -16t-2 -10l-14 -10q-2 -6 -7 -16t-9 -20h-44l-6 -22h-32v-10t-2 -14h-22v-9t-2 -15l-16 -10q0 -2 -1 -7t-3 -7h-34q0 -10 -2 -20l-16 -8l-8 -18h-30v-9t-2 -13l-14 -10q0 -2 -1 -7t-3 -7h-34q0 -10 -2 -20h-22 l-8 -48l-16 -8l-8 -16h-28l-10 -48l-16 -10q-2 -8 -5 -16t-7 -18h-26l-10 -44l-18 -10q-2 -8 -6 -18l-8 -20l-14 -8q-4 -18 -11 -41t-13 -43h-28q-4 -26 -11 -58t-11 -60l-14 -10q-4 -16 -12 -38t-12 -42h-26l-16 -88h24q-2 -10 -4 -17t-4 -13l-16 -10l-22 -78h24l-22 -114 h22l-22 -114h24l-10 -48h22l-14 -72h24l-4 -44h18l-12 -48h28l10 -10q2 0 5 -1t5 -1l-10 -56h24l10 -12q2 0 3 -1t3 -1l-2 -32h22l-6 -46h20l10 -12q2 0 4 -1t4 -1l-2 -34h20l10 -10q6 0 16 -2t18 -4l-2 -28h16l10 -12q4 0 12 -2l-6 -56h18v-26h20q-4 -18 -4 -25t-4 -21h-52 v-10t-2 -16h-26v26h-20l-10 10q-4 0 -12 2l2 32h-14l6 24h-24l-12 10q-4 0 -12 2l2 32h-16l-10 12q-4 0 -12 4l2 32h-18l-12 12q-2 0 -5 1t-5 1l2 34h-18l-10 10q-4 0 -12 2l2 32h-16l-12 12q-4 0 -12 2l6 54h-16l-10 12q-4 0 -6 1l-6 3l10 56h-20l4 44h-20l-10 12 q-2 0 -5 1t-5 1l2 32h-16l4 46h-20l14 72h-22l18 92h-24l10 48h-26l46 228h-24l8 30h22l32 162l16 8q4 18 11 40t11 44h26q2 12 7 32t9 38l14 10q0 2 1 7t3 7h32q2 12 6 32t8 36h24q0 10 2 20l14 8q2 10 5 20t7 20h30l8 48l14 10q0 2 1 7t3 7h34q0 10 2 20l16 10q0 2 1 8 t3 8h34v9t2 13h20l12 46h26v10t2 14l14 10q0 8 4 12h36v10t2 14l12 8q0 2 3 7t7 9h32q0 10 4 20h20l8 48h26v10t2 14l14 10q0 2 2 4t4 6h50l6 26l18 10zM626 -266h28l-8 -26z" />
<glyph unicode=")" d="M734 1636h50v-24h22l10 -12q2 0 4 -1t4 -1l-2 -34h20l10 -10q2 0 5 -1t5 -1l-2 -32h22l10 -12q6 0 14 -2t18 -6l-12 -48h22l-6 -24h28v-24h16l10 -12q2 0 5 -1t5 -1l-2 -32h20l12 -12q2 0 4 -1t4 -1l-12 -54h24v-26h18l10 -10q4 0 12 -2l-6 -56h18l10 -12q4 0 6 -1l6 -3 l-10 -56h20l-4 -42h18l10 -12q2 0 4 -1t8 -3l-12 -54h24l-18 -92h22l-28 -140h26q-20 -96 -37 -176t-33 -174l-16 -8l-22 -64l-14 -10q-2 -6 -6 -17t-8 -19h-28q-2 -12 -6 -32t-8 -38l-14 -10q-2 -6 -6 -16t-8 -18h-26l-10 -48h-18l-6 -24h-26l-8 -44l-16 -10q0 -2 -1 -7 t-3 -7h-32l-10 -48l-14 -10q0 2 -4 -10h-30l-6 -24l-14 -12q0 -8 -4 -12h-36v-10t-2 -14l-14 -10q0 -2 -4 -10h-26l-6 -26h-30v-9t-2 -13l-14 -10q0 -2 -1 -7t-3 -7h-36v-10t-2 -14h-22v-10t-2 -14l-16 -10q0 -2 -4 -10h-32l-10 -48l-16 -10q0 -2 -4 -10h-78v-10t-2 -16h-4 v26h-20l4 44h-2l10 28h30v9t2 13l14 10q0 2 1 7t3 7h36v10t2 14h42l8 24l16 10q0 2 4 10h32l8 48l16 8q0 4 8 16h32v22h20l10 46h28v10t2 16l14 10q0 8 4 12h34l10 44h20l8 48l14 8l14 38h28q2 8 3 21t5 25l14 10q4 18 12 40t14 44h26q4 16 8 42t8 48l14 8l88 406h-24l14 66 h-24l18 94h-20l10 46h-26l14 70h-22l4 44h-16l10 48h-26l-10 12q2 0 -10 4l10 56h-24l-10 10q-2 0 -4 1t-4 1l2 32h-22l-10 12q-2 0 -4 1t-4 1l2 34h-20l4 44h-18l-10 14q-8 0 -15 2t-17 4v28h-18l6 22h-24l-10 12q-6 0 -14 2l2 32h-16q4 22 8 39t8 35h24v24zM340 -284 q0 -2 -1 -4t-1 -4l-18 26h38l-2 -10zM944 1478l18 -26h-28zM724 1470h26l-8 -26z" />
<glyph unicode="*" d="M742 890h24v-4l2 4h-2q2 12 3 26t5 26h46l36 162h70q0 10 2 20h94v11t2 15h26v9t2 13h44l6 24h50v9t2 15h48v10t2 14h28v20h72l10 -10q4 0 12 -2l-2 -32h18l-12 -48h26q-2 -10 -4 -16t-2 -10l-16 -12q-4 -16 -14 -36h-28q0 -10 -4 -20h-164v-10t-2 -16h-116v-9t-2 -13 h-96v-10t-2 -14h-44l-28 -134h26l10 -12q2 0 4 -1t4 -1l-2 -34h20l10 -10q2 0 4 -1t4 -1l-2 -32h22l10 -14q2 0 5 -1t5 -1l-2 -30h18l10 -12q4 0 12 -2l-2 -32h16l10 -12q4 0 6 -1l6 -3l-2 -30h18l-4 -46h20v-6h-30v-10t-2 -14l-14 -10q-2 -8 -6 -18t-8 -18h-50v-9t-2 -13 h-52l-10 12q-2 0 -4 1t-4 1l2 32h-20l4 46h-20l-10 12q-4 0 -12 2l14 54h-22l10 48h-26l14 70h-22l-10 12q-6 0 -14 2l14 56h-24l6 26l-30 10zM214 1264h96l10 -10q6 0 16 -2t18 -4v-28h40l10 -14q8 0 17 -2t17 -4l-2 -28h42l12 -12q2 0 4 -1t4 -1l-2 -34h68l10 -10 q6 0 13 -2t17 -4v-26h18q-2 -10 -4 -17t-4 -13l-14 -10q-2 -6 -6 -16l-8 -20h-4v24h-88l-12 12q-40 0 -84 4t-88 6v26h-88l-10 10q-12 0 -25 3t-29 5l12 50h-26l10 50h26l8 48l16 10zM898 1446l-14 -8q-8 -38 -19 -77t-21 -75l-16 -10q-4 -26 -14 -54t-16 -56h-24 q0 -10 -2 -20l-10 -6l2 6h-42l4 44h-14l28 162h-24l22 118h-22q4 28 10 49t10 45l14 8q0 6 8 18h34v22h94l10 -12q6 0 15 -2t19 -4l-12 -56l32 -10l-10 -8h-24l2 18zM226 612h22l-4 -16h4l8 46l16 10q0 8 4 12h26l6 24h28v10t4 14l14 10q0 8 4 12h34v9t2 13l14 10q0 8 6 14 h34v10t2 14h22q0 10 2 20h24l6 26l16 10q0 8 4 12h36v10t2 14h20l8 46h28l10 -12q4 0 6 -1t4 -1l-10 -38l32 -10l-10 -8h-24l2 18l-10 -44h-22v-11t-2 -15l-16 -10q-2 -6 -6 -16t-8 -18h-26l-8 -46l-16 -10q-2 -6 -6 -17t-8 -21h-26l-8 -44l-16 -8q-4 -16 -10 -32t-10 -32 h-26l-8 -46h-46v-9t-2 -13h-52l-10 12q-6 0 -14 2t-18 4v28h-18l8 52l-28 8zM740 1122h12q4 4 4 12l6 6l-2 -38zM764 872q0 4 1 7t1 7l-4 -14h2z" />
<glyph unicode="+" d="M58 728h14l-2 -14l6 -2l8 42h26v10t2 16h142v9t2 13h48l10 -12l56 -10v9t2 13h70l10 -12l104 -10v9t2 13h132l116 580h26v10t2 14h50v20h4l10 -10q2 0 5 -1t5 -1l-2 -32h22l10 -12q2 0 3 -1t3 -1l-60 -316l-14 -8l-46 -194h20l12 -14q2 0 5 -1t5 -1l-2 -32h550l10 -12 q2 0 4 -1t4 -1l-2 -34h22l-3 -15t-3 -11h-28l-8 -46h-74l-4 -42l-20 20h2q2 8 2 13v9h-120l-14 -32l-4 10q2 8 2 13v9h-324v-9t-2 -13h-46l-36 -164h-20l-40 -224h20q-8 -48 -17 -86t-19 -84h-22v-9t-2 -13l-16 -10q0 -2 -4 -10h-38l-4 -46l-20 20h2q2 10 2 16v10h-22l4 42 h-18l102 534h-20v24h-92l-10 12q-114 0 -234 5t-236 5l2 32l-22 6z" />
<glyph unicode="," d="M586 -338h-2l6 28h26v9t4 13l14 8l12 38h26l6 24l16 10q0 8 4 12h28l26 134h-22v24h-16l-10 14q-4 0 -12 2l14 76h-22v6l18 8q4 14 10 30t10 32h50v9t2 13h48v24h28v-24h20l10 -12q6 0 15 -2t19 -4l-2 -30h16l-4 -44h18q-12 -60 -20 -108t-20 -106h-26l-10 -48h-22 q0 -4 -1 -9t-1 -11l-16 -8l-8 -16h-30v-10t-2 -14l-16 -10q0 -2 -1 -7t-3 -7h-32q0 -10 -2 -20l-16 -10q0 -2 -1 -7t-3 -7h-30l-6 -24h-28v-9t-2 -13h-30l-14 -36l-4 10q2 10 2 16v10h-24l6 28l-26 10l10 8h18l-2 -18z" />
<glyph unicode="-" d="M524 736h190v-24h202v10t2 14h138v-24h20l10 -10q2 0 5 -1t5 -1q-4 -24 -9 -43t-9 -41l-14 -10q-4 -16 -14 -36h-100v-9t-2 -15h-506l-10 14q-4 0 -12 2l2 30h-18q4 30 11 52t11 46l14 12q0 2 4 10h80v24z" />
<glyph unicode="." d="M896 30q-4 -14 -5 -32t-5 -36h-30v-10t-2 -14l-14 -10q0 -2 -4 -10h-30l-8 -24l-14 -12q0 -8 -4 -12h-34v-10t-2 -14h-26v24h-64l-10 12q-6 0 -15 2t-17 4l2 30h-20l-12 10q-2 0 -5 1t-5 1l10 56h-24l2 4h22l22 94l14 10q0 2 4 10h30l8 26l16 10q0 8 4 12h82l14 36l6 -12 v-24h68l10 -12q2 0 5 -1t5 -1l-2 -34h20l-4 -44h20l-6 -30h24q0 2 1 5t1 5l18 -28h-48l4 18h-2z" />
<glyph unicode="/" d="M1222 1630h52l-6 -22h22v-24h20l-8 -52h-28l-8 -46h-20l-8 -46l-18 -12q-4 -16 -14 -36h-26q-4 -14 -5 -33t-5 -35h-28q-2 -12 -6 -32t-8 -36l-14 -10q-2 -6 -6 -17t-8 -21h-28q-2 -12 -6 -32t-8 -36h-20l-8 -48l-14 -10q-2 -8 -7 -17t-9 -19h-28l-16 -90h-20l-16 -72 l-16 -8q-4 -14 -9 -29t-9 -31h-26l-10 -44l-16 -10q-4 -14 -9 -30t-9 -32l-14 -10q-2 -12 -10 -28t-12 -30h-26l-8 -48l-14 -8q-2 -12 -9 -29t-13 -31h-26l-14 -72l-14 -10q-2 -6 -7 -16t-9 -20h-26q-4 -16 -8 -42t-8 -48h-20l-12 -46l-16 -12q-2 -6 -6 -16t-8 -18h-22 l-22 -92h-20l-14 -72l-16 -8q-4 -16 -9 -30t-9 -30h-24l-20 -92l-16 -10q-4 -20 -12 -42t-14 -44l-14 -10q0 -2 -4 -10h-34v-10t-2 -14h-56l-14 -34l-4 10q2 8 2 14v10v24h-22l6 26h28l16 94h20q2 12 7 31t9 35h24q2 14 6 35t8 37l14 10q4 14 9 28t9 30h28q2 10 3 23t5 25 l16 8l12 38h30q2 12 6 33t8 39h20q4 14 5 32t5 36h28q4 14 5 32t5 34l16 10q4 14 10 30t10 32h28q2 10 3 23t5 25l14 8l12 38h28q4 14 5 32t5 36h24l20 94h22q2 12 6 32t8 36h24l8 46l14 8q4 14 11 30t11 32h26q4 16 5 34t5 34l16 10q2 12 10 28t12 30h26q2 14 6 35t8 37h22 l8 46h24q4 14 5 34t5 36l16 8q4 14 11 30t11 32h26q4 14 5 32t5 36l14 8q4 14 11 30t11 32h26l8 44l14 8q4 16 11 32t11 32l14 8l12 38h24zM1282 1658l20 -28h-28z" />
<glyph unicode="0" d="M1096 830h22l26 134h-24l24 136h-22l18 92h-24l14 72h-22l12 48h-22l4 46h-22l-10 12q-2 0 -5 1t-5 1l2 32h-20l-10 10q-6 0 -14 2t-18 4v28h-40l-10 12l-142 12l-6 -24h-50v-9t-2 -15h-50q0 -10 -2 -20h-22v-10t-2 -14l-16 -10q0 -8 -4 -12h-32l-8 -46l-16 -10 q-2 -6 -6 -17t-8 -21h-26l-14 -72l-16 -8q-4 -18 -11 -41t-13 -43h-26q-6 -40 -16 -90t-18 -92l-16 -10l-72 -332h24l-28 -140h22l-16 -92h24l-14 -68h20v-26h20l-10 -46h24l12 -10q2 0 5 -1t5 -1l-2 -34h16l10 -12q6 0 15 -2t19 -4v-28h200v10t2 14h50v9t2 13h44l6 24h28 q0 12 2 22l14 10q0 2 1 7t3 7h36v9t2 13h20q2 14 6 34t8 36l16 8l12 38h26l18 92l18 8q8 46 23 100t25 102h28l4 64h-22zM822 1570h166v-24h86l-6 -22h28v-26h38l10 -10q4 0 12 -2l-2 -32h20l10 -12q2 0 5 -1t5 -1l-2 -34h16l10 -12q4 0 12 -2l-2 -28h20l-10 -48h26l-14 -70 h20l-10 -48h26l-22 -114h22l-26 -140h24q-16 -92 -35 -177t-37 -175l-16 -8q-6 -32 -16 -65t-18 -67l-16 -8q-4 -14 -9 -29t-9 -31h-26q-2 -12 -6 -32t-8 -36h-24v-10t-2 -14l-16 -10q-2 -6 -6 -17t-8 -21h-26l-10 -44l-16 -10q0 -2 -1 -7t-3 -7h-30v-10t-2 -14l-18 -10 q-2 -6 -6 -16l-8 -20h-44l-8 -22h-28v-10t-2 -14h-22v-9t-2 -13l-18 -12q0 -2 -4 -10h-102v-10t-2 -14h-96v24h-112l-10 10q-6 0 -13 2t-17 4v28h-44v24h-14l6 22h-50v26h-20l-10 10q-2 0 -5 1t-5 1l2 32h-20l14 48h-26l4 46h-20l10 46h-24l14 68h-20l12 68h-24l32 164h-20 l50 282l18 8q8 46 23 100t25 100h26q2 12 6 33t8 37h20q4 14 5 34t5 36l18 8l12 38h28q2 8 3 21t5 25l16 10q0 2 1 8t3 8h32l8 42l14 8q0 2 8 18h34v9t2 13l14 10q0 2 1 7t3 7h36q0 10 2 20h22v11t2 15h68l6 22h74v24zM1082 1572l20 -26h-28zM346 84h28l-8 -26z" />
<glyph unicode="1" d="M972 1570h50v-24h18l-6 -22h22l-128 -652h-22l-4 -66h16q-4 -22 -8 -39t-8 -35h-22l-4 -64h16l-16 -76l-16 -8l-26 -100h18l-8 -52l-14 -8l-50 -220h22l-14 -46h28l10 -12q2 0 5 -1t5 -1l-2 -32h342l10 -12q4 0 12 -2q-4 -22 -9 -41t-9 -41h-836l-10 10q-6 0 -15 2t-17 4 q4 22 5 32t5 26h28v8t2 14h30l4 44l20 -20h-6q-2 -8 -2 -14v-10h188v10t2 14h46v9t2 13h26l78 412h-24q4 18 4 28t4 24h28l60 318h-26q8 46 18 84t18 82h22l58 298h-26l-10 10l-168 10q0 -10 -2 -20h-140l4 44h-20l8 30h26q0 10 2 20h24v11t2 15h250l6 22h124v24zM1048 1572 l18 -26h-26z" />
<glyph unicode="2" d="M630 16q2 10 2 22h-94q0 -12 -2 -22h-304l-10 10q-4 0 -12 2l2 32h-18l10 52l16 8q2 8 5 18t7 20h28l6 24l16 12q0 2 4 10h34v10t4 14h22v9t2 13h26v11t2 15l12 6q0 2 4 7t8 9h28v9t2 13h24l8 46l16 10q0 2 1 7t3 7h34v8t2 14h18l8 24h28v9t2 13l14 10q0 2 1 8t3 8h36v9 t2 13l14 10q0 8 4 12h32q2 8 4 22t6 26l14 10q0 8 4 12h34v10t2 14l14 12q0 2 2 4t4 6h30l6 24l14 8q0 4 4 16t8 20h30v10t2 14h26v9t2 13h20q4 8 5 22t5 26h28v10t2 14l14 8l12 38h30l8 48l16 8q4 14 9 29t9 31h28q4 14 5 32t5 34l14 10l58 244h-20l4 46h-22l-10 12 q-2 0 -5 1t-5 1l2 32h-20l-10 10q-2 0 -5 1t-5 1l2 32h-64l-10 12l-188 12l-6 -24h-26v-9t-2 -15l-18 -10q0 -2 -4 -10h-32v-10t-2 -14l-16 -10q0 -2 -1 -6t-5 -6h-28q-4 -26 -11 -58t-11 -60l-16 -10q-2 -6 -7 -17t-9 -21h-28q0 -10 -2 -20l-16 -10q0 -2 -1 -7t-3 -7h-54 v24h-20l-10 10q-4 0 -6 1t-4 1l12 62l16 8q4 14 10 30t10 32h28v9t2 13h22l8 46h26v9t2 13l14 8q0 4 3 8t7 10h28v9t2 13h26v10t2 14l16 10q0 2 4 10h34v11t2 15h42l6 22h100v24h164v-24h64l-6 -22h48v-26h20l10 -10q2 0 5 -1t5 -1l-2 -32h22l10 -12q2 0 3 -1t3 -1l-2 -34 h20l10 -12q2 0 5 -1t5 -1l-2 -28h18l-12 -48h28l-14 -70h20l-26 -146h-26q-4 -14 -5 -33t-5 -35h-26q-4 -14 -5 -33t-5 -35l-16 -10q-4 -16 -14 -36h-28v-11t-2 -15l-16 -10q0 -2 -2 -4t-4 -6h-30v-10t-2 -14l-16 -12q-4 -16 -14 -36h-30v-9t-2 -13l-16 -12q0 -2 -1 -7 t-3 -7h-32q0 -10 -2 -20l-16 -10l-14 -38h-28q0 -10 -2 -20l-18 -10q0 -2 -1 -7t-3 -7h-32v-9t-2 -15l-16 -10q-2 -6 -6 -16t-10 -20h-26v-9t-2 -15l-16 -10q0 -8 -4 -12h-34v-10t-2 -14h-22v-9t-2 -13l-16 -10l-8 -16h-32q0 -10 -2 -20l-16 -10q0 -2 -1 -7t-3 -7h-32 q0 -14 -2 -24l-16 -10q0 -8 -4 -12h-30l-10 -46l-18 -10q-2 -6 -6 -16l-8 -20h-26v-11t-2 -15l-16 -10l-26 -76h326l10 -12l54 -10v9t2 13h230l6 24h48q0 12 2 22h6l10 -10q6 0 15 -2t17 -4q-4 -20 -6 -31t-6 -25l-16 -8q-4 -16 -10 -32l-12 -32h-26v-9t-2 -13h-50 q0 -12 -2 -22h-48l-10 10l-52 12q0 -12 -2 -22h-74l-10 10l-198 8v4h-16l16 -4l-14 -28zM1118 1572l20 -26h-28z" />
<glyph unicode="3" d="M244 98l2 8h-2v2l2 4h28v10t2 14h24v-24h44l10 -12q6 0 13 -2t17 -4v-28h86l-6 -22h272l6 22h76v10t2 14h50v8t2 14l14 10q0 2 1 7t3 7h36v9t2 13h20l10 46h24l10 46l14 10q4 14 10 29t10 31h26l42 226h-24l14 70h-24l-10 14q-4 0 -12 2l6 52h-38l-10 14q-2 0 -6 1t-6 1 l2 32h-42l-10 10q-42 0 -85 4t-87 6v26h-16l-10 12q-4 0 -12 2q2 10 5 20t5 18h26v8t2 14h138v10t2 14h72v9t2 13h48l10 46l14 8l12 40h30q2 8 3 21t5 25l14 8l46 194h-20l10 48h-28l4 44h-16l-10 12q-2 0 -6 1t-6 1l2 34h-18v24h-22l-10 10q-16 0 -36 4t-38 6l-10 14 l-56 10v-9t-2 -15h-94q0 -10 -2 -20l-14 -10q0 -2 -1 -7t-3 -7h-36v-9t-2 -13l-14 -12q-2 -6 -6 -16t-8 -18h-28l-10 -48h-22v-10t-2 -14l-16 -10q0 -8 -4 -12h-80l-12 12q-2 0 -4 1t-4 1l12 60h22q2 12 6 33t8 39h26q0 10 2 20l16 8q2 8 6 18t8 22h26v9t2 13h50v10t2 14h46 q0 10 2 20h50v11t2 15h114l8 22h4l-6 -22h114v-26h66l10 -10q8 0 15 -2t17 -4v-28h42l12 -12q2 0 5 -1t5 -1l-2 -34h16l10 -12q4 0 12 -2l-6 -54h18l12 -12q2 0 4 -1t4 -1l-22 -100h26q-8 -46 -18 -85t-18 -83l-16 -8q-4 -14 -9 -31t-9 -33l-14 -10q-2 -8 -7 -16t-9 -18h-28 v-9t-2 -13l-16 -12q0 -2 -1 -7t-3 -7h-32q0 -10 -2 -20l-16 -10l-24 -78h24v-26h16l10 -12q4 0 14 -2l-4 -32h20l10 -10q2 0 4 -1t4 -1l-2 -32h18l10 -12q-2 0 10 -4l-10 -54h26l-12 -46h24l-14 -94h22q-4 -28 -10 -50t-10 -46l-18 -8q-4 -14 -10 -30t-10 -32h-24 q-4 -14 -5 -33t-5 -35h-28l-10 -48l-14 -10q-2 -6 -6 -16t-8 -18h-30v-10t-2 -16h-16l-6 -22h-28v-10t-2 -14l-18 -10q0 -8 -4 -12h-30q0 -12 -2 -22h-50v-10t-2 -14h-72v-9t-2 -13h-68l-6 -26h-302l-10 12q-12 0 -27 4t-31 8v24h-38v24h-42l-10 10q-6 0 -15 2t-19 4v28h-20 l8 30h-40l20 22v-6h22v-8zM480 92l18 -26h-28zM954 1572l18 -26h-26zM244 98l-2 -8h2v8z" />
<glyph unicode="4" d="M826 64v-4h24l-4 -16h2l22 108h-24l36 188h-648l-10 12q-6 0 -15 2t-19 4l12 50h-22l20 120l18 8q4 16 10 31t10 31h28v10t2 14h22l10 46h24l8 44l14 10q0 2 1 7t3 7h34l8 48l14 8q2 8 6 18l8 20h30l8 46h20l8 48l18 8q4 14 9 29t9 31h26q2 8 3 21t5 25l14 8l14 38h28 l8 46l14 10q2 12 16 36h28q4 14 5 34t5 36l14 8q0 4 8 16h32q4 16 5 34t5 34l16 8q4 16 9 30t9 30h28q2 8 3 22t5 26l16 8l12 36h30q2 10 3 23t5 25l14 10q0 2 1 7t3 7h36v9t2 13l6 4l-2 -4h68l10 -10q2 0 4 -1t4 -1q-4 -26 -9 -45t-9 -41h-22l-10 -46l-16 -10 q-2 -10 -5 -17t-7 -17h-28l-8 -46l-16 -12q-2 -6 -6 -16t-8 -18l-14 -8l-8 -16h-30q-4 -16 -5 -35t-5 -35h-26l-12 -46h-20l-8 -48l-16 -10q-2 -6 -6 -16t-8 -18h-26l-10 -48l-16 -10q-2 -6 -6 -17t-8 -21h-26l-10 -44l-16 -10l-14 -38l-14 -10q-2 -6 -7 -16l-9 -18h-26 l-10 -48l-14 -10q0 -8 -4 -12h-34l-8 -46h-20l-10 -48l-16 -10q0 -2 -2 -4t-4 -6h-30l-8 -48h-20q-2 -12 -7 -32t-9 -38l-16 -10l-14 -52h20v-26h40l10 -12l448 -10v9t2 13h68l8 48h22q20 100 41 208t43 210l16 10q0 2 4 10h34v10t2 14h26v-24h20l10 -10q2 0 3 -1t3 -1 l-86 -448h22v-26h22l10 -12q38 0 82 -4t86 -6l10 -12q-2 0 10 -4l-8 -38l34 -8l-10 -8h-26l2 16l-2 2v-9t-2 -13l-14 -10q0 -8 -4 -12h-190l-6 -24h-28l-8 -46l-14 -10l-16 -56h20q-4 -28 -11 -50t-11 -48l-14 -8q-4 -18 -11 -39t-13 -43l-14 -10q0 -2 -1 -7t-3 -7h-36v-9 t-2 -13h-24l-10 12q-8 0 -17 2t-17 4l8 56h-40zM958 1602l-8 -6l12 30l6 -10z" />
<glyph unicode="5" d="M1208 524l30 -10l-10 -8h-22v4q-4 -28 -13 -63t-13 -63l-16 -10q-2 -6 -6 -16t-8 -18h-24l-12 -48l-16 -10q0 -8 -4 -12h-28q-2 -14 -7 -34l-9 -36l-16 -10q0 -2 -1 -7t-3 -7h-32v-10t-2 -14l-16 -10q-4 -6 -8 -16l-8 -20l-14 -8q0 -2 -2 -6l-4 -8h-58v-10t-2 -14h-22v-9 t-2 -13h-50q0 -12 -2 -22h-48v-10t-4 -14h-94v-9t-2 -13h-302l-10 12q-18 0 -38 4t-40 6v24h-44l-10 10q-2 0 -5 1t-5 1l2 32h-20l8 30h26v8t2 14h72l10 -12q20 0 39 -4t39 -6v-24h230v10t2 14h70v8t2 14h46v10t2 14h50v9t2 13h42l8 24l16 12q0 2 4 10h34v10t2 14l16 8 l12 40h24l6 22h24l10 46h24q4 22 11 55t11 59l14 8l38 150h-22l18 94h-24l4 42h-18v26h-20l10 46h-46l6 24h-26v24h-20l-10 10q-6 0 -13 2t-17 4v30h-298v-11t-2 -15h-94l10 48h-24q12 64 24 120t26 116l14 8q16 78 35 158t35 156h46v11t2 15h554l8 22h24l-6 -22h50 q-4 -24 -8 -41t-8 -35l-16 -10q0 -2 -1 -7t-3 -7h-58q0 -10 -2 -20h-464v-10t-2 -14l-14 -8q-4 -20 -11 -42t-13 -42h-28l-44 -250h44l-6 -22h304v-24h42l10 -14q6 0 14 -2t18 -4v-28h20l10 -10q6 0 13 -2t15 -4l-2 -30h22l10 -12q2 0 5 -1t5 -1l-2 -32h20l-4 -46h14l-6 -22 h28l-10 -48h24l-4 -46h18l-14 -74l30 -10l-10 -8h-22l2 18zM692 1066l18 -28h-28zM1276 1572l18 -26h-28zM1200 832l18 -26h-28zM958 824h28l-10 -26zM1208 524q0 -6 -2 -10z" />
<glyph unicode="6" d="M1170 464q-4 -28 -12 -62t-12 -62l-16 -8q-4 -16 -10 -31t-12 -31h-24l-8 -46l-16 -10l-14 -38h-28v-10t-2 -14l-16 -10q-2 -6 -6 -16l-8 -20h-46l-6 -22h-50v-10t-2 -14l-16 -10q0 -8 -4 -12h-30q0 -12 -2 -22h-50v-10t-2 -14h-94v-9t-2 -13h-118l-10 12q-18 0 -39 4 t-41 6v24h-42l-10 10q-6 0 -15 2t-17 4v28h-22v24h-14l6 22h-26l4 46h-18v24h-22l14 48h-24l4 46h-18l10 46h-24l16 92h-22l22 116h-24q12 68 25 132t25 128h26q4 22 11 55t11 59l14 8q4 20 12 42t14 44h26q4 14 5 32t5 34l16 10q4 14 11 30t11 32l14 10q2 8 6 17t8 19h28 l10 48l14 10q0 8 4 12h32l8 46h20l6 24h28v9t2 13l14 10q0 2 1 8t3 8h36q0 10 2 20h22v9t2 13h24l6 26l16 10q0 8 4 12h58v10t2 14h26q0 10 2 20h70v11t2 15h42l6 22h52v10t2 14h142v22h28l10 -10q6 0 14 -2t18 -6q-4 -24 -9 -41t-9 -39h-48v-9t-2 -13h-112l-6 -24h-96v-9 t-4 -15h-48q0 -10 -2 -20l-16 -10q0 -2 -1 -7t-5 -7h-54v-9t-2 -13l-14 -10l-10 -16h-28q0 -4 -1 -9t-1 -11l-14 -10q-2 -6 -6 -17t-8 -21h-30v-10t-2 -14l-16 -10q0 -8 -4 -12h-32l-10 -46l-16 -10q-2 -6 -6 -17t-8 -21l-14 -10q-2 -6 -6 -16t-8 -18h-28l-10 -48l-14 -8 q-4 -14 -9 -29t-9 -31h-28l-20 -112h118v10t2 14h22v9t2 13h70l6 26h52q0 10 2 20h70v10t2 14h116v-24h68l10 -10q2 0 3 -1t3 -1l-2 -34h44l10 -12q6 0 13 -2t17 -4v-28h20l10 -12q4 0 12 -2l-2 -32h14l-6 -22h28l-12 -72h22l10 -10q2 0 10 -2l-18 -102h20l-8 -52h-24 l-14 -68l-2 -8v-6zM388 366h24l-12 -68h22l-12 -48h26l-10 -46h22l12 -10q2 0 5 -1t5 -1l-2 -34h18l10 -12q4 0 12 -2l-2 -32h20l10 -12q12 0 24 -3t28 -5v-26h112v10t2 14h70v8t2 14h50v10t2 14h26v9t2 13l14 8q0 4 8 16h32l8 46h22v9t2 13h26q2 14 6 34t8 36l14 8l76 356 h-20l-10 14q-4 0 -7 1t-7 3l10 50h-20v26h-20l-10 12q-6 0 -15 2t-21 4l2 28h-62l8 24h-160l-6 -24h-74v-10t-2 -14h-48v-9t-2 -13l-16 -12q0 -2 -1 -7t-3 -7h-34q0 -10 -2 -20h-22v-9t-2 -13l-18 -10q-2 -10 -6 -18t-8 -18h-26l-8 -48l-18 -8zM1204 466l-10 -8h-24v6 q0 8 2 14zM1172 832l20 -26h-28zM328 84h26l-8 -26z" />
<glyph unicode="7" d="M418 1524h26v-26h298v11t2 15h440v-26h20l12 -10q2 0 4 -1t4 -1l-2 -32h20q-4 -28 -10 -50t-10 -46l-18 -12q-2 -6 -6 -16t-8 -18l-14 -10q-2 -6 -6 -17t-8 -21h-30l-8 -46l-14 -10q-4 -18 -11 -40t-13 -44h-28q-2 -12 -6 -32t-8 -36h-20l-8 -46l-16 -10q-2 -6 -7 -17 t-9 -19h-24l-10 -46l-14 -12q-2 -6 -6 -16t-8 -18h-28l-10 -48h-20l-16 -92l-18 -8q-2 -12 -9 -29t-11 -31h-26v-10t-2 -14l-18 -10q-4 -16 -14 -38h-24q-4 -14 -5 -33t-5 -35h-28l-14 -72l-14 -8q-4 -14 -9 -29t-9 -31h-26l-20 -92h-22v-9t-2 -13l-16 -8q-6 -28 -16 -55 t-16 -55l-14 -10q-2 -6 -6 -16l-8 -20h-28q-2 -12 -6 -32t-8 -36l-14 -12q0 -2 -4 -10h-28l-10 -46l-16 -10l-8 -16h-56q0 -10 -2 -20h-24l-10 10q-2 0 -5 1t-5 1l2 34h-18q4 22 8 39t8 35h20q2 8 3 21t5 25h26l10 46l14 8q2 12 9 29t11 31h26l10 46h20q2 14 6 34t8 36h24 l8 46l16 8l12 38h28q2 12 6 33t8 39h22l8 44l14 8q4 16 10 31t10 31h28l8 46l14 8q2 12 9 28t11 32h28l8 46h20q2 14 6 35t8 37h26l8 46l14 10q0 8 4 12h32q2 12 7 33t9 37h20q2 12 6 33t8 37h24l8 46l16 8q2 8 5 18t7 20h28l10 46h20l20 94h26l2 62h-20l12 48h-670v24h-20 l4 44h-16l8 30h22q0 10 2 20h50v26z" />
<glyph unicode="8" d="M344 390h28l-16 -92h22l-14 -48h28l-10 -46h22l10 -10q2 0 5 -1t5 -1l-2 -34h18l12 -12q12 0 25 -3t29 -5v-26h64l10 -12l126 -10v8t2 14h70v10t2 14h48v9t2 13h44l6 24h30q0 12 2 22h20l8 46h28v11t2 15l14 8q4 18 11 40t13 42l16 8l30 104h-24l18 92h-24l14 46h-28 l10 48h-22l-10 10q-2 0 -5 1t-5 1l2 34h-44l-10 12q-6 0 -14 2l-16 4v24h-44v26h-156v-11t-2 -15h-94q0 -10 -2 -20h-48v-9t-2 -13l-14 -8l-8 -18h-34q0 -10 -2 -20h-20l-8 -48l-16 -10q-2 -6 -7 -16t-9 -20h-26q-4 -14 -5 -34t-5 -36h-28zM1114 1152h26l20 112h-24l18 94 h-20l-10 12q-4 0 -12 2l6 52h-20l-10 14q-6 0 -14 2l-16 4l2 28h-44l-10 12l-190 10v-9t-2 -13h-46l-6 -24h-50v-9t-2 -15l-16 -10q0 -2 -4 -10h-34v-10t-2 -14l-16 -8q-4 -16 -9 -30t-9 -30l-14 -8l-48 -198h20l-12 -48h30l10 -10q2 0 5 -1t5 -1l-2 -30h18v-24h16l10 -14 q8 0 17 -2t17 -4v-28h64l10 -10l124 -10q0 10 2 20h48v10t2 14h48v9t2 15h48q2 8 3 21t5 25h26l8 46h22zM854 1592h166l12 -10q18 0 37 -5t41 -7v-24h38l-6 -22h50v-26h18l10 -10q4 0 12 -2l-6 -54h14l12 -14q4 0 6 -1l6 -3l-10 -50h22l-10 -48h26q-10 -54 -19 -97t-19 -95 l-18 -10q-2 -6 -6 -16t-8 -18h-24l-10 -48l-18 -10q0 -8 -4 -12h-30v-10t-2 -16l-16 -10q0 -2 -4 -10h-30l-6 -24h-26v-9t-2 -13l-16 -12l-24 -76h26v-24h16l-6 -22h48v-26h18l10 -12q4 0 12 -2l-2 -32h18l10 -10q4 0 12 -2l-14 -56h24l10 -10q4 0 12 -2l-6 -56h16l-16 -92 h24q-4 -28 -10 -51t-10 -49l-16 -8q-4 -18 -12 -41t-14 -43h-24l-8 -48l-16 -10q0 -2 -4 -10h-28l-6 -24h-28v-9t-2 -15l-14 -10q0 -8 -6 -14h-34q0 -10 -2 -20h-22v-10t-2 -16l-18 -8q0 -2 -2 -6l-4 -8h-32v-10t-2 -14h-50v-9t-2 -13h-48q0 -12 -2 -22h-140v-10t-4 -14h-70 v24h-158l-10 10q-6 0 -13 2t-17 4v28h-44v24h-18l6 22h-24v26h-20l-10 10q-2 0 -5 1t-5 1l2 32h-18l12 48h-26l4 46h-16l-12 12q-4 0 -12 2l26 124h-24q2 10 4 16l4 12l16 8q4 26 13 53t15 55h24q2 8 3 21t5 25l16 8l12 38h26l6 24l18 10q0 8 4 12h32v9t2 13h48v10t2 14h26 v9t2 13l14 10q0 4 1 9t3 7h30l6 22h52l4 66h-22l-10 10q-2 0 -4 1t-4 1l2 34h-20l-10 12q-2 0 -4 1t-4 1l2 32h-44l4 46h-18l-10 12q-2 0 -5 1t-5 1l16 76h-26l16 72h-26q4 22 8 39t8 35h26q2 12 6 33t8 37l14 8q4 14 9 29t9 31l18 8q2 8 6 18t8 22h28v9t2 13l16 10q0 2 1 7 t3 7h34q0 10 2 20h50v11t2 15h16l6 22h78v10t2 14h70v22zM1156 1572l20 -26h-28zM1060 832l18 -26h-26zM304 84h26l-8 -26z" />
<glyph unicode="9" d="M266 16h-2l6 28h44l6 22h98v10t2 14h70v8t2 14h70v10t2 14h50v9t2 13h48l10 46h26v10t2 14h48v9t2 13l14 12q0 2 1 7t3 7h32l12 44h20l8 46h24l8 46l16 8q2 8 6 18l8 20h28l8 48h22l32 178h-66q0 -10 -2 -20h-50v-10t-2 -14h-46v-9t-2 -15h-46l-6 -24h-210l-10 12 q-12 0 -27 3t-31 7v26h-40v24h-20l-10 10q-2 0 -5 1t-5 1l2 34h-18l-10 12q-4 0 -12 2l2 28h-18l12 48h-28l12 48h-24l4 44h-16l14 72h-24q10 58 21 106t21 106h26q4 14 5 34t5 36l14 8q4 14 10 30t10 32l18 8l12 40h30q0 10 2 20h20l10 48h28v9t2 13h50v10t2 14l14 10 q0 2 4 10h56v11t2 15h42l6 22h120v24h98v-24h66l-6 -22h70v-26h42l10 -10q2 0 5 -1t5 -1l-2 -32h44l10 -12q4 0 12 -2l-14 -56h22l10 -10q4 0 12 -2l-6 -56h18l-4 -46h22l-14 -46h24l-24 -118h26q-20 -100 -38 -187t-36 -187l-16 -8q-4 -18 -12 -41t-14 -43l-14 -8 q-4 -20 -11 -42t-13 -44h-26l-20 -94l-14 -10q-2 -6 -6 -16t-8 -18h-28l-8 -46h-22v-9t-2 -13l-16 -12q-2 -6 -6 -16t-10 -20h-28v-9t-2 -13l-16 -10q-2 -8 -6 -18t-8 -18h-24l-6 -24l-14 -10q0 -2 -1 -7t-3 -7h-34v-10t-4 -14l-14 -10q0 -2 -4 -10h-34v-10t-2 -16h-16 l-8 -22h-52v-10t-2 -14h-48v-9t-2 -13h-50q0 -12 -2 -22h-48v-10t-2 -14h-70v-9t-2 -13h-92l-6 -26h-2l-10 12q-16 0 -38 4t-42 8l6 28l-32 10l10 10h24l-2 -20zM456 968h20l-16 -92h24v-24h16l-4 -46h20l-8 -22h26v-26h40l12 -12q6 0 15 -2t17 -4v-28h202v10t2 14h48v9 t2 13h28v11t2 15h16l6 22h52l8 46h26v10t2 14h24v9t2 13l14 8l74 334h-22l10 48h-24l4 44h-20l12 48h-24v24h-20l-10 10q-8 0 -15 2t-17 4v28h-62l-10 12l-120 12l-8 -24h-48v-9t-2 -15h-50q0 -10 -2 -20h-48v-10t-2 -14l-14 -10q0 -8 -4 -12h-32l-8 -46h-20l-6 -24h-26 q-4 -30 -12 -69t-14 -71l-16 -8zM1014 1572l20 -26h-28z" />
<glyph unicode=":" d="M652 698h46l-4 -20h4q4 16 5 35t5 35h30v9t2 15h18l6 24h96l12 -12q2 0 4 -1t4 -1l-2 -34h42l-8 -50h24q0 2 1 4t1 4l20 -28h-48l2 20h-4q-4 -16 -5 -34t-5 -34h-26v-11t-2 -15h-48v-9t-2 -13h-96l-12 12q-2 0 -4 1t-4 1l2 34h-20l8 48h-22q0 -2 -1 -4t-1 -4zM550 50h22 l-4 -20h2l10 48h26l8 46h46v24h28v-24h64l10 -10q6 0 15 -3t21 -5l-12 -50h24l-8 -52h-30v-9t-2 -13l-14 -8l-8 -18h-34q0 -10 -2 -20h-116l-10 10q-2 0 -6 2l2 34h-22l8 48l-28 12z" />
<glyph unicode=";" d="M644 -218l6 14q0 -4 -1 -8t-1 -8l-2 -2q12 2 22 8t8 22q0 2 2 7t2 9v2q20 4 26 24l2 22q6 16 7 28t-25 24q8 4 14 18q-20 0 -24 -8q0 18 -16 26q0 -2 -4 -10l4 10q-4 2 -5 4t-3 2q6 0 8 -4q2 24 -22 26l6 28q18 22 4 32l16 74q0 4 -2 4q4 2 8 6t16 12q-4 0 -8 4h10l4 4 q0 -4 -2 -4h2q10 0 22 -2t28 20v6h20l-2 -24h54q-2 0 -2 2l8 -2h4q-4 -16 3 -19t17 -3q-2 -26 16 -30q-22 -44 16 -44l-8 -24q-12 -22 -6 -29t22 -11l-16 -92v-12l-4 8v4q-6 0 -11 -3t-15 -15q0 -4 4 -4q-18 0 -24 -4t-7 -11t1 -14t0 -13v-4q0 -2 -1 -3t-1 -3q0 4 2 6 q-14 2 -22 2t-8 -28q-8 0 -18 -10t-10 -22l-4 -24q-2 4 -2 8v4q-6 0 -12 -2t-16 -14v-8q-26 0 -26 -20q-24 2 -30 -24q-16 -2 -22 -7t-6 -21q-10 0 -16 -3t-10 -17q4 0 4 -2q-4 -4 -4 -6v8q-22 6 -35 2t-15 -26h2v-2q0 -2 -1 -4t-1 -4v10h-8q-2 0 -3 1t-3 1q0 16 -20 22 l8 44q10 2 17 6t7 16h-10l10 8v-8h30l2 24q-8 0 -14 2q12 0 16 12l-2 -14q20 -2 24 22h-4l6 6q0 -4 -2 -6q22 0 28 24h-8zM832 542q-14 4 -26 0t-16 -20h-4q4 16 -9 20t-29 0q0 -2 -1 -3t-1 -3v6h-2q-4 0 -4 2q-2 0 -2 2q6 6 6 0q-4 18 -20 20q20 4 28 20h-38q2 10 0 22 t-10 20v2q8 16 3 27t-15 15l4 28q2 -6 10 -9t12 -5l14 80q0 -2 2 -4h2q10 18 14 18h16q34 0 34 40q6 -20 0 -20q10 0 17 6t7 28q2 -10 12 -4l10 18h50l-2 -24h56q-8 -14 -4 -18t14 -4q-2 -10 4 -15t16 -7q0 -16 16 -20l-24 -134q0 4 -6 2t-10 -6q-2 -14 -14 -12l-20 -20v-2 q6 0 12 -2q-4 0 -10 -6l-2 -6v14q-10 2 -14 -5t-6 -15q2 0 3 -1t3 -1l-6 -4v6q-18 -2 -28 -26h20l-22 -20q0 -4 -4 0q2 4 2 9t4 11h-42zM620 54l-4 4h8q22 0 28 -10l-2 -16h-32q10 0 8 12zM504 -358h26l-4 -24zM618 -10h14q6 0 10 -2l-4 -20zM992 784q0 -2 2 -4h2h-16 q0 12 8 26zM858 130l4 -4h-14q0 8 6 24zM542 -394q0 8 -8 12q4 0 8 1t8 1q0 -10 -12 -28zM970 820q-6 -16 -2 -16q-2 0 -3 -1t-5 -1q0 6 12 22zM868 102v-6l4 -18q-6 6 -6 18h-2zM832 158q0 -8 6 -10h-10q2 2 2 4t2 6zM680 -78l4 4q2 0 3 -1t3 -1q-4 -4 -10 -4v2zM778 506 q6 14 4 16h4q-4 -12 -8 -18v2zM714 586q-2 -4 -2 -8l-8 8h10zM768 186q0 -12 4 -14h-6zM540 -302q2 -8 -2 -12zM898 860q0 -10 2 -12h-4zM782 172q-6 -4 -10 0h10zM660 -174h20q-4 -2 -10 -1t-10 1zM640 -354q-2 12 0 14v-14zM704 626l-8 6l8 -4v-2zM950 826q0 4 4 8z M772 522h10h-10zM874 96q2 2 8 2q-4 -2 -8 -2zM908 848q-6 -2 -8 0h8zM920 564q-6 0 -8 2zM614 -372q-4 2 0 6v-6zM900 558q0 4 2 4q0 -2 -1 -2t-1 -2z" />
<glyph unicode="&#x3c;" d="M886 246l-34 -44l-56 32q0 -2 -4 -8t-6 -8l-366 318l12 26q-2 2 -7 3t-11 5l16 74l8 14q-2 4 -1 7t1 9l504 326l-8 24l28 -10l-20 -14l6 -20l66 34l14 -42q2 0 7 3t9 5q6 -20 12 -31t12 -27l-14 -8q0 -2 2 -9t4 -11l-6 -12q0 -2 1 -7t1 -7q-30 -14 -50 -26t-48 -26v34 l-328 -240l232 -232l22 24l66 -44l2 -20l2 -2l-18 -32q2 -2 4 -2t2 -1t2 -1l-50 -62l18 -16l-32 -2l14 18zM1086 930l-10 -28q-4 8 -8 20z" />
<glyph unicode="=" d="M1058 838v-9t-4 -13h-68l-12 12l-124 10v-9t-2 -13h-50l-10 12l-98 10v-9t-4 -13h-416l-10 12q-6 0 -16 2l-20 4l12 50h-26v6h30v10t2 14l16 12q0 8 4 12h150v9t2 13h48l12 -12l422 -10v9t2 13h98l10 -12q80 0 165 -4t165 -6l10 -12q4 0 7 -1t5 -1q-2 -10 -5 -21t-7 -19 l-14 -10q-2 -6 -6 -16l-8 -20h-128l-14 -32l-4 10q2 8 2 13v9h-116zM462 614l12 -12q196 0 396 -6t398 -6l-10 -48h26l-3 -15t-3 -11h-28v-10t-2 -14h-626v-9t-2 -15h-98l-10 14q-80 0 -165 4t-165 6v24h-20l-10 12q-4 0 -12 2q0 4 1 7t1 5h30v11t2 15l16 10q0 8 4 12h258 l6 24h4z" />
<glyph unicode="&#x3e;" d="M618 998l-14 -20l8 -8l36 46l54 -34q0 2 5 9t7 9l366 -320l-22 -22q2 0 12 -4t16 -8l-18 -72l-10 -14q0 -2 1 -9t1 -9l-504 -326l10 -22l-30 10l20 12l-6 20l-66 -32l-14 40q-2 0 -6 -3t-8 -5q-8 20 -14 32t-12 26l16 8q0 2 -2 9t-4 11h18l-8 30l90 48l18 -18l312 224 l-232 232l-24 -24q-18 10 -34 23t-32 23l-2 18l-4 2l22 32q-4 0 -10 6l50 60l-16 18zM424 314l6 -20l-18 -6z" />
<glyph unicode="?" d="M884 1542l12 -12q18 0 37 -4t41 -6v-26h18l10 -10q4 0 13 -2t17 -4l-2 -28h22l10 -12q2 0 5 -1t5 -1l-2 -30h20v-24h20l10 -12q4 0 12 -2l-18 -80h22q-6 -42 -14 -75t-16 -69h-20q-2 -14 -6 -33t-8 -35l-16 -10q-2 -8 -6 -18l-8 -20h-26l-10 -46l-16 -10q0 -8 -4 -12h-34 v-10t-2 -14l-16 -10l-4 -12h-30v-10t-2 -14l-18 -10q0 -8 -4 -12h-28l-6 -24l-14 -12q-2 -6 -7 -16t-9 -20h-28q0 -10 -2 -20l-14 -12q0 -8 -4 -12h-34l-10 -44h-20l-8 -48l-16 -8q-10 -38 -22 -78t-20 -78l-14 -10l-4 -12h-82l-10 12q-2 0 -6 1t-6 1q4 28 12 54t14 52l14 8 q4 14 9 31t9 33h28l10 46h22v9t2 13h24l8 46l16 8q2 8 6 18l8 20h52l8 48h26q0 10 2 20h22v10t2 16h26q2 8 3 21t5 25l16 8l12 38h30l8 46h18l46 226h-22l10 68h-22l12 48h-48l-10 12l-240 10v-9t-2 -13l-16 -10q0 -2 -1 -7t-3 -7h-28l-12 -48l-14 -8q-8 -42 -20 -88 t-22 -88l-18 -12q0 -2 -4 -10h-24l-6 -22h-78l6 22h-22l-10 10q-4 0 -12 2q10 38 14 68t10 64h28v8t2 14h20q2 8 3 21t5 25h28l8 48l14 10q0 2 1 7t3 7h34l8 44h44l6 24h50q0 10 2 20l14 12q0 2 1 7t3 7h80v9t2 13h140zM376 1100h26l-8 -26zM598 294l10 -12q6 0 13 -2t17 -4 v-30h44l-12 -44h26l-10 -48h22q-2 -10 -4 -16t-2 -10h-20l-10 -48l-18 -10q-2 -6 -6 -16l-8 -20h-52v-9t-2 -13h-164l-10 12q-4 0 -12 2l2 34h-16q6 34 12 61t12 57h22v10t2 14h26l10 44h48v11t4 15h46v9t2 13h28z" />
<glyph unicode="@" d="M724 1590h50l10 -16q46 0 99 -4t101 -6v-20h68l10 -14q6 0 16 -2l20 -4v-28h22l10 -14q2 0 14 -4v-26h48v-24h22l10 -14q2 0 14 -4v-52h22v-22h24v-72h22v-68h26v-118h40l-20 -22h-20v-96l-16 -10q0 -24 -4 -51t-6 -53h-22v-70l-14 -12q0 -26 -4 -52t-6 -54h-22v-226h22 v-44h46l10 -14q10 0 18 -3t18 -5l10 -14q2 0 14 -4v-58h-44v-24h-76v24h-48v22h-22v26h-110v-26l-14 -10q0 -4 -1 -6l-3 -6h-74v-24l-14 -12q0 -4 -1 -6l-3 -6h-150v24h-68v24h-48v22h-20v26h-26v20h-22v24h-24v24h-24v44h-24v116h-20v30h20v116h24v92h24v46h24v46h22v24h26 v22h20v22h24v24h24v24h68v24h70v20h98v-20h92l10 -14l122 -10v24h24v62h-24v188h-22v44h-26v22h-20v26h-22v20h-26v24h-44v24h-68v24h-72v22h-224v-22h-92v-24h-48v-24h-46v-24l-14 -10q0 -2 -1 -5t-1 -5h-30v-26l-16 -10q0 -4 -1 -6l-3 -6h-26v-24h-22v-20l-14 -12 q0 -6 -3 -16t-5 -20l-14 -10q0 -6 -2 -17t-4 -21h-28v-44h-24v-48l-14 -10q0 -8 -3 -17t-5 -19l-14 -10q0 -16 -4 -39t-6 -43l-14 -10q0 -64 -4 -134t-8 -134h-20v-202h20v-138h26v-94h22v-92h24v-48h24v-44h24v-22h20v-48h26l10 -14l12 -4v-28h20l10 -14q4 0 16 -4v-28h22 l10 -16q8 0 17 -3t19 -5v-22h24l10 -14l12 -4v-30h48l10 -14q8 0 16 -3t18 -5l12 -14q12 0 28 -3t32 -5l12 -16q124 0 248 -6t248 -6v-46l-14 -10q0 -4 -1 -7l-3 -9h-100v-22h-182v-24h-6v24h-140v22h-92v26h-68v20h-48v24h-24v24h-44v20h-24v24h-44v24h-24v24h-24v22h-20 v26h-26v20h-22v24h-24v24h-24v44h-24v24h-20v48h-26v68h-22v48h-24v114h-20v138h-26v422h26v92h20v92h24v48h22v68h26v48h20v44h24v26h24v22h24v46h22v24h26v22h20v24h24v24h24v20h44v24h24v24h44v24h72v20h92v26zM1160 712h26v108h-26v46h-20v24h-22v22h-26v26h-20v22h-72 v22h-108v-22h-72v-22h-22v-26h-46v-22h-22v-24l-14 -10q0 -2 -1 -5t-1 -5h-30v-48l-14 -10q0 -12 -3 -28t-5 -30h-24v-206h20v-68h26v-46h22v-22h24l12 -14q6 0 10 -2v-30h248v22h48v24h44v44h26v24h22v116h20v140z" />
<glyph unicode="A" d="M1004 1488h26l10 -12q4 0 12 -2l-2 -32h20l-4 -44h16l-14 -72h24l-12 -46h24l-10 -68h22l-14 -70h22l-12 -68h26l-16 -70h22l-10 -70h22l-14 -68h22l-14 -72h24l-4 -46h16l-4 -44h20l-4 -46h18l-18 -92h26l-12 -48h22l-10 -48h22l-16 -92h24l-4 -44h18l-14 -70h26l-6 -46 h18l-10 -48h26l-12 -44h48v-26h64l10 -12q6 0 15 -2t17 -4q-4 -18 -6 -29t-6 -27h-24v-9t-2 -13h-442l-10 12q-12 0 -27 3t-31 5l6 30h24l6 24h96v9t2 13h70v11t2 15h26l20 108h-26l12 70h-20l16 70h-26l4 46h-18l-10 12q-2 0 -5 1t-5 1l2 32h-318l-10 12l-194 10v-8t-2 -14 h-42l-6 -24h-26q-4 -16 -9 -42t-9 -48l-14 -8q-4 -16 -10 -32t-10 -32h-24l-28 -134h26l10 -10q2 0 5 -1t5 -1l-2 -34h134l10 -12q2 0 5 -1t5 -1q-2 -10 -5 -17t-5 -17l-14 -10q0 -2 -1 -8t-5 -8h-262v-9t-2 -13h-190l-10 12q-6 0 -14 2l-16 4l10 56h28v9t2 13h48v11t2 15 h46q0 10 2 20h22l6 24l16 8q4 16 9 30t9 30h30v10t2 16h20q2 12 6 32t8 38h26q4 14 5 32t5 34l16 10q4 14 10 29t10 31h28l8 48l14 8q2 8 6 19t8 21h30l8 44h18l18 94h28l8 44l14 8l12 38h28l16 72h20l8 44l14 10q4 14 10 29t12 31h24l18 94l14 8q4 14 9 29t11 31h26 q2 12 6 32t8 38l14 8q2 8 6 18l8 20h26l18 92l16 10q4 18 12 39t14 43h48v10t2 14h28v22zM602 586h22l10 -10l378 -10q0 10 2 20h48l20 114h-22l4 44h-24l20 90h-24l14 72h-24l14 68h-20l10 48h-24l14 70h-24l4 42h-18l12 48h-72v-9t-2 -13h-48l-8 -46h-20q-2 -12 -7 -32 t-9 -38l-16 -10q-2 -6 -6 -16t-8 -18h-22l-22 -94l-16 -10q-2 -6 -6 -16l-8 -20h-24q-2 -12 -7 -33t-9 -37l-16 -10q-2 -6 -6 -17t-8 -19l-14 -8z" />
<glyph unicode="B" d="M1294 1044h-24l-8 -44l-18 -12q-4 -16 -14 -36h-26v-10t-2 -14l-14 -10q0 -4 -4 -12h-36v-10t-2 -14l-14 -10q0 -8 -4 -12h-32l-6 -26l-14 -10l-14 -50h16v-26h20l12 -12q12 0 25 -3t29 -5l10 -14q2 0 5 -1t5 -1l-2 -34h42l10 -10q2 0 5 -1t5 -1l-2 -32h18l10 -14 q4 0 12 -2l-6 -52h18v-26h20l-14 -70h20q-8 -46 -17 -84t-17 -82h-20l-8 -44l-18 -12q-2 -6 -6 -16l-8 -20h-24l-10 -46l-18 -10q0 -2 -1 -7t-3 -7h-30v-9t-2 -13l-16 -8l-8 -18h-56v-9t-2 -13h-24q0 -10 -2 -20h-48v-10t-2 -16h-50v-9t-2 -13h-94v-10t-2 -14h-2v24h-296 v-10t-2 -14h-96v24h-270l-10 12q-4 0 -12 2l4 36h26l6 24h50v9t2 13h70v11t2 15h26q0 10 2 20l14 8q16 86 38 170t38 170h22l42 206h-22q24 124 43 233t45 233h26l20 108h-26l10 48h-46l-10 12q-24 0 -49 5t-51 7l-10 12q-2 0 -10 2q4 20 5 31t5 27h28v24h628l10 -14 q22 0 51 -4t53 -6l10 -10q4 0 13 -2t17 -4l-2 -28h18l12 -12q6 0 15 -2t19 -6l-12 -48h20l10 -12q4 0 6 -1l6 -3l-10 -56h24l-24 -116l4 16h42l-20 -20v4h-26zM1104 310l16 8l36 148h-22l12 68h-24l12 48h-24v24h-22l-10 10q-2 0 -4 1t-4 1l2 34h-20l-10 12q-8 0 -17 2 t-17 4l2 30h-40l-12 10q-18 0 -37 4t-41 6v24h-248v-10t-2 -14l-14 -8l-124 -586h22v-26h66l10 -12l262 -10v9t2 13h48v11t2 15h48q0 10 2 20h24l6 24h46l10 48l14 8l12 38h28zM1126 1026h24l36 180h-26l12 68h-22v26h-20l-10 12q-6 0 -15 2t-17 4l2 28h-88l-10 12l-194 10 v-8t-2 -14h-44l-10 -46l-16 -8l-90 -426h22l-10 -48h210v9t2 13h72v11t2 15h48q0 10 2 20l14 10q0 2 1 7t3 7h50l6 24h28l8 46l16 8z" />
<glyph unicode="C" d="M800 1466h214v-24h114l10 -14q44 0 94 -4t98 -6l10 -10q2 0 5 -1t5 -1l-14 -56h26l-2 -4l-18 -8l-58 -264h24v-6h-30v-10t-2 -14h-24v-9t-2 -13h-50l-12 12q-2 0 -4 1t-4 1l12 56h-24l22 114h-22l4 46h-20l-10 12q-2 0 -4 1t-4 1l2 34h-22l-10 12q-6 0 -15 2t-17 4l2 28 h-312l-8 -24h-48v-9t-2 -13h-50v-10t-2 -16l-16 -10q0 -8 -4 -12h-34v-9t-2 -13l-16 -10q-2 -6 -6 -17t-8 -21h-26v-9t-4 -13l-16 -10q-2 -6 -6 -17t-8 -19h-24q-2 -12 -6 -32t-8 -38h-20l-20 -92l-16 -8q-8 -46 -23 -100t-25 -100l-14 -8l-28 -102h22l-36 -188h24l-18 -88 h22l-14 -72h22l10 -12q4 0 12 -2l-6 -54h16v-24h22l10 -14q2 0 4 -1t4 -1l-2 -32h42l12 -10q6 0 13 -2t17 -4v-30h44l10 -12l238 -10v9t2 13h48v11t2 15h48q0 10 2 20h24l6 24l14 8q2 10 5 20t7 20h32q0 10 2 20l14 8q4 22 11 44t13 44h26l12 66l14 10q0 4 8 16h30 q0 10 2 20h30l10 -10q6 0 13 -2t17 -4q-12 -68 -26 -133t-26 -131l-18 -10q0 -2 -1 -7t-3 -7h-30v-9t-2 -13l-16 -8l-10 -18h-54v-9t-2 -13l-14 -10q0 -2 -2 -4t-4 -6h-54v-10t-2 -16h-50v-9t-2 -13h-94v-10t-2 -14h-96v-8t-2 -14h-92l-10 12q-22 0 -51 4t-51 6v24h-66 l-12 12q-6 0 -13 2t-17 4v30h-44l-10 10q-2 0 -4 1t-4 1l2 30h-18l-10 12q-2 0 -5 1t-5 1l2 34h-22v24h-16l12 46h-26l-10 12q-2 0 -5 1t-5 1l2 34h-20l12 66h-24l14 48h-28l12 68h-20l22 118h-24q14 72 29 141t29 139h22l18 94l16 8q4 14 9 30t9 32h26q2 12 6 32t8 38l16 8 l12 36h28q2 8 3 22t5 26l16 10q0 6 6 12h32l8 46h22v10t2 14h28v9t2 13l14 10q0 4 8 16h34q0 10 2 20h22v10t2 14l14 12q0 8 4 12h52l6 24h28q0 10 2 20h50v10t2 14h70v24z" />
<glyph unicode="D" d="M384 1442h122l10 -14l286 -10v10t2 14h2l10 -14q52 0 108 -4t108 -6l10 -10q12 0 25 -3t29 -5l10 -14q6 0 14 -2t20 -6v-28h40v-24h44l10 -10q2 0 4 -1t4 -1l-2 -34h16l10 -12q4 0 12 -2l-2 -32h20l10 -12q4 0 12 -2l-2 -32h16l10 -12q4 0 12 -2l-14 -56h26v-24h20 l-4 -44h16l-14 -70h22l-16 -94h22l-22 -112h24q-8 -46 -16 -85t-16 -83l-16 -8q-8 -30 -18 -64t-18 -68l-14 -8q-2 -12 -9 -28t-11 -32h-28l-14 -72h-20l-8 -46l-18 -10q-2 -6 -6 -17t-8 -19h-26v-9t-2 -13l-16 -8l-8 -16h-30q0 -12 -2 -22l-16 -10q-2 -6 -6 -16l-8 -20h-48 l-6 -26l-14 -10q0 -8 -4 -12h-34q0 -10 -2 -20h-48v-10t-2 -16l-18 -10q0 -8 -4 -12h-148v-10t-2 -14h-624v24h-22l-10 12q-2 0 -5 1t-5 1q2 10 4 19t4 17h46l6 24h72v9t2 13h48v11t2 15h22q42 218 87 439t85 439l14 8l38 148h-22v6h26l14 86h-22l10 48h-26l-10 12 q-14 0 -25 3t-27 5l-10 14q-18 0 -39 3t-39 7l-10 14q-6 0 -14 2q2 10 5 20t5 18h28q0 10 2 20l14 10zM1198 634l16 8l32 124h-22l30 162h-24l14 72h-20l12 68h-20l-12 12q-4 0 -6 1l-6 3l10 50h-22v26h-20l12 46h-48l-10 14q-2 0 -5 1t-5 1l2 30h-20l-10 12q-2 0 -4 1t-4 1 l2 34h-90l-10 12l-262 10v-9t-2 -13l-16 -10q0 -2 -1 -8t-3 -8h-30l-142 -714h-20l-20 -114h22l-64 -320h24v-26h64l10 -12l172 -10v9t2 13h70v11t2 15h74q0 10 2 20h42l6 24h50l8 48h22q0 10 2 20h28v10t2 16l14 8q2 8 6 18l8 20h30l8 48l14 8q2 12 9 29t11 31l14 8 q4 14 10 29t10 31h26z" />
<glyph unicode="E" d="M918 534h-28v26h-20l12 46h-24l4 46h-20l12 48h-24l-10 10q-12 0 -24 3t-28 5v26h-204l-8 -44l-16 -10l-8 -16h-30l-94 -504h24l-12 -44h24v-26h458v11t2 15h96q0 10 2 20h40l6 24h28l8 48l14 8q4 18 11 41t13 43h28q4 14 5 33t5 35l16 10q0 8 4 12h36l10 -12q2 0 5 -1 t5 -1l-10 -52h24q-14 -74 -28 -143t-30 -139l-16 -10q0 -2 -1 -8t-3 -8h-32v-9t-2 -13h-48v-10t-2 -14h-4v24h-968l-12 12q-2 0 -4 1t-4 1l2 34h-20v2h24l8 24h48v9t2 13h72v11t2 15h28q0 10 2 20h18l228 1176h-44l-10 12q-22 0 -49 5t-51 7l-10 12q-4 0 -12 2l2 32h-20 l6 26l18 10l10 14h1044l10 -14q4 0 12 -2l-14 -76h18l-8 -50h-24q-4 -26 -11 -58t-11 -60l-18 -8q-4 -14 -9 -29t-9 -31l-14 -10q0 -8 -4 -12h-60l4 42h-20l22 118h-20l10 48h-50l-10 12q-24 0 -58 4t-62 6l-12 12l-374 12l-6 -24h-24l-58 -300l-16 -8l-28 -104h24l-10 -70 h20l10 -12l282 -10l8 48h24l10 44l14 10q4 14 10 29t10 31h28v10t2 14h6l10 -12q2 0 4 -2t4 -2l-8 -36h26q0 2 1 4t1 4l18 -26h-48l2 18z" />
<glyph unicode="F" d="M272 1414h22l-4 -16h4l10 44h234v24h2v-24h506v10t2 14h348v-24h42l-4 -44h18q-8 -48 -17 -85t-17 -83l-14 -8q-10 -38 -22 -78t-20 -76l-16 -12q0 -8 -4 -12h-34l-10 12q-2 0 -5 1t-5 1l2 34h-16l30 160h-24l-10 12q-2 0 -5 1t-5 1l2 34h-64l-10 12q-18 0 -38 3t-38 5 l-12 14q-52 0 -109 5t-109 7l-10 12l-170 10v-8t-2 -14h-44l-102 -528h44l10 -12l188 -12l6 24h96l16 92h24q2 14 6 34t8 36h30l14 34l6 -10q-2 -8 -2 -14v-10h2l10 -12q2 0 4 -1t4 -1q-22 -120 -45 -227t-45 -227h-28l-16 -34l-6 10q2 8 2 14v10h-2l-10 12q-2 0 -4 1t-4 1 l18 80h-26l12 68h-20l-10 12q-18 0 -39 4t-39 8l-10 12l-172 10q0 -10 -2 -20h-18l-6 -26h-26l-28 -140l-14 -8l-32 -130l28 -8l-10 -10h-24l6 18l-4 2l-14 -88h24l-28 -140h24l10 -12q2 0 4 -1t4 -1l-2 -30h68v-26h130l12 -12q4 0 12 -2q-2 -10 -5 -17t-5 -17l-18 -10 q0 -2 -1 -8t-3 -8h-30v-9t-2 -13h-536l-12 12q-6 0 -14 2l-16 4l10 56h30v9t2 13h46v11t2 15h116l10 44h24l72 370h22l20 134h-18q10 44 16 74l14 70h20l30 156h-22l66 348h-22l-10 12q-16 0 -38 3t-40 7l-10 14l-54 10v-8t-2 -14h-2l-10 12q-6 0 -16 2l-20 4l6 34l-28 8z " />
<glyph unicode="G" d="M1198 1022l4 46h-18l24 114h-26l14 48h-26l4 44h-18v26h-20l-10 12q-6 0 -15 2t-17 4l2 28h-42l-10 12l-260 10v-8t-2 -14h-46l-6 -24h-74v-9t-2 -13l-14 -10q0 -2 -1 -8t-3 -8h-34v-9t-4 -13h-22v-9t-2 -13l-16 -10q0 -2 -1 -7t-3 -7h-32l-10 -46l-16 -10q-2 -6 -6 -17 t-8 -19h-24l-12 -46l-16 -12q-2 -6 -6 -16t-8 -18l-14 -8q-4 -26 -15 -53t-17 -55l-14 -8l-82 -380h22l-22 -118h20l-12 -66h26l10 -14q2 0 5 -1t5 -1l-12 -54h24l-4 -46h18v-24h42l10 -14q2 0 5 -1t5 -1l-2 -32h18l10 -10q14 0 27 -3t29 -5v-28h44l10 -12l238 -10v9t2 13 h48v11t2 15h48q0 10 4 20h42l6 24l16 8l58 264h-20l-10 12q-2 0 -6 1t-6 1l2 32h-182v24h-14q4 18 4 28t4 26h50q0 10 2 20h442l10 -10q2 0 4 -1t4 -1l-10 -62h-26v-10t-2 -14h-48v-8t-2 -14h-46l-70 -346l-16 -8l-8 -18h-122v-9t-2 -13h-48q0 -10 -2 -20h-50v-10t-2 -16 h-48v-9t-2 -13h-70v-10t-2 -14h-74v-8t-2 -14h-72l-10 12q-32 0 -61 4t-63 6v24h-42l-10 12q-14 0 -26 3t-28 5v28h-44l-10 10q-4 0 -12 2l2 30h-14l-10 12q-2 0 -5 1t-5 1l2 34h-22v24h-16l-10 10q-4 0 -12 2l14 56h-24l4 46h-22v24h-16l12 48h-28l18 90h-22l32 164h-24 l34 188h28l28 140l14 8q6 26 16 54t16 54h24l8 44h22l8 48h24q2 8 3 21t5 25l16 8l14 38h30v10t2 14h22v9t2 13h24l6 26l16 10q0 2 4 10h30v10t2 14h50v10t2 14h22l8 24h50q0 10 2 20h48v10t2 14h70v24h258v-24h114l10 -14q46 0 96 -4t98 -6l10 -10q2 0 5 -1t5 -1l-12 -56 h22l-8 -50h-24l-48 -232l-14 -12q-2 -6 -6 -16t-8 -18h-34l-14 -34l-4 12q2 8 2 13v9h-26z" />
<glyph unicode="H" d="M48 30v-4h24l-4 -16h2l8 44h44l6 24h72q10 64 26 139t28 141h24l14 84h-22q26 124 45 234t43 234h24l18 64h-28q10 46 18 85t16 83h24l22 110h-26l10 48h-48l-10 12q-22 0 -48 4t-52 6l-10 12q-2 0 -6 1t-6 1l8 38h22l6 24l18 10l10 10h330l10 -10q14 0 25 -3t27 -5 l10 -14q2 0 6 -1t6 -1l-14 -62h-74v-9t-2 -13h-42l-48 -232l-14 -10l-54 -240h20l10 -12q2 0 7 -1t7 -1l-2 -30h500q0 10 2 20h46q2 12 6 34t8 38l14 8l30 100h-20l58 326h-92l-10 12q-18 0 -38 4t-40 6l8 28h-40l22 22v-4h20q-2 -4 -2 -10l4 10h-2q0 6 2 14l4 16h76 q0 10 2 20h140l10 -10q52 0 107 -4t107 -6l10 -12q2 0 6 -1t6 -1l-14 -62h-72v-9t-2 -13h-46l-8 -48h-20l-224 -1152h20l12 -12q16 0 36 -3t40 -5l10 -14q6 0 14 -2t18 -6v-28h20l-8 -24t-6 -26h-70v-8t-2 -14h-276l-12 12q-12 0 -26 3t-30 5v26h-18l8 26h22v10t2 14h44 l8 24h28v9t2 13h18l78 394l14 8l30 104h-22l4 46h-390l-10 12l-124 10v-9t-2 -13h-44l-8 -46l-14 -8l-106 -498h22l12 -12q4 0 13 -2t17 -4l-2 -28h88l10 -12q4 0 12 -2l-12 -60h-94v-8t-2 -14h-142l-10 12l-98 10v-8t-2 -14h-52l-10 12q-6 0 -15 2t-19 4l6 34h-40z" />
<glyph unicode="I" d="M1120 1442h136l10 -14q4 0 12 -2l-2 -14l26 -6l-10 -8h-16v14l-4 2q-4 -14 -5 -32t-5 -36h-118l-6 -24h-212v-9t-2 -13h-20l-72 -372l-16 -8l-28 -102h26l-132 -672h20l10 -10q6 0 16 -2t18 -4v-30h320l10 -12q2 0 4 -1t4 -1l-2 -32h22q-2 -10 -4 -17t-2 -11h-50v-9 t-2 -13h-814l-10 12q-2 0 -4 1t-6 1l4 34h-20l6 26l18 10q0 8 4 12h54v11t2 15h72v-26h112v11t2 15h48l10 44l14 8q46 230 94 459t92 457h24l26 136h-24l10 70h-20l-10 12q-40 0 -84 4t-86 6l-10 12q-38 0 -73 5t-75 7l-10 12q-4 0 -12 2q2 10 5 20t5 18h24l8 44h678l14 34 l6 -10v-24z" />
<glyph unicode="J" d="M362 -20v24h-88l-10 12q-12 0 -25 3t-29 5v28h-42l-12 10q-12 0 -26 3t-30 5l-12 14q-2 0 -6 2l2 34h-20l18 92h-20l20 122l18 10q0 2 1 7t3 7h60l16 30l6 -10q-2 -10 -2 -20h24v-24h20l-12 -48h22l-10 -48h26l-4 -44h20l10 -14q2 0 3 -1t3 -1l-2 -32h20l12 -10 q6 0 15 -2t17 -4v-30h204l10 -12l52 -10v9t2 13h74v11t2 15h46q0 10 2 20l16 8q0 4 8 16h30l8 48l14 8l216 1074h-46l-10 12q-14 0 -25 3t-27 5l-10 14q-42 0 -85 5t-87 7l-10 12q-2 0 -5 1t-5 1q2 10 5 20t5 18l14 8l18 36h626l10 -14q2 0 5 -1t5 -1l-2 -14l30 -6l-10 -8 h-20v14l-4 2l-8 -46l-14 -10q0 -4 -4 -12h-32l-14 -48l-20 24h8l6 24h-118l-6 -24l-16 -10q0 -8 -4 -12h-32l-60 -320h22q-4 -18 -4 -28t-4 -24h-28l-4 -62h20q-28 -156 -59 -305t-59 -301l-18 -10q-4 -14 -10 -30t-10 -32h-24q-4 -16 -5 -34t-5 -34l-16 -8l-8 -18h-32v-9 t-2 -13l-14 -10q0 -4 -6 -10h-34v-10t-2 -16h-48v-9t-2 -13h-96v-10t-2 -14h-74l-4 -42l-20 20h2q2 10 2 14v8h-184z" />
<glyph unicode="K" d="M364 1442h120l4 44l20 -20h-2q-2 -8 -2 -14v-10h230l12 -14q4 0 12 -2q-2 -10 -5 -17t-5 -17l-18 -10q0 -2 -1 -7t-3 -7h-102v-8t-2 -14l-14 -10q-4 -16 -14 -36h-30l-30 -166h42l-20 -20v4h-24l2 16l-14 -84h22l-8 -50h-26l-26 -134h24l-10 -48h26l-14 -44h72q0 10 2 20 h44l6 24l16 10q0 8 4 12h36v11t2 15h22q0 10 2 20h28v10t2 14l12 8q0 2 3 7t7 9h28v10t2 14h28v9t2 13l14 12q0 8 4 12h34v9t2 13l16 8q2 8 6 18t8 22h30q0 10 2 20h22l8 48h22l6 24l16 10q0 8 4 12h34l8 46h22l4 66h-16l12 46h-48l-12 12q-6 0 -14 2l-16 4l10 54l14 10 q0 10 4 14h62l4 44l22 -20h-2q-2 -8 -2 -14v-10h160v10t2 14h116v-24h68l-4 -44h16v-6h-26v-10t-2 -14l-16 -10q0 -4 -4 -12h-74l-6 -24h-52v-9t-2 -13l-16 -10q0 -2 -1 -8t-3 -8h-32v-9t-2 -13l-16 -10q0 -8 -4 -12h-34v-9t-2 -15l-16 -8l-8 -16h-28l-8 -48h-24 q0 -10 -2 -20l-16 -10q0 -8 -4 -12h-28l-6 -24h-30v-10t-2 -14h-22v-9t-2 -13l-16 -10q0 -6 -6 -12h-32v-11t-2 -15l-16 -10q-4 -16 -14 -36h-28v-8t-2 -14l-16 -10q0 -2 -1 -7t-3 -7h-34v-9t-2 -13h-44l-28 -134h24l10 -12q4 0 12 -2l-6 -54h16l10 -12q4 0 6 -1t8 -3 l-4 -32h18v-24h20l10 -10q2 0 5 -1t5 -1l-2 -34h18l-6 -22h24v-24h20l-10 -48h24l10 -10q2 0 5 -1t5 -1l-2 -34h18l-4 -42h18v-24h20l10 -14q2 0 4 -1t4 -1l-2 -32h22l10 -12q2 0 4 -1t4 -1l-2 -34h20l-4 -44h18l10 -14q4 0 7 -1t5 -1l-2 -32h16l10 -10q18 0 38 -4t40 -6 v-26h90l10 -12q2 0 3 -1t3 -1l-2 -32h22q-2 -10 -4 -17t-2 -11l-18 -10q0 -8 -4 -12h-54v-10t-2 -14h-2v24h-206l-10 12q-6 0 -14 2t-18 4v30h-18l-10 10q-4 0 -12 2l2 30h-20l14 48h-24v24h-20l12 46h-24l-10 12q-4 0 -12 2l6 54h-18v24h-20l-10 12q-2 0 -4 1t-4 1l2 34 h-20l-12 12q-2 0 -4 1t-4 1l10 54h-24l-10 12q-2 0 -4 1t-4 1l2 32h-20l4 46h-20l-10 12q-4 0 -12 2l2 34h-14l6 22h-24v24h-22l-10 10q-2 0 -4 1t-4 1l2 34h-42l-12 12l-76 10v-9t-2 -13h-46l-72 -372l-16 -10l-16 -52h22l-16 -72h24l10 -10q6 0 13 -2t17 -4v-30h90l10 -12 q2 0 5 -1t5 -1l-2 -32h18q-2 -10 -4 -17t-2 -11h-50v-9t-2 -13h-256l-10 12l-52 10v-9t-2 -13h-96l-12 12q-4 0 -12 2l4 36l-26 10l10 8h18l-2 -18h2l6 24h30v9t2 13h50v11t2 15h46q0 10 2 20l14 8l236 1168h-22l-10 12q-26 0 -61 4t-65 8l-10 12q-4 0 -12 2l8 38l-26 8 l10 8h20l-4 -16h2l8 44h56l14 34l4 -10v-24zM892 568l18 -28h-28zM672 560h26l-8 -28z" />
<glyph unicode="L" d="M990 1414v-9t-2 -13l-16 -10q0 -2 -1 -7t-3 -7h-58v-8t-2 -14h-112l-6 -24l-16 -10q0 -8 -4 -12h-32l-28 -158h24q-2 -10 -4 -17t-2 -11l-16 -8l-30 -102h24l-10 -52h-24l-150 -782h24l-12 -44h48v-26h296v11t2 15h184q0 10 2 20h68l6 24h50q4 24 10 56t10 60h22l28 140 h26q0 10 2 20h72l12 -10q4 0 12 -2l-66 -334h22q-2 -10 -4 -16l-4 -12l-14 -8q-4 -14 -9 -29t-9 -31h-52v-10t-2 -14h-120v24h-944l-10 12q-6 0 -14 2t-18 4l12 50h-2l2 6h28v9t2 13h24v11t2 15h142q0 10 2 20h18l192 972h24l32 182h-24l-10 12q-2 0 -6 2l2 32h-204l-10 12 q-6 0 -15 2t-21 4q4 22 10 39t10 39h48v24h560v-24h44l-6 -30l26 -6l-10 -8h-16v14zM116 64l12 8h22l-4 -18z" />
<glyph unicode="M" d="M132 1460h26l-6 -18h6v10t2 14h48v22h192l10 -12q12 0 25 -3t29 -5v-26h16l10 -14q4 0 12 -2l-14 -52h24l-10 -48h28l-14 -46h26l-10 -68h22l-4 -46h16l-12 -48h26l-4 -44h20l-14 -48h28l-4 -46h16l-10 -46h26l-12 -48h24l-12 -68h18l10 -12q4 0 7 -1t7 -3l-10 -54h112 l8 46h22l8 24l14 8q4 16 9 30t9 30h26q2 8 3 22t5 26l18 8q4 14 9 30t9 32h26q2 8 3 21t5 25l16 8q0 6 4 17t8 19h28l8 48l16 8q4 14 10 30t10 32h26q4 14 5 33t5 35l16 10q4 14 10 29t10 31l16 12q0 8 4 12h34l10 44l14 8q2 10 5 20t7 20h332v-24h42l-12 -50h14l-14 -34 l-4 10q0 8 4 24h-74v-10t-2 -14h-48v-8t-2 -14h-90l-10 -46l-16 -10l-16 -56h22q-10 -54 -20 -96t-20 -94l-16 -8l-26 -102h24q-4 -22 -8 -39t-8 -35l-18 -8l-54 -242h22l-8 -50h-28l-6 -66h22q-2 -10 -4 -17t-2 -11l-18 -8l-36 -148h24v-6h-28l-14 -86h24l-10 -48h20 l10 -12q14 0 28 -3t28 -7l10 -12q12 0 26 -3t30 -5v-28h18l10 -12q4 0 14 -2q-2 -10 -6 -17t-6 -17l-16 -10q0 -2 -1 -8t-3 -8h-102v-9t-2 -13h-28l-10 12q-80 0 -165 4t-165 6v26h-20l-2 2h4q2 8 4 21t6 25l16 12q0 2 1 7t3 7h78q0 10 2 20h46l6 24h26l88 464h18l72 366 h-20l32 160h-68l-8 -46l-16 -10q0 -8 -4 -12h-32l-10 -48l-16 -10q-2 -6 -6 -16t-8 -18l-14 -12q-4 -16 -14 -36h-32v-10t-2 -14l-14 -8q-4 -16 -9 -30t-9 -30h-26q-2 -12 -7 -33t-9 -37h-22v-9t-2 -15l-16 -10q-2 -6 -6 -16l-8 -20h-26l-10 -46l-16 -10q-2 -6 -6 -16 l-8 -20l-14 -12q0 -2 -4 -10h-34l-10 -46l-14 -12q0 -2 -1 -7t-3 -7h-12v26h-20l6 22h-22v24h-18l4 46h-20l-12 12q-2 0 -4 1t-4 1l16 78h-24l4 46h-18l4 44h-20l12 48h-22l4 46h-22l14 46h-26l10 48h-26l4 46h-18l12 46h-114l-34 -162l-14 -8l-24 -86l30 -8l-10 -10h-24 l4 18l-2 2l-58 -320h20l-54 -276h26l-12 -70h20l10 -14q2 0 5 -1t5 -1l-2 -32h90l10 -10q6 0 14 -2t18 -4l-10 -60l28 -8l-10 -8h-20l2 16l-6 2q0 -10 -2 -20l-16 -10q0 -2 -1 -8t-3 -8h-426v26h-18l8 48h30v11t2 15h22q0 10 2 20h46l6 24h28v9t2 15l14 8q18 90 41 181 t39 183h24l152 780h-26l-10 12q-6 0 -15 2t-19 4l2 28h-112l10 50l-30 10zM624 560h26l-8 -28zM786 74q0 -4 -1 -5t-1 -5q8 -2 12 -2l8 -8h-38z" />
<glyph unicode="N" d="M304 1466h98v-24h204l10 -14q4 0 12 -2l-14 -52h22l-10 -48h26l-12 -46h24l12 -12q2 0 10 -2l-14 -78h22l-12 -46h24l10 -14q4 0 12 -2l-6 -52h16l-12 -48h28l-4 -46h18l-10 -46h24l-6 -24h24v-24h22l-4 -46h16l-12 -46h26l-4 -46h18l10 -12q4 0 12 -2l-6 -56h18l10 -10 q4 0 12 -2l-14 -56h24l-4 -44h16v-26h18l-6 -22h26l-10 -48h48v-24h62l120 622h-26l38 184h-22l10 48h-28l-10 12q-16 0 -35 3t-39 5l-10 14q-12 0 -30 6v28h-44l10 50l16 10q0 10 4 14h452l10 -14q2 0 5 -1t5 -1q-4 -20 -7 -31t-7 -27l-16 -10q0 -4 -4 -12h-52l-6 -24h-48 l-10 -55t-10 -61l-14 -8l-30 -104h22q-4 -22 -8 -38t-8 -34l-14 -8l-104 -496h22q-26 -130 -49 -246t-47 -246l-16 -10q0 -8 -4 -12h-54v-10t-2 -14h-30v24h-16l-10 12q-4 0 -12 2l2 34h-20l4 42h-20l12 48h-24l4 46h-20l12 46h-22l4 46h-20l12 46h-28l14 72h-20l-10 12 q-4 0 -12 2l14 76h-20v24h-22l12 48h-22l6 22h-26l4 46h-18l10 46h-26l12 46h-26v24h-20l4 46h-16l4 44h-20l12 48h-24v24h-18l4 46h-20l12 48h-24l4 44h-20l-10 12q-2 0 -4 1t-6 1l14 56h-48l-10 10l-54 10l-8 -42l-14 -8l-136 -658h22l-40 -208h24l-10 -48h22l10 -12 q14 0 28 -3t28 -7l10 -12q16 0 37 -3t39 -5v-28h22l10 -12q2 0 4 -1t4 -1q-4 -20 -7 -31t-7 -29h-138v-9t-2 -13h-328l-10 12q-6 0 -15 2t-19 4l12 50h-2l2 6h28v9t2 13l14 12q0 2 1 7t5 7h34q0 10 2 20h18l6 24h48l222 1152h-20l-10 12q-24 0 -50 5t-54 7l-10 12q-2 0 -5 1 t-5 1q4 22 9 41t9 41l14 10zM-2 64l10 8h24l-4 -18zM968 568l18 -28h-28zM774 560h26l-8 -28zM790 960l18 -26h-26z" />
<glyph unicode="O" d="M856 1514h30v-26h136l10 -12q20 0 39 -4t39 -6v-24h40l10 -14q4 0 12 -2l-2 -28h16l10 -12q14 0 32 -6v-30h20l-4 -44h16l10 -12q4 0 7 -1t7 -3l-2 -32h16v-24h20l-4 -46h18l-14 -70h24l-4 -44h16l-18 -94h26l-24 -114h24q-10 -64 -24 -120t-24 -118l-14 -10 q-4 -24 -14 -52t-18 -54l-16 -8q-4 -26 -14 -52t-16 -54h-20l-10 -46l-16 -10q-2 -6 -6 -17t-8 -21h-26l-8 -44l-18 -12q-2 -6 -6 -16l-8 -20l-14 -8l-8 -16h-56q0 -12 -2 -22l-16 -10q0 -2 -1 -7t-3 -7h-32v-9t-2 -13l-16 -8l-8 -18h-30v-9t-4 -13h-48q0 -10 -2 -20h-48 v-10t-2 -16h-142v-9t-2 -13h-164l-10 12q-20 0 -39 4t-39 6v26h-42l-10 10q-6 0 -15 2t-17 4v26h-42l-10 12q-2 0 -4 1t-4 1l2 34h-22l6 46h-18l-10 12q-2 0 -4 1t-4 1l2 32h-20l4 46h-18v24h-22l16 70h-22l12 68h-24l18 92h-22q18 96 36 177t34 175l14 8q8 38 21 78t21 78 h24l8 44h20q2 12 7 34t9 38h26v9t2 13l14 8q4 16 9 31t9 31h30v9t2 13h18l6 26l16 8l14 36h50v10t2 14h24l6 24h50q0 10 2 20l16 10q0 10 4 14h56v10t2 14h94v9t2 13h70v26zM1124 634h28l46 248h-24l28 140h-22l18 92h-24l-10 10q-2 0 -5 1t-5 1l10 56h-24l12 48h-24l4 44 h-18v26h-42l-10 12q-8 0 -16 2l-16 4l2 28h-42l-12 12q-12 0 -25 3t-29 5v26h-136v-10t-2 -14h-70v-8t-2 -14h-66l-6 -24h-30v-9t-2 -13h-22v-10t-2 -16l-16 -10q-2 -6 -6 -16t-8 -18h-26l-10 -48l-16 -10q-2 -6 -6 -17t-8 -21h-26q-2 -12 -6 -31t-8 -35l-16 -12 q-4 -18 -11 -39t-11 -43l-14 -8l-98 -448h22l-16 -92h24l-16 -68h24l-10 -48h26l-12 -46h24v-26h20l12 -10q2 0 4 -1t4 -1l-2 -32h20l10 -14q6 0 15 -2t19 -4l-4 -28h42l10 -10q12 0 25 -3t29 -5v-28h110v11t2 15h96q0 10 2 20h42l6 24h52v9t2 15h28v10t2 14h20l8 46l14 10 q0 8 4 12h34l8 48l16 8l12 36h28l18 92l14 10z" />
<glyph unicode="P" d="M364 1486h776l10 -12q22 0 49 -4t53 -6l10 -12q4 0 6 -1t8 -3l-2 -32h44l10 -12q4 0 10 -2l-2 -34h22l10 -14q2 0 5 -1t5 -1l-12 -54h26v-28h18l-12 -46h26q-16 -70 -25 -124t-21 -122h-26l-12 -48l-14 -10q-2 -8 -6 -18l-8 -20h-28l-10 -50l-16 -10q0 -2 -1 -7t-3 -7 h-34v-9t-2 -13l-14 -8l-10 -20h-56v-9t-2 -13h-50v-9t-2 -13h-50v-10t-2 -16h-92l-6 -22h-78q0 -4 -1 -12t-1 -14h-288q-2 -14 -6 -34t-8 -36l-16 -8l-84 -394h24l-8 -48h44l10 -14q40 0 76 -5t76 -7l12 -12q8 0 17 -2t19 -4l-2 -30h20q-2 -12 -4 -18l-4 -12l-16 -10 q0 -8 -4 -12h-78q-2 -4 -3 -12t-3 -14h-124v26h-110l-8 -26h-290v26h-22l10 52h32q0 4 1 12t1 14l14 10q0 8 4 12h126l6 26h28v9t2 13l14 8l236 1162h-24l8 50h-44l-10 12l-146 12l-6 -24h-10l14 46h-28l4 32h26l6 24l16 10zM1172 938l14 8l56 246h-22l10 50h-24l-12 12 q-2 0 -5 1t-5 1l2 34h-16l6 22h-28v26h-44l-10 12q-10 0 -17 2t-17 6l-8 16l-104 10v2h-210l-6 -24h-24l-116 -596h26l10 -12l268 -10v9t2 13h100v11t2 15h48v9t4 13h48l10 50l16 10q0 2 1 7t3 7h32z" />
<glyph unicode="Q" d="M1106 504h26l84 448h-26l14 74h-22l16 72h-26l14 70h-22l10 48h-26v26h-18l10 48h-48l6 22h-74v26h-42l-12 12q-2 0 -6 1t-6 1l2 34h-202l-8 -24h-50v-10t-2 -14h-52q0 -4 -1 -12t-1 -14h-44l-6 -22h-28v-11t-2 -15h-26l-12 -48l-14 -12q0 -8 -4 -12h-32l-16 -72l-14 -10 q-2 -6 -6 -16t-8 -18h-24l-18 -98h-24l-96 -498h20l-16 -96h24l-10 -48h22l-10 -48h28l-10 -50h22l10 -12q2 0 6 -1t6 -1l-2 -32h18l12 -14q4 0 12 -2l-2 -34h18l10 -12q10 0 17 -2t19 -4l8 -18q12 0 26 -3t28 -7v-24h212v9t2 13h68l6 26h32v9t2 13l14 10q0 6 6 16h54 q2 8 3 22t5 26l16 10q0 8 4 12h36l10 50l14 8q4 14 9 30t9 32h26l18 96l16 8zM794 1486h174l12 -12q22 0 48 -4t54 -6l10 -12q6 0 14 -2t20 -6v-28h44l10 -12q4 0 10 -2l-2 -34h22l10 -14q6 0 15 -2t17 -4l-2 -28h20l-10 -50h26l-6 -22h24l-10 -48h26l-10 -48h22l-10 -48h30 l-16 -70h24l-14 -74h24q-20 -106 -39 -196t-39 -194l-16 -8q-4 -28 -15 -57t-17 -57l-14 -8q-4 -14 -10 -31t-10 -33h-30l-8 -48l-14 -10q-2 -10 -7 -19t-9 -19h-30v-9t-2 -13l-14 -10l-8 -16h-32l-10 -50l-14 -10q0 -8 -4 -12h-30l-6 -24h-52v-9t-2 -13l-14 -12 q-2 -8 -6 -18l-8 -20h-50l-6 -24h-24l-22 -114h24l10 -12q2 0 5 -1t5 -1l-2 -34h22l10 -12q2 0 4 -1t4 -1l-2 -32h22l-10 -50h24l10 -12q2 0 5 -1t5 -1l-2 -34h18l10 -12q4 0 7 -1l9 -3l-2 -32h18l10 -12l104 -12v10t2 14h6l10 -12q4 0 13 -3t17 -5l-16 -82h-50v-10t-2 -14 h-76v-9t-2 -13h-46q-2 -4 -3 -13t-3 -15h-52v-9t-2 -13h-28l-10 12q-4 0 -12 2l12 58h-22l10 48h-28l10 48h-24l-10 12q-2 0 -5 2t-5 2l12 54h-24v28h-18l12 46h-30l10 50h-48l12 48h-52l12 46h-50l-10 12q-6 0 -16 2t-18 4l2 32h-164l-10 12q-6 0 -15 2t-19 4v28h-16 l-10 12q-8 0 -16 2t-18 6v26h-22v28h-42l-10 12q-2 0 -5 1t-7 1l14 54h-28v28h-18l-10 12q-2 0 -5 1t-5 1l12 56h-24l10 48h-24l12 48h-30l14 72h-20l16 96h-24l82 416h22l20 96l16 10q4 14 10 29t10 31h30l8 48l14 8l8 18h30l10 48l12 6q0 2 3 7t7 9h30q0 4 1 13t1 15h30v9 t2 13l14 8q0 4 8 16h32v10t2 14l16 10q0 6 6 16h32v9t2 13l14 10q0 2 1 7t3 7h82l6 24h100v22zM1294 1298l18 -28h-26z" />
<glyph unicode="R" d="M340 1386l-10 12q-2 0 -5 1t-5 1l4 40l18 8q0 4 8 16h32v22h102l10 -12l78 -10v9t2 13h30l10 -12l248 -10v9t2 13h54l10 -12q54 0 111 -4t113 -6l10 -12q12 0 26 -3t30 -7v-26h18l10 -12q4 0 6 -1t8 -3l-2 -32h18l12 -14q2 0 5 -1t5 -1l-2 -32h18l10 -12q6 0 14 -2 l-12 -58h20l-16 -96h26q-8 -38 -15 -65t-13 -61l-16 -8q-4 -16 -10 -33t-10 -33h-26l-8 -48h-28v-9t-2 -13l-14 -10q-2 -10 -8 -19t-10 -21h-50v-10t-2 -14h-30v-9t-2 -13h-44q-2 -4 -3 -13t-3 -15h-50v-9t-2 -13h-50v-9t-2 -13h-50l-16 -88h24v-28h44l10 -12q2 0 5 -1t5 -1 l-2 -32h20l10 -14q2 0 5 -1t5 -1l-2 -32h20v-24h18l-12 -48h30v-24h18l10 -14q4 0 12 -2l-12 -56h22l-10 -48h28l-6 -22h24l-8 -50h24l-12 -48h24l-8 -48h48l10 -14q6 0 14 -2t18 -6v-26h116v-26h20q-2 -12 -4 -18l-4 -12l-16 -10q-2 -10 -7 -19t-9 -19h-270v26h-18l-10 12 q-4 0 -14 2l2 32h-18l12 46h-28v28h-18l12 46h-26l-12 12q-4 0 -10 2l10 58h-22l12 48h-26l10 48h-22l10 48h-30l12 50h-24l10 46h-26l12 48h-50v24h-20l10 48h-24l-10 12q-2 0 -5 1t-5 1l2 34h-46v26h-18l6 22h-182l-8 -22h-28l-102 -546h22l10 -14q8 0 16 -2t20 -6v-26 h134v-26h46q-2 -12 -4 -18l-4 -12l-14 -10q0 -8 -4 -12h-518l-12 12q-2 0 -5 1t-5 1l8 38l18 10q0 6 6 16h34v9t2 13h68l6 26h48l236 1218h-24l-10 12q-2 0 -4 1t-4 1l2 34h-64l-12 -50l-22 26h6l6 24h-54zM1124 984l16 10l46 198h-22l14 72h-22v26h-18l6 22h-52v26h-18 l-10 12q-20 0 -40 5t-42 7l-10 12l-266 12l-6 -24h-26l-8 -50l-16 -8l-106 -490h26l10 -12l366 -10v9t2 13h46q0 4 2 12t4 14h30q0 14 2 24l14 10q0 2 1 7t3 7h36v9t2 13l14 10zM700 666h26l-8 -26zM1148 314l18 -26h-26z" />
<glyph unicode="S" d="M1332 1408l-22 -110h28q0 -4 -1 -5t-1 -3h-32l-4 -66h22q-4 -20 -5 -30t-5 -26h-28l-10 -48l-14 -10q0 -8 -4 -12h-44l-4 -44l-20 22h8q2 8 2 13v9h-28l12 48h-26l22 118h-26v26h-18l10 48h-46l-12 12q-2 0 -4 1t-4 1l2 34h-92l-10 12l-224 10v-9t-2 -13h-68l-6 -24h-30 v-10t-2 -14l-14 -10q0 -8 -6 -16h-28l-6 -22h-28l-8 -48l-16 -8l-48 -200h26l-12 -50h24l-10 -46h26l10 -14q-2 0 10 -4l-2 -32h68v-24h68l10 -12q6 0 16 -2t18 -4l-2 -32h92l10 -12q22 0 51 -4t55 -6v-26h42l10 -12q10 0 18 -2t18 -4l-2 -30h42l10 -12q2 0 6 -1t6 -1 l-2 -32h22v-24h16l-6 -22h26v-28h20l10 -12q6 0 14 -2l-18 -80h24l-14 -72h24q-4 -30 -10 -53t-10 -51l-16 -8q-4 -14 -11 -30t-11 -32h-24l-10 -48h-26l-10 -50l-14 -8l-8 -16h-32v-9t-2 -13l-16 -12q0 -8 -6 -16h-34v-9t-2 -13l-14 -8l-8 -16h-56q0 -14 -2 -24h-52v-9 t-2 -13h-68q-2 -4 -3 -12t-3 -14h-364v26h-160q-2 -4 -3 -12t-3 -14h-54v26h-42l6 46h-22q16 76 31 149t29 147h24l12 48l14 10q0 2 1 7t3 7h62l-12 -50h24l-10 -70h24l-14 -72h22l-12 -48h26v-26h20l10 -12q10 0 17 -2t17 -4l8 -18q6 0 15 -2t19 -6v-26h330v9t2 13h46l6 26 h52v9t2 13l14 10q0 6 6 16h30v9t2 15h26l6 24l16 8q4 20 11 43t13 45h28l20 114h-24l10 70h-20l10 48h-28v26h-18l-10 12q-2 0 -4 1t-4 1l2 32h-44l-10 14q-14 0 -29 3t-31 5v28h-64l8 22h-76v26h-116l-10 12q-12 0 -26 3t-30 5l-10 14q-10 0 -17 2t-19 4l2 32h-20l-10 12 q-10 0 -17 2t-17 4v28h-44l-10 14q-2 0 -5 1t-5 1l12 56h-26v26h-20l10 48h-22l14 70h-22q4 20 4 30t4 26h24l20 96l16 8q2 10 5 20t7 20h26l12 50h26q2 8 3 21t5 25l16 10q0 10 4 14h58q0 4 1 12t1 14h30v9t2 13l14 10q0 2 1 7t3 7h54l6 24h78v9t2 13h72l2 28h294v-28h212 l10 -12q2 0 5 -1t5 -1l-12 -64h42l-20 -20v6h-24l2 14h-2zM774 666h26l-8 -26zM1144 674l18 -26h-26z" />
<glyph unicode="T" d="M142 -32l14 78l18 10q0 6 6 16h82v9t2 13h94l6 26h76v9t2 13l14 8l236 1162h-24v26h-92l-10 12l-128 12v-10t-2 -14h-74q0 -4 -1 -12t-1 -14l-16 -8q0 -2 -2 -6l-4 -8h-34v-11t-2 -15l-16 -8q-6 -32 -17 -67t-19 -69l-16 -8q-4 -20 -11 -42t-13 -44h-54v-10t-2 -14h-26 l12 46h-26l34 194h-20l8 56l16 8q6 32 17 66t19 68h24l6 24h1130l10 -12q2 0 14 -4l-10 -54h22q-16 -88 -32 -161t-32 -157l-14 -10q-2 -10 -7 -20t-9 -20h-78l10 50h-28l42 214h-20l6 22h-28v26h-64l-12 12l-198 12v-10t-2 -14h-76q0 -4 -1 -12t-1 -14l-16 -8l-104 -490h22 v-6h-24l-28 -160h22q0 -4 -1 -5t-1 -3h-22l-60 -304h22q-4 -24 -8 -41t-8 -37l-14 -12l-26 -78h24l-10 -48h48l10 -14q12 0 27 -3t29 -7v-24h166v-26h20l10 -14q4 0 12 -2l-4 -14h-28l-10 -48h-104l-14 -34l-4 10q2 10 2 24h-626zM1188 1290h28l-8 -28z" />
<glyph unicode="U" d="M556 1508l20 -22h-6q-2 -8 -2 -13v-9h50l4 -6h-6l-8 -50l-16 -10q0 -8 -4 -12h-102l-6 -24h-26l-16 -72l-14 -10l-110 -536h22l-102 -528h22l10 -12q-2 0 10 -4l-2 -32h20v-26h20l10 -12q10 0 17 -2t17 -4l8 -18q8 0 16 -2t18 -6v-26h234v9t2 13h94l6 26h50v9t2 13h28 q0 4 1 12t1 14l14 10q0 2 1 7t3 7h34q2 8 3 21t5 25l18 8q8 48 23 103t25 105h24l16 66h-26l146 770h-22l14 72h-46l-10 12q-14 0 -28 3t-28 7v24h-20v28h-22l2 4h24l6 24h410l10 -12q2 0 4 -1t8 -3q-2 -18 -6 -33t-8 -29h-44l-6 -24h-72l-8 -50l-16 -8q-4 -22 -12 -44 t-14 -44h-26l-184 -936l-14 -8q-4 -16 -10 -31t-10 -31h-28l-8 -50l-14 -10q-4 -16 -14 -36h-34q0 -4 -1 -13t-1 -15l-14 -10q0 -8 -4 -12h-54l-6 -24h-30q0 -14 -2 -24h-72v-9t-2 -13h-46q-2 -4 -3 -12t-3 -14h-342v26h-42l-10 12q-6 0 -16 2t-18 4v28h-42l-10 12 q-2 0 -7 1t-7 1l2 32h-18l8 50h-26l12 46h-24l12 76h-20l206 1080h-22l-10 12q-2 0 -4 1t-4 1l2 34h-92l-10 12q-8 0 -17 2t-17 4q4 22 5 33t5 27h52v22h198l10 -12l158 -10zM656 1458l-20 -20q0 4 1 5t1 5q-12 4 -10 4l-6 6h34z" />
<glyph unicode="V" d="M338 1514h148v-28h120l-8 -28l30 -10l-10 -8h-24l-4 -32h-126v-9t-2 -13h-48l-10 -48l-14 -10l-14 -58h16l-22 -118h24l-14 -72h20l-16 -96h26l-14 -74h22l-10 -70h24l-12 -48h22l-18 -98h28l-14 -68h20l-16 -98h22l-8 -48h24l-14 -72h22l-14 -72h24l-14 -70h26v-28h20 l10 -12l52 -10l8 50h24q2 8 3 21t5 25l18 8q4 16 10 32t10 32h28q4 14 5 34t5 36l18 8q4 22 11 45t13 45h26q2 8 3 21t5 25l18 8q4 22 11 44t13 44h26l20 98l16 8q4 20 11 43t13 45l16 8q4 14 11 31t11 33h24l18 96l16 10q6 26 16 54t16 54h26l36 188h-26l-10 12 q-22 0 -50 4t-54 8l-10 12q-2 0 -4 1t-4 1l10 64l16 10q0 8 4 12h422l10 -12q2 0 5 -1t5 -1q-4 -24 -9 -44t-9 -42l-14 -8l-10 -16h-54v-10t-2 -14h-50l-10 -48l-14 -10q-4 -16 -11 -32t-11 -32h-26q-4 -16 -5 -35t-5 -35h-24q-4 -14 -8 -34t-8 -36h-26l-14 -74l-14 -8 q-4 -16 -11 -32t-11 -32h-26l-14 -74l-14 -8l-20 -62h-26l-14 -72l-14 -8l-26 -90h-28l-14 -72l-16 -8q-4 -14 -10 -31t-10 -33h-26l-14 -74l-16 -8q-4 -18 -11 -40t-13 -44h-24l-16 -74h-26q-4 -14 -5 -35t-5 -37h-24l-16 -74l-16 -10q-4 -16 -14 -36h-28q0 -14 -2 -24h-30 v-9t-2 -13l-14 -8l-8 -18h-82v26h-18l4 46h-22l12 74h-20l12 46h-24l10 72h-24l12 48h-22l16 96h-24l10 50h-24l12 70h-26l12 74h-20l14 70h-24l12 74h-20l4 44h-22l12 74h-22l16 72h-26l12 74h-20l14 70h-24l10 72h-20l14 72h-22l14 72h-26l12 48h-26v26h-20l-10 12 q-10 0 -17 2t-17 6l-10 16q-2 0 -5 1t-5 1l2 32h-20v28h-18q2 10 4 16l4 12l14 10q0 8 4 12h226z" />
<glyph unicode="W" d="M58 1486h250l10 -12l52 -10v9t2 13h6l10 -12q24 0 52 -4t54 -6l10 -12q2 0 4 -1t4 -1q-4 -14 -4 -23t-2 -19h-120v-9t-2 -13h-74l-12 -48l-14 -10l-14 -58h18l-38 -190h24l-52 -266h22l-36 -188h28l-42 -218h22l-14 -72h26l10 -14l52 -10v9t2 15h28l10 48l14 8l12 40h30 q2 12 6 34t8 38l14 8q4 14 10 31t10 33l18 8q4 20 11 43t13 45h26l8 46l16 8q2 10 6 20l8 20h30q2 16 6 37t8 37l16 10q2 8 5 18t7 20h58v-24h20l10 -12q2 0 5 -1t5 -1l-14 -84h24l-10 -48h22l-10 -70h24l-12 -50h22l-18 -94h24l-10 -50h24l-10 -46h24l10 -14q6 0 16 -2 l-6 -34h60q0 4 2 12t4 14h28l8 48l14 8q10 50 25 103t25 105h26q8 44 19 95t21 97l14 10l98 462h-22v26h-22l-12 12q-2 0 -4 1t-4 1l2 34h-116l-10 12q-2 0 -5 1t-5 1l6 40l16 8q0 4 8 16h178v9t2 13h364q-4 -22 -8 -39t-8 -39h-76v-9t-2 -13h-46l-6 -24h-50l-16 -72 l-14 -10q-8 -38 -20 -79t-20 -81l-18 -8q-4 -26 -14 -54t-16 -56l-14 -8q-10 -58 -28 -118t-28 -118l-14 -8q-4 -26 -14 -54t-18 -56l-16 -8q-8 -40 -20 -80t-20 -80l-16 -8q-8 -48 -23 -103t-25 -103h-26l-24 -122h-24q-4 -14 -5 -35t-5 -37h-28l-10 -48l-14 -10 q-2 -10 -7 -19t-9 -19h-80v26h-20l-10 12q-4 0 -12 2l14 78h-20l12 74h-20l8 50h-24l14 70h-22l12 74h-26l16 72h-24l10 70h-22l10 48h-22v26h-114l-8 -50l-14 -8q-4 -14 -10 -31t-10 -33h-30l-10 -50l-14 -8q-4 -14 -9 -30t-9 -32h-28l-14 -70l-14 -10q-4 -20 -11 -43 t-13 -45h-24l-18 -96h-26l-10 -48l-16 -10q0 -8 -4 -12h-32q-2 -4 -3 -12t-3 -14h-54v26h-18l-10 12q-4 0 -12 2l14 78h-24l26 124h-26l24 118h-24l28 144h-26l44 216h-22l20 120h-18l34 194h-24l32 166h-22l28 144h-26v26h-18l-10 12q-14 0 -34 8l2 28h-92q4 22 8 40t8 38 h72v22z" />
<glyph unicode="X" d="M308 1514h220v-28h212l10 -12q2 0 5 -1t5 -1l-2 -32h18l-2 -4l-14 -12q0 -8 -6 -16h-78v-9t-2 -13h-48l-20 -116h22l-14 -70h22l10 -14q2 0 4 -1t8 -3l-12 -56h24l-12 -46h26l10 -12q4 0 10 -2l-10 -58h24l-6 -24h26l-12 -46h26l10 -14l98 -14q0 4 2 13t4 15h30v9t2 13 l14 10q0 2 1 7t3 7h36l10 50l14 8l12 38h26l8 24l16 8q4 14 9 30t9 32l16 8q2 10 6 20t8 22h28l34 162h-72l-10 12q-6 0 -15 2t-17 4q4 22 5 33t5 27l16 10q0 8 4 12h370q0 4 1 13t1 15h4v-28h66l10 -12q4 0 12 -2q-4 -20 -5 -33t-5 -31h-30v-9t-2 -13l-14 -8l-8 -16h-104 v-10t-2 -14l-14 -10q0 -8 -6 -16h-30l-6 -22h-28v-11t-2 -15l-16 -10q-2 -10 -7 -19t-11 -19h-26v-10t-2 -14h-26l-8 -46l-16 -8l-8 -18h-30l-8 -44l-14 -10q0 -10 -8 -18h-32l-10 -46l-14 -10q0 -10 -4 -14h-34l-10 -48l-14 -10q0 -2 -1 -8t-3 -8h-32l-10 -48l-16 -10 q-2 -8 -6 -18l-8 -20h-28l-4 -64h20l-10 -50h24l-10 -46h24l-10 -50h22l10 -12q4 0 14 -2l-16 -56h26v-24h22v-24h18l-12 -48h26l-10 -48h24l10 -14q2 0 14 -4l-10 -54h22v-24h20l-10 -50h24l-14 -46h30l10 -14q4 0 10 -2l-10 -56h46l10 -14q22 0 50 -4t54 -8l10 -12 q4 0 12 -2l-10 -58h24v-6h-54v-9t-2 -13h-388l-12 12q-6 0 -15 2t-17 4v28h-16q4 18 4 28t4 26h44l8 26h46l28 138h-24l14 70h-24v26h-18l14 72h-22l-10 12q-4 0 -14 2l2 32h-18l12 48h-28v24h-18v26h-22l14 46h-52l-10 14l-54 10v-9t-2 -15l-16 -10q-4 -16 -14 -36h-30v-10 t-2 -16h-26l-10 -48l-16 -10l-14 -38h-26l-10 -50l-14 -10q0 -2 -1 -6t-5 -6h-30l-8 -48l-16 -10q-2 -10 -7 -19t-9 -19h-26l-10 -48h-26l-20 -112h72l12 -14q12 0 26 -3t28 -7q-4 -20 -5 -30t-5 -26h-28q0 -14 -2 -24h-48v-9t-2 -13h-390l-10 12q-2 0 -6 1t-6 1l2 32h-18 q4 18 4 28t4 26h48l6 26h100v9t2 13l16 10q0 6 6 16h32v9t2 15l14 8q0 6 10 16h32l8 50l12 6q0 2 3 7t7 9h32l8 48l14 8q2 10 6 20l8 20h34v9t2 15l14 8q2 8 5 18t7 20h28l6 26l16 10q0 2 1 7t3 7h34l8 48l16 8q0 4 8 16h32v9t2 13l14 8q4 16 11 33t11 33l16 10q0 8 4 12h30 l28 138h-26l16 72h-24v26h-18l10 48h-24l-10 14q-2 0 -5 1t-5 1l2 32h-24l12 50h-24l-10 12q-4 0 -12 2l14 56h-24l10 46h-30l-10 12q-2 0 -5 1t-5 1l12 58h-24l12 48h-24v26h-22l-12 12q-2 0 -4 1t-4 1l2 34h-90l-10 12q-8 0 -18 2l-20 4zM726 1034l20 -26h-28z" />
<glyph unicode="Y" d="M204 64h24l-4 -18h2v8l4 10h-2l6 30h44l6 26h126v9t2 13l14 10q0 6 6 16h28l96 498h-22l12 48h-24l-12 12q-4 0 -12 2l20 80h-26v24h-22l-10 14q-2 0 -5 1t-5 1l12 56h-26v26h-18l10 48h-24l10 48h-22l6 22h-28l8 50h-24l14 48h-28l-10 12q-2 0 -5 1t-5 1l10 56h-24v26 h-20l12 48h-24l6 22h-26l8 50h-20l-10 12q-18 0 -40 3t-42 7l-12 14q-6 0 -15 2t-19 4q4 26 9 44t9 38h50l2 28h124v-28h112q0 4 1 13t1 15h78v-28h116l-8 -30l32 -8l-10 -8h-26v-4l-16 -12q0 -8 -6 -16h-104v-9t-2 -13l-16 -10l-26 -78h26l-10 -50h22l-10 -48h26l-10 -48 h22v-26h24l-14 -46h26l10 -12q4 0 12 -2l-10 -58h22l-12 -48h24l-10 -50h28l10 -12q2 0 5 -1t5 -1l-2 -32h20l-10 -50h116l10 50h26v10t2 14l14 10q0 8 4 12h34l10 50h24q2 8 3 22t5 26h28l8 48l14 10q2 8 6 18l8 20h30l8 48l14 10q0 8 4 12h28q4 18 11 46t11 50h30l4 68 h-22l12 48h-72l-10 12q-6 0 -15 2t-21 4l2 32h-20q2 10 4 16l4 12h28v9t2 13h362q0 4 1 13t1 15h28v-28h40l-10 -50h-26q0 -4 -1 -13t-1 -15l-14 -10q0 -8 -4 -12h-80l-10 -48l-16 -10q0 -8 -6 -16h-28l-6 -22h-28l-8 -48l-16 -10q-2 -10 -7 -20t-9 -20h-24l-10 -46h-24 l-6 -26h-26v-9t-2 -13l-18 -8q-4 -14 -10 -31t-10 -33h-26v-10t-2 -14h-28l-10 -50l-14 -10q0 -8 -4 -12h-30l-10 -48l-16 -10q-2 -10 -7 -19t-9 -21h-26v-10t-2 -14l-18 -10q-2 -10 -7 -19t-9 -21h-26l-8 -44l-18 -8q-4 -16 -10 -33t-10 -33h-24l-20 -112h22l-70 -360h24 l-8 -48h214l10 -14q8 0 16 -2t20 -6v-26h18v-8h-24l-12 -48h-76v-9t-2 -13h-6l-10 12l-198 10v-9t-2 -13h-150l-10 12q-46 0 -99 4t-101 6l8 30l-30 10zM248 1290h26l-8 -28zM366 1026h26l-8 -26zM596 1448v10l2 -2zM596 1448l-2 -4z" />
<glyph unicode="Z" d="M504 1514h196v-28h642l10 -12q10 0 17 -2t19 -4l8 -16q2 0 6 -1t6 -1q-4 -26 -9 -46t-9 -42l-18 -12q-2 -8 -6 -18l-8 -20h-20l-6 -22h-30l-10 -48l-14 -8l-8 -18h-32v-10t-2 -14l-16 -10q0 -2 -1 -7t-3 -7h-32l-10 -48l-14 -10q0 -8 -4 -12h-38v-9t-2 -13l-14 -10 q-2 -10 -7 -20t-9 -20h-30v-10t-2 -14l-14 -10q0 -10 -4 -14h-32l-10 -48h-28v-11t-2 -15l-14 -10q-2 -10 -7 -19t-11 -19h-28v-9t-2 -15l-14 -10q0 -2 -1 -7t-3 -7h-36l-10 -50l-14 -10q0 -8 -4 -12h-36v-9t-2 -13l-14 -10q-4 -16 -14 -38h-30q0 -4 -1 -12t-1 -14l-16 -10 q0 -2 -1 -7t-3 -7h-34l-10 -46l-14 -10q0 -2 -1 -8t-5 -8h-32l-10 -48l-14 -10q-2 -6 -7 -17t-9 -21h-26v-9t-2 -13h-24q-2 -4 -3 -12t-3 -16h-26l-8 -44l-16 -10q0 -8 -4 -16h-30l-12 -48h-28v-9t-2 -13l-14 -12q-4 -16 -14 -36h-30l-12 -90h44l10 -14l436 -12l6 26h148v9 t2 13h52q0 4 1 12t1 14l14 10q0 2 1 7t3 7h30l6 24l18 8l12 42h28q2 12 6 32t8 38l14 8l16 40h84l-10 -48h22q-6 -38 -13 -66t-13 -60l-16 -8q-6 -34 -16 -69t-18 -69h-26q-2 -12 -7 -33t-9 -37l-14 -8l-8 -18h-152v26h-756q-2 -4 -3 -12t-3 -14h-54v26h-46l-10 12 q-2 0 -5 1t-5 1q6 38 14 69t14 65l16 8l12 42h28l6 24l16 10q0 8 6 12h30l10 50h26v10t2 14l16 8l12 38h28q0 4 2 12t4 14l18 10q0 2 1 7t3 7h32l8 46l14 8q0 2 8 18h34v10t2 14l14 8l12 40h30l6 24l16 10q0 8 4 12h32l12 50l14 10q0 2 1 7t3 7h36v9t2 13l16 10q2 10 6 20 l8 20h28v9t2 13h28v11t2 15l14 8q2 10 6 20l8 20h32q0 14 2 24l16 10q0 2 1 7t3 7h32l10 50l16 10q0 8 4 12h34v10t2 14l14 10q2 10 6 20l8 20h34v9t2 13l14 12q0 8 4 12h34q2 8 3 21t5 25l16 12q0 2 1 7t3 7h36l10 48l14 8q2 10 5 20t7 20h22l6 22h30l20 116h-498l-6 -24 h-74v-10t-2 -14h-28q0 -4 -1 -12t-1 -14h-48q-2 -12 -6 -33t-8 -37l-14 -8q-4 -16 -10 -33t-12 -33h-26l-10 -48h-74l-10 12q-2 0 -5 1t-5 1q10 58 21 106t21 104l14 8q6 28 16 56t16 56l14 10q0 8 4 12h36z" />
<glyph unicode="[" d="M666 1548l-2 -16h70q0 10 2 20h190v-24h64v10t2 14h138v-24h20l10 -10q2 0 5 -1t5 -1q-4 -24 -9 -43t-9 -39l-14 -12q-2 -6 -7 -16t-9 -20h-90l-6 -22h-248l-244 -1250h132v-26h64v10t2 16h138v-26h20l10 -10q2 0 6 -1t6 -1q-4 -22 -10 -42t-10 -40l-14 -10q-2 -6 -6 -17 t-8 -21h-98v-9t-2 -13h-374l4 12h-36l6 22h-22l12 68h-24q22 126 47 240t47 240h22l164 838h-24q6 40 14 72t16 68h20q0 2 1 9t1 17h24l2 22h-14zM332 -64h26l-8 -26zM370 -76h20v-20zM620 1508l20 20q0 -10 -2 -18h-12z" />
<glyph unicode="\" d="M596 1630h52l-6 -22h28l-4 -46h16l-14 -72h22l-4 -44h20l-14 -70h20l-12 -68h26l-16 -70h24l-10 -70h22l-4 -46h16l-14 -72h24l-14 -68h22l-12 -68h26l-16 -70h24l-4 -46h20l-14 -68h18l-16 -94h24l-12 -68h22l-4 -46h16l-12 -48h28l-16 -72h24l-14 -66h26l-12 -68h20 l-14 -72h24l-4 -46h18l-12 -48h26l-12 -68h24l-16 -72h26l-14 -66h20l-14 -94h22l-3 -15t-3 -11h-30v-10t-2 -14h-6l-14 -34l-4 10q2 8 2 14v10h-50v24h-20l-10 10q-2 0 -6 2l20 104h-26l18 92h-22l12 68h-24l14 72h-20l18 92h-22l4 46h-22l12 46h-24l18 90h-24l4 46h-18 l14 72h-24l14 68h-22l10 48h-28l16 68h-22l10 72h-22l12 44h-24l12 68h-24l14 72h-22l18 90h-24l12 46h-26l12 48h-24l14 68h-24l10 48h-24l14 68h-24l12 68h-22l12 48h-28l12 46h-24l4 46h-20l10 52h30v10t2 14h16zM658 1658l18 -28h-28z" />
<glyph unicode="]" d="M1090 1542l54 -8v-24h20l-2 -26h14q-6 -40 -14 -71t-14 -69l-16 -8l-172 -830h26q-26 -126 -49 -240t-47 -240l-16 -8q-4 -14 -9 -29t-9 -31l-14 -8q0 -2 -2 -6l-4 -8h-52v-12h-368l-10 12q-20 0 -39 4t-39 6l12 48h-26q4 22 9 39t9 35l14 10q0 2 4 10h34v10t2 16h138 v-26h64v10t2 16h130l242 1250h-244l6 22h-94l10 48h-24q4 22 8 38t8 36l14 10q0 2 4 10h36v10t2 14h136v-24h64v10t2 14h190zM692 1364h26l-8 -28zM1166 1528l20 -20q-2 0 -3 1t-3 1h-16zM1164 1532l-20 2v14z" />
<glyph unicode="^" d="M612 1660l-28 28v-22l-12 8l2 8l-10 8l22 34l-8 8l180 230l-14 8l14 4l-2 2h18l-2 2h20v14l16 -12v10l28 -18l-26 -14v-8l22 10l88 -222l-12 -6l12 -36l-22 -12v-4q0 -2 2 -4l-22 -14l2 -32l-16 8l2 -6l-36 14l28 26l-20 -8l-12 26l12 8l-66 168l-124 -160q0 -2 8 -8 l-28 -34l20 -16l-22 -2h-26zM862 1674l2 -20l14 8l-2 26l-18 -16zM940 1746l-12 -28l-8 20zM818 1708l8 -18l-18 -8zM810 1958l-2 10l-12 -4l-4 2l2 -14zM780 1956l12 10l-12 6l-8 -10zM612 1660l8 -6l8 10l-6 6zM762 1970l-4 -8l10 -4l4 4zM558 1682q8 -4 14 -8l-2 -8z" />
<glyph unicode="_" d="M124 -612h2q2 8 2 13v9h-66l-10 12q-2 0 -10 2q4 22 5 33t5 27h28v10t2 14h46v22h98l12 -12l930 -10v8t2 14h26l10 -12l102 -10v8t2 14h92l12 -12q6 0 13 -2t17 -4l-12 -50h26q-4 -14 -7 -26t-5 -26l-14 -10q0 -8 -4 -12h-1142l-10 12l-128 10l-4 -44z" />
<glyph unicode="`" d="M634 2000l-10 -18l12 -6q0 2 8 14l44 -30l2 -14l156 -116l16 18q20 -12 35 -23t31 -23l-12 -16l28 -20l2 -12l2 -2q-14 -18 -27 -34t-27 -32l20 -14l-32 -2l12 16l-6 6l-14 -16l16 -12h-28l12 12l-8 8l-14 -18l-274 182l14 16q-6 6 -19 13t-23 15l24 26q-2 0 -4 3t-6 7 l32 42l-16 16l32 2l-6 2zM624 1982l-12 6l-16 -18l16 -10zM942 1822l4 -32q-4 4 -9 6t-9 6zM560 1860l18 -12l-16 -18z" />
<glyph unicode="a" d="M826 1044h284v-24h42l10 -12q6 0 16 -2t18 -4v-26h18l12 -14q-2 0 10 -4l-2 -30h20l-4 -46h14q-12 -62 -20 -110t-18 -106l-16 -8l-110 -524h136q0 10 2 20h28l12 -10q2 0 3 -1t3 -1l-2 -34h20q-2 -10 -4 -16t-2 -10l-16 -12q0 -2 -1 -7t-5 -7h-104v-9t-2 -13h-66l-6 -26 h-118l-10 12q-2 0 -7 1t-7 1l2 34h-42v26h-88v-11t-2 -15h-72v-9t-2 -13h-92l-8 -26h-280l-10 12q-8 0 -15 3t-19 7v26h-42v26h-42l-12 10q-4 0 -12 2l12 56h-22l12 46h-24l20 122h28l8 46h20q2 8 3 22t5 26h30v10t2 14l14 12q0 8 4 12h52l6 24h52v9t2 13h48v10t2 14h74v9 t2 15h96v10t2 14h124l4 42l22 -22h-6q-4 -10 -4 -20h142q0 10 2 20h68l6 26h28v9t2 13l16 10l48 220h-22l-10 12q-2 0 -5 1t-5 1l2 34h-18l-10 12q-6 0 -15 2t-17 4v28h-230v-10t-2 -14h-50v-9t-2 -13h-44l-6 -26h-26v-9t-2 -13l-18 -8q-4 -16 -9 -32t-9 -32l-14 -10 q0 -8 -4 -12h-32l-6 -24h-74l-10 12q-2 0 -5 1t-5 1l2 32h-20q4 24 8 41t8 37h24l10 46h50v9t2 13h42l8 26h50v9t2 13h46v8t4 14h120v24zM952 250h26l42 228h-26l-10 12l-356 12v-10t-2 -14h-74v-10t-2 -14h-48v-10t-2 -14h-44l-6 -24h-30v-8t-2 -14h-20l-10 -48l-16 -8 l-32 -126h24l-10 -48h48l10 -10q4 0 13 -2t17 -4l-2 -30h136l10 -12l56 -10v9t2 13h116l6 26h52q0 10 2 20h48v10t2 14h50q0 14 2 24h20z" />
<glyph unicode="b" d="M286 1464v-4h18l-2 -16h4l12 46h46v9t4 13h120v10t2 16h70v20h100l10 -10q2 0 6 -1t6 -1l-10 -40l32 -8l-10 -8h-24l2 16l-44 -232l-16 -8l-60 -268h24l10 -12l102 -10v9t2 13h118v8t2 14h192l10 -12q12 0 25 -3t29 -5l10 -14q6 0 16 -2t18 -4l-2 -30h20l10 -12 q6 0 14 -2t18 -4v-28h18l10 -12q4 0 5 -1t3 -1l-2 -34h20l-10 -46h24l10 -12q6 0 14 -2l-6 -56h16l-12 -46h26l-26 -140h20l-20 -124h-24l-20 -94l-18 -8q-4 -14 -9 -29t-9 -31l-14 -10q-2 -6 -6 -17t-8 -21h-32v-10t-2 -14l-14 -10q0 -4 -4 -12h-32l-6 -24l-14 -10 q0 -2 -1 -7t-5 -7h-32v-10t-2 -14l-18 -10q0 -2 -4 -10h-56v-11t-2 -15l-14 -10q0 -8 -4 -12h-80l-6 -26h-72v-9t-2 -13h-260l-10 12l-172 10v-9t-2 -13h-72l-10 12q-4 0 -12 2q22 114 43 219t43 217h24l176 908h-24l4 46h-20l-10 12q-26 0 -60 4t-62 6l-10 12q-4 0 -8 1 t-6 1v18h-36zM1102 484h26l18 110h-24l14 72h-20l4 46h-20l4 46h-18l-10 12q-2 0 -6 1t-6 1l2 32h-18v26h-22l-10 10q-2 0 -4 1t-4 1l2 34h-68l-12 12l-286 10v-9t-2 -13h-50v-10t-2 -16h-46l-8 -46l-16 -8l-128 -618h22v-24h22l10 -10q2 0 3 -1t3 -1l-2 -34h90l10 -12 l220 -10v9t2 13h44l6 26h52q0 10 2 20h24v10t2 14h48q2 10 3 23t5 25h28v10t2 14l16 8l12 38h30l8 48h20z" />
<glyph unicode="c" d="M804 1044h262v-24h66l10 -12q6 0 13 -2t17 -4v-26h20l10 -14q-2 0 10 -4l-2 -30h18l10 -12q4 0 12 -2l-14 -58h24l-20 -116h24v-4h-28l-8 -48l-16 -10q0 -8 -4 -12h-78l-12 12q-6 0 -15 2t-19 4l10 52h-26l28 140h-20l-12 12q-2 0 -5 1t-5 1l2 34h-66l-10 12l-218 10v-9 t-2 -13h-44l-6 -26h-52v-9t-2 -13l-16 -10q0 -2 -1 -8t-3 -8h-34q0 -10 -4 -20h-22v-10t-2 -16l-16 -10q0 -8 -4 -12h-32l-10 -46l-18 -8q-4 -14 -9 -30t-9 -32l-14 -8l-66 -294h20l-12 -68h24l10 -12q2 0 6 -1t6 -1l-12 -56h24l10 -12q2 0 4 -1t4 -1l-2 -34h44v-24h44 l10 -10q24 0 50 -4t52 -6l10 -14l164 -12l6 26h146q0 10 2 20h48v10t2 14h72q0 14 2 24h76l10 -12q2 0 4 -1t4 -1l-8 -38l-14 -10q0 -2 -1 -7t-3 -7h-36v-10t-2 -14h-50q0 -10 -2 -20h-70v-11t-2 -15h-50v-9t-2 -13h-112l-6 -26h-78v-9t-2 -13h-234l-12 12q-16 0 -37 3 t-39 5l-10 14q-14 0 -28 4t-30 8v24h-18v26h-18l-10 10q-4 0 -14 2l2 32h-16l-10 14q-2 0 -5 1t-5 1l2 32h-20l6 46h-22l12 48h-24l12 68h-24l12 70h-22q8 36 15 63t13 61h20l28 140h24l10 46l14 8q2 8 6 18t8 22h30l8 46l14 10q0 2 1 7t3 7h36v9t2 13h18l6 26h30v9t2 13 l14 12q0 8 4 12h32v9t2 13h46l6 26h30v9t2 13h70v8t2 14h74v24z" />
<glyph unicode="d" d="M1260 1558h74l-12 -68h18l-8 -52l-14 -10l-34 -126h22q-2 -10 -4 -17t-2 -11h-20l-210 -1072h22l-12 -48h122l10 -10q6 0 15 -2t19 -4l-14 -56l-16 -12q0 -2 -1 -7t-3 -7h-104v-9t-2 -13h-66l-8 -26h-96l-12 12l-142 14l-8 -26h-96v-9t-2 -13h-260l-12 12q-6 0 -14 2 l-16 4l2 30h-44l-10 12q-4 0 -12 2l2 34h-40l-10 10q-4 0 -14 2l2 32h-18l-10 14q-4 0 -12 2l14 54h-24v24h-20l12 48h-26l18 92h-24q10 66 23 121t25 117h24q2 14 6 34t8 38l16 8q4 14 10 30t10 32h28l8 48h22v8t2 14h28v10t2 14l14 10q0 8 4 12h32l6 26l14 10q0 8 4 12h34 v10t2 14h50v9t2 13h44l6 26h52v9t2 13h330l10 -12l98 -10q4 14 5 33t5 35h28l14 90h-24q4 30 11 52t11 48h26l18 110h-24l4 46h-66l-10 12q-22 0 -51 4t-53 6l10 52h26l6 26h52v9t2 13h116v10t2 16h76v20zM316 412h20l-16 -94h24l-4 -44h20v-24h20l-12 -48h22l10 -12 q4 0 14 -2l-4 -34h20l10 -10q4 0 13 -2t19 -4l-2 -30h160l10 -12l76 -10v9t2 13h92l6 26h52q0 10 2 20h28v10t2 14h20q8 48 20 105t22 105h24l70 370h-26l20 92h-46v26h-44l-10 12q-12 0 -24 3t-28 5l-10 14l-190 14l-6 -26h-78v-9t-2 -13h-48v-10t-2 -16h-48l-8 -46h-22v-9 t-2 -13l-16 -8l-10 -16h-28l-8 -46l-18 -10q-4 -14 -10 -30t-10 -32h-26z" />
<glyph unicode="e" d="M1116 670h22l4 66h-16l12 46h-28l-10 12q-2 0 -5 1t-5 1l2 34h-20l4 46h-42l-10 12q-2 0 -4 1t-4 1l2 34h-70l-10 12l-214 10v-9t-2 -13h-46l-6 -26h-30v-9t-2 -13l-14 -10q0 -2 -1 -8t-3 -8h-36q0 -10 -2 -20h-22v-10t-2 -16l-16 -10q0 -6 -6 -12h-30l-10 -46l-18 -8 l-36 -150h422q0 10 2 20h208l6 26h26zM740 1044h286v-24h42l10 -12q6 0 15 -2t17 -4v-26h20l10 -14q8 0 30 -6v-28h20l10 -12q2 0 4 -1t4 -1l-2 -32h22l-14 -48h26v-24h20l-4 -46h20l-16 -70h26q-6 -42 -15 -75t-15 -73l-16 -10q0 -2 -4 -10h-78l-6 -24h-610v-10t-4 -14 h-120v-10t-2 -14h-20l-22 -110h22l-10 -48h26l-4 -46h18l12 -12q2 0 5 -1t5 -1l-2 -34h16l10 -12q6 0 16 -2t18 -4v-30h44l10 -10q16 0 37 -3t39 -5l12 -16l214 -12l6 26h146q0 10 2 20h70v10t2 14h70q0 14 2 24h50l12 -12q4 0 12 -2l-8 -38h-30v-9t-2 -15h-22v-10t-2 -14 h-50q0 -10 -2 -20h-50v-11t-2 -15h-96v-9t-2 -13h-92l-6 -26h-120v-9t-4 -13h-188l-10 12q-16 0 -38 3t-42 5l-10 14q-10 0 -25 4t-29 8v24h-42v26h-20l-12 10q-2 0 -5 1t-5 1l2 32h-40l-12 14q-2 0 -5 1t-5 1l12 54h-24v24h-18l12 48h-28l22 116h-22q8 48 18 87t18 83h20 q4 22 12 55t12 61h24l8 46l16 8q2 8 6 18t8 22h30l8 46l14 10q0 2 1 7t3 7h36v9t2 13h20q2 10 3 23t5 25l18 12q0 8 4 12h34v9t2 13h44l6 26h52v9t2 13h48v8t2 14h50v24z" />
<glyph unicode="f" d="M262 958v-4h20l-2 -16h4l10 46h44l8 24h166v9t2 13l14 8q6 42 20 89t24 91h22l20 94l14 8l12 38h30q2 8 3 22t5 26l16 10q0 8 4 12h36v11t2 15h24q0 10 2 20h44l8 26h28v9t2 13h46v11t2 15h96v20h146l10 -10q56 0 121 -4t123 -6v-26h20l4 -6h-6l-20 -94h-50v-9t-2 -13 l-18 -10q0 -2 -1 -8t-3 -8h-126v26h-112l-12 12l-218 10v-9t-2 -13h-50v-10t-2 -16h-22q0 -10 -2 -20l-18 -10l-14 -38h-22l-54 -276h22l10 -10q2 0 5 -1t5 -1l-2 -34h410l6 24h50l12 -12q6 0 15 -2t19 -6l-10 -54h-24l-8 -26h-56l-14 -32l-4 10q2 8 2 13v9h-400v-9t-2 -13 h-44l-138 -722h24l-12 -46h22l12 -12q56 0 120 -4t122 -6v-26h112v11t4 15h2v-26h38l-8 -52l-14 -10q0 -8 -4 -12h-86l-4 -46l-20 20h2q2 10 2 16v10h-750l-10 12q-2 0 -4 1t-4 1l10 40h24q0 10 2 20h50v11t2 15h164v9t2 13h46l6 26h24l140 718h-24v24h-44l-10 12 q-34 0 -72 4t-74 6l-10 14q-2 0 -6 1t-6 1v14h-38zM1444 1516l-22 -16l2 8q-2 0 -3 1t-3 1l-6 6h32z" />
<glyph unicode="g" d="M1374 862q0 -12 -2 -22h-24v-10t-2 -14h-168v-10t-2 -14l-14 -8l-24 -58h26q-8 -40 -16 -73t-14 -71l-14 -10q-2 -6 -6 -17t-10 -21h-28l-8 -46h-22l-8 -48l-14 -8l-8 -16h-34q0 -10 -2 -20h-48v-11t-2 -15h-50v-9t-2 -13h-70v-11t-2 -15h-206l-6 -22h-54q0 -4 -1 -9 t-1 -13l-16 -8l-8 -16h-28v-9t-4 -15l-16 -10q-2 -6 -6 -16t-8 -18h-24l-16 -68h50l10 -12q82 0 168 -4t168 -6v-26h64v11t2 15h98v-26h134l12 -10q6 0 15 -2t17 -4v-30h20l10 -12q2 0 5 -1t5 -1l-2 -32h42l10 -14q2 0 5 -1t5 -1l-42 -202l-14 -10q-2 -6 -6 -16t-8 -18h-28 l-10 -48h-22v-9t-2 -13l-18 -10q0 -2 -1 -7t-3 -7h-32v-10t-2 -14h-50v-9t-2 -13l-18 -10q0 -2 -1 -8t-3 -8h-56q0 -10 -2 -20h-66l-6 -26h-74v-9t-2 -13h-122v-10t-2 -14h-140v24h-210l-10 12q-12 0 -24 3t-28 5l-10 16q-14 0 -32 6v26h-44v26h-18l-10 12q-4 0 -12 2l12 56 h-24l-10 10q-4 0 -12 2l18 82h-24q4 18 6 28t6 24l14 8q4 16 10 30t10 30h24l6 26l16 8q0 4 4 15t8 21h30v10t2 14l16 10q0 2 1 7t3 7h32q2 8 4 21t6 25l16 12l14 56h-18q4 22 8 38t8 34l14 8q2 10 6 20l8 20h22l6 26h30v20l14 8q2 8 6 19t8 21h32l4 64h-20v26h-20l-10 10 q-2 0 -5 1t-5 1l2 32h-16l10 48h-26l-10 12q-4 0 -12 2l18 80h-24q8 46 17 85t17 83l16 10q4 14 9 29t9 31h28l8 48l14 8q0 4 8 16h30v8t2 14h50v10t2 14h26v9t2 13h48q0 14 2 24h68l6 24h214l10 -12q12 0 27 -3t29 -7v-26h66l12 -12q6 0 13 -2t17 -4v-28h278l12 -12 q2 0 4 -1t4 -1l-8 -38h40l-20 -22v4h-24l4 18h-4zM1054 -280h28l34 182h-24l-10 12q-2 0 -4 1t-4 1l2 34h-44l-10 10q-6 0 -14 2t-18 4v30h-628v-10t-2 -16h-22q0 -10 -2 -20l-18 -10q0 -8 -4 -12h-28l-6 -26h-28l-8 -46h-20l-30 -158h20l-10 -48h26l10 -12q2 0 5 -1t5 -1 l-2 -32h42v-24h114l10 -12q22 0 51 -4t51 -8l10 -12l54 -10v9t2 13h190q0 14 2 24h76v10t2 14h70v9t2 13h44l6 24l16 10q0 10 4 14h36v10t2 14h22v22zM452 540h20l-12 -48h28v-24h18l10 -10q4 0 12 -2l-2 -34h66l10 -12l240 -10v9t2 13h48v10t2 16h48l8 44h26q2 10 3 23 t5 25l16 10l50 218h-22l12 48h-26l4 46h-20v24h-40l-12 12q-6 0 -15 2t-17 4l2 30h-226l-6 -26h-52v-9t-2 -13h-48v-10t-2 -14l-14 -12q-2 -6 -6 -16t-8 -18h-28l-10 -48h-20z" />
<glyph unicode="h" d="M642 1548h32v-26h18l12 -12q2 0 10 -2l-18 -86h-24l-34 -162l-14 -8l-26 -104h22q-2 -10 -4 -16t-4 -14l-14 -8l-38 -150h22l-12 -68h70v8t2 14h96v10t2 14h24v9t2 13h70q0 14 2 24h46l6 24h216l12 -12q10 0 24 -3t30 -7v-26h18l10 -12q4 0 12 -2l-2 -32h18l10 -12 q2 0 5 -1t5 -1l-2 -32h18l-10 -48h28l-14 -70h20l-16 -92h24q-4 -28 -10 -52t-10 -48l-18 -8l-102 -480h142l10 -10q6 0 16 -2t18 -4l-8 -36l-18 -10q0 -8 -4 -12h-32v-10t-2 -16h-330v26h-40q4 18 4 29t4 25h52q0 10 2 20h22v11t2 15l14 8q14 62 30 125t30 125h24l60 320 h-24l14 70h-22l12 48h-24l-10 12q-4 0 -12 2l2 34h-18l-12 10q-6 0 -13 2t-17 4v30h-232v-10t-2 -14h-70q0 -12 -2 -22h-72v-10t-2 -14h-50v-10t-2 -14h-20l-6 -24h-30v-10t-2 -14l-14 -8l-118 -572h22l-14 -68h46v-26h114l10 -10q6 0 14 -2l16 -4l-8 -36h-24v-9t-2 -13 h-236v-10t-2 -16h-142v26h-42q4 22 8 39t8 35h48v11t2 15l16 10q0 8 4 12h30l198 1006h22l20 114h-20l18 94h-26l-10 12q-6 0 -15 2t-17 4v24h-90v26h-18l-12 12q-4 0 -12 2q0 10 2 14h32v11t2 15h50q0 10 2 20h92l6 26h52v9t2 13h90v26z" />
<glyph unicode="i" d="M864 1036h50v-26h44l-16 -68h26q-2 -10 -4 -16t-2 -10l-18 -10l-156 -760h26l10 -10q6 0 14 -2t18 -6v-28h368l10 -12q6 0 15 -2t19 -4l-14 -58l-14 -10q0 -2 -1 -7t-3 -7h-50l-6 -22h-78l6 22h-790l-6 -22h-2l6 22h-50l12 48l6 28l14 12q0 8 4 12h246v10t2 14h48v9t2 13 h46l144 744h-72v26h-204v-11t-2 -15h-50v26h-18l-10 12q-6 0 -14 2q2 10 5 18t5 18h28v10t2 14h188q0 10 2 20h214v26zM978 1504h74l12 -12q4 0 13 -2t17 -4l-2 -30h24l10 -10q2 0 5 -1t5 -1q-4 -30 -11 -56t-13 -52l-16 -12q0 -8 -4 -12h-36v-10t-2 -14h-22v-8t-2 -14 l-16 -10q0 -2 -1 -7t-3 -7h-52l-8 -24h-26l6 24h-70v24h-22l-10 12q-2 0 -5 1t-5 1q4 28 11 54t11 54l16 8q2 8 6 18t8 22h30v20h20l6 24h52v24zM230 32l20 20v-4h28l-6 -16h-42zM896 1218h28l-8 -26zM1076 -22h26l-8 -28zM284 -22h26l-8 -28z" />
<glyph unicode="j" d="M1148 1010h52l10 -10q4 0 14 -2l-2 -32h16l-124 -632h26q-6 -34 -13 -62l-15 -60l-16 -10l-28 -126h22v-4h-32l-4 -66h20q-14 -60 -22 -109t-18 -107h-28q-4 -24 -11 -57t-11 -59h-20l-10 -46h-44l-8 -26h-28v-9t-2 -13h-24q0 -10 -2 -20h-50v-11t-2 -15h-72v-9t-2 -13 h-162l-6 -26h-26l-10 12q-38 0 -73 6t-75 8l-10 12q-20 0 -39 4t-41 6v26h-42l-12 10q-4 0 -12 2l2 30h-12l-10 14q-4 0 -6 1l-6 3q0 4 1 7t1 5l16 8l12 40h22l6 22h30v11t2 15h26v-26h42l-8 -22h48v-26h20l10 -12q6 0 15 -2t19 -4v-30h40l12 -10l196 -10q0 10 2 20h48v11 t2 15l16 10q0 8 4 12h32v11t2 15h44l36 162h24l16 90h-26q4 22 8 39t8 35h26l20 112h-24l146 750h-280l-10 12q-12 0 -26 3t-30 5v28h-18l-6 6h8l10 44h50v10t2 14h374v20zM1270 1388q-2 -14 -5 -28t-5 -24l-14 -12q0 -8 -4 -12h-36v-10t-2 -14h-22v-8t-2 -14l-18 -10 q0 -2 -1 -7t-3 -7h-52l-6 -24h-26l6 24h-50v24h-42l12 70h-22v6h26q4 14 6 33t6 35h24l6 26l14 10l6 10h52l6 24h118l10 -12q6 0 14 -4l-2 -28h20l-8 -32h42l-20 -20v4h-28zM1046 1218h28l-8 -26zM346 -270l18 -28h-26zM688 942q0 -6 -1 -6t-1 -6q8 -2 12 -2l6 -6h-36z" />
<glyph unicode="k" d="M290 1452h22l-4 -16h4v20h24l6 24h118q0 14 2 24h50v10t2 14h96v22h28l10 -10q6 0 15 -3t21 -5q-12 -64 -25 -123t-25 -121l-16 -8l-152 -736h24l10 -12l76 -10v9t4 13h22l6 26l16 10q0 2 4 10h36v10t2 14h50v10t2 14h24v9t2 15l14 8q0 4 8 16h34v22h18l6 24h30v9t2 13 l14 12q0 2 1 7t3 7h36q0 10 2 20h20l22 116h-22l-10 12q-4 0 -12 2q2 10 5 18t5 18h28v10t2 14h376v-24h18l-6 -24h24l-2 -4h-24v-9t-2 -13h-74v-11t-2 -15h-50v-9t-2 -13h-44l-6 -26h-52q0 -10 -2 -20h-46v-11t-2 -15l-18 -10q0 -8 -4 -12h-26l-6 -26h-52q0 -4 -1 -9 t-1 -11l-16 -8l-8 -18h-30v-9t-4 -13l-16 -10q0 -2 -1 -7t-3 -7h-26l-30 -134h22v-24h22l-4 -46h16l-6 -24h26v-24h20l-10 -48h26l10 -10q2 0 3 -1t3 -1l-2 -34h22l10 -12q2 0 5 -1t5 -1l-2 -34h18l10 -10q4 0 12 -2l-2 -32h18l-12 -48h28v-24h40l12 -10q2 0 5 -1t5 -1 l-2 -34h114v10t2 14h94l-8 -30l32 -8l-10 -10h-24l2 18l-10 -46h-44v-9t-2 -15l-18 -10q0 -2 -1 -7t-3 -7h-72l-6 -22h-100l6 22h-50v24h-22l-10 14q-2 0 -4 1t-4 1l2 32h-18l-10 12q-2 0 -6 1t-6 1l2 32h-16l-10 14q-4 0 -12 2l2 32h-20l-10 10q-4 0 -12 2l2 34h-18l12 48 h-28l-10 12q-2 0 -4 1t-4 1l10 54h-24l-12 14q-2 0 -5 1t-5 1l12 54h-24v24h-16l-12 12q-4 0 -12 2l16 56h-46v26h-68v-10t-2 -16l-14 -8q0 -2 -2 -6l-4 -8h-36v-10t-2 -14l-14 -12q0 -8 -4 -12h-36v-10t-2 -14h-22v-9t-2 -13l-18 -8l-8 -16h-26l-40 -206h22l-4 -46h22 l10 -12q16 0 37 -3t39 -5l12 -16q4 0 14 -3t18 -5v-24h16v-8l-14 -10q0 -2 -1 -7t-3 -7h-332l-6 -22h-54l6 22h-24v24h-20v8h26l12 44h48q0 14 2 24l14 8q4 30 14 66t18 68h30l4 62h-20l8 30h26l4 64h-20q4 28 10 51t10 49h26l28 158h-26l6 27t6 25h24l16 66h-28v6h28 l78 414h-22l36 190h-162l-12 10q-4 0 -12 2l8 40l-28 8zM138 -22h28l-10 -28zM1028 -22h28l-8 -28zM1352 992l20 -26h-28zM876 478l20 -26h-28z" />
<glyph unicode="l" d="M1012 1358l-104 -536l-18 -8l-64 -292h24l-22 -124h-24l-46 -228h24l-4 -46h42v-24h300l10 -12q6 0 15 -2t19 -4l-2 -30h18l4 -4h-6l-8 -48h-68l-6 -22h-76l6 22h-434l-8 -22h-54l8 22h-260q4 18 6 28t6 24l14 8q0 4 8 16h30q0 14 2 24h236v10t2 14h28v9t2 13l14 8 l42 174h-22l6 28l16 8l206 1020h-22l-12 10l-196 10q0 -10 -2 -20h-120l-10 10q-4 0 -10 2l12 60l14 8q0 6 10 16h102q0 14 2 24h164v10t2 14h122v22h96l10 -10q4 0 12 -2l-34 -182l26 -6l-10 -8h-18l2 14zM992 -22h28l-8 -28zM504 -22h26l-8 -28zM1222 48l-22 -20q0 6 1 6 t1 6q-8 2 -12 2l-6 6h38z" />
<glyph unicode="m" d="M722 1010h68l10 -10q8 0 17 -2t17 -4v-28h42l-6 -24h112l6 24h54v10t2 14h96q0 10 2 20h166l10 -10q8 0 15 -2t17 -4v-28h16l-6 -24h28l-4 -46h16l10 -12q4 0 12 -2l-18 -82h26l-76 -378l-14 -8l-64 -290h22v-24h44l10 -12q12 0 25 -3t29 -5l-8 -32h44l-22 -20v4h-26 l-4 -32h-308v24h-16l-8 8h12q0 10 2 20h18l6 24h28q4 16 5 34t5 36l16 8l138 668h-24l14 46h-48l10 48h-238v-11t-2 -15h-22v-9t-2 -13l-16 -10l-10 -16h-26l-140 -718h24v-24h20l10 -12q14 0 26 -3t28 -5l-8 -32h44l-20 -20v4h-28l-4 -32h-284v24h-20l6 28h24l6 24l16 12 q0 8 4 12h30q4 30 12 69t14 73h24l98 506h-26l14 74h-20l-10 10q-2 0 -5 1t-5 1l12 56h-26v26h-204v-11t-2 -15l-16 -10q0 -8 -4 -12h-54l-6 -26l-14 -10q0 -2 -2 -4t-4 -6h-30l-136 -698h26v-24h16l10 -12q16 0 38 -3t42 -5l10 -16q2 0 6 -1t6 -1l-2 -14h38l-22 -20v4h-16 v16h-4v-9t-2 -15l-16 -10q0 -2 -1 -7t-3 -7h-292v24h-44l10 52l18 12q0 8 4 12h36v10t2 14l14 10l146 708h-22l-10 12q-28 0 -63 5l-63 9l10 48h-28v6h28l10 44h70v10t2 14h124q0 10 2 20h50l10 -10q6 0 14 -2t18 -4l-4 -28h68v10t2 14h96q0 10 2 20h102l4 46l20 -20h-8v-26 zM1374 992l20 -26h-28zM884 992l18 -26h-26zM1044 52q0 -6 -1 -6t-1 -6q8 -2 12 -2l4 -6h-34z" />
<glyph unicode="n" d="M930 36l2 12h-2l2 4h22l6 24l16 12q0 8 4 12h34v10t2 14l16 10q10 62 30 134t32 136h20l48 252h-20l22 118h-22l10 48h-26l-12 10q-2 0 -6 2l2 34h-20l-10 12q-6 0 -16 2l-20 4l2 30h-204v-11t-2 -15h-50v-9t-2 -13h-66l-6 -26h-52q0 -10 -2 -20h-72l-8 -48l-14 -8 q-8 -46 -24 -101t-26 -101l-16 -8l-66 -294h26l-28 -138h24v-24h114l10 -12q6 0 16 -2t18 -4l-2 -30h16l4 -4h-8v-9t-2 -15h-24v-10t-2 -14h-400v24h-22l-6 8h8l12 44h26q0 14 2 24h48v10t2 14l14 10l152 734h-22l-10 12q-34 0 -74 4t-76 6v26h-20l8 26l12 6q0 2 3 7t7 11 h54v10t2 14h120q0 10 2 20h96l10 -10q6 0 14 -2l-2 -32h14l-4 -44h134q0 10 2 20h22l6 24h54v10t2 14h94q0 10 2 20h72v26h170v-26h20l10 -10q6 0 15 -2t17 -4l-2 -28h42l-8 -24h28l10 -10q2 0 4 -1t4 -1l-2 -34h22l-12 -48h26l-14 -68h24l-126 -656h22v-24h114l12 -12 q6 0 14 -2l16 -4q-4 -26 -9 -43t-9 -39h-40l-6 -22h-148l6 22h-234l6 32h-42l20 20v-4h24v-12zM1124 -22h26l-8 -28zM1236 992l18 -26h-26zM670 48l-22 -20q0 6 1 6t1 6q-2 0 -5 1t-5 1l-6 6h36zM158 52q0 -6 -1 -6t-1 -6q2 0 5 -1t5 -1l4 -6h-32zM930 36l-2 -4h2v4z" />
<glyph unicode="o" d="M790 1058h120l10 -12q22 0 50 -4t52 -6v-26h66l10 -10q14 0 27 -3t29 -5v-26h16l-6 -24h26l10 -10q2 0 5 -1t5 -1l-2 -34h20l10 -12q2 0 5 -1t5 -1l-10 -56h24l10 -12q-2 0 10 -4l-10 -56h24l-12 -46h22l-20 -118h26q-8 -36 -15 -62t-13 -58l-16 -8q-4 -14 -10 -31 t-10 -33l-14 -10q-4 -24 -14 -51t-18 -55l-16 -10q-4 -16 -14 -36h-30q0 -14 -2 -24l-16 -10q0 -2 -1 -7t-3 -7h-34v-9t-2 -13l-16 -10q0 -2 -1 -7t-3 -7h-32v-10t-2 -14h-46l-6 -24h-28v-8t-2 -14h-24v-10t-2 -14h-50v-9t-2 -15h-48v-10t-2 -14h-92l-6 -22h-188l6 22h-76 v24h-64l-10 14q-6 0 -14 2t-18 4v28h-20l-10 12q-6 0 -16 2t-18 4l2 28h-16l-10 14q-2 0 -6 1t-6 1l2 32h-20l4 46h-18l12 48h-28l14 68h-22l14 48h-28q12 70 26 134t26 128h24q4 16 6 34t6 36l14 8q2 8 6 18l8 20h30l8 46l14 10q0 4 8 16h32l8 48l14 10q0 8 4 12h58v10 t2 16l14 10q0 2 4 10h30l6 24h52v10t2 14h50q0 10 2 20h48v11t2 15h98v22zM1110 428h24l30 158h-26l20 94h-24l12 48h-28v20h-16l14 74h-24l-10 10q-2 0 -5 1t-5 1l2 34h-16l-12 12q-6 0 -15 2t-19 4l2 30h-44l-10 12l-312 10v-9t-2 -13h-50v-11t-2 -15h-24v-9t-2 -13 l-16 -10l-8 -16h-32q0 -10 -2 -20l-16 -10q-2 -8 -6 -18l-8 -20l-16 -8q-4 -16 -10 -32t-10 -32h-28l-16 -90l-14 -8l-48 -200h20l-16 -94h24l12 -12q2 0 4 -1t4 -1l-10 -54h24l10 -14q2 0 4 -1t4 -1l-2 -32h22l10 -14q2 0 4 -1t4 -1l-2 -32h20l12 -10q12 0 32 -8v-28h66 l10 -12l172 -12q0 14 2 24h70v10t4 14h48v9t4 13h46v10t2 14h28v10t2 14l14 8q2 14 16 40h24l8 46h26q2 8 3 21t5 25l16 10zM506 -22h28l-10 -28zM1178 992l18 -26h-26z" />
<glyph unicode="p" d="M536 480h28l-46 -234h24l-14 -70h26v-24h40l-8 -24h50v-24h252v10t2 14h42l6 24h54v10t2 14h24v9t2 13h26v10t2 14l16 8q0 6 4 17t8 19h26q2 8 3 22t5 26h28l8 48h22l60 322h-22l14 48h-28l-10 10q-2 0 -5 1t-5 1l2 34h-20l-10 12q-2 0 -5 1t-5 1l2 34h-16l-12 12 q-4 0 -12 2l2 34h-18l-10 10q-6 0 -14 2t-18 4v30h-300v-11t-2 -15h-48q0 -10 -2 -20l-16 -10q-2 -8 -6 -18l-8 -20h-24l-52 -258l-16 -10zM574 1042h4l10 -12q8 0 16 -2t18 -6v-28h16v-24h68v10t2 14h96v9t2 15h66l6 24h214l10 -12q14 0 32 -6v-30h66v-24h42l10 -14 q4 0 12 -2l-2 -28h20v-26h18l-6 -22h22v-26h22l-4 -46h18l10 -12q4 0 14 -2l-20 -80h24l-32 -162h22l-26 -146h-28l-8 -48h-20l-10 -48l-18 -10q-2 -8 -5 -16t-7 -18h-26l-10 -46l-16 -10q0 -2 -1 -7t-3 -7h-24l-8 -24h-30v-10t-2 -14l-14 -10q0 -8 -6 -14h-34v-9t-2 -13 h-24v-9t-2 -15h-68l-6 -24h-50v-9t-2 -13h-122v-11t-2 -15h-120v26h-178l-8 -46l-16 -8l-60 -270h20l-16 -92h46l10 -14q22 0 51 -4t51 -6v-24h22q-2 -12 -3 -17t-5 -11h-52v-9t-2 -13h-374l-10 12q-6 0 -15 2t-19 4l10 32l14 10q0 2 1 7t3 7h82v9t2 15l14 8q4 14 10 30 t10 32l16 8l232 1156h-20v26h-20l-10 10q-32 0 -62 4t-62 6v26h-22l6 26h30v9t2 15h48v10t2 14h118v9t2 15h44zM1308 928l20 -28h-28z" />
<glyph unicode="q" d="M690 -416h24l-4 -12l26 -6v10t2 14h50v9t2 15l16 8q0 4 8 16h32q0 10 2 20h20l66 346h-20v26h-232v-11t-2 -15h-96v26h-66l-10 12q-12 0 -25 3t-29 5l-10 14q-10 0 -17 2t-17 6v28h-42l-10 12q-6 0 -15 2t-19 4v28h-16v24h-20l12 48h-26l-10 10q-2 0 -5 1t-5 1l10 58h-24 l14 68h-20l10 48h-28q12 58 23 107t21 107h24l18 94l14 8q4 14 11 31t11 33h28v9t2 13l16 10l12 36h28v11t2 15h22l6 22h26v11t2 15h28q0 10 2 20l14 10q0 2 1 7t3 7h56v10t2 14h50v9t2 15h92l6 24h212l12 -12q12 0 27 -3t31 -7v-26h158v9t2 15h18l6 24h30v20h26l12 -10 q4 0 12 -2q-6 -36 -15 -67t-15 -63l-16 -10l-254 -1272h22l12 -12q6 0 14 -2t18 -6v-28h88l-8 -52h-76v-9t-2 -13h-308l-10 12q-6 0 -15 2t-17 4l8 38l-30 4zM362 408h24l-14 -68h26l-10 -48h22l-12 -46h26l10 -14q4 0 7 -1t5 -1l-2 -32h20l10 -10q2 0 4 -1t4 -1l-2 -34h42 l-6 -24h96v-24h252v10t2 14h44l6 24h30v10t2 14h20l130 672h-20v26h-22l-10 10q-2 0 -5 1t-5 1l2 34h-206l6 22h-64l-6 -22h-76v-11t-2 -15h-50q0 -10 -2 -20l-16 -10q0 -2 -1 -8t-3 -8h-56v-9t-2 -13l-14 -10q-2 -8 -7 -18t-9 -20h-30v-10t-2 -16h-22l-8 -44l-16 -10 q-2 -12 -9 -28t-13 -32h-22z" />
<glyph unicode="r" d="M916 52v-9t-2 -13l-16 -12q0 -2 -1 -7t-3 -7h-200v26h-62v-11t-2 -15h-448v26h-18l-10 12q-4 0 -12 2l8 38h30v9t2 13h116v10t2 14h44l6 24h26l8 46h26l78 418h-24v2h30l4 66h-20l36 190h-22l-12 10q-6 0 -15 2t-19 4l2 30h-112v-11t-4 -15h-92l4 26h-24l8 50h30v10t2 14 h140v9t2 15h138l8 24h76l-12 -48h22v-24h22l-14 -70h24l-12 -48h92v11t2 15h44l6 22h30v11t2 15h28q0 10 2 20h46v9t4 15h48v10t4 14h46v9t2 15h46l6 24h96v20h30l10 -10q18 0 38 -3t40 -5l10 -14q6 0 14 -2t18 -6v-28h18v-24h20q-4 -22 -8 -39t-8 -37l-18 -10q0 -2 -4 -10 h-30v-11t-2 -15h-168v26h-68l-10 10l-52 10q0 -10 -2 -20h-96v-11t-2 -15h-50v-9t-2 -13h-44l-6 -26h-28v-9t-2 -13l-16 -10q0 -2 -1 -8t-3 -8h-34q0 -10 -2 -20l-16 -10q0 -2 -1 -7t-3 -7h-28l-8 -24h-22l-102 -532h18l-6 -24h28v-24h346l12 -12q2 0 5 -1t5 -1l-8 -40 l30 -6l-10 -8h-22l2 14zM210 874h2q2 10 2 20h26l-8 -44zM548 178l18 -26h-28z" />
<glyph unicode="s" d="M864 1062h74l12 -10q16 0 37 -3t39 -5l10 -14q42 0 87 -5t89 -7l10 -14q2 0 4 -1t4 -1l-2 -32h18l-16 -92h22q-4 -24 -8 -41t-8 -37l-14 -8q-4 -14 -9 -29t-9 -31h-34l-14 -36l-4 12q2 8 2 14v10h-50l4 46h-22l14 48h-24l12 68h-22v26h-64l6 22h-300l-6 -22h-52v-11 t-2 -15l-14 -10q0 -4 -6 -10h-32l-8 -48h-22l-20 -114h20l-4 -46h20l-8 -24h26v-24h64l10 -10q34 0 75 -5t77 -7l10 -12q32 0 62 -4t64 -6v-24h64l10 -14q6 0 16 -2t18 -4l-2 -28h44l10 -12q2 0 4 -1t4 -1l-2 -32h20l12 -12q2 0 4 -2t4 -2l-2 -32h20l-12 -68h20 q-6 -36 -12 -63t-12 -59h-24v-10t-2 -14l-16 -8q0 -2 -2 -7t-4 -9h-32l-8 -48l-16 -10q0 -8 -4 -12h-32v-9t-2 -15h-46l-6 -24h-28v-9t-2 -13h-50v-11t-2 -15h-140q0 -10 -2 -20h-168l-12 10q-30 0 -59 4t-63 6v26h-66v-11t-2 -15h-74v26h-20l-10 12q-2 0 -4 1t-4 1l2 32 h-24l20 94h-22l6 28l16 10l14 56h-16v2l14 8q2 8 6 19t8 21h32v10t2 16h50v-26h18l10 -12q4 0 12 -2l-14 -78h22l-4 -46h20v-24h14l-6 -24h50v-24h42l10 -12l290 -10v9t2 13h48v10t2 14h42l8 24h24l8 46h26l32 182h-24l-10 14q-8 0 -14 2t-16 4l-8 16q-10 0 -27 3t-31 7v24 h-88l-10 12q-40 0 -84 5t-86 7l-12 12q-12 0 -27 3t-31 7v26h-42l-10 10q-6 0 -15 2t-17 4l2 30h-20l-10 12q-4 0 -12 2l2 34h-16l4 44h-22l14 48h-26q4 22 8 40l8 36l16 8q4 16 9 30t9 30h30v11t2 15h16l6 22h32v11t2 15l14 10q0 2 4 10h36v9t2 15l14 10q0 2 1 7t3 7h56v9 t2 15h46l6 24h144v20zM974 920h28l-10 -28zM464 178l20 -26h-28zM590 692l18 -26h-26z" />
<glyph unicode="t" d="M1196 1066l20 -24h-8l-6 -24h6l10 -14q4 0 12 -2l-12 -60h-44l-6 -22h-98l6 22h-66l-6 -22h-424q-6 -42 -17 -93t-19 -95l-14 -8l-120 -572h22l-6 -24h24v-24h22l10 -12l264 -10v9t2 13h166v10t2 14h64l8 24h76l-6 -24h50l-6 -28l-18 -10q0 -6 -4 -14h-54l-6 -24h-52v-9 t-2 -13h-70v-11t-2 -15h-122q0 -10 -2 -20h-212v-11t-2 -15h-70v26h-66l-12 10q-6 0 -13 2t-17 4v30h-44l12 46h-26l-10 14q-4 0 -6 1t-4 1l12 54h-26l98 496h24l48 252h-48v26h-112l6 22h-24l6 28l14 10q0 2 1 7t3 7h152v9t2 15h26l10 44h20l36 190h46l6 26h50l10 -14 q-2 0 10 -4l-8 -38l34 -10l-10 -8h-26l2 18l-32 -180h22l10 -12q18 0 39 -3t41 -7l10 -16l76 -10v9t4 15h350zM270 920h26l-8 -28zM1072 178l20 -26h-28zM1044 920h26l-8 -28zM440 178l18 -26h-26z" />
<glyph unicode="u" d="M222 942h-2l6 28h48v10t2 14h166v24h76l12 -14q2 0 3 -1t3 -1q-14 -60 -23 -113t-19 -111l-14 -8l-96 -456h20l-14 -68h24l12 -14q2 0 5 -1t5 -1l-10 -54h24v-24h40l-6 -24h72v-24h250v10t2 14h44l6 24h74v10t2 14h28v9t2 13l14 10q0 2 1 7t3 7h32l122 626h-24v26h-20 l-10 10q-20 0 -49 4t-53 6v26h-20l6 26h28v9t4 15h118v10t2 14h118v9t2 15h28l10 -14q2 0 5 -1t5 -1l-16 -76h26q-4 -24 -8 -41t-8 -37l-16 -8l-134 -642h26l10 -10q12 0 32 -8v-28h112l-14 -48h26l-2 -4l-16 -10q0 -6 -4 -14h-100l-6 -24h-50v-9t-2 -13h-72v-11t-2 -15h-28 v26h-42l-12 12q-2 0 -6 2l2 32h-110l-6 -24h-72v-9t-2 -13h-72v-11t-2 -15h-120q0 -10 -2 -20h-96l-10 10q-14 0 -27 3t-29 5v28h-44l-10 12q-2 0 -6 2l2 32h-22l-10 14q-6 0 -15 2t-21 4l14 50h-24v24h-20l14 70h-22l22 122l-32 10l12 8h24l-4 -18h2l26 140l-32 10l10 10 h26l-4 -20h2l28 158h-24l10 52h26l22 114h-26l10 48h-24l-10 10q-22 0 -50 4t-50 6v26h-18l2 6h-42l20 20v-4h24l-2 -16zM188 920h28l-10 -28zM498 178l18 -26h-26z" />
<glyph unicode="v" d="M918 988h18l-2 -16l6 -2v10t2 14h48v9t2 15h372l6 24h28l-10 -54h16q0 -4 -1 -6t-1 -4h-18l-10 -58h-96v-11t-2 -15l-14 -10q-2 -6 -7 -17t-9 -19h-28v-9t-2 -13h-22l-14 -74l-16 -8q-2 -12 -10 -29t-12 -31h-24l-8 -46l-18 -8q-4 -14 -9 -30t-9 -32h-24l-12 -46l-16 -10 l-14 -38l-16 -8l-8 -16h-30q-4 -16 -6 -34t-6 -36h-26v-10t-2 -14l-16 -8q-2 -14 -10 -30t-12 -30l-14 -10q-4 -14 -9 -29t-9 -31h-28l-10 -48l-14 -10q-2 -6 -7 -17t-9 -21l-14 -10q-2 -6 -6 -16l-8 -20h-26l-6 -24h-24l-10 -48l-16 -10q0 -2 -4 -10h-106l-10 10q-2 0 -4 1 t-4 1l2 34h-22l14 46h-26l-10 14q-2 0 -10 2l14 78h-22l12 48h-26l4 46h-20l4 44h-18l12 48h-28l12 48h-24l14 70h-24l-10 12q-2 0 -5 1t-5 1l14 80h-24l12 48h-24l12 68h-24l12 48h-24l4 46h-22l16 70h-22l4 46h-20v26h-158l6 22h-22v26h-22v2h30v10t2 14h22v9t2 15h334 l10 -14q18 0 38 -4t40 -6v-24h20q-2 -10 -4 -17t-2 -11h-68l-6 -22h-50l-18 -114h20l-14 -70h24l-4 -46h20l-16 -72h26l-4 -44h18l-10 -48h22l-14 -70h26l-14 -48h26l-4 -46h20l-10 -48h22l-12 -48h28l10 -10q2 0 5 -1t5 -1l-2 -32h22l-6 -46h64v9t2 13h26v10t2 14l16 10 q0 10 4 14h32q2 12 7 32l9 36l14 8l12 40h30q2 12 6 33t8 37h20l8 48l16 8q2 14 9 30t11 32h28q4 14 5 32t5 36l14 8q2 8 6 18t8 22h30l8 46l14 8l46 200h-66l6 22h-96l2 30l-26 8zM994 920h28l-8 -28zM104 920h28l-8 -28z" />
<glyph unicode="w" d="M1454 988q0 -10 -2 -20l-14 -12q0 -2 -1 -7t-3 -7h-50l-6 -22h-52l-10 -46l-16 -10q-2 -8 -6 -18l-8 -20l-14 -8q-8 -32 -19 -66t-19 -68l-14 -10q-4 -20 -12 -41t-12 -43h-26l-12 -48h-20q-4 -14 -5 -32t-5 -36h-28q-2 -12 -6 -33t-8 -37l-14 -8q-4 -26 -15 -54t-17 -54 l-16 -12q-2 -6 -6 -16l-8 -20h-24l-20 -94l-16 -10q-2 -8 -6 -18t-8 -18h-24l-10 -48l-18 -10q0 -8 -4 -12h-34v-11t-2 -15h-70v26h-20l12 46h-26l6 46h-22l10 48h-24l14 70h-24l18 92h-20l10 72h-24l16 70h-114q-2 -12 -6 -33t-8 -37l-16 -10q-2 -8 -6 -18l-8 -20h-24 l-18 -92h-28q-4 -14 -5 -34t-5 -36l-14 -8q-4 -16 -10 -32l-12 -32h-24l-8 -46l-18 -8l-8 -16h-28l-8 -48h-76v26h-16l-10 12q-4 0 -14 2l16 56h-26l10 70h-22l14 70h-20l18 92h-24l10 72h-20l14 70h-24l14 68h-26l14 74h-18l16 92h-26l18 92h-22l12 48h-28l6 46h-42v26h-64 l10 58h-18q0 4 1 7t1 5h20l10 52h400l10 -12q16 0 39 -3t41 -7q-2 -10 -3 -25t-5 -27h-30v-11t-2 -15h-158l-8 -22h-26l-40 -208h24l-18 -94h26l-20 -92h26l-14 -70h18l-16 -94h24l-10 -48h24l-14 -68h70q0 10 4 20h18l6 26h28l8 48l14 8q4 14 9 29t9 31h26l18 94l16 8 l22 64l14 8q0 4 4 16t8 20h30q2 12 6 34t8 38l16 10q0 4 4 12h56v10t2 14h4v-24h20l10 -12q2 0 5 -1t5 -1l-14 -56h26l-4 -46h18l-10 -70h22l-14 -70h22l-12 -48h28l-12 -68h20v-26h18l-12 -48h70q2 8 4 22t6 26h46l18 94l14 8q4 14 10 31t10 33h26l18 94l18 8q4 20 11 41 t13 43l16 8q6 28 16 55t16 55l14 8l28 102h-24v26h-16l6 22h-166v26h-16l-2 2h4l8 48h42l6 24h400l12 -12q-2 0 10 -4l-2 -32h18v-8l32 -8l-10 -8h-22v16zM1112 920h26l-8 -28zM940 990q0 -4 -1 -5t-1 -5q8 -2 12 -2l10 -8h-40z" />
<glyph unicode="x" d="M1288 24v-9t-2 -13h-448l-10 12q-2 0 -5 1t-5 1q4 22 7 33t7 27h70v11t2 15l16 8l26 102h-20l-10 12q-2 0 -4 1t-6 1l4 34h-22l4 46h-18l-10 12q-2 0 -5 1t-7 1l4 34h-20v20h-18l-10 12q-2 0 -6 1t-6 1l2 34h-134v-9t-2 -13l-18 -12q-2 -6 -6 -16t-8 -18h-22l-6 -26h-48 l-8 -48l-16 -10q0 -2 -4 -10h-34v-9t-4 -13h-20l-10 -48l-16 -12l-16 -56h22l-4 -46h82l-6 -22h28l-2 -4l-18 -10l-14 -38h-400l-10 12q-2 0 -10 2q4 22 5 33t5 27h30v11t2 15h70q0 10 2 20h70v11t2 15h28v9t2 13l14 8q0 6 8 18h34v9t2 13h24v8t2 14h24l8 48l16 8q0 4 8 16 h54l8 46h26v9t2 13h24v11t2 15h26v9t4 13l14 8l42 152h-26l4 44h-20v26h-18l-10 12q-4 0 -12 2l2 34h-18l-10 10q-4 0 -7 1t-5 1l2 32h-18l-10 14q-4 0 -12 2l2 32h-18l-10 12q-4 0 -12 2l2 32h-16l6 24h-28v24h-42l-10 12q-32 0 -61 5t-63 7l-10 12q-6 0 -14 2l8 38h30 q0 10 2 20l14 10l12 14h310v-24h110l-10 -30l34 -8l-10 -8h-28v-4h-22v-9t-2 -13l-14 -12q0 -8 -4 -12h-34l-20 -114h46l-4 -46h18l10 -12q2 0 5 -1t5 -1l-2 -34h18l12 -10q4 0 12 -2l-2 -34h42l10 -12l54 -10v9t2 13h50v11t2 15h26q0 10 2 20h20l6 26h28v9t2 13l16 10 q0 8 4 16h36q0 10 2 20h20l20 114h-20l-10 12q-6 0 -16 2t-18 4v28h-20l-4 4h4l6 26h28q0 10 2 20h378l10 -10q2 0 4 -1t4 -1q-4 -22 -7 -33t-7 -27h-116q0 -14 -4 -24h-48v-10t-4 -14h-16l-6 -24h-32v-10t-2 -14l-14 -10q0 -4 -4 -12h-58v-10t-2 -14l-16 -10q-2 -8 -7 -18 t-9 -20h-26q0 -10 -2 -20l-18 -12q-2 -6 -6 -16l-8 -20h-26v-11t-2 -15h-18l-6 -22h-28l-28 -156h22l12 -14q2 0 4 -1t4 -1l-2 -32h18v-26h22l10 -12q2 0 4 -1t4 -1l-10 -54h46l10 -12q4 0 6 -1l6 -3l-2 -32h18l-4 -46h22l10 -12q2 0 3 -1t3 -1l-2 -34h20l12 -12q2 0 5 -1 t5 -1l-2 -34h42l10 -10q18 0 38 -4t40 -6v-26h18l-8 -22h28l-4 -30h40l-22 -20v4h-18v16h-4zM534 104l20 -28h-28zM414 844h28l-10 -26zM1284 104l18 -28h-26zM954 962q0 -4 -1 -5t-1 -5q2 0 4 -1t6 -1l6 -8h-34zM694 948v12l2 -2z" />
<glyph unicode="y" d="M412 988h70v10t2 14h2v-24h184l10 -10q6 0 15 -2t19 -4l-8 -34l-18 -10q0 -8 -4 -12h-78q0 -14 -2 -24l-18 -8l-32 -126h24l-10 -48h22l-12 -46h28l-12 -48h26l-12 -48h26l-4 -46h18l-10 -48h24l10 -10q4 0 12 -2l-18 -82h24l-12 -48h30l10 -10q2 0 3 -1t3 -1l-2 -32h84 l8 24h28v20h22q2 14 6 35t8 39h24q2 12 7 32l9 36l14 8l12 40h30l8 46l14 8q4 14 10 30l12 32l16 8q4 16 10 32t10 32l18 8q4 14 9 29t9 31l16 8l30 106h-24l-10 12q-20 0 -49 5t-53 7l-10 12q-4 0 -12 2v12l-26 10l10 8h18l-2 -18h4l10 46h212v10t2 14h98v-24h66v10t2 14 h50v-24h20l-10 -28l30 -10l-10 -8h-24l-4 -26h-72q0 -14 -2 -24h-72v-10t-4 -14l-14 -12q-4 -16 -14 -36h-30q-4 -16 -5 -34t-5 -36l-14 -8q-4 -14 -10 -30l-12 -32h-26l-8 -48l-14 -8q-4 -12 -11 -29t-11 -31h-26l-10 -48h-20q-2 -12 -6 -32t-8 -36l-18 -12q0 -2 -1 -7 t-3 -7h-30q-4 -14 -5 -33t-5 -35h-26l-10 -48l-14 -10q-2 -6 -7 -17t-9 -19h-24q-2 -12 -6 -33t-8 -37l-18 -12q0 -2 -1 -7t-3 -7h-30l-10 -46l-16 -10l-14 -38h-28q0 -10 -2 -20l-16 -8q-4 -16 -10 -32t-10 -32h-26l-8 -48l-16 -12q-2 -8 -6 -15t-8 -17h-24l-8 -46l-18 -8 q-4 -16 -10 -32t-10 -32h-26l-10 -48l-16 -12q0 -2 -4 -10h-30l-8 -48l-14 -10q-2 -6 -6 -16l-8 -20h-48l-6 -24h-30v-9t-2 -15h-48v-9t-2 -13l-14 -10q0 -8 -4 -12h-104v-10t-2 -14h-50l-12 12q-12 0 -25 4t-29 6l-10 14q-4 0 -12 2l2 30h-18l6 28l16 8l12 40h32v10t2 14 h94v-24h160v10t2 14h48l10 46h20l10 48h26v9t2 15l14 8l14 38h28q2 8 3 21t5 25l18 10l12 36h24q2 10 4 23t6 25h26l8 48l16 8l28 102h-22l4 46h-22l12 48h-24l12 48h-24l4 46h-20l-12 12q-2 0 -5 1t-5 1l10 54h-24l12 48h-22v26h-22l12 48h-24l-10 10q-4 0 -12 2l12 56h-24 l16 68h-26l10 48h-24l4 46h-20l12 48h-24l4 46h-20l12 48h-24v24h-20l-10 12q-32 0 -61 5t-63 7l2 26l-30 10l12 8h20l-2 -18h4l10 46h124l14 36l4 -12v-24z" />
<glyph unicode="z" d="M206 122v-4h24l-4 -16h4q0 10 2 20l14 10q4 8 7 18t7 20h24l6 26h30v9t2 13h22v8t2 14h28v10t2 14l14 10q0 6 4 14h32l6 24l14 10q0 -2 4 10h30l6 26l16 10q0 8 4 12h36v11t2 15h46l8 48l18 10q0 2 4 10h34v10t2 16l16 10q0 8 4 12h26l6 24h30v22l12 6q0 2 3 7t7 9h34v11 t2 15h22v9t4 13h48v11t4 15h26q0 10 2 20h18l8 26h26l8 48l14 10q0 2 2 4t4 6h56q2 8 3 22t5 26h28l4 66h-20l-10 12l-452 12q0 -14 -2 -24h-48l-10 -48l-16 -10q-2 -6 -7 -16t-9 -20l-14 -8q-4 -14 -10 -31t-10 -33h-52q0 -10 -2 -20h-2l-12 10q-4 0 -12 2l10 40l6 16h-4 l26 122h24q2 14 7 34t9 38h22q0 10 2 20h28v24h448v-24h228v10t2 14h74v-24h20l10 -10q4 0 12 -2l-8 -38h-28l-8 -46l-14 -10q0 -2 -1 -7t-3 -7h-30l-6 -24h-26v-10t-2 -14l-18 -10q0 -4 -4 -12h-34v-10t-2 -14l-16 -10q0 -2 -1 -7t-3 -7h-26l-8 -24h-28q0 -10 -2 -20 l-14 -12q0 -8 -6 -14h-30v-9t-2 -13l-18 -12q0 -2 -1 -7t-3 -7h-26l-6 -22h-32q0 -4 -1 -10t-1 -12h-18l-6 -24h-30v-9t-2 -15h-22v-10t-2 -14l-18 -10q0 -2 -4 -10h-28l-6 -26h-30v-9t-2 -13h-24v-11t-2 -15h-50v-9t-2 -13l-16 -12q-2 -6 -6 -16t-8 -18l-14 -8l-10 -18h-56 v-9t-2 -13l-14 -10q0 -2 -1 -8t-3 -8h-36q0 -10 -2 -20h-22v-9t-2 -13l-18 -10l-32 -126h46v-26h164l14 36l6 -10q-2 -8 -2 -15v-11h188v11t2 15h118q0 10 2 20h50v11t2 15h24v9t2 13h22l6 26l16 8q0 4 5 15t9 21h28l8 48h44l6 24h4l12 -12q-2 0 10 -4q-6 -40 -15 -76 t-17 -76l-14 -8q-4 -20 -11 -43t-15 -43h-28v-10t-2 -16l-14 -10q0 -8 -4 -12h-786l-10 12q-12 0 -25 3t-29 5v28h-18l10 52h-42zM400 758q0 4 1 8t1 8h-22v4l-20 -20h40z" />
<glyph unicode="{" d="M634 1508l20 20q0 -10 -2 -18h24q0 2 1 8t1 10l70 4q0 10 2 20h190v-24h64v10t2 14h138v-24h20l10 -10q2 0 5 -1t5 -1q-4 -24 -9 -43t-9 -39l-14 -12q-2 -6 -6 -16l-8 -20h-92l-6 -22h-250l-104 -538l-134 -58l-20 -90l108 -96l-90 -468h130v-26h64v10t2 16h138v-26h20 l12 -10q2 0 5 -1t5 -1q-4 -22 -9 -42t-11 -40l-14 -10q-2 -6 -6 -17t-8 -21h-98v-9t-2 -13h-372l2 12h-36l6 22h-22l12 68h-24q22 126 47 240t47 240h24l14 74l-140 110l26 30q-2 0 -11 1t-19 1l2 4l-20 -2l22 18q0 -4 -1 -8t-1 -8l8 2q-2 2 -2 6v10l190 118l96 482h-26 q6 40 15 72t15 68h20q0 2 1 9t1 17h-12zM346 -64h26l-8 -26zM318 706l18 -16l-16 -16zM384 -76h22v-20z" />
<glyph unicode="|" d="M698 -16l-14 -10q0 -2 -1 -8t-3 -8h-26l-6 -22h-100l6 22h-22l12 68h-24q22 126 47 240t47 240h24l164 838h-26q8 40 16 72t14 68h26v10t2 16h24v9t2 13h72l10 -12q6 0 15 -2t17 -4l-18 -98h22zM522 -64h26l-8 -26z" />
<glyph unicode="}" d="M1162 720q0 -2 1 -7t1 -11l-194 -118l-14 -78h26q-26 -126 -49 -240t-47 -240l-16 -8q-4 -14 -9 -29t-9 -31l-14 -8q0 -2 -2 -6l-4 -8h-52v-12h-368l-10 12q-20 0 -39 4t-39 6l12 48h-26q4 22 9 39t9 35l14 10q0 2 4 10h34v10t2 16h138v-26h64v10t2 16h130l90 466l144 94 l18 90l-114 60l104 540h-244l6 22h-94l10 48h-24q4 22 8 38t8 36l14 10q0 2 4 10h36v10t2 14h136v-24h64v10t2 14h190l10 -10q10 0 25 -3t29 -5l10 -14l10 -4l-2 -32h14q-6 -40 -14 -71t-14 -69l-16 -8l-102 -470l140 -112l-24 -26h11t19 -2l-2 -6l18 2l-20 -18l2 16h-8z M688 1364h26l-8 -28zM1182 772l2 -32l-18 14zM1162 1528l20 -20q-2 0 -3 1t-3 1l-16 6z" />
<glyph unicode="~" d="M444 688h188l12 -12l350 -12l8 24h136l12 -12q4 0 6 -1l6 -3l-2 -30h18q-4 -22 -8 -39t-8 -35l-14 -10l-16 -36h-96v-10t-2 -14h-670v24h-20l-12 10q-2 0 -5 1t-5 1q4 30 11 55t13 53l14 10q0 8 4 12h74z" />
<glyph unicode="&#xa0;" />
<glyph unicode="&#xa1;" d="M646 -144h-94l-10 12q-8 0 -17 2t-19 4l2 30h-20l12 44h-22l10 70h-22v4h26l32 164h20l32 160h22l40 184l14 8q18 102 42 206t44 206h28q2 12 6 32t8 36h46v9t4 13h2l10 -12q2 0 5 -1t5 -1l-2 -32h16l-22 -116h24l-84 -440h20l-34 -184h24l-10 -68h18q-10 -54 -19 -97 t-19 -95h-22q-2 -12 -6 -33t-8 -37l-16 -10q0 -2 -4 -10h-34v-11t-2 -15l-16 -10zM714 1292h24v-8l2 8h-2l14 74h24q0 10 2 20h22l6 24h52v9t2 15h70v10t2 14h4v-24h42l10 -14q2 0 4 -1t4 -1l-2 -32h20l10 -10q2 0 4 -1t4 -1q-6 -42 -14 -78t-16 -76h-22v-9t-2 -13l-18 -8 l-8 -16h-30v-9t-2 -13h-48l-2 -26h-52v26h-16l-10 12q-2 0 -5 1t-5 1l2 32h-18l-10 10q-6 0 -14 4l2 32h-16l6 26l-30 10zM738 1284l-4 -14h2z" />
<glyph unicode="&#xa2;" d="M1228 798q-4 -14 -5 -33t-5 -35h-22l-8 -24h-26l-10 12q-8 0 -15 2t-19 6v26h-16l-10 12q-2 0 -4 1t-4 1l14 80h-26l14 66h-20v26h-22l-10 12l-306 10v-9t-2 -13h-50v-10t-2 -16l-16 -10q0 -8 -4 -12h-54l-6 -24l-14 -10q0 -2 -4 -10h-32l-8 -48l-16 -10q0 -8 -4 -12h-32 q-2 -14 -6 -34t-8 -36h-22l-58 -318h20l-10 -46h26l-12 -46h24v-24h20l12 -12q2 0 4 -1t4 -1l-2 -34h18l-6 -22h50v-26h18l10 -10l376 -10q0 10 2 20h94v11t2 15h64l6 22h38l4 46l20 -22h-6q-2 -8 -2 -14v-10h24l-8 -52h-28v-9t-2 -13l-14 -8l-8 -16h-56v-8t-2 -14h-48v-9 t-2 -13h-74v-10t-2 -14h-90v-9t-2 -15h-70l-6 -24h-52q0 -4 -1 -9t-1 -11h-18l-10 -48l-18 -8q-8 -42 -20 -88t-22 -88l-14 -8q-2 -14 -10 -30t-12 -30h-28v-10t-2 -16h-24v26h-18l-10 10q-2 0 -10 2l58 288h-24l4 44h-68l-10 14q-8 0 -15 2t-17 4v28h-42l-12 12q-2 0 -4 1 t-4 1l2 30h-18l-10 12q-2 0 -5 1t-5 1l2 32h-20v26h-18l-10 10q-2 0 -5 1t-5 1l12 56h-24l10 46h-24l4 46h-20q16 80 29 155t29 151h28q2 12 6 33t8 37l14 8l12 38h30l8 44l14 8q0 6 8 18h26l8 46h28v9t2 15l14 10q0 8 4 12h50l6 22h30v10t2 14l16 12q0 8 4 12h54v10t2 14 h98q0 10 2 20h42l6 26l18 8q0 4 4 15t8 19h26l20 96h24v10t2 14h26v20h26l12 -10q4 0 12 -2l-18 -80h26l-18 -90h22l10 -12q4 0 14 -3t20 -7v-24h84v-24h42l10 -12q4 0 14 -2l-2 -34h14l-6 -22h26l-4 -46h18l-20 -98l32 -10l-10 -8h-24zM1222 992l18 -28h-26zM502 250 l18 -26h-26z" />
<glyph unicode="&#xa6;" d="M520 26q22 126 47 240t47 240h26l46 236q44 -4 81 -7t77 -7q-34 -192 -72 -373t-74 -371l-14 -10q0 -2 -1 -8t-3 -8h-26l-6 -22h-100l6 22h-22l12 68h-24zM522 -64h26l-8 -26zM876 892h-162l88 452h-26q8 40 16 72t14 68h26v10t2 16h24v9t2 13h72l10 -12q6 0 15 -2t17 -4 l-18 -98h22z" />
<glyph unicode="&#xa7;" d="M696 1126q0 -4 -1 -9t-1 -11h16q0 2 1 8t1 10h40q0 2 1 7t1 13h36q0 2 1 8t1 10h110v16h48l-2 -16h70l-2 -18h142v-20h14l-2 -18h14l-14 -70h22q-4 -16 -7 -25t-7 -25h-18l-10 -52h-14l-4 -40l-22 20q0 6 2 12t2 8h-30l2 34h-12l2 38h-12l10 52h-20l2 20h-52l2 18h-238 q0 -2 -1 -8t-1 -10h-38v-20h-20q0 -2 -1 -7t-1 -9h-18l-6 -36h18l-20 -18l2 18h-16l-22 -98h18l-2 -34h18l-2 -18h16v-20h48l-2 -16h126l-2 -16h106v-18h48l-2 -20h36l-2 -16q4 0 14 -1t20 -1v-16h14l-2 -18h16l-2 -20h18l-2 -18h14l-12 -54h16l-16 -82h18l-20 -18q0 4 1 9 t1 9h-18q0 -2 -1 -8t-1 -10h-20q0 -2 -1 -8t-1 -10h-18q-2 -6 -2 -17t-2 -21h-22q0 -2 -2 -7t-2 -9h20l-22 -20v7t2 13h-18q0 -2 -1 -8t-1 -10h-38v-18h-22l-4 -60h20l-2 -16h14v-20h16l-2 -18h14l-2 -18h16l-10 -52h14l-16 -84h18l-20 -16l2 16h-18v-18h-22q0 -4 -1 -8 t-1 -12h18l-20 -20v8t2 12h-18l-8 -36h-20q0 -2 -1 -7t-1 -9h20l-20 -22v22h-16q0 -2 -1 -7t-1 -9h-40q0 -2 -1 -9t-1 -11h-22v-18h-40q0 -2 -1 -8t-1 -10h-104q0 -2 -1 -7t-1 -9h-122l2 16h-100l2 18h-62q0 -2 -1 -8t-1 -10h-50l2 18h-18l2 18h-14l2 20h-16l14 68h-14 q0 10 2 14h-18l22 18q-2 -8 -3 -11t-1 -7h18l4 52h-28l20 18l-2 -12h10v-6h4q2 6 2 17t2 21l14 10q0 2 4 8h40l-2 -18h14v-18h16l-12 -54h16l-2 -36h20v-18h10l-2 -18h34l-2 -18h36l-2 -20h236q0 2 1 9t1 11h38q0 2 1 8t1 10h40v7t2 11h-18l20 20q0 -4 -1 -9t-1 -11h10l6 36 l14 8l36 142h-22l2 18h-30l2 18h-56l4 14h-70l2 20h-138l2 18h-58l2 16h-84l2 18h-18l2 20h-18l2 18h-16l14 72h-14l12 66h-16l20 16l-4 -16h16l12 50v2h22v9t2 11h-18l20 20q0 -4 -1 -9t-1 -11h18q0 2 1 8t1 10h24v7t2 11h-20l22 22q0 -4 -1 -10t-1 -12h18v16h22v9t2 11 h-18l20 20q0 -4 -1 -9t-1 -11h20q0 2 1 8t1 10h34l2 58h-30l2 18h-18l2 18h-18l2 20h-10l2 32h-16l2 36h-10l8 50h-16l20 16l-4 -16h18l10 54h24v18h-20l22 20v-9t-2 -11h18q0 2 1 8t1 10h20q0 2 1 9t1 11h20v14h-18l22 20v-8t-4 -12h22v7t2 11h-18zM756 426h128q0 2 1 7 t1 11h36q0 2 1 8t1 10h36v7t2 13h20l4 58h-12l10 34h-26l2 36h-8l10 54h-20l2 18h-54l4 20h-238q0 -2 -1 -9t-1 -11h-38q0 -4 -1 -8t-1 -10h-20v-16h-20l-8 -38h-12l-12 -78h12l-2 -32h18l-2 -18h14l-2 -20h36l-2 -18h32v-16h130zM1148 694h-22l2 20h-18l4 18h-18l2 16h-16 l2 20l20 -20h-2l18 -16h-4l18 -18h-4zM1034 300h-22l2 18h-14l2 20h-18l2 16h-14l2 20l20 -20h-4l16 -16h-2l18 -20h-6zM586 790h4l-18 18h4l-18 18h20v-18h16l-2 -18h18l-2 -22zM454 376h2l-20 18h6l-18 20h20v-20h16l-2 -18h18l-2 -20zM340 -16h4l-18 18h4l-18 18h22 l-2 -18h14v-18h16l-2 -22zM1196 1124h-24l2 20h-16l2 20l20 -20h-4zM492 86h-22l2 18h-12l2 22l20 -22h-8zM444 212h-22l2 18h-14l2 20l20 -20h-6zM714 856h-22l2 18h-16l2 20l20 -20h-4zM874 272h24l-2 -22zM590 342h24l-2 -22zM742 858l22 -22h-24zM450 -16h24l-2 -22z M1052 788l20 -22h-22zM982 1078h22l-2 -22zM550 -32h22l-2 -22zM952 1198l22 -20h-24zM1020 1182l22 -20h-24zM1018 806l22 -20h-24zM726 322h24l-2 -20zM1032 1058h22v-20zM538 70l20 -20h-22zM970 824l20 -20h-22zM504 88l20 -20h-22zM866 840l20 -20h-22zM848 290h22 l-2 -20zM538 360h20v-20zM796 308h20v-20z" />
<glyph unicode="&#xa8;" d="M420 1838v9t2 13h18l6 26h58l14 30l6 -10q-2 -10 -2 -20h44l10 -12q2 0 12 -6l-2 -30h16q-4 -28 -10 -51t-10 -47h-20l-8 -46l-18 -10q0 -8 -4 -12h-52l-12 -50l-22 24h6l6 26h-52l10 46h-24l-10 12q-4 0 -12 2q4 28 11 54t11 52h28zM938 1818l8 42h44l6 26h30l4 40 l20 -20h-2q-2 -10 -2 -20h44l10 -12q2 0 12 -6l-2 -30h18q-8 -36 -14 -62t-12 -58h-22v-10t-2 -14l-16 -10q0 -8 -4 -12h-30l-6 -26h-50l-10 14q-8 0 -16 2t-18 6l10 50h-20l12 68h-26l10 32h24z" />
<glyph unicode="&#xa9;" d="M676 1562h114v-36h174v-34h106v-34h100v-36h38v-34h32v-30h36v-40h32v-30h38v-72h36v-40h32v-68h38v-72h30v-174h38v-124h-38v-108h-30v-172h-38v-72h-32v-34h-36v-36h-38v-34h-32v-34h-36v-36h-70v-36h-34v-32h-32v-38h-72v-36h-68v-36h-140v-34h-218v34h-110v36h-98v36 h-70v38h-38v32h-70v36h-32v36h-32v34h-38v70h-34v72h-36v102h-32v74h-36v334h36v102h32v72h36v68h34v40h38v72h32v30h72v40h30v30h38v34h70v36h70v34h66v34h142v36zM1330 618h36v294h-36v138h-38v70h-32v34h-34v108h-34v32h-38v36h-28v38h-74v34h-68v36h-540v-36h-70v-34 h-30v-38h-38v-36h-34v-32h-34v-70h-34v-106h-34v-136h-36v-368h36v-138h34v-32h34v-72h34v-32h34v-38h38v-34h30v-38h38v-30h70v-38h100v-36h334v36h98v38h74v30h66v38h38v34h34v70h34v72h32v70h38v136zM562 1184v-20h16v12h38v12h52v16h-22l22 22v-22h154v-16h88v-12h158 v-12h16v-14l28 -10l-12 -6h-16v-154h38l-22 -20v2l-16 -16v20h-16v-12h-30v12h-16v30h-20v70h-16v26h-20v12h-16v16h-18v12h-36v18h-250v-18h-36v-12h-36v-16h22l-22 -20v6l-18 -18v6l-18 -20v22h-16v-32h20l-20 -20v4l-18 -16v20h-18v-26h20l-20 -22v22h-16v-44h20l-20 -20 v20h-16v-56h20l-20 -20v20h-20v-124h22l-22 -22v22h-18v-82h18v-114h20v-54h16v-42h16v-12h18v-30h18v-14h16v-14h18v-14h38v-14h32v-12h34v-16h202v16h34v12h36v14h-20l20 20v-4l18 18v-20h16v28h20v12h-20l20 22v-22h16v58h20v42h-20l36 34v-20h16v12h14v-12h32v-140h22 l-22 -20v4l-16 -16v20h-16v-16h-20v-16h-36v-14h22l-22 -20v20h-16v-12h-34v-14h-38v-12h-70v-18h-68v-10h-64v10h-88v18h-56v12h-32v14h-36v12h-16v14h-18v16h-18v16h-18v12h-16v26h-20v16h-14v14h-20v40h-18v30h-20v40h-14v70h-18v154h-22l22 22v-22h18v56h-20l20 20v-20 h14v42h20v42h-20l20 20v-20h18v28h20v28h-20l20 20v-20h14v14h20v26h-20l36 36v-4l18 16v-2l18 18v-6l18 20v-2l16 16v-22h18v16h34v14h-20zM420 426h20v-16h18v-16h18v-14h18v-12h16v-20l-16 16v-4l-18 18v-4l-18 18v-4zM912 1120h20v-16h18v-12h16v-20l-16 14v-2l-18 18 v-2zM556 444l20 -20h-20v14h-18v14h-16v20l16 -16v2l18 -18v4zM370 480h20v-16h14v-20zM476 1108h-18v-16h18v16zM440 1080h-16v-16h16v16zM950 424h-18v-14h18v14zM660 406l22 -22h-22v22zM510 1134h-16v-14h16v14zM1038 578h-16v-14h16v14zM1016 954h22v-20zM874 1132h22 v-20zM822 1226l20 -22h-20v22zM558 342h20v-22zM626 418l20 -22h-20v22zM574 1104v-12h-18v12h18zM458 1092h-18v-12h18v12zM494 1120h-18v-12h18v12zM522 1048v-12h-18v12h18zM538 1080h18v12h-18v-12zM486 514l20 -20h-20v20zM1068 610l20 -20h-20v20zM702 314h20v-20z M526 354h20v-20zM594 430l20 -20h-20v20zM910 1208l20 -20h-20v20zM614 324h20v-20zM1068 1196l20 -20h-20v20zM1100 438v-12h-16v12h16zM1084 968v-2h16v2h-16z" />
<glyph unicode="&#xaa;" d="M704 1518q0 -4 -1 -6t-1 -6h54q0 2 -1 6t-1 6h64q0 2 3 5t3 1q12 -6 18 -7t12 -1q2 0 7 -1t9 -1q6 -2 12 -2q6 16 52 12q-8 12 -18 16q12 0 22 10l12 10l16 74l-20 34q0 -2 -1 -5t-1 -7q-2 6 -8 14t-12 14q-10 2 -14 6q-18 6 -26 7t-18 1h-40q-4 -4 -9 -8t-17 4 q-8 -14 -8 -20q-10 4 -16 0t-10 -8l-26 -24q-2 -20 -8 -26q-8 -8 -26 -8v-12h-32q-10 0 -14 -4l-12 14l6 58h-4q20 12 20 26q4 -4 14 -4q10 14 22 10q14 14 26 12q10 14 22 10q12 14 30 14h16q12 0 17 4t9 8h150q2 0 6 -10q16 0 18 -14q14 0 18 4q4 -12 12 -14l4 -4l10 -14 q0 -4 -2 -9t-4 -13h12l-18 -92q0 -10 -3 -20t-13 -16l-42 -212q-6 -26 6 -28t36 4q10 8 6 10q4 -2 10 -2q6 -2 18 -2q0 -2 -14 -16q10 -2 20 -3t14 -1q-2 -2 -2 -4t-1 -5t-1 -5q-4 -4 -4 -10l8 2q-2 -2 -6 -2h-2h-4l-8 -14q-6 -2 -18 0t-20 6q-12 -18 -48 -8v-16l-56 -4 q-4 -2 -6 -1t-4 -1q2 2 -5 7t-9 7q-2 0 -6 2t-8 2q-4 2 -17 4t-23 2h-2q-14 0 -19 -3t-9 -7q-2 -2 -7 -1t-9 1h-22q0 -2 -2 -4q-4 -4 -4 -6l-156 -2v4q0 2 -1 5t-1 7q-20 -2 -24 4q-18 0 -20 18q-16 -4 -18 6l4 8q-12 12 -16 14v24h-6l6 32q0 10 4 24t16 22v4q0 2 1 4t1 4 l8 4l12 20l10 10l4 2q8 8 10 12h-8q2 0 8 8v16q6 -16 0 -24h22v12q26 -12 32 -9t2 19q4 0 10 6q8 6 16 6q24 -8 30 12q-2 0 -4 -2zM440 1098l-4 -16h20v16h54q0 2 1 8t1 10h138l-2 -18h290q0 2 1 8t1 10h98l-2 -18h16v-16h10l-10 -50h18l-20 -16l2 16h-14l-8 -34h-74 q0 -2 -1 -9t-1 -11h-506l2 20h-18l2 16h-12q4 22 7 35t7 33h-16zM738 1462q-4 -4 -6 -4q-18 6 -36 -12q-2 0 -6 2t-8 3t-10 5v-18h-14l-12 -20l-4 -2l-10 -2l-6 -9t-4 -7t-2 -6q-10 -10 -12 -15t-2 -13q0 -2 -2 -5t-4 -7l-4 -12q16 -4 12 -28q22 0 22 -10q22 0 26 -12h136 q8 12 22 10q12 12 24 8q10 16 8 16q4 -2 10 0q8 0 16 8l16 14q0 4 3 9t11 9q0 4 2 15t2 17l8 38l-2 -6q4 12 -4 23t-18 17q-6 2 -23 2h-45h-68zM426 978h4l-20 20h22v-20h16l-2 -20zM1074 1098h-22l2 18h-16l2 22l20 -22h-4zM492 1318q-6 0 -2 2h11t17 2l-6 -28zM624 1614 q2 0 8 1t8 1l8 -10l-2 -14zM1066 1692l-16 -4l-6 4q2 8 2 20zM652 1138l20 -22h-22zM640 1496l6 -14q-4 -2 -14 -2q8 2 8 16q-2 4 -2 10l2 -8v-2zM1070 1270q2 0 4 2h14zM628 1482q2 0 2 -1t2 -1h-8zM548 1418q0 -4 -2 -6zM830 1750q0 -2 -1 -2t-1 -2q0 2 2 4zM826 1744l2 2 z" />
<glyph unicode="&#xab;" d="M620 246l-36 -44l-56 32q0 -2 -4 -8t-6 -8l-366 318l12 26q-2 2 -7 3t-11 5l16 74l8 14q-2 4 -1 7t1 9l504 326l-8 24l30 -10l-22 -14l6 -20l66 34l14 -42q4 0 8 3t8 5q6 -20 12 -31t12 -27l-14 -8q0 -2 2 -9t4 -11l-6 -12q0 -2 1 -7t1 -7q-30 -14 -49 -26t-47 -26v34 l-330 -240l232 -232l24 24l64 -44l2 -20l2 -2l-18 -32q2 -2 4 -2t2 -1t2 -1l-48 -62l16 -16l-32 -2l16 18zM1154 246l-36 -44l-54 32q0 -2 -4 -8t-8 -8l-366 318l14 26l-20 8l18 74l8 14q-2 4 -1 7t1 9l504 326l-8 24l28 -10l-20 -14l6 -20l66 34l14 -42q2 0 6 3t8 5 q6 -20 12 -31t12 -27l-14 -8q0 -2 2 -9t4 -11l-6 -12q0 -2 1 -7t1 -7q-28 -14 -48 -26t-48 -26v34l-330 -240l234 -232l22 24l66 -44l2 -20l2 -2l-18 -32q2 -2 4 -2t2 -1t2 -1l-50 -62l16 -16l-30 -2l14 18zM1354 930l-12 -28q-4 8 -8 20zM818 930l-10 -28q-4 8 -8 20z" />
<glyph unicode="&#xac;" d="M1034 160l38 192h24l46 242l-46 -48h-866l-10 14q-4 0 -12 2l2 30h-20q6 30 13 52t11 46l14 12q0 2 4 10h78v10t2 14h190v-24h550v10t2 14h120q22 0 45 2t45 2l10 -12q6 0 16 -2t18 -4l-20 -96h22l-96 -508h-22l-6 -26h-26v-9t-2 -13h-98l-10 12q-2 0 -4 1t-4 1l14 76 h-22zM1010 160h24l-4 -24z" />
<glyph unicode="&#xad;" d="M524 736h190v-24h202v10t2 14h138v-24h20l10 -10q2 0 5 -1t5 -1q-4 -24 -9 -43t-9 -41l-14 -10q-4 -16 -14 -36h-100v-9t-2 -15h-506l-10 14q-4 0 -12 2l2 30h-18q4 30 11 52t11 46l14 12q0 2 4 10h80v24z" />
<glyph unicode="&#xae;" d="M676 1562h114v-36h174v-34h106v-34h100v-36h38v-34h32v-30h36v-40h32v-30h38v-72h36v-40h32v-68h38v-72h30v-174h38v-124h-38v-108h-30v-172h-38v-72h-32v-34h-36v-36h-38v-34h-32v-34h-36v-36h-70v-36h-34v-32h-32v-38h-72v-36h-68v-36h-140v-34h-218v34h-110v36h-98v36 h-70v38h-38v32h-70v36h-32v36h-32v34h-38v70h-34v72h-36v102h-32v74h-36v334h36v102h32v72h36v68h34v40h38v72h32v30h72v40h30v30h38v34h70v36h70v34h66v34h142v36zM1260 340v70l32 2v70h38v136h36v294h-36v138h-38v70h-32v34h-34v108h-34v32h-38v36h-28v38h-74v34h-68v36 h-540v-36h-70v-34h-30v-38h-38v-36h-34v-32h-34v-70h-34v-106h-34v-136h-36v-368h36v-138h34v-32h34v-72h34v-32h34v-38h38v-34h30v-38h38v-30h70v-38h100v-36h334v36h98v38h74v30h66v38h38v34h34v70h-16v40h-172v16h-16v14h-18v12h-14v26h-18v14h-18v26h-16v12h-14v28h-16 v26h-16v28h-18v24h-16v30h-16v24h-16v26h-36v16h-14v24h-16v14h-16v12h-34v14h-16v14h-140v-14h-16v-320h16v-12h36v-12h94v-14h18v-12h-338v26h20v12h46v12h34v694h-16v12h-18v12h-98v24h18v12h56v-12h74v12h8v-12h190v12h24v-12h164v-12h48v-12h16v-12h18v-18h16v-12h18 v-12h14v-12h18v-28h18v-54h16v-50h-16v-40h-18v-28h-18v-12h-14v-26h-34v-14h-18v-14h-32v-14h-32v-12h-32v-12h-34v-68h18v-14h32v-12h16v-16h18v-12h14v-12h16v-14h16l10 -16q4 0 8 -2v-22h16v-12h18v-28h14l10 -14q4 0 8 -4v-20h18v-28h16l10 -14q-2 0 4 -2v-38h34v-12 h32v-12h82v-42h16v-40h34zM924 926h14v130h-14v42h-16v12h-16v12h-34v18h-16v12h-66v12h-206v-12h-16v-30h-16v-292h16v-12h272v12h32v16h16v12h18v14h16v12h16v42zM1238 408l22 2h-50v-2h28z" />
<glyph unicode="&#xb0;" d="M874 1712v2q-10 -4 -18 -14q0 -2 6 -2q-10 -2 -15 -8t-9 -10q4 12 -2 18q-16 -28 -16 -30q-14 4 -20 -1t-10 -13l4 -2h-6l2 2q-32 4 -38 -20h-96q6 2 8 0q-8 18 -20 18h-4q6 -6 2 -16q0 8 -8 16q-4 6 -16 14q0 12 -18 16v-6q0 2 -10 6h10q-2 12 -8 12q4 16 -10 30 q6 30 -4 40l18 94q0 8 6 6l12 32v2q-8 0 -12 2q10 4 11 3t1 -5q16 0 19 11t7 23l-10 -4l-12 -4l22 22v-14l7 7t7 9h-18l22 24q2 -10 0 -15t-4 -9q10 0 20 2t14 14h-4q4 0 6 8q0 -2 -1 -4t-1 -4q16 0 20 16h-18l18 12v8q2 -14 0 -20h124q-4 -14 11 -17t37 1q-6 -2 -10 -14 q24 0 18 -36q8 4 12 7t8 5q0 -4 4 -4q-2 -8 -1 -17t9 -25q0 4 4 16v-12t-2 -8q-2 0 -2 2q-4 -36 6 -42l-12 -62q0 2 -6 0t-12 -6q0 -4 1 -12t5 -10q-16 0 -20 -10t-8 -22h2zM696 1932q-2 -16 -28 -20v-14q-4 -2 -8 -6t-8 -20q0 -4 -16 0l-16 -82q0 -22 20 -30q-16 4 -42 -32 q24 8 34 11t14 7q0 -8 4 -13t24 -5q-10 -4 -12 0l6 -21t16 1q2 -4 5 -6t7 -6q6 0 16 -8t20 -11t18 2t10 33h2q32 -4 44 14q30 -4 36 28q0 6 14 4l22 104q-18 4 -10 32q-4 -2 -9 -3t-7 -3q2 4 -2 7t-4 5q-4 2 -3 6t13 26h-160zM572 1730l10 -6q0 -4 2 -8t2 -6zM592 1694 q0 -6 -4 -10q2 6 -2 10h6zM914 1922q6 -6 8 -6q-8 0 -8 6zM666 1630v4q2 -4 2 -10zM612 1642q0 2 4 10zM612 1668l4 -2q-2 0 -4 2zM618 1664l-2 2h2v-2zM584 1694l-2 2zM914 1924q0 -2 -2 -2h2v2zM618 1660q0 -2 -2 -4q2 2 2 4z" />
<glyph unicode="&#xb1;" d="M352 772q0 -14 -2 -22h16q0 2 1 8t1 10h94v16h288l76 384h-16l20 16h-2l22 18l-2 -18h32q0 2 1 5t1 7h42v-12h14v-16h14l-2 -14h6l-48 -246h20l-22 -16l2 16h-12l-14 -94h12v-14h14l-2 -16h366v-16h14l-2 -18h10l-12 -58h18l-20 -16l2 16h-14q-2 -4 -4 -12t-4 -18h-64 v-14h-28l2 14h-64v-14h-30l2 14h-186l-32 -22q-4 -24 -11 -50t-13 -52h20l-22 -16q0 4 1 8t1 8h-10l-20 -106h10l-28 -154h18l-20 -16l2 16h-14q0 -2 -1 -6t-1 -8h-20l-34 -26v-4h-30l4 14h-26l-10 18h-4l70 368h-16l2 14h-62l2 14q-32 0 -79 2t-81 4q-38 4 -79 6t-75 2 l-14 8l-2 -16l-20 24q4 0 11 -3t11 -3l10 38h-18l22 16l-4 -16h18q0 4 1 11t1 15h-18zM218 114l-4 -18h20v16h50v18h124l-2 -18h700q0 2 1 8t1 10h84l-2 -18h18v-16h12l-10 -38h18l-20 -16q0 4 1 8t1 8h-16l-6 -34h-70q0 -2 -1 -7t-1 -9h-890l2 16h-16l2 18h-12l12 54h-16z M974 1168h-22l2 16h-16l2 12h-16l4 22l32 -34h-2zM1308 768h-22v16h-14l2 20l22 -20h-2zM932 800h-24v14h-14l2 20zM1230 112h-22l2 18h-18l2 20l22 -20h-4zM204 8h4l-16 16h20v-16h14l-2 -20zM848 1184h-18l-4 -16h22v16zM682 634h24l-2 -22zM1054 648h22v-20zM410 150 l20 -20h-22zM668 234h20v-20zM626 648h20v-20zM1148 648h20v-20z" />
<glyph unicode="&#xb4;" d="M592 1634l-30 20l4 2l-20 8l16 8l-6 14q-6 0 -10 -4l-24 54l14 8q-2 2 -6 14l38 22l-6 12l88 48l-8 20l26 -10l-18 -10l10 -16l202 108q0 8 -2 18q16 8 29 15t29 15l-2 32l28 -18l-2 -2l20 -6l-18 -10l8 -12q6 0 10 4l14 -40l-12 -6l10 -30l-48 -30q0 -2 3 -7t5 -7 l-346 -180v16l-26 -12l8 -14l18 10zM944 1976l-6 16l-20 -12l2 -16zM554 1812l8 -20l-18 -8zM994 1936l-10 -24l-8 16zM516 1754l6 -18l-16 -8z" />
<glyph unicode="&#xb5;" d="M354 -232l-6 -22h-24q0 -14 -2 -24h-58l-10 12l14 74h-20l36 180h18l38 192h-18l26 130h-18l22 16l-4 -16h12l2 48l-30 10l10 8h22l-2 -18h4l24 138l-30 10l10 10h24l-4 -20h2l30 156h-26l10 52h28l20 112h-24l10 48h-26l-10 10q-20 0 -48 4t-50 6v24h-18l2 6h-42l20 22 v-4h24l-2 -18l4 18h-2l6 26h46v10t4 14h164v10t2 14h74l10 -12q2 0 3 -1t3 -1l-42 -224l-14 -8l-86 -400l-2 -50h14l-14 -68h24l12 -12q2 0 5 -1t5 -1l-10 -54h24v-24h38l-6 -22h72v-26h166v11t2 15h42l6 22h74v10t2 14h28v9t2 13l14 10q0 2 1 7t3 7h30l122 618h-24v26h-20 l-10 10q-20 0 -49 4t-51 6v24h-20l6 28h28v9t2 13h118v10t2 14h116v10t2 14h28l10 -12q2 0 5 -1t5 -1l-16 -78h26q-4 -22 -8 -39t-8 -37l-16 -8l-132 -634h24l10 -10q8 0 17 -3t17 -5v-28h6q-6 -28 -10 -51t-10 -47h-40v-9t-2 -15h-72v-10t-2 -14h-26v24h-44l-10 14 q-2 0 -6 2l2 32h-110l-6 -24h-72v-9t-2 -15h-70v-10t-2 -14h-36q0 -10 -2 -20h-94l-12 10q-12 0 -25 3t-29 5v26h-44l-20 4q-14 -66 -36 -131t-38 -133h18l-20 -16q0 4 1 8t1 8h-12zM260 908h28l-8 -26zM568 176l18 -26h-28zM224 -192h24l-4 -24z" />
<glyph unicode="&#xb7;" d="M678 1296v-8t-2 -14h20v16h54v16h14l-2 -16h50v-16h30l-2 -28h12q0 -2 -2 -4h18l-20 -18q0 10 2 18h-14l-18 -90h-22l-18 -104h18l-20 -16l2 16h-18l-4 -54h12l-16 -76h18l-20 -18q0 4 1 8t1 10h-18v-16h-22q0 -2 -1 -6t-1 -8h-44l2 14h-18l2 16h-12l18 88h-18l28 146 h-20l16 76h-14l10 32h-20l18 14zM642 888h2l-14 14h20v-14h16l-2 -20zM766 1326l20 -20h-22zM814 1310l20 -20h-22zM676 1274h-14q-2 -4 -2 -14h16v14z" />
<glyph unicode="&#xb8;" d="M858 -266l-10 -18l-36 16q0 -2 -2 -5t-4 -7l-214 118l14 22h-8l8 16h-8l2 -2l-10 -12q4 0 5 -1t3 -1l-12 -20l6 -2l-8 -18l-8 26l-10 16h10l-10 16h16v20l4 -4v20l14 -16l-12 -10l8 -8l-4 -2q2 0 3 -1t3 -1l-2 4l10 8l-6 10l12 8l-6 4l236 144l-2 36l30 -18l-28 -18l2 -8 l50 26l2 -14h4q2 0 4 1t4 1l14 -28l-10 -10l6 -6l-2 -2v-4q0 -2 2 -4l-40 -26l10 -22l-28 10l18 12l-6 12l-178 -108l162 -90q0 2 3 6t5 8q6 -4 12 -7l14 -7l-4 -8l2 -2l-26 -30h18l-14 -22l10 -2l-16 -8l6 10zM888 -216l6 6l-4 4l10 16l12 -26l-8 4v-18zM932 28v-28l-14 16 l10 8l-6 8l12 12l-4 -16h2z" />
<glyph unicode="&#xba;" d="M954 1746v-26h64l10 -10q4 0 12 -2l-2 -32h18l10 -12q4 0 14 -2l-16 -54h24l-10 -72h20q-4 -28 -10 -49t-10 -45l-16 -10q-4 -16 -14 -38h-24l-8 -48l-16 -8l-10 -16h-30q0 -4 -1 -9t-1 -11l-14 -8l-8 -18h-54v-9t-2 -13h-50v-10t-2 -14h-140v24h-40l-10 12q-8 0 -17 2 t-17 4l2 30h-22v20h-16l12 48h-28l12 46h-26q8 46 18 85t18 83l14 8l12 36h28l10 48l14 10q0 2 1 7t3 7h58q0 10 2 20h26v11t2 15h210zM728 1648h-30v-10t-2 -14h-20l-8 -46l-16 -10l-38 -148h26l10 -10q2 0 3 -1t3 -1l-2 -32h20l10 -12q6 0 14 -2t18 -4l-2 -30h112v10t2 14 h70q0 14 2 24h48l10 44h24l30 158h-26v24h-18l10 46h-26l-10 12l-214 10v-22zM432 1098l-4 -16h20v16h54q0 2 1 8t1 10h138l-2 -18h290q0 2 1 8t1 10h98l-2 -18h16v-16h10l-10 -50h18l-20 -16l2 16h-14l-8 -34h-74q0 -2 -1 -9t-1 -11h-506l2 20h-18l2 16h-12q4 22 7 35t7 33 h-18zM418 978h4l-20 20h22v-20h16l-2 -20zM1066 1098h-22l2 18h-16l2 22l20 -22h-4zM644 1138l20 -22h-22z" />
<glyph unicode="&#xbb;" d="M350 998l-14 -20l8 -8l36 46l56 -34q0 2 4 9t6 9l366 -320l-22 -22q4 0 13 -4t15 -8l-16 -72l-12 -14q0 -2 2 -9t2 -9l-504 -326l8 -22l-30 10l22 12l-6 20l-66 -32l-16 40q-2 0 -6 -3t-8 -5q-8 20 -14 32t-12 26l16 8q0 2 -2 9t-4 11h18l-8 30q28 14 47 25t43 23l20 -18 l310 224l-232 232l-24 -24q-18 10 -33 23t-31 23l-4 18l-4 2l22 32q-2 0 -8 6l48 60l-16 18zM886 998l-14 -20l8 -8l34 46l56 -34q0 2 4 9t6 9l366 -320l-20 -22q2 0 11 -4t15 -8l-16 -72l-10 -14q0 -2 1 -9t1 -9l-504 -326l8 -22l-28 10l20 12l-6 20l-66 -32l-14 40 q-2 0 -6 -3t-8 -5l-28 58l16 8q0 2 -2 9t-4 11h20l-10 30q28 14 47 25t45 23l18 -18l310 224l-232 232l-22 -24q-20 10 -35 23t-31 23l-2 18l-4 2l20 32q-2 0 -8 6l50 60l-18 18zM690 314l6 -20l-16 -6zM156 314l6 -20l-16 -6z" />
<glyph unicode="&#xbc;" d="M854 450h52v-24h18l-2 -2l-14 -10q-2 -10 -7 -18t-9 -18h-28l-8 -46h-20l-12 -48l-16 -8q-4 -14 -9 -30t-9 -32h-24l-12 -48l-16 -10q-2 -6 -6 -16t-8 -18l-14 -8l-36 -124h300q0 10 4 20l14 8q8 38 20 78t20 76h26q4 16 5 35t5 35l14 10q0 2 1 7t3 7h12l10 -14 q4 0 12 -2l-2 -32h18l-32 -160h26l-14 -48h26l10 -10q18 0 38 -4t40 -6v-24h18l10 -14q4 0 14 -2l-10 -36h-26l-8 -48h-118q0 -10 -2 -20l-14 -8q-4 -14 -10 -31t-10 -33h-28l-8 -44h-22v-10t-2 -14h-28v24h-18l-10 10q-4 0 -12 2l14 80h-20l4 44h-44v26h-64v-11t-2 -15 h-258v26h-16l-10 12q-2 0 -5 1t-5 1l2 32h-20q4 22 8 39t8 33l14 8q4 16 10 31t10 31h28v10t2 14h22l10 46h24l8 48l14 8q4 14 10 29t10 31h24l6 24l16 8q4 14 10 29t10 31h26l8 48l14 10q0 2 4 10h36v24zM656 1586h124v-26h16l-12 -68h22q-4 -22 -8 -38t-8 -36l-14 -8 l-92 -426h22l-10 -46h46v-26h162l10 -12q2 0 5 -1t5 -1q-4 -20 -7 -31t-7 -29h-538l-10 14q-6 0 -12 2t-16 4l10 54h48v11t2 15h166v9t2 13l14 8l96 450h-22l4 46h-158v-9t-2 -13h-24l-12 12q-2 0 -5 1t-5 1l10 54h-24l2 4h24q4 8 5 21t5 25h186v26zM1316 938h74v-26h20v-6 h-30q0 -10 -2 -20l-14 -10q0 -2 -1 -7t-3 -7h-56v-9t-2 -15h-46l-6 -24h-48q0 -4 -1 -9t-1 -11h-42l-6 -22h-52v-11t-2 -15h-50v-9t-2 -13h-48v-10t-2 -14h-46q0 -12 -2 -22h-42l-8 -24h-28v-9t-2 -13h-70v-11t-2 -15h-50q0 -10 -2 -20h-48v-10t-2 -14h-42l-6 -24h-30v-10 t-2 -14h-46v-9t-2 -13h-50v-10t-2 -16h-72q0 -10 -2 -20h-48v-9t-4 -13h-44l-6 -26h-50q0 -10 -2 -20l-14 -10q0 -2 -1 -7t-3 -7h-56v-9t-2 -13h-46l-6 -26h-30l-14 -32l-6 10q2 8 2 13v9l-10 12q-2 0 -6 1t-6 1q2 12 4 21t6 17l14 8q0 4 8 16h32v9t2 15h50q0 10 2 20h48v10 t2 14h70v9t2 13h48v11t2 15h42l6 22h28v10t2 14h50v9t2 13h72v10t2 14h50v9t2 13h18l6 26h52q0 10 2 20h94v10t2 14l14 10q0 2 1 7t3 7h36v10t2 14h42l6 22h52v22h44l6 24h48v9t2 13h48v10t2 16h50q0 10 2 20h44l6 24h50v9t2 13h48v26z" />
<glyph unicode="&#xbd;" d="M1022 488v-26h64l10 -12q6 0 15 -2t17 -4v-28h22l10 -10q2 0 3 -2t3 -2l-2 -32h20l-4 -46h18l-4 -44h22q-2 -10 -4 -17t-4 -15l-18 -10q-2 -6 -6 -16t-8 -18h-24l-10 -48l-18 -10q0 -8 -4 -12h-30v-10t-2 -16h-50q0 -10 -2 -20l-16 -10q0 -2 -1 -7t-3 -7h-50l-6 -22h-28 v-9t-2 -13h-74v-10t-2 -14h-46v-9t-2 -13l-16 -12q0 -2 -1 -7t-3 -7h-56v-9t-2 -13l-14 -8l-8 -16h-34l-4 -62h20v-26h318v11t2 15h48q0 10 4 20h42l6 24h30l10 -12q2 0 4 -1t4 -1q-4 -22 -9 -42t-9 -40h-22l-8 -48h-48v-10t-4 -14h-26v24h-228v-10t-2 -14h-302v24h-40 l-10 14q-2 0 -10 2q4 20 5 31t5 27h28l8 46h18l6 24l16 12q0 8 4 12h56v10t2 14h26v9t2 13h72v11t2 15h48q0 10 2 20h20l6 22h54v11t2 15h48q0 10 2 20l14 10q0 2 1 7t3 7h32v9t2 15h44l6 24h30v9t2 13l14 10q0 2 1 8t3 8h32l30 154h-24v24h-20l-10 12q-18 0 -38 4t-40 6 l-10 12l-54 12v-10t-2 -14h-140v-9t-2 -13l-16 -10q0 -2 -1 -7t-3 -7h-30l-12 -46l-16 -10q-2 -6 -6 -17t-8 -21h-26q0 -10 -2 -20l-18 -10q0 -2 -1 -7t-3 -7h-32l4 44h-16v6l14 10q4 14 10 29t10 31l16 10l14 36h26l6 24l14 12q0 2 4 10h58v10t2 14h50v9t2 13h72v11t2 15 h164zM748 1574v-24h22l10 -12q2 0 4 -1t4 -1l-116 -588h48l10 -10q36 0 72 -4t74 -6v-26h20l10 -12q2 0 6 -1t6 -1l-4 -14h-28v-9t-2 -13h-534l-10 12q-2 0 -5 1t-5 1l8 36h46v11t2 15h166l8 44l14 8l92 428h-22l12 68h-138v-10t-2 -14h-50v24h-18l-10 10q-4 0 -12 2l10 40 h26v9t2 13h138v10t2 14h144zM1370 972v-24h16l-8 -52h-48v-9t-2 -13l-16 -10q0 -8 -4 -12h-78v-10t-2 -14h-50v-10t-2 -14h-40l-8 -22h-52v-11t-2 -15h-50q0 -10 -2 -20h-48v-9t-2 -13h-48v-10t-2 -16h-42l-6 -22h-54v-9t-2 -13h-46v-9t-2 -15l-16 -10q0 -2 -1 -7t-3 -7h-56 v-9t-4 -13h-42l-6 -26h-72q0 -10 -2 -20l-16 -10q0 -2 -1 -7t-3 -7h-58v-9t-2 -13h-70v-11t-2 -15h-50q0 -10 -2 -20h-44l-6 -24h-28v-10t-2 -14h-50v-9t-2 -13h-44v-10t-2 -14l-18 -10q0 -4 -4 -12h-32l-10 12q-2 0 -10 2l10 60h28v9t2 13h48v10t2 14h72v9t2 13h46v11t2 15 l16 10q0 2 4 10h76l6 24h52v9t2 15h48v10t2 14h24v9t2 13h74v9t2 15h38l6 22h52v10t2 14h26v9t2 13h50q0 12 2 22h50v10t2 14h16l6 22h54v11t2 15h48v9t2 13h48v9t2 13h48v10t2 14h68l6 24h50v9t2 13h26v11t2 15h50q0 10 2 20h22v10t2 14h50z" />
<glyph unicode="&#xbe;" d="M854 450h52v-24h18l-2 -2l-14 -10q-2 -10 -7 -18t-9 -18h-28l-8 -46h-20l-12 -48l-16 -8q-4 -14 -9 -30t-9 -32h-24l-12 -48l-16 -10q-2 -6 -6 -16t-8 -18l-14 -8l-36 -124h300q0 10 4 20l14 8q8 38 20 78t20 76h26q4 16 5 35t5 35l14 10q0 2 1 7t3 7h12l10 -14 q4 0 12 -2l-2 -32h18l-32 -160h26l-14 -48h26l10 -10q18 0 38 -4t40 -6v-24h18l10 -14q4 0 14 -2l-10 -36h-26l-8 -48h-118q0 -10 -2 -20l-14 -8q-4 -14 -10 -31t-10 -33h-28l-8 -44h-22v-10t-2 -14h-28v24h-18l-10 10q-4 0 -12 2l14 80h-20l4 44h-44v26h-64v-11t-2 -15 h-258v26h-16l-10 12q-2 0 -5 1t-5 1l2 32h-20q4 22 8 39t8 33l14 8q4 16 10 31t10 31h28v10t2 14h22l10 46h24l8 48l14 8q4 14 10 29t10 31h24l6 24l16 8q4 14 10 29t10 31h26l8 48l14 10q0 2 4 10h36v24zM434 1542l-4 -16h16v12h30v12h28v12h30v12h70v14h-18l20 16l-2 -16 h10v-14h62v-12h40v-12h24v-12h28v-12h10v-12h10v-14h10l20 -24l-12 -60h12l-22 -88l18 4l-20 -16l2 12h-8l-8 -38h18l-20 -18l2 18h-14q0 -4 -1 -11t-1 -13h18l-20 -20v7t2 13h-20v-10l18 2l-16 -6q-2 -2 -2 4l-12 -2q0 -2 -1 -6t-1 -8h20l-20 -20v20h-16v-12q0 -2 2 0l14 6 l-8 -4v-34l12 -12h-2l26 -24h-4l14 -12h-2l24 -26h-24l2 12h-14l4 14h-14l2 12h-12l2 12h-14l2 16h-2v8l-8 8l-2 -32h10v-12h12v-12h10v-14h10v-12h12v-12h10v-24h10v-26h8l-12 -46h14l-14 -52l18 2l-20 -16l2 14l-10 -2l-6 -36h18l-20 -18l2 18h-16q0 -2 -2 -13t-2 -15 q-4 -4 -4 -6l18 2l-22 -20q0 10 4 18l-14 -2q0 -4 -1 -10t-1 -14h18l-20 -20v9t2 11h-12l-8 -24l14 4l-18 -16l4 12l-14 -2q0 -2 -1 -5t-1 -7h20l-20 -20v4l-18 -16v10l-14 -14h4l-20 -22v22h-12v-10h-32v-16h-42v-12h-44q0 -2 -1 -5t-1 -7h-182l2 12h-42l2 12q-6 0 -12 -1 t-10 1v16q-8 0 -14 -1t-12 1v10h-28l2 12h-8l-10 10l-2 -10l-20 24q4 0 11 -6t11 -6v-2l2 6q2 0 3 1t3 1l24 16v2l18 -2l-2 22l18 -22h-16l2 -8h26v-10h24v-12h50v-12h156q0 2 1 5t1 7h44v12h18l28 18l-2 4v4l20 2q0 4 -1 6t-1 4l12 8q2 4 4 7t2 7l-8 -4l12 18q0 -2 -1 -3 t-1 -3q0 -6 -2 -8l10 4l10 20l14 16q0 10 6 20l2 4l14 10l20 106h-14l2 32q-8 4 -12 4v12h-12v24h-24l2 14h-12l2 12h-28l2 12h-110l2 12h-12l2 12h-8l6 20l8 8h-12l20 20q0 -2 -1 -8t-1 -8l-6 -4h88v14h44v12h24q4 8 7 13t5 11l-4 -2l4 10v-8l8 6q4 4 6 10t4 10l14 12v10 h-16l20 20q0 -8 -4 -20h12l20 106h-10l-10 14q-2 0 0 -1t-2 1l2 36h-10v6l-12 4v4l-12 8v10l-12 6v-12q4 0 12 -4l4 -8l8 -4l2 -14l-22 20h2l-24 26q8 0 18 -4l-2 10h-142q0 -2 -1 -4t-1 -6h22l-22 -22v10l-14 -14h4l-20 -20v20h-10l-8 -22l14 2l-18 -14l4 12l-10 -2l-8 -24 h-14q-2 -4 -2 -7t-2 -5l16 2l-20 -20v4q0 -2 4 14l-14 -2v-12h-50l2 12h-4q4 10 6 17t4 15l4 8q0 10 10 22q4 4 4 6l8 8h-12l20 22q0 -2 -1 -8t-1 -8l-6 -6h16l6 26h-16zM1316 938h74v-26h20v-6h-30q0 -10 -2 -20l-14 -10q0 -2 -1 -7t-3 -7h-56v-9t-2 -15h-46l-6 -24h-48 q0 -4 -1 -9t-1 -11h-42l-6 -22h-52v-11t-2 -15h-50v-9t-2 -13h-48v-10t-2 -14h-46q0 -12 -2 -22h-42l-8 -24h-28v-9t-2 -13h-70v-11t-2 -15h-50q0 -10 -2 -20h-48v-10t-2 -14h-42l-6 -24h-30v-10t-2 -14h-46v-9t-2 -13h-50v-10t-2 -16h-72q0 -10 -2 -20h-48v-9t-4 -13h-44 l-6 -26h-50q0 -10 -2 -20l-14 -10q0 -2 -1 -7t-3 -7h-56v-9t-2 -13h-46l-6 -26h-30l-14 -32l-6 10q2 8 2 13v9l-10 12q-2 0 -6 1t-6 1q2 12 4 21t6 17l14 8q0 4 8 16h32v9t2 15h50q0 10 2 20h48v10t2 14h70v9t2 13h48v11t2 15h42l6 22h28v10t2 14h50v9t2 13h72v10t2 14h50v9 t2 13h18l6 26h52q0 10 2 20h94v10t2 14l14 10q0 2 1 7t3 7h36v10t2 14h42l6 22h52v22h44l6 24h48v9t2 13h48v10t2 16h50q0 10 2 20h44l6 24h50v9t2 13h48v26zM810 1514h-22l2 12h-12l2 12h-12l2 20l32 -32h-4zM626 1130h4l-12 14h20v-14h10l-2 -20zM484 1168h2l-12 12h20 v-12h10v-20zM250 768q2 0 5 -1t7 -1q0 -2 6 -2l2 -12h18v-20l-18 18v-2zM678 1596l22 -22h-24zM590 1156h22v-22zM278 850l20 -22h-22zM718 1584l20 -22h-22zM742 1570l22 -20h-24zM354 826l20 -20h-24zM304 740h24l-2 -20zM302 838l22 -20h-24zM194 790h20v-22zM616 1608 l20 -20h-22zM354 1412h20v-20zM676 826q0 -8 -2 -12h16v12h-14zM494 1498q0 -2 -1 -5t-1 -7h12q0 -2 4 14zM644 802q0 -2 -1 -5t-1 -7h12q0 -2 4 14zM686 1080l-22 20q2 0 6 -1t14 -5zM248 762l-22 22q2 0 5 -1t7 -1q0 -2 4 -2zM508 1500l14 4v8h-10zM662 814q-2 -4 -2 -6 t-2 -4l14 2q0 2 1 3t1 5h-12zM706 1456l-6 14l-2 2h2l4 2zM672 1284q0 -4 -2 -4zM670 1280v-2v2z" />
<glyph unicode="&#xbf;" d="M614 -144l-10 10q-18 0 -37 4t-41 6v26h-18l-10 12q-6 0 -14 2t-18 4l2 28h-20l-10 12q-2 0 -5 1t-5 1l2 30h-20v24h-20l-10 12q-4 0 -12 2l14 78h-18q6 42 14 75t14 71h22q2 14 6 33t8 35h24l8 48l16 8q2 8 6 17t8 21h30v9t2 13l14 10q0 2 1 7t3 7h36v8t2 14h22v10t2 14 h22l6 22h28v10t2 16h20l8 46h28q0 10 2 20l14 12q0 8 4 12h34l10 44h20l8 48h22l36 164l14 10q0 4 4 12h82l10 -12q2 0 5 -1t5 -1q-4 -28 -11 -54t-11 -52l-14 -8q-4 -14 -10 -31t-10 -33h-28l-10 -46h-22v-9t-2 -13l-16 -10q-2 -6 -7 -16t-9 -20h-24l-8 -46h-48l-10 -48 l-16 -10q0 -2 -4 -10h-30v-10t-4 -14l-16 -12q-4 -16 -14 -36h-26l-8 -46l-18 -10q-2 -6 -6 -16l-8 -20l-14 -8l-52 -216h22l-16 -72h26l-4 -46h42l10 -12l240 -10v9t2 13h22l6 24l14 8l12 38h28q6 42 16 93t18 93h28q0 12 2 22h16l6 22h78l-6 -22h22l10 -10q2 0 12 -2 q-10 -38 -14 -68t-10 -64h-28v-9t-2 -15h-20l-10 -44l-16 -10q-2 -6 -6 -17t-8 -21h-28v-10t-2 -14l-18 -10q-2 -8 -5 -16t-7 -18h-50l-6 -24h-48v-9t-2 -13l-14 -10q0 -10 -6 -16h-78q0 -10 -2 -20h-142zM1106 324l18 -26h-26zM902 1104l-10 12q-6 0 -13 2t-17 4v30h-44 l12 44h-26l10 48h-22l6 26l14 8q2 10 5 20t7 20h30l8 46h48v9t2 13h166l10 -12q4 0 12 -2l-2 -34h16q-6 -34 -12 -61t-12 -57h-22v-10t-2 -14l-18 -10q-2 -8 -6 -16t-8 -18h-54v-10t-2 -16h-46v-9t-2 -13h-28z" />
<glyph unicode="&#xc0;" d="M1004 1488h26l10 -12q4 0 12 -2l-2 -32h20l-4 -44h16l-14 -72h24l-12 -46h24l-10 -68h22l-14 -70h22l-12 -68h26l-16 -70h22l-10 -70h22l-14 -68h22l-14 -72h24l-4 -46h16l-4 -44h20l-4 -46h18l-18 -92h26l-12 -48h22l-10 -48h22l-16 -92h24l-4 -44h18l-14 -70h26l-6 -46 h18l-10 -48h26l-12 -44h48v-26h64l10 -12q6 0 15 -2t17 -4q-4 -18 -6 -29t-6 -27h-24v-9t-2 -13h-442l-10 12q-12 0 -27 3t-31 5l6 30h24l6 24h96v9t2 13h70v11t2 15h26l20 108h-26l12 70h-20l16 70h-26l4 46h-18l-10 12q-2 0 -5 1t-5 1l2 32h-318l-10 12l-194 10v-8t-2 -14 h-42l-6 -24h-26q-4 -16 -9 -42t-9 -48l-14 -8q-4 -16 -10 -32t-10 -32h-24l-28 -134h26l10 -10q2 0 5 -1t5 -1l-2 -34h134l10 -12q2 0 5 -1t5 -1q-2 -10 -5 -17t-5 -17l-14 -10q0 -2 -1 -8t-5 -8h-262v-9t-2 -13h-190l-10 12q-6 0 -14 2l-16 4l10 56h28v9t2 13h48v11t2 15 h46q0 10 2 20h22l6 24l16 8q4 16 9 30t9 30h30v10t2 16h20q2 12 6 32t8 38h26q4 14 5 32t5 34l16 10q4 14 10 29t10 31h28l8 48l14 8q2 8 6 19t8 21h30l8 44h18l18 94h28l8 44l14 8l12 38h28l16 72h20l8 44l14 10q4 14 10 29t12 31h24l18 94l14 8q4 14 9 29t11 31h26 q2 12 6 32t8 38l14 8q2 8 6 18l8 20h26l18 92l16 10q4 18 12 39t14 43h48v10t2 14h28v22zM602 586h22l10 -10l378 -10q0 10 2 20h48l20 114h-22l4 44h-24l20 90h-24l14 72h-24l14 68h-20l10 48h-24l14 70h-24l4 42h-18l12 48h-72v-9t-2 -13h-48l-8 -46h-20q-2 -12 -7 -32 t-9 -38l-16 -10q-2 -6 -6 -16t-8 -18h-22l-22 -94l-16 -10q-2 -6 -6 -16l-8 -20h-24q-2 -12 -7 -33t-9 -37l-16 -10q-2 -6 -6 -17t-8 -19l-14 -8zM756 1926l-10 -18l12 -6q0 4 10 14l42 -30l2 -14l156 -116l16 18q22 -12 36 -23t30 -23l-12 -16l30 -20l2 -12l2 -2 q-16 -18 -29 -34t-25 -32l18 -14l-30 -2l12 16l-6 6l-14 -16l16 -12h-30l14 12l-8 8l-16 -18l-272 182l14 16q-6 6 -20 13t-24 15l26 26q-2 0 -4 3t-8 7l34 42l-16 16l30 2l-4 2zM746 1908l-12 6l-14 -18l14 -10zM1066 1748l4 -32q-4 4 -10 6t-10 6zM682 1786l20 -12 l-18 -18z" />
<glyph unicode="&#xc1;" d="M990 1488h26l10 -12q4 0 12 -2l-2 -32h20l-6 -44h18l-14 -72h24l-12 -46h24l-10 -68h22l-14 -70h22l-12 -68h24l-14 -70h22l-12 -70h24l-14 -68h22l-14 -72h24l-4 -46h16l-4 -44h20l-4 -46h18l-18 -92h26l-14 -48h24l-10 -48h22l-16 -92h24l-4 -44h18l-14 -70h24l-4 -46 h18l-12 -48h28l-12 -44h48v-26h64l10 -12q4 0 14 -2t18 -4q-4 -18 -6 -29t-6 -27h-24v-9t-2 -13h-442l-10 12q-12 0 -27 3t-31 5l6 30h24l6 24h96v9t2 13h70v11t2 15h24l22 108h-26l12 70h-20l14 70h-24l4 46h-18l-10 12q-2 0 -5 1t-5 1l2 32h-318l-10 12l-194 10v-8t-2 -14 h-42l-6 -24h-26q-4 -16 -9 -42t-9 -48l-14 -8q-4 -16 -10 -32t-10 -32h-26l-26 -134h24l12 -10q2 0 5 -1t5 -1l-2 -34h134l10 -12q2 0 5 -1t5 -1q-2 -10 -5 -17t-5 -17l-16 -10q0 -2 -1 -8t-3 -8h-262v-9t-2 -13h-190l-10 12q-6 0 -14 2l-16 4l10 56h28v9t2 13h48v11t2 15 h44q0 10 4 20h22l6 24l16 8q4 16 9 30t9 30h30v10t2 16h20q2 12 6 32t8 38h26q4 14 5 32t5 34l16 10q4 14 10 29t10 31h28l8 48l14 8q2 8 6 19t8 21h30l8 44h18l18 94h28l8 44l14 8l12 38h28q2 12 7 34t9 38h20l8 44l14 10q4 14 10 29t10 31h26l18 94l14 8q4 14 9 29t9 31 h28q2 12 6 32t8 38l14 8q2 8 5 18t7 20h28l18 92l16 10q4 18 11 39t15 43h48v10t2 14h28v22zM588 586h20l12 -10l378 -10q0 10 2 20h46l22 114h-24l4 44h-22l18 90h-22l14 72h-24l14 68h-20l10 48h-24l14 70h-24l4 42h-18l12 48h-72v-9t-2 -13h-48l-8 -46h-22q-2 -12 -6 -32 t-8 -38l-16 -10q-2 -6 -6 -16t-8 -18h-22l-22 -94l-16 -10q-2 -6 -6 -16l-8 -20h-24q-4 -12 -8 -33t-8 -37l-16 -10q-2 -6 -6 -17t-8 -19l-14 -8zM1062 1560l-32 20l4 2l-20 8l16 8l-6 14q-6 0 -10 -4l-22 54l14 8q-2 2 -6 14l36 22l-6 12l88 48l-8 20l28 -10l-20 -10 l12 -16l200 108q0 8 -2 18q18 8 31 15t27 15l-2 32l28 -18l-2 -2l22 -6l-20 -10l10 -12q6 0 10 4l14 -40l-12 -6l10 -30l-50 -30q0 -2 3 -7t5 -7l-344 -180v16l-28 -12l8 -14l20 10zM1412 1902l-6 16l-20 -12l2 -16zM1022 1738l8 -20l-18 -8zM986 1680l6 -18l-18 -8z M1462 1862l-10 -24l-6 16z" />
<glyph unicode="&#xc2;" d="M1004 1488h26l10 -12q4 0 12 -2l-2 -32h20l-4 -44h16l-14 -72h24l-12 -46h24l-10 -68h22l-14 -70h22l-12 -68h26l-16 -70h22l-10 -70h22l-14 -68h22l-14 -72h24l-4 -46h16l-4 -44h20l-4 -46h18l-18 -92h26l-12 -48h22l-10 -48h22l-16 -92h24l-4 -44h18l-14 -70h26l-6 -46 h18l-10 -48h26l-12 -44h48v-26h64l10 -12q6 0 15 -2t17 -4q-4 -18 -6 -29t-6 -27h-24v-9t-2 -13h-442l-10 12q-12 0 -27 3t-31 5l6 30h24l6 24h96v9t2 13h70v11t2 15h26l20 108h-26l12 70h-20l16 70h-26l4 46h-18l-10 12q-2 0 -5 1t-5 1l2 32h-318l-10 12l-194 10v-8t-2 -14 h-42l-6 -24h-26q-4 -16 -9 -42t-9 -48l-14 -8q-4 -16 -10 -32t-10 -32h-24l-28 -134h26l10 -10q2 0 5 -1t5 -1l-2 -34h134l10 -12q2 0 5 -1t5 -1q-2 -10 -5 -17t-5 -17l-14 -10q0 -2 -1 -8t-5 -8h-262v-9t-2 -13h-190l-10 12q-6 0 -14 2l-16 4l10 56h28v9t2 13h48v11t2 15 h46q0 10 2 20h22l6 24l16 8q4 16 9 30t9 30h30v10t2 16h20q2 12 6 32t8 38h26q4 14 5 32t5 34l16 10q4 14 10 29t10 31h28l8 48l14 8q2 8 6 19t8 21h30l8 44h18l18 94h28l8 44l14 8l12 38h28l16 72h20l8 44l14 10q4 14 10 29t12 31h24l18 94l14 8q4 14 9 29t11 31h26 q2 12 6 32t8 38l14 8q2 8 6 18l8 20h26l18 92l16 10q4 18 12 39t14 43h48v10t2 14h28v22zM602 586h22l10 -10l378 -10q0 10 2 20h48l20 114h-22l4 44h-24l20 90h-24l14 72h-24l14 68h-20l10 48h-24l14 70h-24l4 42h-18l12 48h-72v-9t-2 -13h-48l-8 -46h-20q-2 -12 -7 -32 t-9 -38l-16 -10q-2 -6 -6 -16t-8 -18h-22l-22 -94l-16 -10q-2 -6 -6 -16l-8 -20h-24q-2 -12 -7 -33t-9 -37l-16 -10q-2 -6 -6 -17t-8 -19l-14 -8zM930 1568h-30l14 14l-8 8l-10 -12l-22 18l2 8l-12 8l32 36l-16 10l176 224l-16 14l32 2l-2 -4l12 2l10 8v10l8 -6l8 6v-2 l30 -18l-28 -14v-8l24 10q22 -60 44 -113t46 -111l-10 -4l10 -36l-24 -12v-4q0 -2 2 -4l-24 -14v10l-16 -8v10l-22 -10l-14 26l16 8l-66 168l-126 -160q0 -2 8 -8l-28 -38l14 -8l-16 -4zM1166 1554l-28 18l24 14l2 -8l14 6l2 -32l-16 8zM1240 1668l-10 -28l-6 18zM1120 1630 l6 -18l-16 -8zM1076 1888l-8 4l-12 -10l10 -6zM1096 1878l-2 10l-12 6l-6 -6zM914 1582l10 -10l6 10l-10 6zM862 1604l12 -8l-2 -8zM1110 1880l-2 10l-4 -2v-10zM1108 1902v8q-2 -2 -2 -6zM1104 1878l-4 -2l4 -2v4zM1100 1876l-4 2v-4z" />
<glyph unicode="&#xc4;" d="M1004 1488h26l10 -12q4 0 12 -2l-2 -32h20l-4 -44h16l-14 -72h24l-12 -46h24l-10 -68h22l-14 -70h22l-12 -68h26l-16 -70h22l-10 -70h22l-14 -68h22l-14 -72h24l-4 -46h16l-4 -44h20l-4 -46h18l-18 -92h26l-12 -48h22l-10 -48h22l-16 -92h24l-4 -44h18l-14 -70h26l-6 -46 h18l-10 -48h26l-12 -44h48v-26h64l10 -12q6 0 15 -2t17 -4q-4 -18 -6 -29t-6 -27h-24v-9t-2 -13h-442l-10 12q-12 0 -27 3t-31 5l6 30h24l6 24h96v9t2 13h70v11t2 15h26l20 108h-26l12 70h-20l16 70h-26l4 46h-18l-10 12q-2 0 -5 1t-5 1l2 32h-318l-10 12l-194 10v-8t-2 -14 h-42l-6 -24h-26q-4 -16 -9 -42t-9 -48l-14 -8q-4 -16 -10 -32t-10 -32h-24l-28 -134h26l10 -10q2 0 5 -1t5 -1l-2 -34h134l10 -12q2 0 5 -1t5 -1q-2 -10 -5 -17t-5 -17l-14 -10q0 -2 -1 -8t-5 -8h-262v-9t-2 -13h-190l-10 12q-6 0 -14 2l-16 4l10 56h28v9t2 13h48v11t2 15 h46q0 10 2 20h22l6 24l16 8q4 16 9 30t9 30h30v10t2 16h20q2 12 6 32t8 38h26q4 14 5 32t5 34l16 10q4 14 10 29t10 31h28l8 48l14 8q2 8 6 19t8 21h30l8 44h18l18 94h28l8 44l14 8l12 38h28l16 72h20l8 44l14 10q4 14 10 29t12 31h24l18 94l14 8q4 14 9 29t11 31h26 q2 12 6 32t8 38l14 8q2 8 6 18l8 20h26l18 92l16 10q4 18 12 39t14 43h48v10t2 14h28v22zM602 586h22l10 -10l378 -10q0 10 2 20h48l20 114h-22l4 44h-24l20 90h-24l14 72h-24l14 68h-20l10 48h-24l14 70h-24l4 42h-18l12 48h-72v-9t-2 -13h-48l-8 -46h-20q-2 -12 -7 -32 t-9 -38l-16 -10q-2 -6 -6 -16t-8 -18h-22l-22 -94l-16 -10q-2 -6 -6 -16l-8 -20h-24q-2 -12 -7 -33t-9 -37l-16 -10q-2 -6 -6 -17t-8 -19l-14 -8zM722 1604l12 48h-22l-10 10q-4 0 -14 2q6 28 13 54t11 52h26v9t2 13h22v11t2 15h56l14 30l8 -10q-2 -10 -2 -20h44v-26h20 l12 -12q2 0 4 -1t4 -1q-4 -28 -12 -54t-12 -52h-20l-10 -46l-16 -10q0 -8 -4 -12h-60l-14 -36l-6 12q2 8 2 14v10h-50zM1256 1750l8 42h48v11t2 15h28l4 40l22 -20h-2q-2 -10 -2 -20h44v-26h22l10 -12q2 0 4 -1t4 -1q-6 -34 -13 -64t-15 -62h-18l-6 -26h-28v-9t-2 -13 l-16 -10q0 -2 -1 -7t-3 -7h-56v24h-44l12 48h-22l12 66h-24l8 32h24z" />
<glyph unicode="&#xc6;" d="M1326 952q-18 -100 -39 -208t-41 -210h-26v26h-22l14 46h-26l4 46h-20l12 48h-22l-10 10q-12 0 -25 3t-29 5v26h-206l-2 -50h16l-4 -44h18l-18 -92h26l-10 -48h22l-12 -48h22l-16 -92h24l-4 -46h18l-14 -70h24l-4 -44h18l-12 -48h28l-12 -44h50v-18h184v11t2 15h94 q0 10 2 20h42l6 24h26l8 48l16 8q4 18 11 41t13 43h26q4 14 5 33t5 35l18 10q0 8 4 12h34l10 -12q2 0 5 -1t5 -1l-10 -52h26l-58 -282l-16 -10q0 -2 -1 -8t-3 -8h-34v-9t-2 -13h-48v-10t-2 -14h-4v24h-298v-8h-442l-10 12q-12 0 -27 3t-31 5q2 10 4 17t4 13h28v10t2 14h94v9 t2 13h70v10t2 16h24l22 108h-26l12 70h-20l14 70h-24l4 46h-16l6 22h-26v24h-318l-10 10l-194 12q0 -12 -2 -22h-46v-10t-2 -14l-16 -8q-4 -20 -12 -41t-14 -41h-24l-14 -72l-16 -8l-34 -126h24l12 -10q2 0 5 -1t5 -1l-2 -34h134l10 -12q2 0 5 -1t5 -1q-2 -10 -4 -18l-4 -16 l-14 -10l-10 -16h-260v-9t-2 -13h-190l-10 12q-6 0 -14 2l-16 4l10 56h28v9t2 13h48v10t2 16h46q0 10 2 20h22l6 24l16 8q4 16 9 30t9 30h30v10t2 14h20q2 14 6 34t8 36h26q2 14 6 33t8 35l14 8q4 16 9 31t9 31h28q2 8 3 22t5 26l16 8l12 40h30l8 44h18l18 92h28l8 46l14 8 q2 8 6 18l8 20h28q4 14 6 34t6 38l14 8q2 8 6 17t8 19h26q4 16 5 35t5 35h26l18 94l14 8q4 14 9 28t11 30h26q2 14 6 34t8 36l14 10q2 8 6 18l8 20h30l16 92l14 8q4 20 12 41t14 43h48v10t2 14h28v22h26l10 -12q4 0 12 -2l12 -14q236 0 478 -5t480 -5l10 -14q4 0 12 -2 l-14 -76h18l-8 -50h-26q-4 -26 -11 -58t-11 -60l-16 -8q-4 -14 -9 -29t-9 -31l-14 -10q0 -6 -6 -12h-58l4 42h-22l24 118h-22l12 48h-50l-10 12q-26 0 -60 4t-62 6l-10 12l-358 12l-188 4l38 -130l-6 -34q8 -40 17 -82t17 -82h-8l-20 -112h24l-10 -70h22l10 -12l282 -10 l8 48h24l8 44l14 10q4 14 10 29t12 31h28v10t2 14h4l10 -12q2 0 4 -2t4 -2l-8 -36h28q0 2 1 4t1 4l18 -26h-50zM304 578h22l10 -10l378 -10q0 10 2 20h46l22 112h-24l6 46h-20l16 90h-22l10 72h-22l14 68h-20l10 48h-24l14 70h-24l4 42h-18l12 48h-72v-9t-2 -13h-48l-8 -46 h-20q-4 -12 -8 -33t-8 -37l-16 -10q-2 -6 -6 -16t-8 -18h-22l-22 -94l-16 -10q-2 -6 -6 -16l-8 -20h-24q-2 -14 -7 -34l-9 -36l-16 -10q-2 -8 -6 -18t-8 -18l-14 -8zM774 412h26l-8 -28zM934 1022l-20 -24l-8 24h28zM1050 138l22 -20h-24z" />
<glyph unicode="&#xc7;" d="M718 -354v-22l-58 -14v14l-40 -10l-6 82q-4 0 -9 -2t-11 -4l-10 268h-4l-10 12q-22 0 -51 4t-51 6v24h-66l-12 12q-6 0 -13 2t-17 4v30h-44l-10 10q-2 0 -4 1t-4 1l2 30h-18l-10 12q-2 0 -5 1t-5 1l2 34h-22v24h-16l12 46h-26l-10 12q-2 0 -5 1t-5 1l2 34h-20l12 66h-24 l14 48h-28l12 68h-20l22 118h-24q14 72 29 141t29 139h22l18 94l16 8q4 14 9 30t9 32h26q2 12 6 32t8 38l16 8l12 36h28q2 8 3 22t5 26l16 10q0 6 6 12h32l8 46h22v10t2 14h28v9t2 13l14 10q0 4 8 16h34q0 10 2 20h22v10t2 14l14 12q0 8 4 12h52l6 24h28q0 10 2 20h50v10 t2 14h70v10t2 14h212v-24h114l10 -14q44 0 94 -4t98 -6l10 -10q2 0 5 -1t5 -1l-14 -56h26l-2 -4l-18 -8l-58 -264h24v-6h-30v-10t-2 -14h-24v-9t-2 -13h-50l-12 12q-2 0 -4 1t-4 1l12 56h-24l22 114h-22l4 46h-20l-10 12q-2 0 -4 1t-4 1l2 34h-22l-10 12q-6 0 -15 2t-17 4 l2 28h-312l-8 -24h-48v-9t-2 -13h-50v-10t-2 -16l-16 -10q0 -8 -4 -12h-34v-9t-2 -13l-16 -10q-2 -6 -6 -17t-8 -21h-26v-9t-4 -13l-16 -10q-2 -6 -6 -17t-8 -19h-24q-2 -12 -6 -32t-8 -38h-20l-20 -92l-16 -8q-8 -46 -23 -100t-25 -100l-14 -8l-28 -102h22l-36 -188h24 l-18 -88h22l-14 -72h22l10 -12q4 0 12 -2l-6 -54h16v-24h22l10 -14q2 0 4 -1t4 -1l-2 -32h42l12 -10q6 0 13 -2t17 -4v-30h44l10 -12l238 -10v9t2 13h48v11t2 15h48q0 10 2 20h24l6 24l14 8q2 10 5 20t7 20h32q0 10 2 20l14 8q4 22 11 44t13 44h26l12 66l14 10q0 4 8 16h30 q0 10 2 20h30l10 -10q6 0 13 -2t17 -4q-12 -68 -26 -133t-26 -131l-18 -10q0 -2 -1 -7t-3 -7h-30v-9t-2 -13l-16 -8l-10 -18h-54v-9t-2 -13l-14 -10q0 -2 -2 -4t-4 -6h-54v-10t-2 -16h-50v-9t-2 -13h-94v-10t-2 -14h-24l8 -148l-8 -2q2 -36 5 -79t5 -79l-22 -4v-20l20 2 l-20 -20v18zM662 -420l-26 22l24 8zM778 -166l-22 -22l-2 20z" />
<glyph unicode="&#xc8;" d="M918 534h-28v26h-20l12 46h-24l4 46h-20l12 48h-24l-10 10q-12 0 -24 3t-28 5v26h-204l-8 -44l-16 -10l-8 -16h-30l-94 -504h24l-12 -44h24v-26h458v11t2 15h96q0 10 2 20h40l6 24h28l8 48l14 8q4 18 11 41t13 43h28q4 14 5 33t5 35l16 10q0 8 4 12h36l10 -12q2 0 5 -1 t5 -1l-10 -52h24q-14 -74 -28 -143t-30 -139l-16 -10q0 -2 -1 -8t-3 -8h-32v-9t-2 -13h-48v-10t-2 -14h-4v24h-968l-12 12q-2 0 -4 1t-4 1l2 34h-20v2h24l8 24h48v9t2 13h72v11t2 15h28q0 10 2 20h18l228 1176h-44l-10 12q-22 0 -49 5t-51 7l-10 12q-4 0 -12 2l2 32h-20 l6 26l18 10l10 14h1044l10 -14q4 0 12 -2l-14 -76h18l-8 -50h-24q-4 -26 -11 -58t-11 -60l-18 -8q-4 -14 -9 -29t-9 -31l-14 -10q0 -8 -4 -12h-60l4 42h-20l22 118h-20l10 48h-50l-10 12q-24 0 -58 4t-62 6l-12 12l-374 12l-6 -24h-24l-58 -300l-16 -8l-28 -104h24l-10 -70 h20l10 -12l282 -10l8 48h24l10 44l14 10q4 14 10 29t10 31h28v10t2 14h6l10 -12q2 0 4 -2t4 -2l-8 -36h26q0 2 1 4t1 4l18 -26h-48l2 18zM776 1914l-14 -14l10 -6l16 18l42 -30l-14 -18l174 -114l16 18l66 -44l-16 -16l32 -22l2 -12l2 -2l-54 -70l14 -6l-24 -6l10 12l-14 8 l-10 -14l16 -8l-26 -10l10 18l-12 6l-8 -14l-272 180l16 16l-46 28l26 26q-2 0 -4 2l-6 6l32 46l-16 14l28 2l-6 6h30zM848 1900l2 -32l-20 14zM1088 1742l4 -32l-20 14zM704 1780l18 -12l-16 -18zM762 1900l-8 8l-14 -16l8 -6z" />
<glyph unicode="&#xc9;" d="M918 534h-28v26h-20l12 46h-24l4 46h-20l12 48h-24l-10 10q-12 0 -24 3t-28 5v26h-204l-8 -44l-16 -10l-8 -16h-30l-94 -504h24l-12 -44h24v-26h458v11t2 15h96q0 10 2 20h40l6 24h28l8 48l14 8q4 18 11 41t13 43h28q4 14 5 33t5 35l16 10q0 8 4 12h36l10 -12q2 0 5 -1 t5 -1l-10 -52h24q-14 -74 -28 -143t-30 -139l-16 -10q0 -2 -1 -8t-3 -8h-32v-9t-2 -13h-48v-10t-2 -14h-4v24h-968l-12 12q-2 0 -4 1t-4 1l2 34h-20v2h24l8 24h48v9t2 13h72v11t2 15h28q0 10 2 20h18l228 1176h-44l-10 12q-22 0 -49 5t-51 7l-10 12q-4 0 -12 2l2 32h-20 l6 26l18 10l10 14h1044l10 -14q4 0 12 -2l-14 -76h18l-8 -50h-24q-4 -26 -11 -58t-11 -60l-18 -8q-4 -14 -9 -29t-9 -31l-14 -10q0 -8 -4 -12h-60l4 42h-20l22 118h-20l10 48h-50l-10 12q-24 0 -58 4t-62 6l-12 12l-374 12l-6 -24h-24l-58 -300l-16 -8l-28 -104h24l-10 -70 h20l10 -12l282 -10l8 48h24l10 44l14 10q4 14 10 29t10 31h28v10t2 14h6l10 -12q2 0 4 -2t4 -2l-8 -36h26q0 2 1 4t1 4l18 -26h-48l2 18zM786 1560l-32 20l4 2l-20 8l16 8l-6 14q-6 0 -10 -4l-22 54l14 8q-2 2 -6 14l36 22l-6 12l90 48l-10 20l28 -10l-18 -10l10 -16 l200 108q0 8 -2 18q18 8 31 15t27 15l-2 32l30 -18l-2 -2l20 -6l-18 -10l8 -12q6 0 10 4l14 -40l-12 -6l10 -30l-50 -30q0 -2 3 -7t5 -7l-344 -180v16l-28 -12l8 -14l20 10zM1138 1902l-8 16l-20 -12l2 -16zM746 1738l8 -20l-18 -8zM710 1680l6 -18l-16 -8zM1186 1862 l-10 -24l-6 16z" />
<glyph unicode="&#xca;" d="M918 534h-28v26h-20l12 46h-24l4 46h-20l12 48h-24l-10 10q-12 0 -24 3t-28 5v26h-204l-8 -44l-16 -10l-8 -16h-30l-94 -504h24l-12 -44h24v-26h458v11t2 15h96q0 10 2 20h40l6 24h28l8 48l14 8q4 18 11 41t13 43h28q4 14 5 33t5 35l16 10q0 8 4 12h36l10 -12q2 0 5 -1 t5 -1l-10 -52h24q-14 -74 -28 -143t-30 -139l-16 -10q0 -2 -1 -8t-3 -8h-32v-9t-2 -13h-48v-10t-2 -14h-4v24h-968l-12 12q-2 0 -4 1t-4 1l2 34h-20v2h24l8 24h48v9t2 13h72v11t2 15h28q0 10 2 20h18l228 1176h-44l-10 12q-22 0 -49 5t-51 7l-10 12q-4 0 -12 2l2 32h-20 l6 26l18 10l10 14h1044l10 -14q4 0 12 -2l-14 -76h18l-8 -50h-24q-4 -26 -11 -58t-11 -60l-18 -8q-4 -14 -9 -29t-9 -31l-14 -10q0 -8 -4 -12h-60l4 42h-20l22 118h-20l10 48h-50l-10 12q-24 0 -58 4t-62 6l-12 12l-374 12l-6 -24h-24l-58 -300l-16 -8l-28 -104h24l-10 -70 h20l10 -12l282 -10l8 48h24l10 44l14 10q4 14 10 29t10 31h28v10t2 14h6l10 -12q2 0 4 -2t4 -2l-8 -36h26q0 2 1 4t1 4l18 -26h-48l2 18zM832 1586l-28 28v-22l-12 8l2 8l-10 8l22 32q-2 0 -3 3t-5 7l180 230l-14 8l14 4l-2 2h20l-2 2h18v14l16 -12v10l28 -18l-26 -14v-8 l22 10l90 -222l-14 -6l14 -36l-24 -12v-4q0 -2 2 -4l-22 -14l2 -32l-16 8l2 -6l-36 14l28 26l-20 -8l-12 26l12 8l-64 168l-126 -160q0 -2 8 -8l-26 -34l18 -16l-20 -2h-28zM1082 1600l2 -20l14 8l-2 26l-18 -16zM1160 1672l-10 -28l-8 20zM1038 1634l8 -18l-18 -8z M1030 1884l-2 10l-12 -4l-4 2l2 -14zM1002 1882l10 10l-10 6l-8 -10zM832 1586l10 -6l8 10l-6 6zM982 1896l-4 -8l12 -4l4 4zM780 1608q8 -4 12 -8l-2 -8z" />
<glyph unicode="&#xcb;" d="M918 534h-28v26h-20l12 46h-24l4 46h-20l12 48h-24l-10 10q-12 0 -24 3t-28 5v26h-204l-8 -44l-16 -10l-8 -16h-30l-94 -504h24l-12 -44h24v-26h458v11t2 15h96q0 10 2 20h40l6 24h28l8 48l14 8q4 18 11 41t13 43h28q4 14 5 33t5 35l16 10q0 8 4 12h36l10 -12q2 0 5 -1 t5 -1l-10 -52h24q-14 -74 -28 -143t-30 -139l-16 -10q0 -2 -1 -8t-3 -8h-32v-9t-2 -13h-48v-10t-2 -14h-4v24h-968l-12 12q-2 0 -4 1t-4 1l2 34h-20v2h24l8 24h48v9t2 13h72v11t2 15h28q0 10 2 20h18l228 1176h-44l-10 12q-22 0 -49 5t-51 7l-10 12q-4 0 -12 2l2 32h-20 l6 26l18 10l10 14h1044l10 -14q4 0 12 -2l-14 -76h18l-8 -50h-24q-4 -26 -11 -58t-11 -60l-18 -8q-4 -14 -9 -29t-9 -31l-14 -10q0 -8 -4 -12h-60l4 42h-20l22 118h-20l10 48h-50l-10 12q-24 0 -58 4t-62 6l-12 12l-374 12l-6 -24h-24l-58 -300l-16 -8l-28 -104h24l-10 -70 h20l10 -12l282 -10l8 48h24l10 44l14 10q4 14 10 29t10 31h28v10t2 14h6l10 -12q2 0 4 -2t4 -2l-8 -36h26q0 2 1 4t1 4l18 -26h-48l2 18zM628 1614l12 48h-24l-10 10q-4 0 -12 2q4 28 11 54t11 52h28v9t2 15h22v10t2 14h56l14 30l6 -10q-2 -10 -2 -20h46v-24h20l10 -14 q2 0 4 -1t4 -1q-4 -28 -11 -54t-11 -52h-20l-10 -46l-18 -10q0 -8 -4 -12h-58l-16 -34l-6 10q2 8 2 14v10h-48zM1162 1760l8 44h48v10t2 14h28l4 40l20 -20h-2q-2 -10 -2 -20h46v-24h20l10 -14q2 0 4 -1t4 -1q-6 -34 -13 -64t-13 -62h-18l-6 -26h-30v-9t-2 -13l-14 -10 q0 -2 -1 -7t-3 -7h-58v24h-42l12 48h-22l12 68h-26l10 30h24z" />
<glyph unicode="&#xcc;" d="M1120 1442h136l10 -14q4 0 12 -2l-2 -14l26 -6l-10 -8h-16v14l-4 2q-4 -14 -5 -32t-5 -36h-118l-6 -24h-212v-9t-2 -13h-20l-72 -372l-16 -8l-28 -102h26l-132 -672h20l10 -10q6 0 16 -2t18 -4v-30h320l10 -12q2 0 4 -1t4 -1l-2 -32h22q-2 -10 -4 -17t-2 -11h-50v-9 t-2 -13h-814l-10 12q-2 0 -4 1t-6 1l4 34h-20l6 26l18 10q0 8 4 12h54v11t2 15h72v-26h112v11t2 15h48l10 44l14 8q46 230 94 459t92 457h24l26 136h-24l10 70h-20l-10 12q-40 0 -84 4t-86 6l-10 12q-38 0 -73 5t-75 7l-10 12q-4 0 -12 2q2 10 5 20t5 18h24l8 44h678l14 34 l6 -10v-24zM626 1916l-10 -18l12 -6q0 2 8 14l44 -30l2 -16l156 -114l16 18q22 -12 36 -23t30 -25l-12 -14l28 -20l2 -12l2 -2q-14 -20 -27 -35t-25 -31l18 -14l-30 -2l12 16l-6 6l-16 -16l10 -6l8 -6h-30l12 12l-8 8l-14 -18l-274 182l16 16l-44 28l24 26q-2 0 -4 3t-6 7 l34 42l-18 16l32 2l-4 2zM616 1898l-12 6l-14 -18l14 -10zM934 1738l4 -32q-4 4 -9 5t-9 5zM552 1776l18 -12l-16 -18z" />
<glyph unicode="&#xcd;" d="M1114 1442h136l10 -14q4 0 12 -2l-2 -14l26 -6l-10 -8h-16v14l-4 2q-4 -14 -5 -32t-5 -36h-118l-6 -24h-212v-9t-2 -13h-20l-72 -372l-16 -8l-28 -102h26l-132 -672h20l10 -10q6 0 16 -2t18 -4v-30h320l10 -12q2 0 4 -1t4 -1l-2 -32h22q-2 -10 -5 -17t-3 -11h-48v-9 t-2 -13h-814l-10 12q-2 0 -5 1t-5 1l2 34h-18l6 26l18 10q0 8 4 12h54v11t2 15h72v-26h112v11t2 15h48l10 44l14 8q46 230 94 459t92 457h24l26 136h-24l10 70h-20l-12 12q-38 0 -82 4t-86 6l-10 12q-38 0 -73 5t-75 7l-10 12q-4 0 -12 2q2 10 5 20t5 18h24l8 44h678l14 34 l6 -10v-24zM908 1560l-30 20l4 2l-22 8l18 8l-8 14q-6 0 -10 -4l-22 54l14 8q-2 2 -6 14l38 22l-6 12l88 48l-8 20l26 -10l-18 -10l10 -16l202 108q0 8 -2 18q16 8 29 15t27 15l-2 32l30 -18l-2 -2l20 -6l-18 -10l8 -12q6 0 10 4l14 -40l-12 -6l10 -30l-48 -30q0 -2 3 -7 t5 -7l-346 -180v16l-26 -12l8 -14l18 10zM1260 1902l-6 16l-22 -12l2 -16zM868 1738l10 -20l-20 -8zM832 1680l6 -18l-16 -8zM1308 1862l-10 -24l-6 16z" />
<glyph unicode="&#xce;" d="M1120 1442h136l10 -14q4 0 12 -2l-2 -14l26 -6l-10 -8h-16v14l-4 2q-4 -14 -5 -32t-5 -36h-118l-6 -24h-212v-9t-2 -13h-20l-72 -372l-16 -8l-28 -102h26l-132 -672h20l10 -10q6 0 16 -2t18 -4v-30h320l10 -12q2 0 4 -1t4 -1l-2 -32h22q-2 -10 -4 -17t-2 -11h-50v-9 t-2 -13h-814l-10 12q-2 0 -4 1t-6 1l4 34h-20l6 26l18 10q0 8 4 12h54v11t2 15h72v-26h112v11t2 15h48l10 44l14 8q46 230 94 459t92 457h24l26 136h-24l10 70h-20l-10 12q-40 0 -84 4t-86 6l-10 12q-38 0 -73 5t-75 7l-10 12q-4 0 -12 2q2 10 5 20t5 18h24l8 44h678l14 34 l6 -10v-24zM778 1586h-26l12 12l-6 8l-10 -12q-16 8 -18 10l10 10l-12 6t-14 8l24 34l-8 8l178 228l-16 14h16v2h18l-2 2h18v14l18 -12v10l28 -18l-26 -14v-8l22 10q22 -60 44 -112t44 -110l-12 -6l12 -38l-20 -10v-6l-22 -12v6l-18 -8v10l-22 -10l-12 26l12 8l-66 170 l-126 -162q0 -4 10 -8l-28 -34l18 -14zM1016 1570l-28 20l24 12l2 -6l16 8l2 -36l-18 10zM710 1620l20 -16l-16 -14zM962 1896l-2 10l-14 -4l-4 2l2 -14zM1090 1684l-10 -26l-8 18zM970 1646l8 -18l-18 -8zM932 1894l10 10l-10 6l-8 -10zM764 1598l8 -6l8 10l-6 6zM916 1906 l-8 -8l8 -6l8 8z" />
<glyph unicode="&#xcf;" d="M1120 1442h136l10 -14q4 0 12 -2l-2 -14l26 -6l-10 -8h-16v14l-4 2q-4 -14 -5 -32t-5 -36h-118l-6 -24h-212v-9t-2 -13h-20l-72 -372l-16 -8l-28 -102h26l-132 -672h20l10 -10q6 0 16 -2t18 -4v-30h320l10 -12q2 0 4 -1t4 -1l-2 -32h22q-2 -10 -4 -17t-2 -11h-50v-9 t-2 -13h-814l-10 12q-2 0 -4 1t-6 1l4 34h-20l6 26l18 10q0 8 4 12h54v11t2 15h72v-26h112v11t2 15h48l10 44l14 8q46 230 94 459t92 457h24l26 136h-24l10 70h-20l-10 12q-40 0 -84 4t-86 6l-10 12q-38 0 -73 5t-75 7l-10 12q-4 0 -12 2q2 10 5 20t5 18h24l8 44h678l14 34 l6 -10v-24zM596 1778v9t2 15h22v10t2 14h56l14 30l6 -10q-2 -10 -2 -20h46v-24h20l10 -14q2 0 4 -1t4 -1q-4 -28 -11 -54t-13 -52h-20l-8 -46l-18 -10q0 -8 -4 -12h-60l-14 -34l-6 10q2 8 2 14v10h-50l12 48h-24l-10 10q-4 0 -12 2q4 28 11 54t13 52h28zM1114 1758l8 44h48 v10t2 14h28l4 40l20 -20h-2q-2 -10 -2 -20h46v-24h20l10 -14q2 0 4 -1t4 -1q-6 -34 -14 -64t-14 -62h-22v-11t-2 -15l-18 -10q0 -8 -4 -12h-32v-10t-2 -14h-50v24h-42l10 48h-24l16 68h-26l8 30h26z" />
<glyph unicode="&#xd0;" d="M384 1442h122l10 -14l286 -10v10t2 14h2l10 -14q52 0 108 -4t108 -6l10 -10q12 0 25 -3t29 -5l10 -14q6 0 14 -2t20 -6v-28h40v-24h44l10 -10q2 0 4 -1t4 -1l-2 -34h16l10 -12q4 0 12 -2l-2 -32h20l10 -12q4 0 12 -2l-2 -32h16l10 -12q4 0 12 -2l-14 -56h26v-24h20 l-4 -44h16l-14 -70h22l-16 -94h22l-22 -112h24q-8 -46 -16 -85t-16 -83l-16 -8q-6 -30 -17 -64t-19 -68l-14 -8q-2 -12 -9 -28t-11 -32h-28l-14 -72h-20l-8 -46l-16 -10l-16 -36h-26v-9t-2 -13l-16 -8l-8 -16h-30q0 -12 -2 -22l-16 -10q-2 -6 -6 -16l-8 -20h-48l-6 -26 l-14 -10q0 -8 -4 -12h-34q0 -10 -2 -20h-48v-10t-2 -16l-18 -10q0 -8 -4 -12h-148v-10t-2 -14h-624v24h-22l-10 12q-2 0 -5 1t-5 1q2 10 4 19t4 17h46l6 24h72v9t2 13h48v11t2 15h22l98 500h-166l-10 12q-4 0 -12 2l2 30h-18q4 28 10 51t10 47l14 12q0 2 4 10h78v10t2 14 h122l36 190l18 8l36 148h-22v6h26l14 86h-22l10 48h-26l-10 12q-14 0 -25 3t-27 5l-10 14q-18 0 -39 3t-39 7l-10 14q-6 0 -14 2q2 10 5 20t7 18h26q0 10 2 20l14 10zM1198 634l16 8l32 124h-22l30 162h-24l14 72h-20l12 68h-20l-12 12q-4 0 -6 1l-6 3l10 50h-22v26h-20 l12 46h-48l-10 14q-2 0 -5 1t-5 1l2 30h-20l-10 12q-2 0 -4 1t-4 1l2 34h-90l-10 12l-262 10v-9t-2 -13l-16 -10q0 -2 -1 -8t-3 -8h-30l-94 -484h296v10t2 14h138v-24h20l10 -10q2 0 5 -1t5 -1q-4 -24 -9 -43t-9 -41l-14 -10q-2 -6 -6 -16l-8 -20h-98v-9t-2 -13h-362 l-14 -66l-14 -8l-28 -106h22l-64 -320h24v-26h64l10 -12l172 -10v9t2 13h70v11t2 15h74q0 10 2 20h42l6 24h50l8 48h22q0 10 2 20h28v10t2 16l14 8q2 8 6 18l8 20h30l8 48l14 8q2 12 9 29t11 31l14 8q4 14 10 29t10 31h26z" />
<glyph unicode="&#xd1;" d="M632 1798h192v-26h366v10t2 16h138v-26h20l10 -12q2 0 5 -1t5 -1q-4 -22 -9 -42t-9 -40l-14 -10q-2 -6 -7 -17t-9 -19h-92l-6 -24h-670l-10 12q-2 0 -6 1t-6 1l2 32h-20q4 28 11 50t11 48l14 10q0 8 4 12h78v26zM304 1466h98v-24h204l10 -14q4 0 12 -2l-14 -52h22 l-10 -48h26l-12 -46h24l12 -12q2 0 10 -2l-14 -78h22l-12 -46h24l10 -14q4 0 12 -2l-6 -52h16l-12 -48h28l-4 -46h18l-10 -46h24l-6 -24h24v-24h22l-4 -46h16l-12 -46h26l-4 -46h18l10 -12q4 0 12 -2l-6 -56h18l10 -10q4 0 12 -2l-14 -56h24l-4 -44h16v-26h18l-6 -22h26 l-10 -48h48v-24h62l120 622h-26l38 184h-22l10 48h-28l-10 12q-16 0 -35 3t-39 5l-10 14q-12 0 -30 6v28h-44l10 50l16 10q0 10 4 14h452l10 -14q2 0 5 -1t5 -1q-4 -20 -7 -31t-7 -27l-16 -10q0 -4 -4 -12h-52l-6 -24h-48l-10 -55t-10 -61l-14 -8l-30 -104h22q-4 -22 -8 -38 t-8 -34l-14 -8l-104 -496h22q-26 -130 -49 -246t-47 -246l-16 -10q0 -8 -4 -12h-54v-10t-2 -14h-30v24h-16l-10 12q-4 0 -12 2l2 34h-20l4 42h-20l12 48h-24l4 46h-20l12 46h-22l4 46h-20l12 46h-28l14 72h-20l-10 12q-4 0 -12 2l14 76h-20v24h-22l12 48h-22l6 22h-26l4 46 h-18l10 46h-26l12 46h-26v24h-20l4 46h-16l4 44h-20l12 48h-24v24h-18l4 46h-20l12 48h-24l4 44h-20l-10 12q-2 0 -4 1t-6 1l14 56h-48l-10 10l-54 10l-8 -42l-14 -8l-136 -658h22l-40 -208h24l-10 -48h22l10 -12q14 0 28 -3t28 -7l10 -12q16 0 37 -3t39 -5v-28h22l10 -12 q2 0 4 -1t4 -1q-4 -20 -7 -31t-7 -29h-138v-9t-2 -13h-328l-10 12q-6 0 -15 2t-19 4l12 50h-2l2 6h28v9t2 13l14 12q0 2 1 7t5 7h34q0 10 2 20h18l6 24h48l222 1152h-20l-10 12q-24 0 -50 5t-54 7l-10 12q-2 0 -5 1t-5 1q4 22 9 41t9 41l14 10zM-2 64l10 8h24l-4 -18z M968 568l18 -28h-28zM774 560h26l-8 -28zM790 960l18 -26h-26z" />
<glyph unicode="&#xd2;" d="M856 1514h30v-26h136l10 -12q20 0 39 -4t39 -6v-24h40l10 -14q4 0 12 -2l-2 -28h16l10 -12q14 0 32 -6v-30h20l-4 -44h16l10 -12q4 0 7 -1t7 -3l-2 -32h16v-24h20l-4 -46h18l-14 -70h24l-4 -44h16l-18 -94h26l-24 -114h24q-10 -64 -24 -120t-24 -118l-14 -10 q-4 -24 -14 -52t-18 -54l-16 -8q-4 -26 -14 -52t-16 -54h-20l-10 -46l-16 -10q-2 -6 -6 -17t-8 -21h-26l-8 -44l-18 -12q-2 -6 -6 -16l-8 -20l-14 -8l-8 -16h-56q0 -12 -2 -22l-16 -10q0 -2 -1 -7t-3 -7h-32v-9t-2 -13l-16 -8l-8 -18h-30v-9t-4 -13h-48q0 -10 -2 -20h-48 v-10t-2 -16h-142v-9t-2 -13h-164l-10 12q-20 0 -39 4t-39 6v26h-42l-10 10q-6 0 -15 2t-17 4v26h-42l-10 12q-2 0 -4 1t-4 1l2 34h-22l6 46h-18l-10 12q-2 0 -4 1t-4 1l2 32h-20l4 46h-18v24h-22l16 70h-22l12 68h-24l18 92h-22q18 96 36 177t34 175l14 8q8 38 21 78t21 78 h24l8 44h20q2 12 7 34t9 38h26v9t2 13l14 8q4 16 9 31t9 31h30v9t2 13h18l6 26l16 8l14 36h50v10t2 14h24l6 24h50q0 10 2 20l16 10q0 10 4 14h56v10t2 14h94v9t2 13h70v26zM1124 634h28l46 248h-24l28 140h-22l18 92h-24l-10 10q-2 0 -5 1t-5 1l10 56h-24l12 48h-24l4 44 h-18v26h-42l-10 12q-8 0 -16 2l-16 4l2 28h-42l-12 12q-12 0 -25 3t-29 5v26h-136v-10t-2 -14h-70v-8t-2 -14h-66l-6 -24h-30v-9t-2 -13h-22v-10t-2 -16l-16 -10q-2 -6 -6 -16t-8 -18h-26l-10 -48l-16 -10q-2 -6 -6 -17t-8 -21h-26q-2 -12 -6 -31t-8 -35l-16 -12 q-4 -18 -11 -39t-11 -43l-14 -8l-98 -448h22l-16 -92h24l-16 -68h24l-10 -48h26l-12 -46h24v-26h20l12 -10q2 0 4 -1t4 -1l-2 -32h20l10 -14q6 0 15 -2t19 -4l-4 -28h42l10 -10q12 0 25 -3t29 -5v-28h110v11t2 15h96q0 10 2 20h42l6 24h52v9t2 15h28v10t2 14h20l8 46l14 10 q0 8 4 12h34l8 48l16 8l12 36h28l18 92l14 10zM644 1932l-14 -22l6 -4l16 18l44 -30l-16 -16l176 -116l14 18l66 -44l-16 -18l30 -20l-8 -8l10 -10l-50 -66l16 -6l-26 -6l10 12l-14 8l-8 -12l12 -8l8 -6l-32 -6l12 20l-4 6l-16 -18l-274 182l16 18l-44 26l24 26q-2 0 -4 2 l-6 6l36 48l-14 8l24 6l-8 6zM968 1718l4 -32l-22 12zM952 1754l4 -30l-20 12zM568 1792l18 -12l-16 -18zM712 1912l2 -30l-18 12zM630 1910l-10 8l-12 -12l16 -6z" />
<glyph unicode="&#xd3;" d="M856 1514h30v-26h136l10 -12q20 0 39 -4t39 -6v-24h40l10 -14q4 0 12 -2l-2 -28h16l10 -12q14 0 32 -6v-30h20l-4 -44h16l10 -12q4 0 7 -1t7 -3l-2 -32h16v-24h20l-4 -46h18l-14 -70h24l-4 -44h16l-18 -94h26l-24 -114h24q-10 -64 -24 -120t-24 -118l-14 -10 q-4 -24 -14 -52t-18 -54l-16 -8q-4 -26 -14 -52t-16 -54h-20l-10 -46l-16 -10q-2 -6 -6 -17t-8 -21h-26l-8 -44l-18 -12q-2 -6 -6 -16l-8 -20l-14 -8l-8 -16h-56q0 -12 -2 -22l-16 -10q0 -2 -1 -7t-3 -7h-32v-9t-2 -13l-16 -8l-8 -18h-30v-9t-4 -13h-48q0 -10 -2 -20h-48 v-10t-2 -16h-142v-9t-2 -13h-164l-10 12q-20 0 -39 4t-39 6v26h-42l-10 10q-6 0 -15 2t-17 4v26h-42l-10 12q-2 0 -4 1t-4 1l2 34h-22l6 46h-18l-10 12q-2 0 -4 1t-4 1l2 32h-20l4 46h-18v24h-22l16 70h-22l12 68h-24l18 92h-22q18 96 36 177t34 175l14 8q8 38 21 78t21 78 h24l8 44h20q2 12 7 34t9 38h26v9t2 13l14 8q4 16 9 31t9 31h30v9t2 13h18l6 26l16 8l14 36h50v10t2 14h24l6 24h50q0 10 2 20l16 10q0 10 4 14h56v10t2 14h94v9t2 13h70v26zM1124 634h28l46 248h-24l28 140h-22l18 92h-24l-10 10q-2 0 -5 1t-5 1l10 56h-24l12 48h-24l4 44 h-18v26h-42l-10 12q-8 0 -16 2l-16 4l2 28h-42l-12 12q-12 0 -25 3t-29 5v26h-136v-10t-2 -14h-70v-8t-2 -14h-66l-6 -24h-30v-9t-2 -13h-22v-10t-2 -16l-16 -10q-2 -6 -6 -16t-8 -18h-26l-10 -48l-16 -10q-2 -6 -6 -17t-8 -21h-26q-2 -12 -6 -31t-8 -35l-16 -12 q-4 -18 -11 -39t-11 -43l-14 -8l-98 -448h22l-16 -92h24l-16 -68h24l-10 -48h26l-12 -46h24v-26h20l12 -10q2 0 4 -1t4 -1l-2 -32h20l10 -14q6 0 15 -2t19 -4l-4 -28h42l10 -10q12 0 25 -3t29 -5v-28h110v11t2 15h96q0 10 2 20h42l6 24h52v9t2 15h28v10t2 14h20l8 46l14 10 q0 8 4 12h34l8 48l16 8l12 36h28l18 92l14 10zM952 1570l-30 20l4 2l-22 8l18 8l-6 14q-4 0 -12 -4l-22 54l14 8q-2 2 -6 14l38 22l-6 14l88 46l-8 22l26 -12l-18 -10l10 -16l202 108q0 10 -2 18q16 8 29 15t29 15l-2 34l28 -20l-2 -2l20 -6l-18 -10l8 -12q6 0 10 4l14 -40 l-12 -6l10 -30l-48 -28q0 -2 3 -8t5 -8l-346 -180v16l-26 -12l8 -14l18 10zM1304 1912l-6 16l-20 -12l2 -16zM914 1748l8 -18l-20 -10zM1354 1874l-12 -26l-6 16zM876 1690l6 -18l-16 -8z" />
<glyph unicode="&#xd4;" d="M856 1514h30v-26h136l10 -12q20 0 39 -4t39 -6v-24h40l10 -14q4 0 12 -2l-2 -28h16l10 -12q14 0 32 -6v-30h20l-4 -44h16l10 -12q4 0 7 -1t7 -3l-2 -32h16v-24h20l-4 -46h18l-14 -70h24l-4 -44h16l-18 -94h26l-24 -114h24q-10 -64 -24 -120t-24 -118l-14 -10 q-4 -24 -14 -52t-18 -54l-16 -8q-4 -26 -14 -52t-16 -54h-20l-10 -46l-16 -10q-2 -6 -6 -17t-8 -21h-26l-8 -44l-18 -12q-2 -6 -6 -16l-8 -20l-14 -8l-8 -16h-56q0 -12 -2 -22l-16 -10q0 -2 -1 -7t-3 -7h-32v-9t-2 -13l-16 -8l-8 -18h-30v-9t-4 -13h-48q0 -10 -2 -20h-48 v-10t-2 -16h-142v-9t-2 -13h-164l-10 12q-20 0 -39 4t-39 6v26h-42l-10 10q-6 0 -15 2t-17 4v26h-42l-10 12q-2 0 -4 1t-4 1l2 34h-22l6 46h-18l-10 12q-2 0 -4 1t-4 1l2 32h-20l4 46h-18v24h-22l16 70h-22l12 68h-24l18 92h-22q18 96 36 177t34 175l14 8q8 38 21 78t21 78 h24l8 44h20q2 12 7 34t9 38h26v9t2 13l14 8q4 16 9 31t9 31h30v9t2 13h18l6 26l16 8l14 36h50v10t2 14h24l6 24h50q0 10 2 20l16 10q0 10 4 14h56v10t2 14h94v9t2 13h70v26zM1124 634h28l46 248h-24l28 140h-22l18 92h-24l-10 10q-2 0 -5 1t-5 1l10 56h-24l12 48h-24l4 44 h-18v26h-42l-10 12q-8 0 -16 2l-16 4l2 28h-42l-12 12q-12 0 -25 3t-29 5v26h-136v-10t-2 -14h-70v-8t-2 -14h-66l-6 -24h-30v-9t-2 -13h-22v-10t-2 -16l-16 -10q-2 -6 -6 -16t-8 -18h-26l-10 -48l-16 -10q-2 -6 -6 -17t-8 -21h-26q-2 -12 -6 -31t-8 -35l-16 -12 q-4 -18 -11 -39t-11 -43l-14 -8l-98 -448h22l-16 -92h24l-16 -68h24l-10 -48h26l-12 -46h24v-26h20l12 -10q2 0 4 -1t4 -1l-2 -32h20l10 -14q6 0 15 -2t19 -4l-4 -28h42l10 -10q12 0 25 -3t29 -5v-28h110v11t2 15h96q0 10 2 20h42l6 24h52v9t2 15h28v10t2 14h20l8 46l14 10 q0 8 4 12h34l8 48l16 8l12 36h28l18 92l14 10zM794 1580h-28l12 12l-6 8l-10 -12q-16 6 -20 10l10 10q-4 2 -11 6t-13 8l34 38l-18 8l178 224l-18 14l32 2l-2 -4l12 2l10 8v10l8 -6l8 6v-2l30 -18l-28 -14v-8l24 10q22 -60 45 -113t45 -111l-10 -4l10 -36l-22 -12v-6 l-24 -12v6l-16 -8v10l-22 -10l-12 26l14 8l-66 170l-126 -162q0 -2 8 -8l-28 -38l14 -6l-16 -4zM1030 1564l-28 20l24 12l2 -6q4 2 7 4t7 4l2 -36l-16 8zM724 1614l18 -16l-14 -14zM986 1640l6 -18l-18 -8zM1104 1678l-10 -26l-6 16zM960 1888l-2 10l-12 6l-6 -6zM940 1898 l-8 4l-10 -10l8 -6zM778 1592l10 -8l6 8l-10 6zM974 1890l-2 10l-4 -2v-10zM972 1912v8q-2 -2 -2 -6zM968 1888l-4 -2l4 -2v4zM964 1886l-4 2v-4z" />
<glyph unicode="&#xd5;" d="M850 1514h30v-26h136l10 -12q20 0 39 -4t39 -6v-24h40l10 -14q4 0 12 -2l-2 -28h16l10 -12q14 0 32 -6v-30h20l-4 -44h16l10 -12q2 0 14 -4l-2 -32h16v-24h20l-4 -46h18l-14 -70h24l-4 -44h16l-18 -94h26l-24 -114h24q-12 -64 -25 -120t-23 -118l-14 -10q-4 -24 -14 -52 t-18 -54l-16 -8q-4 -26 -14 -52t-16 -54h-22l-8 -46l-16 -10q-2 -6 -6 -17t-8 -21h-26l-10 -44l-16 -12q-2 -6 -6 -16l-8 -20l-14 -8l-8 -16h-56q0 -12 -2 -22l-16 -10q0 -2 -1 -7t-3 -7h-32v-9t-2 -13l-16 -8l-8 -18h-32v-9t-2 -13h-48q0 -10 -2 -20h-48v-10t-2 -16h-142 v-9t-2 -13h-164l-10 12q-20 0 -39 4t-39 6v26h-42l-10 10q-6 0 -15 2t-19 4v26h-40l-10 12q-2 0 -4 1t-4 1l2 34h-22l4 46h-16l-10 12q-2 0 -4 1t-4 1l2 32h-20l4 46h-18v24h-22l14 70h-20l12 68h-24l18 92h-22q18 96 36 177t34 175l14 8q8 38 21 78t21 78h24l8 44h20 q2 12 7 34t9 38h26v9t2 13l14 8q4 16 9 31t9 31h30v9t2 13h18l6 26l16 8l14 36h50v10t2 14h24l6 24h50q0 10 2 20l16 10q0 10 4 14h54v10t2 14h96v9t2 13h70v26zM1118 634h28l46 248h-24l26 140h-20l18 92h-24l-10 10q-2 0 -5 1t-5 1l10 56h-24l12 48h-26l6 44h-18v26h-42 l-10 12q-8 0 -16 2l-16 4l2 28h-42l-12 12q-12 0 -25 3t-29 5v26h-136v-10t-2 -14h-70v-8t-2 -14h-66l-6 -24h-30v-9t-2 -13h-22v-10t-2 -16l-16 -10q-2 -6 -6 -16t-8 -18h-26l-10 -48l-16 -10q-2 -6 -6 -17t-8 -21h-26q-2 -12 -6 -31t-8 -35l-16 -12q-4 -18 -11 -39 t-11 -43l-14 -8l-98 -448h20l-14 -92h24l-16 -68h24l-10 -48h26l-12 -46h24v-26h20l12 -10q2 0 4 -1t4 -1l-2 -32h20l10 -14q6 0 15 -2t17 -4l-2 -28h42l10 -10q12 0 25 -3t29 -5v-28h110v11t2 15h96q0 10 2 20h42l6 24h52v9t2 15h26v10t4 14h20l8 46l14 10q0 8 4 12h34 l8 48l16 8l12 36h26l20 92l14 10zM628 1784h190v-24h366v10t2 14h138v-24h22l10 -12q2 0 5 -1t5 -1q-4 -24 -9 -43t-9 -39l-16 -10q-2 -10 -6 -18t-8 -18h-98v-10t-2 -14h-670v24h-22l-10 10q-2 0 -5 1t-5 1q4 30 11 55t13 53l16 10q0 8 4 12h78v24z" />
<glyph unicode="&#xd6;" d="M856 1514h30v-26h136l10 -12q20 0 39 -4t39 -6v-24h40l10 -14q4 0 12 -2l-2 -28h16l10 -12q14 0 32 -6v-30h20l-4 -44h16l10 -12q4 0 7 -1t7 -3l-2 -32h16v-24h20l-4 -46h18l-14 -70h24l-4 -44h16l-18 -94h26l-24 -114h24q-10 -64 -24 -120t-24 -118l-14 -10 q-4 -24 -14 -52t-18 -54l-16 -8q-4 -26 -14 -52t-16 -54h-20l-10 -46l-16 -10q-2 -6 -6 -17t-8 -21h-26l-8 -44l-18 -12q-2 -6 -6 -16l-8 -20l-14 -8l-8 -16h-56q0 -12 -2 -22l-16 -10q0 -2 -1 -7t-3 -7h-32v-9t-2 -13l-16 -8l-8 -18h-30v-9t-4 -13h-48q0 -10 -2 -20h-48 v-10t-2 -16h-142v-9t-2 -13h-164l-10 12q-20 0 -39 4t-39 6v26h-42l-10 10q-6 0 -15 2t-17 4v26h-42l-10 12q-2 0 -4 1t-4 1l2 34h-22l6 46h-18l-10 12q-2 0 -4 1t-4 1l2 32h-20l4 46h-18v24h-22l16 70h-22l12 68h-24l18 92h-22q18 96 36 177t34 175l14 8q8 38 21 78t21 78 h24l8 44h20q2 12 7 34t9 38h26v9t2 13l14 8q4 16 9 31t9 31h30v9t2 13h18l6 26l16 8l14 36h50v10t2 14h24l6 24h50q0 10 2 20l16 10q0 10 4 14h56v10t2 14h94v9t2 13h70v26zM1124 634h28l46 248h-24l28 140h-22l18 92h-24l-10 10q-2 0 -5 1t-5 1l10 56h-24l12 48h-24l4 44 h-18v26h-42l-10 12q-8 0 -16 2l-16 4l2 28h-42l-12 12q-12 0 -25 3t-29 5v26h-136v-10t-2 -14h-70v-8t-2 -14h-66l-6 -24h-30v-9t-2 -13h-22v-10t-2 -16l-16 -10q-2 -6 -6 -16t-8 -18h-26l-10 -48l-16 -10q-2 -6 -6 -17t-8 -21h-26q-2 -12 -6 -31t-8 -35l-16 -12 q-4 -18 -11 -39t-11 -43l-14 -8l-98 -448h22l-16 -92h24l-16 -68h24l-10 -48h26l-12 -46h24v-26h20l12 -10q2 0 4 -1t4 -1l-2 -32h20l10 -14q6 0 15 -2t19 -4l-4 -28h42l10 -10q12 0 25 -3t29 -5v-28h110v11t2 15h96q0 10 2 20h42l6 24h52v9t2 15h28v10t2 14h20l8 46l14 10 q0 8 4 12h34l8 48l16 8l12 36h28l18 92l14 10zM600 1608l10 48h-22l-10 10q-4 0 -12 2q4 28 11 54t11 52h28v9t2 15h18l6 24h58l14 30l6 -10q-2 -10 -2 -20h44l10 -12q4 0 6 -1l6 -3l-2 -32h16q-4 -28 -10 -51t-10 -47h-22l-8 -46l-16 -10q0 -8 -4 -12h-54l-12 -50l-20 26h6 l6 24h-54zM1226 1862l20 -20h-2q-2 -10 -2 -20h44l10 -12q4 0 6 -1l6 -3l-2 -32h16q-6 -34 -12 -61t-12 -57h-22v-11t-4 -15l-16 -10q0 -8 -4 -12h-28l-6 -24h-50l-10 12q-8 0 -16 2t-20 6l12 52h-22l12 68h-24l8 30h26l8 44h42l6 24h32z" />
<glyph unicode="&#xd7;" d="M462 566l-16 -14l12 -14l94 76q-2 2 -7 6t-9 12l116 92l-330 414l20 10l-16 22l44 36l-12 14l6 6l12 -12l18 12l14 -4l20 8l18 -18l14 12q46 -58 87 -107t85 -105l-18 -16l116 -144l18 14l14 -14q4 2 8 7t12 9l16 -6q108 90 234 190t236 190l24 -2l-10 16l32 -2l-18 -14 h-4l18 -22l22 20l12 -16l-18 -18l22 -30l-66 -58v4l-128 -108v-2l12 8l26 -26l-26 2q4 4 2 1t2 1l-16 14l-274 -228l14 -18l-38 -32q22 -22 46 -55t46 -61l-2 -14l116 -162l16 14l96 -114l-4 -20l2 -2l2 -4l-24 -22q0 -2 4 -5t6 -7l-26 -22l10 -38l-12 4l-14 18l-24 -20 l-28 26l-18 -14l-306 378l-16 -14h-16l-76 -52l14 -20l-32 8q4 4 9 6t9 6l-10 22q-100 -84 -206 -174t-206 -174l-26 38l-10 -12l6 -8l-4 -16q0 -2 1 -1t1 -1l-30 2l26 24q-4 4 -5 10t-3 10l22 20l-12 18l122 98l-14 18l42 36l14 -4l48 26l-10 18l66 56l-12 16zM1294 1090 l-12 2l-12 14l12 10zM344 1236l14 -16l-18 -16zM1132 256l-14 -12v-2z" />
<glyph unicode="&#xd8;" d="M310 52l-4 -18h16l2 60h-42l-10 12q-2 0 -4 1t-4 1l2 34h-22l6 46h-18l-10 12q-2 0 -4 1t-4 1l2 32h-20l4 46h-18v24h-22l16 70h-22l12 68h-24l18 92h-22q18 96 36 177t34 175l14 8q8 38 21 78t21 78h24l8 44h20q2 12 7 34t9 38h26v9t2 13l14 8q4 16 9 31t9 31h30v9t2 13 h18l6 26l16 8l14 36h50v10t2 14h24l6 24h50q0 10 2 20l16 10q0 10 4 14h56v10t2 14h94v9t2 13h70v11t2 15h28v-26h136l10 -12l88 -10v10t2 14l16 8q4 16 10 32t10 32l14 8l12 38h26l8 22h50l-6 -22h24v-24h18l-8 -52h-28l-8 -46h-20l-8 -46l-16 -8l-24 -58h36l10 -12 q4 0 12 -2l-6 -54h16l10 -12q4 0 7 -1t7 -3l-2 -32h16v-24h20l-4 -46h18l-14 -70h24l-4 -44h16l-18 -94h26l-24 -114h24q-10 -64 -24 -120t-24 -118l-14 -10q-4 -24 -14 -52t-18 -54l-16 -8q-4 -26 -14 -52t-16 -54h-20l-10 -46l-16 -10q-2 -6 -6 -17t-8 -21h-26l-8 -44 l-18 -12q-2 -6 -6 -16l-8 -20l-14 -8l-8 -16h-56q0 -12 -2 -22l-16 -10q0 -2 -1 -7t-3 -7h-32v-9t-2 -13l-16 -8l-8 -18h-30v-9t-4 -13h-48q0 -10 -2 -20h-48v-10t-2 -16h-142v-9t-2 -13h-164l-10 12l-62 10l-8 -42l-14 -8q-4 -20 -12 -42t-14 -42h-24l-20 -96h-24 q0 -10 -2 -20l-16 -10q0 -2 -1 -7t-3 -7h-64l-14 -34l-4 10q2 8 2 14v10v24h-20l6 26h26l16 94h22q2 12 6 31t8 35h24l12 72h-16zM382 218h56l10 50h22q4 14 5 32t5 36h26q4 14 5 32t5 34l16 10q4 14 11 30t11 32h26q2 10 3 23t5 25l14 8l14 38h26q4 14 5 32t5 36h24l22 94 h20q2 12 6 32t8 36h24l10 46l14 8q4 14 10 30t10 32h26q4 16 6 34t6 34l16 10q2 12 9 28t11 30h26q2 14 7 35t9 37h20l8 46h24q4 14 5 34t5 36l18 8l28 100h-34l-12 12q-12 0 -25 3t-29 5v26h-136v-10t-2 -14h-70v-8t-2 -14h-66l-6 -24h-30v-9t-2 -13h-22v-10t-2 -16 l-16 -10q-2 -6 -6 -16t-8 -18h-26l-10 -48l-16 -10q-2 -6 -6 -17t-8 -21h-26q-2 -12 -6 -31t-8 -35l-16 -12q-4 -18 -11 -39t-11 -43l-14 -8l-98 -448h22l-16 -92h24l-16 -68h24l-10 -48h26l-12 -46h24v-26h20zM1124 634h28l46 248h-24l28 140h-22l18 92h-24l-10 10 q-2 0 -5 1t-5 1l10 56h-24l12 48h-58v-8t-2 -14l-16 -8q-4 -14 -10 -29t-10 -31l-16 -12q-2 -6 -6 -16l-8 -20h-24l-10 -46l-18 -10q-4 -16 -11 -38t-11 -42l-14 -8q-4 -14 -10 -31t-10 -33h-28q-4 -14 -5 -33t-5 -35h-24l-10 -44l-18 -10q-4 -14 -9 -30t-9 -32l-14 -10 q-2 -12 -9 -28t-11 -30h-28l-8 -48l-14 -8q-2 -12 -9 -29t-11 -31h-28l-14 -72l-14 -10q-2 -6 -6 -16l-8 -20h-28q-4 -16 -8 -42t-8 -48h-20l-10 -46l-16 -12q-2 -6 -7 -16l-9 -18h-22l-16 -70h14l10 -10q12 0 25 -3t29 -5v-28h110v11t2 15h96q0 10 2 20h42l6 24h52v9t2 15 h28v10t2 14h20l8 46l14 10q0 8 4 12h34l8 48l16 8l12 36h28l18 92l14 10zM1278 1658l18 -28h-28z" />
<glyph unicode="&#xd9;" d="M186 1486h198l10 -12l158 -10l4 44l20 -22h-6q-2 -8 -2 -13v-9h50l4 -6h-6l-8 -50l-16 -10q0 -8 -4 -12h-102l-6 -24h-26l-16 -72l-14 -10l-110 -536h22l-102 -528h22l10 -12q-2 0 10 -4l-2 -32h20v-26h20l10 -12q10 0 17 -2t17 -4l8 -18q8 0 16 -2t18 -6v-26h234v9t2 13 h94l6 26h50v9t2 13h28q0 4 1 12t1 14l14 10q0 2 1 7t3 7h34q2 8 3 21t5 25l18 8q8 48 23 103t25 105h24l16 66h-26l146 770h-22l14 72h-46l-10 12q-14 0 -28 3t-28 7v24h-20v28h-22l2 4h24l6 24h410l10 -12q2 0 4 -1t8 -3q-2 -18 -6 -33t-8 -29h-44l-6 -24h-72l-8 -50 l-16 -8q-4 -22 -12 -44t-14 -44h-26l-184 -936l-14 -8q-4 -16 -10 -31t-10 -31h-28l-8 -50l-14 -10q-4 -16 -14 -36h-34q0 -4 -1 -13t-1 -15l-14 -10q0 -8 -4 -12h-54l-6 -24h-30q0 -14 -2 -24h-72v-9t-2 -13h-46q-2 -4 -3 -12t-3 -14h-342v26h-42l-10 12q-6 0 -16 2t-18 4 v28h-42l-10 12q-2 0 -7 1t-7 1l2 32h-18l8 50h-26l12 46h-24l12 76h-20l206 1080h-22l-10 12q-2 0 -4 1t-4 1l2 34h-92l-10 12q-8 0 -17 2t-17 4q4 22 5 33t5 27h52v22zM856 1726l-16 -18l30 -20l-8 -8l10 -10l-48 -66l-16 8l-8 -12l14 -8l8 -6l-34 -6l12 20l-4 6l-16 -18 l-274 182l18 16l-46 28l24 26q-2 0 -4 2l-6 6l38 48l-16 8l24 6l-6 6l32 6l-14 -22l6 -4l16 18l44 -30l-14 -18l174 -114l14 18zM890 1708l4 -32l-24 12zM872 1744l4 -32l-20 14zM656 1458l-20 -20q0 4 1 5t1 5q-12 4 -10 4l-6 6h34zM488 1782l18 -12l-16 -18zM632 1902 l2 -30l-18 12zM530 1896l14 -6l6 10l-10 8zM838 1598l-24 -6l10 12z" />
<glyph unicode="&#xda;" d="M556 1508l20 -22h-6q-2 -8 -2 -13v-9h50l4 -6h-6l-8 -50l-16 -10q0 -8 -4 -12h-102l-6 -24h-26l-16 -72l-14 -10l-110 -536h22l-102 -528h22l10 -12q-2 0 10 -4l-2 -32h20v-26h20l10 -12q10 0 17 -2t17 -4l8 -18q8 0 16 -2t18 -6v-26h234v9t2 13h94l6 26h50v9t2 13h28 q0 4 1 12t1 14l14 10q0 2 1 7t3 7h34q2 8 3 21t5 25l18 8q8 48 23 103t25 105h24l16 66h-26l146 770h-22l14 72h-46l-10 12q-14 0 -28 3t-28 7v24h-20v28h-22l2 4h24l6 24h410l10 -12q2 0 4 -1t8 -3q-2 -18 -6 -33t-8 -29h-44l-6 -24h-72l-8 -50l-16 -8q-4 -22 -12 -44 t-14 -44h-26l-184 -936l-14 -8q-4 -16 -10 -31t-10 -31h-28l-8 -50l-14 -10q-4 -16 -14 -36h-34q0 -4 -1 -13t-1 -15l-14 -10q0 -8 -4 -12h-54l-6 -24h-30q0 -14 -2 -24h-72v-9t-2 -13h-46q-2 -4 -3 -12t-3 -14h-342v26h-42l-10 12q-6 0 -16 2t-18 4v28h-42l-10 12 q-2 0 -7 1t-7 1l2 32h-18l8 50h-26l12 46h-24l12 76h-20l206 1080h-22l-10 12q-2 0 -4 1t-4 1l2 34h-92l-10 12q-8 0 -17 2t-17 4q4 22 5 33t5 27h52v22h198l10 -12l158 -10zM904 1560l-32 20l4 2l-20 8l16 8l-6 14q-6 0 -10 -4l-22 54l14 8q-2 2 -6 14l36 22l-6 12l90 48 l-10 20l28 -10l-18 -10l10 -16l200 108q0 8 -2 18q18 8 31 15t27 15l-2 32l30 -18l-4 -2l22 -6l-18 -10l8 -12q6 0 10 4l14 -40l-12 -6l10 -30l-50 -30q0 -2 3 -7t5 -7l-344 -180v16l-28 -12l8 -14l20 10zM1256 1902l-8 16l-20 -12l2 -16zM656 1458l-20 -20q0 4 1 5t1 5 q-12 4 -10 4l-6 6h34zM864 1738l8 -20l-18 -8zM828 1680l6 -18l-16 -8zM1304 1862l-10 -24l-6 16z" />
<glyph unicode="&#xdb;" d="M186 1486h198l10 -12l158 -10l4 44l20 -22h-6q-2 -8 -2 -13v-9h50l4 -6h-6l-8 -50l-16 -10q0 -8 -4 -12h-102l-6 -24h-26l-16 -72l-14 -10l-110 -536h22l-102 -528h22l10 -12q-2 0 10 -4l-2 -32h20v-26h20l10 -12q10 0 17 -2t17 -4l8 -18q8 0 16 -2t18 -6v-26h234v9t2 13 h94l6 26h50v9t2 13h28q0 4 1 12t1 14l14 10q0 2 1 7t3 7h34q2 8 3 21t5 25l18 8q8 48 23 103t25 105h24l16 66h-26l146 770h-22l14 72h-46l-10 12q-14 0 -28 3t-28 7v24h-20v28h-22l2 4h24l6 24h410l10 -12q2 0 4 -1t8 -3q-2 -18 -6 -33t-8 -29h-44l-6 -24h-72l-8 -50 l-16 -8q-4 -22 -12 -44t-14 -44h-26l-184 -936l-14 -8q-4 -16 -10 -31t-10 -31h-28l-8 -50l-14 -10q-4 -16 -14 -36h-34q0 -4 -1 -13t-1 -15l-14 -10q0 -8 -4 -12h-54l-6 -24h-30q0 -14 -2 -24h-72v-9t-2 -13h-46q-2 -4 -3 -12t-3 -14h-342v26h-42l-10 12q-6 0 -16 2t-18 4 v28h-42l-10 12q-2 0 -7 1t-7 1l2 32h-18l8 50h-26l12 46h-24l12 76h-20l206 1080h-22l-10 12q-2 0 -4 1t-4 1l2 34h-92l-10 12q-8 0 -17 2t-17 4q4 22 5 33t5 27h52v22zM702 1590l-6 8l-10 -12l-20 10l12 10l-12 6t-14 8l34 38l-16 8l176 224l-16 14h16v2h28l-2 -2l8 2v16 l18 -12v10l28 -18l-28 -14v10l-8 -4l-10 4l2 -16l16 6l2 -8l22 10q22 -60 45 -113t45 -111l-10 -4l10 -36l-22 -12v-6l-22 -12v6l-18 -8v10l-24 -12l-10 28l12 8l-66 170l-130 -166q4 0 16 -8l-30 -30l18 -14l-20 -2h-26zM954 1562l-28 20l24 12l2 -6l16 8l2 -36l-18 8z M656 1458l-20 -20q0 4 1 5t1 5q-12 4 -10 4l-6 6h34zM648 1612l18 -16l-14 -14zM1028 1676l-10 -28l-6 18zM910 1638l6 -18l-16 -8zM870 1886l10 12l-10 4l-8 -10zM702 1590l8 -6l8 10l-6 6zM854 1898l-8 -8l8 -6l8 8z" />
<glyph unicode="&#xdc;" d="M556 1508l20 -22h-6q-2 -8 -2 -13v-9h50l4 -6h-6l-8 -50l-16 -10q0 -8 -4 -12h-102l-6 -24h-26l-16 -72l-14 -10l-110 -536h22l-102 -528h22l10 -12q-2 0 10 -4l-2 -32h20v-26h20l10 -12q10 0 17 -2t17 -4l8 -18q8 0 16 -2t18 -6v-26h234v9t2 13h94l6 26h50v9t2 13h28 q0 4 1 12t1 14l14 10q0 2 1 7t3 7h34q2 8 3 21t5 25l18 8q8 48 23 103t25 105h24l16 66h-26l146 770h-22l14 72h-46l-10 12q-14 0 -28 3t-28 7v24h-20v28h-22l2 4h24l6 24h410l10 -12q2 0 4 -1t8 -3q-2 -18 -6 -33t-8 -29h-44l-6 -24h-72l-8 -50l-16 -8q-4 -22 -12 -44 t-14 -44h-26l-184 -936l-14 -8q-4 -16 -10 -31t-10 -31h-28l-8 -50l-14 -10q-4 -16 -14 -36h-34q0 -4 -1 -13t-1 -15l-14 -10q0 -8 -4 -12h-54l-6 -24h-30q0 -14 -2 -24h-72v-9t-2 -13h-46q-2 -4 -3 -12t-3 -14h-342v26h-42l-10 12q-6 0 -16 2t-18 4v28h-42l-10 12 q-2 0 -7 1t-7 1l2 32h-18l8 50h-26l12 46h-24l12 76h-20l206 1080h-22l-10 12q-2 0 -4 1t-4 1l2 34h-92l-10 12q-8 0 -17 2t-17 4q4 22 5 33t5 27h52v22h198l10 -12l158 -10zM524 1774v9t2 15h18l6 24h58l14 30l6 -10q-2 -10 -2 -20h44l10 -12q4 0 6 -1l6 -3l-2 -32h16 q-4 -28 -10 -51t-10 -47h-22l-8 -46l-16 -10q0 -8 -4 -12h-54l-12 -50l-20 26h6l6 24h-54l10 48h-22l-10 10q-4 0 -12 2q4 28 11 54t11 52h28zM1042 1754l8 44h42l6 24h32l4 40l20 -20h-2q-2 -10 -2 -20h44l10 -12q4 0 6 -1l6 -3l-2 -32h16q-6 -34 -12 -61t-12 -57h-22v-11 t-2 -15l-18 -10q0 -8 -4 -12h-28l-6 -24h-50l-10 12q-8 0 -16 2t-20 6l12 52h-22l14 68h-26l8 30h26zM656 1458l-20 -20q0 4 1 5t1 5q-12 4 -10 4l-6 6h34z" />
<glyph unicode="&#xdd;" d="M204 64h24l-4 -18h2v8l4 10h-2l6 30h44l6 26h126v9t2 13l14 10q0 6 6 16h28l96 498h-22l12 48h-24l-12 12q-4 0 -12 2l20 80h-26v24h-22l-10 14q-2 0 -5 1t-5 1l12 56h-26v26h-18l10 48h-24l10 48h-22l6 22h-28l8 50h-24l14 48h-28l-10 12q-2 0 -5 1t-5 1l10 56h-24v26 h-20l12 48h-24l6 22h-26l8 50h-20l-10 12q-18 0 -40 3t-42 7l-12 14q-6 0 -15 2t-19 4q4 26 9 44t9 38h50l2 28h124v-28h112q0 4 1 13t1 15h78v-28h116l-8 -30l32 -8l-10 -8h-26v-4l-16 -12q0 -8 -6 -16h-104v-9t-2 -13l-16 -10l-26 -78h26l-10 -50h22l-10 -48h26l-10 -48 h22v-26h24l-14 -46h26l10 -12q4 0 12 -2l-10 -58h22l-12 -48h24l-10 -50h28l10 -12q2 0 5 -1t5 -1l-2 -32h20l-10 -50h116l10 50h26v10t2 14l14 10q0 8 4 12h34l10 50h24q2 8 3 22t5 26h28l8 48l14 10q2 8 6 18l8 20h30l8 48l14 10q0 8 4 12h28q4 18 11 46t11 50h30l4 68 h-22l12 48h-72l-10 12q-6 0 -15 2t-21 4l2 32h-20q2 10 4 16l4 12h28v9t2 13h362q0 4 1 13t1 15h28v-28h40l-10 -50h-26q0 -4 -1 -13t-1 -15l-14 -10q0 -8 -4 -12h-80l-10 -48l-16 -10q0 -8 -6 -16h-28l-6 -22h-28l-8 -48l-16 -10q-2 -10 -7 -20t-9 -20h-24l-10 -46h-24 l-6 -26h-26v-9t-2 -13l-18 -8q-4 -14 -10 -31t-10 -33h-26v-10t-2 -14h-28l-10 -50l-14 -10q0 -8 -4 -12h-30l-10 -48l-16 -10q-2 -10 -7 -19t-9 -21h-26v-10t-2 -14l-18 -10q-2 -10 -7 -19t-9 -21h-26l-8 -44l-18 -8q-4 -16 -10 -33t-10 -33h-24l-20 -112h22l-70 -360h24 l-8 -48h214l10 -14q8 0 16 -2t20 -6v-26h18v-8h-24l-12 -48h-76v-9t-2 -13h-6l-10 12l-198 10v-9t-2 -13h-150l-10 12q-46 0 -99 4t-101 6l8 30l-30 10zM1210 1910l-26 -14l2 -14l22 10q8 -24 16 -40l-12 -6l10 -30l-48 -30q0 -2 3 -7t5 -7l-354 -184l10 -22l-28 12l4 2 l-22 8l18 8l-8 14q-6 0 -10 -4l-22 54l14 8q-2 2 -6 14l38 22l-6 12l88 48l-8 20l26 -10l-18 -10l8 -16l204 108q0 8 -2 18q16 8 29 15t27 15l-2 32l20 -12v4zM248 1290h26l-8 -28zM366 1026h26l-8 -26zM1184 1896l-2 18l-18 -10l2 -16zM800 1736l10 -20l-20 -8zM828 1588 l-10 -6l-8 14l12 6zM764 1678l6 -18l-16 -8zM1240 1860l-10 -24l-6 16zM596 1448v10l2 -2zM596 1448l-2 -4z" />
<glyph unicode="&#xde;" d="M596 1418h120v10t2 14h2l10 -14q52 0 108 -4t108 -6l12 -10q12 0 24 -3t28 -5l10 -14q8 0 16 -2t18 -6v-28h40v-24h44l10 -10q2 0 4 -1t4 -1l-2 -34h16l12 -12q4 0 12 -2l-2 -32h18l10 -12q4 0 12 -2l-2 -32h18l10 -12q4 0 12 -2l-14 -56h24v-24h20l-4 -44h16l-14 -70h24 l-18 -94h24l-2 -32h20q-2 -10 -5 -20t-5 -20l-18 -10q-2 -10 -7 -23t-9 -27h-24q-2 -12 -6 -32t-8 -36l-16 -8l-20 -64l-14 -10q-4 -16 -14 -36h-30l-8 -46l-14 -10q0 -8 -4 -12h-30l-6 -26l-16 -10q0 -2 -4 -10h-32l-8 -46h-50v-11t-2 -15h-22v-9t-2 -13l-14 -10 q0 -4 -6 -10h-52l-6 -26h-30v-9t-2 -13h-140v-10t-2 -14h-350l-40 -200l-14 -10q0 -2 -1 -7t-3 -7h-28l-6 -24h-98l6 24h-22l12 68h-24q22 126 46 239t48 239h22l164 838h-24q6 40 14 72t14 68h28v11t2 15h22v9t2 13h72l10 -12q6 0 16 -2t18 -4l-20 -98h24zM1168 928h-24 l14 72h-20l12 68h-20l-10 12q-4 0 -6 1l-6 3l10 50h-24v26h-20l12 46h-46l-10 14q-4 0 -7 1t-5 1l2 30h-20l-10 12q-2 0 -4 1t-4 1l2 34h-88l-10 12l-264 10v-9t-2 -13l-14 -10q0 -2 -1 -8t-3 -8h-32l-86 -444v2l-18 -68l-64 -350h24v-26h64l10 -12l172 -10v9t2 13h70v10 t2 16h74q0 10 2 20h42l6 24h50l8 48h22q0 10 2 20h28v10t2 16l14 8q2 8 6 18l8 20h30l8 48l14 8q2 12 9 28t11 32l14 8q4 14 10 29t10 31h26zM154 20h26l-8 -26z" />
<glyph unicode="&#xdf;" d="M608 728l-118 -602h22v-24h66l12 -12q16 0 35 -3t37 -5q-4 -24 -8 -41t-8 -37h-116v-10t-2 -14h-94v24h-276l-10 12q-2 0 -10 2l4 36h24l8 26h48v9t4 13h70v10t2 14h26q0 12 2 22l16 8q16 86 38 171t38 173h24l40 208h-22q26 124 45 235t45 237h26l20 110h-26l10 48h-48 l-10 12q-22 0 -48 5t-52 7l-10 10q-2 0 -10 2q4 22 5 33t5 29h30v22h634l10 -12q22 0 51 -4t53 -6l10 -12q4 0 14 -2t18 -4l-2 -28h18l10 -14q8 0 17 -2t19 -4l-12 -50h20l10 -12q2 0 14 -4l-12 -56h24l-24 -116l6 16h40l-20 -20v4h-26l-14 -76h-24l-8 -46l-18 -10l-14 -38 h-28v-10t-2 -14l-14 -10q0 -2 -4 -10h-36v-11t-2 -15l-14 -10q0 -8 -4 -12h-32l-6 -26l-14 -10l-14 -52h16v-24h20l12 -14q12 0 26 -3t30 -5l10 -14q2 0 4 -1t4 -1l-2 -34h44l10 -10q2 0 5 -1t5 -1l-2 -34h16l12 -12q4 0 12 -2l-6 -54h18v-26h22l-16 -70h22q-10 -46 -19 -85 t-17 -83h-20l-10 -46l-16 -10l-14 -38h-26l-10 -46l-16 -10q0 -2 -1 -7t-3 -7h-32v-9t-2 -15l-16 -8l-8 -16h-56v-9t-2 -15h-24q0 -10 -2 -20h-50v-10t-2 -14h-34l4 -42l-12 10l-12 -12q0 4 2 21t2 23h16l-12 98h20q0 12 2 22h22l6 24h48l8 48l14 8l14 38h28q2 8 3 22t5 26 l18 8l36 150h-22l12 68h-24l12 48h-24v26h-22l-10 10q-2 0 -4 1t-4 1l2 34h-22l-10 12q-6 0 -15 2t-17 4l2 30h-42l-10 10q-4 0 -14 3t-16 5l-24 32h20l14 110h-8q0 2 2 4t2 4h46q0 10 2 20l14 10q0 2 1 8t3 8h50l8 22h28l8 48l16 8l12 38h28l36 182h-24l12 70h-24v24h-20 l-10 12q-6 0 -15 3t-17 5l2 28h-90l-10 10l-194 12q0 -12 -2 -22h-46l-12 -48l-14 -8l-92 -430h16l-30 -148h18l-20 -16l2 16h-12zM934 150l2 -24h-22zM910 778q0 -4 -2 -8t-2 -8q0 -2 2 -4h-20z" />
<glyph unicode="&#xe0;" d="M826 1044h284v-24h42l10 -12q6 0 16 -2t18 -4v-26h18l12 -14q-2 0 10 -4l-2 -30h20l-4 -46h14q-12 -62 -20 -110t-18 -106l-16 -8l-110 -524h136q0 10 2 20h28l12 -10q2 0 3 -1t3 -1l-2 -34h20q-2 -10 -4 -16t-2 -10l-16 -12q0 -2 -1 -7t-5 -7h-104v-9t-2 -13h-66l-6 -26 h-118l-10 12q-2 0 -7 1t-7 1l2 34h-42v26h-88v-11t-2 -15h-72v-9t-2 -13h-92l-8 -26h-280l-10 12q-8 0 -15 3t-19 7v26h-42v26h-42l-12 10q-4 0 -12 2l12 56h-22l12 46h-24l20 122h28l8 46h20q2 8 3 22t5 26h30v10t2 14l14 12q0 8 4 12h52l6 24h52v9t2 13h48v10t2 14h74v9 t2 15h96v10t2 14h124l4 42l22 -22h-6q-4 -10 -4 -20h142q0 10 2 20h68l6 26h28v9t2 13l16 10l48 220h-22l-10 12q-2 0 -5 1t-5 1l2 34h-18l-10 12q-6 0 -15 2t-17 4v28h-230v-10t-2 -14h-50v-9t-2 -13h-44l-6 -26h-26v-9t-2 -13l-18 -8q-4 -16 -9 -32t-9 -32l-14 -10 q0 -8 -4 -12h-32l-6 -24h-74l-10 12q-2 0 -5 1t-5 1l2 32h-20q4 24 8 41t8 37h24l10 46h50v9t2 13h42l8 26h50v9t2 13h46v8t4 14h120v24zM952 250h26l42 228h-26l-10 12l-356 12v-10t-2 -14h-74v-10t-2 -14h-48v-10t-2 -14h-44l-6 -24h-30v-8t-2 -14h-20l-10 -48l-16 -8 l-32 -126h24l-10 -48h48l10 -10q4 0 13 -2t17 -4l-2 -30h136l10 -12l56 -10v9t2 13h116l6 26h52q0 10 2 20h48v10t2 14h50q0 14 2 24h20zM942 1186l-12 -24l-12 6l-10 -14l-274 184l18 16l-46 28l24 26q-2 0 -4 2l-6 6l34 46l-18 14l30 2l-6 8h28l-12 -16l8 -6l16 18l44 -30 l-14 -16l174 -118l18 20l66 -46l-14 -14l30 -24l2 -12l2 -2q-14 -20 -26 -35t-28 -31l20 -16l-32 -2l12 18zM762 1470l2 -30l-20 12zM1004 1310l4 -30l-20 12zM616 1350l18 -12l-16 -20zM654 1462l8 -6l14 14l-8 8zM946 1154l-26 -10l10 18z" />
<glyph unicode="&#xe1;" d="M788 1044h286v-24h42l10 -12q6 0 15 -2t19 -4v-26h18l10 -14q-2 0 10 -4l-2 -30h22l-4 -46h14l-40 -216l-14 -8l-110 -524h134q0 10 2 20h30l10 -10q2 0 3 -1t3 -1l-2 -34h22q-2 -10 -4 -16t-2 -10l-18 -12q0 -2 -1 -7t-3 -7h-104v-9t-2 -13h-66l-6 -26h-120l-10 12 q-2 0 -6 1t-6 1l2 34h-44v26h-88v-11t-2 -15h-70v-9t-2 -13h-94l-6 -26h-280l-10 12q-10 0 -17 3t-17 7v26h-42v26h-44l-10 10q-4 0 -12 2l12 56h-22l12 46h-26l22 122h26l8 46h22q2 8 3 22t5 26h30v10t2 14l14 12q0 8 4 12h52l6 24h52v9t2 13h48v10t2 14h72v9t4 15h94v10 t2 14h126l4 42l20 -22h-6q-2 -10 -2 -20h142q0 10 2 20h66l6 26h30v9t2 13l14 10l50 220h-22l-12 12q-2 0 -5 1t-5 1l2 34h-16l-10 12q-6 0 -16 2t-18 4v28h-228v-10t-2 -14h-50v-9t-2 -13h-44l-6 -26h-28v-9t-2 -13l-16 -8q-4 -16 -9 -32t-9 -32l-16 -10q0 -8 -4 -12h-30 l-8 -24h-72l-10 12q-2 0 -5 1t-5 1l2 32h-22q4 24 9 41t9 37h24l8 46h50v9t2 13h44l6 26h50v9t2 13h48v8t2 14h120v24zM916 250h24l42 228h-24l-10 12l-356 12v-10t-2 -14h-76v-10t-2 -14h-48v-10t-2 -14h-44l-6 -24h-28v-8t-2 -14h-22l-8 -48l-16 -8l-34 -126h26l-12 -48 h48l12 -10q4 0 13 -2t17 -4l-2 -30h136l10 -12l56 -10v9t2 13h114l6 26h52q0 10 2 20h48v10t2 14h50q0 14 2 24h22zM1324 1490l-18 -12l8 -12q2 0 4 2t3 2t3 2l16 -44l-4 -12l6 -22l-58 -28l10 -18l-350 -182v18l-18 -8v16l-24 -12l-24 58l8 6q0 2 -1 5t-1 5l44 24l-10 18 l92 46l-8 20l26 -10l-18 -10l8 -18l212 114q0 2 -2 7t-4 9q20 10 33 17t29 17l-8 20l26 -10l-2 -2zM930 1144l-28 18l24 14l2 -18l16 8l6 -32zM1306 1478l-8 18l-12 -8l8 -16zM910 1312l8 -16l-18 -10z" />
<glyph unicode="&#xe2;" d="M826 1044h284v-24h42l10 -12q6 0 16 -2t18 -4v-26h18l12 -14q-2 0 10 -4l-2 -30h20l-4 -46h14q-12 -62 -20 -110t-18 -106l-16 -8l-110 -524h136q0 10 2 20h28l12 -10q2 0 3 -1t3 -1l-2 -34h20q-2 -10 -4 -16t-2 -10l-16 -12q0 -2 -1 -7t-5 -7h-104v-9t-2 -13h-66l-6 -26 h-118l-10 12q-2 0 -7 1t-7 1l2 34h-42v26h-88v-11t-2 -15h-72v-9t-2 -13h-92l-8 -26h-280l-10 12q-8 0 -15 3t-19 7v26h-42v26h-42l-12 10q-4 0 -12 2l12 56h-22l12 46h-24l20 122h28l8 46h20q2 8 3 22t5 26h30v10t2 14l14 12q0 8 4 12h52l6 24h52v9t2 13h48v10t2 14h74v9 t2 15h96v10t2 14h124l4 42l22 -22h-6q-4 -10 -4 -20h142q0 10 2 20h68l6 26h28v9t2 13l16 10l48 220h-22l-10 12q-2 0 -5 1t-5 1l2 34h-18l-10 12q-6 0 -15 2t-17 4v28h-230v-10t-2 -14h-50v-9t-2 -13h-44l-6 -26h-26v-9t-2 -13l-18 -8q-4 -16 -9 -32t-9 -32l-14 -10 q0 -8 -4 -12h-32l-6 -24h-74l-10 12q-2 0 -5 1t-5 1l2 32h-20q4 24 8 41t8 37h24l10 46h50v9t2 13h42l8 26h50v9t2 13h46v8t4 14h120v24zM952 250h26l42 228h-26l-10 12l-356 12v-10t-2 -14h-74v-10t-2 -14h-48v-10t-2 -14h-44l-6 -24h-30v-8t-2 -14h-20l-10 -48l-16 -8 l-32 -126h24l-10 -48h48l10 -10q4 0 13 -2t17 -4l-2 -30h136l10 -12l56 -10v9t2 13h116l6 26h52q0 10 2 20h48v10t2 14h50q0 14 2 24h20zM822 1168l-6 10l-12 -14q-6 4 -10 6t-8 6l10 10q-4 2 -11 6t-13 8l32 38l-16 8l180 226l-18 16h18v2h28l-2 -2l8 2v16l18 -12v10 l28 -18l-28 -16v10l-10 -4l-8 4l2 -16l16 6l2 -8l22 10l92 -226l-10 -4l10 -36l-24 -12v-6l-22 -12v6l-16 -8v10l-26 -14l-10 30l12 8l-66 170l-132 -166q4 0 16 -8l-30 -30l18 -16l-20 -2h-26zM1078 1142l-30 18l26 14l2 -8q4 2 7 5t7 5l2 -36l-16 8zM768 1192l18 -16 l-14 -16zM1032 1218l6 -18l-16 -8zM992 1468l10 12l-10 6l-8 -12zM1152 1256l-10 -26l-6 16zM822 1168l8 -6l8 12l-6 6zM976 1480l-8 -8l8 -6l8 8z" />
<glyph unicode="&#xe4;" d="M768 620l22 -22h-6q-4 -10 -4 -20h142q0 10 2 20h68l6 26h28v9t2 13l16 10l48 220h-22l-10 12q-2 0 -5 1t-5 1l2 34h-18l-10 12q-6 0 -15 2t-17 4v28h-230v-10t-2 -14h-50v-9t-2 -13h-44l-6 -26h-26v-9t-2 -13l-18 -8q-4 -16 -9 -32t-9 -32l-14 -10q0 -8 -4 -12h-32 l-6 -24h-74l-10 12q-2 0 -5 1t-5 1l2 32h-20q4 24 8 41t8 37h24l10 46h50v9t2 13h42l8 26h50v9t2 13h46v8t4 14h120v24h284v-24h42l10 -12q6 0 16 -2t18 -4v-26h18l12 -14q-2 0 10 -4l-2 -30h20l-4 -46h14q-12 -62 -20 -110t-18 -106l-16 -8l-110 -524h136q0 10 2 20h28 l12 -10q2 0 3 -1t3 -1l-2 -34h20q-2 -10 -4 -16t-2 -10l-16 -12q0 -2 -1 -7t-5 -7h-104v-9t-2 -13h-66l-6 -26h-118l-10 12q-2 0 -7 1t-7 1l2 34h-42v26h-88v-11t-2 -15h-72v-9t-2 -13h-92l-8 -26h-280l-10 12q-8 0 -15 3t-19 7v26h-42v26h-42l-12 10q-4 0 -12 2l12 56h-22 l12 46h-24l20 122h28l8 46h20q2 8 3 22t5 26h30v10t2 14l14 12q0 8 4 12h52l6 24h52v9t2 13h48v10t2 14h74v9t2 15h96v10t2 14h124zM926 250h26l42 228h-26l-10 12l-356 12v-10t-2 -14h-74v-10t-2 -14h-48v-10t-2 -14h-44l-6 -24h-30v-8t-2 -14h-20l-10 -48l-16 -8l-32 -126 h24l-10 -48h48l10 -10q4 0 13 -2t17 -4l-2 -30h136l10 -12l56 -10v9t2 13h116l6 26h52q0 10 2 20h48v10t2 14h50q0 14 2 24h20zM610 1344v9t2 13h24v11t2 15h56l14 30l6 -10q-2 -10 -2 -20h46v-26h20l12 -12q2 0 4 -1t4 -1q-4 -30 -12 -55t-12 -53h-20l-10 -46l-18 -10 q0 -8 -4 -12h-60l-14 -36l-6 10q2 8 2 15v11h-50l12 46h-22l-12 12q-4 0 -12 2q4 28 12 54t12 54h26zM1134 1322l8 44h48v11t2 15h30l4 42l20 -22h-2q-2 -10 -2 -20h46v-26h22l10 -12q2 0 4 -1t4 -1q-6 -36 -13 -66t-15 -64h-18l-6 -24h-30v-9t-2 -13l-14 -12q0 -2 -1 -7 t-3 -7h-58v26h-44l12 46h-22l12 70h-24l8 30h24z" />
<glyph unicode="&#xe6;" d="M716 760l-4 -20h18l20 136h-20l-12 12q-2 0 -5 1t-5 1l2 34h-16l-10 12q-8 0 -17 2t-17 4v28h-228v-10t-2 -14h-50v-9t-2 -13h-44l-6 -26h-28v-9t-2 -13l-16 -8q-4 -16 -10 -32t-10 -32l-14 -10q0 -8 -4 -12h-32l-6 -24h-72l-10 12q-2 0 -5 1t-7 1l4 32h-22q4 24 8 41 t8 37h26l8 46h50v9t2 13h44l6 26h50v9t2 13h48v8t2 14h120v10t2 14h284v-24h42l10 -12q6 0 15 -2t17 -4v-26h20l10 -14l16 -10h40l6 24h52v10t2 14h50v9t2 15h48q0 10 2 20h50v26h286v-26h40l12 -10q6 0 15 -2t17 -4v-28h22v-24h36l-6 -24h28l10 -12q2 0 4 -1t4 -1l-2 -32 h20l-10 -48h24l10 -12q4 0 6 -1l6 -3l-10 -54h22l-12 -68h24l-28 -148h-28q0 -10 -4 -20h-72v-11t-2 -15h-610v-9t-2 -13h-116l-10 -42l-16 -70l-12 -72h26l-4 -46h18l10 -12q4 0 14 -2l-4 -34h16l-6 -22h50v-26h42l12 -10q18 0 38 -4t40 -6v-24h230v10t2 14h142q0 10 2 20 h72v11t2 15h64l6 22h52l-6 -22h28l-8 -30l-16 -10q0 -8 -4 -12h-26l-8 -26h-52q0 -10 -2 -20h-50v-10t-2 -14h-94q0 -14 -4 -24h-94v-10t-2 -14h-114l-6 -24h-190l6 24h-98l-10 12l-40 10v-9t-2 -13h-66l-6 -26h-120l-10 12q-2 0 -6 1t-6 1l2 34h-44v26h-88v-11t-2 -15h-70 v-9t-2 -13h-94l-6 -26h-280l-12 12q-8 0 -15 3t-17 7v26h-42v26h-44l-10 10q-4 0 -12 2l12 56h-24l14 46h-26l22 122h26l8 46h22q2 8 3 22t5 26h28v10t2 14l16 12q0 8 4 12h52l6 24h52v9t2 13h48v10t2 14h72v9t2 15h96v10t2 14h126l4 42l20 -22h-6q-2 -10 -2 -20h142 q0 10 2 20h66l6 26h-16l20 16l-4 -16h10q4 14 6 34t6 36h26l8 46h-16zM586 250h6v22l4 -4l26 142h-22l18 92h-356v-10t-4 -14h-74v-10t-2 -14h-48v-10t-2 -14h-44l-6 -24h-28v-8t-4 -14h-20l-8 -48l-16 -8l-34 -126h24l-10 -48h48l10 -10q4 0 14 -2t18 -4l-2 -30h136l10 -12 l56 -10v9t2 13h114l6 26h52q0 10 2 20h48v10t2 14h50q0 14 2 24h22zM1500 694h20l16 68h-22l4 44h-22l-10 14q-2 0 -5 1t-5 1l2 32h-22l14 46h-48l-10 14q-2 0 -6 1t-6 1l2 32h-68l-10 12l-214 12v-10t-2 -14h-50v-10t-2 -14l-18 -10q0 -10 -4 -14h-28l-6 -24h-30v-8t-2 -14 h-22v-10t-2 -14l-18 -10q0 -6 -4 -14h-30l-10 -44h-6l-20 -96h-18l-6 -62h420q0 10 2 20h212v10t2 14h24zM1604 254l20 -28h-28zM918 10h28l-10 -26zM1564 1002l18 -26h-28zM856 254l18 -28h-26z" />
<glyph unicode="&#xe7;" d="M750 -272v-22l-52 -12v12l-38 -8l-4 74q-2 0 -22 -8l-16 222h-66l-12 12q-16 0 -37 3t-39 5l-10 14q-14 0 -28 4t-30 8v24h-18v26h-18l-10 10q-4 0 -14 2l2 32h-16l-10 14q-2 0 -5 1t-5 1l2 32h-20l6 46h-22l12 48h-24l12 68h-24l12 70h-22q8 36 15 63t13 61h20l28 140 h24l10 46l14 8q2 8 6 18t8 22h30l8 46l14 10q0 2 1 7t3 7h36v9t2 13h18l6 26h30v9t2 13l14 12q0 8 4 12h32v9t2 13h46l6 26h30v9t2 13h70v8t2 14h74v10t2 14h260v-24h66l10 -12q6 0 13 -2t17 -4v-26h20l10 -14q-2 0 10 -4l-2 -30h18l10 -12q4 0 12 -2l-14 -58h24l-20 -116 h24v-4h-28l-8 -48l-16 -10q0 -8 -4 -12h-78l-12 12q-6 0 -15 2t-19 4l10 52h-26l28 140h-20l-12 12q-2 0 -5 1t-5 1l2 34h-66l-10 12l-218 10v-9t-2 -13h-44l-6 -26h-52v-9t-2 -13l-16 -10q0 -2 -1 -8t-3 -8h-34q0 -10 -4 -20h-22v-10t-2 -16l-16 -10q0 -8 -4 -12h-32 l-10 -46l-18 -8q-4 -14 -9 -30t-9 -32l-14 -8l-66 -294h20l-12 -68h24l10 -12q2 0 6 -1t6 -1l-12 -56h24l10 -12q2 0 4 -1t4 -1l-2 -34h44v-24h44l10 -10q24 0 50 -4t52 -6l10 -14l164 -12l6 26h146q0 10 2 20h48v10t2 14h72q0 14 2 24h76l10 -12q2 0 4 -1t4 -1l-8 -38 l-14 -10q0 -2 -1 -7t-3 -7h-36v-10t-2 -14h-50q0 -10 -2 -20h-70v-11t-2 -15h-50v-9t-2 -13h-112l-6 -26h-78q0 -4 -1 -10t-1 -12h18l-20 -22v10t2 12h-12l10 -92l-10 -2l12 -140l-18 -2v-20l20 2l-2 20l24 2l-22 -22l-20 -22v20zM672 -314l26 8v-28zM806 -106l-20 -22 q0 4 -1 10t-1 12h22z" />
<glyph unicode="&#xe8;" d="M740 1044h286v-24h42l10 -12q6 0 15 -2t17 -4v-26h20l10 -14q8 0 30 -6v-28h20l10 -12q2 0 4 -1t4 -1l-2 -32h22l-14 -48h26v-24h20l-4 -46h20l-16 -70h26q-6 -42 -15 -75t-15 -73l-16 -10q0 -2 -4 -10h-78l-6 -24h-610v-10t-4 -14h-120v-10t-2 -14h-20l-22 -110h22 l-10 -48h26l-4 -46h18l12 -12q2 0 5 -1t5 -1l-2 -34h16l10 -12q6 0 16 -2t18 -4v-30h44l10 -10q16 0 37 -3t39 -5l12 -16l214 -12l6 26h146q0 10 2 20h70v10t2 14h70q0 14 2 24h50l12 -12q4 0 12 -2l-8 -38h-30v-9t-2 -15h-22v-10t-2 -14h-50q0 -10 -2 -20h-50v-11t-2 -15 h-96v-9t-2 -13h-92l-6 -26h-120v-9t-4 -13h-188l-10 12q-16 0 -38 3t-42 5l-10 14q-10 0 -25 4t-29 8v24h-42v26h-20l-12 10q-2 0 -5 1t-5 1l2 32h-40l-12 14q-2 0 -5 1t-5 1l12 54h-24v24h-18l12 48h-28l22 116h-22q8 48 18 87t18 83h20q4 22 12 55t12 61h24l8 46l16 8 q2 8 6 18t8 22h30l8 46l14 10q0 2 1 7t3 7h36v9t2 13h20q2 10 3 23t5 25l18 12q0 8 4 12h34v9t2 13h44l6 26h52v9t2 13h48v8t2 14h50v24zM1116 670h22l4 66h-16l12 46h-28l-10 12q-2 0 -5 1t-5 1l2 34h-20l4 46h-42l-10 12q-2 0 -4 1t-4 1l2 34h-70l-10 12l-214 10v-9 t-2 -13h-46l-6 -26h-30v-9t-2 -13l-14 -10q0 -2 -1 -8t-3 -8h-36q0 -10 -2 -20h-22v-10t-2 -16l-16 -10q0 -6 -6 -12h-30l-10 -46l-18 -8l-36 -150h422q0 10 2 20h208l6 26h26zM662 1496l-12 -16l8 -6l16 20l46 -34v-14l158 -116l16 18l68 -46l-16 -14l32 -24l2 -12l2 -2 q-14 -18 -27 -34t-27 -32l18 -16l-30 -2l12 18l-12 12l-14 -22l14 -8l4 -2l-28 -10l10 20l-12 6l-8 -16l-274 184l16 16l-46 28l26 26q-2 0 -4 2l-6 6l32 46l-16 16l28 2l-6 6h30zM588 1360l20 -12l-18 -18zM978 1320l4 -30l-20 12zM650 1480l-10 10l-14 -18l8 -6z" />
<glyph unicode="&#xe9;" d="M740 1044h286v-24h42l10 -12q6 0 15 -2t17 -4v-26h20l10 -14q8 0 30 -6v-28h20l10 -12q2 0 4 -1t4 -1l-2 -32h22l-14 -48h26v-24h20l-4 -46h20l-16 -70h26q-6 -42 -15 -75t-15 -73l-16 -10q0 -2 -4 -10h-78l-6 -24h-610v-10t-4 -14h-120v-10t-2 -14h-20l-22 -110h22 l-10 -48h26l-4 -46h18l12 -12q2 0 5 -1t5 -1l-2 -34h16l10 -12q6 0 16 -2t18 -4v-30h44l10 -10q16 0 37 -3t39 -5l12 -16l214 -12l6 26h146q0 10 2 20h70v10t2 14h70q0 14 2 24h50l12 -12q4 0 12 -2l-8 -38h-30v-9t-2 -15h-22v-10t-2 -14h-50q0 -10 -2 -20h-50v-11t-2 -15 h-96v-9t-2 -13h-92l-6 -26h-120v-9t-4 -13h-188l-10 12q-16 0 -38 3t-42 5l-10 14q-10 0 -25 4t-29 8v24h-42v26h-20l-12 10q-2 0 -5 1t-5 1l2 32h-40l-12 14q-2 0 -5 1t-5 1l12 54h-24v24h-18l12 48h-28l22 116h-22q8 48 18 87t18 83h20q4 22 12 55t12 61h24l8 46l16 8 q2 8 6 18t8 22h30l8 46l14 10q0 2 1 7t3 7h36v9t2 13h20q2 10 3 23t5 25l18 12q0 8 4 12h34v9t2 13h44l6 26h52v9t2 13h48v8t2 14h50v24zM1116 670h22l4 66h-16l12 46h-28l-10 12q-2 0 -5 1t-5 1l2 34h-20l4 46h-42l-10 12q-2 0 -4 1t-4 1l2 34h-70l-10 12l-214 10v-9 t-2 -13h-46l-6 -26h-30v-9t-2 -13l-14 -10q0 -2 -1 -8t-3 -8h-36q0 -10 -2 -20h-22v-10t-2 -16l-16 -10q0 -6 -6 -12h-30l-10 -46l-18 -8l-36 -150h422q0 10 2 20h208l6 26h26zM1232 1494l-28 -16l2 -14l24 10q4 -14 8 -21t8 -17l-12 -8l10 -30l-50 -30q0 -2 3 -7t5 -7 l-358 -188l12 -20l-30 10l4 2l-20 8l16 10l-6 14q-6 0 -10 -4l-24 54l16 8q-4 2 -8 14l38 24l-6 12l90 48l-8 20l26 -10l-18 -10l8 -16l206 110q0 8 -2 16q32 14 58 32l-2 32l18 -12v4zM1204 1478l-2 20l-16 -10l2 -18zM844 1166l-10 -6l-8 16l12 6zM818 1316l8 -18l-18 -8z M780 1258l6 -18l-16 -8zM1262 1444l-10 -26l-6 18z" />
<glyph unicode="&#xea;" d="M740 1044h286v-24h42l10 -12q6 0 15 -2t17 -4v-26h20l10 -14q8 0 30 -6v-28h20l10 -12q2 0 4 -1t4 -1l-2 -32h22l-14 -48h26v-24h20l-4 -46h20l-16 -70h26q-6 -42 -15 -75t-15 -73l-16 -10q0 -2 -4 -10h-78l-6 -24h-610v-10t-4 -14h-120v-10t-2 -14h-20l-22 -110h22 l-10 -48h26l-4 -46h18l12 -12q2 0 5 -1t5 -1l-2 -34h16l10 -12q6 0 16 -2t18 -4v-30h44l10 -10q16 0 37 -3t39 -5l12 -16l214 -12l6 26h146q0 10 2 20h70v10t2 14h70q0 14 2 24h50l12 -12q4 0 12 -2l-8 -38h-30v-9t-2 -15h-22v-10t-2 -14h-50q0 -10 -2 -20h-50v-11t-2 -15 h-96v-9t-2 -13h-92l-6 -26h-120v-9t-4 -13h-188l-10 12q-16 0 -38 3t-42 5l-10 14q-10 0 -25 4t-29 8v24h-42v26h-20l-12 10q-2 0 -5 1t-5 1l2 32h-40l-12 14q-2 0 -5 1t-5 1l12 54h-24v24h-18l12 48h-28l22 116h-22q8 48 18 87t18 83h20q4 22 12 55t12 61h24l8 46l16 8 q2 8 6 18t8 22h30l8 46l14 10q0 2 1 7t3 7h36v9t2 13h20q2 10 3 23t5 25l18 12q0 8 4 12h34v9t2 13h44l6 26h52v9t2 13h48v8t2 14h50v24zM1116 670h22l4 66h-16l12 46h-28l-10 12q-2 0 -5 1t-5 1l2 34h-20l4 46h-42l-10 12q-2 0 -4 1t-4 1l2 34h-70l-10 12l-214 10v-9 t-2 -13h-46l-6 -26h-30v-9t-2 -13l-14 -10q0 -2 -1 -8t-3 -8h-36q0 -10 -2 -20h-22v-10t-2 -16l-16 -10q0 -6 -6 -12h-30l-10 -46l-18 -8l-36 -150h422q0 10 2 20h208l6 26h26zM802 1146h-28l12 12l-6 8l-10 -12q-16 8 -18 10l10 12l-12 6t-14 8l34 38l-16 8l178 226l-16 14 h16v2h30l-2 -2l8 2v18l16 -14v12l30 -20l-30 -14v10l-8 -4l-8 4l2 -16l14 6l2 -8l22 10q24 -60 47 -114t45 -112l-10 -4l10 -36l-22 -12v-6l-24 -14v6l-16 -8v12l-24 -14l-12 30l14 8l-68 170l-130 -166q2 0 14 -8l-28 -32l18 -14zM1042 1132l-28 18l24 12l2 -6q4 2 7 4t7 4 l2 -34l-16 8zM732 1182l20 -18l-16 -14zM1118 1246l-12 -28l-6 18zM996 1208l6 -18l-16 -8zM956 1458l12 12l-12 4l-8 -10zM786 1158l8 -6l10 10l-8 6zM940 1470l-8 -8l8 -6l8 8z" />
<glyph unicode="&#xeb;" d="M726 1044h286v-24h42l10 -12q6 0 15 -2t17 -4v-26h20l10 -14q8 0 30 -6v-28h20l10 -12q2 0 4 -1t4 -1l-2 -32h22l-14 -48h26v-24h20l-4 -46h20l-16 -70h26q-6 -42 -15 -75t-15 -73l-16 -10q0 -2 -4 -10h-78l-6 -24h-610v-10t-4 -14h-120v-10t-2 -14h-20l-22 -110h22 l-10 -48h26l-4 -46h18l12 -12q2 0 5 -1t5 -1l-2 -34h16l10 -12q6 0 16 -2t18 -4v-30h44l10 -10q16 0 37 -3t39 -5l12 -16l214 -12l6 26h146q0 10 2 20h70v10t2 14h70q0 14 2 24h50l12 -12q4 0 12 -2l-8 -38h-30v-9t-2 -15h-22v-10t-2 -14h-50q0 -10 -2 -20h-50v-11t-2 -15 h-96v-9t-2 -13h-92l-6 -26h-120v-9t-4 -13h-188l-10 12q-16 0 -38 3t-42 5l-10 14q-10 0 -25 4t-29 8v24h-42v26h-20l-12 10q-2 0 -5 1t-5 1l2 32h-40l-12 14q-2 0 -5 1t-5 1l12 54h-24v24h-18l12 48h-28l22 116h-22q8 48 18 87t18 83h20q4 22 12 55t12 61h24l8 46l16 8 q2 8 6 18t8 22h30l8 46l14 10q0 2 1 7t3 7h36v9t2 13h20q2 10 3 23t5 25l18 12q0 8 4 12h34v9t2 13h44l6 26h52v9t2 13h48v8t2 14h50v24zM1102 670h22l4 66h-16l12 46h-28l-10 12q-2 0 -5 1t-5 1l2 34h-20l4 46h-42l-10 12q-2 0 -4 1t-4 1l2 34h-70l-10 12l-214 10v-9 t-2 -13h-46l-6 -26h-30v-9t-2 -13l-14 -10q0 -2 -1 -8t-3 -8h-36q0 -10 -2 -20h-22v-10t-2 -16l-16 -10q0 -6 -6 -12h-30l-10 -46l-18 -8l-36 -150h422q0 10 2 20h208l6 26h26zM584 1344v9t2 13h22v11t2 15h56l14 30l8 -10q-2 -10 -2 -20h44v-26h22l10 -12q2 0 4 -1t4 -1 q-4 -30 -11 -55t-11 -53h-22l-10 -46l-16 -10q0 -8 -4 -12h-60l-16 -36l-6 10q2 8 2 15v11h-50l14 46h-24l-10 12q-4 0 -12 2q4 28 11 54t11 54h28zM1108 1322l8 44h48v11t2 15h28l4 42l22 -22h-2q-2 -10 -2 -20h46v-26h20l10 -12q2 0 4 -1t4 -1q-6 -36 -13 -66t-13 -64h-20 l-6 -24h-28v-9t-2 -13l-16 -12q0 -2 -1 -7t-3 -7h-58v26h-44l14 46h-24l12 70h-24l8 30h26z" />
</font>
</defs>
</svg>
