<?xml version="1.0" standalone="no"?>
<!DOCTYPE svg PUBLIC "-//W3C//DTD SVG 1.1//EN" "http://www.w3.org/Graphics/SVG/1.1/DTD/svg11.dtd" >
<svg xmlns="http://www.w3.org/2000/svg" xmlns:xlink="http://www.w3.org/1999/xlink" version="1.1">
<metadata></metadata>
<defs>
<font id="jmh_typewriter_mono_blackIt" horiz-adv-x="1500" >
<font-face units-per-em="2048" ascent="1638" descent="-410" />
<missing-glyph horiz-adv-x="500" />
<glyph horiz-adv-x="0" />
<glyph unicode="&#xd;" />
<glyph />
<glyph />
<glyph unicode=" " />
<glyph unicode="!" d="M702 1514h26v20h24v18h264v-18h38l-2 -20h18v-42h20l-2 -60h16l-30 -186h-24l-28 -142h-18l-30 -138h-18l-28 -164h-26l-68 -366h-24l-2 -18h6l-2 -20h46l-14 -36v-6h16v-40h14l-4 -164h-34l-16 -82h-8v-20h-42l-4 -20h-26v-20h-70v-20h-186v20h-28v20h-42l8 24l2 16h-30 l54 306h26l8 22h6v20h22v20h32l14 60h-22l72 384h-18l32 160h-12l2 62h-14l62 350h20l14 58h10v22z" />
<glyph unicode="&#x22;" d="M294 1574h8v22h28v18h286l-2 -18h38l-2 -22h34l-52 -266h-22l-28 -160h-24l-42 -226h-12v-20h-24v-20h-206v20h-16v20h-32l18 102h-16l26 142h-20l26 142h-20zM876 1574h18v22h42v18h264v-18h36l-2 -22h38l-58 -288h-22l-18 -100q-8 -44 -20 -103t-18 -99h-20l-12 -62 h-12v-20h-24v-20h-206v20h-16v20h-34l22 102h-22l36 182h-16l22 122h-20z" />
<glyph unicode="#" d="M608 1434h18v80h42v20h204v-20h20v-202h20v122h18v80h24v20h38v18h166v-18h16v-20h22v-42h20v-162h-20v-102h-22v-42h-16v-82h-24v-100h-18v-18h204v-20h40v-22h18v-206h-18v-18h-122v-20h-182v-20h-22v-60h22v-18h202v-24h22v-18h16v-186h-16v-18h-42v-22h-222v-18h-42 v-64h-20v-58h-22v-124h-20v-140h-20v-62h-20v-62h-20v-40h-22v-18h-204v18h-18v244h-18v-122h-24v-82h-16v-40h-24v-18h-18v-22h-162v22h-42v40h-22v204h22v82h20v98h22v64h16v80h22v18h-242v22h-22v222h22v24h262v18h40v80h-40v20h-180v18h-24v228h24v20h280v20h22v82h20 v60h20v122h22v80h20v104zM790 704v96h-20v-58h-16v-82h-24v-102h-18v-102h-22v-78h-20v-82h-22v-102h20v60h18v102h22v62h18v102h24v102h16v82h24zM850 986v120h-20v-84h-18v-100h-20v-118h16v100h22v82h20zM648 94v96h-18v-80h-22v-96h18v80h22zM872 1108v58h-20v-58h20z M890 1208v40h-18v-40h18z" />
<glyph unicode="$" d="M796 1656h10v20h24v20h226l-2 -20h34l-28 -142h4l-2 -20h18l-2 -22h60l-2 -20h58l-2 -20h86l-12 -36v-4h16l-2 -20h20v-40h30l-62 -330h-14v-18h-44v-20h-166v20h-58v18h-14v42h-30l24 122h-28l6 24v16h-76v-18h-56v-22h-36v-20h-22v-20h-32l-6 -40h-22l-4 -18h2v-40h14 v-22h44l-8 -20h16l-2 -20h60l-2 -20h100l-2 -20h60l-2 -22h82l-8 -20h38v-20h38v-20h16v-20h18l-2 -20h38v-40h32l-6 -22h10l-2 -58h18l-16 -82h6l-4 -166h-34l-18 -102h-18l-8 -40h-22l-6 -40h-22l-6 -42h-32l-6 -18h-2v-24h-44v-16h-24v-24h-44v-18h-52v-22h-58v-18h-24 v-20h-36l-32 -184h-20l-28 -160h-22l-6 -42h-196v20h-16v22h-34l66 344h-24v20h-78v18h-104v22h-28v18h-38v24h-14v40h-30l64 326h22l14 60h30v22h164l-2 -22h38v-42h18l-2 -58h6v-42h10v-18h18l-2 -22h18l-2 -20h18l-2 -20h68l-6 -22h70q8 12 12 16l6 6h12v20h44v20h22v22 h28v18h28l8 42h22l4 16h-6v22h-38l8 22v18h-16v20h-38v20h-82l6 22h-36v20h-54v20h-78v20h-40v18h-36v24h-38v16h-36l6 24h-2v18h-16v22h-16v40h-12v42h-30l68 346h20l8 38h18l8 42h18q2 8 2 14v8h24l8 40h18q6 24 9 31t4 4t2 -14t1 -21h2l22 20v22h42l6 12q2 4 4 6h42 l22 20v20h44v22h32z" />
<glyph unicode="%" d="M350 1552h70v14q0 4 2 8h58v20h206l-2 -20h124l-8 -22h38l-2 -18h98l-2 -20h60l-2 -22h34l-4 -20h12l14 62h12v18h30q2 8 2 14v8h244l-8 -22h10l-38 -226h-20l-6 -38h-22l-6 -40h-24l-14 -62h-12v-20h-30l-12 -60h-18l-8 -42h-22l-6 -42h-20l-14 -60h-18l-6 -40h-24 l-12 -60h-14v-20h-32l-10 -60h-22l-10 -64h-20l-6 -38h-24l-12 -62h-18l-6 -40h-24l-6 -40h-20l-6 -42h-22l-6 -38h14l8 22h26v20h26v20h366l-2 -20h58l-2 -20h44l-10 -30l-2 -10h20v-42h34l-18 -62h18l-50 -264h-22l-4 -42h-20l-6 -40h-30l-6 -20h-4v-20h-26v-22h-42v-18 h-56v-22h-320l6 22h-18v18h-38v22h-16v20h-18v40h-12v40h-26l58 304h-14l-12 -58h-18l-6 -42h-24l-12 -64h-22l-12 -58h-20l-14 -60h-14l-6 -42h-26l-12 -60h-18l-6 -42h-16v-18h-36l-4 -22h-214l6 22h-12l56 284h16l6 42h24l8 40h12v20h34l16 82h18l6 40h22l6 40h22l8 42 h22l14 58h16l8 42h20l14 62h18l8 42h22l14 58h18l8 42h20l8 40h20l6 40h22l8 40h20l14 62h16l4 18h-22v-20h-54v-22h-38v-16h-284v16h-56l4 22h-20v20h-16v18h-18v22h-14v20h-26l2 62h-18l56 286h20l12 60h12v20h22v22h24v20h26v18zM924 232l-2 -16l-2 -22h20l-2 -18h18v18 h52l4 20h-2v40h-14v20h-16v-20h-26v-22h-30zM534 1250h24v22h28v16h-28v22h-16v-22h-16v-20h-32l-2 -18h4l-2 -20h40v20zM886 1230l2 18h-32l-14 -82h10l12 64h22zM716 418h10l6 38h-10zM690 378h6l2 16h-6zM888 1248l2 20h-2v-20zM764 1026l2 18h-2v-18z" />
<glyph unicode="&#x26;" d="M618 1446q2 4 4 6h20v20h102v20h246v-20h80v-20h44l-6 -18h14v-42h28l-44 -226h-10v-20h-46v-20h-206v20h-16v20h-58v-20h-24v-20h-22v-18h10l-2 -20h18v-40h14l-2 -22h46l-12 -40h14l-2 -20h20v-20h14l-2 -22h28l-2 -20h8v-20h20v-40h14v-20h16l-2 -20h18l-2 -20h18v-40 h12l-2 -24h20l-2 -16h2l8 40h22l8 40h16v20h402l-52 -266h-34v-22h-42v-20h-44v-18h-34l-12 -62h-20l-12 -60h104l-2 -20h40v-40h14l-4 -164h-36l-12 -82h-14v-20h-50q-2 -8 -2 -13v-7h-36v-20h-224v20h-64v20h-10v20h-18v-20h-52v-20h-36v-20h-76v-20h-382l6 20h-38v20h-44 v20h-30v20h-36v22h-16v20h-18v18h-34l6 22h-2v42h-14v40h-14v40h-10v42h-32l76 386h20l8 38h20l6 42h30l6 22h6v20h26v20h20v20h26v20h62l24 20v20h30v42h-22l2 58h-20l58 284h18l8 42h20l8 40h16v22h42v-2l26 22v22h40zM418 478v-38h2v-42h14l-2 -20h46l-14 -48v-14h36 l-2 -20h18l-2 -20h84l-8 -22h26v14q0 4 2 8h58v20h44l24 20v20h24v18h-12v40h-14v42h-8v20h-20v40h-10v20h-20v22h-16v40h-12v20h-16v20h-40l8 32v10h-18v-20h-52v-22h-16v-20h-24v-20h-34l-6 -40h-24l-12 -60h-4z" />
<glyph unicode="'" d="M580 1590h42q2 4 3 7t3 7t4 6h40v22h204v-22h86l-8 -20h16v-40h28l-42 -206h-18l-24 -124h-22l-12 -66l-48 -256h-14v-20h-24v-20h-246v20h-14v20h-32l22 122h-20l40 200h-24l22 104h-18l44 244h12v22z" />
<glyph unicode="(" d="M890 1552h50v14q0 4 2 8h16v20h226l-2 -20h44l-8 -22h14l-38 -202h-20l-6 -40h-46v-22h-16v-20h-22v-20h-24v-22h-26v-18h-38l-6 -22h-2v-20h-24v-20h-26v-20h-26q-2 -12 -2 -25v-17h-38l-6 -20h-10l-6 -42h-22l-6 -38h-26l-4 -38h-24l-4 -42h-22l-16 -82h-22l-16 -104 h-24l-8 -44l-22 -102l-4 -32h14l-14 -100h4v-42h36l-18 -62h4v-40h12v-42h12l-2 -18h18v-42h14v-18h34l-6 -24h4v-38h12v-20h14l-2 -22h22l-2 -18h58l-10 -32v-8h22v-42h12l-2 -22h36l-44 -222h-32v-22h-206v22h-18v18h-16v22h-44l12 38h-16v20h-14v22h-20v20h-14v20h-26v22 h-6v18h-20v22h-14v20h-18v40h-38l10 30v32h-12v38h-34l6 22v18h-14v40h-22l4 64h-22l14 82h-2v42h-30l40 200h-20l40 206h20l30 140h16l14 82h24l12 62h14v20h34l12 62h8v16h30l8 42h22l8 42h12v22h26v16h22v24h26v18h30l6 40h16v22h24v20h24v22h38l8 18h6v20h26l8 42h16v20 h24v18z" />
<glyph unicode=")" d="M630 1594h12v22h226v-22h18l-2 -20h24l-2 -22h12v-18h18l-2 -20h18l-2 -22h40v-40h40l-14 -34v-6h16v-20h16l-2 -22h22l-2 -18h14v-40h14l-2 -24h18l-2 -16h20v-42h32l-6 -22h2v-42h12v-38h38l-10 -36v-24h32l-18 -82h18l-24 -122h24l-96 -486h-22l-10 -64h-20l-6 -40 h-24l-12 -60h-18l-6 -40h-24l-6 -42h-24l-6 -22h-14l-6 -38h-16v-22h-32l-8 -40h-10v-20h-42l-6 -20h-2v-20h-26v-22h-22v-18h-36l-6 -22h-8v-20h-22v-20h-26v-22h-22v-20h-26v-20h-30l-8 -40h-14v-18h-66v-22h-184l2 22h-20v40h-32l48 164h8l6 40h14v18h24v24h26v18h52v22 h16v18h32l8 42h26l6 22h4v16h30l8 42h16v22h24v20h30l10 40h16l8 40h22l4 40h26l6 42h20l18 82h18l14 78h20l14 66q4 20 7 32l6 24t6 25t7 37h-14l2 58h-22l18 86v36h-40l20 62h-2v38h-10v42h-40l10 28v34h-14v20h-14v20h-20v20h-40l8 24v38h-10v20h-38v20h-46l12 38h-16v24 h-30z" />
<glyph unicode="*" d="M152 1230h18l6 42h16v16h266l-2 -16h38v-22h36l-2 -20h60l-8 -22h24v-20h4l20 100h-20l52 264h24l8 22h6v20h264l-2 -20h46l-2 -60h4l-4 -164h-34l-16 -82h-20l-16 -80h8v20h52v22h58l24 20v22h24v16h244v-16h18l-2 -22h18v-42h30l-40 -204h-22l-6 -42h-14v-16h-148v-24 h-102v-18h-86v-20h12l-2 -20h18l-2 -20h20v-20h14l-2 -20h22v-20h32l-6 -22h4l-2 -18h18v-40h28l-32 -188h-16v-20h-30l-6 -40h-34v-20h-228v20h-14v22h-18v38h-12v22h-18v40h-10v40h-20l2 62h-2v20h-20v18h-4l-4 -38h-22l-6 -40h-22l-8 -42h-20l-6 -40h-24l-12 -62h-18 l-6 -40h-34v-20h-228v20h-36v22h-24l2 60h-24l40 166h14l8 40h16v18h34l6 22h6v20h26v20h24v20h24v20h24v20h22v20h10v18h-160v24h-76v16h-58v42h-28zM620 1186l-2 -20h8l2 20h-8z" />
<glyph unicode="+" d="M720 1392h14v22h44v18h184v-18h18l-2 -22h18l-2 -20h34l-90 -450h-12v-16h34l-4 -24h470v-18h12l-2 -22h38l-42 -204h-20l-6 -40h-76v-18h-284v18h-120v-18h-52l-30 -146h-18q0 -4 -1 -8t-1 -8h18l-62 -328h-12v-20h-26v-18h-44v-22h-164v22h-38v38h-30l94 466h-2v24h-80 v18h-422v40h-30l38 166h14l8 38h14v22h126v18h394l30 148z" />
<glyph unicode="," d="M640 294h54l22 20v22h204l-2 -22h20l-2 -20h58l-6 -22v-40h30l-70 -368h-22l-8 -42h-10v-16h-36l-6 -22h-8v-20h-24v-22h-24v-18h-24v-20h-38l-6 -20h-6v-22h-42v-20h-166l2 20h-38v42h-10l4 164h28l6 40h16v20h30l6 40h30l6 18h-22l2 62h-12l26 184h24z" />
<glyph unicode="-" d="M390 786h12v18h62v22h648l-2 -22h20l-2 -18h34l-44 -244h-22l-6 -42h-76v-20h-626v20h-18v18h-34z" />
<glyph unicode="." d="M602 294h8v20h84v22h162l-2 -22h80v-20h36l-6 -22h2v-40h16v-42h36l-50 -164h-14l-10 -58h-12v-22h-24v-18h-38l-6 -22h-4v-20h-26v-22h-204v22h-56v20h-44v22h-10v18h-16v40h-24l24 186h26l16 82h12v18h38z" />
<glyph unicode="/" d="M1038 1550h14l8 40h24q2 8 2 13v7h248l-16 -42h34l-46 -224h-16q-2 -14 -2 -25v-15h-26l-6 -42h-22l-8 -42h-22l-8 -60h-26l-12 -58h-20l-4 -42h-26l-10 -62h-16q-2 -12 -2 -25v-17h-30l-6 -40h-22l-14 -78h-20l-12 -62h-22l-12 -60h-20l-6 -40h-22l-12 -62h-18l-14 -62 h-18l-6 -40h-24l-12 -60h-22l-12 -64h-18l-6 -38h-24l-12 -80h-22l-4 -42h-26l-6 -40h-22l-16 -80h-18l-10 -62h-24l-10 -62h-22l-12 -80h-26l-12 -84h-12v-16h-24v-22h-66v-20h-166l2 20h-16l2 22h-38l42 204h20l14 80h20l14 60h18l14 64h18l14 58h20l8 42h20l6 38h24 l12 66h18l12 58h22l12 60h18l12 62h22l8 42h18l6 40h22l14 60h18l20 82h16l14 60h18l6 38h22l12 64h22l14 60h18l14 60h18l14 62h16l6 40h24l12 62h22l12 60h20l12 60h18l12 62h20l8 38h20z" />
<glyph unicode="0" d="M596 1516h82q2 4 3 7t3 7t4 6h40v22h326l-2 -22h108l-14 -34v-8h36v-16h18l-2 -24h18v-18h36l-8 -22h2l-2 -20h22l-2 -18h16v-42h32l-12 -60h2v-42h28l-20 -102h20l-22 -122h22l-98 -490h-22l-22 -122h-20l-12 -58h-20l-14 -60h-10v-22h-32l-4 -40h-24l-6 -40h-16v-22 h-20v-20h-32l-6 -40h-48v-20h-14v-22h-22v-20h-24v-16h-86v-24h-266v24h-98v16h-36v20h-38v22h-42l6 20h-14v22h-18v18h-18v20h-14v42h-12v40h-16v42h-20l2 60h-6l2 58h-22l30 146h-20l80 426h20l10 50l26 132h24l12 62h16l12 62h18l8 40h22l8 40h14v22h30l6 38h28l4 22h10 v18h22v24h28v16h20v22zM896 584h16l32 148l34 172v6l10 54h-22l14 82h-26l20 64h-2v40h-10v40h-16v20h-14v22h-20v18h-34v20h-38v-20h-46v-18h-20v-22h-28v-20h-30l-4 -40h-24l-8 -40h-20l-12 -64h-24l-12 -82h-22l-28 -160h-26l-24 -120h24l-24 -122h22l-18 -80h24l-14 -60 h2l-2 -22h18v-42h14v-16h24l-2 -24h8l-2 -18h40l-2 -22h20v2l24 20v18h52v24h20v16h22v24h24v18h30l12 62h18l8 40h24z" />
<glyph unicode="1" d="M524 1516h246q2 4 3 7t3 7t4 6h80v22h224l-2 -22h48l-8 -20h10l-140 -718l-22 -122l-24 -122l-36 -174h-18l-4 -22h2v-40h14v-18h16l-2 -22h300l-2 -18h36l-42 -244h-906v16h-56l46 228h14v18h40v22h208v18h30l18 80v-2q2 20 5 31t5 21t5 22t7 30h-24l46 226h18l20 98 h-20l64 326h18q4 22 8 36t10 46h-286v38h-32l40 208h16v16h20v22z" />
<glyph unicode="2" d="M648 1516h60l8 20h64v22h324l-2 -22h88l-8 -20h14l-2 -22h20v-16h16l-2 -24h20v-18h34l-6 -22h4l-2 -20h18l-2 -18h16v-42h22l-2 -60h18l-62 -310h-18l-8 -58h-26l-12 -60h-14l-8 -42h-16v-22h-24v-18h-20v-20h-34l-8 -42h-14v-20h-24v-22h-22v-18h-32l-8 -42h-16v-16 h-24v-24h-22v-18h-34l-8 -42h-12v-20h-24v-20h-24v-22h-20v-20h-40l-6 -22h-6v-16h-26v-24h-22v-18h-24v-20h264v24h36v16h188l-2 -16h56l-48 -226h-20l-12 -64h-10v-20h-46v-16h-348v16h-14v-16h-530v16h-20v20h-32l46 226h16l6 40h24q2 8 2 14v10h16v16h24v24h24v18h24v22 h40l6 20h2v20h32l4 40h16v20h24v20h36l8 20h6v22h22v20h26v20h24v20h32l6 40h14v22h24v20h26v20h36l8 20h10l6 38h14v22h26v20h30l6 40h16v24h28l8 40h24l8 40h20l14 60h18l14 60h16l10 40h-2v40h-12v20h-18v22h-18v18h-16v20h-78v-20h-26v-18h-22v-22h-24v-20h-30l-18 -104 h-24l-8 -40h-14v-18h-26v-22h-220v22h-20v18h-32l46 228h18l14 60h14v20h26l8 40h16v20h36l6 22h4v18h26v24h22v16h26v22z" />
<glyph unicode="3" d="M660 1494h46v22h120q2 6 5 12t3 8h194l-8 -20h74l-2 -22h58l-2 -16h38l-2 -24h40v-18h38l-6 -22l-2 -20h20v-40h12l-2 -20h32l-14 -82h20l-64 -326h-20l-12 -62h-18l-6 -40h-16v-20h-6v-18h14l-2 -20h46l-12 -36v-24h16v-42h22l-14 -80h26l-52 -268h-22l-14 -60h-18 l-12 -60h-20l-6 -42h-22l-6 -38h-16v-22h-32v-20h-14v-22h-26v-20h-22v-16h-46v-24h-64v-18h-72v-24h-448v24h-50v18h-34v24h-38v16h-38v20h-18v42h-10l4 166h22v18h26v22h204l-2 -22h40l-2 -18h38l-2 -22h108l-8 -20h44v20h78v2l24 20v18h24v22h26v18h28l8 40h22l6 42h22 l12 62h24q0 2 1 1l1 -1v4t2 14h-32l18 62v18h-20v40h-50l4 22v20h-36v18h-162v22h-12v20h-36l42 208h12v16h124v24h66v18h50l8 40h20l8 42h22l8 40h18v38h-14v40h-32l6 22h-4v20h-16v22h-18v18h-36v-18h-22v-22h-28v-20h-30l-4 -40h-24l-8 -40h-12v-24h-24v-18h-246v18h-28 l38 228h18l14 62h14v18h30l8 42h16q6 24 9 31t4 4t2 -14t1 -21h2l22 18v24h44v16z" />
<glyph unicode="4" d="M818 1558h26v18h24v22h162l-2 -22h60l-2 -18h30l-42 -246h-20l-6 -42h-24l-6 -38h-22l-6 -42h-22l-6 -40h-24l-6 -22h-16l-12 -60h-22l-4 -40h-20l-6 -42h-20q-2 -12 -2 -23v-15h-28l-8 -42h-22l-6 -42h-22l-6 -40h-24l-6 -42h-20l-6 -38h-22l-8 -42h-14v-20h-32l-6 -40 h-20l-6 -42h-18v-16h-26l-2 -22h222v22h70l8 40h22l72 366h14v18h24v22h204l-2 -22h20v-18h32l-76 -386h4l-2 -20h18l-2 -22h186l-10 -28v-32h16l-4 -164h-28v-22h-22v-18h-178v-20l-24 -2v-4l-32 -178h-20q-4 -22 -9 -43t-7 -35h-10v-24h-26v-18h-204v18h-44l2 60h-10 l14 134l22 112h-552v18h-36v40h-30l56 288h18l14 62h14v20h30l6 40h22l6 38h16v22h30l8 42h20l8 42h22l6 40h22l6 40h22l12 60h20l8 40h18l8 40h20l8 42h20l8 40h22l12 62h24l8 20h14l12 60h18l12 60h22l8 40h18l8 40h22l8 42h12v22z" />
<glyph unicode="5" d="M574 1494h30v22h506l4 12t2 8h212l-8 -20h30l-42 -246h-16v-20h-46v-18h-406v-22h-32l-18 -82h-22q-2 -10 -4 -18t-4 -20h56l-6 -18h236v-22h38l-2 -20h38l-2 -22h22l-2 -18h54l-6 -22h2v-18h18l-2 -24h18v-40h40l-12 -32v-28h12v-40h32l-16 -80h2l-2 -164h-14 q-2 -22 -2 -45v-37h-34l-20 -122h-24l-6 -40h-20l-8 -42h-14v-20h-32l-12 -60h-14v-22h-22v-20h-34l-6 -40h-28l-6 -20h-24v-22h-20v-20h-46v-16h-46v-24h-84v-18h-448v18h-76v24h-38v16h-18v20h-34l40 208h16v18h244l-2 -18h80l-2 -22h22v22h64v18h62v2l24 20v18h52v24h18 v16h24v24h28l8 40h28v20h18l6 40h22l20 102l8 38h-2v38h-12v22h-18v40h-44v22h-4v20h-18v18h-36v22h-80v-22h-266v42h-28l76 388h18z" />
<glyph unicode="6" d="M886 1516q2 4 3 7t3 7t4 6h20v22h126v18h204l-2 -18h52l-44 -246h-34v-22h-114v-20h-76v-20h-46v-18h-24v-22h-44v-20h-32v-22h-14v-18h-32l-6 -40h-16v-24h-24v-18h-32l-6 -38h264l-2 -22h62v-18h32l-6 -22h26l-2 -18h38l-2 -24h16v-16h20l-2 -24h42l-6 -18h22l-20 -64 h2l-2 -18h36l-14 -80h18l-40 -190q0 -16 -1 -49t-1 -49h-32l-24 -120h-22l-12 -62h-18l-6 -40h-24l-8 -42h-12v-20h-32l-6 -40h-46v-20h-32v-22h-26v-20h-22v-16h-44v-24h-86v-18h-284v18h-80v24h-36v16h-38v20h-18v22h-42l12 34v26h-14v20h-16v42h-10v40h-14v42h-32l16 78 h-18l22 104h-24l78 408h20l20 100h22l20 82h18l14 60h16l14 62h16l8 40h22l8 40h14v22h30l8 40h26l8 20h4v20h26v22h24v18h20v20h40l6 22h10q6 24 9 31t4 4t2 -14t1 -21h2l22 18v24h26v16h64v22h60zM552 542q-4 -10 -10 -40h16l-2 -60h4v-42h10v-42h12v-16h36l-6 -24h2v-18 h20l-2 -22h16l-2 -18h62l22 18v22h26v18h36l6 24h12l8 40h14v18h32l12 62h18q6 38 12 65t16 73h-22l6 22h-4v38h-10v22h-18v20h-38v20h-76v-20h-46v-20h-24v-22h-24v-18h-24v-20h-34l-6 -38h-20l-6 -42h-24zM732 1008v20h-4l-4 -20h8z" />
<glyph unicode="7" d="M316 1478h16q10 24 12 16t2 -16h4l20 16v22h204l-2 -22h84v22h566v-22h20v-16h14l-2 -24h36l-50 -264h-22l-6 -40h-20l-6 -40h-22q-2 -14 -2 -26v-16h-30l-12 -82h-26l-12 -60h-16l-6 -42h-22l-6 -38h-22l-8 -42h-20l-6 -40h-22l-8 -42h-22l-10 -80h-26l-14 -58h-10v-24 h-32l-8 -42h-20l-8 -58h-26l-12 -64h-20l-12 -58h-20l-16 -82h-10v-20h-32l-18 -102h-22l-6 -40h-24l-12 -62h-10v-16h-32l-4 -42h-30l-4 -24h-30v-16h-202v16h-26v24h-18l40 244h20l6 42h22l8 40h22l14 58h16l8 42h22l10 62h22l6 40h20l8 40h24l12 62h16l8 40h20l14 62h18 l8 40h22l14 58h18l8 42h20l12 64h20l6 40h16v18h32l14 62h18l14 60h16l8 40h20l8 42h22l8 38h-550v22h-18v38h-28z" />
<glyph unicode="8" d="M644 1536h46v22h64v18h326l-2 -18h80l-2 -22h66l-8 -20h16l-2 -22h18l-2 -16h20v-42h18l-2 -22h10v-38h14v-42h30l-68 -348h-20l-6 -38h-20l-8 -42h-16v-22h-22v-20h-24v-18h8v-20h20l-2 -22h18l-2 -18h20v-40h10l-2 -20h20v-42h28l-16 -80h22l-52 -266h-24l-12 -82h-22 l-6 -40h-14v-20h-36l-6 -20h-8v-22h-22v-20h-26v-18h-22v-22h-40l-6 -20h-4v-22h-46v-20h-42v-16h-128v-24h-244v24h-136v16h-36v20h-38v22h-48l14 42h-14v18h-18v20h-16v42h-12v40h-12v20h-30l16 100h-20l40 206h20l16 102h24l6 42h20l6 40h28l8 20h6v20h22v18h44v22h24v20 h-10v38h-14v22h-22l2 58h-28l18 64h-18l42 246h26l12 60h20l12 60h18l6 42h14v18h28q6 24 10 31t5 3t2 -14t1 -18l24 22v-4l24 20v22h38zM704 642h-44v-20h-32v-22h-18v-16h-28l-6 -42h-24l-8 -42h-20l-12 -58l2 32l-4 -32h6v-42h12v-42h12v-16h36l-6 -24h2l-2 -18h60 l-2 -22h60v22h42v18h56v24h16v16h28l8 42h16v22h30l12 48q2 4 3 10t3 20h-6v42h-12v42h-12v16h-36l6 22h-22v20h-36v18h-80v-18zM932 1090h24l4 40h18l14 66v14h-18v40h-14v20h-60l6 20h-68v-20h-36v-20h-24v-18h-24v-22h-34l-12 -60h-16v-40h14l-2 -20h48l-14 -34v-6h16 v-20h38l-2 -22h40v22h42v20h52z" />
<glyph unicode="9" d="M580 1516h64l8 20h80v22h266l-2 -22h88l-6 -20h34l-2 -22h38v-16h16l-2 -24h40l-2 -18h20v-42h10l-2 -18h20v-42h12v-40h14v-42h24l-18 -102h22l-98 -508h-24l-16 -82h-18l-14 -80h-24l-14 -84h-20l-6 -40h-22l-6 -40h-14v-18h-32l-8 -42h-12v-20h-30q-2 -14 -2 -25v-15 h-36l-6 -20h-2v-22h-26v-20h-24v-18h-26v-22h-38l-4 -20h-26v-22h-42v-20h-46v-16h-46v-24h-62v-18h-94v-24h-194l6 24h-64v42h-16l4 162h30l8 40h46v20h76v22h62v18h86v2l24 20v18h50q2 12 4 23t4 17h18v24h42v18h24v22h32l8 40h18l8 40h20l4 16h-304l6 24h-46v18h-36v24 h-14v16h-38l6 22h-2v20h-18v18h-14v42h-14v42h-10v38h-36l18 64h-18l70 366h20l12 62h20l14 60h14l8 42h14v18h32l6 42h36v-2l24 20v24h24v16h42v22zM604 1006l-12 -56h6l-2 -24h18v-40h40l-14 -40h38l-2 -20h38v-22h18v2l24 20v20h24v22h38l8 18h30q2 12 4 23t4 17h16v24 h22v18h28l12 48l16 70h-6v42h-8v40h-16v42h-12v22h-16v18h-38v20h-38v-20h-44v-18h-42v-22h-24v-20h-34l-4 -40h-26l-4 -22h-20l-16 -100l-4 -22h-2z" />
<glyph unicode=":" d="M518 250h20l8 38h32v22h206l-2 -22h58l-2 -18h40v-42h30l-44 -224h-14v-20h-38l-6 -22h-4v-18h-286v18h-40l8 22h-6l2 60h-4l2 164h32zM636 836h10v20h36l8 22h272l-14 -38v-4h48l-2 -60h28l-50 -164h-12l-12 -62h-10v-20h-44v-20h-266v20h-16v20h-24l2 62h-28l50 164h10 z" />
<glyph unicode=";" d="M772 -218q-16 -34 -54 -40q-8 -16 -18 -24t-26 -12q-6 -4 -16 -10t-18 -8q-16 -22 -34 -24t-36 0q-20 4 -46 18l32 -18q-52 -10 -78 22h-46l24 134q-12 52 3 67t47 17q10 10 26 14l2 4q8 32 40 42q-12 12 -12 28q-12 12 -20 34l6 56q-4 2 -8 14q-8 38 2 61t26 33l4 20 q4 24 17 48t35 30l20 14v30h92q24 10 43 2t29 -24q34 4 60 0t36 -36q12 -2 19 -9t11 -17q10 4 19 7t19 7l-26 -94h24l-34 -170q14 -46 -2 -65t-50 -23l-6 -4q-4 -24 -14 -36t-24 -18l-16 -14q-4 -18 -14 -28t-24 -16q-4 -2 -8 -6zM692 864q6 12 14 15t22 5q0 12 1 23t1 15 h122q42 16 62 8t30 -26q32 -2 52 -11t20 -43q12 6 24 11t28 11l-48 -232q4 -34 -4 -49t-24 -25q-12 -24 -36 -32q-10 -16 -24 -20v-38h-90q-10 -16 -28 -17t-36 -1h-10q-34 -6 -58 -5t-36 19q-26 8 -32 36q-16 14 -20 30q-10 10 -12 23t-2 33q-10 -2 -20 -2h-20l28 108 q-4 24 5 41t23 29q-4 28 7 42t29 24q10 22 32 28zM472 -248l64 -24q16 20 17 33t-8 20t-25 6t-34 -9zM834 548q-10 10 -27 10t-27 -10l28 -64zM840 222l2 28l-24 -26q2 -10 12 -14q0 -18 26 -24l32 34zM884 576q-16 6 -24 -1t-14 -17l28 -32l10 42v-32l18 56l-18 6v-22h2 l-2 -8v8zM680 634q-4 0 -10 -1t-14 -9l2 -8l-26 -22l12 -14l22 16l14 -30v40l14 10q-2 4 -5 8t-9 6v4zM668 -200l50 -20l-32 50q-16 -4 -18 -18h10l2 -4l-12 4v-12zM612 -64l28 -32q10 6 16 12t2 24zM582 116l50 -18q6 10 1 19t-15 17zM596 -234q-18 -12 -18 -24l54 -12z M798 -70q-10 0 -20 -10l20 -44v54zM658 616l8 -20l14 10v24q-2 0 -2 1t-2 1zM712 544l16 -8h16q-2 2 -2 5t-2 7t-4 6zM532 -164l10 -14q8 4 15 10t5 10zM840 222v-14q-6 0 -10 2q0 4 4 12h6zM690 536h30l-18 4zM624 640q-4 -4 -6 -8q-4 -8 -4 -18zM734 532l12 -8q2 2 2 4z " />
<glyph unicode="&#x3c;" d="M388 694q-2 10 -3 20t-1 14l586 378l8 -30l58 28l4 -18l6 6l98 -238l-16 -8l6 -16l-16 -10l6 -16l-256 -134v4l-84 -58l10 -10q10 -10 14 -16t9 -11l11 -11l18 -18l8 6l188 -122l-6 -16l20 -8l-12 -18l16 -8l-172 -224l-12 10l-8 -14l-50 22l-20 -28l-442 382l4 42z" />
<glyph unicode="=" d="M590 1022v-20h202v20h266l-2 -20h302l-2 -20h34l-40 -206h-20l-6 -40h-116v-20h-594l-4 -18h688v-42h30l-42 -204h-10v-22h-554v-18h-266v18h-300v22h-14v20h-32l32 184h14v22h26v20h232v18h-180v20h-38v40h-26l30 184h16v22h24v20h126v20h224z" />
<glyph unicode="&#x3e;" d="M1110 566l18 -34l-598 -388l-10 28l-54 -22l-10 26l-12 -6l-88 224l8 6l-4 16l20 8l-6 22l234 120l4 -8l102 74l-8 8h2l-58 56l-4 -4l-208 134l8 10l-4 2l12 16l-16 8l172 224l10 -10l12 14l46 -16l18 30l448 -388l-4 -34z" />
<glyph unicode="?" d="M962 1532v-18h78l-2 -24h18v-16h54l-6 -24h4l-2 -18h20v-18h16l-2 -22h20l-2 -20h42l-18 -62h14l-54 -308h-22l-12 -58h-20l-6 -42h-22l-6 -40h-16v-20h-24v-22h-24v-18h-24v-20h-24v-22h-38l-6 -20h-10l-6 -42h-16v-18h-24v-20h-34l-6 -40h-18l-6 -40h-26l-28 -146h-10 v-16h32l-2 -22h40v-40h12v-40h28l-38 -204h-20l-6 -42h-24l-6 -40h-34v-18h-328v18h-18v22h-30l56 286h10v18h30l10 40h36v22h4v16h-34l54 268h18l14 62h20l8 40h12v20h32l6 40h22l8 42h40l8 42h16v16h22v22h32l8 42h18l8 40h22l6 42h22q0 4 1 7t1 7h-24l20 62h-6v42h-32v20 h-38v-20h-26v-22h-28l-8 -42h-24l-28 -162h-14v-18h-38l-6 -20h-256l10 38h-32l56 288h14v20h28l8 40h24l6 42h14v22h30l8 36h44v24h36v16h26v24h62v18h306z" />
<glyph unicode="@" d="M494 1534h62v18h82v22h224v-22h184v-18h60v-20h42v-22h16v-20h24v-20h40v-18h20v-22h22v-42h18v-18h22v-64h18v-58h24v-122h16v-162h-16v-104h-24v-100h-18v-62h-22v-102h-18v-20h18v-38h40v-20h40v-20h22v-226h-38v-22h-248v22h-58v-22h-22v-18h-306v18h-60v22h-40v20 h-20v22h-20v18h-22v22h-20v18h-20v40h-22v102h-18v208h18v100h22v80h20v40h20v42h22v20h20v20h20v20h20v22h20v20h60v20h62v20h266v-20h16v38h-20v40h-20v20h-20v22h-18v18h-24v22h-38v20h-60v20h-64v22h-14v-22h-82v-20h-42v-20h-38v-22h-24v-18h-18v-22h-24v-20h-16v-20 h-20v-20h-22v-42h-18v-40h-22v-40h-20v-42h-20v-40h-22v-80h-20v-362h20v-82h22v-82h20v-40h20v-40h22v-20h18v-40h22v-24h20v-16h16v-22h24v-20h18v-22h40v-18h22v-22h20v-18h42v-24h38v-18h64v-22h446v-222h-22v-22h-84v-20h-158v-22h-184v22h-124v20h-80v22h-62v18h-40 v22h-22v18h-38v20h-22v20h-40v22h-18v20h-22v20h-18v22h-22v18h-20v22h-22v20h-18v40h-24v20h-16v42h-24v60h-18v42h-22v100h-18v120h-22v552h22v80h18v82h22v42h18v58h24v42h16v38h24v24h18v18h22v40h20v22h22v20h18v22h22v18h18v20h40v20h22v22h38v20zM984 582h18v100h20 v76h-20v24h-18v18h-24v22h-16v20h-42v-20h-18v-22h-42v-18h-18v-24h-22v-16h-18v-42h-24v-118h24v-42h18v-20h22v-20h18v-20h38v20h42v20h38v38h24v24z" />
<glyph unicode="A" d="M830 1446h30v20h26v20h202l-2 -20h22l-2 -20h16v-40h36l-18 -62h4v-40h36l-20 -62h12l-2 -60h10l-2 -62h12l-2 -60h26l-20 -62h12l-2 -58h10l-4 -64h6v-40h10v-40h16v-40h28l-18 -80h6v-42h10v-42h28l-14 -80h2v-40h22l-2 -60h4v-40h10v-42h14v-40h34l-2 -22h56l-2 -18 h56l-46 -228h-10v-18h-568v18h-76l38 204h28l6 24h68v18h42l20 60h-4v40h-14v18h-36l6 24h-312v-24h-28l-10 -78h-26v-40h120l-2 -18h34l-40 -204h-12v-24h-226v-18h-348v18h-54l46 228h14v18h42v22h42v18h38l6 22h12l10 58h18v24h30l12 60h20l12 60h20l12 60h20l8 42h20 l8 42h20l8 40h20l16 80h20l8 40h18l8 40h24l12 64h18l6 40h24l12 60h20l18 80h16l12 62h22l12 60h18l6 40h24l18 82h18zM750 692l-2 -16h144v18h14l8 38h-30l18 62h-22l12 64v38h-16v-20h-30l-14 -82h-22l-6 -42h-22l-14 -60h-18z" />
<glyph unicode="B" d="M394 1424h10v22h730l-2 -22h102v-18h62l-10 -28l-2 -14h40v-40h34l-8 -24v-38h30l-22 -102h8l-4 -164h-36l-14 -80h-20l-6 -40h-22l-8 -42h-12v-20h-24v-18h12l-2 -20h38v-20h26l-2 -20h6v-20h20v-40h14l-2 -22h42l-18 -62h16l-64 -326h-14q-2 -12 -2 -24v-16h-30l-6 -42 h-22l-6 -38h-18v-22h-20v-20h-40l-6 -20h-26v-22h-22v-16h-46v-24h-44v-18h-84v-22h-186v22h-78v-22h-264v22h-240v18h-34l38 204h28l6 24h26v18h62v22h26v18h30l62 306l112 544h-50l6 24h-82v18h-38zM932 372h22l8 40h20l10 40h4l2 16h-6v42h-12v22h-16v18h-16v22h-18v18 h-58l6 24h-20v16h-78v22h-38v-22h-34l-16 -94q-8 -36 -14 -64t-11 -55t-11 -57l-14 -70h4l-2 -22h60l-2 -18h60v18h64v2l24 20v18h32q2 6 2 12v10h44zM962 980q2 4 2 6t2 6q0 4 2 6h6l8 42h20l8 40h8l2 38h-4v22h-18v18h-54l6 24h-112l-6 -42h-26l-36 -200h2v-24h60v24h44 v18h22v22h64zM1030 1054l2 2h-2v-2z" />
<glyph unicode="C" d="M600 1424h46v22h64v20h368l-2 -20h100l-2 -22h180l-2 -18h16v-42h28l-32 -182h-24q-4 -16 -6 -28t-6 -34h18l-32 -184h-14v-20h-22v-20h-228v20h-14v40h-28l18 102h-2v40h-14v20h-16v22h-16v18h-58l6 24h-92v-24h-36v-18h-46v-22h-24v-20h-22v-20h-36l-6 -40h-12v-22h-32 l-6 -38h-22l-12 -62h-20l-16 -82h-22l-28 -148l-22 -114h24l-16 -78h26l-20 -64h2l-2 -18h22v-40h8l-2 -22h22v-20h34l-6 -22h24l-2 -18h38l-2 -22h40l-2 -18h40v18h64v2l24 20v18h38l6 22h10l6 42h18v16h32l16 84h20l12 60h22l8 20h4v20h208l-2 -20h56l-82 -406h-14v-22 h-22v-20h-40l-4 -20h-28v-22h-22v-16h-44v-24h-44v-18h-86v-22h-84v-18h-264v18h-98v22h-60v18h-36v24h-36v16h-16v22h-42l10 30v10h-18v22h-14v38h-14v22h-14v20h-26l2 60h-4v42h-20l2 58h-16l20 104h-24l84 426h22l18 82h14l12 62h24l12 60h18l4 40h26l8 42h12v20h30l8 40 h14v20h24v22h30q2 8 2 13v7h18v20h22v20h24v20h52v22h18v18z" />
<glyph unicode="D" d="M304 1406h14v18h24v22h286l-2 -22h82v22h182v-22h200l-2 -18h84l-8 -22h20l-2 -20h38l-2 -20h38v-20h42l-12 -38v-4h18v-20h18l-2 -20h18v-20h16l-2 -20h20v-42h10l-2 -20h20v-38h18l-2 -62h20l-14 -82h12l-12 -100h20l-62 -326h-24l-22 -122h-20l-14 -60h-20l-12 -64 h-18l-6 -40h-22l-6 -40h-14v-22h-34v-20h-14v-18h-32l-6 -42h-46v-20h-14v-22h-24v-16h-44v-24h-26v-18h-124v-22h-730v22h-18v18h-32l36 204h44v24h54v18h44v22h32q10 46 18 90t18 90v-2q28 140 59 299t57 293h4l14 80h-8v18h-74l4 24h-62v18h-36zM992 552h16l14 62h18 l24 122h2l16 78h-30l18 62h-8l2 60h-28l8 22v38h-12v20h-18v42h-30v20h-18v20h-16v20h-16v22h-78v18h-58v-18h-24v-22h-32q-14 -76 -30 -152t-30 -152l-48 -242h2l-16 -82l-38 -200h4l-2 -22h98v22h68v18h58q4 10 9 12t5 -10l24 20l6 42h12v16h26v24h32l6 40h22l6 42h24z " />
<glyph unicode="E" d="M296 1424h12v22h1098l-2 -22h26l-2 -60h20l-48 -224h-16l-20 -102h-24l-12 -60h-8v-22h-228v18l-42 -140h-14l-68 -366h-192v22h-20v42h-8v40h-16v42h-10v16h-54v22h-6q-2 -6 -2 -13v-13v-12h-28v-24h-26q-6 -32 -13 -62t-11 -58l-28 -140h6v-40h12l-2 -22h222v22h86v18 h50v22h24l8 42h22l18 80h18l14 60h10v20h206l-2 -20h18v-40h30l-84 -426h-12v-24h-24v-18h-44v-22h-184v22h-850v18h-14v24h-30l26 180h24q2 8 2 14v10h38v18h64v22h24v18h28l84 420q10 56 20 108t21 103t21 105t22 114h-42l4 24h-82v18h-18v20h-34zM1062 998h2l20 100h-4 v42h-34v18h-136l6 24h-156v-24h-24l-44 -228l-2 -14h4l-2 -18h86l6 42h22l8 40h22l14 60h12v20h186l-2 -20h16v-42z" />
<glyph unicode="F" d="M254 1406h16l8 40h198v20h182l-2 -20h266v20h488l-2 -20h38v-40h30l-62 -328h-24l-28 -142h-14v-20h-204v20h-42l6 20h-12l30 142h-6v20h-18v22h-54v18h-96l6 24h-214l-28 -138l-2 -2q-6 -22 -9 -37l-6 -30t-6 -33t-7 -44h114q4 18 7 39t5 43h26l14 60h30v20h164l-2 -20 h20l-2 -20h34l-114 -570h-30v-24h-164v24h-18v18h-40l20 64h-12l2 58h-10v24h-76v-24h-28l-22 -122h-10l-8 -86l-10 -52h24l-4 -22l-2 -18h60v-22h116l-2 -18h36l-40 -204h-14v-24h-20v-18h-654v18h-52l44 228h14v18h42v22h112l8 40h22q4 16 7 35t7 37v-2l38 190h-2l52 264 l62 304h-28l6 24h-122v18h-38v42h-32z" />
<glyph unicode="G" d="M578 1424h44v22h64v20h408l-2 -20h100l-2 -22h180l-2 -18h20v-42h28l-46 -224h-22l-40 -204h-16l-6 -40h-34v-20h-166v20h-38v40h-28l20 102h-6v40h-10v40h-12v22h-18v18h-56l6 24h-22v18h-56v-18h-54v-24h-58v-18h-22v-22h-28v-20h-20v-20h-26v-20h-30l-8 -42h-22 l-6 -38h-22l-6 -42h-26l-4 -40h-22l-16 -102h-24l-30 -160h22l-24 -102h12l-2 -60h4v-20h16v-40h14v-40h12v-22h38v-20h34l-4 -22h2l-2 -18h58l-2 -22h40l-2 -18h40v18h64v2l24 20v18h52v22h24l10 56h-22l6 24h-2v16h-158v24h-32l44 226h30v18h570v-18h34l-44 -226h-12v-24 h-44v-16h-50q-6 -34 -14 -69t-12 -65q-8 -38 -19 -88t-15 -84h-32l-4 -20h-84v-22h-44v-16h-46v-24h-44v-18h-62v-22h-68v-18h-246v18h-116v22h-38v18h-56v24h-38v16h-18v22h-38l10 34v6h-18v22h-16v18h-16v42h-12v40h-14v20h-14v42h-28l14 78h-22l30 146h-22l68 344h20 l28 122h14l20 104h22l6 38h20l8 42h22l8 40h18l8 40h16v20h22v22h38l6 20h6v20h42l24 20v20h38l8 22h26v18z" />
<glyph unicode="H" d="M230 1384h26l8 22h6v18h470l-2 -18h84l-8 -22h14l-44 -226h-56v-18h-48l-18 -82l-26 -122h-18l-2 -16l-2 -8l-1 1t-1 -1t-2 -14h24l-6 -22h4l-2 -18h260v18h56l4 28l46 236h-68v18h-76v42h-8l2 164h30l8 42h56v18h306l-2 -18h224l-8 -22h16l-46 -226h-52v-18h-50l-6 -42 h-24l-158 -830l-2 -18h98l-6 -24h24v-18h30l-36 -226h-58v-18h-426v18h-58v22h-32l40 204h8v18h56v24h18v18h26l64 304h-316q-2 -10 -2 -26v-14h-28l-10 -50v2q-6 -34 -11 -58t-10 -47t-10 -49t-11 -62h4v-18h56l-6 -24h62v-18h32l-38 -226h-76v-18h-448v18h-36v40h-14 l4 166h30l8 38h44v24h62l42 210l96 486l38 194h-26v18h-116l6 24h-22z" />
<glyph unicode="I" d="M358 1406h22l6 40h604v20h162v-20h136l-2 -22h22l-2 -18h36l-38 -164h-20l-10 -60h-102v-24h-180v-18h-30l-18 -98q-22 -102 -34 -192l-108 -542h2l-2 -18h40l-2 -22h282v-18h36l-6 -24h20l-38 -204h-34v-18h-896v18h-16v24h-32l40 204h14v18h42v22h214q2 12 4 23t4 17 h20l148 748h-8l18 62h-2v18h-178l6 24h-126v18h-34z" />
<glyph unicode="J" d="M660 1406h16l8 40h724l-2 -22h18l-2 -18h38l-38 -164h-18l-6 -42h-14v-18h-52v-24h-120v-18h-34l-4 -24q-2 -14 -4 -21t-3 -13t-4 -15t-5 -27h24l-30 -150l-128 -664h-22l-12 -62h-20l-12 -60h-22l-6 -20h-8v-22h-22v-16h-26v-24h-44v-18h-86v-22h-84v-18h-162v18h-180 v22h-76v18h-58v24h-38v16h-58v22h-40l6 20h-14l14 80h-16l54 288h12v22h66v18h164l-2 -18h40l-2 -22h18v-42h10v-42h12v-38h14v-20h34l-6 -22h4l-2 -18h40l-2 -22h120v22h44v18h36l6 22h12l8 42h22l84 422q10 48 18 89t16 81t16 82t18 94h-26v18h-76l6 24h-144v18h-36z" />
<glyph unicode="K" d="M238 1406h12l6 40h60v20h284l-2 -20h222l-2 -22h36l-40 -204h-14v-20h-84v-18h-32l-6 -42h-14l-10 -112l-10 -48h40l6 18v22h28v20h22v20h24v20h30l10 40h16v20h28l6 42h30l4 18h-46l46 224h8v22h68v20h424v-20h62v-40h22l-30 -186h-14v-20h-24v-18h-72v-24h-38v-18h-26 v-22h-20v-20h-28v-20h-22v-20h-40l-4 -20h-14l-6 -42h-12v-18h-26v-22h-38l-4 -20h-6v-20h-24v-20h-24v-20h-24v-22h-32l-8 -40h-12v-20h-26v-20h-22v-18h16l-6 -24l-2 -16h14l-2 -22h22v-18h14l-2 -22h50l-16 -40h18v-42h12v-20h42l-12 -36v-22h14l-2 -22h18v-20h36l-6 -22 h4v-18h14l-2 -24h20v-38h12v-20h38l-6 -22l-2 -18h80l-2 -22h80v-18h34l-6 -24h20l-40 -204h-12v-18h-44v-22h-184v22h-180v18h-36v24h-18v16h-16v22h-18v40h-8v22h-18v38h-10v22h-20v40h-10v20h-18v20h-40l8 24v18h-16v40h-12v18h-36l6 24h-4v40h-12v18h-18v22h-42l14 40v2 h-20v18h-4q-10 -58 -21 -113t-21 -115l-4 -14h4l-2 -18h38l-2 -22h78v-18h36l-6 -24h20l-40 -204h-34v-18h-548v18h-18v40h-12l2 164h38l6 24h14q6 24 8 28t4 0t2 -13v-15h2l22 18v22h44v18h30l84 420q10 56 20 108t21 103t21 105t22 114h-12v24h-110v18h-18v42h-30z M644 958v20l-4 -20h4z" />
<glyph unicode="L" d="M308 1446h36v20h670l-2 -20h40v-40h30l-40 -164h-6v-22h-26v-20h-46v-18h-112v-24h-14v-18h-14l-24 -128l-36 -178h-20l-98 -504h8v-40h30l-2 -22h80v22h164v18h82q4 10 9 12t5 -10l24 20l16 100h20l26 122h14v20h246l-2 -20h36l-54 -284h18l-42 -206h-20l-12 -58h-32 v-22h-286v22h-828v18h-36v40h-12l4 164h36l6 24h8v18h22v22h126v18h26l46 222l122 628h-20l6 24h-164v18h-54z" />
<glyph unicode="M" d="M122 1446h32q10 28 11 18t1 -18l26 20v20h348l-2 -20h58v-20h14l-2 -22h22v-40h8v-40h16v-40h36l-20 -62h4v-40h12v-42h14v-40h12v-40h12v-40h10v-42h16v-40h40l8 40h18l14 62h20l8 42h18l6 38h22l8 42h22l14 60h18l12 62h20l12 60h12v20h32l8 40h20l6 42h460l-2 -20h54 l-42 -246h-98v-18h-94v-8l-42 -224l-36 -198h-26l-6 -36h20l-28 -152l-28 -154h-4l-16 -80h24l-6 -22h44l-2 -18h60l-2 -22h16l-2 -18h38l-40 -204h-14v-24h-84v-18h-206v18h-300v24h-16v16h-18l4 164h32l6 42h16v22h62v18h54v22h24l80 406h16l14 78h-8l-8 -62h-26l-12 -60 h-10v-20h-32l-4 -42h-26l-6 -40h-22l-6 -40h-10v-18h-34l-8 -42h-14v-22h-184v22h-48l14 42h-14v40h-14v18h-22l2 62h-4v40h-12v40h-16v42h-10v-22h-34l-12 -60v-2q-2 -10 -3 -12t-1 -3t-1 -5t-3 -16h20l-46 -242h12l-2 -62h2v-20h36l-4 -22h64l-2 -18h62l-20 -64h2l-4 -164 h-24v-16h-24v-24h-548v24h-36l46 222h14v22h20v18h54v22h20v20h28l18 90q12 52 25 121t23 115h18q14 58 26 118l24 120q8 38 14 69t12 61t12 63t14 75h-4v18h-40v20h-106l2 62h-2z" />
<glyph unicode="N" d="M244 1446h14v20h266v-20h180l-2 -22h22v-40h6v-40h16v-40h12l-2 -22h26l-2 -60h2v-40h10l-2 -22h20v-40h12v-40h12v-40h14v-42h42l-16 -40h18v-42h12v-40h14v-40h12l-2 -20h20v-40h10v-20h18v-40l44 220h-22l32 162h-4v42h-14v18h-94l6 24h-22v18h-54l46 224h10v22h570 l-2 -22h36l-48 -224h-8v-18h-56v-24h-42l-18 -100h-4l-28 -162h-22l-22 -106l-32 -156h24l-120 -612h-10v-18h-44v-22h-208v22h-14v18h-18v24h-16v38h-16v40h-10v40h-14v42h-10v40h-12v40h-38l18 64v18h-26l2 58v24h-20v40h-38l12 32v28h-12v40h-14v40h-12v22h-18v40h-10v40 h-14v42h-12v20h-16v40h-12v42h-4l-20 -104q-6 -34 -11 -58l-10 -48t-10 -51t-11 -63h22l-38 -180h8v-42h30l-6 -22h44l-2 -18h78l-2 -22h20l-2 -18h32l-44 -228h-110v-18h-470v18h-38v40h-14l4 164h38l6 24h8v18h24v22h24v18h50q2 2 2 6l24 16q20 108 40 210t39 203t39 203 t42 212h-22l6 24h-84v18h-32z" />
<glyph unicode="O" d="M608 1466h84v20h62v22h208l-2 -22h120v-20h78v-20h36l-2 -22h20v-18h40l-6 -22h16l-2 -20h20v-40h36l-6 -24v-18h12l-2 -20h22v-40h38l-20 -62h2v-40h28l-16 -80h22l-20 -100h20l-74 -390h-22l-18 -100h-24l-16 -100h-20l-6 -42h-24l-6 -42h-22l-6 -40h-22l-6 -42h-26 l-6 -20h-26v-18h-26v-22h-22v-20h-40l-4 -20h-6v-22h-46v-16h-44v-24h-126v-18h-326v18h-78v24h-36v16h-38v22h-62l12 34v6h-16v40h-38l10 36v6h-16v40h-14v20h-24l2 62h-8l2 58h-24l16 82h-18l94 490h20l32 144h18l6 38h20l14 62h12v20h30l14 60h14v22h34l6 20h10l8 40h34 v20h40l6 22h28v18h22v22h44v20zM918 512h24l18 80h14l30 144h20q2 8 3 10l2 4t2 6t3 18h-20l22 122h-22l16 82h-2v18h-16v42h-16v40h-10v40h-10v22h-38v18h-56l6 24h-22v18h-60v-18h-72v-24h-20v-18h-20v-22h-32l-6 -40h-24l-6 -40h-22l-6 -42h-22l-14 -60h-20l-12 -82h-22 l-42 -220h12l-14 -82h16v-100h16v-40h12l-2 -24h18v-16h16l-2 -22h18l-2 -20h60l-6 -22h22l-2 -18h58v18h54v22h38v20h24v22h28l6 40h14v18h30l10 42h22z" />
<glyph unicode="P" d="M286 1444h26l8 20h6v20h860l-2 -20h128l-8 -24l-2 -18h42v-18h16l-2 -24h20l-2 -20h18v-42h14l-2 -24h18v-42h28l-74 -394h-24l-6 -42h-22l-6 -42h-24l-8 -44h-12v-20h-28v-22h-36l-4 -22h-30v-20h-46v-20h-46v-22h-104l-8 -20h-44v-24h-266l-12 -60h-20l-34 -172h6v-44 h58l-8 -20h124v-20h40l-2 -24h36l-40 -204h-14v-22h-76v-22h-658l6 22h-24l48 226h14v24h24v20h116v20h18v22h30l80 404l86 440h-2v44h-182v42h-30zM988 938h14v20h32l8 44h22l2 10q2 10 3 12l1 2l1 4t3 16h-4v42h-14v22h-16v20h-44l10 30v14h-38v20h-182q-8 -46 -16 -87 l-16 -82t-17 -83t-17 -90h8l-2 -18h66v18h110v2l24 22v18h52z" />
<glyph unicode="Q" d="M542 1444h78v20h82v20h332l-2 -20h128l-8 -20h20l-2 -22h40v-18h18l-2 -24h18l-2 -20h60l-6 -22h2v-44h44l-14 -38v-22h14v-44h12v-40h40l-20 -64h28l-20 -64h22l-104 -522h-22l-16 -108h-22l-12 -62h-24l-6 -42h-22l-6 -42h-18v-22h-38l-6 -20h-14l-6 -44h-14v-18h-38 l-6 -24h-28v-18h-30l-6 -44h-18v-2h36l-6 -22h4v-44h12v-18h38l-6 -22h2v-20h18l-2 -24h126l-2 -20h54l-50 -248h-30v-22h-70v-20h-58l-10 -22h-26v-22h-204v22h-20v42h-10v40h-16v44h-12v20h-14v42h-14v24h-16v40h-14v44h-36v42h-34v40h-34v22h-56l6 22h-128v22h-38v18h-36 l6 22h-26v20h-18v24h-38v18h-16v42h-14v24h-18v20h-14v42h-14v42h-10v42h-40l18 62h-16l14 86h-22l108 544h20l16 86h20l14 60h20l8 42h26l6 24h12l8 42h30l8 18h2v24h26v20h38l6 22h8v20h24v24h24v18h24v22zM916 494h24l14 86h20l8 42h22l18 88q4 18 7 31l6 26t6 28t7 39 h-32l22 66h-10l2 62h-12l2 62h-2v42h-36l6 22v42h-62l6 20h-36v24h-38v20h-88l-26 -20v-24h-56v-20h-14v-20h-34l-8 -44h-14v-20h-34l-10 -64h-22l-6 -38h-24l-16 -86h-18q-14 -70 -25 -126t-25 -132h24l-20 -84h4v-42h12v-42h14v-44h10v-18h38l-6 -22h2v-20h20l-2 -22h16 l-2 -22h66l-6 -20h38l-2 -20h8v20h74v20h18v22h26v22h52l8 42h12v18h34l8 44h22z" />
<glyph unicode="R" d="M302 1444h24l8 20h8v20h376l-2 -20h44v20h230l-2 -20h234l-6 -20h36v-22h18v-18h18l-2 -24h20v-20h24l-2 -22h10l-2 -20h22v-42h26l-14 -86h20l-58 -290h-18l-12 -66h-20l-6 -42h-20v-18h-30l-6 -44h-36v-20h-28v-22h-54v-22h-36v-20h-8v-2h20v-22h16l-2 -22h20v-42h12 v-20h18l-2 -22h20v-42h10v-42h46l-14 -38v-24h14v-42h10v-44h60l-6 -20h18l-2 -20h104l-2 -24h36l-40 -204h-22l-8 -44h-426l6 22h-2v22h-20v18h-14v42h-16v24h-14v42h-14v18h-16v44h-12v42h-14v42h-10v42h-16v44h-10v42h-16v40h-34v22h-16v40h-34l6 24h-2v18h-38v24h-32 l-16 -78q-6 -32 -12 -57t-10 -49t-10 -52t-12 -64h32l-6 -20h20l-2 -20h120l-2 -24h60l-40 -204h-14v-22h-628v22h-34l42 204h12v24h26v20h74v20h48l170 890h-6v20h-82v22h-54v20h-34zM932 958h26v22h28l14 64h22v2h-28l20 64h-2v20h-46l6 20h-16v24h-16v20h-106l6 22h-54 v-22h-26l-6 -44h-22l-24 -118l-26 -138h4l-2 -18h152v18l60 2q4 4 6 9t8 11v22h22v20z" />
<glyph unicode="S" d="M612 1464h62v20h64v24h440l-2 -24h188l-2 -20h26l-2 -60h6l-4 -168h-16q-4 -20 -4 -28q-2 -4 -3 -10t-1 -8l-4 -26l-26 -140h-22l-8 -42h-14v-20h-44v-18h-168v18h-38v42h-28l18 106h-4v20h-18v44h-32v20h-40l6 22h-62v20h-24v-20h-74v-22h-20v-20h-22v-24h-38v-20h-22 l-6 -42h-26v-2h8v-42h10v-42h34l-6 -22h2l-2 -22h64l-2 -20h60l-2 -22h58l-6 -22h66l-2 -18h104l-2 -24h40l-2 -18h60l-6 -24h24v-20h16l-2 -20h22l-2 -20h44l-12 -34v-10h18l-2 -22h46l-18 -62h26l-20 -64h18l-46 -270h-26l-12 -64h-18l-8 -40h-24l-6 -42h-22v-24h-20v-18 h-22v-24h-28v-20h-36l-6 -22h-28v-18h-48v-22h-74v-22h-704l4 22h-20v40h-32l86 440h20l10 42h12v22h230v-44h18l-2 -62h32l-20 -62h2v-42h14l-2 -22h18l-2 -22h66l-8 -20h18l-2 -20h114v20h52v20h38v22h26v22h22v20h36v22h24l12 58v6h-2v44h-16v22h-16v18h-34l6 24h-24v18 h-62v24h-84l4 20h-36v22h-102v20h-58v20h-58l6 22h-4v22h-40v20h-38v20h-14v42h-16v24h-16v42h-18l2 60h-20l44 232h22l14 84h20l8 42h18l10 42h24l8 42h36v-2l24 22v24h26v18h24v22h54v20z" />
<glyph unicode="T" d="M138 1318h18l24 126h30l6 20h1180l-8 -22v-38h30l-90 -460h-18l-8 -44h-240v44h-28l36 186h-34l12 42v2h-58v20h-4v-20h-68v-24h-32q-4 -30 -11 -60t-13 -58l-26 -138h16l-30 -184h-6l-20 -150h-24q-4 -22 -9 -38t-11 -48h24l-44 -190h40l-2 -20h50l-2 -20h150l-2 -24h16 v-20h34l-34 -184h-22l-8 -44h-100v-22h-166v22h-580l52 248h10v24h70v20h96v20h60v22h28l74 372l94 472h-4v24h-88v-24h-42l-6 -20h-2v-20h-32l-24 -128h-24l-14 -82h-36v-22h-204v40h-32l34 170h-22z" />
<glyph unicode="U" d="M142 1464h32v20h500v-20h86l-10 -30l-4 -154h-28q-2 -16 -2 -28v-16h-20v-20h-98v-22h-28l-10 -64h-22l-58 -296h22l-92 -464h26l-4 -22v-20h18l-2 -22h20l-2 -22h46l-2 -20h32l-2 -20h28v20h98v20h36v22h24v22h24v20h34l8 40h18q10 40 18 79t14 79l114 584h-10l4 64h-34 v22h-48v20h-20v22h-28l24 186h32l8 20h548l-8 -20h10l-34 -228h-46v-22h-64l-8 -44h-22l-20 -84h-22l-156 -820h-22l-10 -62h-24l-4 -42h-22l-8 -42h-16v-24h-24v-20h-54v-22h-20v-18h-64v-22h-56v-22h-492l6 22h-24v22h-38v18h-46v22h-10v20h-16v42h-16v42h-34l18 64h-20 l184 950h-4v20h-22v22h-74v20h-54z" />
<glyph unicode="V" d="M98 1464h14v20h192v24h310l-2 -24h108v-40h12l-4 -164h-32l-6 -44h-102v-20h-52q-2 -4 -2 -8t-2 -18h10l-4 -64h24l-20 -82h32l-20 -64h26l-18 -64h6v-40h24l-12 -86h30l-20 -62h18l-16 -84h4v-44h20l-2 -62h10l-2 -22h6l14 64h18l20 84h18l8 42h22l16 84h24l14 86h22 l18 82h18l12 64h22l18 86h16l20 102h10v6h-92v20h-34l46 228h10v20h544v-20h30l-42 -248h-28l-6 -22h-26v-20h-54q-4 -14 -6 -27t-2 -17h-22l-10 -64h-26l-8 -62h-24l-12 -60h-22l-10 -66h-24l-10 -62h-22l-10 -66h-24l-8 -62h-24l-10 -62h-24l-16 -84h-24l-10 -64h-22 l-10 -62h-22l-10 -66h-26l-12 -82h-22l-6 -64h-28l-8 -62h-24l-10 -66h-24l-6 -42h-14v-18h-28v-22h-36l-6 -22h-252l6 22h-2v40h-38l20 66h-4v42h-38l20 62h-6v42h-24l12 84h-4v44h-18l2 60h-26l16 66h-10l2 60h-30l22 66h-4v40h-22l2 64h-10l2 62h-28l20 66h-12l2 60h-30 l20 64h-8l2 64h-10l4 64h-8v40h-12v24h-16v20h-64l10 30v12h-20v22h-32z" />
<glyph unicode="W" d="M0 1464h58v20h460l-2 -20h130l-8 -20h16l-40 -208h-96v-20h-80v-8l-16 -82h22l-46 -232h20l-32 -166h24l-10 -44h18l18 86h18l8 40h20l8 42h24l14 64h18l8 42h218l-2 -20h22l-2 -22h24l-4 -64h8v-42h18l-2 -60h6v-44h24l8 44h24l36 166h14l50 234h-4v24h-22v20h-38l4 22 h-82v20h-32l38 208h26l8 20h134v20h514l-44 -248h-58v-20h-54v-22h-50l-6 -64h-26l-26 -148h-22l-18 -104h-24l-18 -96h2l-24 -116h-18l-20 -106h-24l-28 -144h-20l-34 -192h-28l-22 -106h-16l-10 -62h-22l-6 -40h-24l-6 -44h-264l6 22v22h-26l2 60h-26l20 66h-4v42h-38 l20 62h-26l18 64h-30l18 64h-6v18h-6l-8 -42h-22l-8 -62h-26l-12 -64h-20l-18 -82h-18l-18 -86h-18l-8 -40h-14v-22h-36v-22h-240l6 22h-2v22h-26l2 60h-14l18 108h-26l20 104h-20l26 128h-20l36 188h-16l18 106h-24l32 168h-20l28 146h-16l24 126h-8v24h-16v20h-62l4 22 h-72z" />
<glyph unicode="X" d="M282 1508h366l-2 -24h188l-2 -20h44l-8 -20h12l-30 -186h-14v-22h-66v-20h-12l-2 -6h4v-42h12v-42h12l-2 -18h20v-44h44l-8 -20h10l6 42h22l6 40h30l4 24h14l14 60h16l2 6h-20v20h-56l46 228h12v20h318v24h186v-24h58l-2 -20h40l-48 -228h-14v-20h-32v-22h-78v-20h-24 v-24h-38v-20h-16v-20h-32l-8 -44h-12v-20h-32q-2 -14 -2 -26v-16h-36l-6 -22h-14l-4 -38h-16v-26h-34l-8 -40h-12v-20h-34l-6 -42h-16v-24h-30l-8 -42h2v-44h12l-2 -22h20v-40h10v-22h22l-2 -22h16v-42h14v-42h30l-6 -22h6v-40h12l-2 -22h20v-44h12v-40h14l-2 -20h18v-44h58 l-8 -20h84l-2 -20h20v-44h24l-30 -184h-36v-22h-524v22h-38v18h-32l44 230h42v20h22l2 4h-4v22h-40l20 64h-2v18h-18v24h-16v40h-16v22h-32l-8 -44h-20l-6 -42h-24l-6 -42h-16v-20h-30l-4 -42h-26v-4h28l-6 -20h56l-44 -230h-14v-18h-44v-22h-524v22h-18v18h-34l44 230h44 v20h80v22h26v22h24v20h36l6 22h14l8 44h30l8 18h8l8 42h22l6 42h20v22h28l8 42h28l8 20h4v22h34l6 42h22q0 4 1 7t1 7v6h18v22h28l14 64h14v20h8l2 2h-2v24h-14v42h-14v20h-18v22h-18v44h-12v18h-16v42h-12v42h-16v20h-16v44h-12v40h-12v24h-20v20h-40l6 22h-60v20h-56z" />
<glyph unicode="Y" d="M118 1484h36v24h460l-2 -24h102v-40h12l-4 -164h-24v-22h-24v-22h-86v-2h14v-44h12l-2 -22h20v-42h12l-2 -18h18v-44h14v-42h12v-42h14l-2 -22h2v22h32l10 42h22l8 42h20l8 44h22l6 42h24l6 40h14v20h34q0 2 1 3t1 3h-46v20h-40v22h-34l40 206h16v20h318v24h208l-2 -24 h54l-44 -226h-12v-22h-22v-20h-74l-8 -42h-14v-24h-38v-20h-20q-2 -12 -2 -25v-17h-30l-6 -42h-22l-6 -42h-26v-22h-16v-20h-34l-12 -62h-12v-22h-36l-6 -44h-14v-18h-30l-6 -42h-24l-8 -44h-12v-20h-34l-6 -44h-26l-4 -40h-26l-4 -32l-54 -266h8v-44h206l-8 -20h20l-2 -20 h30l-26 -188h-22l-8 -40h-60v-22h-186v22h-2v-22h-314v22h-184v40h-12l4 164h30l8 44h42v20h104v22h24v22h30q12 70 24 125t26 131h-4v42h-8v20h-44l18 64h-2v20h-18v20h-18v42h-12v24h-16v42h-12v42h-40l10 28v34h-14v42h-14v20h-14v42h-36l6 22v42h-42l12 34v30h-36l6 22 h-62v20h-50z" />
<glyph unicode="Z" d="M406 1464h14v20h26v24h356l-2 -24h564l-2 -20h66l-8 -20h14l-44 -250h-22l-6 -44h-30l-6 -20h-16l-6 -42h-26l-6 -22h-8v-20h-24v-22h-32l-6 -42h-16v-20h-26v-18h-30l-8 -44h-16v-22h-24v-20h-30l-8 -42h-18v-24h-30l-8 -42h-16v-20h-24v-20h-34l-8 -44h-12v-20h-26v-20 h-30l-8 -42h-16v-24h-24v-18h-34l-8 -42h-12v-22h-34l-8 -44h-22l-4 -42h-14v-18h-38v-24h-22l-6 -40h-16v-22h-34l-2 -24h186v20h144l26 22v22h22v20h38l6 22h14l6 44h26l12 60h16l8 42h244v-42h28l-58 -290h-18q-6 -32 -12 -69t-10 -59h-26l-12 -62h-26l-6 -22h-312l6 22 h-482v-22h-242l6 22h-24v22h-32l56 290h18l6 42h28v22h16v18h30l8 44h16v22h30l6 40h30l6 22h8v22h30l8 42h26l8 20h8v22h28l8 42h24v14q0 4 2 6h16v22h30l10 44h14v20h28v20h28l10 44h12v18h26v24h32l6 40h18v22h24v20h30l10 44h14v20h26v22h28l10 42h18v22h22v18h30l10 42 h16v22h32l6 26h-190v-22h-56v-20h-28v-24h-52l-12 -62h-22l-6 -64h-28l-6 -42h-246v22h-24l70 356h16z" />
<glyph unicode="[" d="M624 1502l20 22h6v18h528l-2 -22h20l-2 -18h32l-44 -246h-18q-2 -12 -2 -24v-16h-94q0 -4 1 -6t1 -6v-8h-220q-36 -194 -75 -388t-75 -390q-4 -22 -7 -37t-5 -30t-5 -31t-7 -40h274l-2 -22h20l-2 -18h34l-46 -246h-20l-8 -42h-76v-18h-504v10h-62l8 24l2 54h-22l118 602 h18l110 556h-18l54 302h10v18z" />
<glyph unicode="\" d="M772 1588v-38h36l-18 -64h2v-38h20l-2 -62h8l-2 -60h14l-2 -60h26l-18 -62h2v-40h36l-18 -62h12l-2 -60h8l-2 -60h12l-4 -64h4v-38h22l-2 -60h22l-22 -82h14l-2 -60h4v-40h10v-42h38l-20 -62h10l-2 -60h12l-2 -58h26l-20 -66h4v-38h14v-42h18l-2 -58h30l-20 -64h12 l-2 -60h10l-12 -80h26l-42 -204h-12v-22h-24v-20h-166v20h-56v22h-18v16h-28l12 84h-22l14 80h-6l2 62h-32l20 62h-20l18 80h-2v40h-14v42h-24l16 80h-8v38h-38l18 64h-10l2 60v40h-26l2 62h-24l20 62h-4v40h-18l2 60h-30l18 62h-14l14 78h-6v40h-12v42h-34l18 62h-2v42h-22 l2 58h-10l2 60h-2v42h-14v42h-12v40h-30l46 224h12v22h36l8 20h228z" />
<glyph unicode="]" d="M1186 1502h22l-2 -20h30l-56 -302h-24l-108 -556h22l-120 -602h-20l-12 -58h-24l-6 -20h-16v-10h-506v18h-78v42h-26l46 246h12v18h26v22h306l176 916h-226l6 20h-56v40h-26l44 246h14v18h24v22h528l-2 -18h50z" />
<glyph unicode="^" d="M770 1938v2l6 -8l26 -18l78 36v-4l14 6v-74l124 -308l-16 -10l20 -60l-54 -2l-100 -48l-104 -104l-2 130l-20 44l-48 -58v-74l-190 126v10l-4 6l2 48l-24 22l258 324l2 -2q2 16 2 26v12z" />
<glyph unicode="_" d="M66 -272h10v22h42v18h268l-2 -18h648v18h384l-2 -18h40v-42h24l-36 -224h-16v-22h-1296l2 22h-78l2 18h-36z" />
<glyph unicode="`" d="M1024 1674l8 -4l-10 -22l14 -14l-140 -190l-18 8l-8 -8l-10 -18l-402 272l28 30v22q-4 4 -7 11t-5 11q-2 6 -4 10l136 164l6 -4l14 20l184 -126l-6 -14l20 -12l16 8l200 -126z" />
<glyph unicode="a" d="M586 1006h40v18h102v20h412l-2 -20h38v-18h34v-20h24l-2 -20h10l-2 -20h20v-36h26l-68 -356h-20l-48 -252h120v-16h20l-2 -20h28l-36 -198h-16v-22h-80v-18h-68q-2 -8 -2 -13v-7h-274v20h-96v-20h-428l6 20h-16v18h-34v22h-36v16h-18v42h-10v36h-26l50 276h20l6 40h20 l6 40h16v20h22v18h50v22h36v18h42v20h62v14h-94l10 28v12h-32l42 240h20l8 36h34v20h50v20h36v20zM762 322h44v22h26l10 38h22l4 16h-6v18h-130v-18h-66v-20h-40v-20h-50v-20h-18v-18h-28l-2 -18h22v-16h58l-8 -20h86v20h36v16h40v20zM724 728l-8 -54h184v20h18v20h30 q0 -2 4 14h-4v20h-24v22h-6v18h-38v18h-14v-18h-44v-18h-50v-22h-16v-20h-32zM712 656v14h-8v-14h8z" />
<glyph unicode="b" d="M346 1432h102v22h60v18h258v-18h16v-40h32l-38 -160h-16l-38 -194h-20l-8 -54h22v18h334v-18h54l-2 -20h44l-2 -20h12l-2 -20h38l-2 -18h16v-18h32l-4 -22h2v-40h12l-2 -18h18v-38h12v-40h26l-22 -118h18l-50 -276h-20l-14 -78h-22l-12 -56h-16l-6 -40h-14v-22h-24v-16 h-40l-6 -20h-2v-20h-22v-22h-24v-16h-42v-22h-22v-18h-74v-20h-52v-20h-606v20h-34l106 530h16l116 580h-4v38h-14v18h-118v22h-8v20h-18l4 160h30l8 38h32v18zM898 420h22l6 42h20l16 80l2 12v38h-14v38h-36l8 22v18h-14v22h-18v16h-14v20h-58v20h-72v-20h-44v-20h-46 q-2 -6 -2 -13v-13v-12h-28l-68 -348h4l-2 -20h18v-16h40l-8 -20h56l-2 -20h20v20h50v20h36v16h20v20h50l8 42h16v18h28z" />
<glyph unicode="c" d="M590 1006h58v18h66v20h392l-2 -20h56l-2 -18h36v-20h42l-12 -30v-10h14l-2 -18h22v-40h26l-20 -96h20l-30 -180h-22l-6 -38h-14v-20h-236v20h-36v38h-28l20 116h-2v20h-40l6 22h-36v18h-16v-18h-50v-22h-36v-20h-22v-20h-24v-16h-22v-22h-22v-18h-32l-6 -40h-24l-10 -58 h-18q-4 -20 -7 -34t-7 -42h8l-2 -58h4l-2 -16h18v-40h38l-12 -42h36l-2 -20h40l-2 -16h192v16h42v20h60v22h240l-2 -22h32l-40 -196h-8v-20h-24v-22h-44v-16h-62v-22h-42v-18h-106v-20h-58v-20h-372v20h-98l6 20h-40v18h-12v22h-16v16h-18v22h-12v20h-42l10 32v26h-14v40 h-18l2 56h-12l2 58h-18l56 278h16l24 116h18l6 38h22l6 40h20l8 38h14v20h24v20h32l6 22h10v18h22v18h20v20h52v20h18v20z" />
<glyph unicode="d" d="M926 1432h98v22h64v18h244l-2 -58h18l-32 -156h2l-38 -198h-20l-138 -716v-42h92l-2 -16h56l-44 -218h-14v-22h-80v-18h-68v-20h-290v-20h-394v20h-58l6 20h-18v18h-16v22h-34v16h-16v22h-16v20h-16v36h-10v22h-16v40h-26l14 74h-22l70 376h22l14 58h18l12 60h18l6 38h14 v18h24v20h22v20h36l6 22h6v18h22v18h42v20h50v20h36v20h380l36 150h-48v18h-110l44 220h24l6 20h26v18zM494 532q0 -4 -1 -7t-1 -7h20l-16 -80h4v-34h14l-2 -22h18v-38h10l-2 -22h18v-20h16v-16h40v-20h116v20h34v16h24v20h28l12 52q6 28 13 59t11 65h20l26 132h-22l14 78 h-18v20h-38v20h-112v-20h-42v-20h-48q-2 -6 -2 -13v-13v-12h-16v-18h-40l-6 -22h-8q-2 -12 -2 -23v-15h-32l-10 -60h-20z" />
<glyph unicode="e" d="M576 1006h62l22 18v20h412l-2 -20h38l-2 -18h38v-20h40l-6 -20h14l-2 -20h18l-2 -18h18l-2 -18h18v-42h12l-2 -20h18v-38h18l-2 -58h16l-48 -296h-18v-18h-70v-22h-502v-18h-100v-16h12v-18h40l-12 -38v-4h36l-2 -20h40l-2 -16h100l-8 -20h8v20h114v16h60v20h60v22h220 l-2 -22h34l-38 -196h-16v-20h-20v-22h-42v-16h-44v-22h-82v-18h-90v-20h-94v-20h-334v20h-100l6 20h-32v18h-36v22h-16v16h-16v22h-34v20h-16v36h-12v22h-16v40h-22l12 96h-18l60 314h18l18 98h20l8 38h20l8 40h20l6 38h14v20h24v20h28l6 40h16v18h24v20h50v20h36v20z M762 674h184v18h-18v36h-30v20h-40l6 22h-38v18h-12v-18h-52v-22h-16v-20h-24v-20h-24v-16h-20v-22h-24v-14h108v18z" />
<glyph unicode="f" d="M746 1442h42v20h80v18h298l-2 -18h212l-2 -20h18v-18h34l-40 -162h-14l-16 -78h-30v-18h-24v-20h-276v20h-94v18h-16v-18h-42v-20h-20v-20h-30q-2 -12 -2 -23v-15h-30l-4 -24t-6 -34h6v-16h40l-8 -20h160v20h236l-8 -20h32l-36 -218h-30l-6 -20h-42v-18h-160v18h-172v-18 h-50l-80 -426h4v-40h8l-2 -18h310l-2 -20h52l-44 -220h-8v-18h-82v-20h-158v20h-640v18h-30l38 202h12v18h42v20h138v18h58l8 22h10q22 112 41 209t41 215h-2v20h-38v18h-154l8 28v10h-16l4 162h30l6 38h42v20h132v16h28l30 160h24l14 76h14l8 40h22l8 38h12v20h26v22h20v16 h52v22h16v18z" />
<glyph unicode="g" d="M538 974h42v20h68v20h372l-6 -20h36l-2 -20h58l-2 -18h36l-2 -20h236l-2 -20h14v-38h12l-2 -160h-24v-20h-20v-20h-144v-18h-12l-32 -174h-20l-6 -42h-24l-4 -36h-20l-4 -40h-22v-22h-20v-18h-40v-20h-44v-18h-60v-20h-188v-16h332l-2 -20h114v-18h36l-2 -20h18v-18h36 l-6 -24h20l-2 -18h34l-66 -336h-16v-38h-30l-6 -38h-12v-20h-24v-20h-22v-18h-46v-20h-24v-20h-40v-16h-70v-22h-54v-20h-102v-20h-294v20h-174v20h-60v22h-26v16h-36v20h-18l2 20h-18v38h-10v20h-42l18 60h-12l36 218h22l10 58h18q2 6 2 12v8h20l8 36h14v20h24v18h32l2 8 l26 150h20l6 38h10l12 30v28h-12v16h-24l2 62h-18l62 314h18l12 58h18l6 38h26l8 20h4v20h42v20h24v18zM894 -98h24v22h20v16h10v18h-36v18h-34v20h-348v-20h-22v-18h-24v-18h-36l-6 -22h-14l-4 -34h28l-10 -28l-2 -10h34v-22h96v-18h134v18h62v22h62v18h48v12q0 4 2 8h16 v18zM628 638l-2 -12h2v-42h12v-20h16v-16h16v-22h56l-2 -18h34v18h44v22h48l6 36h22l8 42h22v2h2v6l2 4h-6v40h-10v40h-14v20h-34v18h-94v-18h-44v-20h-28l-6 -40h-22l-8 -40h-20zM790 756l6 20h-6v-20z" />
<glyph unicode="h" d="M460 1424h36v18h78v20h202l-2 -20h16l-2 -18h38l-50 -240h-20l-20 -102l-22 -108h22v20h52v20h372l-6 -20h34l-2 -20h20v-18h16l-2 -20h16v-20h40l-8 -28v-30h20l-2 -58h18l-16 -78h20l-48 -258h-22q-12 -64 -23 -113t-23 -117h104l-2 -18h54l-40 -202h-12v-18h-24v-20 h-450v20h-52l44 220h32v18h20v20h30l42 214h18l20 92h-12l2 60h-2v40h-8v18h-18v20h-16v20h-34v20h-16v-20h-62v-20h-62v-20h-44v-18h-28v-22h-18v-18h-32l-30 -152q-4 -24 -8 -41t-7 -33t-7 -35t-8 -47h12l-2 -58h20l-2 -20h98l-2 -18h52l-40 -202h-10v-18h-198v-20h-296 v20h-48l42 238h34v20h22v18h30l146 758l16 78h-2v18h-38v20h-72v20h-16v18h-30l30 180h16v22h42v16h90v22z" />
<glyph unicode="i" d="M410 1000h156v16h180v16h-10v22h-18v18h-30l48 258h20l6 38h14v18h36l4 22h24v18h238v-18h42l-2 -22h10l-2 -18h36l-50 -256h-14v-20h-24v-20h-20v-18h-24v-22h-52v-16h28l-2 -56h20l-38 -198h-22l-90 -466h6l-2 -18h36l-2 -20h308l-2 -20h54l-44 -218h-10v-20h-52 q0 -4 1 -6t1 -6v-6h-260l6 18h-472q0 -4 1 -6t1 -6v-6h-194l6 18h-12v40h-16l4 162h32l6 36h14v20h198v20h44v18h50q22 116 43 220t45 226h-258v20h-18v18h-32l38 198h16v22z" />
<glyph unicode="j" d="M666 978h32v22h314v14h-98l6 18h-14v22h-42l2 58h-16l30 178h22l12 58h24l8 20h2v18h54q8 20 8 22h280l-8 -22v-18h18v-38h12l-4 -160h-32l-14 -58h-8v-20h-26v-20h-20v-18h-24v-22h-54v-16h100v-16h18l-2 -22h32l-104 -524h22l-56 -276l-6 -38q0 -4 -1 -7t-1 -5l-8 -34 l-50 -270h-22l-16 -96h-18l-6 -38h-40q-2 -8 -2 -13v-7h-20v-20h-20v-18h-42v-20h-62v-20h-150v-20h-214l6 20h-112v20h-74v20h-38l2 18h-18l2 20h-20l2 20h-26l30 180h22l4 38h28l6 18h4v22h196v-22h64l-8 -18h16l-2 -20h16l-2 -18h38l-2 -24h76v24h22v18h24v20h48l12 42 l-2 -4q2 12 5 22t3 20q0 4 2 10t2 10l26 138l114 576h-216v20h-56v20h-16v18h-18l4 162h32z" />
<glyph unicode="k" d="M430 1426h42v22h84v16h194v-16h54l-70 -376h-22q-18 -98 -38 -194l-40 -192h8v20h22v18h36l6 22h4v18h34l6 20h6v18h24v22h12l28 154h16v22h488l-2 -22h46l-6 -18h2l-24 -180h-14v-18h-64v-20h-42v-20h-50v-22h-38v-16h-40v-20h-24v-20h-36l-4 -20h-22v-18h-34v-22h-16 v-18h-22v-16h38l-12 -34v-6h16v-40h14v-16h38l-8 -20v-20h14l-2 -22h18v-16h16l-2 -20h18v-38h12l-2 -22h36l-2 -18h192v-40h34l-38 -160h-18l-4 -38h-32v-20h-24v-20h-72q0 -4 1 -6t1 -6v-6h-278l6 18h-12v20h-18v20h-14v20h-14v18h-24v22h-6v18h-18v20h-16v16h-18v24h-14 v38h-14v20h-12v36h-14v22h-16v36h-12v22h-34v-22h-22v-16h-38l-6 -20h-8v-36h16l-2 -20h98l-6 -20h18l-2 -16h26l-24 -182h-14v-20h-290q0 -4 1 -6t1 -6v-6h-238l12 38h-28l30 182h22l8 36h32v20h30l10 44l-2 -4q2 10 5 22t5 22l4 36l42 210h2l24 142l18 94h20l18 80l2 2 l6 24l4 16t3 18t5 30h-24l32 156h-120v20h-16v38h-30l36 160h6v18h38l6 22h82v18z" />
<glyph unicode="l" d="M588 1426h140v22h102v16h254v-16h32l-30 -158h22l-38 -160h-14l-40 -210l-46 -236h-22l-12 -76h20l-56 -278h-18l-4 -12h4v-40h32l-2 -20h250v-20h62l-12 -32v-4h18l-4 -162h-30l-6 -40h-64q0 -4 1 -6t1 -6v-6h-258l4 18h-174q0 -4 1 -6t1 -6v-6h-238l4 18h-198l34 218 h26l8 20h4v20h198v20h24v18h10l36 174h18l64 332q18 88 34 170t34 178h-274v20h-30l36 216h26l8 22h62v18z" />
<glyph unicode="m" d="M334 1016h312v20h162l-2 -20h74v-16h116v16h314l-2 -16h36l-2 -22h44l-10 -34v-24h10l-2 -18h26l-2 -62h18l-94 -488h-22l-12 -74h4l-2 -20h38l-2 -20h56v-36h10l-2 -162h-28q-2 -12 -2 -23v-17h-1246v20h-52l44 218h10v20h24v20h30q12 56 22 108t20 102t20 102t22 110 h-28l4 22h-94v40h-24l24 180h24l8 36h52v22h104v16zM478 238h96v20h26l24 118h20l48 248h-26l18 60v16h-16v42h-32v-20h-52v-22h-12v-16h-34l-78 -406h6l-2 -20h14v-20zM964 218h6l6 20h14l12 58h16q10 52 20 98t20 94l38 196h-4v38h-28v40h-16v-20h-20v-20h-38l-6 -22h-14 l-80 -422h2l-2 -20h20l-2 -20h56v-20z" />
<glyph unicode="n" d="M680 1000h80v16h62v20h314l-2 -20h20v-16h32l-2 -22h68l-14 -36h14v-22h18v-38h20l-2 -58h18l-104 -546h4l-2 -20h96l-2 -20h50l-44 -238h-40v-18h-318l6 18h-166v40h-12l4 162h22v16h36l8 20h2v20h26v20h26q4 16 8 34t8 34q2 16 7 39t9 46t8 44t6 35h20l6 34l-2 2h-14 l20 98h-6v40h-12v16h-38l8 30v12h-76v-20h-66q-2 -6 -2 -14v-8h-36v-16h-68l-8 -40h-22l-34 -176h-22l-12 -76h20l-24 -114h6l-2 -20h96l-2 -20h62l-12 -36h16l-4 -162h-22v-20h-20v-20h-510v20h-18v20h-16l4 162h30l6 36h16v20h42v20h28q12 60 22 113t21 106t22 108t23 117 h-2v20h-134v20h-32l38 198h26l6 18h22v22h104v16h254v-16h18l-2 -22h18v22z" />
<glyph unicode="o" d="M574 1016h42v20h82v20h276l-2 -20h96l-2 -20h56l-2 -16h56l-2 -22h44l-10 -34v-2h12l-2 -22h22l-2 -18h16v-40h20l-2 -22h10v-38h14v-38h18l-12 -98h22l-58 -276h-18l-8 -60h-20l-16 -94h-22l-8 -40h-12v-18h-26v-24h-22v-16h-24v-20h-20v-18h-52v-22h-18v-18h-22v-20 h-44v-20h-40v-20h-96q0 -4 1 -6t1 -6v-6h-350l6 18h-34v20h-54v20h-34v20h-18v18h-54l6 22v18h-16v20h-18v40h-12v38h-18l2 56h-2v42h-30l78 392h18l14 58h14l8 38h20l8 38h26l6 22h14l6 40h14v18h40v22h22v18h42q0 4 4 12q2 4 4 6h18v22h44v16zM910 414h22l8 40h18l6 34 l8 44l6 34v40h-12v18h-38l18 60h-2v16h-40l10 36v6h-34v20h-38v18h-94v-18h-42v-20h-22v-20h-32v-22h-16v-16h-32l-4 -40h-22l-12 -60h-18l-14 -74h-2l-14 -76h4l-2 -20h16v-38h14l-2 -20h24l-2 -20h10v-18h16l-2 -22h18v-18h36v-20h94v20h42v18h42v22h24v18h30l6 40h18z " />
<glyph unicode="p" d="M374 1002h100v20h50v20h198l-8 -20h62v20h374l-8 -20h16l-2 -20h58l-2 -20h38l-2 -20h18v-18h16l-2 -20h46l-14 -38h16v-40h12v-18h42l-18 -60h14l-26 -136h22l-60 -296h-18l-6 -40h-18l-8 -40h-22l-6 -36h-20l-6 -38h-14v-22h-38l-4 -18h-6v-20h-22v-20h-24v-20h-20v-18 h-72v-22h-36v-18h-102v-20h-260v-18h-26l-10 -56h18l-14 -78h22l-2 -18h94l-2 -22h36l-42 -196h-28v-20h-490v20h-52l42 196h8v22h64v18h30l14 60h12l158 794h-2v20h-16v20h-112v20h-34l40 196h12v20h42v20zM686 506l-24 -128h10l-2 -58h6l-2 -20h62l-8 -18h18l-2 -20h34v20 h60l6 12q2 4 2 6h20v20h22v20h24v20h28l6 36h20l8 40h20l8 40h18l8 34q2 12 4 17t4 9t3 11t3 23h-6v38h-10v20h-16v20h-16v18h-24v22h-4v18h-20v20h-14v20h-36v20h-72v-20h-44v-20h-30l-6 -38h-22l-40 -216z" />
<glyph unicode="q" d="M1026 1022h30l6 20h6v16h198l-2 -16h34l-54 -276h-22q-22 -116 -43 -226t-43 -219t-43 -220t-43 -229h30l-8 -20h18l-2 -18h92l-44 -218h-50v-20h-430v20h-38v38h-8l2 158h44v22h42v18h34l8 20h8v20h26q2 16 5 29t7 25l2 2l12 56h-4v20h-20v-20h-254v20h-54v18h-74l4 22 h-22v18h-34v20h-38v20h-12v20h-18v40h-10v18h-16v40h-32l14 60v36h-30l68 352h20l18 80h16l10 60h16v18h26l8 40h14v20h40l6 10v28h26v18h22v20h60l24 20v20h90v20h370zM538 532l-2 -18h8l-2 -56h6v-42h10v-38h12v-18h16l-2 -20h20v-20h12l-2 -20h66l-8 -18h54l-2 -20h36v20 h60l6 12q2 4 2 6h2v20h26q10 52 20 98t20 94q6 30 11 52t9 43t9 44t11 55h-4v20h-16v20h-18v20h-112v-20h-42v-20h-26v-20h-40v-18h-30l-8 -40h-14v-20h-28l-6 -40h-24l-12 -56h-18z" />
<glyph unicode="r" d="M880 1022h54v20h72v16h200l-2 -16h98l-6 -20h18l-2 -20h14v-20h34l-42 -236h-16v-20h-22v-20h-316v20h-14v-20h-44v-18h-50v-22h-16v-18h-22v-20h-26v-20h-22v-20h-40l-6 -18h-10l-50 -270h30l-14 -38h290v-20h18v-38h30l-38 -162h-10v-18h-22v-20h-762v20h-14v18h-34 l40 200h12v20h98v20h54v18h20l8 40h20l18 80l18 92h-16l16 98v22l4 22l16 72h-2v20h-56v-20h-158v40h-32l46 216h14v20h116v20h130v20h230v-40h10l-2 -20h26l-2 -20h52l22 20v20h40v20z" />
<glyph unicode="s" d="M596 1022h52v20h114v16h238l-2 -16h98l-6 -20h136l-2 -20h14l-2 -20h36l-14 -76h16l-42 -240h-22l-12 -58h-28v-20h-28v-12h14l-2 -22h20v-20h38l-6 -20h6l-2 -56h18l-56 -276h-8v-22h-40l-6 -18h-8l-6 -40h-14v-20h-22v-18h-52v-22h-16v-18h-46v-20h-118v-18h-314v18 h-230v20h-18v18h-32l4 22h-14l12 78h-18l28 148v-2l18 108h18l8 40h14v22h102l8 24v10h-16v20h-16v38h-12v38h-26l42 240h20l14 58h12v20h36l6 18h4v20h22v18h24v20h24v20h40v20zM850 294q2 4 4 6h2l4 36h-24v20h-48v18h-98l4 20h-124v-34h2v-40h12l-2 -20h42l-6 -18h16 l-2 -20h36l-2 -20h76v20h42v20h60zM904 652h36v36h-16l2 58h-2v20h-84l6 18h-64q0 -4 1 -6t1 -6v-6h-34v-20h-22v-18h2l-16 -40h56l-2 -16h136v-20z" />
<glyph unicode="t" d="M456 1058h18l30 160h46q8 16 8 20h222l-8 -30v-32h12l-2 -154h270v20h160l-2 -20h10l-2 -20h32l-36 -218h-46q0 -4 1 -6t1 -6v-6h-488v-2l-28 -156h-22q-8 -40 -14 -79t-16 -77q-4 -24 -8 -41t-8 -32t-8 -34t-10 -45h36l-14 -38h18l-2 -20h54v20h142v20h76l6 12q2 4 4 6 h242l-8 -18h32l-38 -200h-14v-18h-52v-22h-36v-18h-60v-20h-104v-18h-178v-22h-234v22h-56v18h-34v20h-38v40h-10v18h-16v40h-28l116 588h20q2 4 3 11t5 25h-26v20h-122l6 18h-10l36 198h14v20h122v20h30z" />
<glyph unicode="u" d="M230 982h34v20h140v20h238l-2 -20h32l-72 -354h-16l-38 -212h6v-58h2l-2 -18h20v-40h12l-2 -20h66l-8 -18h32v-20h34v20h60q0 4 4 12q2 4 4 6h38v20h26v20h22v20h30l32 150h-2q6 30 11 52t9 43t9 44t11 57h-6v20h-16v20h-94v20h-32l38 196h14v20h100v20h100v20h200 l-2 -20h26l-2 -58h18l-42 -238h-22q-10 -50 -19 -94t-18 -87t-18 -88t-17 -97h4l-2 -20h38l-2 -20h94v-38h20l-24 -180h-14v-18h-90v-22h-36v-18h-62v-20h-200v20h-90v-20h-104v-18h-256v18h-56v20h-34v18h-34l6 22h-2v18h-36v40h-12v20h-26l2 58h-14l24 118h-8l4 158h18 l4 116h12l26 134h-2v20h-94v20h-44l14 40l4 138h26z" />
<glyph unicode="v" d="M1388 998h6l-24 -184h-16l-6 -48h-76v-20h-28l-6 -40h-16v-18h-28l-12 -60h-22l-10 -58h-20l-4 -38h-24l-6 -60h-22l-6 -36h-20q-2 -14 -2 -26v-16h-34l-4 -20h-16l-10 -56h-10v-22h-34l-12 -56h-16l-12 -58h-18l-8 -40h-20l-6 -40h-18l-6 -38h-26l-6 -22h-14l-4 -38h-16 v-18h-258v18h-14v20h-18v40h-10v18h-24l2 60h-2v40h-10v38h-14v36h-12v40h-12v40h-16v58h-2v20h-22l2 58h-4v40h-20l2 58h-4v38h-10v40h-32l12 58v40h-14v20h-160l14 40h-26l24 176h16v20h22v20h454l-2 -20h76l-2 -20h32l-36 -198h-64q0 -4 1 -6t1 -6v-6h-14v-18h18v-60h2 v-36h14v-40h16l-2 -58h4v-40h12v-38h12v-40h12v-40l10 40h14l8 40h24l14 58h12l8 42h22l12 56h18l14 56h14l8 40h20l8 38h-48l6 18h-52v38h-14l4 160h22v20h42v20h324v20h204z" />
<glyph unicode="w" d="M622 1042l-8 -20h70l-38 -216h-14v-22h-152q0 -4 1 -6t1 -6v-6l-16 -78h18l-14 -76h12l-2 -58h10l8 38h20l10 60h18l4 36h24l12 60h12v20h42v20h180l-2 -20h18v-20h14v-38h12v-38h20l-2 -60h12l-2 -58h2v-26l10 48h20l18 76h18l18 76h14l6 38h-28l6 18h-112v22h-12v16 h-18l4 160h42q8 16 8 22l24 18v20h528l-10 -28v-12h16v-20h18l-4 -160h-24v-16h-22v-22h-56q0 -4 1 -6t1 -6v-6h-38q-2 -10 -2 -26v-14h-28l-4 -38h-22l-6 -32l-20 -86h-16l-10 -78h-24l-6 -40h-20l-8 -58h-26l-10 -58h-20l-16 -96h-22l-6 -40h-22l-16 -78h-16l-6 -40h-20 l-8 -40h-14v-18h-22v-20h-236v20h-18v40h-10v38h-14v40h-22l2 58h-18l4 20h-12l-10 -60h-18l-12 -58h-16l-6 -38h-28l-6 -22h-12l-6 -38h-230v20h-14v18h-16v40h-18l2 60h-14l2 58h-16l14 76h-8l2 60h-12l2 58h-10l2 58h-10l2 60h-22l20 76h-20l16 78h-6v40h-10v40h-32v20 h-80l14 48h-2l24 186h16l8 42h526z" />
<glyph unicode="x" d="M244 980h16v18h22v20h430v-20h94v-38h12l-4 -160h-24v-20h-22v-14h38l-8 -20h30l6 20h6v18h6v16h-16l4 160h34l8 20h4v18h492l-2 -18h30l-44 -218h-84v-18h-44v-22h-38l-4 -20h-4v-20h-22v-18h-46v-20h-32l-6 -40h-10v-18h-32l-6 -38h-12v-22h-26l-2 -8v-6h14l-2 -22h20 l-2 -18h16v-36h52l-6 -22h2l-2 -20h18v-38h14v-18h20l-2 -20h10l-2 -22h20l-2 -20h34l-2 -16h78l-2 -22h44l-10 -32v-26h10l-4 -160h-22v-18h-546v18h-34l44 218h30v16h-12v18h-36l6 24h-28v-24h-42q-2 -10 -4 -19t-2 -15h28l-8 -18h6l-24 -178h-24l-6 -40h-498v18h-34 l46 218h10v22h60v16h62v20h24v22h34l8 20h6v18h22v18h30l4 40h22q2 6 2 12v10h42l6 36h16v18h20v22h26v20h6v16h-14v18h-18v20h-14v18h-42l10 28v12h-16v20h-16v18h-16v20h-42l10 34v8h-34v18h-114v18h-32zM734 296l2 4v12h-2v-16z" />
<glyph unicode="y" d="M250 960h30l8 38h110v20h236v-20h154l-2 -18h56l-42 -200h-12v-18h-62v-18h-4v-18h12v-38h12v-40h12v-40h12v-38h10l-2 -18h26l-2 -40h16l12 58h14l8 38h20l8 40h22l12 58h20l10 56h-62v18h-16v20h-16l4 160h28l6 38h170v20h356l-2 -20h18v-38h8l-4 -160h-26l-6 -38h-54 v-18h-62v-22h-30l-6 -40h-24l-6 -56h-24l-10 -60h-16q-2 -12 -2 -24v-16h-30l-12 -58h-18l-6 -38h-22l-10 -58h-12v-20h-30l-8 -56h-22l-6 -42h-18q-2 -12 -2 -23v-15h-30l-10 -60h-14v-20h-30l-4 -36h-22l-6 -40h-14v-18h-32l-12 -60h-18l-6 -42h-22l-6 -36h-18l-4 -36h-24 l-12 -62h-18l-8 -40h-14v-16h-28l-6 -42h-20l-6 -36h-40q-2 -8 -2 -14v-8h-18v-18h-42v-20h-22v-20h-82v-18h-218v18h-54v20h-16l2 20h-34l40 196h16l8 42h14v20h264l8 36h16l8 40h14v20h28l8 38h22l6 40h20l6 38h18l8 40h16v36h-8v38h-12v38h-12v18h-16v40h-14v40h-10v20 h-16v40h-10v18h-18v38h-20l2 58h-2v40h-10v38h-16v40h-6v38h-16v40h-10v22h-16v18h-112v38h-14z" />
<glyph unicode="z" d="M428 980h6v18h24v20h550l-2 -20h16v20h240l-2 -20h16l-2 -18h34l-38 -200h-20l-6 -36h-12v-22h-42l-4 -20h-2v-20h-24v-18h-22v-20h-24v-18h-36l-6 -22h-6v-18h-22v-20h-20v-18h-24v-22h-40l-6 -18v-18h-32v-22h-18v-18h-22v-20h-24v-18h-36l-6 -22h-4v-18h-24v-20h-42 v-20h-30l-6 -36h-24l-6 -24h-28v-12h192l20 16v20h20v22h38l8 20h8l8 36h32l10 20l26 20v22h192l-6 -22h16l-52 -294h-22l-18 -78h-10v-22h-22v-18h-824v18h-52v22h-24l2 58h-2l2 160h26v16h26l8 42h26l8 20h4v18h22v18h24v20h24v20h28q2 6 2 12v10h14v16h36l8 20h4v18h24 v22h50q0 12 2 23t4 17h14v18h24v20h22v18h32l6 22h8v18h36l8 18h4v22h40v-2l24 20v20h24v20h34l4 16h-122v-18h-50l-8 -42h-20q-2 -12 -2 -23v-15h-28l-10 -60h-32v-18h-180v18h-16v40h-10l2 160h30l24 116h22z" />
<glyph unicode="{" d="M678 706l80 -74l-68 -352h278l-2 -22h20v-18h32l-44 -246h-22l-8 -42h-76v-18h-504v10h-62l8 24l2 54h-24l110 558l-70 52h-38v26l-36 22l42 42l14 94h32l140 86q8 50 16 91t18 87v-2l20 102h-18l54 302h10v20h40q8 20 8 22h38v18h526v-22h20l-2 -18h32l-44 -246h-20 l-6 -40h-88v-20h-216l-46 -232l-40 -212z" />
<glyph unicode="|" d="M784 -16h-14v-20h-40l-4 -20h-274l8 24l2 54h-24l120 602h16l112 556h-20l56 302h14v22h24v20h244l-2 -20h56l-16 -82h20z" />
<glyph unicode="}" d="M658 396q10 58 24 129t24 127l106 70l-80 44l82 430h-228l6 20h-56v40h-26l44 246h14v18h26v22h526l-2 -22h58l-2 -18h18l-2 -20h30l-54 -302h-26l-56 -296l88 -68h38l-2 -26l44 -22l-52 -52q-4 -18 -9 -37t-9 -31l-140 -84l-104 -542h-24l-12 -58h-24l-6 -20h-16v-10 h-506v18h-78v42h-26l46 246h12v18h28v22h302z" />
<glyph unicode="~" d="M318 744h14v18h74l6 22h352l-6 -22h134v22h314l-6 -22h2l-2 -18h34l-42 -246h-24l-4 -40h-76v-22h-770v22h-18v18h-34z" />
<glyph unicode="&#xa0;" />
<glyph unicode="&#xa1;" d="M744 -106v-20h-262v20h-38v22h-18v38h-34l18 62h-18l32 184h22l30 144h16l30 140h18l36 162h16q16 88 36 186t36 182h22l4 16h-30l10 28v12h-18v20h-14v42h-14l4 162h30l14 84h14v18h38l8 20h26v22h62v20h186v-20h36l-2 -22h42l-8 -22l-2 -16h34l-56 -308h-12v-20h-40 l-6 -20h-6v-20h-38l-8 -60h24l-74 -386h18l-32 -160h14l-2 -60h18l-68 -350h-20l-12 -60h-12v-18h-22v-22h-28z" />
<glyph unicode="&#xa2;" d="M808 1250h6v22h28v16h202v-16h42l-18 -64h16l-14 -80h32l-8 -20h18l-2 -20h76l-2 -20h40l-2 -20h20v-22h42l-10 -34v-26h30l-24 -102h8l-4 -164h-34l-10 -60h-28l-4 -22h-194v22h-30v20h-12v20h-42l18 62h-24l14 64v16h-18v20h-98v-20h-46v-22h-24v-18h-54v-24h-14v-16 h-34l-6 -42h-12v-20h-34l-14 -62h-16l-16 -68h2l-6 -30h2v-40h16v-40h10l-2 -22h20l-2 -20h18l-2 -20h46l-8 -22h16l-2 -20h18l-2 -20h162v20h84v20h80q4 4 5 8t5 8q2 4 6 6h14v20h166l-2 -20h56l-44 -228h-14v-18h-36l-6 -22h-28v-18h-44v-20h-66v-22h-80v-20h-78v-20h-36 v-20h-28l-8 -40h-24l-28 -164h-22l-14 -58h-12v-22h-204v22h-14v18h-34l46 244h-2v40h-56v20h-36v22h-38v20h-14v18h-36l6 22h-2v18h-18v24h-14v16h-18v42h-10v42h-14v40h-32l90 448h20l12 62h18l8 40h22l6 40h28l8 20h6l8 42h18v20h22v20h60l10 10v32h24v20h44v20h86v20h50 v12q0 4 2 8h22l8 38h22z" />
<glyph unicode="&#xa6;" d="M944 814l-6 -32l-154 -798h-14v-20h-40l-4 -20h-274l8 24l2 54h-24l120 602h16l12 40l-2 -2q4 24 12 56t14 64h-2l78 398h-20l56 302h14v22h24v20h244l-2 -20h56l-16 -82h20z" />
<glyph unicode="&#xa7;" d="M662 1182h36v18h96v14h222v-14h58l-2 -18h126l-2 -16h14l-2 -16h40l-18 -62h10l-38 -222h-34q-6 -12 -6 -10l-10 -16v-34h4l-2 -16h14l-2 -44l16 -20h16l-42 -252h-6v-16h-20v-16h-28l-4 -32h-14v-26h22l-50 -256h-4v-16h-22v-16h-26l-6 -34h-8v-12h-18v-16h-36v-16h-20 v-16h-36v-18h-94v-12h-288v12h-182v18h-14v16h-10v16h-40l18 62h-2l14 108v8q0 2 2 4l8 36v-2l10 84h14l8 32h10v18h32l2 58h-10l42 238h16v46h18v18h20v14h20v12h-6l6 32h-18l48 224h10l8 48h12v14h18v18h20v14h18v14h20v16l52 -2v34zM750 256h12v14h-46v14h-60v16h-66 l-6 -28v-16h10l-2 -16h32v-16h28l-2 -16h28v16h36v16h36v16zM830 900h102l2 20l-4 8h-6v18h-46v14h-28v-14h-32v-18h-20v-12h34zM746 554h32v16h54v14h-6v14h-46v18h-28v-18h-36v-12h6l-2 -16h28z" />
<glyph unicode="&#xa8;" d="M374 1792v20h34l6 22h50v18h164l-2 -18h76l-6 -22h4l-2 -20h32l-50 -268h-18l-6 -40h-16v-18h-72v-22h-176l6 22h-46v42h-8v16h-36l50 268h16zM836 1774l6 38h42v22h38v18h162l-2 -18h80l-6 -22h2v-20h32l-56 -284h-10v-24h-24v-18h-36l-6 -22h-228l6 22h-22v42h-20l2 58 h-20l38 208h22z" />
<glyph unicode="&#xa9;" d="M468 1518h124v32h282v-32h150v-30h96v-30h88v-30h32v-30h28v-58l8 -4h52v-26h32v-94l10 -4h50v-60h36v-64h24v-152h36l-26 -252l-10 -14v-120h-32l-2 -18q-4 -24 -7 -46t-6 -37t-4 -18t-1 11l-8 -18v-84h-28v-32h-32v-30h-32v-30h-30v-30h-30v-34h-60v-30h-32v-28h-28 v-32h-62v-34h-62v-30h-122v-30h-372v30h-94v30h-86v34h-62v32h-32v28h-62v30h-30v34h-28v30h-32v60h-30v64h-32v90h-28v64h-30v472h30v90h28v64h32v60h30v34h32v64h28v26h64v34h28v28h32v30h62v30h60v30h58v30zM1146 602h20v120h32v78h-32v120h-20v-60h-14v-12h-14v-12h-208 v12h-14v26h-16v60h-16v22h-16v12h-14v14h-16v12h-32v14h-38v-14h-32v-12h-30v-14h-18v-12h-16v-8h-14v-30h-14v-8h-18v-26h-14v-36h-14v-50h-16v-100h16v-48h14v-36h14v-12h18v-24h14v-14h14v-14h16v-10h32v-12h28v-12h58v12h32v12h16v10h14v28h16v10h16v50h16v36h14v12h14 v12h194v-12h28v-84zM508 1212h64l14 10v16h276v22h-294v-30h-60v-18zM804 264v12h-114v-12h114zM462 1188h30v12h-38l-6 -12v-12h14v12zM900 1222h24v8h-24v-8z" />
<glyph unicode="&#xaa;" d="M1058 1662l14 -12q0 4 -1 7t-1 5q8 2 36 2v-20h26l-38 -178q0 -14 -4 -32t-14 -34q-4 -24 -7 -33t-7 -37q10 -4 22 -14t20 -28q18 -16 24 -37t-4 -59q0 -10 -1 -21t-17 -27h8l-2 -16h30l-44 -222h-16l-6 -30h-52v-18h-624v18h-12v12h-30l46 240h6v16h50v12h-22l32 134 q0 16 6 40t24 42l4 8q-10 8 -18 19t-18 23q28 8 51 14t39 12l24 108q0 18 5 31t15 25q6 22 21 32t37 14l24 8l4 4q20 16 56 22l-8 -4l16 4t18 2q10 6 21 11t21 5h144h27t25 -14q8 -4 19 -10t17 -12l-6 2q4 -4 8 -6t8 -6q-4 -2 -10 -4t-10 -6l8 4t16 4l-4 2q10 4 16 -2h-12z M840 1354l38 -24q18 14 8 30zM870 1542l40 -14q6 8 5 15t-5 11zM804 1540q-16 20 -26 10l24 -14z" />
<glyph unicode="&#xab;" d="M152 694q0 6 -1 17t-1 15l586 380l8 -30l56 28l6 -18l6 6l78 -190l316 204l8 -28l54 26l12 -32l8 6l90 -224l-16 -6l8 -24l-18 -8l6 -12l-234 -120l-4 4l-104 -72l66 -66l4 6l198 -128l-6 -12l12 -6l-12 -18l16 -8l-176 -222l-6 8l-12 -14l-46 18l-16 -30l-240 206 l-146 -190l-10 10l-10 -14l-50 22l-20 -28l-442 382l4 42zM558 606q14 -16 19 -22t15 -16l24 96l-68 -48z" />
<glyph unicode="&#xac;" d="M928 60v22h-24l2 60h-20l68 338h-756v20h-18v18h-32l52 268h12v18h64v22h348l-2 -22h306v22l192 4h174l-2 -20h56l-16 -82h18l-118 -626h-28l-6 -20h-4v-22h-266z" />
<glyph unicode="&#xad;" d="M390 786h12v18h62v22h648l-2 -22h20l-2 -18h34l-44 -244h-22l-6 -42h-76v-20h-626v20h-18v18h-34z" />
<glyph unicode="&#xae;" d="M468 1518h124v32h282v-32h150v-30h96v-30h88v-30h32v-30h28v-58l8 -4h52v-26h32v-94l10 -4h50v-60h36v-64h24v-152h36l-26 -252l-10 -14v-120h-32l-2 -18q-4 -24 -7 -46t-6 -37t-4 -18t-1 11l-8 -18v-84h-28v-32h-32v-30h-32v-30h-30v-30h-30v-34h-60v-30h-32v-28h-28 v-32h-62v-34h-62v-30h-122v-30h-372v30h-94v30h-86v34h-62v32h-32v28h-62v30h-30v34h-28v30h-32v60h-30v64h-32v90h-28v64h-30v472h30v90h28v64h32v60h30v34h32v64h28v26h64v34h28v28h32v30h62v30h60v30h58v30zM1104 982v30h-6v-164h-12v-36h-16v-24h-16v-10h-12v-26h-28 v-10h-18v-20h18v-8h10v-12h18v-26h12v-22h16v-10h16v-26h12v-22h14v-24h20v30h34v120h32v78h-32v120h-34v62h-28zM378 572h28v426h-14v12h-32v-58h-32v-118h-30v-144h30v-120h32v-10h18v12zM484 376v-20l4 -4h54v-40h22l18 -18h108v-30h114v30h86v34h66v6h-46v14h-14v10h-14 v12h-14v22h-16v14h-14v20h-14v12h-14v-80h-14v-10zM782 946h14v10h14v6h-14v12h-14v10h-28v14h-16v12h-72v-26h-14v-74h14v-12h58v12h30v10h12v12h16v14zM568 1234h228v-12h128v8h-62v30h-294v-26zM696 550h58v6h-16v24h-14v22h-32v14h-10v20h-16v14h-14v-78h14v-12h30v-10z " />
<glyph unicode="&#xb0;" d="M698 1916h280l-22 -38q14 -18 14 -38l18 -38l36 8l-30 -156q8 -34 -2 -51t-28 -27q-6 -12 -13 -20t-21 -18l-4 -8q-8 -10 -12 -19t-14 -15q-20 -24 -46 -26l-6 -4q-6 -4 2 -4t-4 0v-28h-156q-28 -10 -44 -5t-28 21q-12 2 -24 9t-20 15q-10 6 -17 13t-11 21l-8 6l2 -4 q-2 0 -2 4l-64 -50l58 274q0 16 5 32t19 30q2 12 16 22q-2 12 -2 24v22h8v10z" />
<glyph unicode="&#xb1;" d="M208 266h36l12 12v16h288l-2 -16h24l50 290h-44v14l-28 2q-8 0 -15 1t-11 1q-18 2 -44 3l-52 2t-50 1h-42l-8 16h-54l40 208h6v22h16v16h84v14h264l66 336h6v14h30v12h218v-12h12l-2 -14h14v-12h24l-62 -320v-4h320v-14h10l-2 -16h28l-44 -230h-16l-6 -26h-42v-14h-284 v14h-20q-4 -10 -5 -19t-3 -19l-8 -38l-44 -228h112v16h252l-2 -16h16v-12h28l-40 -216h-16l-6 -30h-50v-12h-960v12h-12v16h-30z" />
<glyph unicode="&#xb4;" d="M522 1444l-90 234l32 2l14 12q-6 14 -6 18l236 116l6 -12l42 22v18l176 62l58 28l70 -198l-8 -6l16 -30l-52 -28v-12q0 -4 2 -6l-494 -258z" />
<glyph unicode="&#xb5;" d="M224 -244v20h-18l2 56h-16l68 338h2l30 168l4 156h20l4 122h12l28 140h-4v20h-96v20h-46l14 42l4 144h28l8 38h34v22h144v20h248l-2 -20h34l-74 -368h-18l-40 -222h8v-60h2l-2 -18h18v-40h14v-22h66l-8 -20h60q2 4 3 7t3 7t4 6h40v22h24v16h24v24h30l36 164q6 30 11 52 t9 43t9 45t11 58h-8v20h-14v20h-100v20h-32l38 204h14v20h106v22h104v20h204v-20h26l-2 -60h16l-40 -246h-26l-72 -386h4l-2 -16h40l-2 -22h30l-72 -248h-10v-40h-64v-20h-206v20h-132v-40h-236l-38 -188h-22l-4 -14v-26h-232z" />
<glyph unicode="&#xb7;" d="M600 1298h18v14h50v12h190v-12h42l-2 -14h50l-8 -24h12l-32 -186h-16l-18 -78h-14l-12 -58v2l-26 -150h-6v-12h-20v-12h-220v12h-10v12h-30l12 78h-10l24 128h-22l18 68h-12l38 206h4v14z" />
<glyph unicode="&#xb8;" d="M502 -34q-4 4 -12 11t-8 9l10 10l-6 6l10 10l-22 18l440 268v-18l30 18v-76l54 -106l4 -32l-18 -18v-18l-82 -52l70 -36h66l-144 -192l-8 -20l-32 2v-42l-312 172h-74l6 14h-14z" />
<glyph unicode="&#xba;" d="M492 1160v40h-14v42h-28l62 326h18l8 40h22l8 42h14v22h44v18h26v22h366l-2 -22h58v-18h18l-2 -22h18l-2 -20h20v-40h34l-18 -64h18l-52 -262h-18l-8 -42h-20l-4 -40h-26v-22h50l-2 -16h14v-16h30l-46 -222h-14l-4 -30h-56v-18h-624v18h-12v12h-30l48 240h6v16h48v16h52z M840 1386l2 18v42h-16v18h-14v-18h-24v-22h-30l-2 -16h24l-8 -26l-2 -16h18v20h52z" />
<glyph unicode="&#xbb;" d="M1346 568l18 -38l-598 -386l-10 28l-54 -22l-6 12l-8 -8l-80 192l-310 -202l-12 30l-54 -24l-12 26l-10 -6l-90 224l12 6l-6 16l20 8l-4 22l234 120l2 -8l100 74q-16 14 -27 26t-35 38l-4 -4l-206 134l6 10l-2 2l10 16l-14 8l170 224l12 -10l18 20l40 -24l22 26l234 -202 l144 190l10 -10l20 22l40 -28l22 28l440 -382l-2 -42zM880 580l70 52q-12 10 -21 21t-23 25v-4z" />
<glyph unicode="&#xbc;" d="M394 1508h26l8 42h154v20h290l-2 -20h22l-2 -62h20l-44 -244h-24l-40 -200h4v-42h32l-2 -20h142v-22h32l-12 -60h6l24 20v20h50v20h38v22h44v20h246l-2 -20h34l-32 -188h-16v-16h-24v-24h-44v-18h-52v-22h-34v-18h-58v-20h-34v-22h-44v-20h-46v-20h-42v-20h-52v-18h20 l-2 -24h30l-20 -138h162l-2 -22h20l-2 -20h34l-28 -142h4v-42h12l-2 -16h80l-2 -22h16l-2 -20h38l-40 -206h-22l-6 -40h-94v-20h-34l-10 -62h-22l-6 -38h-10v-22h-208v22h-16v18h-24l2 62h-2v40h-320v20h-14v20h-44l6 22h-8l40 242h24l10 62h16v22h28l8 40h20l8 40h22l14 62 h24l6 16h-32v-20h-64v-20h-46v-18h-54v-22h-36v-18h-22v-22h-44v-20h-56v-22h-34v-18h-166v18h-34l4 22h-18l40 204h24l8 22h10q6 24 9 31t4 2t2 -15t1 -18l24 20v16h44v24h86l24 18v22h58q2 4 3 7t3 7t4 6h4q6 24 9 30t4 2t2 -14t1 -16l24 20v18h86v2l24 20v18h34l4 20 h-272v18h-50l44 228h28v20h150v20h30l46 222h-4v20h-160v18h-16v40h-24zM872 250l-8 -62h28l20 102h-8l-8 -40h-24zM862 172v14h-20l-4 -14h24zM678 434l2 16h-2v-16z" />
<glyph unicode="&#xbd;" d="M988 608h94v-22h56l-2 -20h40l-2 -20h20v-20h38l-8 -22v-38h14v-40h30l-40 -208h-22l-6 -38h-20l-8 -42h-16v-22h-22v-20h-46v-16h122l-8 -22h12l-46 -242h-18l-6 -42h-36v-24h-206v24h-20v-24h-448v24h-34v18h-34l46 226h18l6 40h26l8 22h4v20h44v20h26v22h64v20h44v18 h-154v38h-24l26 166h-52v-24h-18v-18h-44v-22h-42v-20h-26v-18h-204v18h-34l44 226h14v20h44v20h64v20h42v22h24v18h74v22h60l24 20v20h20v22h66v18h60q4 8 8 12t6 8h-324v18h-34l42 206h30v22h152q2 12 4 23t4 17h18l12 46l32 156h-20l6 38h-144v20h-18v20h-34l40 206h16 v20h122v22h308l-2 -22h20l-2 -20h32l-100 -508h28l-2 -18h138l-2 -22h20v-20h32l-4 -22h34v22h36v20h28q6 24 10 30t5 2t2 -14t1 -16l24 20v18h20v22h226l-2 -22h34l-44 -226h-28v-20h-26v-18h-64v-22h-44v-20h-54v-22h-36v-20h-44v-18h-44v-20h-46v-18zM748 260l-6 -38h24 v18h24v22h22v20h54v22h18v18h24v20h-74v-22h-26v-20h-32l-6 -40h-22zM712 546l-12 -12l16 -14l10 12zM500 384l2 16h-2v-16z" />
<glyph unicode="&#xbe;" d="M1078 960h38v22h44v20h246l-2 -20h34l-32 -188h-16v-16h-24v-24h-44v-18h-52v-22h-34v-18h-58v-20h-34v-22h-44v-20h-46v-20h-42v-20h-52v-18h20l-2 -24h30l-20 -138h162l-2 -22h20l-2 -20h34l-28 -142h4v-42h12l-2 -16h80l-2 -22h16l-2 -20h38l-40 -206h-22l-6 -40h-94 v-20h-34l-10 -62h-22l-6 -38h-10v-22h-208v22h-16v18h-24l2 62h-2v40h-320v20h-14v20h-44l6 22h-8l40 242h24l10 62h16v22h28l8 40h20l8 40h22l14 62h24l6 16h-32v-20h-64v-20h-46v-18h-54v-22h-36v-18h-22v-22h-44v-20h-56v-22h-34v-18h-166v18h-34l4 22h-18l40 204h24 l8 22h10q6 24 9 31t4 2t2 -15t1 -18l24 20v16h44v24h86l24 18v22h58q2 4 3 7t3 7t4 6h4q0 4 1 7t1 7h-124v10h-32v18q-4 0 -7 1t-5 1t-4 2v10h-50v12h-16v20h-16l36 152h14v52l148 -20h70v-10h22v-12h40v12l70 2q2 12 2 25v17h34l8 10q0 2 2 4l4 6v8h-20v22h-18v10h-8v12 h-22v10h-96v12h-8v10h-26l40 172v22h-118v10h-24l38 164l2 2l6 10v28l14 6v36h28v32h26v12h24v10h28v12h62v10h186v-10h56v-12h34l-2 -10h24l-2 -12h26v-10h12l-2 -10h8v-12h10l-2 -18h10v-12h10v-44h18l-54 -224l2 2l-10 -46h8l-2 -22h10l-2 -20h8v-42h22l-48 -212h46v14 q0 4 2 8h34v20h66l24 20v20h50v20zM872 250l-8 -62h28l20 102h-8l-8 -40h-24zM570 1282l-4 -8h42v8l12 4q-4 12 2 22h-8v-4h-30v-20zM862 172v14h-20l-4 -14h24zM426 650v-12l14 12h-14zM678 434l2 16h-2v-16zM846 840h4v6h-2zM610 958l-2 -6q2 2 2 4v2z" />
<glyph unicode="&#xbf;" d="M536 -126v18h-78v22h-16v20h-60l8 30v12h-16v16h-18v24h-16v18h-24l2 62h-16l54 308h22l12 60h18l8 42h22l6 40h16v18h24v22h26v18h20v22h36v20h16v22h26l8 42h16v16h22v22h32l8 38h20l6 42h24l30 144h10v16h-32v22h-36v40h-14v40h-28l42 204h14l8 42h22l8 40h36v20h326 l-2 -20h20l-2 -22h34l-58 -284h-8v-20h-34l-6 -40h-36v-22h-6l-2 -16h34l-50 -266h-22l-10 -64h-24l-6 -40h-12v-18h-32l-6 -40h-20l-6 -42h-44q-4 -12 -6 -25t-2 -17h-16v-18h-22v-22h-32l-6 -40h-24l-6 -40h-22l-6 -42h-20l-2 -16h24l-18 -64h4v-38h34l-2 -22h40v22h36 l8 20h8l8 40h20l30 164h18v18h36l6 20h258l-14 -38h32l-56 -288h-12v-20h-30l-6 -40h-22l-8 -40h-12v-24h-34l-6 -38h-44v-20h-38v-20h-22v-22h-62v-18h-308z" />
<glyph unicode="&#xc0;" d="M1134 1610l16 -10l-16 -22l12 -8l-62 -84h4l-2 -20h22l-2 -20h16v-40h36l-18 -62h4v-40h36l-20 -62h12l-2 -60h10l-2 -62h12l-2 -60h26l-20 -62h12l-2 -58h10l-4 -64h6v-40h10v-40h16v-40h28l-18 -80h6v-42h10v-42h28l-14 -80h2v-40h22l-2 -60h4v-40h10v-42h14v-40h34 l-2 -22h56l-2 -18h56l-46 -228h-10v-18h-568v18h-76l38 204h28l6 24h68v18h42l20 60h-4v40h-14v18h-36l6 24h-312v-24h-28l-10 -78h-26v-40h120l-2 -18h34l-40 -204h-12v-24h-226v-18h-348v18h-54l46 228h14v18h42v22h42v18h38l6 22h12l10 58h18v24h30l12 60h20l12 60h20 l12 60h20l8 42h20l8 42h20l8 40h20l16 80h20l8 40h18l8 40h24l12 64h18l6 40h24l12 60h20l18 80h16l12 62h22l12 60h18l6 40h24l18 82h18l18 82h12l-274 188l28 28l-2 4v22l-16 28l102 124q0 12 2 33t2 23l36 -20l16 22l184 -126l-6 -16q4 -2 7 -4t9 -2l12 10l206 -134z M750 692l-2 -16h144v18h14l8 38h-30l18 62h-22l12 64v38h-16v-20h-30l-14 -82h-22l-6 -42h-22l-14 -60h-18z" />
<glyph unicode="&#xc1;" d="M822 1446h30v20h26v20h14l-46 126h22v4l18 8l-6 16l240 122l6 -14l44 22v20l232 118v-32l2 2l80 -228h-4l2 -10l-52 -24q0 -4 1 -7t1 -5v-4l-316 -166v-28h34l-18 -62h4v-40h36l-20 -62h12l-2 -60h10l-2 -62h12v-60h24l-20 -62h12l-2 -58h10l-4 -64h6v-40h10v-40h16v-40 h28l-14 -80h2v-42h10v-42h28l-14 -80h6v-40h18l-2 -60h4v-40h12v-42h12v-40h34l-2 -22h58l-2 -18h54l-46 -228h-8v-18h-570v18h-76l38 204h28l6 24h68v18h42l20 60h-4v40h-12v18h-36l4 24h-312v-24h-26l-12 -78h-24l-2 -18h4l-2 -22h118l-2 -18h34l-40 -204h-12v-24h-226 v-18h-348v18h-54l48 228h12v18h42v22h42v18h38l6 22h12l10 58h18v24h30l12 60h20l12 60h20l12 60h20l8 42h20l8 42h22l6 40h20l16 80h20l8 40h18l8 40h24l12 64h18l6 40h24l12 60h20l18 80h16l12 62h22l12 60h18l8 40h22l18 82h18zM742 692l-2 -16h144v18h14l8 38h-30l18 62 h-22l12 64v38h-18v8l-4 -28h-24l-14 -82h-22l-6 -42h-22l-14 -60h-18z" />
<glyph unicode="&#xc2;" d="M1056 1844q22 8 48 20t36 16v-4l14 6v-66l124 -314l-18 -10l18 -60l-48 -2l-76 -40l-14 -46h4v-40h36l-20 -62h12l-2 -60h10l-2 -62h12l-2 -60h26l-20 -62h12l-2 -58h10l-4 -64h6v-40h10v-40h16v-40h28l-18 -80h6v-42h10v-42h28l-14 -80h2v-40h22l-2 -60h4v-40h10v-42h14 v-40h34l-2 -22h56l-2 -18h56l-46 -228h-10v-18h-568v18h-76l38 204h28l6 24h68v18h42l20 60h-4v40h-14v18h-36l6 24h-312v-24h-28l-10 -78h-26v-40h120l-2 -18h34l-40 -204h-12v-24h-226v-18h-348v18h-54l46 228h14v18h42v22h42v18h38l6 22h12l10 58h18v24h30l12 60h20 l12 60h20l12 60h20l8 42h20l8 42h20l8 40h20l16 80h20l8 40h18l8 40h24l12 64h18l6 40h24l12 60h20l18 80h16l12 62h22l12 60h18l6 40h24l18 82h18l8 42l-54 36v12l-8 8v38l-24 22l238 302q0 16 1 36t1 22zM750 692l-2 -16h144v18h14l8 38h-30l18 62h-22l12 64v38h-16v-20 h-30l-14 -82h-22l-6 -42h-22l-14 -60h-18z" />
<glyph unicode="&#xc4;" d="M1116 1716l8 36h54l26 22v18h162l-2 -18h58v-22h18l-2 -20h34l-58 -284h-22l-6 -22h-6v-20h-24v-22h-204l-12 -40h4v-40h36l-20 -62h12l-2 -60h10l-2 -62h12l-2 -60h26l-20 -62h12l-2 -58h10l-4 -64h6v-40h10v-40h16v-40h28l-18 -80h6v-42h10v-42h28l-14 -80h2v-40h22 l-2 -60h4v-40h10v-42h14v-40h34l-2 -22h56l-2 -18h56l-46 -228h-10v-18h-568v18h-76l38 204h28l6 24h68v18h42l20 60h-4v40h-14v18h-36l6 24h-312v-24h-28l-10 -78h-26v-40h120l-2 -18h34l-40 -204h-12v-24h-226v-18h-348v18h-54l46 228h14v18h42v22h42v18h38l6 22h12l10 58 h18v24h30l12 60h20l12 60h20l12 60h20l8 42h20l8 42h20l8 40h20l16 80h20l8 40h18l8 40h24l12 64h18l6 40h24l12 60h20l18 80h16l12 62h22l12 60h18l6 40h24l18 82h18l4 20h-124v22h-58v42h-10v18h-34l50 266h14v20h22v22h66v18h164v-18h58l-2 -22h18l-2 -20h34l-46 -246 h110l2 22h-22l42 208h18zM750 692l-2 -16h144v18h14l8 38h-30l18 62h-22l12 64v38h-16v-20h-30l-14 -82h-22l-6 -42h-22l-14 -60h-18z" />
<glyph unicode="&#xc6;" d="M568 1438h30v20h26v22h204l-2 -22h20v-12h850l-2 -22h28l-2 -60h18l-46 -224h-18l-18 -102h-24l-12 -60h-8v-22h-226v18l-42 -140h-16l-68 -366h-192v22h-18v42h-12v40h-6l-14 -66h6v-40h20l-2 -62h4v-40h10v-42h16v-38h14v6h84v18h50v22h24l8 42h22l14 80h24l12 60h10 v20h206l-2 -20h18v-40h30l-84 -426h-14v-24h-22v-18h-44v-22h-186v22h-80v-8h-570v20h-74l40 204h14v22h86v20h60l2 58h-4v40h-40l12 36v6h-320v-20h-34l-16 -80h-20l-4 -18h4l-2 -22h120l-2 -20h34l-38 -204h-20v-22h-220v-20h-348v20h-54l48 226h10v20h44v22h42v18h38 l8 20h12l14 62h10v20h32l10 62h22l14 58h18l12 62h22l6 42h20l8 42h22l8 40h18l20 80h16l8 40h20l8 40h22l12 62h18l8 40h20l12 62h22l16 82h16l14 58h20l14 62h20l6 42h22l14 80h22zM1354 998l22 100h-4v42h-34v18h-136l6 24h-258l4 -24l-4 -34l22 -104q6 -24 10 -47t4 -45 l-2 -12h2v-18h84l8 42h20l8 40h22l14 60h12v20h186l-2 -20h16v-42zM486 684v-14h144v16h10l8 38h-28l20 64h-22l12 62v38h-20l-2 -18h-24l-14 -82h-22l-6 -40h-24l-10 -64h-22zM1008 586h16v28h-8v16h-20v-2h12v-42z" />
<glyph unicode="&#xc7;" d="M1078 1466l-2 -20h100l-2 -22h180l-2 -18h16v-42h28l-32 -182h-24q-4 -16 -6 -28t-6 -34h18l-32 -184h-14v-20h-22v-20h-228v20h-14v40h-28l18 102h-2v40h-14v20h-16v22h-16v18h-58l6 24h-92v-24h-36v-18h-46v-22h-24v-20h-22v-20h-36l-6 -40h-12v-22h-32l-6 -38h-22 l-12 -62h-20l-16 -82h-22l-28 -148l-22 -114h24l-16 -78h26l-20 -64h2l-2 -18h22v-40h8l-2 -22h22v-20h34l-6 -22h24l-2 -18h38l-2 -22h40l-2 -18h40v18h64v2l24 20v18h38l6 22h10l6 42h18v16h32l16 84h20l12 60h22l8 20h4v20h208l-2 -20h56l-82 -406h-14v-22h-22v-20h-40 l-4 -20h-28v-22h-22v-16h-44v-24h-44v-18h-86v-22h-12l2 -32q0 -14 1 -31t1 -65h-4l2 -30q0 -12 1 -32t1 -54l-20 -6v-38h-16v-4l-228 -62l-2 22l-26 -6l-6 68h-22l-12 252h-8v18h-98v22h-60v18h-36v24h-36v16h-16v22h-42l10 30v10h-18v22h-14v38h-14v22h-14v20h-26l2 60h-4 v42h-20l2 58h-16l20 104h-24l84 426h22l18 82h14l12 62h24l12 60h18l4 40h26l8 42h12v20h30l8 40h14v20h24v22h30q2 8 2 13v7h18v20h22v20h24v20h52v22h26q8 26 10 17t2 -17h2l24 18v22h64v20h368z" />
<glyph unicode="&#xc8;" d="M1152 1602l12 -8l-16 -20l12 -10l-86 -118h332l-2 -22h26l-2 -60h20l-48 -224h-16l-20 -102h-24l-12 -60h-8v-22h-228v18l-42 -140h-14l-68 -366h-192v22h-20v42h-8v40h-16v42h-10v16h-54v22h-6q0 -2 -1 -3t-1 -3v-32h-28v-24h-26q0 -2 -1 -3t-1 -3l-4 -26q-2 -2 -2 -8 q-2 -4 -2 -10l-4 -12l-8 -44q-2 -6 -2 -14l-28 -140h6v-40h12l-2 -22h222v22h86v18h50v22h24l8 42h22l18 80h18l14 60h10v20h206l-2 -20h18v-40h30l-84 -426h-12v-24h-24v-18h-44v-22h-184v22h-850v18h-14v24h-30l26 180h24v4q0 4 1 5t1 3v12h38v18h64v22h24v18h28l84 420 q10 48 17 92t17 88q2 4 2 10q8 40 16 78t16 80l12 58q0 8 4 24h-42l4 24h-82v18h-18v20h-34l42 204h12v22h546l-274 182l14 14l-36 24l32 32l-4 4l132 172l16 -10l20 20l6 -4l4 2l192 -130l-2 -2l216 -132zM1062 998h2l20 100h-4v42h-34v18h-136l6 24h-156v-24h-24l-44 -228 l-2 -14h4l-2 -18h86l6 42h22l8 40h22l14 60h12v20h186l-2 -20h16v-42z" />
<glyph unicode="&#xc9;" d="M296 1424h12v22h352l-68 166h20l24 12l-8 16l242 122l6 -14l42 22v20l232 118v-32l2 2l82 -228h-6l4 -10l-52 -24q0 -4 1 -7t1 -5v-4l-294 -154h518l-2 -22h26l-2 -60h20l-48 -224h-16l-20 -102h-24l-12 -60h-8v-22h-228v18l-42 -140h-14l-68 -366h-192v22h-20v42h-8v40 h-16v42h-10v16h-54v22h-6q-2 -6 -2 -13v-13v-12h-28v-24h-26q-6 -32 -13 -62t-11 -58l-28 -140h6v-40h12l-2 -22h222v22h86v18h50v22h24l8 42h22l18 80h18l14 60h10v20h206l-2 -20h18v-40h30l-84 -426h-12v-24h-24v-18h-44v-22h-184v22h-850v18h-14v24h-30l26 180h24 q2 8 2 14v10h38v18h64v22h24v18h28l84 420q10 56 20 108t21 103t21 105t22 114h-42l4 24h-82v18h-18v20h-34zM1062 998h2l20 100h-4v42h-34v18h-136l6 24h-156v-24h-24l-44 -228l-2 -14h4l-2 -18h86l6 42h22l8 40h22l14 60h12v20h186l-2 -20h16v-42z" />
<glyph unicode="&#xca;" d="M988 1850l78 32v-2l14 6v-74l126 -306l-16 -8l24 -52h192l-2 -22h26l-2 -60h20l-48 -224h-16l-20 -102h-24l-12 -60h-8v-22h-228v18l-42 -140h-14l-68 -366h-192v22h-20v42h-8v40h-16v42h-10v16h-54v22h-6q-2 -6 -2 -13v-13v-12h-28v-24h-26q-6 -32 -13 -62t-11 -58 l-28 -140h6v-40h12l-2 -22h222v22h86v18h50v22h24l8 42h22l18 80h18l14 60h10v20h206l-2 -20h18v-40h30l-84 -426h-12v-24h-24v-18h-44v-22h-184v22h-850v18h-14v24h-30l26 180h24q2 8 2 14v10h38v18h64v22h24v18h28l84 420q10 56 20 108t21 103t21 105t22 114h-42l4 24h-82 v18h-18v20h-34l42 204h12v22h386l-4 2v12l-6 6l4 46l-24 22l256 326l16 -8l2 2l44 -2zM1062 998h2l20 100h-4v42h-34v18h-136l6 24h-156v-24h-24l-44 -228l-2 -14h4l-2 -18h86l6 42h22l8 40h22l14 60h12v20h186l-2 -20h16v-42zM926 1458l-18 -24q12 -4 34 -8z" />
<glyph unicode="&#xcb;" d="M1028 1724l8 38h54l26 20v20h162l-2 -20h58l-2 -20h20l-2 -20h34l-58 -286h-22l-4 -10h106l-2 -22h26l-2 -60h20l-48 -224h-16l-20 -102h-24l-12 -60h-8v-22h-228v18l-42 -140h-14l-68 -366h-192v22h-20v42h-8v40h-16v42h-10v16h-54v22h-6q-2 -6 -2 -13v-13v-12h-28v-24 h-26q-2 -4 -2 -14q-2 -2 -2 -8q-4 -12 -4 -18l-8 -30v-6q-2 -4 -2 -10l-4 -14v-6q-2 -4 -2 -12v-2l-28 -140h6v-40h12l-2 -22h222v22h86v18h50v22h24l8 42h22l18 80h18l14 60h10v20h206l-2 -20h18v-40h30l-84 -426h-12v-24h-24v-18h-44v-22h-184v22h-850v18h-14v24h-30 l26 180h24q0 4 1 6t1 6v12h38v18h64v22h24v18h28l84 420q4 28 10 55t10 53l6 32q4 16 8 40l16 72q0 8 4 20l14 76l16 82h-42l4 24h-82v18h-18v20h-34l42 204h12v22h238v10h-10v20h-36l52 266h14v20h20v20h68v20h164v-20h56v-20h18l-2 -20h32l-50 -266h-20l-4 -30h156v10h-16 l2 60h-22l40 208h20zM1062 998h2l20 100h-4v42h-34v18h-136l6 24h-156v-24h-24l-44 -228l-2 -14h4l-2 -18h86l6 42h22l8 40h22l14 60h12v20h186l-2 -20h16v-42z" />
<glyph unicode="&#xcc;" d="M1028 1604l14 -8l-20 -26l12 -10l-86 -114h42v20h162v-20h136l-2 -22h22l-2 -18h36l-38 -164h-20l-10 -60h-102v-24h-180v-18h-30l-18 -98l-16 -74q0 -4 -1 -8t-1 -8q-4 -12 -5 -24t-3 -24q0 -2 -1 -2t-1 -2v-10q0 -2 -1 -2t-1 -2l-4 -36l-108 -542h2l-2 -18h40l-2 -22 h282v-18h36l-6 -24h20l-38 -204h-34v-18h-896v18h-16v24h-32l40 204h14v18h42v22h214q0 4 1 9t1 9q0 2 1 3t1 3q0 8 2 10q0 2 1 3t1 3h20l148 748h-8l18 62h-2v18h-178l6 24h-126v18h-34l40 206h22l6 40h330l-262 178l30 30v22q-4 4 -6 10t-6 10q-4 6 -6 12l102 120 q2 16 3 36t1 22l30 -16l10 26l196 -134l-6 -12l16 -10l10 10l212 -134z" />
<glyph unicode="&#xcd;" d="M352 1406h22l8 40h390l-64 166h16l24 12l-6 16l240 122l6 -14l44 22v20l232 118v-32l2 2l82 -228h-6l4 -10l-54 -24q0 -4 1 -7t1 -5v-4l-256 -134h110l-2 -20h136v-22h20l-2 -18h36l-38 -164h-18l-12 -60h-102v-24h-180v-18h-30l-18 -98q-22 -102 -34 -192l-108 -542h2 l-2 -18h40l-2 -22h282v-18h36l-4 -24h18l-38 -204h-34v-18h-896v18h-16v24h-32l40 204h14v18h44v22h212q2 12 4 23t4 17h20l148 748h-8l20 62h-4v18h-178l6 24h-124v18h-34z" />
<glyph unicode="&#xce;" d="M902 1882l2 2l10 -10l20 -16l78 36v-4l14 8v-70l124 -312l-14 -8l26 -62h126l-2 -22h22l-2 -18h36l-38 -164h-20l-10 -60h-102v-24h-180v-18h-30l-18 -98q-22 -102 -34 -192l-108 -542h2l-2 -18h40l-2 -22h282v-18h36l-6 -24h20l-38 -204h-34v-18h-896v18h-16v24h-32 l40 204h14v18h42v22h214q2 12 4 23t4 17h20l148 748h-8l18 62h-2v18h-178l6 24h-126v18h-34l40 206h22l6 40h294l-46 42l-2 34l-20 22l258 328q2 14 2 23v11zM854 1446h30l-10 24z" />
<glyph unicode="&#xcf;" d="M530 1740v20h22v22h66v18h164l-2 -18h58v-22h18l-2 -20h34l-52 -266h-20l-4 -28h156v8h-20l2 62h-18l38 206h22l8 38h54l24 22v18h162l-2 -18h60l-2 -22h20l-2 -20h32l-58 -286h-8v-8h6l-2 -22h22l-2 -18h36l-38 -164h-20l-10 -60h-102v-24h-180v-18h-30l-18 -98l-16 -74 q-4 -16 -6 -32l-4 -32q0 -2 -1 -2t-1 -2l-4 -28q0 -10 -2 -14v-8l-108 -542h2l-2 -18h40l-2 -22h282v-18h36l-6 -24h20l-38 -204h-34v-18h-896v18h-16v24h-32l40 204h14v18h42v22h214q0 4 1 9t1 9q2 4 2 12l4 10h20l148 748h-8l18 62h-2v18h-178l6 24h-126v18h-34l40 206h22 l6 40h124v8h-10v20h-34l52 266h14z" />
<glyph unicode="&#xd0;" d="M304 1406h14v18h24v22h286l-2 -22h82v22h182l-2 -22h200v-18h84l-8 -22h20l-2 -20h38l-2 -20h38v-20h42l-12 -38v-4h18l-2 -20h20l-2 -20h18v-20h16l-2 -20h18v-42h12l-2 -20h20v-38h18l-2 -62h20l-16 -82h14l-14 -100h22l-62 -326h-24l-22 -122h-20l-14 -60h-20l-12 -64 h-18l-6 -40h-22l-6 -40h-14v-22h-42l-6 -20v-18h-32v-42h-52v-20h-16v-22h-22v-16h-44v-24h-26v-18h-124v-22h-732v22h-18v18h-32l38 204h44v24h54v18h44v22h32q6 32 13 61t11 59q6 22 9 37t6 29t6 31t9 43h-132v18h-16v20h-34l52 266h12v20h64v20h120l32 166h2l16 80h-8v18 h-74l4 24h-62v18h-36zM992 552h16l4 16h-50v-18h-332l-8 -40l-2 -20h-2l-36 -200h4l-2 -22h98v22h68v18h50v22h44l8 42h12v16h24v24h32l6 40h24l6 42h24zM1056 874h12l2 2h-8l2 60h-28l8 22v38h-12v20h-18v42h-30v20h-18v20h-16v20h-16v22h-78v18h-58v-18h-24v-22h-34 l-48 -244h64v20h302z" />
<glyph unicode="&#xd1;" d="M244 1446h14v20h166l48 250h12v18h64v22h346l-2 -22h144v22h302v-22h18v-18h32l-44 -246h-20l-4 -24h154l-2 -22h36l-48 -224h-8v-18h-56v-24h-42l-18 -100h-4l-28 -162h-22l-22 -106l-32 -156h24l-120 -612h-10v-18h-44v-22h-208v22h-14v18h-18v24h-16v38h-16v40h-10v40 h-14v42h-10v40h-12v40h-38l18 64v18h-26l2 58v24h-20v40h-38l12 32v28h-12v40h-14v40h-12v22h-18v40h-10v40h-14v42h-12v20h-16v40h-12v42h-4l-20 -104q-6 -34 -11 -58l-10 -48t-10 -51t-11 -63h22l-38 -180h8v-42h30l-6 -22h44l-2 -18h78l-2 -22h20l-2 -18h32l-44 -228 h-110v-18h-470v18h-38v40h-14l4 164h38l6 24h8v18h24v22h24v18h50q2 2 2 6l24 16q20 108 40 210t39 203t39 203t42 212h-22l6 24h-84v18h-32zM848 1200l42 208h-166v-24h6v-40h16v-40h12l-2 -22h26l-2 -60h2v-40h10l-2 -22h20v-40h12v-40h12v-40h14v-42h42l-16 -40h18v-42 h12v-40h14v-40h12l-2 -20h20v-40h10v-20h18v-40l44 220h-22l32 162h-4v42h-14v18h-94l6 24h-22v18h-54z" />
<glyph unicode="&#xd2;" d="M1042 1620l26 -10h4l-2 -2l8 -2l-38 -38l-60 -82h100v-20h78v-20h36l-2 -22h20v-18h40l-6 -22h16l-2 -20h20v-40h36l-6 -24v-18h12l-2 -20h22v-40h38l-20 -62h2v-40h28l-16 -80h22l-20 -100h20l-74 -390h-22l-18 -100h-24l-16 -100h-20l-6 -42h-24l-6 -42h-22l-6 -40h-22 l-6 -42h-26l-6 -20h-26v-18h-26v-22h-22v-20h-40l-4 -20h-6v-22h-46v-16h-44v-24h-126v-18h-326v18h-78v24h-36v16h-38v22h-62l12 34v6h-16v40h-38l10 36v6h-16v40h-14v20h-24l2 62h-8l2 58h-24l16 82h-18l94 490h20l32 144h18l6 38h20l14 62h12v20h30l14 60h14v22h34l6 20 h10l8 40h34v20h40l6 22h28v18h22v22h44v20h84v20l-226 154l14 12l-42 30l36 30l116 154h2l26 50l28 -26l4 4l192 -130l-2 -2l212 -130zM918 512h24l18 80h14l30 144h20q0 8 2 10q0 2 2 2q0 2 2 4q0 4 1 8t3 14h-20l22 122h-22l16 82h-2v18h-16v42h-16v40h-10v40h-10v22h-38 v18h-56l6 24h-22v18h-60v-18h-72v-24h-20v-18h-20v-22h-32l-6 -40h-24l-6 -40h-22l-6 -42h-22l-14 -60h-20l-12 -82h-22l-42 -220h12l-14 -82h16v-100h16v-40h12l-2 -24h18v-16h16l-2 -22h18l-2 -20h60l-6 -22h22l-2 -18h58v18h54v22h38v20h24v22h28l6 40h14v18h30l10 42h22 z" />
<glyph unicode="&#xd3;" d="M608 1466h84v20h62v22h34l-44 112h4v2l38 16l-4 12l236 122l8 -16l44 24v18l230 118v-30l4 2l66 -202l-8 -6l10 -34l-44 -22q0 -4 1 -6t1 -4v-4l-250 -132v-12h78v-20h36l-2 -22h20v-18h40l-6 -22h16l-2 -20h20v-40h36l-6 -24v-18h12l-2 -20h22v-40h38l-20 -62h2v-40h28 l-16 -80h22l-20 -100h20l-74 -390h-22l-18 -100h-24l-16 -100h-20l-6 -42h-24l-6 -42h-22l-6 -40h-22l-6 -42h-26l-6 -20h-26v-18h-26v-22h-22v-20h-40l-4 -20h-6v-22h-46v-16h-44v-24h-126v-18h-326v18h-78v24h-36v16h-38v22h-62l12 34v6h-16v40h-38l10 36v6h-16v40h-14v20 h-24l2 62h-8l2 58h-24l16 82h-18l94 490h20l32 144h18l6 38h20l14 62h12v20h30l14 60h14v22h34l6 20h10l8 40h34v20h40l6 22h28v18h22v22h44v20zM918 512h24l18 80h14l30 144h20q2 8 3 10l2 4t2 6t3 18h-20l22 122h-22l16 82h-2v18h-16v42h-16v40h-10v40h-10v22h-38v18h-56 l6 24h-22v18h-60v-18h-72v-24h-20v-18h-20v-22h-32l-6 -40h-24l-6 -40h-22l-6 -42h-22l-14 -60h-20l-12 -82h-22l-42 -220h12l-14 -82h16v-100h16v-40h12l-2 -24h18v-16h16l-2 -22h18l-2 -20h60l-6 -22h22l-2 -18h58v18h54v22h38v20h24v22h28l6 40h14v18h30l10 42h22z" />
<glyph unicode="&#xd4;" d="M938 1852l82 36v-4l16 8v-70l122 -312l-16 -10l8 -34h8v-20h36l-2 -22h20v-18h40l-6 -22h16l-2 -20h20v-40h36l-6 -24v-18h12l-2 -20h22v-40h38l-20 -62h2v-40h28l-16 -80h22l-20 -100h20l-74 -390h-22l-18 -100h-24l-16 -100h-20l-6 -42h-24l-6 -42h-22l-6 -40h-22 l-6 -42h-26l-6 -20h-26v-18h-26v-22h-22v-20h-40l-4 -20h-6v-22h-46v-16h-44v-24h-126v-18h-326v18h-78v24h-36v16h-38v22h-62l12 34v6h-16v40h-38l10 36v6h-16v40h-14v20h-24l2 62h-8l2 58h-24l16 82h-18l94 490h20l32 144h18l6 38h20l14 62h12v20h30l14 60h14v22h34l6 20 h10l8 40h34v20h40l6 22h28v18h22v22h44v20h10l-16 12l26 28q-10 4 -16 8t-8 4l250 316v56zM918 512h24l18 80h14l30 144h20q2 8 3 10l2 4t2 6t3 18h-20l22 122h-22l16 82h-2v18h-16v42h-16v40h-10v40h-10v22h-38v18h-56l6 24h-22v18h-60v-18h-72v-24h-20v-18h-20v-22h-32 l-6 -40h-24l-6 -40h-22l-6 -42h-22l-14 -60h-20l-12 -82h-22l-42 -220h12l-14 -82h16v-100h16v-40h12l-2 -24h18v-16h16l-2 -22h18l-2 -20h60l-6 -22h22l-2 -18h58v18h54v22h38v20h24v22h28l6 40h14v18h30l10 42h22z" />
<glyph unicode="&#xd5;" d="M466 1384h40l4 14h-30v20h-16v20h-34l52 266h14v20h62v22h350l-2 -22h140v22h304l-2 -22h20l-2 -20h34l-44 -246h-24l-6 -40h-76v-20h-4l-2 -14h16l-2 -20h20v-40h36l-6 -20l-2 -22h14v-20h20v-40h38l-20 -62h4v-40h26l-16 -80h22l-20 -100h20l-74 -390h-22l-18 -100h-24 l-16 -100h-20l-6 -42h-22l-8 -42h-22l-6 -40h-22l-6 -42h-26l-6 -20h-26v-18h-26v-22h-22v-20h-40l-4 -20h-6v-22h-46v-16h-44v-24h-126v-18h-326v18h-78v24h-36v16h-36v22h-64l12 34v6h-16v40h-38l10 36v6h-16v40h-14v20h-24l2 62h-8l2 58h-24l16 82h-18l94 490h20l32 144 h18l6 38h20l14 62h12v20h30l14 60h14v22h34l6 20h10l8 40h34v20zM916 512h24l18 80h14l30 144h20q2 8 3 10l2 4t2 6t3 18h-20l22 122h-22l16 82h-2v18h-16v42h-16v40h-10v40h-10v22h-38v18h-56l6 24h-22v18h-60v-18h-72v-24h-20v-18h-20v-22h-32l-6 -40h-24l-6 -40h-22 l-6 -42h-22l-14 -60h-18l-14 -82h-22l-42 -220h12l-14 -82h18l-2 -58h2v-42h14v-40h12l-2 -24h18v-16h16l-2 -22h18l-2 -20h60l-6 -22h22l-2 -18h58v18h54v22h38v20h24v22h28l8 40h12v18h32l8 42h22z" />
<glyph unicode="&#xd6;" d="M968 1512h-20l40 206h20l6 38h42v14q0 4 2 8h38v18h162l-2 -18h84l-8 -26l-2 -16h32l-56 -286h-10v-20h-24v-20h-38l-2 -4h20l-6 -22h16l-2 -20h20v-40h36l-6 -24v-18h12l-2 -20h22v-40h38l-20 -62h2v-40h28l-16 -80h22l-20 -100h20l-74 -390h-22l-18 -100h-24l-16 -100 h-20l-6 -42h-24l-6 -42h-22l-6 -40h-22l-6 -42h-26l-6 -20h-26v-18h-26v-22h-22v-20h-40l-4 -20h-6v-22h-46v-16h-44v-24h-126v-18h-326v18h-78v24h-36v16h-38v22h-62l12 34v6h-16v40h-38l10 36v6h-16v40h-14v20h-24l2 62h-8l2 58h-24l16 82h-18l94 490h20l32 144h18l6 38 h20l14 62h12v20h30l14 60h14v22h34l6 20h10l8 40h34v20h40l6 22h28v4h-16v40h-10v20h-36l50 266h16v20h34l8 22h48v18h164l-2 -18h82l-8 -26l-2 -16h32l-44 -228h104l-2 -22h6zM918 512h24l18 80h14l30 144h20v6q0 2 2 4v2h2q0 2 1 3t1 5q2 2 2 10q0 2 1 3t1 5h-20l22 122 h-22l16 82h-2v18h-16v42h-16v40h-10v40h-10v22h-38v18h-56l6 24h-22v18h-60v-18h-72v-24h-20v-18h-20v-22h-32l-6 -40h-24l-6 -40h-22l-6 -42h-22l-14 -60h-20l-12 -82h-22l-42 -220h12l-14 -82h16v-100h16v-40h12l-2 -24h18v-16h16l-2 -22h18l-2 -20h60l-6 -22h22l-2 -18 h58v18h54v22h38v20h24v22h28l6 40h14v18h30l10 42h22z" />
<glyph unicode="&#xd7;" d="M400 904q-18 22 -40 50t-45 56t-45 55t-36 47l20 10l-6 6l30 24l-10 12l146 124l16 -16l16 10l12 -12l16 12l18 24l280 -350l26 20l6 -10l400 334l8 -8l24 24l10 -20l18 16l130 -168l-20 -14l20 -22l-62 -54l8 -8l-96 -92q4 -4 6 -4l-28 -18l-104 -72l-10 4l-120 -100 l12 -16l-32 -32l82 -100l-2 -2l190 -232l-10 -12l16 -16l-40 -32q2 -6 2 -20l-20 -14q4 -4 6 -11t2 -9l-112 -110l-16 26l-28 -22l-28 28l-22 -14l-264 324q-10 -6 -12 -6l-10 10l-90 -70l-6 10l-356 -296l-14 24l-14 -14l-94 142l8 8l-30 38l28 16l-8 14l92 74l-14 14 l150 122l72 62v2l106 88z" />
<glyph unicode="&#xd8;" d="M1032 1550h14l8 40h32l6 20h236l-14 -42h32l-44 -224h-22v-20h36l-6 -24v-18h12l-2 -20h22v-40h38l-20 -62h2v-40h28l-16 -80h22l-20 -100h20l-74 -390h-22l-18 -100h-24l-16 -100h-20l-6 -42h-24l-6 -42h-22l-6 -40h-22l-6 -42h-26l-6 -20h-26v-18h-26v-22h-22v-20h-40 l-4 -20h-6v-22h-46v-16h-44v-24h-126v-18h-216v-20h-30l-14 -80h-24l-14 -84h-12v-16h-24v-22h-66v-20h-166v20h-12v22h-36l40 204h20l14 80h2l10 30v6h-16v40h-38l10 36v6h-16v40h-14v20h-24l2 62h-8l2 58h-24l16 82h-18l94 490h20l32 144h18l6 38h20l14 62h12v20h30l14 60 h14v22h34l6 20h10l8 40h34v20h40l6 22h28v18h22v22h44v20h84v20h62v22h208l-2 -22h58zM480 534h8l14 62h20l8 42h18l6 40h24l12 60h20l18 82h18l12 60h18l6 38h24l10 64h24l12 60h20l12 60h20l12 62h18l4 36h-32v-18h-72v-24h-20v-18h-20v-22h-32l-6 -40h-24l-6 -40h-22 l-6 -42h-22l-14 -60h-20l-12 -82h-22l-42 -220h12l-14 -82h16v-18zM918 512h24l18 80h14l30 144h20q2 8 3 10l2 4t2 6t3 18h-20l22 122h-22l4 20h-2l-12 -78h-22l-10 -62h-24l-6 -60h-26l-4 -40h-24l-10 -62h-20l-12 -62h-20l-6 -40h-24l-12 -60h-22l-12 -64h-18l-6 -38h-22 l-8 -42h44v22h38v20h24v22h28l6 40h14v18h30l10 42h22z" />
<glyph unicode="&#xd9;" d="M142 1464h32v20h446l-216 146l12 14l-40 28l36 30l116 154h2l26 52l26 -26l4 2l192 -130v-2l214 -132l-14 -12l18 -10l-32 -58l-56 -76h524l-8 -20h10l-34 -228h-46v-22h-64l-8 -44h-22l-20 -84h-22l-156 -820h-22l-10 -62h-24l-4 -42h-22l-8 -42h-16v-24h-24v-20h-54 v-22h-20v-18h-64v-22h-56v-22h-492l6 22h-24v22h-38v18h-46v22h-10v20h-16v42h-16v42h-34l18 64h-20l184 950h-4v20h-22v22h-74v20h-54zM832 1356l-6 -12l-18 16v-2l-60 38l-2 -116h-28q0 -2 -1 -3t-1 -3v-38h-20v-20h-98v-22h-28l-10 -64h-22l-58 -296h22l-92 -464h26 l-4 -22v-20h18l-2 -22h20l-2 -22h46l-2 -20h32l-2 -20h28v20h98v20h36v22h24v22h24v20h34l8 40h18l4 22l14 56q0 8 4 20v4q0 4 1 5t1 3v4l4 20v6l2 2v10q0 2 1 3t1 3l114 584h-10l4 64h-34v22h-48v20h-20v22h-28zM832 1356l12 88l-12 -86v-2zM748 1396l2 38l-2 -36v-2z" />
<glyph unicode="&#xda;" d="M798 1386l-94 226h20l24 12l-8 16l242 122l8 -14l44 22v20l230 118v-30l4 2l74 -230l-10 -2l2 -12l-42 -20q0 -4 1 -7t1 -5v-4l-258 -136h396l-8 -20h10l-34 -228h-46v-22h-64l-8 -44h-22l-20 -84h-22l-156 -820h-22l-10 -62h-24l-4 -42h-22l-8 -42h-16v-24h-24v-20h-54 v-22h-20v-18h-64v-22h-56v-22h-492l6 22h-24v22h-38v18h-46v22h-10v20h-16v42h-16v42h-34l18 64h-20l184 950h-4v20h-22v22h-74v20h-54l46 228h32v20h500v-20h86l-10 -30l-4 -154h-28q-2 -16 -2 -28v-16h-20v-20h-98v-22h-28l-10 -64h-22l-58 -296h22l-92 -464h26l-4 -22 v-20h18l-2 -22h20l-2 -22h46l-2 -20h32l-2 -20h28v20h98v20h36v22h24v22h24v20h34l8 40h18q10 40 18 79t14 79l114 584h-10l4 64h-34v22h-48v20h-20v22h-28l12 98l-32 -16z" />
<glyph unicode="&#xdb;" d="M880 1850q20 10 45 21t35 15v-4l14 8v-70l124 -312l-18 -10l6 -34h346l-8 -20h10l-34 -228h-46v-22h-64l-8 -44h-22l-20 -84h-22l-156 -820h-22l-10 -62h-24l-4 -42h-22l-8 -42h-16v-24h-24v-20h-54v-22h-20v-18h-64v-22h-56v-22h-492l6 22h-24v22h-38v18h-46v22h-10v20 h-16v42h-16v42h-34l18 64h-20l184 950h-4v20h-22v22h-74v20h-54l46 228h32v20h376l24 18l-28 14l286 366l26 -28h10zM824 1462l-76 -94l-2 -88h-28q-2 -16 -2 -28v-16h-20v-20h-98v-22h-28l-10 -64h-22l-58 -296h22l-92 -464h26l-4 -22v-20h18l-2 -22h20l-2 -22h46l-2 -20 h32l-2 -20h28v20h98v20h36v22h24v22h24v20h34l8 40h18q10 40 18 79t14 79l114 584h-10l4 64h-34v22h-48v20h-20v22h-28l20 158z" />
<glyph unicode="&#xdc;" d="M932 1718l8 38h40v14q0 4 2 8h38v18h162l-2 -18h86l-10 -28l-2 -14h34l-54 -272h198l-8 -20h10l-34 -228h-46v-22h-64l-8 -44h-22l-20 -84h-22l-156 -820h-22l-10 -62h-24l-4 -42h-22l-8 -42h-16v-24h-24v-20h-54v-22h-20v-18h-64v-22h-56v-22h-492l6 22h-24v22h-38v18 h-46v22h-10v20h-16v42h-16v42h-34l18 64h-20l184 950h-4v20h-22v22h-74v20h-54l46 228h32v20h234l48 252h16v20h34l6 22h48v18h164l-2 -18h84l-8 -26l-2 -16h32l-50 -266h-16q-2 -14 -2 -25v-15h-10l-4 -150h-28q-2 -8 -2 -22v-22h-20v-20h-98v-22h-28l-10 -64h-22l-58 -296 h22l-92 -464h26l-4 -22v-20h18l-2 -22h20l-2 -22h46l-2 -20h32l-2 -20h28v20h98v20h36v22h24v22h24v20h34l8 40h18l12 50l6 28q0 8 4 20l4 28q0 4 1 4t1 4v4q2 4 2 12q0 2 1 3t1 5l114 584h-10l4 64h-34v22h-48v20h-20v22h-28l24 186h32l8 20h8l2 48h-20l38 206h20z" />
<glyph unicode="&#xdd;" d="M118 1484h36v24h460l-2 -24h80l-52 126h18l28 12l-8 16l264 136v-20l26 14v20l230 118v-24l18 6l2 -60l66 -180h-6l4 -10l-54 -24q0 -4 1 -6t1 -6v-6l-214 -112h146v24h208l-2 -24h54l-44 -226h-12v-22h-22v-20h-74l-8 -42h-14v-24h-38v-20h-20q-2 -12 -2 -25v-17h-30 l-6 -42h-22l-6 -42h-26v-22h-16v-20h-34l-12 -62h-12v-22h-36l-6 -44h-14v-18h-30l-6 -42h-24l-8 -44h-12v-20h-34l-6 -44h-26l-4 -40h-26l-4 -32l-54 -266h8v-44h206l-8 -20h20l-2 -20h30l-26 -188h-22l-8 -40h-60v-22h-186v22h-2v-22h-314v22h-184v40h-12l4 164h30l8 44 h42v20h104v22h24v22h30q12 70 24 125t26 131h-4v42h-8v20h-44l18 64h-2v20h-18v20h-18v42h-12v24h-16v42h-12v42h-40l10 28v34h-14v42h-14v20h-14v42h-36l6 22v42h-42l12 34v30h-36l6 22h-62v20h-50zM724 1404l-2 -124h-24v-22h-24v-22h-86v-2h14v-44h12l-2 -22h20v-42h12 l-2 -18h18v-44h14v-42h12v-42h14l-2 -22h2v22h32l10 42h22l8 42h20l8 44h22l6 42h24l6 40h14v20h34q0 2 1 3t1 3h-46v20h-40v22h-34l22 118l-34 -18l-2 2l-8 -8l-14 28l-14 -6z" />
<glyph unicode="&#xde;" d="M726 1446h94l-2 -22h200l-2 -18h66l-2 -22h32l-2 -20h38l-2 -20h40v-20h38l-12 -36v-6h20l-2 -20h18l-2 -20h20v-20h16l-2 -20h18v-42h12l-2 -20h18v-38h36l-18 -62h20l-16 -82h20l-6 -30h20l-38 -214h-22l-6 -52h-26l-14 -60h-20l-10 -62h-18l-6 -42h-22q-2 -12 -2 -24 v-16h-20v-20h-40l-6 -22h-4v-18h-32l-6 -42h-34v-20h-22v-20h-24v-18h-54v-22h-18v-20h-124v-22h-322q-2 -4 -1 -5t-1 -3l2 2l-32 -168h-12v-22h-40l-6 -20h-276l10 30l2 50h-22l114 600h22l110 554h-20l54 304h18v22h20v20h246l-2 -20h56l-14 -82h16zM968 806h18l12 58v12 h-8l2 60h-28l8 22v38h-14v20h-16v42h-30v20h-18v20h-18v20h-14v22h-76v18h-62v-18h-22v-22h-36l-62 -316q-2 -16 -5 -31t-5 -31l-38 -196h4l-2 -24h100v24h66v16h54v24h44l6 40h12v18h26v22h30l8 42h20l8 42h24zM644 1394h60l-30 30z" />
<glyph unicode="&#xdf;" d="M410 1368h12v20h702l-2 -20h98v-16h40l-2 -20h10l-2 -20h38v-38h18l-2 -20h10v-40h22l-14 -98h8l-4 -160h-36l-16 -76h-14l-6 -40h-24l-6 -38h-10v-22h-24v-12h10l-2 -22h40v-18h40l-14 -36v-4h20v-36h12l-2 -22h26l-2 -58h16l-62 -316h-16l-6 -38h-22l-6 -40h-22l-6 -38 h-14v-20h-20v-20h-40l-4 -20h-26v-20h-20v-18h-44v-20h-44v-18h-146l-32 276h30v16h36l6 24h30l8 38h18l8 38h22l8 40h2l2 14h-6v40h-10v20h-18v18h-12v22h-20v18h-58l6 20h-16v32l-52 72v30h-38l104 166h4v32h24v22h50v18h22l6 40h18l8 38h8l2 36h-2v20h-18v20h-42v20h-112 q-4 -10 -6 -23t-2 -17h-22l-34 -190h14l-60 -298h-12l-32 -162v-2l-34 -162h6l-2 -20h56v-20h84l-42 -236h-88v-20h-256v20h-228v18h-34l38 198h26l6 20h24v20h62v20h24v16h28l58 294l108 524h-54l6 20h-72v16h-34z" />
<glyph unicode="&#xe0;" d="M1066 1164l14 -8l-14 -20l10 -10l-62 -82h126l-2 -20h38v-18h34v-20h24l-2 -20h10l-2 -20h20v-36h26l-68 -356h-20l-48 -252h120v-16h20l-2 -20h28l-36 -198h-16v-22h-80v-18h-68q-2 -8 -2 -13v-7h-274v20h-96v-20h-428l6 20h-16v18h-34v22h-36v16h-18v42h-10v36h-26 l50 276h20l6 40h20l6 40h16v20h22v18h50v22h36v18h42v20h62v14h-94l10 28v12h-32l42 240h20l8 36h34v20h50v20h36v20h40v18h102v20h4l-214 144l12 12l-34 24l30 32l-4 4l138 176l14 -14l54 56l2 -66l148 -102v2l204 -130zM762 322h44v22h26l10 38h22l4 16h-6v18h-130v-18 h-66v-20h-40v-20h-50v-20h-18v-18h-28l-2 -18h22v-16h58l-8 -20h86v20h36v16h40v20zM724 728l-8 -54h184v20h18v20h30q0 -2 4 14h-4v20h-24v22h-6v18h-38v18h-14v-18h-44v-18h-50v-22h-16v-20h-32zM712 656v14h-8v-14h8z" />
<glyph unicode="&#xe1;" d="M756 1144l14 14v26l8 4l-8 16l234 120l8 -16l28 14v24l196 98l4 -12l34 18v-24l8 4l54 -182l-2 -4l18 -44l-48 -18v-18l-230 -120h34l-2 -20h38v-18h36v-20h40l-8 -26l-2 -14h18v-36h28l-72 -356h-16l-50 -252h122v-16h36l-8 -20h16l-38 -198h-12v-22h-82v-18h-70v-20 h-292l6 20h-84v-20h-426l6 20h-18v18h-34v22h-36v16h-18v42h-12v36h-26l54 276h18l6 40h20l6 40h16v20h22v18h50v22h36v18h42v20h64v14h-96l10 34v6h-32l44 240h20l8 36h32v20h48q0 8 1 13t1 7h36v20h42v18h100v20l94 2zM732 322h42v22h28l8 38h24l4 12v4h-8v18h-130v-18 h-64v-20h-40v-20h-52v-20h-16v-18h-28l-2 -18h20v-16h60l-8 -20h84v20h36v16h42v20zM672 670v-14h10v18h184v12q0 4 2 8h18v20h30q0 6 4 10v4h-6v20h-40l12 34v6h-36v18h-16v-18h-44v-18h-50v-22h-16v-20h-32l-12 -58h-8z" />
<glyph unicode="&#xe2;" d="M972 1414l74 34v-4l16 8v-66l118 -304l-18 -8l18 -58h-4v-10h34v-20h24l-2 -20h10l-2 -20h20v-36h26l-68 -356h-20l-48 -252h120v-16h20l-2 -20h28l-36 -198h-16v-22h-80v-18h-68q-2 -8 -2 -13v-7h-274v20h-96v-20h-428l6 20h-16v18h-34v22h-36v16h-18v42h-10v36h-26 l50 276h20l6 40h20l6 40h16v20h22v18h50v22h36v18h42v20h62v14h-94l10 28v12h-32l42 240h20l8 36h34v20h50v20h36v20h40v18h62l-46 30l32 30l-18 18l266 344l26 -26l16 -2zM762 322h44v22h26l10 38h22l4 16h-6v18h-130v-18h-66v-20h-40v-20h-50v-20h-18v-18h-28l-2 -18h22 v-16h58l-8 -20h86v20h36v16h40v20zM724 728l-8 -54h184v20h18v20h30q0 -2 4 14h-4v20h-24v22h-6v18h-38v18h-14v-18h-44v-18h-50v-22h-16v-20h-32zM712 656v14h-8v-14h8z" />
<glyph unicode="&#xe4;" d="M998 1276l6 36h34v22h42v16h160l-2 -16h56l-2 -22h20l-2 -20h28l-48 -274h-20v-20h-18v-20h-22v-20h-10v-12h20v-36h26l-68 -356h-20l-48 -252h120v-16h20l-2 -20h28l-36 -198h-16v-22h-80v-18h-68q0 -2 -1 -2t-1 -2v-16h-274v20h-96v-20h-428l6 20h-16v18h-34v22h-36v16 h-18v42h-10v36h-26l50 276h20l6 40h20l6 40h16v20h22v18h50v22h36v18h42v20h62v14h-94l10 28v12h-32l42 240h20l8 36h34v20h50v20h4v32h-8v16h-34l50 258h12v20h22v22h64v16h158l-2 -16h56l-2 -22h20l-2 -20h32l-48 -248h108l2 32h-22l40 200h18zM742 322h44v22h26l10 38h22 l4 16h-6v18h-130v-18h-66v-20h-40v-20h-50v-20h-18v-18h-28l-2 -18h22v-16h58l-8 -20h86v20h36v16h40v20zM704 728l-8 -54h184v20h18v20h30v2l2 4q0 4 2 8h-4v20h-24v22h-6v18h-38v18h-14v-18h-44v-18h-50v-22h-16v-20h-32zM692 656v14h-8v-14h8z" />
<glyph unicode="&#xe6;" d="M894 1028h42v16h44v20h412l-2 -20h36v-16h36l-2 -22h20l-2 -20h62l-14 -32v-6h16l-2 -18h20v-42h36l-8 -22v-36h18l-2 -58h22l-60 -296h-12v-16h-62v-22h-510v-20h-100v-14h10l-2 -20h20v-20h42l-8 -20h14v-22h38l-2 -16h76l-2 -20h18v20h120v16h60v22h72v20h236l-6 -20 h10l-36 -198h-14v-18h-32l-6 -22h-28v-18h-42v-20h-82v-20h-82v-20h-112q0 -4 1 -6t1 -6v-6h-336v-2h-292l6 20h-86v-20h-426l6 20h-16v18h-36v22h-36v16h-16v42h-12v36h-28l56 276h16l8 40h18l8 40h14v20h22v18h52v22h36v18h42v20h62v14h-96l12 34v6h-34l42 240h22l6 36h36 v20h50v20h34v20h42v18h102v20h412l-2 -20h36l-2 -18h26v22zM460 322h42v22h20l14 72h-108v-18h-64v-20h-44v-20h-48v-20h-18v-18h-28l-2 -18h22v-16h58l-8 -20h84v20h36v16h44v20zM1084 694h178v18h-14v36h-30v22h-16v20h-56v18h-12v-18h-44v-20h-24v-22h-36l-6 -20h-6v-16 h-20v-20h-26v-16h112v18zM418 728l-10 -54h196q4 18 6 40t6 34h-14l10 34v6h-34v18h-18v-18h-44v-18h-50v-22h-14v-20h-34zM400 670v-14h8v14h-8z" />
<glyph unicode="&#xe7;" d="M1106 1044l-2 -20h56l-2 -18h36v-20h42l-12 -30v-10h14l-2 -18h22v-40h26l-20 -96h20l-30 -180h-22l-6 -38h-14v-20h-236v20h-36v38h-28l20 116h-2v20h-40l6 22h-36v18h-16v-18h-50v-22h-36v-20h-22v-20h-24v-16h-22v-22h-22v-18h-32l-6 -40h-24l-10 -58h-18 q-4 -20 -7 -34t-7 -42h8l-2 -58h4l-2 -16h18v-40h38l-12 -42h36l-2 -20h40l-2 -16h192v16h42v20h60v22h240l-2 -22h32l-40 -196h-8v-20h-24v-22h-44v-16h-62v-22h-42v-18h-106v-20h-64l12 -96h-8l12 -116h-24v-20h-14l-220 -54v16l-30 -8l-2 58h-16l-14 200h-62v20h-98l6 20 h-40v18h-12v22h-16v16h-18v22h-12v20h-42l10 32v26h-14v40h-18l2 56h-12l2 58h-18l56 278h16l24 116h18l6 38h22l6 40h20l8 38h14v20h24v20h32l6 22h10v18h22v18h20v20h52v20h18v20h58v18h66v20h392z" />
<glyph unicode="&#xe8;" d="M774 266v20h114v16h60v20h60v22h220l-2 -22h34l-38 -196h-16v-20h-20v-22h-42v-16h-44v-22h-82v-18h-90v-20h-94v-20h-334v20h-100l6 20h-32v18h-36v22h-16v16h-16v22h-34v20h-16v36h-12v22h-16v40h-22l12 96h-18l60 314h18l18 98h20l8 38h20l8 40h20l6 38h14v20h24v20 h28l6 40h16v18h24v20h50v20h36v20h62l22 18v20h64l-226 152l12 12l-40 30l34 28l148 194l14 -26l10 10l164 -114l-6 -12l14 -8l10 10l202 -126l-16 -20l16 -8l-16 -22l12 -10l-68 -90h84l-2 -20h38l-2 -18h38v-20h40l-6 -20h14l-2 -20h18l-2 -18h18l-2 -18h18v-42h12l-2 -20 h18v-38h18l-2 -58h16l-48 -296h-18v-18h-70v-22h-502v-18h-100v-16h12v-18h40l-12 -38v-4h36l-2 -20h40l-2 -16h100l-8 -20h8zM762 674h184v18h-18v36h-30v20h-40l6 22h-38v18h-12v-18h-52v-22h-16v-20h-24v-20h-24v-16h-20v-22h-24v-14h108v18z" />
<glyph unicode="&#xe9;" d="M660 1044h60l-56 138h20l22 12l-8 14l232 118l6 -12l42 22v16l224 116v-16l14 6l4 -70l48 -144l-8 -6l10 -34l-42 -20q0 -4 1 -6t1 -4v-4l-238 -126h80l-2 -20h38l-2 -18h38v-20h40l-6 -20h14l-2 -20h18l-2 -18h18l-2 -18h18v-42h12l-2 -20h18v-38h18l-2 -58h16l-48 -296 h-18v-18h-70v-22h-502v-18h-100v-16h12v-18h40l-12 -38v-4h36l-2 -20h40l-2 -16h100l-8 -20h8v20h114v16h60v20h60v22h220l-2 -22h34l-38 -196h-16v-20h-20v-22h-42v-16h-44v-22h-82v-18h-90v-20h-94v-20h-334v20h-100l6 20h-32v18h-36v22h-16v16h-16v22h-34v20h-16v36h-12 v22h-16v40h-22l12 96h-18l60 314h18l18 98h20l8 38h20l8 40h20l6 38h14v20h24v20h28l6 40h16v18h24v20h50v20h36v20h62l22 18v20zM762 674h184v18h-18v36h-30v20h-40l6 22h-38v18h-12v-18h-52v-22h-16v-20h-24v-20h-24v-16h-20v-22h-24v-14h108v18zM768 1006l40 -24l-12 50z " />
<glyph unicode="&#xea;" d="M944 1406l76 34v-4l14 8v-68q12 -34 28 -72t32 -78t32 -79t28 -71l-18 -10l18 -60h-10v-20h40l-6 -20h14l-2 -20h18l-2 -18h18l-2 -18h18v-42h12l-2 -20h18v-38h18l-2 -58h16l-48 -296h-18v-18h-70v-22h-502v-18h-100v-16h12v-18h40l-12 -38v-4h36l-2 -20h40l-2 -16h100 l-8 -20h8v20h114v16h60v20h60v22h220l-2 -22h34l-38 -196h-16v-20h-20v-22h-42v-16h-44v-22h-82v-18h-90v-20h-94v-20h-334v20h-100l6 20h-32v18h-36v22h-16v16h-16v22h-34v20h-16v36h-12v22h-16v40h-22l12 96h-18l60 314h18l18 98h20l8 38h20l8 40h20l6 38h14v20h24v20h28 l6 40h16v18h24v20h50v20h36v20h62l16 12l-40 26l34 26l-28 14l286 366l22 -40h10zM762 674h184v18h-18v36h-30v20h-40l6 22h-38v18h-12v-18h-52v-22h-16v-20h-24v-20h-24v-16h-20v-22h-24v-14h108v18z" />
<glyph unicode="&#xeb;" d="M974 1276l6 36h34v22h42v16h158v-16h56l-2 -22h20l-2 -20h28l-50 -274h-24l-6 -20h-6v-20h-22v-20h-30v-12h18l-2 -18h18l-2 -18h18v-42h12l-2 -20h18v-38h18l-2 -58h16l-48 -296h-18v-18h-70v-22h-502v-18h-100v-16h12v-18h40l-12 -38v-4h36l-2 -20h40l-2 -16h214v16h60 v20h60v22h220l-2 -22h34l-38 -196h-16v-20h-20v-22h-42v-16h-44v-22h-82v-18h-90v-20h-94v-20h-334v20h-100l6 20h-32v18h-36v22h-16v16h-16v22h-34v20h-16v36h-12v22h-16v40h-22l12 96h-18l60 314h18l18 98h20l8 38h20l8 40h20l6 38h14v20h24v20h28l6 40h16v18h24v20h50v12 h-16v40h-8v16h-34l48 258h14v20h22v22h64v16h158l-2 -16h56l-2 -22h20l-2 -20h32l-48 -248h106l2 32h-20l40 200h18zM748 674h184v18h-18v36h-30v20h-40l6 22h-38v18h-12v-18h-52v-22h-16v-20h-24v-20h-24v-16h-20v-22h-24v-14h108v18z" />
<glyph unicode="&#xec;" d="M1022 1174l16 -6l-16 -22l12 -10l-56 -74h116l-90 -46l-2 -56h20l-36 -198h-24l-88 -466h4v-18h34l-2 -20h310l-2 -20h54l-44 -218h-10v-20h-56q0 -4 1 -6t1 -6v-6h-256l6 18h-472v-2q0 -4 1 -5t1 -5v-6h-196l6 18h-14v40h-12l4 162h30l6 36h16v20h198v20h40v18h52 q0 8 2 12q0 6 2 10l8 46q6 28 12 54t10 54l12 54q0 4 1 6t1 6l10 42q4 20 8 39t8 41l6 34l8 36q0 8 2 12h-260v20h-16v18h-32l38 198h12v22h160v16h178v2l-270 180l14 14l-36 24l30 30l-2 2l128 166l24 -14l30 20l172 -120l2 2l202 -128z" />
<glyph unicode="&#xed;" d="M706 1036h44l-58 146h20l20 12l-8 14l258 128v-14l24 14v16l222 116v-16l14 6l2 -66l54 -146l-8 -4l18 -34l-52 -24q0 -4 1 -6t1 -4v-4l-292 -154l-2 -56h20l-36 -198h-24l-88 -466h4v-18h34l-2 -20h310l-2 -20h54l-44 -218h-10v-20h-56q0 -4 1 -6t1 -6v-6h-256l6 18 h-472q0 -4 1 -6t1 -6v-6h-196l6 18h-14v40h-12l4 162h30l6 36h16v20h198v20h40v18h52q22 116 44 220t46 226h-260v20h-16v18h-32l38 198h12v22h160v16h178v20z" />
<glyph unicode="&#xee;" d="M936 1396l76 34v-4l14 6v-68l120 -300l-14 -8l26 -58l-60 -2l-74 -38l-38 -196h-22l-90 -466h6l-2 -18h36l-2 -20h308l-2 -20h54l-44 -218h-10v-20h-52q0 -4 1 -6t1 -6v-6h-260l6 18h-472q0 -4 1 -6t1 -6v-6h-194l6 18h-12v40h-16l4 162h32l6 36h14v20h198v20h44v18h50 q22 116 43 220t45 226h-258v20h-18v18h-32l38 198h16v22h156v16h76l-32 20l36 36l-18 20l252 322l22 -14h30z" />
<glyph unicode="&#xef;" d="M954 1276l6 36h34v22h42v16h158l-2 -16h58l-2 -22h18l-2 -20h30l-50 -274h-18v-20h-18v-20h-22v-20h-188l-36 -196h-24l-88 -466h4v-18h34l-2 -20h310l-2 -20h54l-44 -218h-10v-20h-56v-4l2 -2v-12h-256l6 18h-472v-2q0 -2 1 -3t1 -3v-10h-196l6 18h-14v40h-12l4 162h30 l6 36h16v20h198v20h40v18h52q0 10 2 16q0 2 1 2t1 2v2q2 10 3 20t5 20v14l2 2v4l2 6v4l2 6v2l2 4v8l2 2v6l2 4v2l4 20l4 22l38 178v6l4 12v6l2 2q0 6 1 12t3 14l10 48h-260v20h-16v18h-32l38 198h12v22h108v18h-10v16h-32l50 258h12v20h20v22h66v16h158l-2 -16h56l-2 -22h20 l-2 -20h32l-44 -228h106v12h-22l38 200h20z" />
<glyph unicode="&#xf0;" d="M510 970h34l-50 172l4 2l-6 14l62 22q-4 8 -4 12q-2 2 -2 4l70 32l2 12h-86v18h-50l42 240h34v16h198l-2 -16h114v-20h64l-8 -22h14l-2 -20h56l-2 -16h20l-2 -22l228 94v-28l22 8v-26l60 -190l-22 -10l6 -28l-72 -30v-16l-34 -18v-28h14l-2 -60h10l-2 -58h22l-14 -76h18 l-20 -98h22l-78 -394h-20l-16 -96h-24l-18 -76h-16l-6 -42h-20l-6 -38h-20l-4 -38h-16v-22h-30l-4 -38h-32l-6 -20h-2v-20h-24v-18h-42v-18h-42v-22h-84v-18h-274v18h-74v22h-36v18h-16v18h-16v20h-42v20h-26v38h-14v22h-14v38h-10v38h-20l2 60h-18l20 116h-6l10 128l30 148 h20l14 78h16v16h26l12 62h30l6 8v32h24v16h24v22h42v20h50v12q0 4 2 8h12v18zM806 426h20l12 58h20l8 36h-6v38h-12v40h-12v18h-14v18h-16v20h-18v20h-34v20h-74v-20h-42v-20h-24v-20h-26q-2 -12 -2 -22v-14h-30v-20h-24l-24 -134h10l-2 -58h4l-2 -18h14v-40h38l-10 -36v-2 h18l-2 -22h40l-2 -18h34v18h22v22h24v18h36l6 20h6v18h26l8 40h22zM874 986v30l-62 -26h38l-2 -20h38v16h-12z" />
<glyph unicode="&#xf1;" d="M478 1298h10v16h74l4 24h338l-6 -24h128v24h304l-6 -24h2l-2 -16h34l-42 -238h-22l-6 -38h-72v-20h-72v-2h34v-22h64l-12 -34v-2h14l-2 -22h20v-38h18l-2 -58h20l-106 -546h4l-2 -20h98l-2 -20h48l-42 -238h-44q0 -4 1 -6t1 -6v-6h-298v18h-180v40h-12l4 162h22v16h36 l8 20h4v20h24v20h28l4 24q10 46 22 107t20 101h20l8 36h-14l14 98h-4v40h-14v16h-20v22h-8v20h-76v-20h-68v-22h-38v-16h-68l-6 -40h-24l-10 -52q-4 -22 -10 -53t-10 -71h-24l-14 -76h20l-24 -114h6l-2 -20h98l-2 -20h62l-14 -36h16l-2 -162h-24v-20h-20v-20h-510v20h-16v20 h-18l4 162h30l8 36h14v20h42v20h28q12 60 23 113l22 106t21 108t22 117h-2v20h-132v20h-34l40 198h26l6 18h20v22h104v16h92v6h-16v18h-32zM672 1000h80v2h-114v-2h18l-2 -22h18v22z" />
<glyph unicode="&#xf2;" d="M446 1200l-34 24l30 32l-2 4l148 192l10 -18l6 10l182 -130l-8 -10l6 -4l12 12l200 -128l-14 -18l14 -10l-14 -20l10 -10l-52 -70h34l-2 -20h96l-2 -20h56l-2 -16h56l-2 -22h44l-10 -34v-2h12l-2 -22h22l-2 -18h16v-40h20l-2 -22h10v-38h14v-38h18l-12 -98h22l-58 -276 h-18l-8 -60h-20l-16 -94h-22l-8 -40h-12v-18h-26v-24h-22v-16h-24v-20h-20v-18h-52v-22h-18v-18h-22v-20h-44v-20h-40v-20h-96v-2q0 -4 1 -5t1 -5v-6h-350l6 18h-34v20h-54v20h-34v20h-18v18h-54l6 22v18h-16v20h-18v40h-12v38h-18l2 56h-2v42h-30l78 392h18l14 58h14l8 38 h20l8 38h26l6 22h14l6 40h14v18h40v22h22v18h42q0 4 4 12q2 4 4 6h18v22h44v16h42v20h48l-228 152zM910 414h22l8 40h18l6 34l8 44l6 34v40h-12v18h-38l18 60h-2v16h-40l10 36v6h-34v20h-38v18h-94v-18h-42v-20h-22v-20h-32v-22h-16v-16h-32l-4 -40h-22l-12 -60h-18l-14 -74 h-2l-14 -76h4l-2 -20h16v-38h14l-2 -20h24l-2 -20h10v-18h16l-2 -22h18v-18h36v-20h94v20h42v18h42v22h24v18h30l6 40h18z" />
<glyph unicode="&#xf3;" d="M570 1016h42v20h82v20h68l-50 126l28 2l12 8l-8 16l232 118l6 -12l42 22v16l222 116v-26l16 8l2 -60l50 -146l-6 -2l18 -32l-42 -20q2 -6 8 -12l-268 -142h40l-2 -20h56v-16h54l-2 -22h44l-10 -34v-2h12l-2 -22h22l-2 -18h16v-40h20l-2 -22h10v-38h14v-38h18l-12 -98h22 l-58 -276h-18l-6 -60h-22l-16 -94h-22l-8 -40h-12v-18h-26v-24h-22v-16h-24v-20h-20v-18h-52v-22h-18v-18h-20v-20h-46v-20h-40v-20h-96q0 -4 1 -6t1 -6v-6h-350l6 18h-34v20h-54v20h-34v20h-16v18h-56l6 22v18h-16v20h-18v40h-10v38h-20l2 56h-2v42h-28l76 392h18l14 58h14 l8 38h20l8 38h26l6 22h14l6 40h14v18h40v22h22v18h42l6 12q2 4 2 6h18v22h44v16zM906 414h24l6 40h18l6 34l8 44l8 34v40h-14v18h-38l18 60h-2v16h-40l10 36v6h-34v20h-38v18h-94v-18h-42v-20h-22v-20h-32v-22h-16v-16h-32l-4 -40h-22l-12 -60h-18l-14 -74h-2l-14 -76h4 l-2 -20h16v-38h14l-2 -20h24l-2 -20h10v-18h16l-2 -22h18v-18h38l-2 -20h94v20h42v18h42v22h24v18h30l6 40h18z" />
<glyph unicode="&#xf4;" d="M932 1418l72 34v-4l14 8v-66l118 -304l-12 -6l26 -60l-62 -2l-4 -2h38l-2 -16h56l-2 -22h44l-10 -34v-2h12l-2 -22h22l-2 -18h16v-40h20l-2 -22h10v-38h14v-38h18l-12 -98h22l-58 -276h-18l-8 -60h-20l-16 -94h-22l-8 -40h-12v-18h-26v-24h-22v-16h-24v-20h-20v-18h-52 v-22h-18v-18h-22v-20h-44v-20h-40v-20h-96q0 -4 1 -6t1 -6v-6h-350l6 18h-34v20h-54v20h-34v20h-18v18h-54l6 22v18h-16v20h-18v40h-12v38h-18l2 56h-2v42h-30l78 392h18l14 58h14l8 38h20l8 38h26l6 22h14l6 40h14v18h40v22h22v18h42q0 4 4 12q2 4 4 6h18v22h44v16h42v20 h28v4l-44 32l22 26l-10 8l216 280q2 14 1 36t-1 32l62 -32l18 16zM910 414h22l8 40h18l6 34l8 44l6 34v40h-12v18h-38l18 60h-2v16h-40l10 36v6h-34v20h-38v18h-94v-18h-42v-20h-22v-20h-32v-22h-16v-16h-32l-4 -40h-22l-12 -60h-18l-14 -74h-2l-14 -76h4l-2 -20h16v-38h14 l-2 -20h24l-2 -20h10v-18h16l-2 -22h18v-18h36v-20h94v20h42v18h42v22h24v18h30l6 40h18zM908 1002l50 -32l-24 60z" />
<glyph unicode="&#xf5;" d="M486 960l2 4h-30v20h-16v20h-32l48 256h14v20h68v20h336l-2 -20h136v20h308l-8 -24l-2 -16h32l-42 -236h-20l-6 -40h-72v-6h4l-4 -12v-2h-2l-6 -20v-2h16l-2 -22h18l-2 -18h16v-40h40l-12 -36v-24h14v-38h22l-16 -98h22l-54 -276h-22l-6 -60h-20l-18 -94h-22l-6 -40h-14 v-18h-24v-24h-24v-16h-24v-20h-20v-18h-52v-22h-18v-18h-20v-20h-42v-20h-44v-20h-92v-18h-352l6 18h-34v20h-52v20h-36v20h-16v18h-56l8 28v12h-16v20h-18v40h-12v38h-18v98h-30l78 392h18l12 58h18l4 38h22l6 38h20q2 8 2 14v8h24l8 40h12v18h42v22h24v18h36zM896 414h22 l6 40h20l6 34v6l2 8v4l2 4l2 14l2 8l8 34h-2v40h-12v18h-22l2 60h-2v16h-42l12 42h-36v20h-36v18h-94v-18h-44v-20h-20v-20h-38l-6 -22h-6v-16h-30l-6 -40h-20l-12 -60h-20l-10 -74h-4l-16 -76h4l-2 -20h18v-38h12l-2 -20h42l-8 -30v-8h14l-2 -22h18v-18h38l-2 -20h94v20h42 v18h42v22h24v18h30l8 40h16z" />
<glyph unicode="&#xf6;" d="M928 1080h-20l40 202h18l8 34h32v22h42v18h158l-2 -18h56v-22h20l-2 -18h30l-54 -274h-10v-20h-24v-22h-22v-4h20l-10 -34v-2h12l-2 -22h22l-2 -18h16v-40h20l-2 -22h10v-38h14v-38h18l-12 -98h22l-58 -276h-18l-8 -60h-20l-16 -94h-22l-8 -40h-12v-18h-26v-24h-22v-16 h-24v-20h-20v-18h-52v-22h-18v-18h-22v-20h-44v-20h-40v-20h-96v-2q0 -4 1 -5t1 -5v-6h-350l6 18h-34v20h-54v20h-34v20h-18v18h-54l6 22v18h-16v20h-18v40h-12v38h-18l2 56h-2v42h-30l78 392h18l14 58h14l8 38h20l8 38h26l6 22h14l6 40h14v18h40v22h22v18h42q0 4 2 6 q4 8 4 10t2 2h18v4h-28v42h-10v16h-34l50 258h16v18h20v22h64v18h158l-2 -18h56l-2 -22h18v-18h32l-50 -242h108zM910 414h22l8 40h18l6 34l8 44l6 34v40h-12v18h-38l18 60h-2v16h-40l10 36v6h-34v20h-38v18h-94v-18h-42v-20h-22v-20h-32v-22h-16v-16h-32l-4 -40h-22 l-12 -60h-18l-14 -74h-2l-14 -76h4l-2 -20h16v-38h14l-2 -20h24l-2 -20h10v-18h16l-2 -22h18v-18h36v-20h94v20h42v18h42v22h24v18h30l6 40h18z" />
<glyph unicode="&#xf7;" d="M520 408h-216v18h-6v22h-32l50 266h14v18h62v22h196l4 20l4 164h32l12 60h14v20h20v22h268l-2 -22h18l-2 -20h44l-2 -60h4l-4 -164h-32l-4 -20h222l-2 -22h18v-18h32l-42 -246h-24l-4 -42h-86v-18h-192v-18h30l-46 -224h-12v-20h-24v-22h-26v-18h-284v18h-14v22h-38 l12 60l4 164h28z" />
<glyph unicode="&#xf8;" d="M1024 1350h18l6 38h16v20h220v-20h20l-2 -22h24l-36 -218h-24l-4 -36h-18q-2 -12 -2 -24v-16h-28l-6 -42h-22l-8 -52h36l-10 -34v-2h12l-2 -22h22l-2 -18h16v-40h38l-10 -36v-24h14v-38h18l-12 -98h22l-56 -276h-20l-6 -60h-22l-16 -94h-22l-8 -40h-12v-18h-26v-24h-22 v-16h-24v-20h-20v-18h-50q-2 -6 -2 -16v-6h-18v-18h-20v-20h-44v-20h-42v-20h-96q0 -4 1 -6t1 -6v-6h-176v-18h-30l-8 -62h-24l-12 -56h-20l-16 -78h-18l-12 -80h-12v-16h-36l-6 -22h-46v-18h-160v18h-22v22h-26l38 198h22l14 76h18l12 58h18l14 60h6v14h-56l6 22v18h-16v20 h-18v40h-10v38h-20l2 56h-2v42h-28l76 392h18l14 58h14l8 38h20l8 38h26l6 22h14l6 40h14v18h40v22h22v18h42l6 12q2 4 2 6h18v22h44v16h42v20h82v20h174v22h26l12 58h22l12 58h14l14 58h18l8 38h18zM906 414h24l6 40h18l8 34h-2l16 78v40h-10v-2h-20l-12 -56h-16l-6 -38 h-24l-10 -62h-20l-12 -58h-18l-6 -38h-22l-12 -56h34v22h24v18h30l6 40h18zM518 434v2h18l8 38h16l8 38h22l12 58h20l14 80h16l14 56h18l4 36h-8v-20h-32v-22h-16v-16h-32l-4 -40h-22l-12 -60h-18l-14 -74h-2l-14 -76h4zM780 296h-12l-4 -18h16v18zM702 746h10l4 16h-14v-16 z" />
<glyph unicode="&#xf9;" d="M968 1172l6 -4h32l-140 -186h98v20h100v20h200l-2 -20h26l-2 -58h18l-42 -238h-22l-28 -138q-2 -2 -2 -8l-4 -18l-6 -26l-6 -34l-10 -54l-12 -58l-4 -30h4l-2 -20h38l-2 -20h94v-38h20l-24 -180h-14v-18h-90v-22h-36v-18h-62v-20h-200v20h-90v-20h-104v-18h-256v18h-56 v20h-34v18h-34l6 22h-2v18h-36v40h-12v20h-26l2 58h-14l24 118h-8l4 158h18l4 116h12l26 134h-2v20h-94v20h-44l14 40l4 138h26l8 38h34v20h140v20h238l-2 -20h32l-72 -354h-16l-38 -212h6v-58h2l-2 -18h20v-40h12l-2 -20h66l-8 -18h32v-20h34v20h60v4q4 8 4 10l4 4h38v20 h26v20h22v20h30l32 150h-2q0 8 2 12l14 70l8 34q2 2 1 4t1 4q0 4 4 20q2 10 3 19t5 19q0 10 2 14h-6v20h-16v20h-94v20h-32l36 192l-6 -10l-16 10l-12 -14l-6 -12l-388 262l32 30l-4 18q-4 4 -7 10l-5 10q-4 6 -4 10l108 140h2l12 24l8 -4l10 24l190 -130l-8 -14l12 -8 l14 12l200 -128zM864 962v16l-12 -16h12z" />
<glyph unicode="&#xfa;" d="M692 1182h20l20 12l-8 14l232 118l6 -12l42 22v16l224 116v-16l14 6l4 -70l48 -144l-6 -6l8 -34l-40 -20q0 -4 1 -6t1 -4v-4l-356 -188h62v20h100v20h200l-2 -20h26l-2 -58h18l-42 -238h-22q-10 -50 -19 -94t-18 -87t-18 -88t-17 -97h4l-2 -20h38l-2 -20h94v-38h20 l-24 -180h-14v-18h-90v-22h-36v-18h-62v-20h-200v20h-90v-20h-104v-18h-256v18h-56v20h-34v18h-34l6 22h-2v18h-36v40h-12v20h-26l2 58h-14l24 118h-8l4 158h18l4 116h12l26 134h-2v20h-94v20h-44l14 40l4 138h26l8 38h34v20h140v20h238l-2 -20h32l-72 -354h-16l-38 -212h6 v-58h2l-2 -18h20v-40h12l-2 -20h66l-8 -18h32v-20h34v20h60q0 4 4 12q2 4 4 6h38v20h26v20h22v20h30l32 150h-2q6 30 11 52t9 43t9 44t11 57h-6v20h-16v20h-94v20h-32l36 186l-28 -14l-2 2l-6 -6l-16 26l-12 -6z" />
<glyph unicode="&#xfb;" d="M872 1414l74 32v-4l12 8v-64l118 -306l-14 -6l16 -52h186l-2 -20h26l-2 -58h18l-42 -238h-22q-10 -50 -19 -94t-18 -87t-18 -88t-17 -97h4l-2 -20h38l-2 -20h94v-38h20l-24 -180h-14v-18h-90v-22h-36v-18h-62v-20h-200v20h-90v-20h-104v-18h-256v18h-56v20h-34v18h-34 l6 22h-2v18h-36v40h-12v20h-26l2 58h-14l24 118h-8l4 158h18l4 116h12l26 134h-2v20h-94v20h-44l14 40l4 138h26l8 38h34v20h140v20h188l-50 32l36 36l-18 18l250 322q2 16 2 25v11zM812 766l30 158l-8 -4l-2 72l-20 42l-74 -92l-24 12l-22 4l-26 16l-66 -326h-16l-38 -212 h6v-58h2l-2 -18h20v-40h12l-2 -20h66l-8 -18h32v-20h34v20h60q0 4 4 12q2 4 4 6h38v20h26v20h22v20h30l32 150h-2q6 30 11 52t9 43t9 44t11 57h-6v20h-16v20h-94v20h-32zM1064 1002v10h-38l-22 -10h60zM964 982v2l-4 -2h4z" />
<glyph unicode="&#xfc;" d="M926 1270l6 38h34v20h42v16h160l-2 -16h56l-2 -20h46l-6 -20h4l-46 -266h46l-2 -20h26l-2 -58h18l-42 -238h-22l-18 -86l-2 -16l-2 -10l-6 -26v-2l-2 -2v-4l-4 -18l-6 -26l-4 -24l-2 -6v-4l-4 -14l-10 -60q0 -2 -1 -3t-1 -3v-6q-4 -14 -6 -27t-4 -29h4l-2 -20h38l-2 -20 h94v-38h20l-24 -180h-14v-18h-90v-22h-36v-18h-62v-20h-200v20h-90v-20h-104v-18h-256v18h-56v20h-34v18h-34l6 22h-2v18h-36v40h-12v20h-26l2 58h-14l24 118h-8l4 158h18l4 116h12l26 134h-2v20h-94v20h-44l14 40l4 138h26l8 38h34v20h140v20h48v8h-34l50 258h30l6 6v34h64 v16h158l-2 -16h56v-20h44l-8 -20h10l-50 -258h-16l-6 -38h-14v-18h-70v-22h-8l-62 -304h-16l-38 -212h6v-58h2l-2 -18h20v-40h12l-2 -20h66l-8 -18h32v-20h34v20h60v4q0 2 1 2t1 2v2q0 2 2 2q0 2 2 4l2 2h38v20h26v20h22v20h30l32 150h-2v10l2 2v4l12 58l2 6v2l4 16l2 4 q0 4 1 7t1 7v2q0 4 2 6v8q2 10 4 21t6 23q0 2 1 3t1 3v12l2 2h-6v20h-16v20h-94v20h-32l38 196h14v20h40v30h-18v58h-18l38 200h20z" />
<glyph unicode="&#xfd;" d="M250 960h30l8 38h110v20h236v-20h128l-32 94l18 10v16l12 6l-8 24l230 114l6 -18l28 16v24l196 98l6 -12l10 6l6 -14l20 10l62 -186l-6 -6l14 -38l-32 -18q4 -8 6 -10l2 -2l-180 -94h294l-2 -20h18v-38h8l-4 -160h-26l-6 -38h-54v-18h-62v-22h-30l-6 -40h-24l-6 -56h-24 l-10 -60h-16q-2 -12 -2 -24v-16h-30l-12 -58h-18l-6 -38h-22l-10 -58h-12v-20h-30l-8 -56h-22l-6 -42h-18q-2 -12 -2 -23v-15h-30l-10 -60h-14v-20h-30l-4 -36h-22l-6 -40h-14v-18h-32l-12 -60h-18l-6 -42h-22l-6 -36h-18l-4 -36h-24l-12 -62h-18l-8 -40h-14v-16h-28l-6 -42 h-20l-6 -36h-40q-2 -8 -2 -14v-8h-18v-18h-42v-20h-22v-20h-82v-18h-218v18h-54v20h-16l2 20h-34l40 196h16l8 42h14v20h264l8 36h16l8 40h14v20h28l8 38h22l6 40h20l6 38h18l8 40h16v36h-8v38h-12v38h-12v18h-16v40h-14v40h-10v20h-16v40h-10v18h-18v38h-20l2 58h-2v40h-10 v38h-16v40h-6v38h-16v40h-10v22h-16v18h-112v38h-14zM850 800l2 78l-36 -20l-16 -78h-12v-18h-62v-18h-4v-18h12v-38h12v-40h12v-40h12v-38h10l-2 -18h26l-2 -40h16l12 58h14l8 38h20l8 40h22l12 58h20l10 56h-62v18h-16v20h-16z" />
<glyph unicode="&#xfe;" d="M762 1042h340l-8 -20h16l-2 -20h58l-2 -20h36v-20h18v-18h16l-2 -20h46l-14 -38h16v-40h14l-2 -18h42l-18 -60h16l-26 -136h20l-60 -296h-18l-6 -40h-18l-8 -40h-22l-6 -36h-20l-6 -38h-14v-22h-38l-4 -18h-4v-20h-24v-20h-24v-20h-20v-18h-72v-22h-34v-18h-104v-20h-264 l-62 -326h-12v-22h-22v-18h-258v18h-12v58h-28l124 648h20l106 530h-20l88 448h24l6 22h2v20h238l-2 -20h54l-14 -78h18zM702 726q-10 -54 -20 -103t-20 -97t-20 -99t-20 -107h6l-2 -20h64l-8 -18h16l-2 -20h36v20h58l6 12q2 4 2 6h22v20h20v20h24v20h28l6 36h20l8 40h20 l8 40h18l8 30v2q2 12 4 17l4 10t3 12t3 23h-4v38h-12v20h-14v20h-18v18h-34l4 22v18h-16v20h-16v20h-34v20h-76v-20h-40v-20h-32z" />
<glyph unicode="&#xff;" d="M1034 1288l8 20l26 16v20h38v18h156v-18h80l-8 -22l-2 -16h30l-50 -276h-12v-12h114l-2 -20h18v-38h8l-4 -160h-26l-6 -38h-54v-18h-62v-22h-30l-6 -40h-24l-6 -56h-24l-10 -60h-16q-2 -8 -2 -20v-20h-30l-12 -58h-18l-6 -38h-22l-10 -58h-12v-20h-30l-8 -56h-22l-6 -42 h-18q0 -2 -1 -3t-1 -3v-32h-30l-10 -60h-14v-20h-30l-4 -36h-22l-6 -40h-14v-18h-32l-12 -60h-18l-6 -42h-22l-6 -36h-18l-4 -36h-24l-12 -62h-18l-8 -40h-14v-16h-28l-6 -42h-20l-6 -36h-40q0 -2 -1 -2t-1 -2v-18h-18v-18h-42v-20h-22v-20h-82v-18h-218v18h-54v20h-16l2 20 h-34l40 196h16l8 42h14v20h264l8 36h16l8 40h14v20h28l8 38h22l6 40h20l6 38h18l8 40h16v36h-8v38h-12v38h-12v18h-16v40h-14v40h-10v20h-16v40h-10v18h-18v38h-20l2 58h-2v40h-10v38h-16v40h-6v38h-16v40h-10v22h-16v18h-112v38h-14l4 160h30l8 38h110v20h162v12h-12v18 h-32l48 258h14v18h34l6 20h46v18h160l-2 -18h78l-6 -22l-2 -16h30l-50 -258h-16l-6 -40h-14v-18h-50v-10h56l-42 -200h-12v-18h-62v-18h-4v-18h12v-38h12v-40h12v-40h12v-38h10l-2 -18h26l-2 -40h16l12 58h14l8 38h20l8 40h22l12 58h20l10 56h-62v18h-16v20h-16l4 160h28 l6 38h112v32h-18l2 58h-18l36 200h32z" />
<glyph unicode="&#x178;" d="M908 1720l6 38h42v14q0 4 2 8h36v18h164l-2 -18h84l-8 -26l-2 -16h32l-46 -230h154l-2 -24h54l-44 -226h-12v-22h-22v-20h-74l-8 -42h-14v-24h-38v-20h-20q0 -2 -1 -3t-1 -3v-36h-30l-6 -42h-22l-6 -42h-26v-22h-16v-20h-34l-12 -62h-12v-22h-36l-6 -44h-14v-18h-30 l-6 -42h-24l-8 -44h-12v-20h-34l-6 -44h-26l-4 -40h-26l-4 -32l-54 -266h8v-44h206l-8 -20h20l-2 -20h30l-26 -188h-22l-8 -40h-60v-22h-186v22h-2v-22h-314v22h-184v40h-12l4 164h30l8 44h42v20h104v22h24v22h30q0 10 2 14q0 4 1 6t1 6l6 32l26 122l14 76h-4v42h-8v20h-44 l18 64h-2v20h-18v20h-18v42h-12v24h-16v42h-12v42h-40l10 28v34h-14v42h-14v20h-14v42h-36l6 22v42h-42l12 34v30h-36l6 22h-62v20h-50l42 248h36v24h232l44 230h16v20h34l8 22h48v18h164l-2 -18h82l-8 -26l-2 -16h32l-50 -266h-18l-6 -40h-2l-4 -152h-24v-22h-24v-22h-86 v-2h14v-44h12l-2 -22h20v-42h12l-2 -18h18v-44h14v-42h12v-42h46l10 42h22l8 42h20l8 44h22l6 42h24l6 40h14v20h34q0 2 1 3t1 3h-46v20h-40v22h-34l40 206h16v20h22l2 30h-18l38 206h20z" />
<glyph unicode="&#x2c6;" d="M770 1938v2l6 -8l26 -18l78 36v-4l14 6v-74l124 -308l-16 -10l20 -60l-54 -2l-100 -48l-104 -104l-2 130l-20 44l-48 -58v-74l-190 126v10l-4 6l2 48l-24 22l258 324l2 -2q2 16 2 26v12z" />
<glyph unicode="&#x2000;" horiz-adv-x="981" />
<glyph unicode="&#x2001;" horiz-adv-x="1962" />
<glyph unicode="&#x2002;" horiz-adv-x="981" />
<glyph unicode="&#x2003;" horiz-adv-x="1962" />
<glyph unicode="&#x2004;" horiz-adv-x="654" />
<glyph unicode="&#x2005;" horiz-adv-x="490" />
<glyph unicode="&#x2006;" horiz-adv-x="327" />
<glyph unicode="&#x2007;" horiz-adv-x="327" />
<glyph unicode="&#x2008;" horiz-adv-x="245" />
<glyph unicode="&#x2009;" horiz-adv-x="392" />
<glyph unicode="&#x200a;" horiz-adv-x="109" />
<glyph unicode="&#x2010;" d="M390 786h12v18h62v22h648l-2 -22h20l-2 -18h34l-44 -244h-22l-6 -42h-76v-20h-626v20h-18v18h-34z" />
<glyph unicode="&#x2011;" d="M390 786h12v18h62v22h648l-2 -22h20l-2 -18h34l-44 -244h-22l-6 -42h-76v-20h-626v20h-18v18h-34z" />
<glyph unicode="&#x2012;" d="M390 786h12v18h62v22h648l-2 -22h20l-2 -18h34l-44 -244h-22l-6 -42h-76v-20h-626v20h-18v18h-34z" />
<glyph unicode="&#x2013;" d="M318 744h14v18h74l6 22h352l-6 -22h134v22h314l-6 -22h2l-2 -18h34l-42 -246h-24l-4 -40h-76v-22h-770v22h-18v18h-34z" />
<glyph unicode="&#x2014;" d="M2 786h12v18h64v22h348l-2 -22h776v22h302l-2 -22h22l-2 -18h32l-44 -244h-20l-8 -42h-76v-20h-1406v20h-16v18h-32z" />
<glyph unicode="&#x2018;" d="M580 1590h42q2 4 3 7t3 7t4 6h40v22h204v-22h86l-8 -20h16v-40h28l-42 -206h-18l-24 -124h-22l-12 -66l-48 -256h-14v-20h-24v-20h-246v20h-14v20h-32l22 122h-20l40 200h-24l22 104h-18l44 244h12v22z" />
<glyph unicode="&#x2019;" d="M580 1590h42q2 4 3 7t3 7t4 6h40v22h204v-22h86l-8 -20h16v-40h28l-42 -206h-18l-24 -124h-22l-12 -66l-48 -256h-14v-20h-24v-20h-246v20h-14v20h-32l22 122h-20l40 200h-24l22 104h-18l44 244h12v22z" />
<glyph unicode="&#x201a;" d="M640 294h54l22 20v22h204l-2 -22h20l-2 -20h58l-6 -22v-40h30l-70 -368h-22l-8 -42h-10v-16h-36l-6 -22h-8v-20h-24v-22h-24v-18h-24v-20h-38l-6 -20h-6v-22h-42v-20h-166l2 20h-38v42h-10l4 164h28l6 40h16v20h30l6 40h30l6 18h-22l2 62h-12l26 184h24z" />
<glyph unicode="&#x201c;" d="M294 1574h8v22h28v18h286l-2 -18h38l-2 -22h34l-52 -266h-22l-28 -160h-24l-42 -226h-12v-20h-24v-20h-206v20h-16v20h-32l18 102h-16l26 142h-20l26 142h-20zM876 1574h18v22h42v18h264v-18h36l-2 -22h38l-58 -288h-22l-18 -100q-8 -44 -20 -103t-18 -99h-20l-12 -62 h-12v-20h-24v-20h-206v20h-16v20h-34l22 102h-22l36 182h-16l22 122h-20z" />
<glyph unicode="&#x201d;" d="M294 1574h8v22h28v18h286l-2 -18h38l-2 -22h34l-52 -266h-22l-28 -160h-24l-42 -226h-12v-20h-24v-20h-206v20h-16v20h-32l18 102h-16l26 142h-20l26 142h-20zM876 1574h18v22h42v18h264v-18h36l-2 -22h38l-58 -288h-22l-18 -100q-8 -44 -20 -103t-18 -99h-20l-12 -62 h-12v-20h-24v-20h-206v20h-16v20h-34l22 102h-22l36 182h-16l22 122h-20z" />
<glyph unicode="&#x201e;" d="M856 294l22 20v22h204l-2 -22h18l-2 -20h60l-6 -22v-40h30l-70 -368h-22l-8 -42h-10v-16h-38l-6 -22h-6v-20h-26v-22h-22v-18h-24v-20h-38l-6 -20h-8v-22h-40v-20h-166v20h-38v42h-10v20h-18v-20h-38l-6 -20h-8v-22h-42v-20h-166l2 20h-38v42h-8l4 164h28l6 40h14v20h28 l8 40h30l6 18h-20l2 62h-12l24 184h24l14 62h54l24 20v22h204l-2 -22h18l-2 -20h84z" />
<glyph unicode="&#x2022;" d="M620 960h6v22h84v20h162l-2 -20h80l-2 -22h26l-2 -20h10v-40h14v-42h12l-4 -164h-32l-8 -60h-16v-20h-22v-20h-42l-6 -20h-2v-22h-26v-20h-204v20h-54v22h-64l8 22v18h-14v40h-30l32 184h22l18 82h10v20h38z" />
<glyph unicode="&#x2026;" d="M74 294h6v20h84v22h162l-2 -22h80v-20h38l-6 -22v-40h14v-42h38l-50 -164h-12l-12 -58h-12v-22h-22v-18h-38l-6 -22h-6v-20h-24v-22h-204v22h-56v20h-58l6 22h-4v18h-14v40h-28l30 186h22l18 82h10v18h40zM594 272q2 8 2 13v9h18v20h84v22h162l-2 -22h80v-20h38l-6 -22 v-40h14v-42h36l-48 -164h-12l-8 -58h-16v-22h-22v-18h-34v-22h-16v-20h-24v-22h-204v22h-56v20h-58l6 22h-4v18h-14v40h-28l30 186h22l18 82h10v18h32zM1140 294h8v20h84v22h162l-2 -22h80v-20h24l-2 -22h10v-40h14v-42h36l-48 -164h-12l-8 -58h-16v-22h-22v-18h-40l-6 -22 h-4v-20h-26v-22h-204v22h-54v20h-58l6 22h-4v18h-14v40h-30l32 186h22l18 82h10v18h38z" />
<glyph unicode="&#x202f;" horiz-adv-x="392" />
<glyph unicode="&#x2039;" d="M388 694q-2 10 -3 20t-1 14l586 378l8 -30l58 28l4 -18l6 6l98 -238l-16 -8l6 -16l-16 -10l6 -16l-256 -134v4l-84 -58l10 -10q10 -10 14 -16t9 -11l11 -11l18 -18l8 6l188 -122l-6 -16l20 -8l-12 -18l16 -8l-172 -224l-12 10l-8 -14l-50 22l-20 -28l-442 382l4 42z" />
<glyph unicode="&#x203a;" d="M1110 566l18 -34l-598 -388l-10 28l-54 -22l-10 26l-12 -6l-88 224l8 6l-4 16l20 8l-6 22l234 120l4 -8l102 74l-8 8h2l-58 56l-4 -4l-208 134l8 10l-4 2l12 16l-16 8l172 224l10 -10l12 14l46 -16l18 30l448 -388l-4 -34z" />
<glyph unicode="&#x205f;" horiz-adv-x="490" />
<glyph unicode="&#x20ac;" d="M1318 740v-66h22v-528h-24v-22h-16v-20h-22v-20h-42v-22h-20v-16h-38v-24h-42v-18h-82v-22h-80v-18h-264v18h-102v22h-62v18h-40v24h-42v16h-16v22h-24v20h-18v20h-24v22h-16v38h-22v22h-20v20h-22v60h-20v42h-22v58h-16v64h-42v20h-22v20h-20v184h20v22h22v4h-22v40h-20 v184h20v24h22v18h42v32h16v62h22v60h20v40h22v42h20v20h22v40h16v20h24v22h18v20h24v20h16v20h20v20h40v22h22v18h40v22h62v20h366v-20h102v-22h184v-18h16v-42h24v-182h-24v-62h24v-380h-22zM1016 966h16v92h-18v40h-24v20h-16v22h-24v18h-40v24h-96v-24h-40v-18h-42v-22 h-22v-20h-20v-20h-22v-40h-18v-22h-22v-38h-18v-12h138v20h268v-20zM1014 388h18v62h-260v-22h-144v-16h22v-40h18v-22h22v-20h20v-22h40v-18h40v-22h42v-18h38v18h40v22h40v18h24v22h16v42h24v16z" />
<glyph unicode="&#x2122;" d="M42 1376h12v60h8v10h616v8h276v-8h28v-10h8v-8h12v-20h8v-20h12v-20h10v-28h10v-20h8v-8h4v28h10v28h10v30h10v10h8v20h10v18h334v-10h20v-226h-46v-10h-42v-294h10v-12h32v-10h26v-8h10v-10h10v-208h-10v-10h-36v-10h-210v10h-146v10h-4v-10h-372v10h-4v-14h-10v-20h-50 v-8h-192v8h-270v226h8v14h32v10h40v8h30v12h10v172h-2v-20l-176 22l-6 10h-34v78h-12v220zM664 842h4v34h10v8h10v10h18v12h10v8h8v148l-170 18l-6 6h-16v-204h22v-8h28v-10h72v-14h10v-8z" />
<glyph unicode="&#x25fc;" horiz-adv-x="1020" d="M0 1020h1020v-1020h-1020v1020z" />
</font>
</defs>
</svg>
