<?xml version="1.0" standalone="no"?>
<!DOCTYPE svg PUBLIC "-//W3C//DTD SVG 1.1//EN" "http://www.w3.org/Graphics/SVG/1.1/DTD/svg11.dtd" >
<svg xmlns="http://www.w3.org/2000/svg" xmlns:xlink="http://www.w3.org/1999/xlink" version="1.1">
<metadata></metadata>
<defs>
<font id="jmh_typewriter_monoregular" horiz-adv-x="1500" >
<font-face units-per-em="2048" ascent="1638" descent="-410" />
<missing-glyph horiz-adv-x="500" />
<glyph horiz-adv-x="0" />
<glyph unicode="&#xd;" />
<glyph />
<glyph />
<glyph unicode=" " />
<glyph unicode="!" d="M556 54v236h20v22h22v22h22v22h42v44h-20v106h-22v408h-22v170h-22v66h-20v282h20v62h22v22h22v22h22v20h192v-20h44v-22h22v-44h20v-64h22v-108h-22v-150h-20v-148h-22v-174h-22v-388h-22v-64h-20v-20h20v-22h22v-22h22v-22h22v-22h20v-42h22v-86h-22v-86h-20v-22h-22 v-22h-44v-20h-64v-22h-108v22h-42v20h-22v22h-22v22h-20z" />
<glyph unicode="&#x22;" d="M278 1386v194h20v24h22v18h216v-18h42v-24h22v-194h-22v-170h-22v-238h-20v-22h-22v-20h-130v20h-22v22h-20v108h-22v150h-22v150h-20zM900 1408v172h22v24h42v18h194v-18h42v-24h22v-216h-22v-320h-20v-66h-22v-22h-22v-20h-130v20h-20v22h-22v108h-22v192h-20v130h-22z " />
<glyph unicode="#" d="M126 356v148h24v24h278v20h42v86h22v66h22v20h-86v22h-192v20h-24v152h24v22h298v22h22v86h22v64h22v128h22v86h22v110h20v84h44v22h128v-22h22v-194h-22v-86h-22v-64h-22v-88h-20v-106h-20v-130h-24v-62h-18v-86h-24v-108h-20v-108h-24v-84h-20v-86h-24v-112h-18v-86 h-24v-126h-20v-130h-24v-86h-18v-44h-24v-18h-20v-24h-84v24h-44v42h-24v128h24v88h20v104h24v68h18v84h22v64h22v24h-22v18h-256v24h-24zM644 -74h20v86h22v106h22v64h18v108h24v66h20v108h24v108h18v86h24v106h20v106h24v88h20v128h24v106h18v110h24v130h20v84h24v22h40 v20h88v-20h18v-22h24v-44h20v-84h-20v-108h-24v-44h-18v-86h-24v-106h-20v-108h216v-22h44v-22h18v-130h-18v-20h-130v-22h-88v22h-22v-22h-84v-20h-22v-88h-20v-64h42v-20h214v-24h24v-20h18v-108h-18v-20h-44v-24h-236v-18h-44v-68h-22v-62h-22v-130h-22v-150h-20v-66h-22 v-64h-22v-44h-22v-18h-128v18h-20v196z" />
<glyph unicode="$" d="M266 226v258h24v64h42v24h86v-24h42v-44h22v-62h22v-44h22v-20h22v-22h20v-22h22v-22h44v-22h170v22h44v22h42v22h22v22h22v20h20v44h22v106h-22v22h-20v22h-22v20h-22v22h-42v22h-66v22h-64v22h-64v20h-86v22h-42v20h-44v24h-42v18h-24v24h-20v20h-24v24h-18v42h-22v44 h-22v278h22v42h22v44h18v24h24v42h20v20h44v24h22v20h44v20h42v22h44v22h20v152h22v20h20v22h154v-22h18v-150h24v-22h20v-22h66v-22h62v-20h66v-20h22v-24h20v-20h22v-42h22v-262h-22v-20h-42v-20h-88v20h-64v20h-20v44h-22v130h-22v22h-22v20h-86v22h-42v-22h-42v-20h-44 v-22h-42v-22h-22v-22h-22v-42h-20v-66h-22v-20h22v-20h20v-44h22v-22h22v-22h42v-20h66v-22h108v-22h62v-22h66v-22h62v-20h44v-22h22v-22h22v-20h42v-42h22v-24h22v-62h20v-86h22v-88h-22v-108h-20v-44h-22v-42h-22v-44h-22v-20h-20v-24h-44v-18h-20v-24h-42v-20h-44v-24 h-66v-18h-20v-22h-24v-194h-18v-170h-24v-44h-130v20h-20v24h-22v364h-44v22h-86v18h-106v24h-42v20h-44v24h-20v42h-24z" />
<glyph unicode="%" d="M106 1194v214h22v64h22v22h20v22h22v22h22v20h64v22h66v22h128v-22h108v-22h64v-20h106v-22h66v-22h20v-128h-20v-22h-86v-22h-20v-128h-22v-44h-22v-44h-22v-22h-22v-20h-22v-20h-42v-24h-44v-18h-214v18h-44v24h-42v20h-22v20h-22v22h-20v22h-22v66h-22zM302 1278h18 v-42h24v-20h44v-24h42v24h42v20h20v24h24v84h-24v22h-20v22h-42v18h-22v-18h-44v-22h-20v-22h-24v-44h-18v-22zM344 -96v214h18v44h24v42h20v22h24v86h18v44h24v42h20v44h24v62h18v44h24v66h20v44h24v62h20v44h24v42h18v44h22v42h22v66h20v42h22v66h22v64h22v18h20v68h22v44 h22v42h22v44h22v62h22v64h20v66h22v20h22v22h150v-22h20v-152h-20v-40h-22v-44h-22v-64h-22v-22h-20v-64h-20v-44h-24v-44h-18v-64h-24v-42h-20v-64h-24v-22h-20v-64h-24v-66h-18v-42h-24v-64h-20v-44h-24v-42h-18v-44h-24v-42h-20v-66h-20v-42h-22v-62h-22v-44h-22v-68h-22 v-62h-22v-64h-20v-44h-22v-64h-22v-44h-22v-20h-20v-22h-132v22h-18zM794 54v258h20v44h22v42h22v22h44v22h22v22h300v-22h64v-22h22v-22h22v-20h22v-44h20v-66h20v-192h-20v-44h-20v-42h-22v-22h-22v-22h-22v-22h-42v-20h-44v-22h-236v22h-42v20h-44v22h-22v22h-22v42h-22 v44h-20zM966 162h24v-20h18v-24h24v-20h40v-24h2v24h62v20h44v44h24v40h-24v24h-20v44h-24v20h-104v-20h-24v-24h-18v-44h-24v-40z" />
<glyph unicode="&#x26;" d="M104 314v320h24v42h20v44h24v24h20v20h24v22h18v20h24v22h40v22h44v20h42v64h-20v24h-22v44h-22v62h-22v214h22v44h22v42h22v24h20v20h44v24h22v20h44v20h106v22h172v-22h86v-20h22v-20h44v-44h20v-152h-20v-22h-44v-20h-130v20h-20v22h-44v22h-64v-22h-44v-22h-18v-20 h-24v-64h24v-44h18v-20h24v-44h20v-22h24v-22h18v-20h22v-22h22v-22h20v-22h22v-22h22v-20h22v-44h22v-20h22v-22h20v-20h22v-44h22v-24h22v-18h20v-24h22v-44h22v-42h18v-20h2v172h22v44h22v20h322v-194h-44v-22h-40v-22h-44v-20h-24v-66h-18v-64h-24v-44h-20v-42h-24v-42 h22v20h44v22h128v-22h44v-42h22v-86h-22v-86h-22v-22h-44v-22h-42v-20h-150v20h-64v22h-22v22h-22v22h-42v-22h-42v-22h-44v-22h-42v-20h-66v-22h-300v22h-66v20h-42v22h-44v22h-42v22h-20v22h-24v18h-18v24h-24v44h-20v42h-24v44h-20v44h-24zM344 442h18v-64h24v-44h20v-22 h24v-22h18v-42h44v-22h24v-22h62v-22h128v22h68v22h18v22h44v20h24v64h-24v44h-20v42h-24v44h-18v22h-24v42h-20v22h-24v22h-20v42h-24v22h-18v22h-24v22h-20v22h-20v20h-64v-20h-24v-22h-44v-22h-18v-22h-24v-22h-20v-42h-24v-64h-18v-64z" />
<glyph unicode="'" d="M568 1404v170h20v24h22v20h64v24h130v-24h64v-20h44v-42h20v-132h-20v-130h-22v-342h-22v-22h-22v-20h-172v20h-20v22h-22v130h-22v212h-22v110h-20z" />
<glyph unicode="(" d="M394 612v132h22v148h22v86h22v66h22v22h22v64h20v18h22v44h22v44h20v24h22v18h22v24h22v20h20v42h22v24h22v20h22v24h22v20h22v20h20v44h22v22h22v20h42v22h20v22h152v-22h22v-22h22v-128h-22v-42h-44v-22h-22v-22h-20v-22h-22v-22h-22v-20h-22v-22h-20v-22h-22v-22h-22 v-20h-20v-44h-22v-22h-22v-44h-22v-40h-20v-42h-24v-44h-20v-86h-22v-110h-22v-278h22v-106h22v-44h20v-66h24v-42h20v-44h22v-20h22v-44h22v-20h20v-24h22v-42h22v-20h20v-24h22v-18h44v-24h20v-20h22v-44h22v-24h22v-146h-44v-24h-130v24h-20v18h-24v24h-18v20h-22v20h-22 v22h-20v22h-22v22h-22v22h-22v22h-22v20h-22v22h-20v22h-22v42h-22v22h-22v44h-20v40h-22v24h-22v20h-20v42h-22v68h-22v86h-22v44h-22v212h-22z" />
<glyph unicode=")" d="M406 -160h18v42h24v20h20v24h24v20h42v24h20v18h24v44h20v24h24v18h18v44h24v24h20v20h24v42h18v44h22v42h22v44h20v86h22v84h22v282h-22v62h-22v86h-20v44h-22v66h-22v40h-18v44h-24v22h-20v44h-24v20h-18v22h-24v22h-20v22h-24v42h-20v22h-42v22h-24v22h-20v18h-24v24 h-18v172h18v22h152v-22h22v-22h22v-22h22v-20h22v-22h22v-22h42v-42h22v-20h22v-24h20v-20h20v-24h24v-18h18v-44h24v-24h20v-18h24v-44h20v-24h24v-44h18v-40h24v-22h20v-42h24v-86h18v-130h24v-428h-24v-68h-18v-42h-24v-64h-20v-42h-24v-44h-18v-24h-24v-40h-20v-22h-24 v-44h-20v-20h-24v-22h-18v-22h-24v-22h-20v-20h-20v-22h-22v-22h-22v-22h-22v-22h-20v-22h-22v-20h-22v-44h-22v-18h-64v-24h-108v24h-24v42h-18v86z" />
<glyph unicode="*" d="M136 1064v152h22v44h22v18h194v-18h42v-24h44v-20h42v-24h44v-20h20v-24h66v-18h22v128h-22v108h-22v192h22v22h22v22h192v-22h44v-64h22v-86h-22v-86h-22v-150h-22v-64h20v18h86v24h24v20h42v24h42v20h44v24h22v18h170v-18h24v-24h20v-44h24v-128h-24v-44h-20v-18h-152 v-24h-106v-20h-86v-24h-44v-20h22v-22h22v-22h22v-20h20v-22h22v-22h22v-20h20v-22h24v-20h18v-24h24v-20h20v-42h24v-110h-24v-22h-20v-42h-42v-22h-154v22h-18v22h-24v42h-20v22h-24v42h-18v44h-24v64h-20v22h-24v44h-18v42h-24v-42h-20v-24h-22v-42h-20v-42h-24v-44h-20 v-42h-22v-66h-22v-42h-42v-22h-152v22h-42v22h-22v64h-22v88h22v42h22v20h20v24h22v20h22v22h22v20h22v22h22v22h20v20h22v22h22v22h22v44h-86v20h-174v24h-86v18h-64v44h-22zM696 978h22v-20h20v-44h24v64h42v66h-86v20h-22v-86z" />
<glyph unicode="+" d="M52 676v88h20v40h22v24h130v20h278v-20h2v20h126v540h22v22h44v20h108v-20h20v-22h24v-22h18v-388h-18v-86h18v-20h24v-24h516v-20h18v-24h24v-128h-24v-42h-86v-20h-84v20h-42v-20h-88v20h-214v-20h-44v-154h-18v-104h18v-260h-18v-22h-24v-18h-44v-24h-84v24h-44v40 h-22v494h-20v24h-88v20h-450v42h-20z" />
<glyph unicode="," d="M556 -228h20v42h22v22h22v42h22v22h20v22h20v20h-20v24h-20v20h-22v64h-22v108h22v66h42v20h44v24h128v-24h22v-20h44v-24h20v-42h22v-302h-22v-44h-20v-18h-22v-24h-22v-20h-22v-24h-20v-18h-22v-22h-22v-22h-22v-22h-40v-22h-88v22h-44v44h-20v86z" />
<glyph unicode="-" d="M386 550v196h22v18h62v24h282v-24h84v24h232v-24h24v-18h20v-172h-20v-44h-86v-22h-576v22h-22v20h-22z" />
<glyph unicode="." d="M534 -14v108h24v88h20v18h24v24h20v20h86v24h84v-24h86v-20h24v-24h20v-42h24v-44h20v-86h-20v-62h-24v-24h-20v-18h-24v-24h-18v-20h-24v-24h-128v24h-62v20h-44v24h-24v18h-20v44h-24z" />
<glyph unicode="/" d="M340 -80h22v86h20v62h22v68h22v62h22v44h22v42h22v68h20v62h22v64h22v66h22v44h20v42h20v64h24v88h18v62h24v42h20v68h24v62h20v64h24v66h18v42h24v66h20v64h24v64h18v64h24v42h20v68h20v42h22v20h154v-20h18v-24h24v-150h-24v-42h-18v-44h-24v-44h-20v-64h-24v-62h-20 v-44h-24v-66h-18v-44h-22v-42h-22v-84h-20v-66h-22v-64h-22v-42h-22v-66h-20v-64h-22v-44h-22v-62h-22v-68h-22v-42h-22v-84h-20v-44h-22v-42h-22v-86h-18v-66h-24v-64h-20v-86h-24v-88h-18v-18h-24v-24h-64v-20h-88v20h-20v24h-22v128z" />
<glyph unicode="0" d="M234 574v364h20v194h24v64h18v66h22v42h22v44h22v22h20v40h22v24h22v20h22v24h22v18h20v24h66v20h64v24h258v-24h86v-20h22v-24h40v-18h24v-24h20v-20h24v-24h18v-20h24v-20h20v-44h24v-64h18v-44h24v-108h20v-130h24v-430h-24v-130h-20v-62h-24v-64h-18v-22h-24v-44h-20 v-42h-24v-22h-18v-22h-24v-42h-44v-22h-20v-22h-20v-22h-22v-18h-86v-24h-196v24h-106v18h-42v22h-44v22h-20v22h-44v22h-22v20h-22v22h-20v44h-22v42h-22v44h-22v64h-18v62h-24v154h-20zM468 638h24v-130h20v-86h24v-62h18v-24h24v-44h20v-18h24v-24h18v-20h44v-24h84v24 h44v20h42v24h24v18h20v24h24v20h18v66h22v42h22v86h22v346h22v20h-22v126h-22v86h-22v68h-22v44h-18v42h-24v20h-20v24h-24v18h-42v22h-44v22h-42v-22h-42v-22h-44v-18h-18v-24h-24v-20h-20v-42h-24v-44h-18v-68h-24v-86h-20v-170h-24v-214z" />
<glyph unicode="1" d="M266 1346v132h24v18h20v24h236v20h108v24h150v-24h24v-20h18v-1118h-18v-110h18v-42h24v-20h20v-24h322v-18h22v-172h-880v18h-44v154h22v18h40v24h88v-24h86v24h42v20h24v280h-24v152h24v192h-24v258h24v174h-24v18h-62v-18h-236v40h-24z" />
<glyph unicode="2" d="M254 56v150h20v44h24v24h20v18h24v24h18v20h24v24h20v20h20v22h22v42h22v22h22v20h20v22h22v22h22v22h22v22h22v20h22v44h20v22h22v22h22v20h22v22h20v40h20v24h24v20h18v44h24v24h20v42h24v44h20v62h24v64h18v132h-18v42h-24v20h-20v24h-24v18h-20v22h-66v22h-84v-22 h-20v-22h-24v-18h-20v-24h-24v-20h-18v-110h-24v-44h-20v-18h-24v-24h-146v24h-24v18h-20v154h20v64h24v22h18v42h24v20h20v24h20v20h22v24h22v18h22v24h42v20h88v24h256v-24h66v-20h42v-24h22v-18h22v-24h22v-20h20v-24h22v-20h22v-20h18v-44h24v-64h20v-240h-20v-62h-24 v-64h-18v-44h-22v-22h-22v-20h-20v-22h-22v-44h-22v-22h-22v-22h-20v-20h-22v-44h-22v-18h-22v-24h-22v-20h-22v-44h-20v-22h-22v-20h-22v-24h-18v-20h-24v-24h-20v-18h-24v-24h-18v-20h-24v-22h-20v-42h-24v-44h430v24h42v18h110v-18h44v-152h-24v-66h-20v-22h-44v-18h-280 v18h-104v-18h-474v18h-24v22h-20z" />
<glyph unicode="3" d="M254 100v88h20v18h24v24h128v-24h44v-18h42v-24h86v-20h148v20h66v24h44v18h20v24h24v20h18v42h24v44h20v66h24v106h-24v66h-20v20h-24v42h-42v24h-20v20h-44v20h-172v22h-20v22h-22v132h22v18h126v24h66v20h44v42h20v44h24v44h18v84h-18v44h-24v42h-20v24h-24v20h-20v24 h-24v18h-126v-18h-20v-24h-24v-20h-20v-42h-24v-44h-18v-24h-24v-20h-172v20h-18v152h18v66h24v20h20v44h20v20h44v24h42v18h44v24h108v20h110v-20h104v-24h66v-18h42v-24h44v-20h22v-24h20v-20h22v-42h22v-22h18v-86h24v-258h-24v-66h-18v-42h-22v-22h-22v-22h-20v-22h20 v-20h22v-24h22v-18h18v-22h24v-22h20v-42h24v-44h20v-86h24v-194h-24v-64h-20v-64h-24v-44h-20v-42h-24v-22h-18v-22h-22v-22h-22v-22h-20v-18h-44v-24h-64v-20h-66v-24h-386v24h-66v20h-40v24h-42v18h-44v22h-24v44h-20z" />
<glyph unicode="4" d="M168 378v216h20v66h24v22h18v42h24v40h20v24h24v44h20v44h24v42h18v44h22v62h22v44h20v42h22v44h22v42h22v66h20v22h22v64h22v62h22v44h22v42h22v44h20v24h22v18h22v24h84v-24h66v-18h20v-174h-20v-44h-22v-40h-22v-44h-22v-42h-20v-24h-20v-64h-24v-42h-18v-44h-24v-42 h-20v-44h-24v-44h-20v-42h-24v-44h-18v-42h-24v-44h-20v-22h-24v-42h-18v-44h-24v-18h-20v-44h-20v-44h40v-22h324v22h62v44h24v388h20v18h24v24h128v-24h22v-18h20v-410h20v-22h24v-22h172v-22h20v-42h24v-86h-24v-22h-20v-20h-172v-22h-24v-194h-20v-84h-20v-24h-22v-20 h-128v20h-44v64h-24v260h-602v20h-42v42h-20z" />
<glyph unicode="5" d="M254 56v132h22v18h172v-18h86v-24h110v24h62v18h42v24h44v20h42v24h22v18h22v24h22v44h22v20h20v42h22v108h22v44h-22v86h-22v40h-20v22h-22v44h-44v22h-22v22h-22v20h-42v22h-172v-22h-194v44h-20v322h20v300h42v24h518v20h128v-20h44v-174h-22v-22h-44v-18h-428v-24 h-22v-86h-22v-128h44v-20h278v-24h44v-20h42v-24h24v-18h40v-24h22v-20h22v-24h22v-42h20v-20h22v-44h22v-42h22v-86h22v-172h-22v-130h-22v-42h-22v-44h-22v-22h-20v-64h-22v-22h-22v-22h-22v-42h-20v-22h-44v-22h-18v-22h-44v-18h-44v-24h-86v-20h-386v20h-86v24h-44v18 h-22v22h-22z" />
<glyph unicode="6" d="M254 488v344h22v106h22v86h22v64h22v66h18v42h24v44h20v22h24v42h18v22h24v22h20v22h24v20h18v20h24v24h20v20h44v24h24v18h62v24h42v20h44v24h130v18h128v-18h42v-174h-42v-22h-106v-22h-86v-22h-44v-18h-24v-24h-42v-20h-20v-24h-20v-18h-22v-44h-22v-24h-22v-20h-22 v-42h-22v-44h-20v-42h-22v-44h-22v-22h66v24h44v18h62v24h214v-24h68v-18h18v-24h44v-20h42v-24h22v-18h22v-24h20v-20h22v-68h22v-18h22v-86h22v-216h-22v-128h-22v-66h-22v-42h-22v-44h-20v-22h-22v-42h-44v-22h-40v-22h-24v-22h-18v-18h-44v-24h-86v-20h-214v20h-88v24 h-42v18h-44v22h-24v22h-18v22h-24v42h-20v22h-24v44h-18v42h-22v44h-22v84h-22v110h-22zM512 444h22v-64h22v-44h22v-44h20v-18h22v-24h22v-20h22v-24h22v-18h126v18h44v24h22v20h22v24h22v42h20v20h22v66h22v234h-22v24h-22v40h-20v22h-22v22h-44v22h-64v22h-44v-22h-62 v-22h-44v-22h-22v-22h-22v-20h-20v-20h-22v-42h-22v-44h-22v-130zM512 894h2v2h-2v-2z" />
<glyph unicode="7" d="M278 1346v132h20v18h44v24h128v-24h174v24h514v-24h22v-18h20v-24h22v-192h-22v-42h-20v-44h-22v-44h-22v-86h-22v-64h-20v-44h-22v-42h-22v-44h-20v-42h-24v-44h-18v-86h-24v-62h-20v-24h-24v-44h-18v-62h-24v-68h-20v-62h-24v-86h-18v-22h-24v-108h-20v-42h-24v-66h-20 v-18h-20v-44h-22v-24h-44v-18h-128v18h-24v24h-18v172h18v44h24v42h20v62h24v44h18v66h24v42h20v42h24v66h18v42h22v66h22v42h22v62h22v44h20v68h22v42h22v20h22v66h20v64h22v42h22v44h22v42h20v86h-622v24h-22v40h-20z" />
<glyph unicode="8" d="M234 378v130h20v108h24v44h18v42h24v22h20v22h22v18h42v24h22v20h22v24h22v20h-22v22h-22v22h-44v42h-20v22h-22v62h-20v68h-24v172h24v64h20v64h22v44h20v20h22v24h22v18h44v24h20v20h66v24h64v18h258v-18h86v-24h42v-20h44v-24h20v-18h24v-44h18v-24h24v-40h20v-44h24 v-280h-24v-42h-20v-44h-24v-22h-18v-22h-24v-20h-20v-22h-22v-22h22v-20h44v-24h18v-20h24v-24h20v-18h24v-44h18v-20h24v-44h20v-86h24v-194h-24v-86h-20v-44h-24v-20h-18v-22h-24v-22h-20v-22h-24v-20h-18v-22h-24v-22h-20v-22h-44v-22h-42v-18h-130v-24h-172v24h-150v18 h-42v22h-44v22h-22v22h-22v22h-20v20h-22v22h-20v44h-24v42h-18v22h-24v106h-20zM492 380h20v-44h24v-44h18v-18h24v-24h20v-20h66v-24h62v-18h24v18h62v24h42v20h44v24h24v18h18v44h24v24h20v170h-20v44h-24v44h-18v18h-24v24h-44v20h-42v20h-44v22h-42v-22h-86v-20h-42 v-20h-20v-24h-24v-18h-18v-44h-24v-44h-20v-150zM536 1132h18v-44h24v-20h20v-20h24v-24h18v-20h44v-24h64v-18h20v18h44v24h42v20h44v44h24v42h18v64h24v2h-24v86h-18v20h-24v42h-20v22h-42v22h-44v22h-84v-22h-44v-22h-42v-22h-24v-18h-20v-24h-24v-62h-18v-88z" />
<glyph unicode="9" d="M266 896v300h24v66h20v64h20v44h24v20h18v44h24v20h44v24h20v18h42v24h44v20h106v24h194v-24h68v-20h62v-24h42v-18h22v-24h44v-20h22v-44h20v-20h22v-44h22v-42h22v-44h20v-108h22v-452h-22v-86h-20v-86h-22v-88h-22v-42h-22v-42h-20v-20h-22v-44h-22v-22h-22v-42h-22 v-22h-18v-22h-24v-22h-20v-20h-24v-22h-18v-22h-44v-22h-42v-22h-44v-18h-44v-24h-64v-20h-86v-24h-108v24h-86v44h-24v84h24v44h44v20h86v24h62v18h64v24h44v20h44v42h22v24h42v20h22v24h22v42h20v42h22v42h22v44h22v44h20v20h-40v-20h-44v-24h-302v24h-66v20h-42v24h-20 v18h-24v24h-20v20h-24v20h-18v44h-24v44h-20v42h-20v66h-24zM504 1004h22v-86h22v-24h20v-42h22v-20h22v-24h42v-20h44v-24h84v24h44v20h22v24h20v20h44v42h22v24h20v20h20v214h-20v44h-20v42h-22v44h-22v24h-22v18h-42v22h-64v22h-22v-22h-42v-22h-44v-18h-42v-24h-22v-20 h-22v-42h-20v-24h-22v-130h-22v-62z" />
<glyph unicode=":" d="M578 46v86h20v44h24v42h40v22h130v-22h62v-20h44v-44h24v-150h-24v-22h-20v-22h-24v-20h-214v20h-18v22h-24v64h-20zM578 648v86h20v64h24v22h18v22h196v-22h18v-22h44v-64h24v-86h-24v-64h-20v-22h-42v-22h-196v22h-18v22h-24v64h-20z" />
<glyph unicode=";" d="M544 628v64q-12 42 20 52v10q-10 20 -3 33t19 17q4 28 34 26q0 20 26 20q4 4 8 6t8 6v28h92q22 10 35 2t17 -22h14q24 0 39 -3t17 -19q10 -6 10 -26l20 -18q2 6 16 10v-174q10 -22 4 -32t-20 -16q0 -26 -24 -28q-2 -14 -16 -18q-2 -10 -18 -16v-26h-74q-4 -18 -20 -18 h-38h-4q-24 -4 -37 -3t-15 17q-30 -2 -34 26q-18 6 -22 20q-22 10 -20 46q-8 6 -10 15t-4 21v28q-8 -18 -12 -23t-8 -5zM577 -199q9 9 25 11q8 14 20 18l8 12t10 10q0 14 5 23t23 5l10 10q0 -6 2 -12q2 2 2 6q0 6 2 8q4 4 10 4q-8 0 -10 -2q0 12 2 23t12 19q-6 0 -10 10 q-20 0 -27 4t-5 20q-22 4 -22 20h-14v66q-8 4 -18 14q-16 26 -5 40t23 20v34q-2 22 4 38t22 20q10 26 38 20v22h64q20 10 34 1t20 -25h18q16 0 34 -1t20 -23l8 -8l2 -8q-4 0 -6 -2h6l8 -16q0 14 -4 16q18 -4 24 -18t4 -30l4 -2q4 12 14 16v-102q12 18 17 23t7 5v-132 q10 -22 3 -34t-23 -18q-4 -10 -9 -13t-13 -7q2 -2 2 -4q0 -28 -26 -38q-2 -20 -16 -26q10 -24 1 -33t-29 -11q-4 -14 -20 -20q-4 -32 -38 -24q14 -8 14 -18q-8 0 -12 3t-8 19q8 -36 -1 -42t-27 -4q-12 -18 -36 -20q-4 -20 -19 -24t-31 0q-2 -2 -6 -2q-2 0 -4 -2q-2 0 -4 2 q-2 0 -4 1t-4 1q-16 -4 -28 1t-18 23h-24v94q-10 30 -1 39zM580 592q0 -10 22 -8v2q-14 0 -22 6zM598 -304q-8 -14 2 -20q-2 4 -2 20zM604 586l2 -2l4 2h-6zM620 60v26q-10 -18 0 -26zM664 504q6 -4 12 0h-12zM678 -110l6 4v-2zM686 240h4h-4zM720 -328q2 4 2 10 q2 -6 -2 -10zM744 504q10 -4 18 0l4 2q2 0 2 1t2 1q-20 -4 -26 -4zM758 -310q12 2 4 26q2 -8 2 -18zM764 542q6 -22 6 -34q6 8 -6 34zM770 506l12 6l-12 -4v-2zM816 526q14 -8 20 2q-6 -2 -20 -2zM822 548l18 -10q16 0 18 8q-8 -4 -18 -2v-2l-2 2q-4 0 -16 4zM828 -242 q4 4 3 5t-1 5q0 -6 -2 -10zM848 850h10h-10zM858 222l12 -4q-4 4 -12 4zM866 828l12 -6q0 6 -12 6zM872 198q2 4 2 12q0 -4 -1 -7t-1 -5zM874 -160q4 0 7 -1t7 3q-4 0 -7 -1t-7 -1zM876 794q6 20 4 26zM884 198v2q4 0 4 -2h-4z" />
<glyph unicode="&#x3c;" d="M416 534l6 14l-4 2v132l4 2l-6 18l486 360l12 -34q12 4 23 7t19 7l24 -10l10 12l94 -160l-16 -8l6 -18l-12 -8l8 -18l-152 -88l-10 12l-166 -138q46 -40 81 -71t85 -71q2 4 6 9t4 7l152 -88l-8 -20l12 -8l-6 -18l16 -8l-94 -158l-10 10l-20 -28l-50 26q-4 -10 -6 -18 t-2 -10z" />
<glyph unicode="=" d="M168 500v108h22v22h22v22h234v22h110v-22h752v-44h22v-128h-22v-24h-580v-20h-196v20h-320v24h-22v20h-22zM168 822v108h22v24h22v20h130v22h150v-22h300v22h196v-22h320v-20h22v-132h-22v-42h-130v-22h-88v22h-20v-22h-170v22h-24v-22h-642v22h-44v42h-22z" />
<glyph unicode="&#x3e;" d="M416 350l18 8l-8 18l12 8l-6 20l150 88l10 -16q44 38 80 70t86 72q-46 38 -81 69t-85 71q-2 -4 -6 -8t-4 -6l-150 88l6 18l-12 8l8 18l-18 8l94 160l10 -12l18 28l52 -24q10 24 10 26l484 -360l-6 -18l4 -2v-132l-4 -2l6 -14l-484 -362l-14 32l-42 -10l-24 8l-10 -10z " />
<glyph unicode="?" d="M352 1062v218h24v20h20v44h22v44h22v22h22v40h44v24h42v18h20v24h64v20h238v-20h86v-24h20v-18h42v-24h24v-20h20v-20h24v-22h20v-22h24v-66h18v-238h-18v-62h-24v-44h-20v-42h-24v-22h-20v-22h-24v-20h-18v-22h-24v-22h-20v-22h-20v-44h-22v-20h-22v-20h-22v-42h-20v-44 h-22v-154h-22v-18h-174v18h-20v196h20v66h22v42h20v22h24v42h20v44h44v44h22v18h20v24h24v44h20v42h22v44h20v104h-20v66h-22v44h-44v20h-128v-20h-22v-24h-20v-44h-22v-172h-22v-18h-20v-22h-174v22h-20v18h-24zM568 56v214h20v20h24v42h42v24h44v20h130v-20h42v-24h44v-42 h22v-44h20v-128h-20v-44h-22v-42h-44v-20h-258v20h-24v24h-20z" />
<glyph unicode="@" d="M114 418v496h24v86h18v86h24v44h20v62h24v44h18v42h24v24h20v20h24v42h20v24h24v20h18v24h24v20h20v20h42v22h22v22h42v22h66v20h86v22h150v-22h194v-20h64v-22h44v-22h18v-22h24v-20h44v-20h20v-24h24v-44h18v-18h24v-68h20v-62h24v-130h18v-84h-18v-110h-24v-106h-20 v-66h-24v-108h-18v-108h18v-40h44v-22h42v-22h24v-150h-42v-24h-174v24h-44v20h-42v-20h-64v-24h-22v-20h-238v20h-62v24h-44v20h-20v24h-22v18h-22v24h-22v20h-22v42h-22v108h-20v132h20v106h22v86h22v42h22v44h22v22h22v20h20v22h22v22h22v22h62v22h66v20h194v-20h86v-22 h20v150h-22v42h-22v22h-20v22h-20v20h-24v22h-42v22h-62v22h-68v22h-104v-22h-86v-22h-44v-22h-42v-22h-24v-20h-20v-22h-24v-22h-18v-22h-22v-20h-22v-44h-20v-44h-22v-42h-22v-44h-22v-42h-22v-86h-22v-258h-20v-86h20v-128h22v-86h22v-86h22v-44h22v-42h22v-20h20v-44h22 v-24h22v-18h18v-24h24v-20h20v-24h42v-18h24v-24h20v-20h44v-24h42v-20h68v-24h472v-146h-24v-24h-88v-20h-168v-24h-108v24h-130v20h-86v24h-64v18h-44v24h-22v20h-42v20h-22v22h-42v22h-20v22h-24v22h-18v22h-24v20h-20v22h-24v22h-20v42h-24v22h-18v44h-24v64h-20v44h-24 v106h-18v128h-24zM698 590h18v-62h24v-44h20v-20h24v-22h18v-22h128v22h44v22h42v40h24v24h20v106h20v170h-20v24h-20v20h-24v24h-18v20h-132v-20h-20v-24h-44v-20h-18v-24h-24v-18h-20v-44h-24v-64h-18v-88z" />
<glyph unicode="A" d="M52 24v152h22v20h42v24h42v18h22v24h22v62h22v24h20v64h22v64h22v64h22v44h22v44h22v42h20v86h22v42h22v42h22v68h20v42h20v64h24v86h18v64h24v64h20v44h24v86h20v86h42v22h24v22h128v-22h22v-22h22v-42h18v-66h24v-42h20v-66h24v-64h20v-64h24v-64h18v-66h24v-62h20v-68 h24v-42h18v-42h24v-42h20v-86h24v-44h18v-44h22v-86h22v-42h22v-64h22v-42h20v-44h22v-42h44v-24h64v-20h42v-152h-20v-20h-516v20h-66v128h22v24h86v20h64v86h-20v66h-22v42h-22v20h-22v24h-298v18h-88v-18h-42v-24h-22v-84h-22v-66h-22v-22h22v-18h22v-24h128v-20h22v-128 h-22v-24h-236v-20h-280v20h-42zM568 648h20v-20h258v20h44v2h-22v42h-22v84h-22v66h-22v64h-20v44h-20v64h-24v42h-18v22h-2v-42h-20v-66h-22v-42h-22v-86h-22v-44h-22v-64h-22v-42h-20v-44z" />
<glyph unicode="B" d="M192 24v128h24v24h42v20h62v24h24v18h20v324h24v88h-24v578h-44v24h-104v20h-24v150h24v22h686v-22h108v-20h42v-22h22v-22h44v-42h18v-22h24v-44h20v-108h24v-86h-24v-86h-20v-42h-24v-44h-18v-22h-22v-20h-22v-22h-22v-42h66v-22h18v-22h44v-20h24v-22h18v-22h24v-42 h20v-22h24v-66h18v-258h-18v-42h-24v-44h-20v-42h-24v-22h-18v-22h-24v-22h-44v-22h-18v-18h-44v-24h-44v-20h-86v-24h-108v24h-172v-24h-192v24h-256v20h-24zM602 220h20v-24h66v-20h148v20h42v24h44v18h24v24h42v44h20v42h24v44h20v42h-20v62h-24v44h-20v24h-24v18h-18v24 h-24v20h-44v24h-42v18h-86v24h-128v-24h-20v-448zM602 908h20v-44h86v20h66v24h42v20h20v22h42v20h24v44h20v42h24v66h-24v64h-20v22h-24v20h-42v24h-86v20h-86v-20h-42v-44h-20v-300z" />
<glyph unicode="C" d="M200 520v364h24v86h18v66h24v64h20v42h24v44h20v22h24v42h18v22h24v22h20v22h24v20h18v22h22v22h42v22h22v20h44v22h64v22h302v-22h108v-22h194v-20h18v-44h24v-106h-24v-152h24v-108h-24v-22h-18v-20h-154v20h-18v44h-24v108h-20v42h-24v22h-18v22h-24v20h-44v24h-190 v-24h-42v-20h-44v-22h-24v-22h-20v-22h-24v-42h-18v-22h-24v-42h-20v-66h-20v-86h-22v-366h22v-82h20v-68h20v-20h24v-42h18v-24h24v-20h20v-24h44v-18h42v-24h44v-20h128v20h42v24h44v18h24v24h18v44h24v18h20v88h24v64h18v22h22v20h132v-20h42v-344h-24v-22h-18v-22h-24 v-22h-44v-22h-20v-18h-42v-24h-44v-20h-86v-24h-86v-18h-192v18h-108v24h-66v20h-42v24h-44v18h-18v22h-24v22h-20v22h-24v22h-18v42h-24v22h-20v22h-24v64h-20v44h-24v62h-18v110h-24z" />
<glyph unicode="D" d="M136 1272v130h22v20h22v22h216v-22h172v22h108v-22h214v-20h64v-22h44v-22h42v-22h44v-20h22v-22h18v-22h24v-22h20v-22h24v-20h18v-22h24v-44h20v-22h24v-40h18v-66h24v-86h20v-106h24v-258h-24v-130h-20v-64h-24v-66h-18v-44h-24v-42h-20v-22h-24v-22h-18v-20h-24v-44 h-44v-22h-18v-22h-22v-18h-44v-24h-22v-20h-128v-24h-688v24h-22v20h-22v128h44v24h64v20h42v24h22v816h22v42h-22v130h-22v20h-64v24h-86v20h-22zM546 518h20v-298h22v-24h64v-20h66v20h62v24h68v18h42v24h44v44h18v18h24v24h20v44h24v44h20v62h20v64h22v130h22v20h-22v150 h-22v66h-20v64h-20v22h-24v42h-20v22h-24v44h-42v20h-20v22h-24v22h-18v22h-86v20h-152v-20h-22v-22h-22v-666h-20v-2z" />
<glyph unicode="E" d="M168 1294v128h20v22h1074v-22h24v-64h20v-150h-20v-108h-24v-64h-18v-22h-154v42h-22v108h-20v44h-44v20h-128v24h-258v-24h-20v-344h20v-20h170v44h24v42h20v64h24v22h108v-22h20v-44h22v-86h-22v-388h-128v24h-24v44h-20v42h-24v44h-18v18h-64v24h-88v-42h-20v-24h-24 v-364h24v-42h20v-24h324v24h86v18h40v24h22v44h22v86h22v62h22v22h130v-22h20v-42h24v-364h-24v-24h-20v-20h-42v-24h-110v24h-904v20h-18v24h-24v104h24v24h42v20h64v24h24v18h18v990h-42v24h-106v20h-24v22h-20z" />
<glyph unicode="F" d="M148 1316v86h22v42h216v22h106v-22h366v22h430v-22h42v-42h22v-260h-22v-150h-22v-22h-128v22h-24v22h-18v150h-24v22h-20v22h-64v20h-86v24h-216v20h-64v-20h-42v-388h42v-24h86v24h86v86h22v64h42v22h86v-22h24v-20h18v-518h-42v-24h-86v24h-22v20h-20v68h-22v62h-22 v24h-86v18h-64v-18h-20v-24h-22v-130h-22v-42h22v-192h22v-24h20v-18h66v-24h126v-20h24v-128h-24v-24h-18v-20h-604v20h-42v152h22v20h42v24h108v42h22v344h20v20h-20v238h20v42h-20v322h-22v24h-150v20h-44v44h-22z" />
<glyph unicode="G" d="M148 564v276h22v130h22v110h22v40h20v44h22v44h22v42h22v22h20v22h22v22h22v20h18v22h44v22h24v22h44v20h42v22h62v22h344v-22h110v-22h192v-20h22v-44h22v-150h-22v-216h-22v-42h-42v-22h-88v22h-44v42h-18v108h-24v42h-20v44h-22v22h-22v20h-42v24h-44v20h-148v-20h-44 v-24h-64v-20h-22v-22h-22v-22h-20v-22h-22v-20h-22v-44h-22v-42h-22v-44h-22v-42h-20v-108h-20v-258h20v-108h20v-64h22v-20h22v-44h22v-42h22v-24h42v-20h22v-24h22v-18h64v-24h44v-20h128v20h42v24h44v18h42v24h22v148h-22v24h-22v18h-172v24h-20v152h42v20h516v-20h22 v-152h-22v-24h-42v-18h-44v-324h-22v-22h-106v-22h-44v-18h-44v-24h-42v-20h-62v-24h-68v-18h-172v18h-128v24h-44v20h-62v24h-44v18h-24v22h-18v22h-22v22h-22v22h-20v20h-22v44h-22v42h-22v22h-20v44h-22v84h-22v154h-22z" />
<glyph unicode="H" d="M114 1252v128h24v22h20v20h412v-20h62v-22h24v-152h-68v-20h-42v-216h-20v-128h20v-24h24v-18h362v18h42v368h-86v20h-86v44h-18v86h18v44h68v20h234v-20h214v-22h24v-152h-66v-20h-44v-44h-18v-968h18v-20h86v-24h44v-20h22v-152h-66v-18h-362v18h-68v24h-18v128h18v20 h44v24h24v20h18v366h22v2h-22v42h-364v20h-22v-20h-42v-42h-20v-368h20v-20h42v-24h86v-20h24v-152h-86v-18h-388v18h-42v44h-24v88h24v40h42v24h64v1032h-44v20h-106v24h-24z" />
<glyph unicode="I" d="M244 1272v130h22v42h646v22h84v-22h150v-22h22v-20h22v-86h-22v-64h-108v-24h-194v-20h-18v-970h18v-18h44v-24h302v-20h22v-24h22v-128h-44v-20h-862v20h-18v24h-22v128h22v20h42v24h216v42h20v858h24v22h-24v66h-20v20h-172v24h-152v20h-22z" />
<glyph unicode="J" d="M168 196v216h20v24h66v18h86v-18h44v-24h22v-44h20v-44h20v-42h24v-20h18v-24h24v-18h44v-24h214v24h42v18h20v24h24v44h20v902h-44v20h-62v24h-172v20h-22v130h22v42h688v-22h20v-20h24v-86h-24v-44h-20v-20h-42v-24h-88v24h-24v-24h-18v-20h-24v-194h24v-774h-24v-66 h-20v-64h-20v-22h-22v-22h-22v-18h-22v-24h-42v-20h-88v-24h-86v-18h-84v18h-194v24h-86v20h-62v24h-44v18h-68v22h-18v22h-24v86h-20z" />
<glyph unicode="K" d="M74 1316v86h18v42h68v22h86v-22h44v22h84v-22h236v-22h24v-128h-24v-22h-86v-20h-20v-44h-24v-66h24v-214h-24v-20h24v-44h42v20h22v24h20v20h22v22h22v20h18v24h24v20h20v22h24v20h20v44h24v20h18v44h24v22h20v22h24v44h-44v20h-42v150h18v22h68v22h84v-22h64v22h214 v-22h68v-42h18v-108h-18v-22h-24v-20h-62v-24h-44v-20h-24v-22h-18v-22h-24v-22h-20v-20h-24v-22h-20v-44h-20v-20h-22v-22h-22v-22h-22v-22h-20v-20h-22v-22h-22v-22h-22v-44h-20v-20h-22v-22h-22v-22h-44v-20h22v-22h22v-42h22v-22h22v-22h20v-22h22v-20h22v-22h22v-22h20 v-22h22v-44h22v-20h22v-22h20v-40h20v-24h24v-20h20v-24h24v-20h18v-24h24v-42h20v-20h24v-24h18v-18h86v-24h88v-20h20v-24h22v-128h-22v-20h-42v-24h-108v24h-194v20h-42v24h-22v18h-22v22h-22v44h-18v22h-24v42h-20v22h-24v42h-18v22h-24v22h-20v22h-24v22h-18v42h-24v20 h-20v24h-24v42h-20v20h-24v24h-18v20h-22v24h-22v18h-20v24h-64v-368h20v-18h42v-24h86v-20h24v-24h20v-128h-44v-20h-492v20h-24v42h-20v86h20v24h24v20h44v24h42v18h20v990h-20v24h-130v20h-24v44h-18z" />
<glyph unicode="L" d="M114 1272v172h44v22h624v-22h44v-42h18v-86h-18v-22h-24v-22h-44v-20h-106v-24h-20v-20h-22v-44h22v-280h-22v-622h22v-42h42v-24h172v24h170v18h66v24h44v106h18v130h24v20h172v-20h22v-302h22v-130h-22v-62h-44v-24h-216v24h-880v20h-42v42h-22v86h22v24h22v20h20v24 h130v18h18v904h24v66h-24v20h-18v24h-194v20h-44z" />
<glyph unicode="M" d="M18 1358v86h24v22h44v22h280v-22h64v-22h18v-22h24v-42h20v-44h24v-42h20v-66h24v-42h18v-44h24v-42h20v-44h24v-42h18v-44h24v-42h20v-64h20v-24h46v24h18v64h24v42h20v66h24v44h18v40h24v44h20v64h24v66h18v64h22v22h22v42h22v44h408v-22h44v-172h-108v-20h-84v-454 h-24v-128h24v-236h-24v-42h24v-130h18v-24h66v-18h64v-24h22v-20h22v-128h-22v-24h-86v-20h-130v20h-322v24h-20v18h-24v86h24v44h20v24h64v18h44v24h22v430h20v236h-20v86h-2v-44h-20v-42h-20v-44h-22v-22h-22v-64h-22v-64h-20v-22h-22v-44h-22v-42h-22v-44h-20v-18h-22 v-44h-22v-24h-108v24h-24v20h-18v24h-22v42h-22v20h-20v66h-22v42h-22v42h-22v44h-20v42h-22v44h-22v44h-22v42h-22v-194h-20v-192h20v-258h24v-66h18v-20h24v-24h88v-18h42v-68h20v-86h-20v-18h-24v-24h-492v24h-24v148h24v24h18v18h44v24h24v20h20v346h24v624h-24v20h-44 v22h-106v64h-24z" />
<glyph unicode="N" d="M126 66v86h22v24h22v20h22v24h22v18h20v24h44v966h-22v24h-108v20h-22v172h22v22h194v-22h194v-22h22v-42h20v-44h22v-42h22v-22h22v-64h20v-44h20v-22h24v-42h18v-44h24v-42h20v-44h24v-20h20v-22h24v-44h18v-44h24v-42h20v-20h24v-44h18v-20h24v-44h20v-42h20v-22h22 v-22h22v-44h2v452h-24v172h-20v44h-24v20h-84v24h-42v20h-44v150h22v22h516v-22h20v-150h-20v-20h-44v-24h-42v-106h-22v-2h22v-170h-22v-366h22v-560h-22v-20h-42v-24h-132v24h-18v20h-24v24h-20v40h-24v44h-20v42h-24v44h-18v42h-22v44h-22v66h-20v20h-22v62h-22v24h-22 v44h-20v20h-22v42h-22v44h-22v42h-22v24h-22v42h-20v42h-22v44h-22v22h-18v42h-24v44h-20v42h-24v22h-18v44h-2v-22h-22v-516h22v-192h22v-44h22v-24h64v-18h84v-24h24v-20h18v-152h-126v-20h-408v20h-44v42h-22z" />
<glyph unicode="O" d="M160 496v432h20v152h24v40h18v66h24v22h20v64h24v22h18v22h22v42h42v22h22v22h44v20h22v22h42v22h86v22h62v22h132v-22h130v-22h86v-22h40v-22h24v-20h20v-22h42v-22h24v-42h20v-22h24v-22h18v-22h24v-42h20v-66h24v-42h18v-86h24v-106h20v-326h-20v-106h-24v-106h-18 v-44h-24v-44h-20v-42h-24v-44h-18v-22h-44v-20h-24v-22h-18v-22h-24v-22h-20v-22h-44v-18h-42v-24h-130v-20h-258v20h-86v24h-42v18h-44v22h-44v22h-20v22h-22v42h-22v22h-18v22h-24v42h-20v22h-24v66h-18v62h-24v86h-20zM418 584h18v-86h24v-62h20v-44h24v-44h20v-24h24 v-18h18v-24h24v-20h44v-24h42v-18h148v18h42v24h44v20h24v24h18v42h22v20h22v44h22v42h22v86h20v152h22v128h-22v130h-20v86h-22v20h-22v44h-22v42h-22v44h-18v22h-44v20h-42v24h-44v20h-66v22h-22v-22h-64v-20h-62v-24h-24v-20h-18v-22h-24v-44h-20v-42h-24v-44h-20v-64 h-24v-86h-18v-322z" />
<glyph unicode="P" d="M160 1310v132h22v22h22v22h824v-22h110v-22h24v-22h44v-20h22v-26h22v-20h22v-44h24v-26h22v-44h22v-330h-22v-46h-22v-44h-24v-46h-22v-22h-22v-22h-22v-24h-44v-22h-44v-20h-44v-24h-90v-20h-68v-26h-268v-64h-20v-270h20v-46h44v-22h156v-22h46v-24h22v-130h-22v-22 h-68v-24h-220v24h-4v-24h-374v24h-24v152h24v24h22v22h110v22h24v22h20v984h-20v46h-44v22h-46v-22h-112v44h-22zM648 816h24v-20h156v20h90v24h44v20h46v46h22v22h22v46h22v134h-22v46h-22v22h-22v22h-20v22h-26v24h-44v22h-46v22h-24v-22h-86v22h-90v-22h-24v-450z" />
<glyph unicode="Q" d="M138 506v490h22v90h22v64h24v44h22v26h22v44h22v20h20v26h26v20h20v24h24v20h20v26h24v20h20v22h70v22h90v22h264v-22h112v-22h44v-22h46v-20h20v-26h24v-20h44v-24h20v-46h26v-20h20v-44h24v-46h20v-44h26v-66h20v-68h24v-466h-24v-114h-20v-66h-26v-44h-20v-46h-24v-22 h-20v-22h-26v-46h-20v-20h-24v-24h-44v-20h-20v-46h-46v-24h-22v-2h22v-20h20v-24h26v-20h20v-24h24v-46h20v-20h24v-24h20v-20h26v-26h20v-20h4v20h110v-20h42v-176h-42v-24h-70v-20h-44v-24h-46v-22h-130v22h-22v44h-22v44h-24v46h-22v22h-20v44h-24v24h-20v44h-26v46h-44 v44h-44v44h-44v22h-44v24h-158v22h-44v20h-20v24h-46v20h-24v26h-44v20h-20v44h-26v24h-20v22h-22v44h-22v46h-22v44h-24v66h-22v90h-22zM382 548h22v-88h22v-46h22v-44h22v-46h22v-20h24v-24h22v-20h22v-24h22v-22h46v-22h64v-22h94v22h64v22h26v22h20v24h44v44h22v20h24 v46h22v66h22v90h22v46h22v312h-22v70h-22v66h-22v66h-22v44h-24v24h-22v44h-44v22h-66v24h-44v22h-24v22h-90v-22h-44v-22h-46v-24h-44v-22h-22v-22h-24v-46h-22v-22h-22v-66h-22v-42h-22v-90h-22v-362z" />
<glyph unicode="R" d="M72 1310v132h20v22h24v22h310v-22h134v22h156v-22h224v-22h64v-22h22v-20h24v-26h22v-20h22v-24h22v-20h24v-46h20v-90h24v-220h-24v-70h-20v-44h-24v-20h-22v-46h-44v-22h-24v-22h-44v-24h-42v-22h-44v-20h-26v-4h46v-22h24v-22h20v-22h22v-22h22v-24h22v-44h24v-22h22 v-22h22v-46h22v-44h24v-20h20v-46h24v-44h20v-46h46v-22h44v-22h112v-24h22v-130h-22v-46h-356v24h-20v22h-24v20h-20v44h-26v26h-20v44h-24v20h-20v46h-22v44h-22v46h-22v44h-24v46h-22v44h-22v44h-46v22h-22v44h-22v24h-22v20h-46v26h-22v20h-68v-20h-22v-406h22v-22h46 v-22h130v-24h46v-130h-20v-22h-580v22h-20v130h20v24h26v22h64v22h44v1030h-22v22h-86v22h-70v22h-20zM492 860h22v-20h248v20h44v24h24v22h22v22h22v22h22v68h20v90h-20v68h-22v22h-22v22h-46v24h-22v22h-90v22h-158v-22h-22v-46h-22v-360z" />
<glyph unicode="S" d="M226 36v378h22v46h22v22h154v-46h22v-66h24v-66h22v-44h22v-24h22v-22h46v-22h44v-22h204v22h44v22h44v22h20v24h22v20h24v24h22v90h22v2h-22v64h-22v46h-24v24h-22v20h-20v24h-44v20h-68v26h-66v20h-68v24h-112v20h-64v22h-46v24h-24v22h-46v22h-44v22h-20v44h-26v24 h-20v46h-22v64h-22v156h22v90h22v44h20v46h26v44h20v20h44v26h26v20h20v22h44v22h70v22h64v24h378v-24h202v-22h20v-64h26v-314h-26v-44h-20v-22h-44v-20h-90v20h-44v44h-22v112h-24v22h-22v46h-44v22h-20v22h-90v22h-114v-22h-66v-22h-22v-22h-22v-24h-24v-22h-22v-44h-22 v-90h22v-46h22v-44h24v-24h22v-22h66v-22h68v-22h44v-24h90v-20h110v-24h44v-20h46v-26h44v-20h20v-22h26v-22h20v-22h24v-24h20v-22h26v-66h20v-68h24v-198h-24v-68h-20v-44h-26v-44h-20v-24h-24v-20h-20v-26h-26v-20h-20v-24h-44v-20h-46v-22h-66v-24h-442v24h-50v-24 h-156v24h-42v42h-22z" />
<glyph unicode="T" d="M126 1154v156h22v132h24v22h1154v-22h26v-42h20v-400h-20v-46h-176v46h-26v198h-20v22h-24v24h-64v22h-92v-22h-68v-24h-22v-360h22v-108h-22v-46h22v-112h-22v-180h22v-200h46v-22h64v-22h158v-24h22v-22h22v-108h-22v-46h-112v-22h-88v22h-602v176h22v24h68v22h90v22 h68v22h20v984h-20v24h-90v22h-26v-22h-66v-24h-24v-22h-20v-22h-24v-134h-20v-88h-46v-24h-130v44h-24v180h-22z" />
<glyph unicode="U" d="M106 1310v154h44v22h288v-22h68v22h88v-22h68v-22h20v-86h-20v-46h-22v-22h-90v-22h-22v-68h-22v-402h22v-492h22v-24h22v-20h22v-24h22v-22h46v-22h42v-22h116v22h90v22h42v22h22v24h22v20h24v44h22v874h-22v68h-46v22h-64v22h-24v24h-22v108h22v22h488v-22h20v-154h-42 v-22h-66v-46h-22v-90h-24v-870h-20v-66h-24v-44h-20v-44h-26v-26h-20v-20h-44v-24h-26v-20h-64v-22h-44v-24h-422v24h-44v22h-44v20h-46v24h-24v20h-20v46h-26v44h-20v68h-24v1006h-20v22h-22v22h-90v22h-44z" />
<glyph unicode="V" d="M82 1334v130h20v22h200v24h244v-24h114v-44h22v-86h-22v-46h-114v-22h-44v-114h22v-68h22v-88h24v-68h22v-66h22v-44h22v-90h24v-66h22v-90h20v-46h24v-66h20v-68h24v-64h24v44h22v66h24v66h22v90h22v44h22v90h24v90h20v88h22v68h22v90h22v108h24v72h-24v22h-110v22h-22 v154h22v22h488v-22h22v-176h-22v-22h-44v-22h-46v-46h-20v-68h-24v-66h-20v-64h-26v-70h-20v-66h-24v-68h-20v-66h-24v-66h-20v-90h-26v-68h-20v-66h-24v-70h-20v-86h-22v-68h-24v-66h-22v-70h-22v-44h-20v-20h-26v-22h-20v-24h-178v24h-22v42h-22v70h-22v44h-20v66h-26v44 h-20v90h-24v46h-20v64h-26v70h-20v64h-24v70h-20v42h-26v68h-20v66h-24v70h-20v64h-24v68h-20v66h-22v68h-24v44h-20v24h-24v22h-46v22h-20v22h-24v24h-20z" />
<glyph unicode="W" d="M-18 1288v176h64v22h400v-22h114v-22h22v-132h-112v-22h-68v-182h24v-246h20v-176h24v-202h22v-68h4v46h20v44h24v68h20v66h22v90h22v42h22v46h24v68h22v44h154v-22h24v-22h20v-68h26v-46h20v-64h24v-46h20v-88h22v-46h22v-44h22v-22h4v44h20v202h24v178h22v336h-22v24 h-24v22h-20v22h-114v22h-20v132h20v22h158v22h444v-176h-68v-22h-44v-22h-46v-68h-22v-156h-22v-112h-22v-224h-20v-112h-24v-154h-20v-202h-26v-112h-20v-66h-24v-44h-20v-46h-180v24h-20v22h-24v64h-20v70h-22v44h-22v66h-22v68h-24v68h-22v64h-22v46h-22v24h-4v-46h-20 v-68h-26v-46h-20v-64h-24v-68h-20v-88h-22v-90h-22v-44h-22v-22h-24v-24h-154v24h-22v22h-22v64h-22v114h-24v112h-22v134h-22v200h-22v112h-20v178h-24v156h-20v134h-26v24h-20v22h-44v22h-90z" />
<glyph unicode="X" d="M72 36v156h44v22h90v22h20v24h24v20h20v24h26v46h20v20h24v44h20v46h24v22h22v44h22v22h22v24h24v44h22v22h22v22h22v68h20v22h24v24h-24v66h-20v24h-22v46h-22v20h-22v24h-24v46h-22v20h-22v44h-22v44h-24v22h-20v46h-24v44h-20v24h-26v22h-20v22h-88v22h-46v200h310 v-24h200v-22h22v-22h22v-108h-22v-24h-64v-22h-44v-4h20v-64h24v-26h20v-44h22v-44h22v-20h22v-46h24v-22h22v-44h22v-24h2v24h24v22h20v22h26v46h20v42h24v24h20v64h22v46h22v48h-64v22h-44v154h20v22h334v24h110v-24h64v-22h26v-154h-26v-22h-20v-22h-88v-22h-22v-24h-24 v-22h-22v-22h-22v-46h-22v-22h-24v-44h-20v-22h-24v-42h-20v-26h-26v-44h-20v-20h-24v-46h-20v-24h-22v-44h-22v-46h22v-44h22v-46h20v-22h24v-44h20v-22h26v-24h20v-44h24v-44h20v-24h24v-42h22v-24h22v-46h22v-44h24v-20h22v-46h44v-22h110v-22h24v-46h20v-108h-44v-22 h-466v22h-44v20h-20v156h42v22h44v24h-22v68h-22v22h-22v68h-20v20h-24v24h-20v44h-26v22h-20v24h-24v44h-24v-44h-22v-24h-24v-46h-22v-44h-22v-46h-22v-20h-20v-44h-24v-46h-20v-44h-26v-2h70v-22h64v-156h-22v-20h-42v-22h-468v22h-22v20h-22z" />
<glyph unicode="Y" d="M106 1310v176h44v24h220v-24h2v24h178v-24h112v-44h22v-86h-22v-22h-22v-24h-90v-46h22v-44h22v-46h22v-24h24v-44h22v-20h22v-46h20v-44h22v-46h24v-22h22v-22h22v-46h2v46h24v22h20v22h24v46h22v44h24v46h20v44h24v44h20v20h22v94h-66v22h-44v24h-22v130h22v22h336v24 h130v-24h42v-152h-20v-24h-22v-22h-66v-44h-22v-24h-24v-22h-20v-44h-24v-46h-20v-44h-26v-22h-20v-22h-24v-66h-20v-24h-26v-46h-20v-20h-22v-44h-22v-46h-22v-22h-22v-46h-24v-42h-22v-404h22v-46h202v-22h46v-22h20v-110h-20v-44h-70v-22h-110v22h-90v-22h-244v22h-200 v44h-20v86h20v46h44v22h112v22h22v24h22v360h-22v44h-22v20h-22v68h-22v22h-24v22h-20v44h-24v24h-20v46h-24v44h-20v20h-26v46h-20v44h-24v22h-20v44h-26v24h-20v44h-22v22h-22v46h-22v22h-90v22h-44z" />
<glyph unicode="Z" d="M182 16v220h22v44h24v24h22v20h20v46h24v24h20v42h26v24h20v22h24v44h20v22h24v24h20v44h26v22h20v22h24v46h20v22h26v22h20v46h22v20h22v24h22v44h24v22h22v22h22v46h22v22h22v22h22v46h24v22h20v20h24v44h20v24h26v46h20v44h22v20h22v4h-358v-22h-66v-22h-24v-24h-44 v-66h-22v-68h-22v-44h-176v22h-22v290h22v110h20v22h24v24h288v-24h600v-22h46v-22h24v-176h-24v-46h-20v-22h-26v-44h-20v-24h-24v-22h-20v-22h-24v-44h-20v-22h-26v-20h-20v-46h-24v-24h-20v-20h-22v-46h-24v-24h-22v-44h-22v-22h-22v-22h-24v-46h-20v-22h-24v-20h-20v-44 h-24v-26h-20v-20h-26v-44h-20v-24h-24v-46h-20v-44h-22v-20h-24v-26h-22v-42h-22v-22h-22v-46h-24v-22h-22v-24h22v-22h314v22h134v22h46v24h22v20h22v24h22v46h22v64h22v46h180v-46h20v-220h-20v-134h-26v-66h-20v-24h-244v24h-604v-24h-154v24h-46v22h-22z" />
<glyph unicode="[" d="M432 24v550h22v676h-22v234h16v20l38 2l20 22h26v18h470v-22h24v-20h20v-172h-20v-44h-86v-20h-230v-1060h312v-22h22v-20h22v-172h-22v-44h-86v-20h-446v10h-38v22h-20v62h-22z" />
<glyph unicode="\" d="M340 1424v150h22v24h20v20h152v-20h24v-42h18v-68h22v-42h22v-64h20v-64h22v-64h22v-66h22v-42h20v-66h22v-64h22v-62h22v-68h22v-42h22v-62h20v-88h22v-64h22v-42h18v-44h24v-66h20v-64h24v-62h18v-68h24v-42h20v-44h24v-62h20v-68h24v-62h18v-86h24v-128h-24v-24h-18 v-20h-88v20h-66v24h-22v18h-20v88h-22v86h-22v64h-22v66h-20v86h-20v42h-24v44h-18v84h-24v42h-20v68h-24v62h-20v44h-24v64h-18v66h-24v42h-20v64h-24v66h-18v84h-24v42h-20v44h-20v66h-22v44h-22v62h-22v64h-22v44h-22v44h-20v42h-22z" />
<glyph unicode="]" d="M432 -6v172h20v20h24v22h310v1060h-228v20h-86v44h-22v172h22v20h22v22h470v-18h60l2 -24h22v-20h18v-234h-24v-676h24v-550h-24v-62h-18v-22h-38v-10h-448v20h-86v44h-20z" />
<glyph unicode="^" d="M514 1616l22 22l-12 6l170 290q2 8 2 13v7l14 -8v10l44 -22l44 22v-10l16 8v-22l172 -288l-24 -12l6 -18l-10 -24v-6q0 -2 2 -4l-98 -56l-20 -12l-2 20l-10 -2l-68 116l10 6l-20 32l-18 -32l12 -6l-68 -116l-12 4v-22l-18 12l-100 56l2 10z" />
<glyph unicode="_" d="M40 -376h24v22h42v20h194v-20h772v20h128v-20h2v20h192v-20h42v-44h22v-150h-22v-22h-1158v22h-44v-22h-84v22h-86v20h-24v152z" />
<glyph unicode="`" d="M490 1836l68 120l10 -6l8 12l12 -6l8 18l138 -82l-8 -16l92 -52l8 12l164 -92l-8 -16l26 -16l-10 -18l10 -10l-76 -136l-12 6l-6 -14l-14 6l-6 -16l-382 222l14 24q-16 18 -24 24l-4 30z" />
<glyph unicode="a" d="M190 176v212h22v42h20v44h22v22h20v20h42v22h42v20h42v22h64v20h84v24h126v18h86v-18h42v18h62v22h22v22h22v104h-22v22h-22v22h-18v20h-44v20h-106v-20h-42v-20h-42v-22h-20v-22h-22v-64h-20v-20h-22v-22h-170v22h-20v20h-22v172h22v40h44v22h40v22h42v20h42v20h106v22 h358v-22h42v-20h44v-20h22v-22h20v-22h24v-40h18v-298h-18v-378h16v18h130v-18h18v-22h22v-126h-22v-24h-84v-20h-62v-22h-210v22h-22v20h-84v-20h-86v-22h-356v22h-44v20h-42v24h-42v18h-22v44h-20v40h-22zM422 284h24v-44h40v-18h42v-22h190v22h42v18h42v22h44v22h18v42 h22v106h-22v20h-230v-20h-64v-22h-42v-22h-42v-22h-22v-18h-18v-44h-24v-20z" />
<glyph unicode="b" d="M170 1318v86h22v42h40v20h108v22h62v20h192v-20h20v-42h22v-86h-22v-210h-20v-148h124v20h276v-20h62v-20h44v-22h22v-22h42v-20h20v-20h20v-24h22v-42h20v-20h22v-42h20v-42h22v-128h20v-212h-20v-84h-22v-62h-20v-42h-22v-24h-20v-18h-22v-22h-20v-22h-20v-22h-22v-18 h-42v-24h-20v-20h-66v-22h-62v-22h-338v22h-62v-22h-170v22h-22v488h22v716h-22v42h-20v20h-126v24h-22v20h-22zM594 262h20v-22h22v-18h20v-22h84v-22h106v22h42v22h44v18h18v22h42v44h24v20h20v42h22v44h20v188h-20v42h-22v42h-20v22h-24v20h-20v24h-22v18h-18v22h-66v22 h-168v-22h-42v-22h-42v-42h-20v-464z" />
<glyph unicode="c" d="M232 366v214h20v126h22v42h20v42h24v42h20v22h22v20h18v24h24v20h20v20h18v22h44v22h22v20h62v20h66v22h338v-22h62v-20h42v-20h22v-22h20v-22h20v-20h22v-44h20v-104h24v-106h-24v-42h-20v-22h-168v22h-42v42h-22v126h-20v22h-22v22h-64v20h-106v-20h-40v-22h-44v-22 h-20v-22h-22v-18h-20v-24h-22v-20h-20v-42h-24v-64h-18v-170h18v-62h24v-18h20v-44h22v-22h20v-22h42v-22h44v-18h106v-22h60v22h128v18h42v22h62v22h172v-22h20v-126h-20v-22h-22v-22h-44v-18h-62v-24h-42v-20h-104v-22h-66v-22h-314v22h-86v22h-66v20h-18v24h-20v18h-24 v22h-18v22h-22v22h-20v42h-24v42h-20v62h-22v62h-20z" />
<glyph unicode="d" d="M190 324v318h22v64h22v64h22v42h18v20h22v22h22v20h22v24h18v20h22v20h42v22h42v22h44v20h400v252h-62v20h-108v150h22v22h44v20h104v22h64v20h170v-62h18v-148h-18v-22h18v-126h-18v-866h18v-44h108v-18h42v-148h-22v-24h-84v-20h-62v-22h-192v22h-40v-22h-86v-22h-338 v22h-40v22h-44v20h-22v24h-40v18h-22v22h-22v22h-22v40h-18v24h-22v42h-22v82h-22zM422 474h22v-86h22v-38h20v-24h24v-42h18v-22h22v-22h22v-18h40v-22h210v22h44v18h22v22h20v190h22v232h-22v84h-42v22h-44v22h-62v22h-82v-22h-66v-22h-40v-22h-44v-42h-18v-20h-24v-22 h-20v-42h-22v-64h-22v-104z" />
<glyph unicode="e" d="M222 348v252h20v106h22v42h20v42h24v42h20v22h22v20h20v44h20v20h22v22h42v22h44v20h40v20h44v22h358v-22h42v-20h42v-20h24v-22h38v-22h24v-20h18v-20h22v-44h22v-22h22v-42h20v-62h22v-234h-22v-18h-64v-24h-548v-20h-106v-64h22v-42h20v-20h22v-22h20v-22h42v-22h44 v-18h84v-22h106v22h128v18h62v22h62v22h148v-22h22v-126h-22v-22h-20v-22h-42v-18h-44v-24h-84v-20h-84v-22h-106v-22h-274v22h-86v22h-62v20h-42v24h-22v18h-20v22h-42v22h-20v40h-24v24h-20v42h-22v106h-20zM496 624h276v18h188v22h24v42h-24v20h-20v24h-22v40h-42v22h-20 v22h-66v20h-102v-20h-42v-22h-24v-22h-20v-22h-22v-18h-20v-24h-22v-20h-20v-42h-22v-40z" />
<glyph unicode="f" d="M212 16v130h18v20h44v22h146v20h42v22h24v548h-24v22h-42v20h-146v22h-22v20h-22v86h22v42h44v22h146v18h20v172h24v84h18v42h22v42h22v22h22v22h18v18h44v24h22v20h40v22h84v20h234v-20h232v-22h22v-20h20v-88h-20v-84h-42v-20h-24v-22h-210v22h-104v20h-106v-20h-44 v-22h-18v-20h-22v-42h-22v-150h22v-18h22v-22h272v22h148v-22h44v-148h-22v-22h-62v-20h-86v20h-276v-20h-40v-550h22v-42h18v-20h338v-22h42v-150h-18v-20h-86v-22h-84v22h-698v20h-18z" />
<glyph unicode="g" d="M190 -86h20v62h24v22h18v40h22v22h22v20h22v170h20v42h20v24h22v18h20v22h-20v20h-22v22h-20v44h-20v18h-22v66h-22v254h22v62h22v42h20v22h20v20h42v22h22v20h42v22h62v22h296v-22h64v-22h64v-20h42v-22h254v-20h20v-42h22v-86h-22v-20h-20v-22h-150v-210h-20v-44h-22 v-40h-20v-44h-20v-22h-22v-20h-42v-22h-42v-20h-62v-22h-190v-22h-44v-18h-22v-22h-18v-42h462v-22h126v-20h44v-22h20v-20h22v-24h42v-20h20v-276h-20v-42h-22v-42h-20v-20h-22v-22h-20v-20h-44v-22h-22v-22h-42v-18h-62v-22h-62v-22h-108v-22h-230v22h-192v22h-62v22h-42 v18h-42v22h-22v22h-22v42h-18v20h-24v66h-20v148zM402 -130v-40h18v-44h24v-22h20v-20h42v-22h106v-20h232v20h66v22h60v20h42v22h20v20h24v24h18v18h22v64h-22v22h-18v20h-44v20h-42v22h-464v-22h-20v-20h-22v-20h-20v-22h-24v-42h-18zM486 590h20v-44h22v-22h20v-18h24 v-24h62v-20h124v20h42v24h44v40h22v44h20v102h-20v44h-22v42h-22v22h-40v20h-44v22h-104v-22h-44v-20h-42v-22h-20v-42h-22v-44h-20v-102z" />
<glyph unicode="h" d="M114 1284v108h22v22h44v18h84v24h44v20h80v22h130v-22h20v-20h24v-172h-24v-274h-20v-42h20v-42h44v22h18v20h62v22h44v22h298v-22h62v-22h20v-20h24v-22h18v-20h22v-22h22v-42h22v-62h18v-86h24v-190h-24v-338h128v-20h44v-130h-22v-20h-22v-22h-400v22h-42v150h42v20 h20v22h20v232h22v188h-22v64h-20v44h-20v20h-22v22h-20v20h-42v22h-108v-22h-60v-20h-64v-22h-44v-20h-18v-24h-24v-20h-20v-422h20v-62h42v-22h108v-20h38v-130h-18v-20h-212v-22h-232v22h-40v170h40v22h22v20h22v908h18v2h-18v84h-22v20h-44v20h-84v22h-22v20h-22z" />
<glyph unicode="i" d="M242 44v86h22v40h22v22h212v22h40v18h44v572h-66v22h-82v-22h-148v22h-22v20h-22v126h22v24h168v18h192v22h146v-22h42v-62h24v-126h-24v-594h24v-18h40v-22h336v-22h44v-148h-20v-22h-42v-20h-170v20h-612v-20h-104v20h-44v44h-22zM538 1162v192h22v42h22v20h18v22h44 v20h168v-20h42v-22h22v-20h22v-190h-22v-22h-22v-22h-18v-18h-24v-24h-42v-20h-126v20h-62v24h-22v18h-22z" />
<glyph unicode="j" d="M328 -230h22v42h18v20h24v24h126v-24h42v-20h42v-22h20v-20h44v-24h40v-18h88v18h40v24h22v20h20v22h42v970h-252v22h-64v22h-22v20h-22v88h22v38h44v24h336v18h148v-18h24v-24h18v-568h22v-212h-22v-22h22v-360h-22v-104h-18v-42h-44v-22h-22v-22h-20v-18h-42v-22h-64 v-22h-148v-22h-126v22h-148v22h-84v22h-42v18h-24v22h-18v22h-22v106zM750 1206v106h20v62h24v22h18v20h44v22h210v-22h22v-20h20v-42h24v-86h-24v-62h-20v-22h-22v-22h-20v-18h-22v-24h-44v-20h-124v20h-44v24h-42v62h-20z" />
<glyph unicode="k" d="M106 1310v86h22v20h22v22h104v20h42v24h84v18h126v-18h44v-320h-20v-568h20v22h20v18h22v22h44v22h18v20h22v22h22v20h18v22h24v20h20v24h22v18h20v2h-20v20h-22v126h22v24h444v-24h22v-20h18v-106h-18v-20h-66v-22h-42v-22h-42v-22h-44v-18h-38v-22h-24v-22h-18v-22h-44 v-18h-22v-24h-20v-20h-22v-22h-20v-20h20v-22h22v-42h20v-20h22v-22h22v-44h22v-18h18v-22h24v-22h20v-22h18v-18h24v-22h20v-42h22v-24h42v-18h20v-22h2v22h188v-44h22v-86h-22v-40h-40v-22h-22v-22h-62v-20h-192v20h-42v22h-24v22h-18v22h-20v18h-22v24h-20v20h-22v22h-20 v18h-24v24h-20v42h-22v22h-20v40h-22v22h-20v40h-24v24h-18v20h-22v42h-20v-20h-22v-22h-20v-20h-22v-24h-20v-18h-22v-22h-20v-86h20v-40h22v-22h84v-22h44v-18h18v-108h-18v-22h-296v-20h-150v20h-20v22h-22v108h22v40h42v22h20v358h22v42h-22v214h22v272h-22v170h-146v20 h-22v42h-22z" />
<glyph unicode="l" d="M264 1268v148h20v22h84v20h148v24h108v18h188v-18h22v-170h20v-86h-20v-484h-22v-170h22v-214h-22v-102h22v-42h42v-22h274v-22h42v-22h22v-18h22v-86h-22v-44h-64v-20h-172v20h-290v-20h-150v20h-232v148h22v22h18v22h212v22h22v18h22v64h-22v126h22v826h-22v20h-86v-20 h-210v20h-20z" />
<glyph unicode="m" d="M30 826v108h22v38h62v24h108v18h148v-18h84v18h104v22h86v-22h82v-18h42v-24h88v24h84v18h254v-18h40v-24h22v-20h22v-42h18v-20h22v-66h22v-442h-22v-168h22v-22h42v-22h62v-40h24v-86h-24v-44h-380v22h-20v22h-22v86h22v18h20v22h22v62h20v510h-20v40h-42v44h-106v-22 h-18v-22h-24v-22h-20v-546h20v-22h24v-22h62v-40h22v-86h-22v-44h-360v22h-22v126h22v22h22v22h18v128h22v356h-22v66h-18v18h-22v44h-22v22h-82v-22h-24v-22h-42v-22h-20v-18h-22v-528h22v-22h20v-22h86v-22h22v-18h20v-86h-20v-22h-22v-22h-358v22h-44v148h20v22h24v22h20 v546h-20v22h-128v44h-22z" />
<glyph unicode="n" d="M116 826v126h20v20h42v24h108v18h188v-18h24v-24h18v-38h20v18h24v20h42v24h84v18h64v22h252v-22h24v-18h38v-24h44v-20h22v-18h18v-24h24v-42h20v-62h22v-592h22v-22h106v-22h40v-170h-40v-20h-234v20h-210v44h-22v86h22v18h22v22h18v22h24v22h20v252h18v126h-18v106 h-20v44h-24v18h-18v22h-22v22h-44v22h-82v-22h-44v-22h-62v-22h-42v-18h-64v-44h-22v-190h-22v-170h22v-124h22v-22h106v-22h44v-22h18v-18h22v-86h-22v-22h-18v-22h-466v22h-22v22h-22v86h22v40h22v22h42v22h20v568h-20v22h-150v22h-20z" />
<glyph unicode="o" d="M212 340v338h22v62h18v42h24v42h20v22h22v44h20v20h42v24h20v18h24v20h40v24h44v18h42v22h86v22h210v-22h106v-22h62v-18h62v-24h22v-20h22v-18h18v-24h24v-20h20v-44h22v-22h22v-42h22v-42h18v-106h22v-210h-22v-66h-18v-102h-22v-44h-22v-20h-22v-24h-20v-18h-24v-22 h-18v-20h-44v-24h-22v-18h-18v-22h-44v-22h-40v-22h-88v-20h-272v20h-66v22h-62v22h-40v22h-24v18h-42v24h-20v20h-20v22h-22v42h-20v42h-24v62h-18v44h-22zM444 466h20v-84h24v-22h18v-40h22v-22h22v-22h22v-20h18v-24h24v-18h42v-22h62v-22h64v22h62v22h44v18h40v24h24v20 h20v44h18v40h22v44h22v84h22v42h-22v84h-22v44h-22v18h-18v66h-20v18h-24v22h-18v22h-44v22h-42v20h-190v-20h-44v-22h-18v-22h-22v-22h-22v-18h-22v-44h-18v-64h-24v-82h-20v-86z" />
<glyph unicode="p" d="M190 830v126h22v20h42v22h104v22h42v22h108v-22h42v-22h62v22h62v22h296v-22h42v-22h64v-22h42v-20h22v-20h20v-22h24v-20h18v-22h22v-42h22v-20h22v-66h18v-146h22v-234h-22v-42h-18v-44h-22v-40h-22v-40h-22v-24h-18v-20h-24v-22h-20v-22h-22v-20h-20v-20h-64v-24h-40 v-20h-108v-22h-212v22h-62v-42h-20v-148h20v-84h42v-20h104v-24h24v-124h-44v-22h-442v22h-42v124h20v24h64v20h20v64h20v950h-20v22h-20v20h-126v22h-22zM592 322h20v-62h22v-22h42v-20h44v-22h126v22h40v20h44v22h18v20h22v22h22v40h20v42h22v44h20v190h-20v42h-22v20h-20 v22h-22v20h-22v24h-18v20h-22v22h-22v20h-40v22h-170v-22h-42v-20h-22v-42h-20v-424z" />
<glyph unicode="q" d="M212 364v294h22v86h18v66h24v20h20v42h20v22h22v20h20v22h22v20h20v20h42v22h44v22h84v22h294v-22h66v-22h42v22h18v22h22v18h126v-18h24v-212h-24v-1056h24v-22h42v-20h84v-148h-62v-22h-382v22h-44v40h-18v84h42v24h42v20h22v22h22v20h18v210h-18v22h-108v-22h-188v22 h-64v20h-64v24h-44v20h-42v20h-42v22h-20v22h-22v44h-20v18h-20v44h-24v62h-18v42h-22zM444 470h20v-62h24v-44h18v-42h22v-20h22v-22h22v-20h18v-22h44v-20h84v-22h126v22h44v20h22v22h18v506h-18v22h-22v20h-22v22h-210v-22h-42v-20h-24v-22h-40v-20h-22v-44h-22v-22h-18 v-42h-24v-62h-20v-106z" />
<glyph unicode="r" d="M190 830v146h22v22h124v22h128v22h170v-44h20v-22h22v-62h20v-20h22v20h20v22h22v20h42v20h44v22h40v22h44v22h82v18h128v-18h84v-22h44v-22h18v-22h22v-168h-22v-20h-18v-22h-256v22h-102v-22h-44v-20h-42v-24h-22v-20h-20v-22h-24v-20h-20v-22h-22v-20h-20v-380h20v-20 h22v-22h318v-22h20v-40h22v-88h-22v-20h-20v-22h-740v22h-20v20h-22v128h22v22h104v22h44v20h20v42h22v276h-22v232h-20v20h-148v-20h-84v42h-22z" />
<glyph unicode="s" d="M286 154v188h20v42h22v24h148v-24h22v-20h22v-62h20v-42h22v-22h20v-20h42v-22h42v-22h170v22h40v22h44v20h18v42h22v64h-22v20h-40v22h-62v20h-86v22h-166v20h-66v24h-42v18h-42v22h-22v22h-22v22h-18v40h-24v42h-20v172h20v62h24v22h18v20h22v22h22v20h22v20h20v22h42 v22h42v22h126v18h170v-18h84v-22h172v-22h18v-22h22v-82h20v-172h-20v-62h-40v-22h-88v22h-64v42h-22v44h-18v62h-22v22h-62v20h-170v-20h-42v-22h-20v-20h-22v-42h-20v-2h20v-42h22v-20h20v-24h62v-18h150v-20h126v-22h62v-22h44v-22h44v-18h18v-24h22v-20h20v-22h24v-62 h18v-210h-18v-24h-24v-20h-20v-44h-22v-20h-18v-20h-44v-24h-22v-20h-44v-22h-124v-20h-256v20h-250v22h-24v20h-20v24h-22v84h-20z" />
<glyph unicode="t" d="M252 850v126h20v22h128v22h22v40h20v172h42v22h150v-22h20v-44h22v-84h-22v-62h22v-22h398v22h86v-22h22v-22h22v-148h-44v-20h-526v-170h-22v-422h22v-20h20v-22h22v-22h146v22h150v22h60v20h172v-20h42v-128h-22v-20h-42v-24h-44v-20h-62v-22h-106v-20h-190v-22h-168 v22h-64v20h-40v22h-44v44h-22v20h-20v42h-22v550h22v126h-42v22h-108v20h-20z" />
<glyph unicode="u" d="M116 850v86h20v40h42v22h148v22h172v-22h18v-296h-18v-318h18v-62h22v-20h22v-42h22v-22h42v-20h64v-22h124v22h42v20h62v22h22v20h22v22h22v464h-22v22h-22v20h-104v22h-22v126h22v20h104v22h106v22h128v-22h20v-62h22v-170h-22v-486h22v-20h44v-22h104v-42h20v-106h-20 v-20h-86v-24h-40v-20h-64v-22h-128v22h-44v20h-18v24h-2v-24h-62v-20h-62v-22h-106v-20h-190v20h-64v22h-44v20h-18v24h-22v20h-44v42h-18v22h-24v62h-20v128h-22v84h22v44h-22v82h22v42h-22v148h22v2h-22v42h-22v20h-102v22h-24v20h-20z" />
<glyph unicode="v" d="M108 874v102h24v22h18v22h404v-22h84v-22h20v-126h-64v-20h-22v-64h22v-42h22v-66h22v-38h20v-44h20v-64h22v-42h20v-42h24v-44h18v-42h22v-20h22v-20h20v20h22v62h20v44h24v64h18v44h20v62h24v60h18v44h22v42h22v86h-62v20h-86v42h-20v84h20v22h42v22h336v22h128v-48h16 v-112h-16q2 -16 2 -30v-22h-84v-22h-22v-42h-22v-20h-18v-66h-24v-62h-20v-42h-22v-64h-20v-40h-24v-44h-18v-22h-22v-62h-22v-22h-22v-62h-18v-62h-24v-44h-20v-44h-18v-40h-24v-24h-20v-42h-22v-20h-192v20h-18v22h-24v44h-20v20h-22v64h-20v44h-20v40h-22v40h-20v44h-24 v42h-18v64h-22v20h-22v64h-22v44h-18v62h-24v42h-20v42h-22v64h-20v42h-22v22h-148v20h-18v24h-24z" />
<glyph unicode="w" d="M34 882v114h14v46h466v-22h84v-146h-22v-24h-146v-20h-24v-86h24v-86h20v-82h22v-64h20v-84h22v-44h20v24h20v62h24v84h20v66h18v38h24v66h20v20h42v22h106v-22h22v-20h20v-42h22v-42h20v-64h24v-64h20v-42h22v-62h20v-24h20v86h20v66h24v84h20v82h20v128h-20v20h-148v24 h-20v18h-22v84h22v44h40v22h466v-22h20v-22h22v-22h22v-84h-22v-18h-22v-24h-40v-20h-44v-42h-22v-42h-20v-128h-20v-84h-22v-44h-20v-62h-22v-64h-20v-104h-22v-44h-22v-84h-20v-42h-20v-44h-24v-20h-20v-22h-168v22h-22v44h-20v40h-22v44h-22v62h-22v84h-18v64h-44v-42 h-20v-84h-24v-64h-18v-64h-20v-40h-24v-24h-20v-42h-170v22h-20v20h-22v44h-20v64h-24v62h-18v84h-22v64h-22v64h-20v62h-22v66h-20v82h-22v84h-20v44h-22v42h-42v22h-64v52h-14z" />
<glyph unicode="x" d="M126 846v128h22v20h22v22h380v-22h104v-42h22v-84h-22v-22h-20v-20h-20v-20h-22v-2h42v-42h20v-20h22v-22h20v-20h24v-22h40v22h24v20h18v22h22v20h22v22h22v20h18v2h-18v20h-44v20h-22v22h-18v84h18v22h22v20h444v-20h18v-148h-102v-20h-44v-24h-18v-20h-24v-22h-20v-20 h-44v-22h-22v-42h-18v-20h-24v-42h-20v-24h-18v-20h-24v-40h24v-22h18v-20h20v-24h24v-20h18v-40h44v-24h22v-20h20v-42h24v-20h18v-22h22v-22h22v-22h40v-18h84v-24h22v-20h22v-42h20v-86h-20v-20h-506v20h-22v148h62v44h-18v20h-22v42h-22v20h-22v24h-18v18h-24v22h-20v22 h-20v-22h-24v-40h-20v-24h-42v-42h-20v-20h-22v-20h-20v-44h82v-20h22v-104h-22v-44h-462v20h-22v148h22v24h62v18h62v22h22v22h20v22h24v20h18v20h22v42h22v24h42v40h24v20h18v24h22v20h20v44h-20v38h-22v24h-18v20h-24v22h-20v20h-22v22h-22v20h-22v22h-18v20h-24v22h-20 v20h-22v24h-42v20h-126v20h-22z" />
<glyph unicode="y" d="M150 868v84h22v42h126v22h168v-22h170v-20h42v-128h-22v-20h-62v-20h-22v-22h22v-42h20v-42h22v-42h20v-44h22v-42h22v-42h18v-20h22v-66h22v-42h22v-18h20v18h20v66h22v62h20v42h24v42h20v64h20v64h20v62h22v2h-22v20h-104v20h-22v22h-20v84h20v42h188v22h300v-22h20 v-42h18v-84h-18v-42h-64v-20h-64v-24h-20v-42h-22v-62h-20v-64h-22v-44h-20v-62h-24v-42h-18v-62h-22v-22h-22v-62h-20v-44h-20v-42h-22v-64h-22v-22h-20v-40h-22v-44h-20v-18h-22v-66h-20v-44h-24v-40h-18v-40h-22v-66h-22v-44h-22v-18h-18v-44h-22v-40h-42v-24h-22v-20 h-42v-20h-20v-22h-86v-20h-148v20h-62v22h-22v20h-20v126h20v44h22v22h188v-22h44v22h42v40h20v44h22v20h20v42h22v44h22v40h18v44h22v82h-22v44h-18v42h-22v42h-22v20h-20v42h-22v44h-20v22h-22v42h-20v20h-24v42h-18v62h-22v44h-22v42h-22v42h-18v42h-24v42h-20v24h-20v20 h-126v42h-22z" />
<glyph unicode="z" d="M264 108v86h22v18h20v44h22v22h22v20h18v20h24v22h20v20h22v24h20v18h22v22h20v20h22v24h42v42h20v20h24v22h20v20h18v24h24v18h20v20h22v24h20v20h42v22h24v20h18v22h22v42h20v20h44v22h-316v-20h-42v-44h-22v-42h-20v-64h-42v-20h-106v20h-22v42h-22v86h22v126h22v64 h18v20h24v22h506v-22h104v22h170v-22h20v-20h24v-128h-24v-40h-20v-24h-22v-20h-20v-22h-22v-20h-20v-22h-22v-20h-20v-22h-22v-20h-20v-22h-20v-20h-22v-24h-20v-20h-24v-18h-20v-24h-22v-20h-20v-22h-22v-20h-20v-22h-22v-20h-20v-22h-42v-22h-24v-40h-18v-24h-44v-20h-20 v-22h-22v-20h-20v-20h-22v-20h42v-24h64v24h84v-24h84v24h106v18h42v22h20v22h22v22h20v40h24v42h40v24h108v-24h20v-230h-20v-84h-24v-24h-20v-20h-804v20h-62v24h-20v62h-22z" />
<glyph unicode="{" d="M364 670v106h8l154 106v368h-24v234h18v20h22q2 10 2 15v9h60v18h470v-22h22v-20h22v-172h-22v-44h-86v-20h-228v-484l-118 -52v-26q28 -22 60 -45t58 -43v-410h310v-22h24v-20h20v-172h-20v-44h-86v-20h-448v10h-38v22h-18v62h-24v550h12q-34 22 -72 47t-72 49h-6z" />
<glyph unicode="|" d="M610 24v550h22v676h-22v234h22v22h20v22h172v-22h44v-86h20v-1436h-20v-22h-22v-22h-194v22h-20v62h-22z" />
<glyph unicode="}" d="M364 -6v172h22v20h22v22h312v410l116 88v28l-116 50v484h-230v20h-86v44h-20v172h20v20h24v22h470v-20q16 0 35 -1t29 -1v-20h20v-20h18v-234h-24v-368q36 -28 77 -55t77 -51h6v-106h-6l-142 -96h12v-550h-24v-62h-18v-22h-38v-10h-448v20h-86v44h-22z" />
<glyph unicode="~" d="M310 504v196h20v20h64v24h282v-24h236v24h234v-24h22v-20h22v-172h-22v-42h-86v-24h-728v24h-24v18h-20z" />
<glyph unicode="&#xa0;" />
<glyph unicode="&#xa1;" d="M556 18v106h24v152h18v148h24v172h20v390h24v64h18v20h-18v22h-24v22h-20v20h-24v22h-18v44h-24v84h24v88h18v20h24v22h44v22h62v22h110v-22h42v-22h20v-22h24v-20h18v-238h-18v-20h-24v-22h-20v-22h-42v-44h18v-106h24v-410h20v-170h24v-64h18v-282h-18v-64h-24v-20h-20 v-22h-24v-22h-190v22h-44v22h-24v42h-18v66h-24z" />
<glyph unicode="&#xa2;" d="M244 332v388h22v66h22v42h22v42h22v22h18v44h24v22h20v20h42v22h24v22h20v22h42v22h88v20h42v22h22v40h22v88h20v24h22v18h128v-18h24v-68h20v-84h24v-22h44v-20h82v-22h44v-22h22v-22h20v-22h22v-42h22v-108h22v-86h-22v-64h-22v-22h-130v22h-44v22h-18v20h-22v66h-22 v62h-20v24h-22v20h-192v-20h-44v-24h-22v-20h-44v-24h-20v-18h-22v-44h-22v-22h-22v-64h-20v-192h20v-44h22v-42h22v-22h22v-22h20v-22h22v-22h44v-22h22v-20h256v20h86v22h62v22h44v22h88v-22h44v-152h-22v-20h-22v-24h-44v-18h-42v-22h-66v-22h-82v-22h-68v-22h-44v-20 h-18v-44h-24v-172h-20v-62h-24v-24h-128v24h-18v18h-24v260h-20v42h-68v22h-42v22h-44v22h-18v18h-24v24h-20v20h-24v24h-18v18h-22v44h-22v44h-22v42h-22z" />
<glyph unicode="&#xa6;" d="M610 24v550h22v222l256 -18v-794h-20v-22h-22v-22h-194v22h-20v62h-22zM610 1250v234h22v22h20v22h172v-22h44v-86h20v-590h-256v420h-22z" />
<glyph unicode="&#xa7;" d="M362 102v164h14v34h20v18h132v-18h14v-18h20v-48h14v-34h20v-16h12v-18h34v-16h34v-18h116v18h36v16h34v18h12v32h18v36h-18v18h-30v16h-52v14h-66v18h-130v16h-54v16h-80v16h-18v18h-16v18h-20v66h-12v164h14v50h18v18h16v16h18v18h16v16h18v2h-2v16h-16v18h-16v30h-18 v34h-16v150h16v50h18v16h16v18h16v16h18v14h18v18h12v16h34v18h36v18h98v14h148v-14h66v-18h134v-18h16v-16h16v-66h18v-148h-18v-50h-32v-18h-82v18h-52v32h-16v34h-16v50h-16v18h-48v16h-120v-16h-32v-18h-16v-14h-18v-54h18v-18h16v-16h48v-16h118v-16h100v-16h48v-18h34 v-18h34v-14h16v-18h16v-16h18v-18h18v-50h12v-180h-12v-16h-18v-18h-18v-34h-16v-16h-16v-16h-16v-2h16v-18h16v-16h18v-48h16v-182h-16v-18h-18v-16h-16v-36h-16v-14h-16v-16h-34v-16h-20v-18h-34v-18h-96v-14h-216v14h-198v18h-18v18h-14v16h-20v66h-14zM608 568h18v-18 h16v-16h34v-18h32v-16h102l-32 -2h50v18h32v18h14v34h-12v50h-18v16h-52v18h-116v-18h-34v-16h-16v-16h-18v-34z" />
<glyph unicode="&#xa8;" d="M356 1616v196h24v20h18v24h68v20h86v-20h62v-24h24v-20h18v-196h-18v-42h-24v-20h-62v-24h-86v24h-68v44h-18v18h-24zM844 1660v132h24v40h42v24h44v20h84v-20h64v-24h24v-20h18v-214h-18v-24h-24v-20h-20v-24h-152v24h-44v44h-18v62h-24z" />
<glyph unicode="&#xa9;" d="M-16 558v412h32v96h30v68h34v62h32v36h34v68h30v28h68v36h28v30h34v32h66v32h64v32h62v32h132v34h210v-34h160v-32h100v-32h94v-32h34v-32h30v-42q8 -4 16 -4l16 -20h32v-28h34v-80q8 -4 18 -4l16 -20h28v-62h38v-68h26v-162h36l-16 -202l-20 -16v-102h-28 q-4 -34 -10 -73t-6 -69l-20 -16v-66h-28v-34h-34v-32h-34v-32h-32v-30h-32v-36h-64v-32h-34v-30h-30v-34h-66v-36h-64v-32h-130v-32h-306v32h-100v32h-92v36h-66v34h-34v30h-64v32h-32v36h-30v30h-34v64h-32v68h-34v96h-30v68h-32zM230 644h32v-128h34v-30h30v-68h32v-42 q8 -4 14 -4l16 -18h38v-46q4 -4 4 -3t4 1l18 -20h36v-32q14 -4 26 -8t22 -4l18 -18h92v-32h208v32h90v36h70v26h60v38h36v30h32v64h30v68h30v64h36v128h34v170h-34v128h-36v66h-30v30h-30v102h-28v-16h14v-90h-14v-64h14v-92h-14v-14h-16v-12h-132v12h-14v28h-18v64h-16v24 h-18v12h-14v16h-18v12h-34v14h-128v-14h-34v-12h-32v-16h-18v-12h-18v-10h-14v-30h-16v-10h-18v-26h-14v-40h-16v-52h-16v-194h16v-50h16v-40h14v-12h18v-26h16v-14h14v-14h18v-12h34v-12h30v-12h34v-14h84v14h30v12h34v12h18v12h14v28h18v12h16v52h18v38h14v14h16v12h116 v-12h30v-232h-14v-12h-16v-16h-20v-14h-32v-12h-16v-12h-32v-14h-34v-10h-64v-16h-64v-10h-162v10h-82v16h-52v10h-30v14h-34v12h-14v12h-18v14h-18v16h-14v12h-16v24h-18v14h-14v12h-20v38h-14v28h-20v38h-12v64h-18v248h18v52h12v38h20v40h14v24h20v28h14v12h18v24h16v14 h14v12h18v16h18v10h14v14h16v14h32v14h16v10h34v12h48v16h246v-16h82v-12h148v-10h12v16h-36v34h-26v36h-68v32h-64v32h-400v-32h-64v-32h-38q-6 -12 -6 -20l-20 -16v-34h-30v-28h-32v-66h-30v-98h-34v-126h-32v-240z" />
<glyph unicode="&#xaa;" d="M406 942v166h16v16h46v18h232v-18h166v18h196v-18h16v-16h16v-148h-16v-32h-66v-18h-574v18h-16v14h-16zM424 1432q32 10 51 16t28 9t12 3h5l42 22l-28 18q-6 2 -8 8q0 -6 6 -8h-28v94q-2 26 6 40q4 34 44 38l36 18q12 12 32 16q12 6 18 6l-32 -32q24 12 33 15t19 13 q12 16 26 16h152q12 0 17 -1t15 -9q8 -2 16 -5t12 -7q18 -6 24 -16q0 2 7 2h13v-12h14l6 -22h14v-142q4 -14 2 -29t-12 -25v-134l16 -6q4 -2 1 1t-1 3q12 0 27 -5t21 -15l4 -4q34 -14 28 -58v-4q0 -10 3 -19t-17 -25q0 -2 -4 -6q-10 -14 -34 -20h-2q-8 -2 -22 -2l-6 -6v-14 h-110q-10 -2 -23 1t-29 19q-8 0 -10 2h-6q-10 -10 -20 -10q2 -2 2 -5t2 -7h-188q-30 -4 -46 10q-8 0 -18 10q-24 0 -32 18q-10 2 -18 10l-8 6q-2 -14 -26 -40v68h-12v94q-4 16 -1 32t17 30q4 14 8 16l4 12zM622 1320q0 -4 2 -4q8 0 12 -6l16 -8h60q6 10 14 12t24 2l8 2 q10 10 20 12q4 14 10 20v16h-84q-8 -8 -22 -10q-4 -10 -8 -12q12 -4 16 -10h-58l-6 -6zM676 1520q0 -2 1 -3t1 -3h28q28 16 58 0q12 8 24 10l10 6v16q-10 4 -20 22l-8 4t-8 6h-26q-4 -4 -10 -8t-16 -4q-28 -6 -32 -8t0 -5t8 -11t-8 -22v2z" />
<glyph unicode="&#xab;" d="M166 534l6 14l-4 2v132l4 2l-6 18l484 360l14 -34q12 4 23 7t19 7l24 -10l10 12l94 -160l-16 -8l6 -18l-12 -8l8 -18l-152 -88l-10 12l-166 -138q46 -40 81 -71t85 -71q2 4 6 9t4 7l152 -88l-8 -20l12 -8l-6 -18l16 -8l-94 -158l-10 10l-20 -28l-50 26q-10 -20 -10 -28z M662 534l6 14l-4 2v132l4 2l-6 18l486 360l14 -34q10 4 22 7t20 7l22 -10l12 12l94 -160l-18 -8l8 -18l-14 -8l8 -18l-152 -88l-8 12l-166 -138q44 -40 79 -71t87 -71q2 4 5 9t3 7l152 -88l-8 -20l14 -8l-8 -18l18 -8l-94 -158l-12 10l-18 -28l-50 26q-10 -20 -10 -28z" />
<glyph unicode="&#xac;" d="M180 550v196h22v18h64v24h280v-24h410v24l160 4h140v-22h44v-86h20v-576h-20v-22h-22v-22h-194v22h-20v64h-22v280h22v78h-840v22h-22v20h-22z" />
<glyph unicode="&#xad;" d="M386 550v196h22v18h62v24h282v-24h84v24h232v-24h24v-18h20v-172h-20v-44h-86v-22h-576v22h-22v20h-22z" />
<glyph unicode="&#xae;" d="M-16 558v412h32v96h30v68h34v62h32v36h34v68h30v28h68v36h28v30h34v32h66v32h64v32h62v32h132v34h210v-34h160v-32h100v-32h94v-32h34v-32h30v-42q8 -4 16 -4l16 -20h32v-28h34v-80q8 -4 18 -4l16 -20h28v-62h38v-68h26v-162h36l-16 -202l-20 -16v-102h-28 q-4 -34 -10 -73t-6 -69l-20 -16v-66h-28v-34h-34v-32h-34v-32h-32v-30h-32v-36h-64v-32h-34v-30h-30v-34h-66v-36h-64v-32h-130v-32h-306v32h-100v32h-92v36h-66v34h-34v30h-64v32h-32v36h-30v30h-34v64h-32v68h-34v96h-30v68h-32zM230 644h32v-128h34v-30h30v-68h2v64h12 v14h18v10h44v12h30v540h-14v12h-60v12h-48v12h-12v14h-2v-98h-34v-126h-32v-240zM376 368l12 -14h38v-46q4 -4 4 -3t4 1l18 -20h36v-32q14 -4 26 -8t22 -4l18 -18h92v-32h208v32h90v36h70v26h60v38h36v30h-144v14h-14v12h-16v12h-14v24h-18v14h-14v22h-16v12h-14v28h-14v22 h-16v26h-16v24h-14v26h-16v24h-14v24h-34v14h-12v22h-16v14h-16v12h-30v12h-16v12h-26v-12h-16v-194h16v-12h32v-10h88v-14h32v-102h-14v-12h-382zM388 1220h170v-12h74v12h126v-12h152v-12h44v-10h16v-12h18v-16h12v-12h18v-10h12v-12h18v-26h16v-50h14v-150h-14v-38h-16 v-24h-18v-12h-12v-26h-30v-12h-18v-12h-30v-14h-30v-20h16v-12h14v-12h14v-12h16v-26h18v-10h12v-12h18v-28h12v-22h18v-12h16v-26h14v-24h14v-26h32v-12h30v-10h48v54h36v128h34v170h-34v128h-36v66h-30v30h-30v102h-32v28h-36v34h-26v36h-68v32h-64v32h-400v-32h-64v-32 h-38q-6 -12 -6 -20l-20 -16v-16zM604 876h16v-12h150v12h30v12h14v12h16v14h16v12h14v38h14v18h-14v38h-14v12h-16v12h-30v14h-16v12h-60v12h-88v-12h-16v-26h-16v-168z" />
<glyph unicode="&#xb0;" d="M539 1804q-1 8 1 14v4q0 2 1 2t1 2t4 6v2q2 0 4 2l4 2q0 6 8 14l16 32h-2q-2 0 -2 2v4q-2 2 -2 6l34 16q2 4 1 5t3 3q2 2 6 2l2 2q4 0 6 2h4q6 6 12 2q0 -2 2 -2l2 2l12 16h208l-4 -6l-6 -6l-12 -4h12q4 0 5 -1t5 -1q8 0 12 -2q2 0 2 -1t2 -1q6 -2 8 -8v-4q2 -2 2 -6 l2 -2q0 -2 4 -2l12 -16q0 -2 2 -2l10 -6q4 -6 8 -14q2 -2 2 -10q6 -8 10 -16t4 -14v-12q4 4 8 4q2 0 3 1t3 1v-110q0 -6 1 -11t-1 -9v-6l-2 -4q0 -2 -1 -3t-1 -3l-4 -4l-4 -4v-12q-2 -6 -3 -13t-5 -11l-4 -4q-2 0 -3 -1t-3 -1q0 -4 -2 -6q0 -2 -1 -4t-1 -4q-8 -8 -16 -10 q-4 -4 -4 -8q-4 -2 -5 -4t-3 -2l-4 -6q0 -2 -4 -6q-4 -6 -10 -10q-2 -2 -4 -2l-2 -2h-4l-30 -20q-4 0 -6 -2h-12q2 0 3 -1t3 -1q4 0 8 -4l6 -8h-136q-8 -4 -10 -4q-10 0 -14 2h-4q-4 4 -6 4q-4 2 -4 3t-2 3q-4 4 -4 6q-26 0 -34 8l-4 4v4q-10 0 -16 6l-26 22l-2 4l-12 44 q0 16 -1 9t-1 -15q0 -2 -4 0q-4 4 -4 6q-2 4 -2 12q-4 -16 -14 -20v172q0 6 -1 14zM682 1730l6 -4l8 -10l6 -10l8 -6h10q10 -2 18 -14q2 0 6 4q20 8 24 8t14 4q2 0 3 1t3 1v16l6 12l8 6v8l-4 4h-8l-4 4q-2 0 -4 2q-6 6 -6 18v16l-10 6h-48q0 -8 -2 -10q-2 -4 -7 -5t-11 -5 v-12q0 -2 -1 -3t-1 -3q0 -6 -2 -8l-6 -8q-2 0 -3 -1t-3 -1v-10z" />
<glyph unicode="&#xb1;" d="M228 644v132h14v24h12v18h86v14h270v356h16v16h28v12h144v-12h14v-16h16v-12h12v-330h14v-14h342v-14h14v-18h14v-156h-14v-28h-58v-14h-214v14q-26 0 -50 1t-48 1v-360h-12v-14l-46 2v-28h-128v14h-28v26h-16v330h-14v14h-56v14q-26 0 -52 2t-50 4q-40 4 -83 7t-81 3 l-16 12h-30zM234 38v156h14v12h44v18h216v-18h550v18h180v-18h18v-12h16v-140h-16v-32h-60v-14h-932v14h-16v16h-14z" />
<glyph unicode="&#xb4;" d="M484 1680l10 8l-10 18l28 18l-6 18l160 90l8 -12l92 54q-8 12 -8 14l138 80l6 -16l14 8l6 -14l12 6l68 -120l-10 -8l22 -36l-44 -24q10 -16 10 -18l-382 -220l-8 16l-12 -6l-8 14l-10 -6z" />
<glyph unicode="&#xb5;" d="M200 866v88h22v40h42v22h150v22h174v-22h20v-302h-20q0 -80 1 -161t1 -161h18v-64h22v-20h22v-42h22v-24h42v-20h66v-24h50v24h44v20h62v24h24v18h20v24h24v472h-24v22h-20v20h-108v22h-22v128h22v22h108v22h106v22h130v-22h22v-62h22v-174h-22v-496h22v-18h44v-24h12 l-2 -194h-32v-22h-66v-22h-130v22h-44v22h-18v22h-2v-22h-64v-22h-62v-22h-34v-20h-192v20h-46v-220h-16v-22h-14v-20h-160v20h-12v60h-18v270h18v76h-18v182h-16v86h24v44h-24v84h24v42h-24v150h24v2h-24v44h-20v20h-106v22h-22v22h-22z" />
<glyph unicode="&#xb7;" d="M606 1142v132h12v14h18v14h48v14h114v-14h48v-14h32v-26h16v-108h-16v-84h-16v-218h-16v-12h-18v-14h-144v14h-16v12h-18v82h-14v136h-18v72h-12z" />
<glyph unicode="&#xb8;" d="M526 -22l292 206l12 -24l16 6l24 -8q6 2 10 2l64 -84l-6 -6l8 -6l-10 -8l12 -12l-118 -86l-8 14l-32 -24l40 -18q4 8 4 10l124 -56l-6 -12q10 -2 15 -2h7l-64 -120l-6 2l-14 -30l-22 10v-18l-332 162l6 12h-16l16 40l-14 14l6 8l-6 8l6 8z" />
<glyph unicode="&#xba;" d="M406 942v166h16v16h46v18h154v24h-42v20h-44v24h-24v18h-18v44h-24v44h-20v258h20v42h24v44h18v24h44v20h24v22h300v-22h62v-20h24v-24h20v-20h24v-42h18v-68h22v-190h-22v-44h-18v-44h-24v-24h-20v-18h-24v-24h-42v-20h-44v-24h-156v-18h166v18h196v-18h16v-16h16v-148 h-16v-32h-66v-18h-574v18h-16v14h-16zM622 1424h22v-20h20v-22h22v-22h40v-22h2v22h64v22h44v42h22v42h-22v22h-22v44h-22v20h-106v-20h-22v-22h-20v-44h-22v-42z" />
<glyph unicode="&#xbb;" d="M166 350l16 8l-6 18l12 8l-8 20l152 88l10 -16q44 38 80 70t86 72q-46 38 -81 69t-85 71q-2 -4 -6 -8t-4 -6l-152 88l8 18l-12 8l6 18l-16 8l94 160l10 -12l18 28l52 -24q10 24 10 26l484 -360l-8 -18l6 -2v-132l-6 -2l8 -14l-484 -362l-14 32l-42 -10l-24 8l-10 -10z M662 350l18 8l-8 18l14 8l-8 20l150 88l10 -16q46 38 82 70t84 72q-46 38 -80 69t-86 71q-2 -4 -6 -8t-4 -6l-150 88l8 18l-14 8l8 18l-18 8l94 160l12 -12l16 28l52 -24q10 24 10 26l486 -360l-8 -18l6 -2v-132l-6 -2l8 -14l-486 -362l-14 32l-42 -10l-22 8l-12 -10z" />
<glyph unicode="&#xbc;" d="M114 308v128h22v22h22v22h44v18h42v24h64v20h44v24h42v20h20v24h44v18h66v24h44v20h18v24h44v18h86v24h22v20h22v22h-476v20h-40v152h40v22h154v22h20v322h-20v42h-44v-20h-128v20h-22v42h-22v108h22v44h170v22h218v-22h20v-64h20v-172h-20v-300h20v-44h42v-22h154v-22 h20v-86h40v22h44v22h44v20h42v22h44v22h42v22h172v-22h24v-110h-24v-18h-20v-24h-42v-20h-44v-24h-42v-18h-44v-22h-42v-22h-44v-22h-44v-22h-40v-20h-42v-22h-24v-22h-62v-22h-44v-20h-44v-22h-42v-22h-24v-22h-40v-22h-44v-22h-64v-20h-44v-20h-44v-24h-42v-18h-22v-24 h-42v-20h-44v-24h-42v-20h-86v20h-22v24h-22zM586 -58v170h22v66h22v22h20v42h22v44h22v64h22v22h22v64h22v44h20v18h22v24h152v-24h20v-104h-20v-42h-24v-44h-18v-44h-24v-66h-20v-44h-24v-42h-18v-18h170v18h20v152h24v64h18v22h110v-22h22v-22h20v-150h22v-44h22v-18h86 v-24h20v-20h24v-130h-24v-44h-106v-20h-22v-66h-22v-40h-20v-24h-132v24h-18v18h-24v66h-20v42h-346v22h-20v22h-22v22h-22z" />
<glyph unicode="&#xbd;" d="M160 318v152h22v20h42v22h66v22h42v22h20v20h66v22h44v22h44v22h18v22h68v20h40v22h42v22h22v22h44v18h44v24h-494v20h-22v130h40v24h154v42h20v302h-20v62h-22v-22h-150v22h-22v20h-22v132h22v20h126v24h240v-24h22v-20h20v-540h44v-18h148v-24h24v-20h20v-66h22v22h42 v20h64v24h42v20h24v24h44v18h18v24h152v-24h20v-150h-40v-22h-22v-20h-64v-22h-44v-22h-42v-22h-44v-22h-44v-20h-42v-20h-44v-24h-42v-20h-44v-22h-42v-20h-20v-24h-44v-20h64v22h258v-22h64v-22h44v-22h22v-20h20v-22h22v-42h22v-42h22v-132h-22v-42h-22v-44h-22v-22h-20 v-22h-44v-20h-22v-22h-42v-22h-22v-18h-66v-24h-40v-20h-24v-24h-42v-20h170v22h44v20h42v22h132v-22h20v-170h-20v-44h-44v-24h-130v24h-108v-24h-386v24h-40v20h-24v152h24v42h18v22h22v22h42v22h22v22h66v22h42v20h22v20h44v24h42v18h22v24h18v20h44v24h24v20h20v24h24 v40h-24v22h-20v22h-170v-22h-24v-22h-20v-42h-24v-44h-20v-20h-24v-22h-128v42h-18v108h18v66h22v42h22v22h20v20h44v20h-62v-18h-22v-24h-44v-20h-64v-24h-44v-18h-42v-24h-22v-20h-44v-22h-40v-22h-24v-20h-128v20h-22zM720 512h42v22h-42v-22z" />
<glyph unicode="&#xbe;" d="M114 308v128h22v22h22v22h44v18h42v24h64v20h44v24h42v20h20v24h44v18h66v24h44v20h18v24h44v18h86v24h22v20h22v24h42v20h44v20h42v22h40v22h44v22h44v20h42v22h44v22h42v22h172v-22h24v-110h-24v-18h-20v-24h-42v-20h-44v-24h-42v-18h-44v-22h-42v-22h-44v-22h-44v-22 h-40v-20h-42v-22h-24v-22h-62v-22h-44v-20h-44v-22h-42v-22h-24v-22h-40v-22h-44v-22h-64v-20h-44v-20h-44v-24h-42v-18h-22v-24h-42v-20h-44v-24h-42v-20h-86v20h-22v24h-22zM126 768l4 76l24 16l-4 -2v32l98 -10l4 -6h46v-10h24v-12h50v-12h42v12h38v12l44 -2l4 10l16 8 l4 4v16l14 6v12l10 8v2q2 4 4 11t2 11l6 12v22h-14v38h-8l-2 6h-16v24h-24v10h-12v12h-28v12h-100v12h-12v10h-14l8 92l6 12v24h74v14h38v12h36l10 10q2 4 1 4t-1 2l6 12v58h-12v24h-8l-2 14h-12l-2 12h-12l-2 10h-10l-2 6h-32v-10h-16v-6l-8 -2v-14l-20 -2v-18l-6 -2v-24 h-18v-8l-8 -2v-12h-146v10h-10l4 104l6 6q0 4 2 8v28l12 6v22h12v24h12v10h24v12h26v12h26v12h62v10h112v-10h60v-12h40v-12h24v-12h26v-10h14v-12h12v-12h12v-20h12v-12h12v-46h16l-10 -182l-6 -2v-38h-12v-20h-12v-8h12v-12h12v-12h14v-10h12v-24h14v-22h12v-44h14 l-8 -150l-6 -2v-36h-18v-28l-8 -2v-26l-18 -2v-16l-8 -2v-14h-12v-12h-16v-6l-8 -2v-14h-12v-10h-26v-12h-38v-12h-40v-12h-272v12h-38v12h-14q-4 0 -6 2l-2 12h-14q-4 0 -8 2l-2 6h-30v12h-12v22h-12zM586 -58v170h22v66h22v22h20v42h22v44h22v64h22v22h22v64h22v44h20v18 h22v24h152v-24h20v-104h-20v-42h-24v-44h-18v-44h-24v-66h-20v-44h-24v-42h-18v-18h170v18h20v152h24v64h18v22h110v-22h22v-22h20v-150h22v-44h22v-18h86v-24h20v-20h24v-130h-24v-44h-106v-20h-22v-66h-22v-40h-20v-24h-132v24h-18v18h-24v66h-20v42h-346v22h-20v22h-22 v22h-22z" />
<glyph unicode="&#xbf;" d="M352 102v238h20v64h24v44h20v42h24v20h20v24h22v18h20v24h24v20h20v24h20v44h22v18h22v22h22v42h20v44h22v152h22v20h174v-20h20v-194h-20v-68h-24v-42h-18v-20h-24v-42h-20v-44h-44v-44h-24v-20h-18v-22h-24v-44h-20v-42h-24v-44h-18v-106h18v-66h24v-42h44v-22h128v22 h22v22h20v42h20v174h24v20h18v20h176v-20h20v-20h22v-218h-22v-20h-20v-42h-22v-44h-22v-24h-22v-40h-44v-22h-42v-22h-22v-22h-62v-20h-238v20h-86v22h-20v22h-44v22h-22v22h-20v18h-24v24h-20v20h-24v66h-20zM546 1156v128h20v44h22v42h44v22h258v-22h24v-22h18v-214h-18 v-22h-24v-42h-44v-22h-42v-22h-130v22h-42v22h-44v42h-22v44h-20z" />
<glyph unicode="&#xc0;" d="M52 24h42v-20h280v20h236v24h22v128h-22v20h-128v24h-22v18h-22v22h22v66h22v84h22v24h42v18h88v-18h298v-24h22v-20h22v-42h22v-66h20v-86h-64v-20h-86v-24h-22v-128h66v-20h516v20h20v152h-42v20h-64v24h-44v42h-22v44h-20v42h-22v64h-22v42h-22v86h-22v44h-18v44h-24 v86h-20v42h-24v42h-18v42h-24v68h-20v62h-24v66h-18v64h-24v64h-20v64h-24v66h-20v42h-24v66h-18v42h-22v22h-22v22h-128v-22h-24v-22h-42v-86h-20v-86h-24v-44h-20v-64h-24v-64h-18v-86h-24v-64h-20v-42h-20v-68h-22v-42h-22v-42h-22v-86h-20v-42h-22v-44h-22v-44h-22v-64 h-22v-64h-22v-64h-20v-24h-22v-62h-22v-24h-22v-18h-42v-24h-42v-20h-22v-152zM298 1768l70 118l8 -6l8 14l12 -8l10 20l138 -82l-8 -16l92 -54q6 8 6 14l166 -94l-10 -14l26 -16l-10 -20l10 -8l-72 -128h-68v-14l-354 210l12 22q-12 18 -24 26l-4 28zM568 648v44h20v42h22 v64h22v44h22v86h22v42h22v66h20v42h2v-22h18v-42h24v-64h20v-44h20v-64h22v-66h22v-84h22v-42h22v-2h-44v-20h-258v20h-20z" />
<glyph unicode="&#xc1;" d="M52 24v152h22v20h42v24h42v18h22v24h22v62h22v24h20v64h22v64h22v64h22v44h22v44h22v42h20v86h22v42h22v42h22v68h20v42h20v64h24v86h18v64h24v64h20v44h24v86h20v86h42v22h24v22h26l-68 124l8 6l-8 20l28 18l-8 16l160 92l8 -14l92 54l-8 16l138 80l8 -18l12 8l6 -14 l12 6l68 -120l-8 -8l20 -36l-44 -22q10 -16 10 -18l-326 -190h2v-22h22v-22h22v-42h18v-66h24v-42h20v-66h24v-64h20v-64h24v-64h18v-66h24v-62h20v-68h24v-42h18v-42h24v-42h20v-86h24v-44h18v-44h22v-86h22v-42h22v-64h22v-42h20v-44h22v-42h44v-24h64v-20h42v-152h-20 v-20h-516v20h-66v128h22v24h86v20h64v86h-20v66h-22v42h-22v20h-22v24h-298v18h-88v-18h-42v-24h-22v-84h-22v-66h-22v-22h22v-18h22v-24h128v-20h22v-128h-22v-24h-236v-20h-280v20h-42zM568 648h20v-20h258v20h44v2h-22v42h-22v84h-22v66h-22v64h-20v44h-20v64h-24v42h-18 v22h-2v-42h-20v-66h-22v-42h-22v-86h-22v-44h-22v-64h-22v-42h-20v-44z" />
<glyph unicode="&#xc2;" d="M52 24v152h22v20h42v24h42v18h22v24h22v62h22v24h20v64h22v64h22v64h22v44h22v44h22v42h20v86h22v42h22v42h22v68h20v42h20v64h24v86h18v64h24v64h20v44h24v86h20v86h34l-10 6l-100 58l2 10l-36 24l22 24q-12 6 -14 6l170 290q2 10 2 18l16 -6v8l44 -20l44 20v-8l16 6 v-20l172 -288l-24 -12l6 -20l-10 -22v-6q0 -2 2 -4l-98 -58l-12 -6h12v-42h18v-66h24v-42h20v-66h24v-64h20v-64h24v-64h18v-66h24v-62h20v-68h24v-42h18v-42h24v-42h20v-86h24v-44h18v-44h22v-86h22v-42h22v-64h22v-42h20v-44h22v-42h44v-24h64v-20h42v-152h-20v-20h-516 v20h-66v128h22v24h86v20h64v86h-20v66h-22v42h-22v20h-22v24h-298v18h-88v-18h-42v-24h-22v-84h-22v-66h-22v-22h22v-18h22v-24h128v-20h22v-128h-22v-24h-236v-20h-280v20h-42zM568 648h20v-20h258v20h44v2h-22v42h-22v84h-22v66h-22v64h-20v44h-20v64h-24v42h-18v22h-2 v-42h-20v-66h-22v-42h-22v-86h-22v-44h-22v-64h-22v-42h-20v-44zM670 1466h6v10zM682 1488h116l-50 86l10 4l-20 34l-18 -34q6 -4 12 -4zM804 1466h6l-6 10v-10zM826 1444h2l-2 16v-16z" />
<glyph unicode="&#xc4;" d="M52 24h42v-20h280v20h236v24h22v128h-22v20h-128v24h-22v18h-22v22h22v66h22v84h22v24h42v18h88v-18h298v-24h22v-20h22v-42h22v-66h20v-86h-64v-20h-86v-24h-22v-128h66v-20h516v20h20v152h-42v20h-64v24h-44v42h-22v44h-20v42h-22v64h-22v42h-22v86h-22v44h-18v44h-24 v86h-20v42h-24v42h-18v42h-24v68h-20v62h-24v66h-18v64h-24v64h-20v64h-24v66h-20v42h-24v66h-18v42h-22v22h-22v22h-128v-22h-24v-22h-42v-86h-20v-86h-24v-44h-20v-64h-24v-64h-18v-86h-24v-64h-20v-42h-20v-68h-22v-42h-22v-42h-22v-86h-20v-42h-22v-44h-22v-44h-22v-64 h-22v-64h-22v-64h-20v-24h-22v-62h-22v-24h-22v-18h-42v-24h-42v-20h-22v-152zM350 1554v194h24v22h18v22h68v20h86v-20h62v-22h24v-22h18v-194h-18v-42h-24v-22h-62v-22h-86v22h-68v44h-18v20h-24zM568 648v44h20v42h22v64h22v44h22v86h22v42h22v66h20v42h2v-22h18v-42h24 v-64h20v-44h20v-64h22v-66h22v-84h22v-42h22v-2h-44v-20h-258v20h-20zM838 1598v132h22v40h42v22h44v20h84v-20h66v-22h22v-22h20v-214h-20v-22h-22v-22h-22v-22h-150v22h-44v44h-20v64h-22z" />
<glyph unicode="&#xc6;" d="M-122 18v150h22v22h42v22h42v20h22v22h22v64h22v22h20v66h22v62h22v66h22v44h22v44h22v42h20v86h22v42h22v42h22v66h20v42h20v66h24v86h18v62h24v66h20v44h24v86h20v84h42v22h24v22h128v-22h22v-14h904v-22h24v-64h20v-150h-20v-108h-24v-64h-18v-22h-154v42h-22v108h-20 v44h-44v20h-128v24h-290l-96 4l26 -62v-34q8 -22 20 -50l24 -56l24 -56t20 -48h-6v-66h20v-20h170v44h24v42h20v64h24v22h108v-22h20v-44h22v-86h-22v-388h-128v24h-24v44h-20v42h-24v44h-18v18h-64v24h-48v-70h24v-44h18v-44h22v-86h22v-42h22v-66h22v-42h20v-44h22v-42h44 v-16h68v24h86v18h40v24h22v44h22v86h22v62h22v22h130v-22h20v-42h24v-364h-24v-24h-20v-20h-42v-24h-110v24h-174v-8h-516v22h-66v128h22v22h86v22h64v86h-20v64h-22v42h-22v22h-22v22h-298v20h-88v-20h-42v-22h-22v-84h-20v-68h-24v-20h24v-20h20v-22h128v-22h22v-128h-22 v-22h-234v-22h-282v22h-42zM394 640h20v-18h258v18h44v2h-22v42h-22v84h-22v68h-22v62h-20v44h-20v66h-24v40h-18v22h-2v-42h-20v-64h-22v-42h-22v-86h-22v-44h-22v-66h-22v-42h-20v-44z" />
<glyph unicode="&#xc7;" d="M200 520v364h24v86h18v66h24v64h20v42h24v44h20v22h24v42h18v22h24v22h20v22h24v20h18v22h22v22h42v22h22v20h44v22h64v22h302v-22h108v-22h194v-20h18v-44h24v-106h-24v-152h24v-108h-24v-22h-18v-20h-154v20h-18v44h-24v108h-20v42h-24v22h-18v22h-24v20h-44v24h-190 v-24h-42v-20h-44v-22h-24v-22h-20v-22h-24v-42h-18v-22h-24v-42h-20v-66h-20v-86h-22v-366h22v-82h20v-68h20v-20h24v-42h18v-24h24v-20h20v-24h44v-18h42v-24h44v-20h128v20h42v24h44v18h24v24h18v44h24v18h20v88h24v64h18v22h22v20h132v-20h42v-344h-24v-22h-18v-22h-24 v-22h-44v-22h-20v-18h-42v-24h-44v-20h-86v-24h-12l36 -134h-8l36 -134l-24 -8q0 -10 1 -18t1 -10h-14q2 -6 2 -14l-138 -38l-6 16l-38 -8l-20 72q-4 -2 -6 -2t-6 -2t-6 -4l-62 266h-14v18h-108v24h-66v20h-42v24h-44v18h-18v22h-24v22h-20v22h-24v22h-18v42h-24v22h-20v22 h-24v64h-20v44h-24v62h-18v110h-24z" />
<glyph unicode="&#xc8;" d="M168 1294h20v-22h24v-20h106v-24h42v-990h-18v-18h-24v-24h-64v-20h-42v-24h-24v-104h24v-24h18v-20h904v-24h110v24h42v20h20v24h24v364h-24v42h-20v22h-130v-22h-22v-62h-22v-86h-22v-44h-22v-24h-40v-18h-86v-24h-324v24h-20v42h-24v364h24v24h20v42h88v-24h64v-18h18 v-44h24v-42h20v-44h24v-24h128v388h22v86h-22v44h-20v22h-108v-22h-24v-64h-20v-42h-24v-44h-170v20h-20v344h20v24h258v-24h128v-20h44v-44h20v-108h22v-42h154v22h18v64h24v108h20v150h-20v64h-24v22h-1074v-22h-20v-128zM432 1762l70 118l10 -4l6 12l12 -8l10 20l138 -82 l-8 -16l92 -54q8 12 8 14l164 -94l-10 -14l26 -16l-8 -20l8 -8l-76 -136l-12 6l-4 -14l-14 6l-8 -18l-380 224l14 24q-8 8 -15 14t-11 10l-4 28z" />
<glyph unicode="&#xc9;" d="M168 1294v128h20v22h1074v-22h24v-64h20v-150h-20v-108h-24v-64h-18v-22h-154v42h-22v108h-20v44h-44v20h-128v24h-258v-24h-20v-344h20v-20h170v44h24v42h20v64h24v22h108v-22h20v-44h22v-86h-22v-388h-128v24h-24v44h-20v42h-24v44h-18v18h-64v24h-88v-42h-20v-24h-24 v-364h24v-42h20v-24h324v24h86v18h40v24h22v44h22v86h22v62h22v22h130v-22h20v-42h24v-364h-24v-24h-20v-20h-42v-24h-110v24h-904v20h-18v24h-24v104h24v24h42v20h64v24h24v18h18v990h-42v24h-106v20h-24v22h-20zM476 1612l10 6l-10 20l30 18l-8 16l160 92l8 -14l92 54 l-8 16l138 80l8 -18l12 8l6 -14l12 6l68 -120l-8 -8l20 -36l-44 -22q10 -16 10 -18l-380 -222l-10 18l-12 -6l-8 14l-8 -6z" />
<glyph unicode="&#xca;" d="M168 1294v128h20v22h502l-20 10l-100 58l2 10l-36 24l24 24q-8 4 -14 4l170 292q2 10 2 18l16 -8v10l42 -20l44 20v-10l16 8v-20l172 -290l-22 -10l6 -20l-10 -22v-6q0 -2 2 -4l-100 -58l-20 -10h398v-22h24v-64h20v-150h-20v-108h-24v-64h-18v-22h-154v42h-22v108h-20 v44h-44v20h-128v24h-258v-24h-20v-344h20v-20h170v44h24v42h20v64h24v22h108v-22h20v-44h22v-86h-22v-388h-128v24h-24v44h-20v42h-24v44h-18v18h-64v24h-88v-42h-20v-24h-24v-364h24v-42h20v-24h324v24h86v18h40v24h22v44h22v86h22v62h22v22h130v-22h20v-42h24v-364h-24 v-24h-20v-20h-42v-24h-110v24h-904v20h-18v24h-24v104h24v24h42v20h64v24h24v18h18v990h-42v24h-106v20h-24v22h-20zM690 1444h174l-2 20l-8 -4l-70 116l10 6l-18 34l-20 -34q12 -6 14 -6l-70 -116l-10 6v-22z" />
<glyph unicode="&#xcb;" d="M168 1294h20v-22h24v-20h106v-24h42v-990h-18v-18h-24v-24h-64v-20h-42v-24h-24v-104h24v-24h18v-20h904v-24h110v24h42v20h20v24h24v364h-24v42h-20v22h-130v-22h-22v-62h-22v-86h-22v-44h-22v-24h-40v-18h-86v-24h-324v24h-20v42h-24v364h24v24h20v42h88v-24h64v-18h18 v-44h24v-42h20v-44h24v-24h128v388h22v86h-22v44h-20v22h-108v-22h-24v-64h-20v-42h-24v-44h-170v20h-20v344h20v24h258v-24h128v-20h44v-44h20v-108h22v-42h154v22h18v64h24v108h20v150h-20v64h-24v22h-1074v-22h-20v-128zM374 1564v194h22v22h20v22h66v20h86v-20h64v-22 h22v-22h20v-194h-20v-42h-22v-22h-64v-22h-86v22h-66v44h-20v20h-22zM862 1608v132h22v40h42v22h44v20h84v-20h66v-22h22v-22h20v-214h-20v-22h-22v-22h-22v-22h-150v22h-44v44h-20v64h-22z" />
<glyph unicode="&#xcc;" d="M244 1272h22v-20h152v-24h172v-20h20v-66h24v-22h-24v-858h-20v-42h-216v-24h-42v-20h-22v-128h22v-24h18v-20h862v20h44v128h-22v24h-22v20h-302v24h-44v18h-18v970h18v20h194v24h108v64h22v86h-22v20h-22v22h-150v22h-84v-22h-646v-42h-22v-130zM304 1758l70 118l10 -4 l6 12l12 -8l10 20l138 -82l-8 -16l92 -52q8 8 8 12l164 -94l-10 -14l26 -16l-8 -18l8 -10l-76 -136l-12 6l-4 -14l-14 6l-8 -18l-380 224l14 24q-8 8 -15 14t-11 10l-4 28z" />
<glyph unicode="&#xcd;" d="M244 1272v130h22v42h646v22h84v-22h150v-22h22v-20h22v-86h-22v-64h-108v-24h-194v-20h-18v-970h18v-18h44v-24h302v-20h22v-24h22v-128h-44v-20h-862v20h-18v24h-22v128h22v20h42v24h216v42h20v858h24v22h-24v66h-20v20h-172v24h-152v20h-22zM608 1612l10 6l-10 20 l30 18l-8 16l160 92l8 -14l92 54l-8 16l138 80l8 -18l12 8l6 -14l12 6l68 -120l-8 -8l20 -36l-44 -22q10 -16 10 -18l-380 -222l-10 18l-12 -6l-8 14l-8 -6z" />
<glyph unicode="&#xce;" d="M244 1272v130h22v42h646v22h84v-22h150v-22h22v-20h22v-86h-22v-64h-108v-24h-194v-20h-18v-970h18v-18h44v-24h302v-20h22v-24h22v-128h-44v-20h-862v20h-18v24h-22v128h22v20h42v24h216v42h20v858h24v22h-24v66h-20v20h-172v24h-152v20h-22zM482 1558l24 22 q-12 6 -14 6l170 290q2 8 2 13v7l16 -8v10l44 -22l44 22v-10l14 8v-20l172 -290l-22 -12l6 -18l-10 -24v-4q0 -2 2 -4l-100 -58l-18 -12l-2 22l-10 -4l-70 116l10 6l-18 32l-20 -32q12 -6 14 -6l-70 -116l-10 6v-24l-20 12l-100 58l2 8z" />
<glyph unicode="&#xcf;" d="M244 1272h22v-20h152v-24h172v-20h20v-66h24v-22h-24v-858h-20v-42h-216v-24h-42v-20h-22v-128h22v-24h18v-20h862v20h44v128h-22v24h-22v20h-302v24h-44v18h-18v970h18v20h194v24h108v64h22v86h-22v20h-22v22h-150v22h-84v-22h-646v-42h-22v-130zM342 1562v194h22v22h20 v22h66v20h86v-20h64v-22h22v-22h20v-194h-20v-42h-22v-22h-64v-22h-86v22h-66v44h-20v20h-22zM828 1606v132h24v40h42v22h44v20h84v-20h64v-22h24v-22h18v-214h-18v-22h-24v-22h-20v-22h-152v22h-44v44h-18v64h-24z" />
<glyph unicode="&#xd0;" d="M134 624v194h22v20h62v22h114v176h22v42h-22v130h-22v20h-64v24h-86v20h-22v130h22v20h22v22h216v-22h172v22h106v-22h214v-20h66v-22h44v-22h42v-22h44v-20h20v-22h20v-22h22v-22h22v-22h22v-20h20v-22h22v-44h22v-22h22v-40h20v-66h22v-86h22v-106h22v-258h-22v-130 h-22v-64h-22v-66h-20v-44h-22v-42h-22v-22h-22v-22h-20v-20h-22v-44h-44v-22h-20v-22h-20v-18h-44v-24h-22v-20h-130v-24h-686v24h-22v20h-22v128h44v24h64v20h42v24h22v362h-154v20h-22v22h-22zM548 518h20v-298h22v-24h64v-20h64v20h64v24h66v18h42v24h44v44h20v18h22v24 h22v44h22v44h22v62h20v64h22v130h22v20h-22v150h-22v66h-20v64h-22v22h-22v42h-22v22h-22v44h-42v20h-22v22h-22v22h-20v22h-86v20h-150v-20h-22v-22h-22v-348h168v22h234v-22h22v-20h22v-172h-22v-44h-86v-20h-338v-62h-20v-2z" />
<glyph unicode="&#xd1;" d="M126 66v86h22v24h22v20h22v24h22v18h20v24h44v966h-22v24h-108v20h-22v172h22v22h194v-22h194v-22h22v-42h20v-44h22v-42h22v-22h22v-64h20v-44h20v-22h24v-42h18v-44h24v-42h20v-44h24v-20h20v-22h24v-44h18v-44h24v-42h20v-20h24v-44h18v-20h24v-44h20v-42h20v-22h22 v-22h22v-44h2v452h-24v172h-20v44h-24v20h-84v24h-42v20h-44v150h22v22h516v-22h20v-150h-20v-20h-44v-24h-42v-106h-22v-2h22v-170h-22v-366h22v-560h-22v-20h-42v-24h-132v24h-18v20h-24v24h-20v40h-24v44h-20v42h-24v44h-18v42h-22v44h-22v66h-20v20h-22v62h-22v24h-22 v44h-20v20h-22v42h-22v44h-22v42h-22v24h-22v42h-20v42h-22v44h-22v22h-18v42h-24v44h-20v42h-24v22h-18v44h-2v-22h-22v-516h22v-192h22v-44h22v-24h64v-18h84v-24h24v-20h18v-152h-126v-20h-408v20h-44v42h-22zM310 1534v196h20v20h64v24h280v-24h238v24h232v-24h24v-20 h20v-172h-20v-42h-86v-24h-728v24h-24v18h-20z" />
<glyph unicode="&#xd2;" d="M160 496h20v-86h24v-62h18v-66h24v-22h20v-42h24v-22h18v-22h22v-42h22v-22h20v-22h44v-22h44v-18h42v-24h86v-20h258v20h130v24h42v18h44v22h20v22h24v22h18v22h24v20h44v22h18v44h24v42h20v44h24v44h18v106h24v106h20v326h-20v106h-24v86h-18v42h-24v66h-20v42h-24v22 h-18v22h-24v22h-20v42h-24v22h-42v22h-20v20h-24v22h-40v22h-86v22h-130v22h-132v-22h-62v-22h-86v-22h-42v-22h-22v-20h-44v-22h-22v-22h-42v-42h-22v-22h-18v-22h-24v-64h-20v-22h-24v-66h-18v-40h-24v-152h-20v-432zM308 1774l70 118l8 -6l8 14l12 -8l10 20l138 -82 l-8 -16l92 -54q6 8 6 14l166 -94l-10 -16l26 -14l-10 -20l10 -10l-62 -110h-114v-10l-318 190l12 22q-12 18 -24 26l-4 28zM418 584v322h18v86h24v64h20v44h24v42h20v44h24v22h18v20h24v24h62v20h64v22h22v-22h66v-20h44v-24h42v-20h44v-22h18v-44h22v-42h22v-44h22v-20h22 v-86h20v-130h22v-128h-22v-152h-20v-86h-22v-42h-22v-44h-22v-20h-22v-42h-18v-24h-24v-20h-44v-24h-42v-18h-148v18h-42v24h-44v20h-24v24h-18v18h-24v24h-20v44h-24v44h-20v62h-24v86h-18z" />
<glyph unicode="&#xd3;" d="M160 496v432h20v152h24v40h18v66h24v22h20v64h24v22h18v22h22v42h42v22h22v22h44v20h22v22h42v22h86v22h62v22h46l-62 110l10 8l-10 20l28 16l-8 18l162 92l6 -14l92 54l-8 16l138 80l8 -18l14 8l6 -14l10 6l70 -120l-10 -8l20 -36l-44 -24q10 -14 10 -16l-342 -200h126 v-22h86v-22h40v-22h24v-20h20v-22h42v-22h24v-42h20v-22h24v-22h18v-22h24v-42h20v-66h24v-42h18v-86h24v-106h20v-326h-20v-106h-24v-106h-18v-44h-24v-44h-20v-42h-24v-44h-18v-22h-44v-20h-24v-22h-18v-22h-24v-22h-20v-22h-44v-18h-42v-24h-130v-20h-258v20h-86v24h-42 v18h-44v22h-44v22h-20v22h-22v42h-22v22h-18v22h-24v42h-20v22h-24v66h-18v62h-24v86h-20zM418 584h18v-86h24v-62h20v-44h24v-44h20v-24h24v-18h18v-24h24v-20h44v-24h42v-18h148v18h42v24h44v20h24v24h18v42h22v20h22v44h22v42h22v86h20v152h22v128h-22v130h-20v86h-22v20 h-22v44h-22v42h-22v44h-18v22h-44v20h-42v24h-44v20h-66v22h-22v-22h-64v-20h-62v-24h-24v-20h-18v-22h-24v-44h-20v-42h-24v-44h-20v-64h-24v-86h-18v-322z" />
<glyph unicode="&#xd4;" d="M160 496v432h20v152h24v40h18v66h24v22h20v64h24v22h18v22h22v42h42v22h22v22h44v20h22v22h42v22h86v14l-66 38l2 10l-36 24l24 22q-12 6 -14 6l170 292q2 6 2 11v7l16 -8v10l44 -20l44 20v-10l14 8v-20l172 -290l-22 -10l6 -20l-10 -22v-6q0 -2 2 -4l-52 -30h28v-22h86 v-22h40v-22h24v-20h20v-22h42v-22h24v-42h20v-22h24v-22h18v-22h24v-42h20v-66h24v-42h18v-86h24v-106h20v-326h-20v-106h-24v-106h-18v-44h-24v-44h-20v-42h-24v-44h-18v-22h-44v-20h-24v-22h-18v-22h-24v-22h-20v-22h-44v-18h-42v-24h-130v-20h-258v20h-86v24h-42v18h-44 v22h-44v22h-20v22h-22v42h-22v22h-18v22h-24v42h-20v22h-24v66h-18v62h-24v86h-20zM418 584h18v-86h24v-62h20v-44h24v-44h20v-24h24v-18h18v-24h24v-20h44v-24h42v-18h148v18h42v24h44v20h24v24h18v42h22v20h22v44h22v42h22v86h20v152h22v128h-22v130h-20v86h-22v20h-22v44 h-22v42h-22v44h-18v22h-44v20h-42v24h-44v20h-66v22h-22v-22h-64v-20h-62v-24h-24v-20h-18v-22h-24v-44h-20v-42h-24v-44h-20v-64h-24v-86h-18v-322zM678 1510h100l-42 72l10 6l-18 32l-20 -32q12 -6 14 -6zM782 1488h10l-10 16v-16z" />
<glyph unicode="&#xd5;" d="M160 496v432h20v152h24v40h18v66h24v22h20v64h24v22h18v22h22v42h42v22h22v22h44v20h22v22h42v22h86v16h-234v22h-22v20h-22v194h22v22h62v22h282v-22h236v22h234v-22h22v-22h22v-172h-22v-42h-86v-22h-170v-16h86v-22h40v-22h24v-20h20v-22h42v-22h24v-42h20v-22h24v-22 h18v-22h24v-42h20v-66h24v-42h18v-86h24v-106h20v-326h-20v-106h-24v-106h-18v-44h-24v-44h-20v-42h-24v-44h-18v-22h-44v-20h-24v-22h-18v-22h-24v-22h-20v-22h-44v-18h-42v-24h-130v-20h-258v20h-86v24h-42v18h-44v22h-44v22h-20v22h-22v42h-22v22h-18v22h-24v42h-20v22 h-24v66h-18v62h-24v86h-20zM418 584h18v-86h24v-62h20v-44h24v-44h20v-24h24v-18h18v-24h24v-20h44v-24h42v-18h148v18h42v24h44v20h24v24h18v42h22v20h22v44h22v42h22v86h20v152h22v128h-22v130h-20v86h-22v20h-22v44h-22v42h-22v44h-18v22h-44v20h-42v24h-44v20h-66v22 h-22v-22h-64v-20h-62v-24h-24v-20h-18v-22h-24v-44h-20v-42h-24v-44h-20v-64h-24v-86h-18v-322z" />
<glyph unicode="&#xd6;" d="M160 496h20v-86h24v-62h18v-66h24v-22h20v-42h24v-22h18v-22h22v-42h22v-22h20v-22h44v-22h44v-18h42v-24h86v-20h258v20h130v24h42v18h44v22h20v22h24v22h18v22h24v20h44v22h18v44h24v42h20v44h24v44h18v106h24v106h20v326h-20v106h-24v86h-18v42h-24v66h-20v42h-24v22 h-18v22h-24v22h-20v42h-24v22h-42v22h-20v20h-24v22h-40v22h-86v22h-130v22h-132v-22h-62v-22h-86v-22h-42v-22h-22v-20h-44v-22h-22v-22h-42v-42h-22v-22h-18v-22h-24v-64h-20v-22h-24v-66h-18v-40h-24v-152h-20v-432zM352 1558v194h24v22h18v22h68v20h86v-20h62v-22h24 v-22h18v-194h-18v-42h-24v-22h-62v-22h-86v22h-68v44h-18v20h-24zM418 584v322h18v86h24v64h20v44h24v42h20v44h24v22h18v20h24v24h62v20h64v22h22v-22h66v-20h44v-24h42v-20h44v-22h18v-44h22v-42h22v-44h22v-20h22v-86h20v-130h22v-128h-22v-152h-20v-86h-22v-42h-22v-44 h-22v-20h-22v-42h-18v-24h-24v-20h-44v-24h-42v-18h-148v18h-42v24h-44v20h-24v24h-18v18h-24v24h-20v44h-24v44h-20v62h-24v86h-18zM840 1602v132h22v40h42v22h44v20h84v-20h66v-22h22v-22h20v-214h-20v-22h-22v-22h-22v-22h-150v22h-44v44h-20v64h-22z" />
<glyph unicode="&#xd7;" d="M202 1110l18 18l-14 18l28 28l-14 12l74 78l14 -16l12 12l16 -16l20 20l14 -16l14 16l276 -276l-16 -16l62 -58l12 14l18 -18l20 16l10 -12l366 362l14 -14l18 18l14 -18l16 16l86 -94l-12 -14l28 -30l-62 -60l16 -16l-60 -58l-14 14l-30 -30q4 -4 11 -12t9 -8l-70 -52 l-12 10l-152 -152l16 -16l-30 -30l106 -106l-12 -14l74 -74l14 12l182 -182l-12 -16l14 -14l-16 -16l12 -14l-30 -30l18 -18l-60 -60l-18 18l-30 -30l-28 26l-16 -16l-352 350l-12 -12l-18 14l-62 -58l-14 10l-318 -316l-30 28l-18 -18l-52 72l8 10l-28 28l18 18l-14 18 l88 88l-16 16l106 104v-2l92 92l12 -14l2 2l-14 14l90 88z" />
<glyph unicode="&#xd8;" d="M160 496v432h20v152h24v40h18v66h24v22h20v64h24v22h18v22h22v42h42v22h22v22h44v20h22v22h42v22h86v22h62v22h132v-22h140v68h20v42h22v20h154v-20h18v-24h24v-150h-24v-42h-18v-2h6v-22h24v-42h20v-22h24v-22h18v-22h24v-42h20v-66h24v-42h18v-86h24v-106h20v-326h-20 v-106h-24v-106h-18v-44h-24v-44h-20v-42h-24v-44h-18v-22h-44v-20h-24v-22h-18v-22h-24v-22h-20v-22h-44v-18h-42v-24h-130v-20h-224v-20h-22v-86h-22v-88h-20v-18h-22v-24h-64v-20h-88v20h-20v24h-22v128h22v86h20v62h22v20h-34v22h-20v22h-22v42h-22v22h-18v22h-24v42h-20 v22h-24v66h-18v62h-24v86h-20zM418 584h18v-86h24v-62h20v-44h24v-40h10v62h22v64h22v66h22v44h20v42h20v64h24v88h18v62h24v42h20v68h24v62h20v64h24v66h18v42h24v64h-12v20h-66v22h-22v-22h-64v-20h-62v-24h-24v-20h-18v-22h-24v-44h-20v-42h-24v-44h-20v-64h-24v-86h-18 v-322zM686 220h138v18h42v24h44v20h24v24h18v42h22v20h22v44h22v42h22v86h20v152h22v128h-22v130h-20v86h-22v20h-22v2h-8v-44h-22v-42h-22v-84h-20v-66h-22v-64h-22v-42h-22v-66h-20v-64h-22v-44h-22v-62h-22v-68h-22v-42h-22v-84h-20v-44h-22v-22z" />
<glyph unicode="&#xd9;" d="M106 1310h44v-22h90v-22h22v-22h20v-1006h24v-68h20v-44h26v-46h20v-20h24v-24h46v-20h44v-22h44v-24h422v24h44v22h64v20h26v24h44v20h20v26h26v44h20v44h24v66h20v870h24v90h22v46h66v22h42v154h-20v22h-488v-22h-22v-108h22v-24h24v-22h64v-22h46v-68h22v-874h-22v-44 h-24v-20h-22v-24h-22v-22h-42v-22h-90v-22h-116v22h-42v22h-46v22h-22v24h-22v20h-22v24h-22v492h-22v402h22v68h22v22h90v22h22v46h20v86h-20v22h-68v22h-88v-22h-68v22h-288v-22h-44v-154zM356 1764l68 118l10 -6l8 14l10 -8l10 20l138 -82l-8 -16l92 -54q8 12 8 14 l164 -94l-10 -14l28 -16l-10 -20l10 -8l-78 -136l-10 6l-6 -14l-14 6l-8 -18l-380 224l14 24q-8 8 -15 14t-11 10l-4 28z" />
<glyph unicode="&#xda;" d="M106 1310v154h44v22h288v-22h68v22h88v-22h68v-22h20v-86h-20v-46h-22v-22h-90v-22h-22v-68h-22v-402h22v-492h22v-24h22v-20h22v-24h22v-22h46v-22h42v-22h116v22h90v22h42v22h22v24h22v20h24v44h22v874h-22v68h-46v22h-64v22h-24v24h-22v108h22v22h488v-22h20v-154h-42 v-22h-66v-46h-22v-90h-24v-870h-20v-66h-24v-44h-20v-44h-26v-26h-20v-20h-44v-24h-26v-20h-64v-22h-44v-24h-422v24h-44v22h-44v20h-46v24h-24v20h-20v46h-26v44h-20v68h-24v1006h-20v22h-22v22h-90v22h-44zM708 1612l10 6l-10 20l30 18l-8 16l160 92l8 -14l92 54l-8 16 l138 80l8 -18l12 8l6 -14l12 6l68 -120l-8 -8l20 -36l-44 -22q10 -16 10 -18l-380 -222l-10 18l-12 -6l-8 14l-8 -6z" />
<glyph unicode="&#xdb;" d="M106 1310v154h44v22h288v-22h68v22h88v-22h66l-88 52l2 10l-38 24l24 24q-16 4 -14 4l170 292q2 6 2 11v7l16 -8v10l44 -20l44 20v-10l14 8v-20l172 -290l-22 -10l6 -20l-10 -22v-6q0 -2 2 -4l-90 -52h480v-22h20v-154h-42v-22h-66v-46h-22v-90h-24v-870h-20v-66h-24v-44 h-20v-44h-26v-26h-20v-20h-44v-24h-26v-20h-64v-22h-44v-24h-422v24h-44v22h-44v20h-46v24h-24v20h-20v46h-26v44h-20v68h-24v1006h-20v22h-22v22h-90v22h-44zM506 796h22v-492h22v-24h22v-20h22v-24h22v-22h46v-22h42v-22h116v22h90v22h42v22h22v24h22v20h24v44h22v874h-22 v68h-46v22h-64v22h-24v24h-22v108h22v16h-2l-18 -12l-2 22l-10 -4l-68 116l8 6l-18 32l-20 -32q12 -6 14 -6l-68 -116l-12 6v-24l-20 12l-8 4v-20h20v-86h-20v-46h-22v-22h-90v-22h-22v-68h-22v-402z" />
<glyph unicode="&#xdc;" d="M106 1310h44v-22h90v-22h22v-22h20v-1006h24v-68h20v-44h26v-46h20v-20h24v-24h46v-20h44v-22h44v-24h422v24h44v22h64v20h26v24h44v20h20v26h26v44h20v44h24v66h20v870h24v90h22v46h66v22h42v154h-20v22h-488v-22h-22v-108h22v-24h24v-22h64v-22h46v-68h22v-874h-22v-44 h-24v-20h-22v-24h-22v-22h-42v-22h-90v-22h-116v22h-42v22h-46v22h-22v24h-22v20h-22v24h-22v492h-22v402h22v68h22v22h90v22h22v46h20v86h-20v22h-68v22h-88v-22h-68v22h-288v-22h-44v-154zM386 1558v194h22v22h20v22h66v20h86v-20h64v-22h22v-22h20v-194h-20v-42h-22v-22 h-64v-8h-74v-14h-12v22h-66v44h-20v20h-22zM874 1602v132h22v40h42v22h44v20h84v-20h66v-22h22v-22h20v-214h-20v-22h-22v-22h-22v-22h-150v22h-44v44h-20v64h-22z" />
<glyph unicode="&#xdd;" d="M106 1310v176h44v24h220v-24h2v24h178v-24h112v-44h22v-86h-22v-22h-22v-24h-90v-46h22v-44h22v-46h22v-24h24v-44h22v-20h22v-46h20v-44h22v-46h24v-22h22v-22h22v-46h2v46h24v22h20v22h24v46h22v44h24v46h20v44h24v44h20v20h22v94h-66v22h-44v24h-22v130h22v22h336v24 h130v-24h42v-152h-20v-24h-22v-22h-66v-44h-22v-24h-24v-22h-20v-44h-24v-46h-20v-44h-26v-22h-20v-22h-24v-66h-20v-24h-26v-46h-20v-20h-22v-44h-22v-46h-22v-22h-22v-46h-24v-42h-22v-404h22v-46h202v-22h46v-22h20v-110h-20v-44h-70v-22h-110v22h-90v-22h-244v22h-200 v44h-20v86h20v46h44v22h112v22h22v24h22v360h-22v44h-22v20h-22v68h-22v22h-24v22h-20v44h-24v24h-20v46h-24v44h-20v20h-26v46h-20v44h-24v22h-20v44h-26v24h-20v44h-22v22h-22v46h-22v22h-90v22h-44zM666 1610l10 6l-10 20l30 18l-8 16l160 92l8 -14l92 54l-8 16l138 80 l8 -18l12 8l6 -12l12 4l68 -120l-8 -8l20 -36l-44 -22q10 -16 10 -18l-380 -222l-10 18l-12 -6l-8 14l-8 -6z" />
<glyph unicode="&#xde;" d="M210 104v548h24v676h-24v234h24v22h18v22h172v-22h44v-86h22v-76h6v22h106v-22h214v-20h66v-22h44v-22h42v-22h44v-20h20v-22h20v-22h22v-22h22v-22h22v-20h20v-22h22v-44h22v-22h22v-40h20v-66h22v-86h22v-32h22v-140h-22v-54h-22v-64h-22v-66h-20v-44h-22v-42h-22v-22 h-22v-22h-20v-20h-22v-44h-44v-22h-20v-22h-20v-18h-44v-24h-24v-20h-128v-24h-326v-184h-22v-24h-20v-20h-196v20h-18v64h-24zM490 820l4 -66v-266h22v-24h64v-20h64v20h64v24h66v18h42v24h44v44h20v18h22v24h22v44h22v44h22v62h18v64h24v32h-24v66h-18v64h-22v22h-22v42 h-22v22h-22v44h-42v20h-22v22h-22v22h-20v22h-86v20h-150v-20h-22v-22h-22q-2 -94 -3 -185t-1 -181z" />
<glyph unicode="&#xdf;" d="M202 24v126h22v22h42v22h62v22h22v18h20v318h24v86h-24v570h-42v22h-104v18h-22v148h22v22h674v-22h108v-18h40v-22h22v-22h42v-40h20v-22h22v-44h20v-106h22v-86h-22v-82h-20v-42h-22v-42h-20v-24h-20v-18h-22v-22h-22v-42h64v-20h20v-24h42v-18h22v-22h20v-22h22v-40 h20v-22h24v-64h18v-254h-18v-42h-24v-42h-20v-42h-22v-22h-20v-22h-22v-22h-42v-20h-20v-20h-42v-22h-44v-20h-70l-66 212h30v18h24v24h40v42h22v42h22v42h20v42h-20v62h-22v44h-22v22h-22v18h-18v24h-24v20h-42v22h-42v20h-10l-58 62v62h-18l44 110h22v18h20v24h42v20h22 v42h20v42h24v64h-24v62h-20v22h-22v22h-42v22h-84v18h-84v-18h-42v-44h-20v-294h14l-2 -234h-12v-442h20v-22h64v-22h78v-168h-100v-22h-190v22h-252v20h-22z" />
<glyph unicode="&#xe0;" d="M190 176h22v-40h20v-44h22v-18h42v-24h42v-20h44v-22h356v22h86v20h84v-20h22v-22h210v22h62v20h84v24h22v126h-22v22h-18v18h-130v-18h-16v378h18v298h-18v40h-24v22h-20v22h-22v20h-44v20h-42v22h-358v-22h-106v-20h-42v-20h-42v-22h-40v-22h-44v-40h-22v-172h22v-20 h20v-22h170v22h22v20h20v64h22v22h20v22h42v20h42v20h106v-20h44v-20h18v-22h22v-22h22v-104h-22v-22h-22v-22h-62v-18h-42v18h-86v-18h-126v-24h-84v-20h-64v-22h-42v-20h-42v-22h-42v-20h-20v-22h-22v-44h-20v-42h-22v-212zM346 1324l68 116l8 -6l8 14l12 -8l8 18l136 -80 l-8 -14l90 -54q8 12 8 14l162 -92l-10 -16l26 -14l-8 -20l8 -8l-72 -130h-10l-4 2l-2 -2h-62l-336 198l14 22l-24 24l-4 28zM422 284v20h24v44h18v18h22v22h42v22h42v22h64v20h230v-20h22v-106h-22v-42h-18v-22h-44v-22h-42v-18h-42v-22h-190v22h-42v18h-40v44h-24z" />
<glyph unicode="&#xe1;" d="M190 176v212h22v42h20v44h22v22h20v20h42v22h42v20h42v22h64v20h84v24h126v18h86v-18h42v18h62v22h22v22h22v104h-22v22h-22v22h-18v20h-44v20h-106v-20h-42v-20h-42v-22h-20v-22h-22v-64h-20v-20h-22v-22h-170v22h-20v20h-22v172h22v40h44v22h40v22h42v20h42v20h106v22 h126l-6 10l-8 -6l-76 132l10 8l-10 20l28 16l-8 18l158 90l8 -14l90 52l-8 16l136 78l8 -16l12 8l6 -14l12 6l66 -118l-8 -8l20 -36l-44 -22q10 -16 10 -18l-348 -202h184v-22h42v-20h44v-20h22v-22h20v-22h24v-40h18v-298h-18v-378h16v18h130v-18h18v-22h22v-126h-22v-24 h-84v-20h-62v-22h-210v22h-22v20h-84v-20h-86v-22h-356v22h-44v20h-42v24h-42v18h-22v44h-20v40h-22zM422 284h24v-44h40v-18h42v-22h190v22h42v18h42v22h44v22h18v42h22v106h-22v20h-230v-20h-64v-22h-42v-22h-42v-22h-22v-18h-18v-44h-24v-20zM748 1044h4v2z" />
<glyph unicode="&#xe2;" d="M190 176v212h22v42h20v44h22v22h20v20h42v22h42v20h42v22h64v20h84v24h126v18h86v-18h42v18h62v22h22v22h22v104h-22v22h-22v22h-18v20h-44v20h-106v-20h-42v-20h-42v-22h-20v-22h-22v-64h-20v-20h-22v-22h-170v22h-20v20h-22v172h22v40h44v22h40v22h42v20h42v20h106v22 h18l-84 48l2 10l-36 24l24 24q-16 4 -14 4l168 286q2 10 2 18l14 -6v8l44 -20l42 20v-8l16 6v-20l168 -284l-22 -10l6 -20l-10 -22v-6q0 -2 2 -4l-84 -48h102v-22h42v-20h44v-20h22v-22h20v-22h24v-40h18v-298h-18v-378h16v18h130v-18h18v-22h22v-126h-22v-24h-84v-20h-62 v-22h-210v22h-22v20h-84v-20h-86v-22h-356v22h-44v20h-42v24h-42v18h-22v44h-20v40h-22zM422 284h24v-44h40v-18h42v-22h190v22h42v18h42v22h44v22h18v42h22v106h-22v20h-230v-20h-64v-22h-42v-22h-42v-22h-22v-18h-18v-44h-24v-20zM664 1044h6l-6 4v-4zM674 1044h148 l-66 112l10 6l-18 32l-20 -32q12 -6 14 -6zM828 1044h6v2z" />
<glyph unicode="&#xe4;" d="M190 176h22v-40h20v-44h22v-18h42v-24h42v-20h44v-22h356v22h86v20h84v-20h22v-22h210v22h62v20h84v24h22v126h-22v22h-18v18h-130v-18h-16v378h18v298h-18v40h-24v22h-20v22h-22v20h-44v20h-42v22h-358v-22h-106v-20h-42v-20h-42v-22h-40v-22h-44v-40h-22v-172h22v-20 h20v-22h170v22h22v20h20v64h22v22h20v22h42v20h42v20h106v-20h44v-20h18v-22h22v-22h22v-104h-22v-22h-22v-22h-62v-18h-42v18h-86v-18h-126v-24h-84v-20h-64v-22h-42v-20h-42v-22h-42v-20h-20v-22h-22v-44h-20v-42h-22v-212zM362 1122v192h24v20h18v24h66v18h84v-18h62v-24 h22v-20h20v-192h-20v-40h-22v-22h-62v-22h-84v22h-66v44h-18v18h-24zM422 284v20h24v44h18v18h22v22h42v22h42v22h64v20h230v-20h22v-106h-22v-42h-18v-22h-44v-22h-42v-18h-42v-22h-190v22h-42v18h-40v44h-24zM842 1166v130h22v38h42v24h42v18h84v-18h62v-24h24v-20h18 v-210h-18v-22h-24v-22h-20v-22h-104v6h-44v16h-44v44h-18v62h-22z" />
<glyph unicode="&#xe6;" d="M-108 176v212h22v42h18v44h24v22h20v20h42v22h42v20h42v22h64v20h84v24h126v18h86v-18h42v18h62v22h8v64h22v42h12v20h-20v22h-22v22h-20v20h-42v20h-106v-20h-42v-20h-42v-22h-20v-22h-24v-64h-18v-20h-22v-22h-170v22h-20v20h-22v172h22v40h44v22h40v22h42v20h42v20 h106v22h358v-22h42v-20h44v-20h28v22h42v22h42v18h44v22h358v-22h40v-18h44v-22h22v-22h40v-20h22v-22h20v-20h22v-44h20v-22h24v-42h20v-62h22v-234h-22v-18h-64v-22h-548v-22h-112l4 -52v-12h24v-40h20v-22h22v-22h20v-20h42v-24h44v-18h84v-22h106v22h126v18h62v24h62v20 h150v-20h22v-128h-22v-20h-20v-24h-42v-18h-44v-22h-84v-22h-86v-22h-104v-20h-274v20h-92v-22h-210v22h-24v20h-82v-20h-86v-22h-356v22h-44v20h-42v24h-42v18h-24v44h-18v40h-22zM124 284h24v-44h40v-18h42v-22h190v22h42v18h42v22h42v22h20v42h8v44h-20v82h-218v-20h-66 v-22h-40v-22h-42v-22h-22v-18h-18v-44h-24v-20zM842 646h260v18h190v24h22v40h-22v22h-20v22h-22v40h-42v22h-20v22h-66v20h-102v-20h-44v-22h-22v-22h-20v-22h-22v-18h-20v-22h-22v-22h-20v-40h-8v-42z" />
<glyph unicode="&#xe7;" d="M232 366v214h20v126h22v42h20v42h24v42h20v22h22v20h18v24h24v20h20v20h18v22h44v22h22v20h62v20h66v22h338v-22h62v-20h42v-20h22v-22h20v-22h20v-20h22v-44h20v-104h24v-106h-24v-42h-20v-22h-168v22h-42v42h-22v126h-20v22h-22v22h-64v20h-106v-20h-40v-22h-44v-22 h-20v-22h-22v-18h-20v-24h-22v-20h-20v-42h-24v-64h-18v-170h18v-62h24v-18h20v-44h22v-22h20v-22h42v-22h44v-18h106v-22h60v22h128v18h42v22h62v22h172v-22h20v-126h-20v-22h-22v-22h-44v-18h-62v-24h-42v-20h-104v-22h-66v-12l26 -92h-8l36 -126h-26q2 -6 2 -11v-9h-12 q2 -6 2 -12l-146 -38l-2 16l-28 -6l-12 60l-12 -4t-8 -2l-54 214h-72v22h-86v22h-66v20h-18v24h-20v18h-24v22h-18v22h-22v22h-20v42h-24v42h-20v62h-22v62h-20z" />
<glyph unicode="&#xe8;" d="M222 348h20v-106h22v-42h20v-24h24v-40h20v-22h42v-22h20v-18h22v-24h42v-20h62v-22h86v-22h274v22h106v22h84v20h84v24h44v18h42v22h20v22h22v126h-22v22h-148v-22h-62v-22h-62v-18h-128v-22h-106v22h-84v18h-44v22h-42v22h-20v22h-22v20h-20v42h-22v64h106v20h548v24 h64v18h22v234h-22v62h-20v42h-22v22h-22v44h-22v20h-18v20h-24v22h-38v22h-24v20h-42v20h-42v22h-358v-22h-44v-20h-40v-20h-44v-22h-42v-22h-22v-20h-20v-44h-20v-20h-22v-22h-20v-42h-24v-42h-20v-42h-22v-106h-20v-252zM366 1334l68 116l8 -6l8 12l12 -6l8 18l136 -80 l-8 -16l90 -52q8 12 8 14l162 -92l-10 -16l26 -16l-8 -18l8 -10l-74 -132l-12 6l-6 -12h-4l-8 4l-2 -4h-30l-350 206l14 22q-16 20 -26 26l-2 28zM496 624v40h22v42h20v20h22v24h20v18h22v22h20v22h24v22h42v20h102v-20h66v-22h20v-22h42v-40h22v-24h20v-20h24v-42h-24v-22 h-188v-18h-276z" />
<glyph unicode="&#xe9;" d="M222 348v252h20v106h22v42h20v42h24v42h20v22h22v20h20v44h20v20h22v22h42v22h44v20h40v20h44v22h86l-8 14l-10 -6l-74 132l10 8l-10 18l28 18l-8 16l158 90l8 -12l90 52l-8 16l136 78l8 -16l12 6l6 -12l12 6l66 -118l-8 -8l20 -36l-44 -22q10 -16 10 -18l-354 -206h232 v-22h42v-20h42v-20h24v-22h38v-22h24v-20h18v-20h22v-44h22v-22h22v-42h20v-62h22v-234h-22v-18h-64v-24h-548v-20h-106v-64h22v-42h20v-20h22v-22h20v-22h42v-22h44v-18h84v-22h106v22h128v18h62v22h62v22h148v-22h22v-126h-22v-22h-20v-22h-42v-18h-44v-24h-84v-20h-84 v-22h-106v-22h-274v22h-86v22h-62v20h-42v24h-22v18h-20v22h-42v22h-20v40h-24v24h-20v42h-22v106h-20zM496 624h276v18h188v22h24v42h-24v20h-20v24h-22v40h-42v22h-20v22h-66v20h-102v-20h-42v-22h-24v-22h-20v-22h-22v-18h-20v-24h-22v-20h-20v-42h-22v-40zM668 1044h14 l-2 6z" />
<glyph unicode="&#xea;" d="M222 348v252h20v106h22v42h20v42h24v42h20v22h22v20h20v44h20v20h22v22h42v22h44v20h40v20h44v22h48l-68 40l2 8l-36 26l24 22q-12 6 -14 6l168 284q2 8 2 13v7l14 -8v10l44 -22l42 22v-10l16 8v-22l168 -282l-22 -12l6 -18l-10 -24v-6q0 -2 2 -2l-68 -40h40v-22h42v-20 h42v-20h24v-22h38v-22h24v-20h18v-20h22v-44h22v-22h22v-42h20v-62h22v-234h-22v-18h-64v-24h-548v-20h-106v-64h22v-42h20v-20h22v-22h20v-22h42v-22h44v-18h84v-22h106v22h128v18h62v22h62v22h148v-22h22v-126h-22v-22h-20v-22h-42v-18h-44v-24h-84v-20h-84v-22h-106v-22 h-274v22h-86v22h-62v20h-42v24h-22v18h-20v22h-42v22h-20v40h-24v24h-20v42h-22v106h-20zM496 624h276v18h188v22h24v42h-24v20h-20v24h-22v40h-42v22h-20v22h-66v20h-102v-20h-42v-22h-24v-22h-20v-22h-22v-18h-20v-24h-22v-20h-20v-42h-22v-40zM696 1044h136l-58 104l8 4 l-18 32l-20 -32q16 -4 14 -4z" />
<glyph unicode="&#xeb;" d="M222 348h20v-106h22v-42h20v-24h24v-40h20v-22h42v-22h20v-18h22v-24h42v-20h62v-22h86v-22h274v22h106v22h84v20h84v24h44v18h42v22h20v22h22v126h-22v22h-148v-22h-62v-22h-62v-18h-128v-22h-106v22h-84v18h-44v22h-42v22h-20v22h-22v20h-20v42h-22v64h106v20h548v24 h64v18h22v234h-22v62h-20v42h-22v22h-22v44h-22v20h-18v20h-24v22h-38v22h-24v20h-42v20h-42v22h-358v-22h-44v-20h-40v-20h-44v-22h-42v-22h-22v-20h-20v-44h-20v-20h-22v-22h-20v-42h-24v-42h-20v-42h-22v-106h-20v-252zM374 1122v192h22v20h18v24h66v18h84v-18h62v-24h24 v-20h18v-192h-18v-40h-24v-22h-62v-22h-84v22h-66v44h-18v18h-22zM496 624v40h22v42h20v20h22v24h20v18h22v22h20v22h24v22h42v20h102v-20h66v-22h20v-22h42v-40h22v-24h20v-20h24v-42h-24v-22h-188v-18h-276zM852 1166v130h22v38h42v24h42v18h84v-18h64v-24h22v-20h18v-210 h-18v-22h-22v-22h-22v-22h-144v6h-4v16h-42v44h-20v62h-22z" />
<glyph unicode="&#xec;" d="M242 44h22v-44h44v-20h104v20h612v-20h170v20h42v22h20v148h-44v22h-336v22h-40v18h-24v594h24v126h-24v62h-42v22h-146v-22h-192v-18h-168v-24h-22v-126h22v-20h22v-22h148v22h82v-22h66v-572h-44v-18h-40v-22h-212v-22h-22v-40h-22v-86zM292 1334l68 118l10 -6l8 12 l10 -6l10 18l136 -80l-8 -16l90 -52l8 12l160 -92l-8 -14l26 -16l-10 -18l10 -10l-76 -132l-10 6l-6 -14l-14 6l-6 -14h-8l-366 216l12 22q-12 18 -24 26l-4 28z" />
<glyph unicode="&#xed;" d="M242 44v86h22v40h22v22h212v22h40v18h44v572h-66v22h-82v-22h-148v22h-22v20h-22v126h22v24h168v18h192v22h82l-8 14l-10 -6l-8 14l-10 -6l-74 132l8 8l-8 18l28 18l-8 16l158 90l8 -12l90 52l-8 16l134 78l8 -16l14 6l6 -12l10 6l68 -118l-10 -8l22 -36l-44 -22 q10 -16 10 -18l-368 -214h56v-22h42v-62h24v-126h-24v-594h24v-18h40v-22h336v-22h44v-148h-20v-22h-42v-20h-170v20h-612v-20h-104v20h-44v44h-22z" />
<glyph unicode="&#xee;" d="M242 44v86h22v40h22v22h212v22h40v18h44v572h-66v22h-82v-22h-148v22h-22v20h-22v126h22v24h168v18h170l-2 2l-96 56l2 10l-36 24l22 22q-12 6 -14 6l168 286q2 6 2 11v7l14 -8v10l44 -20l44 20v-10l14 8v-20l170 -284l-24 -12l6 -18l-10 -22v-6q0 -2 2 -4l-96 -56l-4 -2 h4v-62h24v-126h-24v-594h24v-18h40v-22h336v-22h44v-148h-20v-22h-42v-20h-170v20h-612v-20h-104v20h-44v44h-22zM620 1014h4v10l-4 2v-12zM638 1036h132v-22h20v12l-8 -4l-68 114l8 6l-18 32l-18 -32q8 -6 12 -6z" />
<glyph unicode="&#xef;" d="M242 44h22v-44h44v-20h104v20h612v-20h170v20h42v22h20v148h-44v22h-336v22h-40v18h-24v594h24v126h-24v62h-42v22h-146v-22h-192v-18h-168v-24h-22v-126h22v-20h22v-22h148v22h82v-22h66v-572h-44v-18h-40v-22h-212v-22h-22v-40h-22v-86zM314 1122v192h22v20h18v24h66 v18h86v-18h62v-24h22v-20h18v-192h-18v-40h-22v-22h-62v-22h-86v22h-66v44h-18v18h-22zM792 1166v130h22v38h42v24h44v18h82v-18h64v-24h22v-20h20v-210h-20v-22h-22v-22h-20v-22h-150v22h-42v44h-20v62h-22z" />
<glyph unicode="&#xf0;" d="M264 436v212h20v84h22v18h22v66h22v22h18v22h24v18h20v24h42v20h42v22h20v20h64v22h212v-22h62v-20h42v-22h64v20h-20v44h-24v40h-18v44h-22v42h-22v6l-270 -124l-8 14l-18 -6l-8 14l-16 -6l-76 158l16 6l-6 12l50 24l-4 16l156 76h-28v20h-84v22h-104v20h-42v172h42v18 h124v-18h128v-22h44v-22h42v-22h62v-18h22v-24h42v-4l182 82l8 -20l16 6l6 -12l18 6l68 -138l-20 -8l18 -30l-70 -34q4 -6 5 -11t3 -7l-64 -30v-10h20v-42h22v-42h20v-66h20v-62h22v-84h22v-106h22v-338h-22v-106h-22v-82h-22v-44h-20v-42h-20v-42h-22v-24h-20v-40h-22v-22 h-20v-22h-22v-20h-44v-18h-40v-24h-86v-20h-212v20h-84v24h-42v18h-20v20h-22v22h-40v22h-42v40h-24v24h-18v42h-22v42h-22v64h-22v126h-20zM518 394h20v-64h22v-20h18v-42h24v-22h20v-20h22v-24h44v-18h124v18h20v24h22v20h22v22h22v20h18v42h24v44h20v62h22v128h-22v42 h-20v42h-24v20h-18v20h-22v22h-22v20h-42v22h-62v22h-44v-22h-62v-22h-42v-20h-24v-22h-18v-40h-22v-22h-20v-232zM980 878h2v2h-2v-2z" />
<glyph unicode="&#xf1;" d="M116 826v126h20v20h42v24h108v18h188v-18h24v-24h18v-38h20v18h24v20h42v24h84v18h64v22h252v-22h24v-18h38v-24h44v-20h22v-18h18v-24h24v-42h20v-62h22v-592h22v-22h106v-22h40v-170h-40v-20h-234v20h-210v44h-22v86h22v18h22v22h18v22h24v22h20v252h18v126h-18v106 h-20v44h-24v18h-18v22h-22v22h-44v22h-82v-22h-44v-22h-62v-22h-42v-18h-64v-44h-22v-190h-22v-170h22v-124h22v-22h106v-22h44v-22h18v-18h22v-86h-22v-22h-18v-22h-466v22h-22v22h-22v86h22v40h22v22h42v22h20v568h-20v22h-150v22h-20zM318 1128v192h20v18h62v24h276v-24 h232v24h230v-24h22v-18h20v-170h-20v-42h-84v-22h-716v22h-22v20h-20z" />
<glyph unicode="&#xf2;" d="M212 340h22v-44h18v-62h24v-42h20v-42h22v-22h20v-20h20v-24h42v-18h24v-22h40v-22h62v-22h66v-20h272v20h88v22h40v22h44v22h18v18h22v24h44v20h18v22h24v18h20v24h22v20h22v44h22v102h18v66h22v210h-22v106h-18v42h-22v42h-22v22h-22v44h-20v20h-24v24h-18v18h-22v20 h-22v24h-62v18h-62v22h-106v22h-210v-22h-86v-22h-42v-18h-44v-24h-40v-20h-24v-18h-20v-24h-42v-20h-20v-44h-22v-22h-20v-42h-24v-42h-18v-62h-22v-338zM312 1324l68 116l10 -6l8 14l10 -8l10 18l134 -80l-6 -14l90 -54q8 12 8 14l160 -92l-8 -16l26 -14l-10 -20l10 -8 l-66 -116h-110l-310 184l12 22l-14 14l-10 10l-4 28zM444 466v86h20v82h24v64h18v44h22v18h22v22h22v22h18v22h44v20h190v-20h42v-22h44v-22h18v-22h24v-18h20v-66h18v-18h22v-44h22v-84h22v-42h-22v-84h-22v-44h-22v-40h-18v-44h-20v-20h-24v-24h-40v-18h-44v-22h-62v-22 h-64v22h-62v22h-42v18h-24v24h-18v20h-22v22h-22v22h-22v40h-18v22h-24v84h-20z" />
<glyph unicode="&#xf3;" d="M212 340v338h22v62h18v42h24v42h20v22h22v44h20v20h42v24h20v18h24v20h40v24h44v18h42v22h86v22h80l-72 126l10 8l-10 18l30 18l-8 16l158 90l6 -12l90 52q-2 6 -4 10t-2 6l134 78l8 -16l14 6l4 -12l12 6l68 -118l-10 -8l22 -36l-44 -22q10 -16 10 -18l-330 -192h44v-22 h106v-22h62v-18h62v-24h22v-20h22v-18h18v-24h24v-20h20v-44h22v-22h22v-42h22v-42h18v-106h22v-210h-22v-66h-18v-102h-22v-44h-22v-20h-22v-24h-20v-18h-24v-22h-18v-20h-44v-24h-22v-18h-18v-22h-44v-22h-40v-22h-88v-20h-272v20h-66v22h-62v22h-40v22h-24v18h-42v24h-20 v20h-20v22h-22v42h-20v42h-24v62h-18v44h-22zM444 466h20v-84h24v-22h18v-40h22v-22h22v-22h22v-20h18v-24h24v-18h42v-22h62v-22h64v22h62v22h44v18h40v24h24v20h20v44h18v40h22v44h22v84h22v42h-22v84h-22v44h-22v18h-18v66h-20v18h-24v22h-18v22h-44v22h-42v20h-190v-20 h-44v-22h-18v-22h-22v-22h-22v-18h-22v-44h-18v-64h-24v-82h-20v-86z" />
<glyph unicode="&#xf4;" d="M212 340v338h22v62h18v42h24v42h20v22h22v44h20v20h42v24h20v18h24v20h40v24h44v18h42v22h86v14l-80 46l2 10l-36 24l24 22q-12 6 -14 6l168 286q2 10 2 18l14 -6v8l44 -20l42 20v-8l16 6v-20l168 -284l-22 -10l6 -20l-10 -22v-6q0 -2 2 -4l-98 -56l-6 -4h94v-22h62v-18 h62v-24h22v-20h22v-18h18v-24h24v-20h20v-44h22v-22h22v-42h22v-42h18v-106h22v-210h-22v-66h-18v-102h-22v-44h-22v-20h-22v-24h-20v-18h-24v-22h-18v-20h-44v-24h-22v-18h-18v-22h-44v-22h-40v-22h-88v-20h-272v20h-66v22h-62v22h-40v22h-24v18h-42v24h-20v20h-20v22h-22 v42h-20v42h-24v62h-18v44h-22zM444 466h20v-84h24v-22h18v-40h22v-22h22v-22h22v-20h18v-24h24v-18h42v-22h62v-22h64v22h62v22h44v18h40v24h24v20h20v44h18v40h22v44h22v84h22v42h-22v84h-22v44h-22v18h-18v66h-20v18h-24v22h-18v22h-44v22h-42v20h-190v-20h-44v-22h-18 v-22h-22v-22h-22v-18h-22v-44h-18v-64h-24v-82h-20v-86zM690 1058h136l-58 102l8 6l-18 32l-20 -32q12 -6 14 -6z" />
<glyph unicode="&#xf5;" d="M212 340v338h22v62h18v42h24v42h20v22h22v44h20v20h42v24h20v18h24v20h40v24h44v18h42v22h86v10h-256v22h-22v20h-20v190h20v22h62v22h276v-22h232v22h230v-22h22v-22h20v-168h-20v-42h-84v-22h-250v-10h106v-22h62v-18h62v-24h22v-20h22v-18h18v-24h24v-20h20v-44h22 v-22h22v-42h22v-42h18v-106h22v-210h-22v-66h-18v-102h-22v-44h-22v-20h-22v-24h-20v-18h-24v-22h-18v-20h-44v-24h-22v-18h-18v-22h-44v-22h-40v-22h-88v-20h-272v20h-66v22h-62v22h-40v22h-24v18h-42v24h-20v20h-20v22h-22v42h-20v42h-24v62h-18v44h-22zM444 466h20v-84 h24v-22h18v-40h22v-22h22v-22h22v-20h18v-24h24v-18h42v-22h62v-22h64v22h62v22h44v18h40v24h24v20h20v44h18v40h22v44h22v84h22v42h-22v84h-22v44h-22v18h-18v66h-20v18h-24v22h-18v22h-44v22h-42v20h-190v-20h-44v-22h-18v-22h-22v-22h-22v-18h-22v-44h-18v-64h-24v-82 h-20v-86z" />
<glyph unicode="&#xf6;" d="M212 340h22v-44h18v-62h24v-42h20v-42h22v-22h20v-20h20v-24h42v-18h24v-22h40v-22h62v-22h66v-20h272v20h88v22h40v22h44v22h18v18h22v24h44v20h18v22h24v18h20v24h22v20h22v44h22v102h18v66h22v210h-22v106h-18v42h-22v42h-22v22h-22v44h-20v20h-24v24h-18v18h-22v20 h-22v24h-62v18h-62v22h-106v22h-210v-22h-86v-22h-42v-18h-44v-24h-40v-20h-24v-18h-20v-24h-42v-20h-20v-44h-22v-22h-20v-42h-24v-42h-18v-62h-22v-338zM364 1128v192h22v20h18v24h66v18h84v-18h62v-24h24v-20h18v-192h-18v-40h-24v-22h-62v-22h-84v22h-66v44h-18v18h-22z M444 466v86h20v82h24v64h18v44h22v18h22v22h22v22h18v22h44v20h190v-20h42v-22h44v-22h18v-22h24v-18h20v-66h18v-18h22v-44h22v-84h22v-42h-22v-84h-22v-44h-22v-40h-18v-44h-20v-20h-24v-24h-40v-18h-44v-22h-62v-22h-64v22h-62v22h-42v18h-24v24h-18v20h-22v22h-22v22 h-22v40h-18v22h-24v84h-20zM842 1172v130h22v38h42v24h44v18h82v-18h64v-24h22v-20h18v-210h-18v-22h-22v-22h-22v-22h-148v22h-42v44h-20v62h-22z" />
<glyph unicode="&#xf7;" d="M310 474v194h20v20h64v24h240v22h-18v22h-24v64h-20v86h20v64h24v22h18v22h196v-22h18v-22h44v-64h24v-86h-24v-64h-20v-22h-42v-22h-154v-24h236v24h234v-24h22v-20h22v-172h-22v-44h-86v-20h-728v20h-24v22h-20zM572 218v86h20v44h24v42h40v22h130v-22h62v-20h44v-44 h24v-150h-24v-22h-20v-22h-24v-20h-214v20h-18v22h-24v64h-20z" />
<glyph unicode="&#xf8;" d="M212 340v338h22v62h18v42h24v42h20v22h22v44h20v20h42v24h20v18h24v20h40v24h44v18h42v22h86v22h178v22h20v64h24v62h18v64h22v40h22v66h18v42h22v20h150v-20h20v-24h22v-148h-22v-40h-20v-44h-22v-44h-20v-60h-24v-62h32v-24h22v-20h22v-18h18v-24h24v-20h20v-44h22v-22 h22v-42h22v-42h18v-106h22v-210h-22v-66h-18v-102h-22v-44h-22v-20h-22v-24h-20v-18h-24v-22h-18v-20h-44v-24h-22v-18h-18v-22h-44v-22h-40v-22h-88v-20h-198v-20h-20v-66h-22v-62h-20v-84h-22v-86h-20v-18h-22v-24h-64v-20h-86v20h-20v24h-22v126h22v84h20v62h22v66h20v62 h-8v22h-24v18h-42v24h-20v20h-20v22h-22v42h-20v42h-24v62h-18v44h-22zM444 466h20v-84h24v-22h18v-40h22v-22h12v20h20v66h24v42h18v42h20v62h22v86h20v62h22v42h20v64h24v62h-96v-20h-44v-22h-18v-22h-22v-22h-22v-18h-22v-44h-18v-64h-24v-82h-20v-86zM728 170h54v22h62 v22h44v18h40v24h24v20h20v44h18v40h22v44h22v84h22v42h-22v84h-22v44h-22v18h-18v66h-20v18h-12v-40h-20v-64h-22v-62h-20v-42h-22v-66h-20v-62h-22v-42h-20v-62h-24v-66h-20v-42h-22v-42z" />
<glyph unicode="&#xf9;" d="M116 850h20v-20h24v-22h102v-20h22v-42h22v-2h-22v-148h22v-42h-22v-82h22v-44h-22v-84h22v-128h20v-62h24v-22h18v-42h44v-20h22v-24h18v-20h44v-22h64v-20h190v20h106v22h62v20h62v24h2v-24h18v-20h44v-22h128v22h64v20h40v24h86v20h20v106h-20v42h-104v22h-44v20h-22 v486h22v170h-22v62h-20v22h-128v-22h-106v-22h-104v-20h-22v-126h22v-22h104v-20h22v-22h22v-464h-22v-22h-22v-20h-22v-22h-62v-20h-42v-22h-124v22h-64v20h-42v22h-22v42h-22v20h-22v62h-18v318h18v296h-18v22h-172v-22h-148v-22h-42v-40h-20v-86zM300 1330l68 116l10 -6 l6 14l12 -8l10 18l134 -80l-6 -16l90 -52q6 8 6 14l162 -92l-10 -16l28 -14l-10 -20l10 -8l-76 -134l-12 6l-4 -14l-14 6l-8 -18l-374 220l14 24l-14 14l-10 10l-4 28z" />
<glyph unicode="&#xfa;" d="M116 850v86h20v40h42v22h148v22h172v-22h18v-296h-18v-318h18v-62h22v-20h22v-42h22v-22h42v-20h64v-22h124v22h42v20h62v22h22v20h22v22h22v464h-22v22h-22v20h-104v22h-22v126h22v20h104v22h106v22h128v-22h20v-62h22v-170h-22v-486h22v-20h44v-22h104v-42h20v-106h-20 v-20h-86v-24h-40v-20h-64v-22h-128v22h-44v20h-18v24h-2v-24h-62v-20h-62v-22h-106v-20h-190v20h-64v22h-44v20h-18v24h-22v20h-44v42h-18v22h-24v62h-20v128h-22v84h22v44h-22v82h22v42h-22v148h22v2h-22v42h-22v20h-102v22h-24v20h-20zM624 1184l8 8l-8 18l28 18l-8 16 l158 90l8 -12l90 52l-8 16l134 78l8 -16l14 6l6 -12l10 6l68 -118l-10 -8l22 -36l-44 -22q10 -16 10 -18l-374 -218l-10 18l-10 -6l-8 14l-10 -6z" />
<glyph unicode="&#xfb;" d="M116 850v86h20v40h42v22h148v22h172v-22h18v-296h-18v-318h18v-62h22v-20h22v-42h22v-22h42v-20h64v-22h124v22h42v20h62v22h22v20h22v22h22v464h-22v22h-22v20h-104v22h-22v126h22v20h104v22h106v22h128v-22h20v-62h22v-170h-22v-486h22v-20h44v-22h104v-42h20v-106h-20 v-20h-86v-24h-40v-20h-64v-22h-128v22h-44v20h-18v24h-2v-24h-62v-20h-62v-22h-106v-20h-190v20h-64v22h-44v20h-18v24h-22v20h-44v42h-18v22h-24v62h-20v128h-22v84h22v44h-22v82h22v42h-22v148h22v2h-22v42h-22v20h-102v22h-24v20h-20zM464 1124l22 24q-4 0 -6 1t-4 1 t-2 2l166 286q0 4 1 6t1 6v6l16 -6v8l42 -20l44 20v-8l14 6v-20l170 -284l-24 -10l6 -20l-8 -22v-6q0 -2 2 -4l-98 -56l-20 -10l-2 20l-8 -4l-68 114l10 6l-20 32l-18 -32l12 -6l-66 -114l-12 6v-22l-18 10l-98 56l2 10z" />
<glyph unicode="&#xfc;" d="M116 850h20v-20h24v-22h102v-20h22v-42h22v-2h-22v-148h22v-42h-22v-82h22v-44h-22v-84h22v-128h20v-62h24v-22h18v-42h44v-20h22v-24h18v-20h44v-22h64v-20h190v20h106v22h62v20h62v24h2v-24h18v-20h44v-22h128v22h64v20h40v24h86v20h20v106h-20v42h-104v22h-44v20h-22 v486h22v170h-22v62h-20v22h-128v-22h-106v-22h-104v-20h-22v-126h22v-22h104v-20h22v-22h22v-464h-22v-22h-22v-20h-22v-22h-62v-20h-42v-22h-124v22h-64v20h-42v22h-22v42h-22v20h-22v62h-18v318h18v296h-18v22h-172v-22h-148v-22h-42v-40h-20v-86zM328 1118v190h24v22h18 v22h66v18h84v-18h62v-22h22v-22h20v-190h-20v-42h-22v-20h-62v-24h-84v24h-66v42h-18v20h-24zM808 1160v130h22v40h42v22h42v18h82v-18h64v-22h24v-22h18v-210h-18v-22h-24v-20h-20v-24h-148v24h-44v42h-18v62h-22z" />
<glyph unicode="&#xfd;" d="M150 868v84h22v42h126v22h168v-22h170v-20h42v-128h-22v-20h-62v-20h-22v-22h22v-42h20v-42h22v-42h20v-44h22v-42h22v-42h18v-20h22v-66h22v-42h22v-18h20v18h20v66h22v62h20v42h24v42h20v64h20v64h20v62h22v2h-22v20h-104v20h-22v22h-20v84h20v42h188v22h300v-22h20 v-42h18v-84h-18v-42h-64v-20h-64v-24h-20v-42h-22v-62h-20v-64h-22v-44h-20v-62h-24v-42h-18v-62h-22v-22h-22v-62h-20v-44h-20v-42h-22v-64h-22v-22h-20v-40h-22v-44h-20v-18h-22v-66h-20v-44h-24v-40h-18v-40h-22v-66h-22v-44h-22v-18h-18v-44h-22v-40h-42v-24h-22v-20 h-42v-20h-20v-22h-86v-20h-148v20h-62v22h-22v20h-20v126h20v44h22v22h188v-22h44v22h42v40h20v44h22v20h20v42h22v44h22v40h18v44h22v82h-22v44h-18v42h-22v42h-22v20h-20v42h-22v44h-20v22h-22v42h-20v20h-24v42h-18v62h-22v44h-22v42h-22v42h-18v42h-24v42h-20v24h-20v20 h-126v42h-22zM640 1114l8 6l-8 20l28 16l-8 18l158 90l8 -14l90 52l-8 16l134 78l8 -16l14 8l6 -14l10 6l68 -118l-10 -8l22 -36l-44 -22q2 -6 8 -12q2 -2 2 -4l-374 -218l-10 16l-10 -6l-8 14l-10 -6z" />
<glyph unicode="&#xfe;" d="M264 304h22v664h-22v398h22v24h18v20h170v-20h42v-86h22v-284h62v22h296v-22h42v-22h64v-22h40v-20h24v-20h20v-22h22v-20h20v-22h22v-42h20v-20h22v-66h20v-146h22v-234h-22v-42h-20v-44h-22v-40h-20v-40h-22v-24h-20v-20h-22v-22h-20v-22h-24v-20h-18v-20h-64v-24h-42 v-20h-106v-22h-212v22h-62v-376h-22v-22h-20v-20h-192v20h-18v62h-22v614zM538 260h22v-22h42v-20h42v-22h126v22h42v20h42v22h20v20h22v22h20v40h22v42h22v44h18v190h-18v42h-22v20h-22v22h-20v20h-22v24h-20v20h-22v22h-20v20h-42v22h-168v-22h-42v-20h-22v-528z" />
<glyph unicode="&#xff;" d="M150 868h22v-42h126v-20h20v-24h20v-42h24v-42h18v-42h22v-42h22v-44h22v-62h18v-42h24v-20h20v-42h22v-22h20v-44h22v-42h20v-20h22v-42h22v-42h18v-44h22v-82h-22v-44h-18v-40h-22v-44h-22v-42h-20v-20h-22v-44h-20v-40h-42v-22h-44v22h-188v-22h-22v-44h-20v-126h20 v-20h22v-22h62v-20h148v20h86v22h20v20h42v20h22v24h42v40h22v44h18v18h22v44h22v66h22v40h18v40h24v44h20v66h22v18h20v44h22v40h20v22h22v64h22v42h20v44h20v62h22v22h22v62h18v42h24v62h20v44h22v64h20v62h22v42h20v24h64v20h64v42h18v84h-18v42h-20v22h-300v-22h-188 v-42h-20v-84h20v-22h22v-20h104v-20h22v-2h-22v-62h-20v-64h-20v-64h-20v-42h-24v-42h-20v-62h-22v-66h-20v-18h-20v18h-22v42h-22v66h-22v20h-18v42h-22v42h-22v44h-20v42h-22v42h-20v42h-22v22h22v20h62v20h22v128h-42v20h-170v22h-168v-22h-126v-42h-22v-84zM404 1136 v192h24v20h18v22h66v20h84v-20h62v-22h22v-20h20v-192h-20v-42h-22v-20h-62v-22h-84v22h-66v44h-18v18h-24zM884 1180v128h22v40h42v22h42v20h84v-20h62v-22h24v-20h18v-210h-18v-24h-24v-20h-20v-22h-148v22h-44v44h-18v62h-22z" />
<glyph unicode="&#x178;" d="M106 1310h44v-22h90v-22h22v-46h22v-22h22v-44h20v-24h26v-44h20v-22h24v-44h20v-46h26v-20h20v-44h24v-46h20v-24h24v-44h20v-22h24v-22h22v-68h22v-20h22v-44h22v-360h-22v-24h-22v-22h-112v-22h-44v-46h-20v-86h20v-44h200v-22h244v22h90v-22h110v22h70v44h20v110h-20 v22h-46v22h-202v46h-22v404h22v42h24v46h22v22h22v46h22v44h22v20h20v46h26v24h20v66h24v22h20v22h26v44h20v46h24v44h20v22h24v24h22v44h66v22h22v24h20v152h-42v24h-130v-24h-336v-22h-22v-130h22v-24h44v-22h66v-94h-22v-20h-20v-44h-24v-44h-20v-46h-24v-44h-22v-46h-24 v-22h-20v-22h-24v-46h-2v46h-22v22h-22v22h-24v46h-22v44h-20v46h-22v20h-22v44h-24v24h-22v46h-22v44h-22v46h90v24h22v22h22v86h-22v44h-112v24h-178v-24h-2v24h-220v-24h-44v-176zM386 1560v194h24v22h18v22h68v20h86v-20h62v-22h24v-22h18v-194h-18v-42h-24v-22h-62v-10 h-32v24h-122v30h-18v20h-24zM874 1604v132h22v40h42v22h44v20h84v-20h66v-22h22v-22h20v-214h-20v-22h-22v-22h-22v-10h-150v10h-44v44h-20v64h-22z" />
<glyph unicode="&#x2c6;" d="M514 1616l22 22l-12 6l170 290q2 8 2 13v7l14 -8v10l44 -22l44 22v-10l16 8v-22l172 -288l-24 -12l6 -18l-10 -24v-6q0 -2 2 -4l-98 -56l-20 -12l-2 20l-10 -2l-68 116l10 6l-20 32l-18 -32l12 -6l-68 -116l-12 4v-22l-18 12l-100 56l2 10z" />
<glyph unicode="&#x2000;" horiz-adv-x="987" />
<glyph unicode="&#x2001;" horiz-adv-x="1974" />
<glyph unicode="&#x2002;" horiz-adv-x="987" />
<glyph unicode="&#x2003;" horiz-adv-x="1974" />
<glyph unicode="&#x2004;" horiz-adv-x="658" />
<glyph unicode="&#x2005;" horiz-adv-x="493" />
<glyph unicode="&#x2006;" horiz-adv-x="329" />
<glyph unicode="&#x2007;" horiz-adv-x="329" />
<glyph unicode="&#x2008;" horiz-adv-x="246" />
<glyph unicode="&#x2009;" horiz-adv-x="394" />
<glyph unicode="&#x200a;" horiz-adv-x="109" />
<glyph unicode="&#x2010;" d="M386 550v196h22v18h62v24h282v-24h84v24h232v-24h24v-18h20v-172h-20v-44h-86v-22h-576v22h-22v20h-22z" />
<glyph unicode="&#x2011;" d="M386 550v196h22v18h62v24h282v-24h84v24h232v-24h24v-18h20v-172h-20v-44h-86v-22h-576v22h-22v20h-22z" />
<glyph unicode="&#x2012;" d="M386 550v196h22v18h62v24h282v-24h84v24h232v-24h24v-18h20v-172h-20v-44h-86v-22h-576v22h-22v20h-22z" />
<glyph unicode="&#x2013;" d="M310 504v196h20v20h64v24h282v-24h236v24h234v-24h22v-20h22v-172h-22v-42h-86v-24h-728v24h-24v18h-20z" />
<glyph unicode="&#x2014;" d="M-26 550v196h22v18h62v24h282v-24h910v24h232v-24h24v-18h20v-172h-20v-44h-86v-22h-1402v22h-22v20h-22z" />
<glyph unicode="&#x2018;" d="M568 1404v170h20v24h22v20h64v24h130v-24h64v-20h44v-42h20v-132h-20v-130h-22v-342h-22v-22h-22v-20h-172v20h-20v22h-22v130h-22v212h-22v110h-20z" />
<glyph unicode="&#x2019;" d="M568 1404v170h20v24h22v20h64v24h130v-24h64v-20h44v-42h20v-132h-20v-130h-22v-342h-22v-22h-22v-20h-172v20h-20v22h-22v130h-22v212h-22v110h-20z" />
<glyph unicode="&#x201a;" d="M556 -228h20v42h22v22h22v42h22v22h20v22h20v20h-20v24h-20v20h-22v64h-22v108h22v66h42v20h44v24h128v-24h22v-20h44v-24h20v-42h22v-302h-22v-44h-20v-18h-22v-24h-22v-20h-22v-24h-20v-18h-22v-22h-22v-22h-22v-22h-40v-22h-88v22h-44v44h-20v86z" />
<glyph unicode="&#x201c;" d="M278 1386v194h20v24h22v18h216v-18h42v-24h22v-194h-22v-170h-22v-238h-20v-22h-22v-20h-130v20h-22v22h-20v108h-22v150h-22v150h-20zM900 1408v172h22v24h42v18h194v-18h42v-24h22v-216h-22v-320h-20v-66h-22v-22h-22v-20h-130v20h-20v22h-22v108h-22v192h-20v130h-22z " />
<glyph unicode="&#x201d;" d="M278 1386v194h20v24h22v18h216v-18h42v-24h22v-194h-22v-170h-22v-238h-20v-22h-22v-20h-130v20h-22v22h-20v108h-22v150h-22v150h-20zM900 1408v172h22v24h42v18h194v-18h42v-24h22v-216h-22v-320h-20v-66h-22v-22h-22v-20h-130v20h-20v22h-22v108h-22v192h-20v130h-22z " />
<glyph unicode="&#x201e;" d="M384 -228h20v42h22v22h22v42h22v22h20v22h20v20h-20v24h-20v20h-22v64h-22v108h22v66h42v20h44v24h128v-24h22v-20h44v-24h20v-42h44v66h42v20h44v24h128v-24h22v-20h44v-24h20v-42h22v-302h-22v-44h-20v-18h-22v-24h-22v-20h-22v-24h-20v-18h-22v-22h-22v-22h-22v-22 h-40v-22h-88v22h-44v44h-20v86h20v40h-20v-18h-22v-24h-22v-20h-22v-24h-20v-18h-22v-22h-22v-22h-22v-22h-40v-22h-88v22h-44v44h-20v86zM748 -144v-42h22v22h22v42h22v22h20v22h20v20h-20v24h-20v20h-22v64h-22v-194h-22z" />
<glyph unicode="&#x2022;" d="M534 694v106h24v88h20v20h24v22h20v22h86v22h84v-22h86v-22h24v-22h20v-42h24v-44h20v-86h-20v-64h-24v-22h-20v-20h-24v-22h-18v-22h-24v-22h-128v22h-62v22h-44v22h-24v20h-20v44h-24z" />
<glyph unicode="&#x2026;" d="M-32 -14v108h22v88h22v18h22v24h22v20h86v24h84v-24h86v-20h22v-24h22v-42h22v-44h22v-86h-22v-62h-22v-24h-22v-18h-22v-24h-20v-20h-22v-24h-128v24h-64v20h-44v24h-22v18h-22v44h-22zM534 -14v108h22v88h22v18h22v24h22v20h86v24h84v-24h86v-20h22v-24h22v-42h22v-44 h22v-86h-22v-62h-22v-24h-22v-18h-22v-24h-20v-20h-22v-24h-128v24h-64v20h-44v24h-22v18h-22v44h-22zM1100 -14v108h22v88h22v18h22v24h22v20h86v24h84v-24h86v-20h22v-24h22v-42h22v-44h22v-86h-22v-62h-22v-24h-22v-18h-22v-24h-20v-20h-22v-24h-128v24h-64v20h-44v24 h-22v18h-22v44h-22z" />
<glyph unicode="&#x202f;" horiz-adv-x="394" />
<glyph unicode="&#x2039;" d="M416 534l6 14l-4 2v132l4 2l-6 18l486 360l12 -34q12 4 23 7t19 7l24 -10l10 12l94 -160l-16 -8l6 -18l-12 -8l8 -18l-152 -88l-10 12l-166 -138q46 -40 81 -71t85 -71q2 4 6 9t4 7l152 -88l-8 -20l12 -8l-6 -18l16 -8l-94 -158l-10 10l-20 -28l-50 26q-4 -10 -6 -18 t-2 -10z" />
<glyph unicode="&#x203a;" d="M416 350l18 8l-8 18l12 8l-6 20l150 88l10 -16q44 38 80 70t86 72q-46 38 -81 69t-85 71q-2 -4 -6 -8t-4 -6l-150 88l6 18l-12 8l8 18l-18 8l94 160l10 -12l18 28l52 -24q10 24 10 26l484 -360l-6 -18l4 -2v-132l-4 -2l6 -14l-484 -362l-14 32l-42 -10l-24 8l-10 -10z " />
<glyph unicode="&#x205f;" horiz-adv-x="493" />
<glyph unicode="&#x20ac;" d="M168 520v106h22v24h22v20h20v72h-42v42h-22v108h22v24h22v20h44v34h18v66h24v64h20v42h24v44h20v22h24v42h18v22h24v22h20v22h24v20h18v22h22v22h42v22h22v20h44v22h64v22h302v-22h108v-22h194v-20h18v-44h24v-106h-24v-152h24v-108h-24v-22h-18v-20h-154v20h-18v44h-24 v108h-20v42h-24v22h-18v22h-24v20h-44v24h-190v-24h-42v-20h-44v-22h-24v-22h-20v-22h-24v-42h-18v-22h-24v-42h-20v-66h-20v-34h256v22h196v-22h320v-20h22v-132h-22v-42h-130v-22h-88v22h-20v-22h-170v22h-24v-22h-362v-26h42v-24h752v-44h22v-472h-24v-22h-18v-22h-24 v-22h-44v-22h-20v-18h-42v-24h-44v-20h-86v-24h-86v-18h-192v18h-108v24h-66v20h-42v24h-44v18h-18v22h-24v22h-20v22h-24v22h-18v42h-24v22h-20v22h-24v64h-20v44h-24v62h-18v66h-44v22h-22v22h-22zM536 436h20v-68h20v-20h24v-42h18v-24h24v-20h20v-24h44v-18h42v-24h44 v-20h128v20h42v24h44v18h24v24h18v44h24v18h20v88h24v64h-388v-22h-192v-18z" />
<glyph unicode="&#x2122;" d="M44 1226v144h12v64h10v10h624v-10h8v10h20v10h206v-10h28v-10h10v-8h12v-22h8v-20h14v-22h10v-30h10v-20h8v-22h10v-18h12v-22h12v-22h8v-18h10v30h10v22h10v18h10v22h12v30h10v30h10v32h10v10h10v22h10v18h266v-10h22v-152h-50v-10h-44v-400h10v-12h34v-10h28v-10h10 v-10h12v-132h-12v-12h-38v-10h-134v10h-154v12h-12v10h-10v112h10v20h12v10h30v10h20v12h12v142h-2v-18h-10v-24h-12v-20h-8v-8h-8v-20h-12v-10h-122v10h-12v10h-10v10h-10v20h-10v8h-10v34h-10v18h-2v-112h10v-32h10v-8h12v-12h42v-10h18v-30h12v-112h-12v-10h-10v-12h-306 v12h-10v142h10v10h10v10h20v12h10v8h10v166h14v226h-14v10h-20v10h-38v-140h-10v-24l-134 14l-8 10h-24v94h-10v10h-12v14h-36v-14h-10v-100h10v-198h-10v-14h10v-96h22v-10h30v-10h76v-14h12v-10h10v-122h-10v-20h-54v-10h-114v10h-288v152h10v14h34v10h42v10h32v12h10v396 h-10v14h-14v-14h-12v-10h-10v-12h-10v-62h-12v-42h-22v-16l-112 16l-8 12h-22v84h-12z" />
<glyph unicode="&#x25fc;" horiz-adv-x="1020" d="M0 0v1020h1020v-1020h-1020z" />
</font>
</defs>
</svg>
