<?xml version="1.0" standalone="no"?>
<!DOCTYPE svg PUBLIC "-//W3C//DTD SVG 1.1//EN" "http://www.w3.org/Graphics/SVG/1.1/DTD/svg11.dtd" >
<svg xmlns="http://www.w3.org/2000/svg" xmlns:xlink="http://www.w3.org/1999/xlink" version="1.1">
<metadata></metadata>
<defs>
<font id="jmh_typewriter_monoregular" horiz-adv-x="1500" >
<font-face units-per-em="2048" ascent="1638" descent="-410" />
<missing-glyph horiz-adv-x="500" />
<glyph horiz-adv-x="0" />
<glyph unicode="&#xd;" />
<glyph />
<glyph />
<glyph unicode=" " />
<glyph unicode="!" d="M582 56v180h20v22h24v24h22v22h44v24h92v-24h20v-22h24v-24h22v-22h24v-24h20v-44h24v-22h-24v-90h-20v-22h-24v-24h-46v-20h-66v-24h-46v24h-44v20h-22v24h-24v22h-20zM582 1204v226h20v66h24v22h22v24h24v20h132v-20h46v-24h24v-46h20v-66h24v-46h-24v-156h-20v-156 h-24v-182h-22v-406h-24v-66h-44v-22h-44v22h-24v24h-20v112h-24v426h-22v178h-24v70h-20z" />
<glyph unicode="&#x22;" d="M290 1450v136h20v24h24v20h158v-20h44v-24h22v-136h-22v-178h-24v-248h-20v-24h-24v-20h-68v20h-22v24h-22v112h-22v158h-24v156h-20zM940 1474v112h24v24h44v20h134v-20h44v-24h24v-158h-24v-336h-20v-68h-24v-24h-22v-20h-68v20h-22v24h-22v112h-24v202h-20v136h-24z " />
<glyph unicode="#" d="M132 372v88h24v24h292v22h44v90h22v68h24v90h-90v22h-202v22h-24v90h24v24h312v22h24v90h22v68h24v134h22v90h24v114h20v88h46v24h66v-24h24v-134h-24v-90h-22v-68h-24v-92h-20v-110h-22v-136h-24v-66h-20v-90h-24v-112h-22v-114h-24v-88h-22v-90h-24v-116h-20v-90h-24 v-132h-22v-136h-24v-90h-20v-46h-24v-20h-22v-24h-20v24h-46v44h-24v66h24v92h22v110h24v70h20v88h22v68h24v92h-24v20h-268v24h-24zM674 -146h20v90h24v112h22v66h20v114h24v68h22v114h24v112h20v90h24v112h22v110h24v92h22v134h24v112h20v114h24v136h22v88h24v24h42v20h24 v-20h20v-24h24v-46h22v-20h-22v-112h-24v-46h-20v-90h-24v-112h-22v-114h-20v-22h20v-44h226v-24h46v-22h20v-68h-20v-22h-136v-22h-24v22h-90v-22h-88v-22h-24v-92h-20v-134h44v-22h224v-24h24v-22h20v-44h-20v-22h-46v-24h-246v-20h-46v-70h-24v-66h-22v-136h-24v-156h-20 v-70h-24v-66h-22v-46h-24v-20h-66v20h-20v136z" />
<glyph unicode="$" d="M278 236v202h24v68h44v24h22v-24h44v-46h22v-66h24v-46h22v-20h24v-24h20v-22h24v-24h46v-22h246v22h46v24h44v22h22v24h24v20h20v46h24v66h22v46h-22v68h-24v22h-20v24h-24v20h-22v24h-44v22h-70v24h-66v22h-66v22h-90v22h-46v22h-44v24h-46v20h-24v24h-22v22h-24v24 h-20v44h-22v46h-24v224h24v44h22v46h20v24h24v44h22v22h46v24h24v22h44v20h46v24h44v22h22v160h24v20h20v24h92v-24h20v-156h24v-24h22v-22h68v-24h66v-20h68v-22h24v-24h20v-22h24v-44h22v-206h-22v-20h-44v-22h-24v22h-68v20h-20v46h-24v136h-22v24h-24v20h-90v24h-112 v-24h-44v-20h-46v-24h-44v-22h-22v-24h-24v-44h-20v-68h-24v-90h24v-20h20v-46h24v-24h22v-22h44v-22h70v-22h112v-24h66v-22h68v-24h66v-20h46v-24h22v-22h24v-22h44v-44h22v-24h24v-66h20v-90h24v-24h-24v-112h-20v-46h-24v-44h-22v-46h-24v-22h-20v-24h-46v-20h-22v-24 h-44v-22h-46v-24h-68v-20h-22v-22h-24v-204h-20v-178h-24v-46h-68v22h-20v24h-24v382h-46v22h-90v20h-112v24h-44v22h-46v24h-20v44h-24z" />
<glyph unicode="%" d="M110 1250v156h22v66h24v24h20v22h24v24h22v20h68v24h68v22h66v-22h114v-24h66v-20h112v-24h68v-22h22v-66h-22v-24h-90v-22h-20v-134h-24v-46h-22v-46h-24v-24h-22v-20h-24v-22h-44v-24h-46v-20h-156v20h-46v24h-44v22h-22v20h-24v24h-20v22h-24v70h-22zM246 1270h20v-44 h24v-22h46v-24h112v24h44v22h22v24h24v44h20v46h-20v66h-24v24h-22v22h-44v20h-90v-20h-46v-22h-22v-24h-24v-46h-20v-90zM358 56h20v46h24v44h22v22h24v90h20v46h24v44h22v46h24v66h20v46h24v68h22v46h24v66h22v46h24v44h20v46h22v44h24v68h20v44h24v70h22v66h24v20h20v70 h24v46h22v44h24v46h22v66h24v66h20v70h24v20h22v24h90v-24h20v-90h-20v-42h-24v-46h-22v-68h-24v-22h-20v-68h-22v-46h-24v-46h-20v-66h-24v-44h-22v-68h-24v-22h-22v-68h-24v-68h-20v-44h-24v-68h-22v-46h-24v-44h-20v-46h-24v-44h-22v-68h-20v-44h-24v-66h-22v-46h-24v-70 h-22v-66h-24v-66h-20v-46h-24v-68h-22v-46h-24v-20h-20v-24h-70v24h-20v156zM830 56v202h20v46h24v44h22v24h46v22h24v24h246v-24h66v-22h24v-24h22v-20h24v-46h20v-70h22v-132h-22v-46h-20v-44h-24v-24h-22v-22h-24v-24h-44v-20h-46v-24h-178v24h-44v20h-46v24h-24v22h-22 v44h-24v46h-20zM942 102h24v-22h20v-24h24v-22h42v-24h70v24h66v22h46v46h24v110h-24v24h-22v46h-24v22h-178v-22h-24v-24h-20v-46h-24v-110z" />
<glyph unicode="&#x26;" d="M108 328v268h24v44h22v46h24v24h22v22h24v22h20v22h24v22h42v24h46v20h44v24h24v68h-24v44h-20v24h-24v46h-22v66h-24v156h24v46h22v44h24v24h20v22h46v24h24v22h46v20h110v24h46v-24h20v24h46v-24h90v-20h24v-22h46v-46h20v-90h-20v-24h-46v-20h-68v20h-22v24h-46v22 h-134v-22h-46v-24h-20v-20h-24v-136h24v-46h20v-20h24v-46h22v-24h24v-22h20v-22h22v-22h24v-24h20v-22h24v-24h22v-20h24v-46h22v-22h24v-22h20v-22h24v-46h22v-24h24v-20h20v-24h24v-46h22v-44h20v-46h24v24h46v180h22v46h24v22h268v-136h-46v-22h-42v-24h-46v-20h-24v-70 h-20v-66h-24v-46h-22v-44h-24v-112h46v-24h24v24h20v20h46v24h66v-24h46v-44h24v-22h-24v-90h-22v-22h-46v-24h-44v-20h-90v20h-66v24h-24v22h-22v24h-46v22h-24v-22h-42v-24h-44v-22h-46v-24h-44v-20h-70v-24h-246v24h-68v20h-44v24h-46v22h-44v24h-22v22h-24v20h-20v24 h-24v46h-22v44h-24v46h-22v46h-24zM290 394h20v-66h24v-46h22v-24h24v-22h20v-44h46v-24h24v-22h66v-24h202v24h70v22h20v24h46v20h24v24h20v68h-20v44h-24v46h-22v44h-24v46h-20v22h-24v44h-22v24h-24v22h-22v44h-24v24h-20v22h-24v24h-22v22h-20v22h-136v-22h-24v-22h-46 v-24h-20v-22h-24v-24h-22v-44h-24v-66h-20v-136z" />
<glyph unicode="'" d="M594 1470v110h20v24h24v22h66v24h68v-24h68v-22h46v-44h20v-70h-20v-136h-24v-156h-22v-22h22v-180h-22v-22h-24v-22h-112v22h-20v22h-24v136h-22v222h-24v116h-20z" />
<glyph unicode="(" d="M412 640v70h24v156h22v90h24v68h22v24h24v66h20v20h22v46h24v46h20v24h24v20h22v24h24v22h20v44h24v24h22v22h24v24h22v22h24v20h20v46h24v24h22v20h44v24h22v22h90v-22h24v-24h22v-66h-22v-44h-46v-22h-24v-24h-20v-22h-24v-24h-22v-20h-24v-24h-20v-22h-22v-24h-24v-20 h-20v-46h-24v-24h-22v-46h-24v-42h-22v-44h-24v-46h-20v-90h-24v-114h-22v-88h-24v-46h24v-68h-24v-46h24v-112h22v-110h24v-46h20v-70h24v-44h22v-46h24v-20h22v-46h24v-22h20v-24h24v-44h22v-22h20v-24h24v-20h46v-24h20v-22h24v-46h22v-24h24v-86h-46v-24h-68v24h-22v20 h-24v24h-20v22h-22v20h-24v24h-20v22h-24v24h-22v22h-24v24h-22v20h-24v24h-20v22h-24v44h-22v24h-24v46h-20v42h-24v24h-22v22h-20v44h-24v70h-22v90h-24v46h-22v222h-24z" />
<glyph unicode=")" d="M424 -236h20v44h24v22h22v24h24v22h44v24h22v20h24v46h22v24h24v20h20v46h24v24h22v22h24v44h20v46h22v44h24v46h20v90h24v88h22v362h-22v66h-24v90h-20v46h-24v68h-22v42h-20v46h-24v24h-22v46h-24v20h-20v24h-24v22h-22v24h-24v44h-22v22h-44v24h-24v22h-22v20h-24v24 h-20v112h20v24h90v-24h24v-22h22v-24h24v-20h22v-24h24v-22h44v-44h22v-22h24v-24h20v-22h22v-24h24v-20h20v-46h24v-24h22v-20h24v-46h22v-24h24v-46h20v-42h24v-24h22v-44h24v-90h20v-136h24v-380h-24v-70h-20v-44h-24v-68h-22v-44h-24v-46h-20v-24h-24v-42h-22v-24h-24 v-46h-22v-20h-24v-24h-20v-22h-24v-24h-22v-20h-20v-24h-24v-22h-22v-24h-24v-22h-20v-24h-24v-20h-22v-46h-24v-20h-66v-24h-46v24h-24v44h-20v22z" />
<glyph unicode="*" d="M142 1114v90h24v46h22v20h134v-20h46v-24h44v-22h46v-24h46v-22h20v-24h70v-20h44v-22h22v-68h-22v-46h-44v24h-90v22h-182v24h-90v20h-66v46h-24zM322 596v24h24v44h22v22h20v24h24v22h22v22h24v22h22v22h24v24h20v20h24v24h22v22h24v24h20v44h70v-22h20v-46h22v-22h-22 v-44h-20v-24h-24v-44h-22v-44h-24v-46h-20v-44h-24v-70h-22v-44h-44v-22h-92v22h-44v24h-22v66h-24zM638 1430v132h22v24h24v22h132v-22h46v-68h24v-22h-24v-90h-22v-156h-24v-116h-20v-20h-24v-22h-22v22h-46v44h-20v158h-24v114h-22zM772 866v22h24v68h44v158h66v20h90v24 h24v22h44v24h44v22h46v24h24v20h110v-20h24v-24h22v-46h24v-66h-24v-46h-22v-20h-158v-24h-112v-22h-90v-24h-46v-90h24v-22h22v-24h24v-20h20v-24h24v-22h22v-22h22v-22h24v-22h20v-24h24v-22h22v-44h24v-46h-24v-24h-22v-44h-44v-22h-92v22h-20v24h-24v44h-22v22h-24v44 h-20v46h-24v68h-22v22h-24v46h-20v44h-24z" />
<glyph unicode="+" d="M54 708v24h20v42h24v24h136v22h88v-22h24v22h110v-22h70v22h132v564h24v24h46v20h44v-20h22v-24h24v-22h20v-338h-20v-158h20v-22h24v-24h540v-22h20v-24h24v-66h-24v-44h-90v-22h-20v22h-112v-22h-24v22h-292v-22h-46v-160h-20v-178h20v-204h-20v-22h-24v-20h-46v-24 h-20v24h-46v42h-24v518h-20v24h-92v22h-472v44h-20z" />
<glyph unicode="," d="M582 -306h20v44h24v22h22v44h24v24h20v22h22v90h-22v24h-20v22h-24v66h-22v46h22v68h44v22h46v24h66v-24h24v-22h46v-24h20v-44h24v-248h-24v-46h-20v-20h-24v-24h-22v-22h-24v-24h-20v-20h-24v-22h-22v-24h-24v-22h-42v-24h-24v24h-46v46h-20v22z" />
<glyph unicode="-" d="M404 576v136h22v20h66v24h226v-24h156v24h176v-24h24v-20h22v-112h-22v-46h-90v-22h-534v22h-24v22h-22z" />
<glyph unicode="." d="M558 -14v44h24v92h22v20h24v24h22v22h90v24h20v-24h90v-22h24v-24h22v-44h24v-46h22v-22h-22v-66h-24v-24h-22v-20h-24v-24h-20v-22h-24v-24h-66v24h-66v22h-46v24h-24v20h-22v46h-24z" />
<glyph unicode="/" d="M356 -152h24v90h20v66h24v70h22v66h24v46h22v44h24v70h20v66h24v66h22v70h24v46h20v44h22v66h24v92h20v66h24v44h22v70h24v66h22v66h24v70h20v44h24v68h22v68h24v66h20v68h24v44h22v70h20v44h24v22h92v-22h20v-24h24v-90h-24v-44h-20v-46h-24v-46h-22v-66h-24v-66h-22 v-46h-24v-68h-20v-46h-22v-44h-24v-88h-20v-70h-24v-66h-22v-44h-24v-70h-20v-66h-24v-46h-22v-66h-24v-70h-22v-44h-24v-88h-20v-46h-24v-44h-22v-90h-20v-70h-24v-66h-22v-90h-24v-92h-20v-20h-24v-24h-68v-22h-24v22h-20v24h-24v66z" />
<glyph unicode="0" d="M244 600v314h22v202h24v68h20v68h22v44h24v46h22v24h22v42h22v24h24v22h22v24h24v20h20v24h70v22h66v24h202v-24h90v-22h24v-24h42v-20h24v-24h22v-22h24v-24h20v-22h24v-20h22v-46h24v-68h20v-46h24v-112h22v-136h24v-382h-24v-136h-22v-66h-24v-66h-20v-24h-24v-46h-22 v-44h-24v-22h-20v-24h-24v-44h-46v-22h-22v-24h-20v-22h-24v-20h-90v-24h-136v24h-112v20h-44v22h-46v24h-20v22h-46v24h-24v20h-22v24h-22v46h-22v44h-24v46h-22v66h-20v66h-24v160h-22zM422 600h24v-136h22v-90h24v-66h20v-24h24v-46h22v-20h24v-24h20v-22h46v-24h156v24 h46v22h44v24h24v20h22v24h24v22h20v68h22v44h24v90h22v204h24v22h-24v136h24v90h-24v132h-22v90h-24v70h-22v46h-20v44h-24v22h-22v24h-24v20h-44v22h-46v24h-112v-24h-44v-22h-46v-20h-20v-24h-24v-22h-22v-44h-24v-46h-20v-70h-24v-90h-22v-178h-24v-292z" />
<glyph unicode="1" d="M278 1408v70h24v20h20v24h248v22h114v24h88v-24h24v-22h20v-674h-20v-24h20v-112h-20v-22h20v-114h-20v-66h20v-90h-20v-182h20v-44h24v-22h22v-24h336v-20h24v-112h-854v20h-46v92h24v20h42v24h24v-24h158v24h44v22h24v360h-24v92h24v268h-24v202h24v250h-24v20h-134 v-20h-178v42h-24z" />
<glyph unicode="2" d="M266 58v90h22v46h24v24h22v20h24v24h20v22h24v24h22v22h20v22h24v44h22v24h24v20h20v24h24v22h22v24h24v22h22v22h24v46h20v22h24v24h22v20h24v24h20v42h22v24h24v22h20v46h24v24h22v44h24v46h22v66h24v66h20v206h-20v44h-24v22h-22v24h-24v20h-22v22h-68v24h-156v-24 h-22v-22h-24v-20h-22v-24h-24v-22h-20v-114h-24v-46h-22v-20h-24v-24h-86v24h-24v20h-22v92h22v68h24v22h20v44h24v22h22v24h20v22h24v24h22v20h24v24h44v22h92v24h200v-24h68v-22h44v-24h24v-20h22v-24h24v-22h20v-24h24v-22h22v-20h20v-46h24v-68h22v-182h-22v-66h-24v-66 h-20v-46h-22v-24h-24v-20h-20v-24h-24v-46h-22v-22h-24v-24h-20v-20h-24v-46h-22v-20h-24v-24h-22v-22h-24v-46h-20v-22h-24v-22h-22v-24h-20v-22h-24v-24h-22v-20h-24v-24h-20v-22h-24v-22h-22v-44h-24v-46h-22v-24h-24v-44h316v-22h22v22h226v24h44v20h46v-20h46v-90h-24 v-70h-22v-22h-46v-20h-90v20h-20v-20h-114v20h-178v-20h-24v20h-66v-20h-338v20h-24v22h-22z" />
<glyph unicode="3" d="M266 104v24h22v20h24v24h66v-24h46v-20h44v-24h90v-22h224v22h68v24h46v20h22v24h24v22h20v44h24v46h22v68h24v180h-24v68h-22v22h-24v44h-44v24h-22v22h-46v20h-180v24h-20v22h-24v70h24v20h132v24h68v22h46v44h22v46h24v46h20v156h-20v46h-24v44h-22v24h-24v22h-22v24 h-24v20h-86v22h-24v-22h-90v-20h-22v-24h-24v-22h-22v-44h-24v-46h-20v-24h-24v-22h-112v22h-20v90h20v70h24v20h22v46h20v22h46v24h44v20h46v24h114v22h46v-22h110v-24h68v-20h44v-24h46v-22h24v-24h20v-22h24v-44h22v-22h20v-90h24v-202h-24v-70h-20v-44h-22v-22h-24v-24 h-20v-20h-24v-46h24v-24h20v-22h24v-24h22v-20h20v-22h24v-24h22v-44h24v-46h22v-90h24v-134h-24v-68h-22v-66h-24v-46h-22v-44h-24v-24h-20v-22h-22v-24h-24v-22h-20v-20h-46v-24h-68v-22h-68v-24h-336v24h-70v22h-42v24h-44v20h-46v22h-24v46h-22z" />
<glyph unicode="4" d="M176 396v158h22v68h24v24h20v44h24v42h22v24h24v46h22v46h24v44h20v46h22v66h24v46h20v44h24v46h22v44h24v68h20v24h24v66h22v66h24v46h22v44h24v46h20v24h24v20h22v24h20v-24h70v-20h20v-114h-20v-46h-24v-42h-22v-46h-24v-44h-20v-24h-22v-68h-24v-44h-20v-46h-24v-44 h-22v-46h-24v-46h-22v-44h-24v-46h-20v-44h-24v-46h-22v-22h-24v-44h-20v-46h-24v-20h-22v-46h-20v-68h-24v-22h24v-24h42v-22h406v22h66v46h24v406h22v20h24v24h66v-24h24v-20h20v-428h22v-24h24v-22h180v-24h22v-44h24v-22h-24v-22h-22v-22h-180v-22h-24v-46h-22v-24h22 v-134h-22v-88h-20v-24h-24v-22h-66v22h-46v66h-24v24h24v66h-24v182h-630v22h-44v44h-22z" />
<glyph unicode="5" d="M266 58v70h24v20h112v-20h90v-24h182v24h66v20h44v24h46v22h44v24h22v20h24v24h22v46h24v22h20v44h24v112h22v114h-22v90h-24v42h-20v24h-24v46h-46v22h-22v24h-24v20h-44v24h-248v-24h-134v46h-22v270h22v314h44v24h542v22h66v-22h46v-114h-24v-22h-46v-20h-448v-24h-22 v-90h-24v-202h46v-22h292v-24h46v-22h44v-24h24v-20h42v-24h24v-22h22v-24h24v-44h20v-22h24v-46h22v-44h24v-90h22v-22h-22v-68h22v-22h-22v-136h-24v-44h-22v-46h-24v-22h-20v-68h-24v-22h-22v-24h-24v-44h-20v-22h-46v-24h-20v-22h-46v-20h-46v-24h-90v-22h-336v22h-90 v24h-46v20h-22v22h-24z" />
<glyph unicode="6" d="M266 510v292h24v112h22v90h24v66h22v70h20v44h24v46h22v22h24v44h20v24h24v22h22v24h24v20h20v22h24v24h22v22h46v24h24v20h66v24h44v22h46v24h136v20h66v-20h44v-114h-44v-22h-112v-24h-90v-22h-46v-20h-24v-24h-44v-22h-22v-24h-20v-20h-24v-46h-22v-24h-24v-22h-22 v-44h-24v-46h-20v-44h-24v-46h-22v-66h-24v-70h70v24h20v22h70v24h46v20h66v24h156v-24h70v-20h20v-24h46v-22h44v-24h22v-20h24v-24h20v-22h24v-70h22v-20h24v-90h22v-90h-22v-46h22v-22h-22v-134h-24v-68h-22v-44h-24v-46h-20v-24h-24v-44h-46v-22h-42v-24h-24v-22h-20 v-20h-46v-24h-90v-22h-156v22h-92v24h-44v20h-46v22h-24v24h-20v22h-24v44h-22v24h-24v46h-20v44h-22v46h-24v88h-22v114h-24zM468 396h24v-66h22v-46h24v-46h20v-20h24v-24h22v-22h24v-24h22v-20h66v-24h68v24h66v20h46v24h24v22h22v24h24v44h20v22h24v68h22v314h-22v24 h-24v42h-20v24h-24v22h-46v24h-66v22h-114v-22h-66v-24h-46v-22h-22v-24h-24v-20h-20v-22h-24v-44h-22v-46h-24v-204z" />
<glyph unicode="7" d="M290 1408v70h20v20h46v24h66v-24h250v24h470v-24h24v-20h20v-24h24v-134h-24v-44h-20v-46h-24v-46h-22v-90h-24v-66h-20v-46h-24v-44h-22v-46h-22v-44h-24v-46h-20v-90h-24v-66h-22v-24h-24v-46h-20v-66h-24v-70h-22v-66h-24v-90h-20v-22h-24v-114h-22v-44h-24v-68h-22 v-20h-20v-46h-24v-24h-46v-20h-66v20h-24v24h-20v112h20v46h24v44h22v66h24v46h20v68h24v44h22v44h24v70h20v44h22v68h24v44h22v66h24v46h20v70h24v44h22v22h24v68h20v68h24v44h22v46h24v44h20v92h24v20h-24v46h-650v24h-24v42h-20z" />
<glyph unicode="8" d="M244 396v68h22v112h24v46h20v44h24v24h22v22h22v20h44v24h24v22h22v24h24v22h44v24h-24v20h-20v24h-24v22h-22v24h-46v44h-22v22h-22v66h-22v70h-24v112h24v68h22v66h22v46h22v22h22v24h24v20h46v24h20v22h70v24h66v20h202v-20h90v-24h44v-22h46v-24h22v-20h24v-46h20 v-24h24v-42h22v-46h24v-226h-24v-44h-22v-46h-24v-22h-20v-24h-24v-20h-22v-24h-22v-22h-24v-44h24v-24h22v-22h46v-24h20v-22h24v-24h22v-20h24v-46h20v-20h24v-46h22v-90h24v-136h-24v-90h-22v-46h-24v-20h-20v-24h-24v-22h-22v-24h-24v-20h-20v-24h-24v-22h-22v-24h-46 v-22h-44v-20h-136v-24h-112v24h-156v20h-44v22h-46v24h-24v22h-22v24h-22v20h-22v24h-22v46h-24v44h-20v22h-24v112h-22zM422 420h24v-90h22v-46h24v-46h20v-20h24v-24h22v-22h68v-24h66v-20h92v20h66v24h44v22h46v24h24v20h20v46h24v24h22v88h22v68h-22v90h-22v46h-24v46 h-20v20h-24v24h-46v22h-44v20h-46v24h-112v-24h-90v-20h-44v-22h-22v-24h-24v-20h-20v-46h-24v-46h-22v-68h-24v-66zM492 1116h20v-46h24v-20h22v-22h24v-24h20v-22h46v-24h66v-20h90v20h46v24h44v22h46v46h24v44h20v66h24v70h-24v90h-20v22h-24v44h-22v22h-44v24h-46v22 h-156v-22h-46v-24h-44v-22h-24v-20h-22v-24h-24v-66h-20v-160z" />
<glyph unicode="9" d="M278 938v246h24v68h20v68h22v46h24v20h20v46h24v22h46v24h22v20h44v24h46v22h110v24h136v-24h70v-22h66v-24h44v-20h22v-24h46v-22h24v-46h20v-20h24v-46h22v-44h24v-46h20v-114h24v-404h-24v-90h-20v-90h-24v-92h-22v-44h-24v-44h-20v-22h-24v-46h-22v-22h-24v-44h-22 v-24h-20v-22h-24v-24h-22v-20h-24v-24h-20v-22h-46v-24h-44v-22h-46v-20h-46v-24h-66v-22h-90v-24h-44v24h-92v46h-24v20h24v46h46v22h90v24h66v20h66v24h46v22h46v44h24v24h44v22h22v24h24v44h20v44h24v44h22v46h24v46h20v134h-20v-20h-46v-24h-44v-22h-46v-24h-246v24h-70 v22h-44v24h-22v20h-24v24h-22v22h-24v20h-20v46h-24v46h-22v44h-20v70h-24zM458 982h22v-90h24v-24h20v-44h24v-22h22v-24h44v-22h46v-24h156v24h46v22h24v24h20v22h46v44h24v24h20v22h22v292h-22v46h-20v44h-24v46h-22v24h-24v20h-44v22h-66v24h-92v-24h-44v-22h-46v-20 h-44v-24h-22v-22h-24v-44h-20v-24h-24v-136h-22v-134z" />
<glyph unicode=":" d="M604 48v22h22v46h24v44h42v24h68v-24h66v-20h46v-46h24v-90h-24v-22h-22v-24h-24v-20h-156v20h-20v24h-24v66h-22zM604 678v22h22v68h24v22h20v24h136v-24h20v-22h46v-68h24v-22h-24v-66h-22v-24h-44v-22h-136v22h-20v24h-24v66h-22z" />
<glyph unicode=";" d="M566 658v38q-4 8 0 12t8 5t12 -1v50q-4 6 -1 10t4 5t7 2t8 1q0 8 1 13t5 6t12 -1h12q6 0 9 4t1 12q-2 6 1 7t8 0t9 0t2 7q-4 12 7 14t11 4v18h74q8 4 11 0t3 -8v-14h38q14 0 20 -1t2 -13q-2 -6 2 -7t9 0t7 -1t0 -10q-4 -8 0 -10t11 -2t9 -2q-4 -22 18 -18v-150 q6 -12 -5 -14t-13 -4q2 -8 1 -13t-5 -6t-12 1q-4 -2 -4 -6v-8q0 -4 -2 -7t-8 -1t-8 -1t-1 -8t0 -8t-5 -3q-8 4 -11 0t-4 -7t-1 -9q2 -4 2 -6h-50q-4 -2 -12 0t-13 0t-3 -8q2 -8 -1 -11t-13 -2t-12 1h-8q-10 -2 -14 0t-2 12q2 6 -3 8t-14 0t-11 0q-12 -6 -11 8t-3 14 q-8 -2 -12 1t-4 8t2 11h-10q-4 0 -8 1t-5 5t1 10q0 4 1 12t-1 13t-8 3q-8 0 -10 16v12q4 10 -2 13t-18 3zM602 -274q-2 6 1 8t8 1t9 0t2 7q-4 8 0 11t6 3h18v18q0 2 3 6t11 0q6 -2 7 1t0 9t1 9t8 1q8 -2 12 1t4 9v12q2 2 9 2t11 3t0 11q2 6 1 13t0 13t5 6q8 -2 12 0t4 8v14 q-2 4 0 11t1 13t-7 8q-4 -2 -8 -2q-10 0 -8 22q-12 0 -18 2t-2 14q0 4 -4 5t-9 0t-9 1t-2 8q2 8 0 12t-8 4h-14v54q4 6 1 9t-7 3h-10q-6 0 -8 2q-4 8 0 11t6 3h18v70q-2 12 2 18t16 2q4 2 4 14t10 8q6 0 13 -1t14 0t7 5v20h46q6 4 10 0t4 -8v-16h38q6 -2 13 0t13 0t4 -8 q-2 -8 1 -11t11 -3t10 -2q-2 -14 1 -20t15 -2q6 2 7 -3t0 -14t1 -11q-2 -8 -2 -11t5 -5t8 -2t9 2v-54q-4 -6 0 -9t7 -4t11 -1h6v-116q6 -12 -8 -11t-16 -3q4 -12 -1 -16t-17 -2q-4 0 -3 -16t1 -20q2 -8 -4 -9t-13 0t-7 -5q2 -12 -2 -17t-16 -3q-2 0 -3 -4t-1 -8v-20 q4 -8 -1 -11t-12 -1t-11 -2q2 -12 -2 -17t-14 -3q-6 0 -5 -7t0 -13t-10 -3t-11 0t-3 -11t-1 -10q-8 0 -13 -1t-7 -5t0 -12q2 -6 -3 -7t-10 0t-9 0t-2 -7q2 -4 2 -8q-2 -6 -24 -6q-8 2 -13 1t-7 -6t0 -13q0 -6 -6 -7t-13 1t-13 0q-4 2 -12 0t-13 0t-5 8q4 8 1 12t-9 4h-12v74 z" />
<glyph unicode="&#x3c;" d="M442 564v96l14 6l-10 20l452 336l10 -20l58 30l24 -38l10 8l58 -96l-14 -6l10 -18l-14 -10l10 -20l-108 -64l-14 20l-234 -196l234 -196l14 20l108 -64l-10 -20l14 -10l-10 -18l14 -6l-58 -96l-10 8l-24 -38l-58 30l-10 -20l-452 336l10 20z" />
<glyph unicode="=" d="M176 524v44h24v24h22v22h246v24h46v-24h788v-46h22v-66h-22v-24h-608v-22h-136v22h-336v24h-22v22h-24zM176 860v46h24v24h22v22h136v22h90v-22h382v22h136v-22h336v-22h22v-70h-22v-44h-136v-22h-24v22h-90v-22h-110v22h-92v-22h-90v22h-66v-22h-448v22h-46v44h-24z" />
<glyph unicode="&#x3e;" d="M442 318l14 6l-10 18l14 10l-10 20l108 64l14 -20l234 196l-234 196l-14 -20l-108 64l10 20l-14 10l10 18l-14 6l58 96l10 -8l24 38l58 -30l10 20l452 -336l-10 -20l14 -6v-96l-14 -6l10 -20l-452 -336l-10 20l-58 -30l-24 38l-10 -8z" />
<glyph unicode="?" d="M368 1112v160h24v20h20v46h24v46h22v24h24v42h46v24h44v20h22v24h66v22h180v-22h90v-24h22v-20h44v-24h24v-22h22v-20h24v-24h22v-22h24v-70h20v-180h-20v-66h-24v-46h-22v-44h-24v-22h-22v-24h-24v-20h-20v-24h-24v-22h-22v-24h-20v-46h-24v-20h-22v-22h-24v-44h-20v-46 h-24v-160h-22v-20h-114v20h-22v136h22v70h24v44h20v22h24v44h22v46h46v46h24v20h20v24h24v46h22v44h24v46h20v178h-20v68h-24v46h-46v22h-202v-22h-24v-24h-20v-46h-22v-180h-24v-20h-20v-22h-116v22h-20v20h-24zM594 58v156h20v22h24v44h46v24h44v22h68v-22h44v-24h46v-44 h24v-46h20v-66h-20v-46h-24v-44h-46v-22h-202v22h-24v24h-20z" />
<glyph unicode="@" d="M120 438v450h24v90h20v90h24v46h22v66h24v46h20v44h24v24h22v22h24v44h22v24h24v22h20v24h24v22h22v20h44v24h22v22h44v24h70v20h90v24h88v-24h204v-20h66v-24h46v-22h20v-24h24v-20h46v-22h22v-24h24v-46h20v-20h24v-70h22v-66h24v-136h20v-20h-20v-114h-24v-112h-22 v-68h-24v-114h-20v-180h20v-42h46v-24h44v-22h24v-90h-44v-24h-114v24h-46v22h-22v24h-66v-24h-24v-22h-66v-24h-24v-22h-180v22h-66v24h-46v22h-20v24h-24v20h-22v24h-24v22h-22v44h-24v112h-20v70h20v112h24v90h22v44h24v46h22v22h24v22h20v22h24v24h22v22h66v24h68v20 h136v-20h90v-24h88v24h24v20h-24v182h-22v44h-24v22h-20v24h-22v20h-24v24h-44v22h-66v24h-70v22h-178v-22h-90v-24h-46v-22h-44v-24h-24v-20h-22v-24h-24v-22h-20v-24h-22v-20h-24v-46h-20v-46h-24v-44h-22v-46h-24v-44h-22v-90h-24v-270h-20v-158h20v-134h24v-90h22v-90 h24v-46h22v-44h24v-22h20v-46h24v-24h22v-20h20v-24h24v-22h22v-24h44v-20h24v-24h22v-22h46v-24h44v-22h70v-24h494v-86h-24v-24h-92v-22h-176v-24h-46v24h-136v22h-90v24h-66v20h-46v24h-24v22h-44v20h-22v24h-44v22h-22v24h-24v22h-20v24h-24v20h-22v24h-24v22h-22v44 h-24v24h-20v46h-24v66h-22v46h-24v112h-20v134h-24zM662 550h20v-66h24v-46h22v-20h24v-24h20v-22h202v22h46v24h44v42h24v24h22v112h20v136h24v66h-24v44h-20v24h-22v22h-24v24h-20v22h-70v22h-66v-22h-70v-22h-20v-24h-46v-22h-20v-24h-24v-20h-22v-46h-24v-66h-20v-160z " />
<glyph unicode="A" d="M54 26v90h24v22h44v24h42v20h24v24h22v66h24v24h20v68h24v66h22v68h24v46h22v46h24v44h20v90h24v44h22v44h24v70h20v44h22v68h24v90h20v66h24v68h22v46h24v90h22v88h44v24h24v22h66v-22h24v-24h22v-42h20v-70h24v-44h22v-68h24v-68h22v-66h24v-68h20v-68h24v-66h22v-70 h24v-44h20v-44h24v-44h22v-90h24v-46h20v-46h22v-90h24v-44h22v-68h24v-44h20v-46h24v-44h46v-24h66v-22h44v-90h-20v-22h-472v22h-70v66h24v24h90v22h66v24h24v66h-24v68h-20v68h-24v44h-22v22h-24v24h-312v20h-160v-20h-42v-24h-24v-88h-22v-70h-24v-90h24v-20h22v-24h134 v-22h22v-66h-22v-24h-246v-22h-226v22h-44zM526 610h20v-20h338v20h46v70h-22v44h-24v88h-22v70h-24v66h-20v46h-22v68h-24v42h-20v46h-24v-22h-46v-44h-20v-68h-24v-44h-22v-90h-24v-46h-22v-68h-24v-44h-20v-114z" />
<glyph unicode="B" d="M200 26v66h24v24h44v22h66v24h24v20h22v338h24v160h-24v494h24v66h-24v46h-46v24h-110v20h-24v90h24v22h650v-22h114v-20h44v-24h22v-22h46v-44h20v-24h24v-46h22v-112h24v-24h-24v-88h-22v-44h-24v-46h-20v-24h-22v-20h-24v-24h-22v-22h-24v-24h-20v-20h20v-24h24v-22 h68v-22h20v-24h46v-20h24v-24h20v-22h24v-44h22v-24h24v-68h20v-202h-20v-44h-24v-46h-22v-44h-24v-24h-20v-22h-24v-24h-46v-22h-20v-20h-46v-24h-46v-22h-90v-24h-44v24h-248v-24h-134v24h-268v22h-24zM560 162h22v-24h68v-22h224v22h44v24h46v20h24v24h44v46h22v44h24v46 h22v112h-22v66h-24v46h-22v24h-24v20h-20v24h-24v22h-46v24h-44v20h-90v24h-202v-24h-22v-538zM560 882h22v-46h158v22h68v24h44v20h22v24h44v22h24v46h22v44h24v136h-24v66h-22v24h-24v22h-44v24h-90v20h-158v-20h-44v-46h-22v-382z" />
<glyph unicode="C" d="M210 544v314h24v90h20v68h24v68h22v44h24v46h22v22h24v44h20v24h24v22h22v24h24v20h20v24h22v22h44v24h24v20h46v22h66v24h248v-24h114v-22h202v-20h20v-46h24v-44h-24v-226h24v-46h-24v-22h-20v-22h-92v22h-20v46h-24v112h-22v44h-24v22h-20v24h-24v22h-46v24h-268v-24 h-44v-22h-46v-24h-24v-22h-22v-22h-24v-46h-20v-22h-24v-44h-22v-68h-20v-90h-24v-202h-22v-68h22v-182h24v-86h20v-70h22v-22h24v-44h20v-24h24v-22h22v-24h46v-20h44v-24h46v-22h202v22h44v24h46v20h24v24h20v46h24v20h22v92h24v66h20v24h22v20h70v-20h44v-292h-24v-24 h-20v-22h-24v-24h-46v-22h-22v-20h-44v-24h-46v-22h-90v-24h-90v-20h-132v20h-114v24h-68v22h-44v24h-46v20h-20v22h-24v24h-22v22h-24v24h-20v44h-24v22h-22v24h-24v66h-22v46h-24v66h-20v114h-24z" />
<glyph unicode="D" d="M142 1330v70h24v20h22v22h158v-22h248v22h44v-22h224v-20h68v-24h46v-22h44v-24h46v-20h22v-24h20v-22h24v-24h22v-22h24v-22h20v-22h24v-46h22v-24h24v-42h20v-68h24v-92h22v-110h24v-202h-24v-136h-22v-66h-24v-70h-20v-46h-24v-44h-22v-22h-24v-24h-20v-20h-24v-46 h-46v-24h-20v-22h-22v-20h-46v-24h-24v-22h-134v-24h-650v24h-24v22h-22v66h46v24h66v22h44v24h24v854h22v112h-22v46h22v44h-22v46h-24v22h-66v24h-90v20h-24zM504 474h20v-312h24v-24h66v-22h136v22h66v24h70v20h44v24h46v46h20v20h24v24h22v46h24v46h22v66h20v66h24v136 h22v90h-22v156h-24v70h-20v66h-22v24h-24v42h-22v24h-24v46h-44v22h-22v22h-24v22h-20v24h-90v22h-226v-22h-22v-24h-24v-696h-20v-70z" />
<glyph unicode="E" d="M176 1354v66h22v22h1056v-22h24v-66h22v-90h-22v-114h-24v-66h-20v-22h-92v42h-24v114h-20v46h-46v22h-134v24h-338v-24h-22v-292h-24v-68h24v-68h22v-22h246v46h24v44h22v68h24v22h46v-22h20v-46h24v-22h-24v-406h-66v24h-24v46h-22v44h-24v46h-20v20h-66v24h-160v-44 h-22v-24h-24v-450h24v-44h22v-24h406v24h90v20h42v24h24v46h22v90h24v66h22v22h68v-22h22v-44h24v-314h-24v-24h-22v-22h-44v-24h-46v24h-946v22h-20v24h-24v42h24v24h44v22h68v24h24v20h20v1104h-44v24h-112v20h-24v24h-22z" />
<glyph unicode="F" d="M154 1376v24h24v42h226v24h42v-24h452v24h382v-24h44v-42h22v-204h-22v-158h-24v-22h-66v22h-24v24h-20v156h-24v22h-22v24h-66v22h-90v24h-226v20h-136v-20h-44v-474h44v-24h158v24h90v90h24v68h44v22h22v-22h24v-22h20v-474h-44v-24h-22v24h-24v22h-20v70h-24v66h-22 v24h-90v20h-136v-20h-20v-24h-24v-136h-22v-112h22v-20h-22v-46h22v-136h24v-24h20v-20h70v-24h132v-22h24v-66h-24v-24h-20v-22h-564v22h-44v90h24v22h44v24h112v44h24v360h20v90h-20v180h20v112h-20v338h-24v24h-90v20h-22v-20h-44v20h-46v46h-24z" />
<glyph unicode="G" d="M154 590v222h24v136h22v114h24v42h20v46h24v46h22v44h24v24h20v22h24v24h22v20h20v24h46v22h24v24h46v20h44v22h66v24h292v-24h114v-22h202v-20h22v-46h24v-90h-24v-226h-22v-44h-44v-22h-24v22h-46v44h-20v112h-24v46h-22v44h-22v24h-24v22h-44v24h-46v20h-222v-20h-46 v-24h-68v-22h-22v-24h-24v-22h-20v-22h-24v-22h-22v-46h-24v-44h-22v-46h-24v-44h-20v-112h-22v-338h22v-114h20v-66h24v-22h22v-46h24v-44h22v-24h44v-22h24v-24h22v-20h68v-24h46v-22h202v22h44v24h46v20h44v24h22v224h-22v24h-24v20h-180v24h-20v92h44v20h472v-20h22v-92 h-22v-24h-44v-20h-46v-338h-24v-24h-110v-22h-46v-20h-46v-24h-44v-22h-66v-24h-70v-20h-112v20h-134v24h-46v22h-66v24h-46v20h-24v22h-20v24h-22v22h-24v24h-20v20h-24v46h-22v44h-24v24h-20v46h-24v88h-22v160h-24z" />
<glyph unicode="H" d="M120 1310v66h24v24h22v20h362v-20h66v-24h24v-90h-70v-22h-44v-226h-22v-202h22v-24h24v-20h448v20h44v70h22v66h-22v316h-90v22h-90v44h-20v24h20v46h70v20h178v-20h224v-24h24v-90h-68v-22h-46v-46h-20v-1080h20v-22h90v-24h46v-22h22v-90h-68v-20h-312v20h-70v24h-20 v66h20v22h46v24h24v22h20v382h22v70h-22v44h-382v22h-90v-22h-44v-44h-22v-452h22v-22h44v-24h90v-22h24v-90h-90v-20h-180v20h-66v-20h-92v20h-44v46h-24v24h24v42h44v24h68v272h24v42h-24v496h24v22h-24v202h24v68h-24v46h-46v22h-112v24h-24z" />
<glyph unicode="I" d="M254 1330v70h24v42h676v24h20v-24h156v-22h24v-20h22v-24h-22v-66h-114v-24h-202v-22h-20v-362h-24v-66h24v-654h20v-20h46v-24h316v-22h22v-24h24v-66h-46v-22h-834v22h-20v24h-22v66h22v22h44v24h112v-24h68v24h46v44h22v898h24v92h-24v68h-22v22h-180v24h-158v20h-24z " />
<glyph unicode="J" d="M176 206v158h22v24h68v20h22v-20h46v-24h24v-46h20v-46h22v-44h24v-22h20v-24h24v-20h46v-24h202v-22h20v22h70v24h44v20h22v24h24v46h22v1012h-46v22h-66v24h-180v20h-22v70h22v42h652v-22h22v-20h24v-24h-24v-46h-22v-20h-44v-24h-24v24h-92v-24h-20v-22h-24v-270h24 v-92h-24v-20h24v-630h-24v-70h-22v-66h-20v-24h-24v-22h-22v-20h-24v-24h-44v-22h-92v-24h-90v-20h-20v20h-202v24h-90v22h-66v24h-46v20h-70v22h-20v24h-24v90h-22z" />
<glyph unicode="K" d="M76 1376v24h20v42h70v24h22v-24h114v24h20v-24h248v-22h24v-66h-24v-24h-90v-20h-22v-46h-24v-136h24v-24h-24v-42h24v-90h-24v-90h24v-46h22v-44h24v20h44v24h22v22h24v24h20v20h24v24h22v22h20v24h24v22h22v22h24v22h22v46h24v20h20v46h24v24h22v22h24v44h20v24h-20v46 h-46v20h-44v90h20v22h70v24h20v-24h136v24h156v-24h70v-42h20v-46h-20v-24h-24v-20h-66v-24h-46v-22h-24v-24h-20v-22h-24v-22h-22v-22h-24v-24h-22v-46h-20v-20h-24v-22h-22v-24h-24v-22h-20v-22h-24v-22h-22v-24h-24v-46h-20v-20h-24v-24h-22v-22h-46v-90h22v-22h24v-44 h22v-24h24v-22h20v-24h24v-20h22v-24h24v-22h20v-24h24v-46h22v-20h24v-24h20v-42h22v-24h24v-22h22v-24h24v-22h20v-24h24v-44h22v-22h24v-24h20v-20h90v-24h92v-22h20v-24h24v-66h-24v-22h-44v-24h-44v24h-204v22h-44v24h-22v20h-24v22h-22v46h-20v24h-24v44h-22v22h-24 v44h-20v24h-24v22h-22v24h-24v22h-20v44h-24v22h-22v24h-24v44h-22v22h-24v24h-20v22h-22v24h-24v20h-20v24h-46v22h-44v-22h-46v-362h-24v-20h24v-70h22v-20h44v-24h90v-22h24v-24h22v-66h-46v-22h-292v22h-20v-22h-136v22h-24v44h-22v22h22v24h24v22h46v24h44v20h22v1104 h-22v24h-136v20h-24v46h-20z" />
<glyph unicode="L" d="M120 1330v112h46v24h584v-24h46v-42h20v-24h-20v-22h-24v-24h-46v-20h-112v-24h-20v-22h-24v-114h24v-66h-24v-68h24v-90h-24v-720h24v-44h44v-24h248v24h178v20h68v24h46v112h20v136h24v20h112v-20h24v-316h22v-68h-22v-66h-46v-24h-158v24h-922v22h-44v44h-22v22h22v24 h24v22h20v24h136v20h20v946h24v136h-24v22h-20v24h-202v20h-46z" />
<glyph unicode="M" d="M18 1420v22h24v24h46v22h226v-22h66v-24h20v-22h24v-44h22v-46h24v-44h22v-68h24v-44h20v-46h24v-44h22v-46h24v-44h20v-46h24v-46h22v-66h20v-24h24v-44h68v44h24v24h20v66h24v46h22v68h24v46h20v42h24v46h22v68h24v68h20v68h22v22h24v44h22v46h360v-24h46v-112h-24v24 h-46v-24h-44v-20h-88v-46h-24v-24h24v-224h-24v-68h24v-112h-24v-202h24v-90h-24v-24h24v-66h-24v-112h24v-46h-24v-44h24v-46h20v-24h68v-20h68v-24h22v-22h24v-66h-24v-24h-90v-22h-68v22h-336v24h-22v20h-24v22h24v46h22v24h66v20h46v24h24v450h20v316h-20v156h-24v-44 h-22v-22h-24v-46h-22v-44h-20v-46h-24v-24h-22v-66h-24v-68h-20v-22h-24v-46h-22v-44h-24v-46h-20v-20h-24v-46h-22v-24h-46v24h-24v22h-20v24h-22v44h-24v22h-20v68h-24v44h-22v44h-24v46h-20v44h-24v46h-22v46h-24v44h-22v46h-68v-158h-22v-68h22v-22h-22v-270h22v-270h24 v-68h20v-22h24v-24h92v-20h44v-70h22v-22h-22v-20h-24v-24h-448v24h-24v88h24v24h20v20h46v24h24v22h22v362h24v720h-24v20h-46v24h-112v66h-24z" />
<glyph unicode="N" d="M132 70v22h22v24h24v22h22v24h24v20h20v24h46v1080h-22v24h-114v20h-22v112h22v24h136v-24h202v-22h24v-44h20v-46h24v-44h22v-22h24v-68h20v-46h22v-22h24v-44h20v-46h24v-44h22v-46h24v-22h22v-24h24v-44h20v-46h24v-44h22v-22h24v-46h20v-20h24v-46h22v-44h20v-24h24 v-22h22v-46h46v-24h24v564h-24v180h-22v46h-24v22h-88v24h-44v20h-46v90h22v22h472v-22h22v-90h-22v-20h-46v-24h-44v-112h-22v-70h22v-110h-22v-450h22v-518h-22v-22h-44v-24h-70v24h-20v22h-24v24h-22v42h-24v46h-22v44h-24v46h-20v44h-22v46h-24v70h-20v20h-24v66h-22v24 h-24v46h-20v22h-24v44h-22v46h-24v44h-22v24h-24v44h-20v44h-24v46h-22v24h-20v44h-24v46h-22v44h-24v22h-20v46h-46v20h-24v-42h-22v-608h22v-202h24v-46h22v-24h68v-20h88v-24h24v-22h20v-90h-132v-22h-360v22h-46v44h-22z" />
<glyph unicode="O" d="M166 520v382h22v160h24v42h20v70h24v22h22v68h24v22h20v24h22v44h44v22h24v24h46v20h22v22h44v24h90v22h66v24h70v-24h136v-22h90v-24h42v-22h24v-20h22v-24h44v-22h24v-44h22v-24h24v-22h20v-24h24v-44h22v-68h24v-44h20v-90h24v-112h22v-272h-22v-112h-24v-110h-20v-46 h-24v-46h-22v-44h-24v-46h-20v-24h-46v-20h-24v-24h-20v-22h-24v-24h-22v-22h-46v-20h-44v-24h-136v-22h-202v22h-90v24h-44v20h-46v22h-46v24h-20v22h-24v44h-22v24h-20v22h-24v44h-22v24h-24v68h-20v66h-24v90h-22zM368 544h20v-90h24v-66h22v-46h24v-46h22v-24h24v-20h20 v-24h24v-22h46v-24h44v-20h66v-24h68v24h90v20h44v24h46v22h24v24h20v44h22v22h24v46h22v44h24v90h20v158h24v202h-24v136h-20v90h-24v20h-22v46h-24v46h-22v44h-20v24h-46v22h-44v24h-46v20h-68v24h-92v-24h-66v-20h-66v-24h-24v-22h-20v-24h-24v-44h-22v-46h-24v-46h-22 v-66h-24v-90h-20v-404z" />
<glyph unicode="P" d="M166 1370v70h24v24h22v22h794v-22h116v-24h24v-22h48v-22h22v-26h24v-22h22v-46h26v-26h22v-46h24v-278h-24v-48h-22v-46h-26v-48h-22v-24h-24v-22h-22v-26h-48v-22h-46v-22h-46v-24h-94v-22h-70v-26h-280v-68h-22v-350h22v-48h46v-24h162v-22h48v-26h24v-68h-24v-22h-70 v-26h-162v26h-72v-26h-324v26h-26v90h26v26h22v22h116v24h24v22h22v1098h-22v48h-46v24h-116v-24h-48v46h-24zM610 786h24v-22h232v22h94v24h46v22h48v48h22v24h24v48h22v208h-22v48h-24v22h-22v24h-22v22h-26v26h-46v22h-48v24h-94v-24h-22v24h-162v-24h-24v-538z" />
<glyph unicode="Q" d="M144 530v444h24v94h22v68h26v46h22v26h24v46h22v22h22v26h26v22h22v24h24v22h22v26h24v22h22v22h72v24h94v22h210v-22h116v-24h46v-22h48v-22h22v-26h24v-22h46v-24h22v-48h26v-22h22v-46h24v-48h22v-46h26v-68h22v-72h24v-420h-24v-118h-22v-70h-26v-46h-22v-48h-24v-22 h-22v-24h-26v-48h-22v-22h-24v-24h-46v-22h-22v-48h-48v-24h-22v-70h22v-22h22v-24h26v-22h22v-24h24v-48h22v-22h24v-24h22v-22h26v-26h22v-22h72v22h46v-22h44v-116h-44v-24h-72v-22h-46v-26h-48v-22h-68v22h-24v48h-22v46h-26v48h-22v22h-22v46h-24v26h-22v46h-26v48h-46 v46h-48v46h-46v22h-46v26h-164v22h-46v22h-22v24h-48v22h-24v26h-46v22h-22v46h-26v26h-22v22h-22v46h-24v48h-22v46h-26v70h-22v94h-24zM332 506h22v-92h24v-48h22v-46h24v-48h22v-22h26v-24h22v-22h24v-26h22v-22h48v-24h68v-22h166v22h68v24h26v22h22v26h46v46h22v22h26 v48h22v68h24v94h22v48h24v396h-24v72h-22v70h-24v68h-22v46h-26v26h-22v46h-46v22h-70v26h-46v22h-26v24h-162v-24h-46v-22h-48v-26h-46v-22h-22v-24h-26v-48h-22v-22h-24v-70h-22v-44h-24v-94h-22v-446z" />
<glyph unicode="R" d="M74 1370v70h22v24h24v22h138v-22h46v22h72v-22h210v22h94v-22h234v-24h68v-22h22v-22h26v-26h22v-22h24v-24h22v-22h26v-48h22v-94h24v-162h-24v-72h-22v-46h-26v-22h-22v-48h-46v-24h-26v-22h-46v-26h-44v-22h-46v-22h-48v-46h22v-26h48v-22h24v-24h22v-22h22v-24h24 v-24h22v-46h26v-24h22v-22h24v-48h22v-46h26v-22h22v-48h24v-46h22v-48h48v-24h46v-22h116v-26h24v-68h-24v-48h-304v26h-22v22h-24v22h-22v46h-26v26h-22v46h-24v22h-22v48h-22v46h-24v48h-22v46h-26v48h-22v46h-24v46h-48v24h-22v46h-24v24h-22v22h-48v26h-24v22h-138v-22 h-24v-492h24v-24h48v-22h136v-26h48v-68h-22v-22h-538v22h-22v68h22v26h26v22h68v24h46v1146h-24v22h-22v24h-46v-24h-22v24h-72v22h-22zM446 832h24v-22h326v22h46v26h26v22h22v24h24v22h22v72h22v162h-22v70h-22v24h-24v22h-48v26h-22v22h-94v24h-234v-24h-22v-48h-24 v-444z" />
<glyph unicode="S" d="M236 38v328h24v48h22v22h94v-48h22v-68h26v-70h22v-46h24v-26h22v-22h48v-24h46v-22h282v22h46v24h46v22h22v26h22v22h26v24h22v94h24v70h-24v68h-22v48h-26v24h-22v22h-22v24h-46v22h-72v26h-68v22h-72v24h-116v22h-68v22h-48v26h-24v22h-48v24h-46v22h-22v48h-26v24 h-22v48h-22v68h-24v94h24v94h22v46h22v48h26v46h22v22h46v26h26v22h22v22h46v24h72v22h68v26h328v-26h210v-22h22v-68h26v-26h-26v-68h26v-48h-26v-24h26v-94h-26v-46h-22v-22h-46v-22h-26v22h-46v46h-22v116h-26v24h-22v48h-46v22h-22v24h-94v22h-188v-22h-68v-24h-24v-22 h-22v-26h-26v-22h-22v-46h-24v-162h24v-48h22v-46h26v-26h22v-22h70v-24h70v-22h46v-26h94v-22h116v-24h46v-22h48v-26h46v-22h22v-22h26v-24h22v-22h24v-26h22v-22h26v-70h22v-70h24v-140h-24v-70h-22v-46h-26v-48h-22v-24h-24v-22h-22v-26h-26v-22h-22v-24h-46v-22h-48 v-22h-68v-26h-396v26h-120v-26h-94v26h-44v44h-24z" />
<glyph unicode="T" d="M132 1208v94h22v138h26v24h1140v-24h26v-44h22v-350h-22v-48h-116v48h-26v208h-22v22h-24v26h-68v22h-164v-22h-72v-26h-22v-444h22v-46h-22v-116h22v-48h-22v-256h22v-116h-22v-46h22v-48h48v-24h68v-22h166v-26h22v-22h24v-46h-24v-48h-116v-22h-24v22h-630v116h22v26 h72v22h94v24h70v22h22v1098h-22v26h-94v22h-94v-22h-70v-26h-24v-22h-22v-24h-24v-140h-22v-92h-48v-24h-68v46h-26v188h-22z" />
<glyph unicode="U" d="M110 1370v94h46v22h232v-22h140v22h24v-22h70v-24h22v-22h-22v-48h-22v-22h-94v-24h-24v-70h-22v-490h22v-514h24v-24h22v-22h24v-26h22v-22h48v-24h46v-22h188v22h94v24h44v22h24v26h22v22h26v46h22v210h24v24h-24v748h-22v70h-48v24h-68v22h-24v26h-24v44h24v24h442 v-24h22v-92h-46v-24h-68v-48h-22v-94h-26v-910h-22v-68h-24v-48h-22v-46h-26v-26h-22v-22h-46v-24h-26v-22h-68v-22h-46v-26h-374v26h-46v22h-46v22h-48v24h-24v22h-22v48h-26v46h-22v72h-24v1052h-22v22h-22v24h-94v22h-46z" />
<glyph unicode="V" d="M86 1396v68h22v22h210v26h186v-26h120v-46h22v-22h-22v-48h-120v-22h-46v-46h-22v-26h22v-116h24v-70h22v-92h26v-72h22v-68h24v-48h22v-94h26v-68h22v-94h22v-48h24v-70h22v-70h24v-68h24v-26h24v-22h22v48h24v46h22v70h26v68h22v94h24v46h22v94h26v94h22v94h22v70h24 v94h22v114h26v142h-26v24h-116v22h-22v94h22v22h444v-22h22v-116h-22v-24h-46v-22h-48v-48h-22v-72h-24v-68h-22v-68h-26v-72h-22v-70h-24v-72h-22v-68h-24v-70h-22v-94h-26v-70h-22v-70h-24v-72h-22v-90h-22v-72h-26v-70h-22v-72h-24v-46h-22v-22h-26v-22h-22v-26h-118v26 h-22v44h-24v72h-22v46h-22v70h-26v46h-22v94h-24v48h-22v68h-26v72h-22v68h-24v72h-22v44h-26v72h-22v70h-24v72h-22v68h-24v70h-22v70h-22v70h-26v46h-22v26h-24v22h-48v24h-22v22h-24v26h-22z" />
<glyph unicode="W" d="M-20 1348v116h68v22h282v-22h22v22h46v-22h120v-24h22v-70h-116v-22h-72v-46h-22v-26h22v-186h24v-258h22v-184h26v-212h22v-70h24v-22h22v22h26v48h22v46h24v70h22v70h22v94h24v44h22v48h26v72h22v46h94v-24h24v-22h22v-72h26v-48h22v-68h24v-48h22v-92h22v-48h24v-46 h22v-22h26v-26h22v26h24v46h22v210h26v188h22v418h-22v26h-26v22h-22v24h-118v22h-22v70h22v24h166v22h396v-116h-72v-22h-46v-24h-48v-70h-22v-164h-24v-116h-22v-236h-22v-116h-24v-162h-22v-210h-26v-118h-22v-70h-24v-46h-22v-48h-120v26h-22v22h-24v68h-22v72h-22v48 h-24v68h-22v72h-26v70h-22v68h-24v48h-22v24h-72v-48h-22v-70h-26v-48h-22v-68h-24v-70h-22v-94h-22v-94h-24v-46h-22v-22h-26v-26h-94v26h-22v22h-24v68h-22v120h-26v116h-22v140h-24v210h-22v116h-22v188h-24v162h-22v140h-26v26h-22v22h-46v24h-94z" />
<glyph unicode="X" d="M74 38v94h46v24h94v22h22v26h24v22h22v24h26v48h22v22h24v46h22v48h26v22h22v46h24v24h22v24h26v46h22v24h24v22h22v72h22v22h24v94h-24v70h-22v24h-22v48h-24v22h-22v24h-26v48h-22v22h-24v46h-22v46h-26v22h-22v48h-24v46h-22v26h-26v22h-22v24h-92v22h-48v142h256v-26 h210v-22h24v-24h22v-44h-22v-26h-68v-22h-46v-72h22v-68h24v-26h22v-46h22v-46h24v-22h22v-48h26v-22h22v-46h24v-26h70v26h24v22h22v24h26v48h22v44h24v24h22v68h22v48h24v118h-68v22h-46v94h22v22h350v26h46v-26h68v-22h26v-94h-26v-22h-22v-24h-92v-22h-22v-26h-26v-22 h-22v-24h-24v-48h-22v-22h-26v-46h-22v-24h-24v-44h-22v-26h-26v-46h-22v-22h-24v-48h-22v-24h-22v-48h-24v-46h-22v-22h22v-48h24v-46h22v-48h22v-22h24v-46h22v-24h26v-24h22v-46h24v-46h22v-26h26v-44h22v-24h24v-48h22v-46h26v-22h22v-48h46v-24h116v-22h24v-48h22v-46 h-46v-22h-420v22h-46v22h-22v94h44v24h46v94h-22v70h-24v24h-22v70h-22v22h-24v24h-22v46h-26v24h-22v24h-24v46h-48v22h-22v-22h-24v-46h-22v-24h-26v-48h-22v-46h-24v-48h-22v-22h-22v-46h-24v-48h-22v-46h-26v-70h72v-24h68v-94h-24v-22h-44v-22h-422v22h-22v22h-24z" />
<glyph unicode="Y" d="M110 1370v116h46v26h162v-26h70v26h118v-26h116v-46h24v-22h-24v-22h-22v-26h-94v-22h-24v-46h24v-48h22v-46h24v-48h22v-24h26v-46h22v-22h24v-48h22v-46h22v-48h26v-22h22v-24h24v-48h70v48h24v24h22v22h24v48h24v46h24v48h22v46h24v46h22v22h22v94h26v26h-26v46h-68 v22h-46v26h-24v68h24v22h350v26h70v-26h44v-90h-22v-26h-22v-22h-70v-46h-22v-26h-26v-22h-22v-46h-24v-48h-22v-46h-26v-24h-22v-22h-24v-70h-22v-24h-26v-48h-22v-22h-22v-46h-24v-48h-22v-24h-24v-48h-24v-44h-24v-72h-22v-68h22v-350h24v-48h210v-24h48v-22h22v-48h-22 v-46h-72v-22h-48v22h-162v-22h-188v22h-208v46h-22v22h22v48h46v24h118v22h22v26h22v444h-22v46h-22v22h-24v70h-22v24h-26v22h-22v48h-24v24h-22v48h-24v46h-22v22h-26v48h-22v46h-24v22h-22v46h-26v26h-22v46h-22v22h-24v48h-22v24h-94v22h-46z" />
<glyph unicode="Z" d="M190 16v162h22v48h26v24h22v22h22v48h24v24h22v44h26v26h22v22h24v46h22v24h24v24h22v46h26v24h22v22h24v48h22v24h26v22h22v48h22v22h24v24h22v48h26v22h22v24h24v48h22v22h24v24h22v48h26v22h22v22h24v46h22v24h26v48h22v46h22v22h24v72h-444v-24h-68v-22h-26v-26h-46 v-68h-22v-72h-24v-46h-116v24h-22v234h22v116h22v22h24v26h234v-26h628v-22h48v-24h24v-116h-24v-48h-22v-22h-26v-46h-22v-26h-24v-22h-22v-24h-24v-46h-22v-22h-26v-22h-22v-48h-24v-24h-22v-22h-22v-48h-26v-24h-22v-48h-24v-22h-22v-24h-26v-48h-22v-22h-24v-22h-22v-46 h-24v-26h-22v-22h-26v-46h-22v-24h-24v-48h-22v-46h-22v-22h-26v-26h-22v-44h-24v-24h-22v-48h-26v-22h-22v-46h-24v-48h46v-24h398v24h140v22h48v26h22v22h24v24h22v48h24v68h22v48h120v-48h22v-162h-22v-142h-26v-68h-22v-26h-186v26h-700v-26h-94v26h-48v22h-22z" />
<glyph unicode="[" d="M452 26v506h24v776h-24v176h18v22h6v2h16v18h4v4h62v20h226v-24h22v24h176v-24h24v-20h22v-112h-22v-46h-90v-22h-240v-1176h128v-24h22v24h176v-24h24v-20h22v-112h-22v-46h-90v-22h-400v12h-40v22h-20v66h-24z" />
<glyph unicode="\" d="M356 1490v90h24v24h20v22h92v-22h24v-44h20v-70h22v-44h24v-68h20v-66h24v-68h22v-68h24v-44h20v-70h24v-66h22v-66h24v-70h22v-44h24v-66h20v-92h24v-66h22v-44h20v-46h24v-70h22v-66h24v-66h20v-70h24v-44h22v-46h24v-66h22v-70h24v-66h20v-90h24v-66h-24v-24h-20v-22 h-24v22h-68v24h-24v20h-20v92h-24v90h-22v66h-24v70h-20v90h-22v44h-24v46h-20v88h-24v44h-22v70h-24v66h-22v46h-24v66h-20v70h-24v44h-22v66h-24v70h-20v88h-24v44h-22v46h-20v68h-24v46h-22v66h-24v66h-22v46h-24v46h-20v44h-24z" />
<glyph unicode="]" d="M452 -6v112h22v20h24v24h176v-24h22v24h128v1176h-240v22h-90v46h-22v112h22v20h24v24h176v-24h22v24h226v-20h62v-4h4v-18h16v-2h6v-22h18v-176h-24v-776h24v-506h-24v-66h-20v-22h-40v-12h-400v22h-90v46h-22z" />
<glyph unicode="^" d="M550 1660l18 34l-12 6l150 254l12 -6l4 8l12 -6l4 8l12 -6l12 6l4 -8l12 6l4 -8l12 6l150 -254l-12 -6l18 -34l-22 -14l4 -6l-56 -34l-4 8l-10 -6l-6 8l-12 -6l-38 64l12 8l-68 114l-68 -114l12 -8l-38 -64l-12 6l-6 -8l-10 6l-4 -8l-56 34l4 6z" />
<glyph unicode="_" d="M42 -462h24v24h44v20h136v-20h876v20h66v-20h70v20h132v-20h44v-46h24v-90h-24v-22h-1144v22h-114v-22h-20v22h-90v22h-24v90z" />
<glyph unicode="`" d="M518 1856l18 30l-10 6l42 74l12 -6l8 14l12 -6l8 16l86 -52l-8 -16l152 -90l10 16l110 -64l-10 -16l32 -18l-8 -14l10 -8l-52 -90l-12 6l-8 -14l-12 6l-8 -16l-338 200l10 16z" />
<glyph unicode="a" d="M188 188v158h24v44h20v46h24v24h22v22h44v24h46v20h44v24h68v22h90v24h134v20h24v-20h112v20h66v24h24v22h22v180h-22v22h-24v24h-20v22h-46v22h-180v-22h-46v-22h-44v-24h-22v-22h-24v-68h-20v-22h-24v-24h-112v24h-22v22h-24v114h24v44h46v22h44v24h44v22h44v20h114v24 h314v-24h44v-20h46v-22h24v-24h22v-22h24v-44h20v-248h-20v-472h86v20h70v-20h20v-24h24v-66h-24v-24h-90v-22h-66v-24h-156v24h-24v22h-46v24h-44v-24h-66v-22h-92v-24h-312v24h-46v22h-44v24h-46v20h-24v46h-20v44h-24zM368 234h24v-46h44v-20h44v-24h134v-22h24v22h112 v24h46v20h44v24h46v22h20v46h24v180h-24v22h-312v-22h-70v-24h-44v-22h-44v-24h-24v-20h-20v-46h-24v-90z" />
<glyph unicode="b" d="M166 1404v24h22v44h44v22h114v24h66v20h136v-20h22v-46h24v-24h-24v-222h-22v-226h22v-22h68v22h112v20h226v-20h66v-22h46v-24h24v-22h44v-22h22v-22h20v-24h24v-46h22v-20h24v-46h20v-44h24v-136h22v-158h-22v-90h-24v-66h-20v-46h-24v-24h-22v-20h-24v-24h-20v-22h-22 v-24h-24v-20h-44v-24h-22v-22h-70v-24h-66v-22h-292v22h-134v-22h-112v22h-24v452h24v832h-24v44h-22v22h-134v24h-24v22h-22zM548 212h22v-24h24v-20h20v-24h90v-22h182v22h44v24h46v20h20v24h46v46h24v22h22v44h24v46h20v136h24v66h-24v68h-20v44h-24v44h-22v24h-24v22 h-22v24h-24v20h-20v24h-70v22h-246v-22h-46v-24h-44v-44h-22v-562z" />
<glyph unicode="c" d="M234 390v160h20v134h24v44h22v46h24v44h22v24h24v22h20v24h24v22h22v22h20v22h46v24h24v22h66v20h70v24h292v-24h66v-20h44v-22h24v-24h22v-22h20v-22h24v-46h22v-112h24v-44h-24v-46h-22v-22h-110v22h-46v46h-24v134h-20v22h-24v24h-68v22h-180v-22h-44v-24h-46v-22h-22 v-24h-24v-20h-20v-24h-24v-22h-22v-44h-24v-68h-20v-250h20v-66h24v-20h22v-46h24v-24h20v-22h46v-24h46v-20h114v-24h132v24h136v20h44v24h66v22h116v-22h20v-68h-20v-22h-24v-24h-46v-20h-66v-24h-46v-22h-110v-24h-70v-22h-268v22h-90v24h-70v22h-20v24h-22v20h-24v24 h-20v22h-24v24h-22v44h-24v46h-22v66h-24v66h-20z" />
<glyph unicode="d" d="M186 346v270h24v68h22v68h24v46h20v20h24v24h22v22h24v24h20v22h22v22h46v22h44v24h46v22h360v-22h66v66h24v46h-24v136h24v66h-24v44h-66v22h-114v90h24v24h46v22h110v24h70v20h112v-66h20v-90h-20v-90h20v-66h-20v-992h20v-46h114v-20h46v-90h-24v-24h-90v-22h-66v-24 h-136v24h-112v-24h-90v-22h-292v22h-44v24h-46v22h-24v24h-42v20h-24v24h-22v22h-24v44h-20v24h-24v46h-22v88h-24zM366 436h22v-90h24v-42h22v-24h24v-46h20v-22h24v-24h22v-20h44v-24h158v-22h44v22h90v24h46v20h24v24h20v202h24v314h-24v90h-44v24h-46v22h-66v24h-156 v-24h-70v-22h-44v-24h-46v-44h-20v-22h-24v-24h-22v-44h-24v-68h-22v-180z" />
<glyph unicode="e" d="M222 370v202h20v112h24v44h22v46h24v44h22v24h24v22h20v46h22v22h24v22h44v24h46v22h44v20h46v24h314v-24h44v-20h46v-22h24v-24h42v-22h24v-22h20v-22h24v-46h22v-24h24v-44h22v-66h24v-182h-24v-20h-68v-24h-584v-22h-114v-24h-20v-66h20v-46h24v-44h22v-22h24v-24h20 v-22h46v-24h46v-20h90v-24h180v24h136v20h66v24h66v22h90v-22h24v-68h-24v-22h-20v-24h-46v-20h-46v-24h-90v-22h-90v-24h-112v-22h-224v22h-92v24h-66v22h-44v24h-24v20h-22v24h-44v22h-22v44h-24v24h-22v46h-24v112h-20zM444 596h362v20h202v24h24v44h20v24h-20v44h-24v22 h-22v24h-24v44h-44v22h-22v24h-70v22h-176v-22h-46v-24h-24v-22h-22v-24h-24v-20h-20v-24h-24v-22h-22v-44h-24v-112z" />
<glyph unicode="f" d="M212 18v70h20v20h46v24h156v22h46v24h24v650h-24v24h-46v22h-156v24h-22v20h-24v24h24v44h46v24h156v20h22v182h24v90h20v44h24v46h22v22h24v24h20v20h46v24h24v22h42v24h90v20h180v-20h248v-24h24v-22h20v-24h-20v-90h-46v-22h-24v-24h-156v24h-112v22h-180v-22h-46v-24 h-20v-20h-24v-46h-22v-226h22v-20h24v-24h358v24h90v-24h46v-88h-24v-24h-66v-22h-24v22h-360v-22h-44v-654h24v-44h20v-22h248v-24h68v24h44v-24h44v-90h-20v-22h-92v-24h-20v24h-744v22h-20z" />
<glyph unicode="g" d="M188 -160h22v66h24v24h20v42h24v24h22v22h24v46h22v24h-22v110h22v46h20v24h24v20h22v46h24v22h-24v24h-22v20h-24v24h-20v46h-22v20h-24v70h-22v202h22v66h24v46h22v24h20v20h46v24h24v22h44v22h66v24h248v-24h68v-22h68v-22h44v-24h272v-20h20v-46h24v-24h-24v-20h-20 v-24h-160v-22h-22v-24h22v-178h-22v-46h-24v-44h-20v-46h-22v-24h-24v-20h-44v-24h-46v-22h-66v-24h-202v-22h-46v-20h-24v-24h-20v-22h-24v-44h-22v-24h46v-22h336v-24h22v24h136v-24h134v-20h46v-24h22v-22h24v-24h44v-22h22v-226h-22v-44h-24v-46h-20v-20h-24v-24h-22 v-22h-46v-22h-24v-24h-44v-20h-66v-24h-66v-22h-116v-24h-176v24h-206v22h-66v24h-44v20h-46v24h-22v22h-24v46h-20v20h-24v70h-22v90zM346 -138v-112h20v-46h24v-24h22v-20h44v-24h114v-22h112v-22h22v22h180v22h70v24h66v20h44v24h22v22h24v24h20v20h24v136h-24v24h-20v22 h-46v20h-44v24h-564v-24h-20v-20h-24v-22h-22v-24h-24v-44h-20zM436 560h20v-46h24v-24h22v-20h24v-24h66v-22h202v22h44v24h46v44h24v46h22v178h-22v46h-24v44h-22v24h-44v22h-46v24h-180v-24h-46v-22h-44v-24h-22v-44h-24v-46h-20v-178z" />
<glyph unicode="h" d="M108 1368v46h24v24h46v20h90v24h46v22h86v24h70v-24h22v-22h24v-114h-24v-156h-22v-68h22v-68h-22v-112h22v-66h24v20h90v24h20v22h66v22h46v24h250v-24h66v-22h22v-22h24v-24h20v-20h24v-24h22v-46h24v-66h20v-90h24v-136h-24v-428h136v-20h46v-70h-24v-22h-22v-24h-358 v24h-46v92h46v20h20v24h22v248h24v268h-24v68h-22v46h-20v22h-24v24h-22v20h-44v24h-182v-24h-66v-20h-68v-24h-46v-22h-20v-24h-24v-22h-22v-518h22v-66h44v-24h114v-20h42v-70h-20v-22h-226v-24h-178v24h-44v112h44v24h22v22h24v966h20v70h-20v90h-24v22h-46v20h-90v24 h-22v22h-24z" />
<glyph unicode="i" d="M244 46v24h24v44h22v22h226v24h44v20h46v676h-70v24h-156v-24h-90v24h-22v22h-24v66h24v24h178v20h204v24h88v-24h46v-66h24v-66h-24v-700h24v-20h44v-24h358v-22h46v-90h-22v-24h-44v-22h-114v22h-720v-22h-42v22h-46v46h-24zM560 1238v136h22v46h24v20h20v24h46v22h112 v-22h44v-24h24v-20h22v-136h-22v-22h-24v-24h-20v-20h-24v-24h-46v-22h-66v22h-66v24h-24v20h-22z" />
<glyph unicode="j" d="M334 -314h24v46h20v22h24v24h66v-24h46v-22h44v-24h22v-22h46v-24h44v-20h160v20h44v24h22v22h22v24h44v156h24v46h-24v112h24v68h-24v720h-268v22h-68v24h-22v22h-24v24h24v42h46v24h358v20h90v-20h24v-24h20v-606h24v-158h-24v-90h24v-44h-24v-24h24v-248h-24v-112h-20 v-44h-46v-24h-24v-22h-20v-20h-46v-24h-68v-22h-158v-24h-66v24h-156v22h-90v24h-46v20h-24v22h-20v24h-24v44zM784 1284v46h22v66h24v24h20v20h46v24h156v-24h24v-20h22v-46h24v-24h-24v-66h-22v-22h-24v-24h-20v-20h-24v-24h-46v-22h-66v22h-46v24h-44v66h-22z" />
<glyph unicode="k" d="M98 1396v24h22v20h24v24h110v22h46v24h90v20h66v-20h46v-272h-22v-674h22v-22h44v22h24v24h22v20h24v22h46v24h20v22h22v24h24v20h20v24h24v22h22v24h24v20h20v70h-20v22h-24v66h24v24h404v-24h24v-22h20v-44h-20v-22h-70v-24h-46v-22h-44v-24h-46v-20h-42v-24h-24v-22 h-20v-24h-46v-20h-24v-24h-22v-22h-24v-24h-20v-88h20v-24h24v-44h22v-22h24v-24h22v-46h24v-20h20v-24h24v-22h22v-24h20v-20h24v-22h22v-46h24v-24h44v-20h22v-24h70v24h132v-46h24v-24h-24v-44h-42v-22h-24v-24h-66v-22h-136v22h-46v24h-24v22h-20v24h-22v20h-24v24h-20 v22h-24v24h-22v20h-24v24h-22v46h-24v22h-20v44h-24v22h-22v44h-24v24h-20v22h-24v46h-42v24h-24v-24h-22v-22h-24v-24h-22v-22h-24v-24h-20v-20h-24v-24h-22v-158h22v-44h24v-22h90v-24h46v-20h20v-46h-20v-24h-316v-22h-92v22h-20v24h-24v46h24v44h44v22h22v136h24v20h-24 v70h24v20h-24v136h24v112h-24v90h24v24h-24v46h24v358h-24v182h-156v20h-24v46h-22z" />
<glyph unicode="l" d="M266 1350v90h22v24h90v22h156v24h116v20h132v-20h24v-180h20v-24h-20v-516h-24v-248h24v-160h-24v-178h24v-44h44v-24h292v-22h46v-24h22v-20h24v-24h-24v-46h-68v-22h-114v22h-378v-22h-92v22h-246v90h22v24h20v22h226v24h24v20h22v136h-22v66h22v948h-22v20h-160v-20 h-156v20h-22z" />
<glyph unicode="m" d="M18 880v46h24v42h66v24h116v20h90v-20h42v-24h24v24h90v20h112v24h24v-24h86v-20h46v-24h46v-22h68v22h46v24h90v20h202v-20h44v-24h22v-22h24v-44h20v-22h24v-70h22v-404h-22v-246h22v-24h46v-22h66v-44h24v-24h-24v-46h-338v24h-20v22h-24v24h24v20h20v24h24v66h22v610 h-22v44h-44v46h-182v-24h-20v-22h-24v-24h-22v-650h22v-24h24v-22h66v-44h24v-24h-24v-46h-314v24h-24v66h24v24h22v22h20v136h24v448h-24v70h-20v20h-22v46h-24v24h-156v-24h-24v-22h-46v-24h-20v-20h-24v-630h24v-24h20v-22h92v-24h24v-20h20v-24h-20v-22h-24v-24h-314v24 h-46v90h22v22h24v24h22v650h-22v24h-136v46h-24z" />
<glyph unicode="n" d="M110 880v66h22v22h44v24h114v20h134v-20h24v-24h20v-42h90v20h24v22h46v24h88v20h68v24h202v-24h24v-20h42v-24h46v-22h24v-20h20v-24h24v-46h22v-66h24v-630h22v-24h114v-22h42v-114h-42v-22h-182v22h-224v46h-22v24h22v20h24v24h20v22h24v24h22v268h20v202h-20v114h-22 v46h-24v20h-20v24h-24v22h-46v24h-156v-24h-46v-22h-66v-24h-46v-20h-68v-46h-22v-202h-24v-250h24v-132h22v-24h114v-22h46v-24h20v-20h22v-24h-22v-22h-20v-24h-428v24h-24v22h-22v24h22v44h24v22h44v24h22v674h-22v22h-158v24h-22z" />
<glyph unicode="o" d="M210 362v292h24v66h20v46h24v44h22v24h24v46h22v22h44v24h22v20h24v22h44v24h46v20h44v24h92v22h156v-22h112v-24h68v-20h66v-24h22v-22h24v-20h20v-24h24v-22h22v-46h24v-24h22v-44h24v-46h20v-112h24v-156h-24v-70h-20v-110h-24v-46h-22v-22h-24v-24h-22v-20h-24v-24 h-20v-22h-46v-24h-24v-20h-20v-24h-46v-22h-44v-24h-92v-22h-222v22h-70v24h-66v22h-44v24h-24v20h-46v24h-20v22h-22v24h-24v44h-22v46h-24v66h-20v46h-24zM390 428h22v-90h24v-22h20v-44h24v-22h22v-24h24v-22h20v-24h24v-20h46v-24h66v-22h136v22h66v24h46v20h44v24h24 v22h22v46h20v44h24v46h22v90h24v112h-24v90h-22v46h-24v20h-20v70h-22v20h-24v24h-20v22h-46v24h-46v22h-270v-22h-46v-24h-20v-22h-24v-24h-22v-20h-24v-46h-20v-68h-24v-88h-22v-160z" />
<glyph unicode="p" d="M188 884v66h24v22h44v24h112v22h44v24h46v-24h46v-22h20v-24h24v24h90v22h66v24h248v-24h44v-22h68v-24h44v-22h24v-20h22v-24h24v-22h20v-24h24v-44h22v-22h24v-70h20v-156h24v-180h-24v-46h-20v-46h-24v-42h-22v-44h-24v-24h-20v-22h-24v-24h-22v-22h-24v-22h-20v-22 h-68v-24h-44v-22h-114v-24h-158v24h-134v-44h-22v-226h22v-90h44v-22h112v-24h24v-66h-46v-22h-402v22h-46v66h22v24h68v22h22v68h20v1080h-20v24h-22v20h-134v24h-24zM524 502h24v-226h22v-66h24v-24h44v-22h46v-24h202v24h44v22h46v24h20v20h24v24h22v42h22v46h24v46h20 v270h-20v46h-24v20h-22v24h-22v22h-24v24h-20v22h-24v24h-22v20h-44v24h-248v-24h-44v-20h-24v-46h-22v-248h-24v-44z" />
<glyph unicode="q" d="M210 388v246h24v90h20v70h24v22h22v44h22v24h24v22h20v24h24v20h22v22h44v24h46v22h90v24h246v-24h70v-22h112v22h20v24h24v20h66v-20h24v-158h-24v-1192h24v-24h46v-22h90v-90h-68v-22h-338v22h-46v44h-20v22h44v24h46v22h22v24h24v20h20v292h-20v24h-182v-24h-134v24 h-68v22h-68v24h-46v22h-44v22h-46v22h-20v24h-24v46h-22v20h-22v46h-24v66h-20v46h-24zM390 432h22v-66h24v-46h20v-44h24v-22h22v-24h24v-20h20v-24h46v-22h90v-24h202v24h46v22h24v24h20v606h-20v24h-24v20h-22v24h-204v22h-22v-22h-66v-24h-46v-20h-24v-24h-44v-22h-22 v-46h-24v-24h-20v-44h-24v-66h-22v-182z" />
<glyph unicode="r" d="M188 884v88h24v24h132v22h136v24h114v-46h20v-24h24v-66h22v-46h44v24h46v22h22v24h24v20h44v22h46v24h44v22h46v24h88v20h68v-20h90v-24h46v-22h20v-24h24v-112h-24v-20h-20v-24h-204v24h-68v20h-20v-20h-90v-24h-46v-22h-44v-24h-24v-22h-22v-24h-24v-20h-22v-24h-24 v-22h-20v-472h20v-22h24v-24h338v-22h22v-44h24v-24h-24v-22h-22v-24h-226v24h-20v-24h-474v24h-20v22h-24v68h24v22h110v24h46v22h22v44h24v362h-24v42h24v24h-24v182h-22v20h-46v24h-68v-24h-112v-20h-20v44h-24z" />
<glyph unicode="s" d="M290 164v66h20v24h-20v42h20v46h24v24h90v-24h22v-22h24v-66h22v-44h24v-24h20v-22h46v-24h44v-22h248v22h44v24h46v22h20v44h24v136h-24v22h-42v24h-68v20h-90v24h-178v22h-70v24h-44v20h-46v24h-22v22h-24v24h-20v42h-24v46h-22v114h22v66h24v24h20v22h24v24h22v20h24 v22h22v24h44v22h46v24h134v20h112v-20h90v-24h182v-22h20v-24h24v-88h22v-114h-22v-66h-44v-24h-24v24h-68v44h-24v46h-20v66h-22v24h-68v22h-248v-22h-44v-24h-22v-20h-24v-46h-20v-70h20v-44h24v-22h22v-24h66v-20h160v-22h134v-24h66v-22h46v-24h46v-20h20v-24h24v-22h22 v-24h24v-66h20v-156h-20v-24h-24v-22h-22v-46h-24v-22h-20v-22h-46v-24h-24v-22h-46v-24h-132v-20h-204v20h-132v24h-24v-24h-112v24h-24v22h-22v24h-24v90h-20z" />
<glyph unicode="t" d="M254 906v66h22v24h136v22h24v44h20v182h46v24h90v-24h22v-46h24v-22h-24v-134h24v-24h90v-22h44v22h358v24h24v-24h22v-22h24v-90h-46v-22h-134v22h-24v-22h-404v-180h-22v-518h22v-22h22v-24h24v-22h224v22h158v24h66v22h114v-22h46v-68h-24v-22h-46v-24h-46v-22h-66 v-24h-114v-20h-202v-24h-110v24h-68v20h-44v24h-46v46h-24v22h-20v44h-24v518h24v202h-46v24h-114v22h-22z" />
<glyph unicode="u" d="M110 906v24h22v42h44v24h158v22h114v-22h20v-248h-20v-406h20v-66h24v-22h22v-44h24v-24h44v-22h68v-24h200v24h46v22h66v24h24v20h22v24h24v562h-24v24h-22v20h-112v24h-24v66h24v22h112v24h112v22h68v-22h22v-66h24v-114h-24v-586h24v-20h46v-24h110v-46h22v-44h-22 v-22h-90v-24h-44v-22h-68v-24h-68v24h-46v22h-20v24h-70v-24h-66v-22h-66v-24h-114v-20h-134v20h-68v24h-46v22h-20v24h-24v22h-46v44h-20v24h-24v66h-22v136h-24v22h24v114h-24v20h24v112h-24v90h24v70h-24v46h-22v20h-110v24h-24v22h-22z" />
<glyph unicode="v" d="M102 930v42h24v24h20v22h362v-22h90v-24h22v-66h-68v-22h-44v-68h20v-68h24v-44h22v-70h24v-42h22v-46h20v-68h24v-46h22v-44h24v-46h20v-46h24v-20h22v-22h24v-44h20v20h24v24h22v22h24v66h22v46h24v68h20v46h22v66h24v66h20v46h24v44h22v160h-66v22h-90v44h-22v22h22 v24h44v22h358v24h68v-52h16v-50h-16l2 -56h-90v-24h-22v-44h-24v-22h-20v-70h-24v-66h-22v-44h-24v-68h-22v-44h-24v-46h-20v-24h-24v-66h-22v-24h-24v-66h-20v-66h-24v-46h-22v-46h-20v-44h-24v-24h-22v-46h-24v-20h-136v20h-20v24h-24v46h-22v22h-24v68h-20v46h-22v44h-24 v42h-22v46h-24v46h-20v68h-24v22h-22v68h-24v46h-20v66h-24v46h-22v44h-24v68h-20v44h-24v24h-158v22h-20v24h-24z" />
<glyph unicode="w" d="M22 940v52h16v50h428v-24h90v-88h-24v-24h-156v-22h-24v-160h24v-90h22v-88h24v-68h20v-90h24v-46h22v-66h24v20h20v24h24v46h22v66h24v90h22v70h20v42h24v70h22v20h44v24h46v-24h24v-20h20v-46h24v-44h22v-68h24v-68h22v-46h24v-66h20v-24h22v-46h24v46h44v90h22v70h24 v90h22v88h22v114h22v66h-22v24h-22v22h-158v24h-20v20h-24v22h24v46h42v24h428v-24h22v-22h22v-24h24v-22h-24v-20h-22v-24h-44v-22h-46v-44h-24v-46h-20v-136h-22v-90h-24v-46h-20v-66h-24v-68h-22v-112h-24v-46h-22v-90h-22v-44h-22v-46h-24v-22h-22v-24h-110v24h-24v46 h-22v44h-24v46h-22v66h-24v90h-20v68h-24v68h-66v-68h-24v-46h-22v-88h-24v-68h-20v-68h-22v-44h-24v-24h-22v-46h-114v24h-20v22h-24v46h-22v68h-24v66h-20v90h-24v68h-22v68h-22v66h-24v70h-20v88h-24v90h-22v46h-24v44h-44v24h-68v56h-16z" />
<glyph unicode="x" d="M120 902v68h24v20h22v24h338v-24h110v-44h24v-22h-24v-22h-20v-22h-22v-22h-24v-70h46v-44h20v-22h24v-24h22v-20h24v-24h44v-22h22v22h46v24h24v20h20v24h24v22h22v24h24v20h20v70h-20v22h-46v22h-24v22h-20v22h20v24h24v20h404v-20h20v-90h-110v-22h-46v-24h-20v-22 h-24v-24h-22v-20h-46v-24h-24v-46h-20v-20h-24v-46h-22v-24h-20v-22h-24v-110h24v-24h20v-22h22v-24h24v-22h20v-44h46v-24h24v-22h22v-44h24v-22h20v-24h24v-22h22v-24h44v-20h90v-24h22v-22h24v-44h22v-24h-22v-22h-472v22h-22v90h66v24h22v66h-22v24h-20v22h-24v44h-22 v22h-24v24h-20v20h-24v24h-22v22h-90v-22h-24v-44h-22v-24h-44v-46h-22v-20h-24v-22h-20v-46h-24v-24h24v-44h86v-22h24v-44h-24v-46h-424v22h-24v90h24v24h66v20h66v24h24v22h22v24h24v22h20v20h24v46h22v24h46v44h24v22h20v24h24v22h22v114h-22v42h-24v24h-20v22h-24v24 h-22v20h-24v24h-22v22h-24v24h-20v20h-24v24h-22v22h-24v24h-44v22h-134v22h-24z" />
<glyph unicode="y" d="M144 924v22h24v44h134v24h22v-24h46v24h44v-24h180v-20h46v-68h-24v-22h-66v-22h-24v-90h24v-46h20v-44h24v-46h22v-46h24v-44h22v-46h20v-20h24v-70h22v-46h24v-20h20v-24h46v24h24v20h20v70h24v66h22v46h24v44h22v68h22v68h22v66h22v70h-22v22h-112v22h-24v22h-20v22 h20v44h202v24h136v-24h24v24h90v-24h22v-44h20v-22h-20v-44h-68v-22h-68v-24h-22v-46h-24v-66h-20v-68h-24v-46h-22v-66h-24v-46h-20v-66h-24v-24h-22v-66h-22v-46h-22v-44h-22v-68h-24v-24h-22v-44h-24v-46h-20v-20h-24v-70h-22v-46h-24v-42h-20v-44h-24v-70h-22v-46h-24 v-20h-20v-46h-22v-44h-46v-24h-24v-22h-44v-22h-22v-22h-90v-22h-90v22h-66v22h-24v22h-22v66h22v46h24v24h132v-24h114v24h46v44h20v46h24v22h22v44h24v46h22v44h20v46h24v46h22v66h-22v44h-24v46h-20v46h-22v44h-24v22h-22v44h-24v46h-20v24h-24v46h-22v20h-24v46h-20v66 h-24v46h-22v44h-24v46h-20v44h-24v46h-22v24h-22v22h-134v44h-24z" />
<glyph unicode="z" d="M266 114v24h24v20h22v46h22v24h24v22h20v20h24v24h22v22h24v24h20v20h24v24h22v22h24v24h44v46h22v20h24v24h22v22h20v24h24v20h22v22h24v24h20v22h46v24h24v20h20v24h24v46h22v20h46v46h24v24h-24v22h-404v-22h-46v-46h-24v-44h-20v-70h-46v-20h-44v20h-24v46h-22v24h22 v134h24v68h20v20h24v24h472v-24h178v24h114v-24h22v-20h24v-68h-24v-44h-22v-24h-24v-22h-20v-24h-24v-20h-22v-24h-24v-22h-20v-24h-24v-20h-22v-24h-20v-22h-24v-24h-22v-22h-24v-20h-22v-24h-24v-22h-20v-24h-24v-20h-22v-24h-24v-22h-20v-24h-46v-22h-24v-44h-20v-24 h-46v-22h-22v-24h-24v-20h-20v-22h-24v-90h44v-24h136v24h22v-24h158v24h112v20h46v24h20v22h24v24h22v42h24v46h44v24h46v-24h22v-178h-22v-90h-24v-24h-22v-22h-788v22h-66v24h-22v66h-24z" />
<glyph unicode="{" d="M380 702v42l6 4l-4 8l166 114v438h-24v176h18v22h6v2h16v18h4v4h62v20h226v-24h22v24h176v-24h24v-20h22v-112h-22v-46h-90v-22h-240v-516l-122 -56v-68l122 -92v-444h128v-24h22v24h176v-24h24v-20h22v-112h-22v-46h-90v-22h-400v12h-40v22h-20v66h-24v506h24v44 l-166 114l4 10z" />
<glyph unicode="|" d="M638 26v506h24v776h-24v176h24v24h20v22h112v-22h46v-90h22v-1434h-22v-24h-22v-22h-136v22h-20v66h-24z" />
<glyph unicode="}" d="M380 -6v112h22v20h24v24h176v-24h22v24h128v444l122 92v68l-122 56v516h-240v22h-90v46h-22v112h22v20h24v24h176v-24h22v24h226v-20h62v-4h4v-18h16v-2h6v-22h18v-176h-24v-438l166 -114l-4 -8l6 -4v-42l-6 -2l4 -10l-166 -114v-44h24v-506h-24v-66h-20v-22h-40v-12 h-400v22h-90v46h-22z" />
<glyph unicode="~" d="M324 528v136h22v22h66v24h226v-24h316v24h176v-24h24v-22h22v-112h-22v-44h-90v-24h-694v24h-24v20h-22z" />
<glyph unicode="&#xa0;" />
<glyph unicode="&#xa1;" d="M582 18v44h24v158h20v156h24v180h22v408h24v66h44v22h44v-22h24v-24h20v-112h24v-428h22v-178h24v-68h20v-226h-20v-68h-24v-20h-22v-24h-24v-22h-132v22h-46v24h-24v44h-20v68h-24zM582 1256v20h24v92h20v20h24v24h46v22h66v24h46v-24h44v-22h22v-24h24v-20h20v-182h-20 v-20h-24v-24h-22v-22h-44v-24h-92v24h-20v22h-24v24h-22v20h-24v24h-20v46h-24z" />
<glyph unicode="&#xa2;" d="M254 348v338h24v68h22v44h24v44h22v24h20v46h24v22h22v22h44v22h24v24h22v22h44v24h92v20h44v24h22v42h24v92h20v24h24v20h66v-20h24v-70h22v-88h24v-24h46v-20h86v-24h46v-22h24v-24h20v-22h24v-44h22v-114h24v-22h-24v-66h-22v-24h-68v24h-46v22h-20v22h-22v68h-24v66 h-20v24h-24v22h-268v-22h-46v-24h-24v-22h-46v-24h-20v-20h-24v-46h-22v-22h-24v-68h-20v-268h20v-46h24v-44h22v-24h24v-22h20v-24h24v-22h46v-24h22v-20h336v20h90v24h66v22h46v24h24v-24h46v-90h-24v-22h-22v-24h-46v-20h-44v-22h-70v-24h-86v-22h-70v-24h-46v-20h-20 v-46h-24v-180h-22v-66h-24v-24h-66v24h-20v20h-24v272h-22v44h-70v22h-44v24h-46v22h-20v20h-24v24h-22v22h-24v24h-20v20h-22v46h-24v46h-22v44h-24z" />
<glyph unicode="&#xa6;" d="M638 26v506h24v230l200 -14v-764h-22v-24h-22v-22h-136v22h-20v66h-24zM638 1308v176h24v24h20v22h112v-22h46v-90h22v-550h-200v440h-24z" />
<glyph unicode="&#xa7;" d="M378 106v52h14v18h-14v34h14v36h20v18h70v-18h16v-18h20v-52h16v-34h20v-18h12v-18h36v-18h36v-18h190v18h36v18h36v18h12v34h20v106h-20v18h-30v18h-54v14h-70v18h-136v18h-56v16h-84v18h-20v18h-16v18h-20v70h-14v104h14v34h2v18h18v18h16v18h20v18h16v16h20v18h16v18 h32v16h-32v18h-18v18h-18v18h-16v32h-20v36h-16v88h16v52h20v18h16v18h18v18h18v14h18v18h14v18h36v18h36v18h104v16h86v-16h70v-18h140v-18h16v-18h18v-68h18v-88h-18v-52h-34v-18h-18v18h-54v34h-18v36h-16v52h-16v18h-52v18h-192v-18h-34v-18h-18v-16h-18v-36h-16v-54h16 v-34h18v-18h18v-18h50v-16h124v-16h104v-18h50v-18h36v-16h2v-2h34v-16h16v-18h18v-18h18v-18h18v-52h14v-120h-14v-18h-18v-18h-18v-36h-18v-16h-16v-18h-36v-18h-18v-18h20v-16h16v-18h18v-18h16v-18h20v-50h16v-122h-16v-18h-20v-18h-16v-36h-18v-16h-16v-16h-36v-18h-20 v-18h-36v-18h-100v-16h-158v16h-100v18h-20v-18h-88v18h-18v18h-16v18h-20v68h-14zM554 558h12v-32h20v-18h16v-18h36v-18h34v-16h106v-2h86v18h34v18h34v18h16v18h-16v32h-20v36h-12v52h-18v18h-54v18h-190v-18h-36v-18h-16v-16h-20v-36h-12v-36z" />
<glyph unicode="&#xa8;" d="M372 1692v136h24v22h20v24h70v20h22v-20h66v-24h24v-22h20v-136h-20v-44h-24v-22h-66v-24h-22v24h-70v46h-20v20h-24zM882 1738v70h24v42h44v24h46v20h20v-20h68v-24h24v-22h20v-156h-20v-24h-24v-22h-22v-24h-90v24h-46v46h-20v66h-24z" />
<glyph unicode="&#xa9;" d="M-18 584v364h34v100h32v70h34v66h34v38h36v70h32v30h70v38h30v30h36v34h68v34h68v34h64v32h138v36h152v-36h168v-32h104v-34h98v-34h36v-34h32v-30h34v-38h32v-30h36v-70h36v-38h30v-66h38v-70h28v-170h38v-160h-38v-106h-28v-166h-38v-70h-30v-34h-36v-34h-36v-34h-32 v-32h-34v-36h-68v-34h-34v-32h-32v-36h-70v-36h-66v-34h-136v-34h-252v34h-106v34h-96v36h-68v36h-36v32h-68v34h-32v36h-32v32h-36v68h-34v70h-34v100h-32v72h-34zM172 606h34v-134h34v-32h32v-70h34v-30h32v-38h38v-32h28v-38h38v-28h68v-38h98v-34h284v34h96v38h72v28h64 v38h36v32h34v68h32v70h32v68h36v134h36v246h-36v134h-36v68h-32v32h-32v106h-34v30h-36v36h-28v36h-72v34h-66v34h-486v-34h-68v-34h-28v-36h-38v-36h-32v-30h-34v-68h-32v-104h-34v-132h-34v-318zM292 656v190h18v54h14v40h20v42h16v26h20v28h14v14h20v24h16v16h16v12h18 v16h18v12h16v14h16v14h34v14h16v12h36v12h50v16h190v-16h86v-12h154v-12h16v-28h16v-26h-16v-136h16v-28h-16v-14h-16v-12h-70v12h-14v28h-20v68h-16v26h-20v12h-14v16h-18v12h-36v16h-202v-16h-36v-12h-34v-16h-18v-12h-18v-12h-16v-30h-16v-12h-18v-26h-16v-42h-16v-54 h-18v-122h-18v-40h18v-110h18v-52h16v-42h16v-12h18v-28h16v-14h16v-14h18v-14h36v-12h32v-12h34v-16h156v16h32v12h36v12h18v14h14v28h20v12h16v56h20v40h14v14h16v12h54v-12h32v-176h-16v-12h-16v-16h-20v-14h-34v-14h-16v-12h-34v-14h-36v-12h-68v-16h-66v-10h-102v10 h-86v16h-54v12h-32v14h-34v12h-16v14h-18v14h-18v16h-16v12h-16v26h-20v14h-14v14h-20v40h-16v28h-20v40h-14v68h-18z" />
<glyph unicode="&#xaa;" d="M424 986v106h16v16h50v18h174v-18h242v18h136v-18h18v-16h16v-88h-16v-34h-70v-18h-532v18h-18v16h-16zM457 1358q-1 12 1 20t10 14q2 2 3 7t3 9t6 6q4 18 8 20t8 8t8 6q2 2 -2 8l-4 2q8 2 12 2h12q4 -2 2 4l-2 4q4 2 9 3t11 1q8 -2 2 6q0 2 10 4h6q6 -2 6 2q10 8 22 10 h8q8 -2 8 2q4 4 8 6t8 2h26l-2 4q-2 6 0 8h70q2 6 11 9t17 1t12 -10q4 -2 8 -1t9 1t9 -2q4 16 32 12q-2 4 1 8t7 4t8 4l6 6v60l-10 12q-12 -6 -14 8q2 2 -2 5t-6 5q-18 4 -22 12q-8 2 -30 2h-30q-2 -2 -4 -5t-5 -5t-7 -3t-8 1q-6 -14 -18 -12q-4 2 -6 -2q0 -2 -2 -4l-16 -14 q0 -22 -4 -28q-2 -2 -5 -6t-6 -7t-7 -3q0 -2 2 -6t2 -6h-38q-4 0 -15 -1t-19 0t-14 7q0 2 -6 6l-6 8q-2 2 -6 -1t-6 -1v70q-4 18 8 18h2q2 2 2 6q-4 8 4 14t18 4q2 6 8 9t12 1q2 6 9 10t13 2q6 12 22 10l4 4q4 6 8 6q0 2 19 1t21 -1q4 0 4 5t4 7h158q16 0 22 -10 q18 0 22 -12h4q12 0 16 -6q0 -4 6 -8q4 -2 6 -2q0 -4 2 -6l8 -8q0 -4 6 0q4 2 6 2q2 -12 2 -22l4 -2q4 2 6 0v-112q0 -2 1 -14t-1 -18t-10 -10v-198q0 -4 2 -5t7 0t7 1q8 16 22 10q8 -2 14 0t13 0t11 -10q10 -8 10 -12q18 -4 14 -26q-2 -2 0 -14t-4 -16l-4 -4l-2 -4 q-2 -8 -16 -10q-20 -2 -32 0q-2 -6 -7 -9t-12 -3t-13 2l2 -6q2 -4 2 -6h-74q-2 0 -10 -1t-14 0t-10 7q2 4 -2 6l-6 4l-4 4q-2 0 -9 1t-11 3h-6q-8 -2 -12 -2l-4 -2l-2 2q-6 0 -8 -4t-6 -5t-9 -2t-9 -1t-9 1t-7 1q-2 -2 0 -6t2 -6h-160q-18 -6 -26 12q-14 -4 -22 8 q-20 0 -24 14q-6 -2 -12 1t-8 9q-8 0 -12 8t0 16q-2 2 -12 -6v26q-8 -4 -12 -4v60q0 4 -1 16zM576 1338q14 -4 14 -22q8 0 13 -2t7 -8q18 0 22 -12h104q4 18 24 12q2 6 8 9t12 1q6 14 18 12q4 -2 7 3t7 7q0 4 1 8t3 8t6 6q2 8 2 18v40q0 2 -5 5t-7 5q-16 2 -60 2h-66 q-8 -12 -22 -12l-4 2q-8 2 -8 -2q2 -18 -22 -10q-2 0 4 -12l-24 2q-4 -10 -8 -12l-8 -6l-4 -4q-8 -22 -12 -22q-2 -2 -1 -8t-1 -8z" />
<glyph unicode="&#xab;" d="M182 564v96l14 6l-10 20l452 336l10 -20l58 30l24 -38l10 8l58 -96l-14 -6l10 -18l-14 -10l10 -20l-108 -64l-14 20l-234 -196l234 -196l14 20l108 -64l-10 -20l14 -10l-10 -18l14 -6l-58 -96l-10 8l-24 -38l-58 30l-10 -20l-452 336l10 20zM702 564v96l14 6l-10 20 l452 336l10 -20l58 30l24 -38l10 8l58 -96l-14 -6l10 -18l-14 -10l10 -20l-108 -64l-14 20l-234 -196l234 -196l14 20l108 -64l-10 -20l14 -10l-10 -18l14 -6l-58 -96l-10 8l-24 -38l-58 30l-10 -20l-452 336l10 20z" />
<glyph unicode="&#xac;" d="M188 576v136h22v20h66v24h226v-24h496v24h134v4h112v-22h46v-90h22v-534h-22v-24h-22v-22h-136v22h-20v66h-24v226h24v156h-4v-6h-874v22h-24v22h-22z" />
<glyph unicode="&#xad;" d="M404 576v136h22v20h66v24h226v-24h156v24h176v-24h24v-20h22v-112h-22v-46h-90v-22h-534v22h-24v22h-22z" />
<glyph unicode="&#xae;" d="M-18 584v364h34v100h32v70h34v66h34v38h36v70h32v30h70v38h30v30h36v34h68v34h68v34h64v32h138v36h152v-36h168v-32h104v-34h98v-34h36v-34h32v-30h34v-38h32v-30h36v-70h36v-38h30v-66h38v-70h28v-170h38v-160h-38v-106h-28v-166h-38v-70h-30v-34h-36v-34h-36v-34h-32 v-32h-34v-36h-68v-34h-34v-32h-32v-36h-70v-36h-66v-34h-136v-34h-252v34h-106v34h-96v36h-68v36h-36v32h-68v34h-32v36h-32v32h-36v68h-34v70h-34v100h-32v72h-34zM172 606h34v-134h34v-32h32v-70h34v-30h32v-38h38v-32h28v-38h38v-28h68v-38h98v-34h284v34h96v38h72v28h64 v38h36v32h34v68h-184v16h-14v12h-18v12h-14v26h-18v14h-16v24h-16v12h-14v28h-16v24h-16v28h-16v24h-16v28h-16v24h-16v26h-34v14h-14v24h-16v14h-16v12h-32v14h-16v12h-96v-12h-16v-272h16v-12h34v-12h92v-14h34v-38h-16v-12h-368v12h-14v38h14v14h18v12h46v12h32v634h-16 v12h-16v12h-30v-12h-16v12h-50v12h-14v40h14v12h18v12h94v-12h32v12h48v-12h144v12h64v-12h160v-12h46v-12h16v-12h18v-16h14v-12h18v-12h14v-12h18v-28h16v-52h16v-88h-16v-40h-16v-26h-18v-12h-14v-26h-32v-14h-18v-12h-32v-14h-30v-12h-32v-12h-32v-26h16v-14h32v-12h16 v-14h16v-12h14v-12h16v-14h16v-26h18v-12h14v-12h18v-28h14v-24h18v-12h16v-28h16v-24h14v-28h34v-12h30v-12h80v-14h8v4h32v68h36v134h36v246h-36v134h-36v68h-32v32h-32v106h-34v30h-36v36h-28v36h-72v34h-66v34h-486v-34h-68v-34h-28v-36h-38v-36h-32v-30h-34v-68h-32 v-104h-34v-132h-34v-318zM564 848h16v-12h224v12h32v14h16v12h16v14h16v12h16v40h14v88h-14v40h-16v12h-16v12h-32v16h-16v12h-64v12h-160v-12h-16v-28h-16v-244zM1218 370h8v28h-8v-28z" />
<glyph unicode="&#xb0;" d="M565 1843q-1 9 2 13t11 2q2 2 1 15t5 15q8 -2 10 1t1 12t-1 11q2 4 10 8t4 14q6 2 12 1t12 0t6 7q-2 4 1 6t7 2t7 2t-1 10v4h168q-4 -12 1 -15t17 -1h8q10 0 14 -2t2 -12q18 0 18 -18q10 4 11 -6t9 -8q6 0 7 -6t-1 -13t0 -11q8 4 11 0t3 -8v-22q0 -12 2 -16t12 -2v-78 q2 -6 0 -11t-5 -7t-9 -4q0 -2 1 -11t-1 -14t-10 -3q-6 0 -4 -14t-2 -16q-10 4 -12 -2q-4 -14 -6 -14q-6 0 -8 -3t-2 -7t-3 -6t-9 2q-4 -18 -18 -18q-12 6 -13 -5t-9 -9t-13 1t-7 -5t0 -12h-108q-12 -4 -14 6t-6 10h-8q-10 0 -14 2t-2 10q-2 4 -15 3t-13 5q2 6 0 8t-6 2t-8 2 t-2 8q0 4 -6 6t-8 4t0 12q6 12 -5 14t-9 6v8q0 10 -2 15t-12 1v120q0 2 -1 11zM646 1758q0 -6 8 -8q12 -2 6 -14q10 4 12 0t3 -10t5 -6q8 4 10 -7t10 -7q6 4 10 1t5 -4t2 -6t3 -7q2 0 18 -1t16 3q-2 4 -2 8q2 6 24 6q22 -4 22 14q4 2 12 1t12 0t4 9q-2 12 0 18t14 4v64 q-14 2 -16 18q-8 -2 -11 1t-2 13t1 12q0 4 -10 6t-6 14h-104q0 -14 -18 -16q4 -8 2 -11t-6 -3t-7 -2t-3 -8q2 -12 0 -18t-14 -4v-60z" />
<glyph unicode="&#xb1;" d="M238 674v70h14v26h14v18h90v14h282v374h16v16h30v12h82v-12h16v-16h16v-14h12v-278h-12v-52h12v-14h16v-16h358v-14h14v-18h14v-96h-14v-30h-60v-14h-66v14h-22v-14h-68v14h-154l-18 -14v-106h-12v-64h12v-190h-12v-14h-30l-18 -14v-14h-66v14h-30v28h-16v346h-14v14h-60 v14q-74 2 -152 8t-148 6l-12 16h-14zM244 40v94h16v14h46v18h158v-18h642v18h122v-18h18v-14h16v-78h-16v-32h-64v-16h-906v16h-16v16h-16z" />
<glyph unicode="&#xb4;" d="M518 1718l10 6l-8 14l32 20l-10 16l110 64l10 -16l152 90l-8 16l86 50l8 -16l12 8l8 -14l12 6l42 -76l-10 -6l18 -30l-44 -26l10 -16l-338 -198l-8 16l-12 -6l-8 14l-12 -6z" />
<glyph unicode="&#xb5;" d="M210 906v24h22v42h44v24h158v22h114v-22h20v-248h-20v-382h2v-24h18v-66h24v-22h22v-44h24v-24h44v-22h68v-24h120v24h46v22h66v24h24v20h22v24h24v562h-24v24h-22v20h-112v24h-24v66h24v22h112v24h112v22h68v-22h22v-66h24v-114h-24v-586h24v-20h46v-24h12l-2 -136h-34 v-22h-68v-24h-68v24h-46v22h-20v24h-70v-24h-66v-22h-66v-24h-34v-20h-134v20h-68v24h-46v22h-2v-276h-16v-22h-16v-22h-98v22h-14v62h-18v214h18v148h-18v166h8v24h-24v22h24v114h-24v20h24v112h-24v90h24v70h-24v46h-22v20h-110v24h-24v22h-22z" />
<glyph unicode="&#xb7;" d="M632 1194v72h14v14h18v14h50v16h52v-16h50v-14h34v-28h16v-44h-16v-88h-18v-100h-16v-14h16v-114h-16v-14h-18v-14h-84v14h-16v14h-18v86h-16v142h-18v74h-14z" />
<glyph unicode="&#xb8;" d="M568 -78l8 6l-6 10l242 170l6 -12l32 20l16 -20l6 4l38 -52l-8 -6l8 -8l-8 -8l6 -10l-60 -44l-8 12l-110 -76l120 -60l6 12l68 -32l-6 -12l8 -6l-4 -10l8 -4l-30 -58l-6 4l-12 -24l-36 16l-4 -14l-266 132l6 12l-8 2l4 14l-8 2l6 14l-8 10l8 6z" />
<glyph unicode="&#xba;" d="M424 986v106h16v16h50v18h174v-18h242v18h136v-18h18v-16h16v-88h-16v-34h-70v-18h-532v18h-18v16h-16zM470 1378v202h22v44h24v46h20v24h46v20h24v24h246v-24h66v-20h24v-24h22v-22h24v-44h20v-70h22v-132h-22v-46h-20v-46h-24v-24h-22v-20h-24v-24h-44v-22h-46v-24 h-178v24h-44v22h-46v24h-24v20h-20v46h-24v46h-22zM582 1422h24v-20h20v-24h24v-22h42v-24h70v24h66v22h46v44h24v112h-24v24h-22v46h-24v20h-178v-20h-24v-24h-20v-46h-24v-112z" />
<glyph unicode="&#xbb;" d="M182 318l14 6l-10 18l14 10l-10 20l108 64l14 -20l234 196l-234 196l-14 -20l-108 64l10 20l-14 10l10 18l-14 6l58 96l10 -8l24 38l58 -30l10 20l452 -336l-10 -20l14 -6v-96l-14 -6l10 -20l-452 -336l-10 20l-58 -30l-24 38l-10 -8zM702 318l14 6l-10 18l14 10l-10 20 l108 64l14 -20l234 196l-234 196l-14 -20l-108 64l10 20l-14 10l10 18l-14 6l58 96l10 -8l24 38l58 -30l10 20l452 -336l-10 -20l14 -6v-96l-14 -6l10 -20l-452 -336l-10 20l-58 -30l-24 38l-10 -8z" />
<glyph unicode="&#xbc;" d="M120 322v66h22v24h24v22h46v20h44v24h66v22h46v24h44v22h22v24h46v20h68v24h46v22h20v24h46v20h90v24h22v22h24v24h44v22h46v20h44v24h42v22h46v24h46v20h44v24h46v22h44v24h112v-24h24v-46h-24v-20h-22v-24h-44v-22h-46v-24h-44v-20h-46v-22h-44v-24h-46v-22h-46v-24 h-42v-20h-44v-24h-24v-22h-66v-24h-46v-20h-46v-24h-44v-22h-24v-24h-42v-22h-46v-24h-68v-20h-46v-22h-46v-24h-44v-20h-22v-24h-44v-22h-46v-24h-44v-22h-22v22h-24v24h-22zM232 1468v44h24v46h178v24h160v-24h20v-66h22v-112h-22v-382h22v-46h44v-24h160v-22h22v-90h-564 v22h-42v90h42v24h160v22h22v406h-22v44h-114v-22h-66v22h-22v44h-24zM614 50h22v68h24v24h20v44h24v46h22v66h24v24h22v66h24v46h20v20h24v24h90v-24h22v-42h-22v-44h-24v-46h-20v-46h-24v-68h-22v-46h-24v-44h-20v-88h246v20h22v158h24v68h20v22h46v-22h24v-24h20v-156h24 v-46h22v-20h90v-24h22v-22h24v-68h-24v-46h-112v-20h-22v-70h-24v-42h-20v-24h-70v24h-20v20h-24v68h-22v44h-46v24h-24v-24h-292v24h-20v22h-24v24h-22v110z" />
<glyph unicode="&#xbd;" d="M166 332v92h24v20h44v24h68v22h44v24h22v20h68v24h46v22h46v24h20v22h70v22h42v22h44v24h24v22h46v20h46v24h20v22h46v24h44v22h46v22h44v22h68v24h44v22h24v24h46v20h20v24h90v-24h22v-90h-42v-22h-24v-22h-66v-22h-46v-24h-44v-22h-46v-24h-46v-20h-44v-22h-46v-24h-44 v-22h-46v-22h-44v-22h-22v-24h-46v-22h-44v-24h-66v-20h-24v-24h-46v-22h-66v-24h-46v-20h-44v-24h-24v-22h-46v-22h-42v-24h-24v-20h-66v20h-24zM256 1456v70h24v22h132v24h182v-24h24v-22h20v-564h46v-20h156v-24h24v-22h22v-46h-22v-22h-562v22h-22v68h42v24h160v44h22 v384h-22v66h-90v-24h-90v24h-22v20h-24zM594 -140h24v44h20v24h22v22h44v24h24v22h68v24h44v20h24v22h46v24h44v20h22v24h20v22h46v24h24v22h22v24h24v110h-24v24h-22v22h-90v22h-22v-22h-134v-22h-24v-24h-22v-44h-24v-46h-22v-20h-24v-24h-66v44h-20v46h20v68h22v44h24v24 h20v20h46v24h46v22h68v24h202v-24h66v-22h46v-24h24v-20h20v-24h24v-44h22v-44h24v-70h-24v-44h-22v-46h-24v-22h-20v-24h-46v-20h-24v-24h-44v-22h-22v-20h-70v-24h-42v-22h-24v-24h-44v-22h-22v-24h-24v-20h24v-24h268v24h46v20h44v24h70v-24h20v-110h-20v-46h-46v-24h-68 v24h-182v-24h-336v24h-42v22h-24v90z" />
<glyph unicode="&#xbe;" d="M120 322v66h22v24h24v22h46v20h44v24h66v22h46v24h44v22h22v24h46v20h68v24h46v22h20v24h46v20h90v24h22v22h24v24h44v22h46v20h44v24h42v22h46v24h46v20h44v24h46v22h44v24h112v-24h24v-46h-24v-20h-22v-24h-44v-22h-46v-24h-44v-20h-46v-22h-44v-24h-46v-22h-46v-24 h-42v-20h-44v-24h-24v-22h-66v-24h-46v-20h-46v-24h-44v-22h-24v-24h-42v-22h-46v-24h-68v-20h-46v-22h-46v-24h-44v-20h-22v-24h-44v-22h-46v-24h-44v-22h-22v22h-24v24h-22zM132 804l4 26l12 6v4l10 6v14l52 -6l6 -8h28v-10h26v-12h52v-12h112v12h40v12h32v4l10 6q0 2 1 4 t1 4l12 6q0 2 1 3t1 3l10 6q2 6 2 16l12 6q2 4 2 9v9l10 6q0 4 2 15t2 15l10 6v76h-14v38q-4 2 -10 2l-4 6h-14v24h-26v12h-12v12h-28v12h-106v12h-12v12h-14l4 50l10 6v10h78v14h40v12h30q2 6 2 16l10 6q2 4 2 9v9l10 6v24h12v64h-12v24h-14v24q-2 0 -4 1t-4 1l-4 12 q-4 2 -10 2l-4 10q-4 2 -10 2l-4 10q-4 2 -10 2l-4 6h-98v-10h-16q0 -2 -1 -4t-1 -4l-8 -4v-12h-16q-4 -16 -4 -20l-8 -4v-24h-16q0 -2 -1 -4t-1 -4l-8 -4v-12h-86v12h-10l4 60l6 6q0 6 2 17t2 15l12 6v10h12v24h12v12h26v12h26v12h28v12h66v12h48v-12h64v-12h40v-12h26v-12 h28v-12h14v-12h12v-12h14v-22h12v-12h12v-48h14l-6 -122l-8 -4v-38h-12v-22h-16q0 -2 -1 -4t-1 -4l-8 -4v-14h-16q0 -2 -1 -2t-1 -2v-2l-8 -4v-4h14v-12h12v-12h14v-12h12v-12h12v-12h14v-12h14v-24h14v-24h12v-46h14l-6 -88l-8 -4v-36h-12q-2 -8 -4 -17t-2 -13l-8 -4v-24 h-16q-4 -16 -4 -20l-8 -4v-12h-12v-12h-16q0 -2 -1 -4t-1 -4l-8 -4v-12h-12v-10h-28v-14h-40v-12h-40v-12h-218v12h-40v12q-4 0 -10 2t-10 2l-4 10q-4 0 -11 2t-11 2l-4 6h-28v12h-14v24h-12zM614 50h22v68h24v24h20v44h24v46h22v66h24v24h22v66h24v46h20v20h24v24h90v-24 h22v-42h-22v-44h-24v-46h-20v-46h-24v-68h-22v-46h-24v-44h-20v-88h246v20h22v158h24v68h20v22h46v-22h24v-24h20v-156h24v-46h22v-20h90v-24h22v-22h24v-68h-24v-46h-112v-20h-22v-70h-24v-42h-20v-24h-70v24h-20v20h-24v68h-22v44h-46v24h-24v-24h-292v24h-20v22h-24v24 h-22v110z" />
<glyph unicode="&#xbf;" d="M368 106v182h20v66h24v46h22v44h24v22h22v24h24v20h20v24h24v22h22v24h20v46h24v20h22v22h24v44h20v46h24v160h22v20h114v-20h22v-136h-22v-70h-24v-44h-20v-22h-24v-44h-22v-46h-46v-46h-24v-20h-20v-24h-24v-46h-22v-44h-24v-46h-20v-178h20v-70h24v-44h46v-22h202v22 h24v24h20v44h22v182h24v20h20v22h116v-22h20v-20h24v-160h-24v-22h-20v-44h-24v-46h-22v-24h-24v-42h-46v-24h-44v-22h-22v-24h-66v-20h-180v20h-90v24h-22v22h-44v24h-24v22h-22v20h-24v24h-22v22h-24v68h-20zM570 1210v66h20v46h24v44h46v22h202v-22h24v-24h20v-156h-20 v-22h-24v-44h-46v-24h-44v-22h-68v22h-44v24h-46v44h-24v46h-20z" />
<glyph unicode="&#xc0;" d="M54 26h44v-22h226v22h246v24h22v66h-22v22h-134v24h-22v20h-24v90h24v70h22v88h24v24h42v20h160v-20h312v-24h24v-22h22v-44h24v-68h20v-68h24v-66h-24v-24h-66v-22h-90v-24h-24v-66h70v-22h472v22h20v90h-44v22h-66v24h-46v44h-24v46h-20v44h-24v68h-22v44h-24v90h-22 v46h-20v46h-24v90h-22v44h-24v44h-20v44h-24v70h-22v66h-24v68h-20v68h-24v66h-22v68h-24v68h-22v44h-24v70h-20v42h-22v24h-24v22h-66v-22h-24v-24h-44v-88h-22v-90h-24v-46h-22v-68h-24v-66h-20v-90h-24v-68h-22v-44h-20v-70h-24v-44h-22v-44h-24v-90h-20v-44h-24v-46h-22 v-46h-24v-68h-22v-66h-24v-68h-20v-24h-24v-66h-22v-24h-24v-20h-42v-24h-44v-22h-24v-90zM314 1784l18 30l-10 6l42 74l12 -6l8 14l12 -6l8 16l86 -52l-8 -16l152 -90l10 16l110 -64l-10 -16l32 -18l-8 -14l10 -8l-52 -90l-12 6l-8 -14l-12 6l-8 -16l-338 200l10 16z M526 610v114h20v44h24v68h22v46h24v90h22v44h24v68h20v44h46v22h24v-46h20v-42h24v-68h22v-46h20v-66h24v-70h22v-88h24v-44h22v-70h-46v-20h-338v20h-20z" />
<glyph unicode="&#xc1;" d="M54 26v90h24v22h44v24h42v20h24v24h22v66h24v24h20v68h24v66h22v68h24v46h22v46h24v44h20v90h24v44h22v44h24v70h20v44h22v68h24v90h20v66h24v68h22v46h24v90h22v88h44v24h24v22h66v-22h24v-24h22v-42h20v-70h24v-44h22v-68h24v-68h22v-66h24v-68h20v-68h24v-66h22v-70 h24v-44h20v-44h24v-44h22v-90h24v-46h20v-46h22v-90h24v-44h22v-68h24v-44h20v-46h24v-44h46v-24h66v-22h44v-90h-20v-22h-472v22h-70v66h24v24h90v22h66v24h24v66h-24v68h-20v68h-24v44h-22v22h-24v24h-312v20h-160v-20h-42v-24h-24v-88h-22v-70h-24v-90h24v-20h22v-24h134 v-22h22v-66h-22v-24h-246v-22h-226v22h-44zM526 610h20v-20h338v20h46v70h-22v44h-24v88h-22v70h-24v66h-20v46h-22v68h-24v42h-20v46h-24v-22h-46v-44h-20v-68h-24v-44h-22v-90h-24v-46h-22v-68h-24v-44h-20v-114zM670 1646l10 6l-8 14l32 20l-10 16l110 64l10 -16l152 90 l-8 16l86 50l8 -16l12 8l8 -14l12 6l42 -76l-10 -6l18 -30l-44 -26l10 -16l-338 -198l-8 16l-12 -6l-8 14l-12 -6z" />
<glyph unicode="&#xc2;" d="M54 26v90h24v22h44v24h42v20h24v24h22v66h24v24h20v68h24v66h22v68h24v46h22v46h24v44h20v90h24v44h22v44h24v70h20v44h22v68h24v90h20v66h24v68h22v46h24v90h22v88h44v24h24v22h66v-22h24v-24h22v-42h20v-70h24v-44h22v-68h24v-68h22v-66h24v-68h20v-68h24v-66h22v-70 h24v-44h20v-44h24v-44h22v-90h24v-46h20v-46h22v-90h24v-44h22v-68h24v-44h20v-46h24v-44h46v-24h66v-22h44v-90h-20v-22h-472v22h-70v66h24v24h90v22h66v24h24v66h-24v68h-20v68h-24v44h-22v22h-24v24h-312v20h-160v-20h-42v-24h-24v-88h-22v-70h-24v-90h24v-20h22v-24h134 v-22h22v-66h-22v-24h-246v-22h-226v22h-44zM526 610h20v-20h338v20h46v70h-22v44h-24v88h-22v70h-24v66h-20v46h-22v68h-24v42h-20v46h-24v-22h-46v-44h-20v-68h-24v-44h-22v-90h-24v-46h-22v-68h-24v-44h-20v-114zM540 1584l18 34l-12 6l150 254l12 -6l4 8l12 -6l4 8l12 -6 l12 6l4 -8l12 6l4 -8l12 6l150 -254l-12 -6l18 -34l-22 -14l4 -6l-56 -34l-4 8l-10 -6l-6 8l-12 -6l-38 64l12 8l-68 114l-68 -114l12 -8l-38 -64l-12 6l-6 -8l-10 6l-4 -8l-56 34l4 6z" />
<glyph unicode="&#xc4;" d="M54 26h44v-22h226v22h246v24h22v66h-22v22h-134v24h-22v20h-24v90h24v70h22v88h24v24h42v20h160v-20h312v-24h24v-22h22v-44h24v-68h20v-68h24v-66h-24v-24h-66v-22h-90v-24h-24v-66h70v-22h472v22h20v90h-44v22h-66v24h-46v44h-24v46h-20v44h-24v68h-22v44h-24v90h-22 v46h-20v46h-24v90h-22v44h-24v44h-20v44h-24v70h-22v66h-24v68h-20v68h-24v66h-22v68h-24v68h-22v44h-24v70h-20v42h-22v24h-24v22h-66v-22h-24v-24h-44v-88h-22v-90h-24v-46h-22v-68h-24v-66h-20v-90h-24v-68h-22v-44h-20v-70h-24v-44h-22v-44h-24v-90h-20v-44h-24v-46h-22 v-46h-24v-68h-22v-66h-24v-68h-20v-24h-24v-66h-22v-24h-24v-20h-42v-24h-44v-22h-24v-90zM366 1626v136h24v22h20v24h70v20h22v-20h66v-24h24v-22h20v-136h-20v-44h-24v-22h-66v-24h-22v24h-70v46h-20v20h-24zM526 610v114h20v44h24v68h22v46h24v90h22v44h24v68h20v44h46 v22h24v-46h20v-42h24v-68h22v-46h20v-66h24v-70h22v-88h24v-44h22v-70h-46v-20h-338v20h-20zM876 1672v70h24v42h44v24h46v20h20v-20h68v-24h24v-22h20v-156h-20v-24h-24v-22h-22v-24h-90v24h-46v46h-20v66h-24z" />
<glyph unicode="&#xc6;" d="M-128 18v90h24v22h44v24h42v20h24v24h22v66h24v24h20v68h24v66h22v68h24v46h22v46h24v44h20v90h24v44h22v44h24v70h20v44h22v68h24v90h20v66h24v68h22v46h24v90h22v88h44v24h24v22h66v-22h24v-16h946v-22h24v-66h22v-90h-22v-114h-24v-66h-20v-22h-92v42h-24v114h-20v46 h-46v22h-134v24h-338l-156 4l50 -108v-32l76 -180h-16v-68h24v-68h22v-22h246v46h24v44h22v68h24v22h46v-22h20v-46h24v-22h-24v-406h-66v24h-24v46h-22v44h-24v46h-20v20h-66v24h-160v-8h20v-44h22v-90h24v-46h20v-46h22v-90h24v-44h22v-68h24v-44h20v-46h24v-44h46v-16 h138v24h90v20h42v24h24v46h22v90h24v66h22v22h68v-22h22v-44h24v-314h-24v-24h-22v-22h-44v-24h-46v24h-250v-8h-472v22h-70v66h24v24h90v22h66v24h24v66h-24v68h-20v68h-24v44h-22v22h-24v24h-312v20h-160v-20h-42v-24h-24v-88h-22v-70h-24v-90h24v-20h22v-24h134v-22h22 v-66h-22v-24h-246v-22h-226v22h-44zM344 602h20v-20h338v20h46v70h-22v44h-24v88h-22v70h-24v66h-20v46h-22v68h-24v42h-20v46h-24v-22h-46v-44h-20v-68h-24v-44h-22v-90h-24v-46h-22v-68h-24v-44h-20v-114z" />
<glyph unicode="&#xc7;" d="M210 544v314h24v90h20v68h24v68h22v44h24v46h22v22h24v44h20v24h24v22h22v24h24v20h20v24h22v22h44v24h24v20h46v22h66v24h248v-24h114v-22h202v-20h20v-46h24v-44h-24v-226h24v-46h-24v-22h-20v-22h-92v22h-20v46h-24v112h-22v44h-24v22h-20v24h-24v22h-46v24h-268v-24 h-44v-22h-46v-24h-24v-22h-22v-22h-24v-46h-20v-22h-24v-44h-22v-68h-20v-90h-24v-202h-22v-68h22v-182h24v-86h20v-70h22v-22h24v-44h20v-24h24v-22h22v-24h46v-20h44v-24h46v-22h202v22h44v24h46v20h24v24h20v46h24v20h22v92h24v66h20v24h22v20h70v-20h44v-292h-24v-24 h-20v-22h-24v-24h-46v-22h-22v-20h-44v-24h-46v-22h-90v-24h-20l38 -142l-8 -4l38 -148l-20 -6l4 -20l-16 -4l4 -18l-90 -26l-6 18l-36 -10l-20 78l-20 -6l-62 268h-8v20h-114v24h-68v22h-44v24h-46v20h-20v22h-24v24h-22v22h-24v24h-20v44h-24v22h-22v24h-24v66h-22v46h-24 v66h-20v114h-24z" />
<glyph unicode="&#xc8;" d="M176 1354h22v-24h24v-20h112v-24h44v-1104h-20v-20h-24v-24h-68v-22h-44v-24h-24v-42h24v-24h20v-22h946v-24h46v24h44v22h22v24h24v314h-24v44h-22v22h-68v-22h-22v-66h-24v-90h-22v-46h-24v-24h-42v-20h-90v-24h-406v24h-22v44h-24v450h24v24h22v44h160v-24h66v-20h20 v-46h24v-44h22v-46h24v-24h66v406h24v22h-24v46h-20v22h-46v-22h-24v-68h-22v-44h-24v-46h-246v22h-22v68h-24v68h24v292h22v24h338v-24h134v-22h46v-46h20v-114h24v-42h92v22h20v66h24v114h22v90h-22v66h-24v22h-1056v-22h-22v-66zM456 1778l18 30l-10 6l42 74l12 -6l8 14 l12 -6l8 16l86 -52l-8 -16l152 -90l10 16l110 -64l-10 -16l32 -18l-8 -14l10 -8l-52 -90l-12 6l-8 -14l-12 6l-8 -16l-338 200l10 16z" />
<glyph unicode="&#xc9;" d="M176 1354v66h22v22h1056v-22h24v-66h22v-90h-22v-114h-24v-66h-20v-22h-92v42h-24v114h-20v46h-46v22h-134v24h-338v-24h-22v-292h-24v-68h24v-68h22v-22h246v46h24v44h22v68h24v22h46v-22h20v-46h24v-22h-24v-406h-66v24h-24v46h-22v44h-24v46h-20v20h-66v24h-160v-44 h-22v-24h-24v-450h24v-44h22v-24h406v24h90v20h42v24h24v46h22v90h24v66h22v22h68v-22h22v-44h24v-314h-24v-24h-22v-22h-44v-24h-46v24h-946v22h-20v24h-24v42h24v24h44v22h68v24h24v20h20v1104h-44v24h-112v20h-24v24h-22zM508 1646l10 6l-8 14l32 20l-10 16l110 64 l10 -16l152 90l-8 16l86 50l8 -16l12 8l8 -14l12 6l42 -76l-10 -6l18 -30l-44 -26l10 -16l-338 -198l-8 16l-12 -6l-8 14l-12 -6z" />
<glyph unicode="&#xca;" d="M176 1354v66h22v22h1056v-22h24v-66h22v-90h-22v-114h-24v-66h-20v-22h-92v42h-24v114h-20v46h-46v22h-134v24h-338v-24h-22v-292h-24v-68h24v-68h22v-22h246v46h24v44h22v68h24v22h46v-22h20v-46h24v-22h-24v-406h-66v24h-24v46h-22v44h-24v46h-20v20h-66v24h-160v-44 h-22v-24h-24v-450h24v-44h22v-24h406v24h90v20h42v24h24v46h22v90h24v66h22v22h68v-22h22v-44h24v-314h-24v-24h-22v-22h-44v-24h-46v24h-946v22h-20v24h-24v42h24v24h44v22h68v24h24v20h20v1104h-44v24h-112v20h-24v24h-22zM580 1588l18 34l-12 6l150 254l12 -6l4 8l12 -6 l4 8l12 -6l12 6l4 -8l12 6l4 -8l12 6l150 -254l-12 -6l18 -34l-22 -14l4 -6l-56 -34l-4 8l-10 -6l-6 8l-12 -6l-38 64l12 8l-68 114l-68 -114l12 -8l-38 -64l-12 6l-6 -8l-10 6l-4 -8l-56 34l4 6z" />
<glyph unicode="&#xcb;" d="M176 1354h22v-24h24v-20h112v-24h44v-1104h-20v-20h-24v-24h-68v-22h-44v-24h-24v-42h24v-24h20v-22h946v-24h46v24h44v22h22v24h24v314h-24v44h-22v22h-68v-22h-22v-66h-24v-90h-22v-46h-24v-24h-42v-20h-90v-24h-406v24h-22v44h-24v450h24v24h22v44h160v-24h66v-20h20 v-46h24v-44h22v-46h24v-24h66v406h24v22h-24v46h-20v22h-46v-22h-24v-68h-22v-44h-24v-46h-246v22h-22v68h-24v68h24v292h22v24h338v-24h134v-22h46v-46h20v-114h24v-42h92v22h20v66h24v114h22v90h-22v66h-24v22h-1056v-22h-22v-66zM392 1636v136h24v22h20v24h70v20h22v-20 h66v-24h24v-22h20v-136h-20v-44h-24v-22h-66v-24h-22v24h-70v46h-20v20h-24zM902 1682v70h24v42h44v24h46v20h20v-20h68v-24h24v-22h20v-156h-20v-24h-24v-22h-22v-24h-90v24h-46v46h-20v66h-24z" />
<glyph unicode="&#xcc;" d="M254 1330h24v-20h158v-24h180v-22h22v-68h24v-92h-24v-898h-22v-44h-46v-24h-68v24h-112v-24h-44v-22h-22v-66h22v-24h20v-22h834v22h46v66h-24v24h-22v22h-316v24h-46v20h-20v654h-24v66h24v362h20v22h202v24h114v66h22v24h-22v20h-24v22h-156v24h-20v-24h-676v-42h-24 v-70zM320 1774l18 30l-10 6l42 74l12 -6l8 14l12 -6l8 16l86 -52l-8 -16l152 -90l10 16l110 -64l-10 -16l32 -18l-8 -14l10 -8l-52 -90l-12 6l-8 -14l-12 6l-8 -16l-338 200l10 16z" />
<glyph unicode="&#xcd;" d="M254 1330v70h24v42h676v24h20v-24h156v-22h24v-20h22v-24h-22v-66h-114v-24h-202v-22h-20v-362h-24v-66h24v-654h20v-20h46v-24h316v-22h22v-24h24v-66h-46v-22h-834v22h-20v24h-22v66h22v22h44v24h112v-24h68v24h46v44h22v898h24v92h-24v68h-22v22h-180v24h-158v20h-24z M644 1646l10 6l-8 14l32 20l-10 16l110 64l10 -16l152 90l-8 16l86 50l8 -16l12 8l8 -14l12 6l42 -76l-10 -6l18 -30l-44 -26l10 -16l-338 -198l-8 16l-12 -6l-8 14l-12 -6z" />
<glyph unicode="&#xce;" d="M254 1330v70h24v42h676v24h20v-24h156v-22h24v-20h22v-24h-22v-66h-114v-24h-202v-22h-20v-362h-24v-66h24v-654h20v-20h46v-24h316v-22h22v-24h24v-66h-46v-22h-834v22h-20v24h-22v66h22v22h44v24h112v-24h68v24h46v44h22v898h24v92h-24v68h-22v22h-180v24h-158v20h-24z M522 1600l18 34l-12 6l150 254l12 -6l4 8l12 -6l4 8l12 -6l12 6l4 -8l12 6l4 -8l12 6l150 -254l-12 -6l18 -34l-22 -14l4 -6l-56 -34l-4 8l-10 -6l-6 8l-12 -6l-38 64l12 8l-68 114l-68 -114l12 -8l-38 -64l-12 6l-6 -8l-10 6l-4 -8l-56 34l4 6z" />
<glyph unicode="&#xcf;" d="M254 1330h24v-20h158v-24h180v-22h22v-68h24v-92h-24v-898h-22v-44h-46v-24h-68v24h-112v-24h-44v-22h-22v-66h22v-24h20v-22h834v22h46v66h-24v24h-22v22h-316v24h-46v20h-20v654h-24v66h24v362h20v22h202v24h114v66h22v24h-22v20h-24v22h-156v24h-20v-24h-676v-42h-24 v-70zM356 1634v136h24v22h20v24h70v20h22v-20h66v-24h24v-22h20v-136h-20v-44h-24v-22h-66v-24h-22v24h-70v46h-20v20h-24zM866 1680v70h24v42h44v24h46v20h20v-20h68v-24h24v-22h20v-156h-20v-24h-24v-22h-22v-24h-90v24h-46v46h-20v66h-24z" />
<glyph unicode="&#xd0;" d="M140 652v136h22v20h66v24h120v184h22v112h-22v46h22v44h-22v46h-24v22h-66v24h-90v20h-24v70h24v20h22v22h158v-22h248v22h44v-22h224v-20h68v-24h46v-22h44v-24h46v-20h22v-24h20v-22h24v-24h22v-22h24v-22h20v-22h24v-46h22v-24h24v-42h20v-68h24v-92h22v-110h24v-202 h-24v-136h-22v-66h-24v-70h-20v-46h-24v-44h-22v-22h-24v-24h-20v-20h-24v-46h-46v-24h-20v-22h-22v-20h-46v-24h-24v-22h-134v-24h-650v24h-24v22h-22v66h46v24h66v22h44v24h24v446h-162v22h-24v22h-22zM506 474h20v-312h24v-24h66v-22h136v22h66v24h70v20h44v24h46v46h20 v20h24v24h22v46h24v46h22v66h20v66h24v136h22v90h-22v156h-24v70h-20v66h-22v24h-24v42h-22v24h-24v46h-44v22h-22v22h-24v22h-20v24h-90v22h-226v-22h-22v-24h-24v-432h244v24h176v-24h24v-20h22v-112h-22v-46h-90v-22h-354v-64h-20v-70z" />
<glyph unicode="&#xd1;" d="M132 70v22h22v24h24v22h22v24h24v20h20v24h46v1080h-22v24h-114v20h-22v112h22v24h136v-24h202v-22h24v-44h20v-46h24v-44h22v-22h24v-68h20v-46h22v-22h24v-44h20v-46h24v-44h22v-46h24v-22h22v-24h24v-44h20v-46h24v-44h22v-22h24v-46h20v-20h24v-46h22v-44h20v-24h24 v-22h22v-46h46v-24h24v564h-24v180h-22v46h-24v22h-88v24h-44v20h-46v90h22v22h472v-22h22v-90h-22v-20h-46v-24h-44v-112h-22v-70h22v-110h-22v-450h22v-518h-22v-22h-44v-24h-70v24h-20v22h-24v24h-22v42h-24v46h-22v44h-24v46h-20v44h-22v46h-24v70h-20v20h-24v66h-22v24 h-24v46h-20v22h-24v44h-22v46h-24v44h-22v24h-24v44h-20v44h-24v46h-22v24h-20v44h-24v46h-22v44h-24v22h-20v46h-46v20h-24v-42h-22v-608h22v-202h24v-46h22v-24h68v-20h88v-24h24v-22h20v-90h-132v-22h-360v22h-46v44h-22zM324 1606v136h22v22h66v24h226v-24h316v24h176 v-24h24v-22h22v-112h-22v-44h-90v-24h-694v24h-24v20h-22z" />
<glyph unicode="&#xd2;" d="M166 520h22v-90h24v-66h20v-68h24v-24h22v-44h24v-22h20v-24h22v-44h24v-22h20v-24h46v-22h46v-20h44v-24h90v-22h202v22h136v24h44v20h46v22h22v24h24v22h20v24h24v20h46v24h20v46h24v44h22v46h24v46h20v110h24v112h22v272h-22v112h-24v90h-20v44h-24v68h-22v44h-24v24 h-20v22h-24v24h-22v44h-24v22h-44v24h-22v20h-24v22h-42v24h-90v22h-136v24h-70v-24h-66v-22h-90v-24h-44v-22h-22v-20h-46v-24h-24v-22h-44v-44h-22v-24h-20v-22h-24v-68h-22v-22h-24v-70h-20v-42h-24v-160h-22v-382zM324 1790l18 30l-10 6l42 74l12 -6l8 14l12 -6l8 16 l86 -52l-8 -16l152 -90l10 16l110 -64l-10 -16l32 -18l-8 -14l10 -8l-52 -90l-12 6l-8 -14l-12 6l-8 -16l-338 200l10 16zM368 544v404h20v90h24v66h22v46h24v46h22v44h24v24h20v22h24v24h66v20h66v24h92v-24h68v-20h46v-24h44v-22h46v-24h20v-44h22v-46h24v-46h22v-20h24 v-90h20v-136h24v-202h-24v-158h-20v-90h-24v-44h-22v-46h-24v-22h-22v-44h-20v-24h-24v-22h-46v-24h-44v-20h-90v-24h-68v24h-66v20h-44v24h-46v22h-24v24h-20v20h-24v24h-22v46h-24v46h-22v66h-24v90h-20z" />
<glyph unicode="&#xd3;" d="M166 520v382h22v160h24v42h20v70h24v22h22v68h24v22h20v24h22v44h44v22h24v24h46v20h22v22h44v24h90v22h66v24h70v-24h136v-22h90v-24h42v-22h24v-20h22v-24h44v-22h24v-44h22v-24h24v-22h20v-24h24v-44h22v-68h24v-44h20v-90h24v-112h22v-272h-22v-112h-24v-110h-20v-46 h-24v-46h-22v-44h-24v-46h-20v-24h-46v-20h-24v-24h-20v-22h-24v-24h-22v-22h-46v-20h-44v-24h-136v-22h-202v22h-90v24h-44v20h-46v22h-46v24h-20v22h-24v44h-22v24h-20v22h-24v44h-22v24h-24v68h-20v66h-24v90h-22zM368 544h20v-90h24v-66h22v-46h24v-46h22v-24h24v-20h20 v-24h24v-22h46v-24h44v-20h66v-24h68v24h90v20h44v24h46v22h24v24h20v44h22v22h24v46h22v44h24v90h20v158h24v202h-24v136h-20v90h-24v20h-22v46h-24v46h-22v44h-20v24h-46v22h-44v24h-46v20h-68v24h-92v-24h-66v-20h-66v-24h-24v-22h-20v-24h-24v-44h-22v-46h-24v-46h-22 v-66h-24v-90h-20v-404zM670 1656l10 6l-8 14l32 20l-10 16l110 64l10 -16l152 90l-8 16l86 50l8 -16l12 8l8 -14l12 6l42 -76l-10 -6l18 -30l-44 -26l10 -16l-338 -198l-8 16l-12 -6l-8 14l-12 -6z" />
<glyph unicode="&#xd4;" d="M166 520v382h22v160h24v42h20v70h24v22h22v68h24v22h20v24h22v44h44v22h24v24h46v20h22v22h44v24h90v22h66v24h70v-24h136v-22h90v-24h42v-22h24v-20h22v-24h44v-22h24v-44h22v-24h24v-22h20v-24h24v-44h22v-68h24v-44h20v-90h24v-112h22v-272h-22v-112h-24v-110h-20v-46 h-24v-46h-22v-44h-24v-46h-20v-24h-46v-20h-24v-24h-20v-22h-24v-24h-22v-22h-46v-20h-44v-24h-136v-22h-202v22h-90v24h-44v20h-46v22h-46v24h-20v22h-24v44h-22v24h-20v22h-24v44h-22v24h-24v68h-20v66h-24v90h-22zM368 544h20v-90h24v-66h22v-46h24v-46h22v-24h24v-20h20 v-24h24v-22h46v-24h44v-20h66v-24h68v24h90v20h44v24h46v22h24v24h20v44h22v22h24v46h22v44h24v90h20v158h24v202h-24v136h-20v90h-24v20h-22v46h-24v46h-22v44h-20v24h-46v22h-44v24h-46v20h-68v24h-92v-24h-66v-20h-66v-24h-24v-22h-20v-24h-24v-44h-22v-46h-24v-46h-22 v-66h-24v-90h-20v-404zM528 1594l18 34l-12 6l150 254l12 -6l4 8l12 -6l4 8l12 -6l12 6l4 -8l12 6l4 -8l12 6l150 -254l-12 -6l18 -34l-22 -14l4 -6l-56 -34l-4 8l-10 -6l-6 8l-12 -6l-38 64l12 8l-68 114l-68 -114l12 -8l-38 -64l-12 6l-6 -8l-10 6l-4 -8l-56 34l4 6z" />
<glyph unicode="&#xd5;" d="M166 520v382h22v160h24v42h20v70h24v22h22v68h24v22h20v24h22v44h44v22h24v24h46v20h22v22h44v24h90v22h66v24h70v-24h136v-22h90v-24h42v-22h24v-20h22v-24h44v-22h24v-44h22v-24h24v-22h20v-24h24v-44h22v-68h24v-44h20v-90h24v-112h22v-272h-22v-112h-24v-110h-20v-46 h-24v-46h-22v-44h-24v-46h-20v-24h-46v-20h-24v-24h-20v-22h-24v-24h-22v-22h-46v-20h-44v-24h-136v-22h-202v22h-90v24h-44v20h-46v22h-46v24h-20v22h-24v44h-22v24h-20v22h-24v44h-22v24h-24v68h-20v66h-24v90h-22zM324 1594v136h22v22h66v24h226v-24h316v24h176v-24h24 v-22h22v-112h-22v-44h-90v-24h-694v24h-24v20h-22zM368 544h20v-90h24v-66h22v-46h24v-46h22v-24h24v-20h20v-24h24v-22h46v-24h44v-20h66v-24h68v24h90v20h44v24h46v22h24v24h20v44h22v22h24v46h22v44h24v90h20v158h24v202h-24v136h-20v90h-24v20h-22v46h-24v46h-22v44h-20 v24h-46v22h-44v24h-46v20h-68v24h-92v-24h-66v-20h-66v-24h-24v-22h-20v-24h-24v-44h-22v-46h-24v-46h-22v-66h-24v-90h-20v-404z" />
<glyph unicode="&#xd6;" d="M166 520h22v-90h24v-66h20v-68h24v-24h22v-44h24v-22h20v-24h22v-44h24v-22h20v-24h46v-22h46v-20h44v-24h90v-22h202v22h136v24h44v20h46v22h22v24h24v22h20v24h24v20h46v24h20v46h24v44h22v46h24v46h20v110h24v112h22v272h-22v112h-24v90h-20v44h-24v68h-22v44h-24v24 h-20v22h-24v24h-22v44h-24v22h-44v24h-22v20h-24v22h-42v24h-90v22h-136v24h-70v-24h-66v-22h-90v-24h-44v-22h-22v-20h-46v-24h-24v-22h-44v-44h-22v-24h-20v-22h-24v-68h-22v-22h-24v-70h-20v-42h-24v-160h-22v-382zM368 544v404h20v90h24v66h22v46h24v46h22v44h24v24h20 v22h24v24h66v20h66v24h92v-24h68v-20h46v-24h44v-22h46v-24h20v-44h22v-46h24v-46h22v-20h24v-90h20v-136h24v-202h-24v-158h-20v-90h-24v-44h-22v-46h-24v-22h-22v-44h-20v-24h-24v-22h-46v-24h-44v-20h-90v-24h-68v24h-66v20h-44v24h-46v22h-24v24h-20v20h-24v24h-22v46 h-24v46h-22v66h-24v90h-20zM368 1630v136h24v22h20v24h70v20h22v-20h66v-24h24v-22h20v-136h-20v-44h-24v-22h-66v-24h-22v24h-70v46h-20v20h-24zM878 1676v70h24v42h44v24h46v20h20v-20h68v-24h24v-22h20v-156h-20v-24h-24v-22h-22v-24h-90v24h-46v46h-20v66h-24z" />
<glyph unicode="&#xd7;" d="M226 1128l16 16l-16 18l32 32l-14 14l30 32l14 -14l16 14l18 -16l16 16l16 -14l14 14l240 -240l-16 -14l112 -112l14 14l16 -14l18 16l16 -16l382 380l16 -14l14 14l16 -18l18 18l46 -48l-16 -16l30 -32l-64 -62l16 -16l-14 -14l-16 16l-78 -80l16 -16l-18 -16l-16 14 l-206 -206l16 -16l-32 -32l112 -112l-14 -14l126 -126l14 14l144 -144l-14 -16l16 -14l-18 -18l14 -14l-32 -32l18 -18l-14 -14l-18 18l-32 -32l-30 28l-16 -16l-368 366l-14 -14l-16 16l-66 -64l-14 16l-334 -334l-32 30l-14 -14l-16 18l14 14l-30 30l16 16l-16 18l96 96 l-16 16l62 62l16 -16l16 16l-14 16l78 78l14 -16l50 50l-16 16l94 92z" />
<glyph unicode="&#xd8;" d="M166 520v382h22v160h24v42h20v70h24v22h22v68h24v22h20v24h22v44h44v22h24v24h46v20h22v22h44v24h90v22h66v24h70v-24h136v-22h56v24h22v70h20v44h24v22h92v-22h20v-24h24v-90h-24v-44h-20v-46h-24v-24h32v-22h24v-44h22v-24h24v-22h20v-24h24v-44h22v-68h24v-44h20v-90 h24v-112h22v-272h-22v-112h-24v-110h-20v-46h-24v-46h-22v-44h-24v-46h-20v-24h-46v-20h-24v-24h-20v-22h-24v-24h-22v-22h-46v-20h-44v-24h-136v-22h-202v22h-32v-42h-22v-90h-24v-92h-20v-20h-24v-24h-68v-22h-24v22h-20v24h-24v66h24v90h20v66h24v70h10v18h-46v24h-20v22 h-24v44h-22v24h-20v22h-24v44h-22v24h-24v68h-20v66h-24v90h-22zM368 544h20v-90h24v-66h22v-46h24v-46h22v-24h24v-20h12v48h20v66h24v66h22v70h24v46h20v44h22v66h24v92h20v66h24v44h22v70h24v66h22v66h24v70h20v44h24v68h22v66h-34v20h-68v24h-92v-24h-66v-20h-66v-24 h-24v-22h-20v-24h-24v-44h-22v-46h-24v-46h-22v-66h-24v-90h-20v-404zM626 182h12v-20h66v-24h68v24h90v20h44v24h46v22h24v24h20v44h22v22h24v46h22v44h24v90h20v158h24v202h-24v136h-20v90h-24v20h-22v46h-24v46h-10v-20h-24v-68h-20v-46h-22v-44h-24v-88h-20v-70h-24v-66 h-22v-44h-24v-70h-20v-66h-24v-46h-22v-66h-24v-70h-22v-44h-24v-88h-20v-46h-24v-44h-22v-28z" />
<glyph unicode="&#xd9;" d="M110 1370h46v-22h94v-24h22v-22h22v-1052h24v-72h22v-46h26v-48h22v-22h24v-24h48v-22h46v-22h46v-26h374v26h46v22h68v22h26v24h46v22h22v26h26v46h22v48h24v68h22v910h26v94h22v48h68v24h46v92h-22v24h-442v-24h-24v-44h24v-26h24v-22h68v-24h48v-70h22v-748h24v-24 h-24v-210h-22v-46h-26v-22h-22v-26h-24v-22h-44v-24h-94v-22h-188v22h-46v24h-48v22h-22v26h-24v22h-22v24h-24v514h-22v490h22v70h24v24h94v22h22v48h22v22h-22v24h-70v22h-24v-22h-140v22h-232v-22h-46v-94zM372 1780l18 30l-10 6l42 74l12 -6l8 14l12 -6l8 16l86 -52 l-8 -16l152 -90l10 16l110 -64l-10 -16l32 -18l-8 -14l10 -8l-52 -90l-12 6l-8 -14l-12 6l-8 -16l-338 200l10 16z" />
<glyph unicode="&#xda;" d="M110 1370v94h46v22h232v-22h140v22h24v-22h70v-24h22v-22h-22v-48h-22v-22h-94v-24h-24v-70h-22v-490h22v-514h24v-24h22v-22h24v-26h22v-22h48v-24h46v-22h188v22h94v24h44v22h24v26h22v22h26v46h22v210h24v24h-24v748h-22v70h-48v24h-68v22h-24v26h-24v44h24v24h442 v-24h22v-92h-46v-24h-68v-48h-22v-94h-26v-910h-22v-68h-24v-48h-22v-46h-26v-26h-22v-22h-46v-24h-26v-22h-68v-22h-46v-26h-374v26h-46v22h-46v22h-48v24h-24v22h-22v48h-26v46h-22v72h-24v1052h-22v22h-22v24h-94v22h-46zM748 1646l10 6l-8 14l32 20l-10 16l110 64 l10 -16l152 90l-8 16l86 50l8 -16l12 8l8 -14l12 6l42 -76l-10 -6l18 -30l-44 -26l10 -16l-338 -198l-8 16l-12 -6l-8 14l-12 -6z" />
<glyph unicode="&#xdb;" d="M110 1370v94h46v22h232v-22h140v22h24v-22h70v-24h22v-22h-22v-48h-22v-22h-94v-24h-24v-70h-22v-490h22v-514h24v-24h22v-22h24v-26h22v-22h48v-24h46v-22h188v22h94v24h44v22h24v26h22v22h26v46h22v210h24v24h-24v748h-22v70h-48v24h-68v22h-24v26h-24v44h24v24h442 v-24h22v-92h-46v-24h-68v-48h-22v-94h-26v-910h-22v-68h-24v-48h-22v-46h-26v-26h-22v-22h-46v-24h-26v-22h-68v-22h-46v-26h-374v26h-46v22h-46v22h-48v24h-24v22h-22v48h-26v46h-22v72h-24v1052h-22v22h-22v24h-94v22h-46zM578 1592l18 34l-12 6l150 254l12 -6l4 8l12 -6 l4 8l12 -6l12 6l4 -8l12 6l4 -8l12 6l150 -254l-12 -6l18 -34l-22 -14l4 -6l-56 -34l-4 8l-10 -6l-6 8l-12 -6l-38 64l12 8l-68 114l-68 -114l12 -8l-38 -64l-12 6l-6 -8l-10 6l-4 -8l-56 34l4 6z" />
<glyph unicode="&#xdc;" d="M110 1370h46v-22h94v-24h22v-22h22v-1052h24v-72h22v-46h26v-48h22v-22h24v-24h48v-22h46v-22h46v-26h374v26h46v22h68v22h26v24h46v22h22v26h26v46h22v48h24v68h22v910h26v94h22v48h68v24h46v92h-22v24h-442v-24h-24v-44h24v-26h24v-22h68v-24h48v-70h22v-748h24v-24 h-24v-210h-22v-46h-26v-22h-22v-26h-24v-22h-44v-24h-94v-22h-188v22h-46v24h-48v22h-22v26h-24v22h-22v24h-24v514h-22v490h22v70h24v24h94v22h22v48h22v22h-22v24h-70v22h-24v-22h-140v22h-232v-22h-46v-94zM402 1630v136h24v22h20v24h70v20h22v-20h66v-24h24v-22h20v-136 h-20v-44h-24v-22h-66v-24h-22v24h-70v46h-20v20h-24zM912 1676v70h24v42h44v24h46v20h20v-20h68v-24h24v-22h20v-156h-20v-24h-24v-22h-22v-24h-90v24h-46v46h-20v66h-24z" />
<glyph unicode="&#xdd;" d="M110 1370v116h46v26h162v-26h70v26h118v-26h116v-46h24v-22h-24v-22h-22v-26h-94v-22h-24v-46h24v-48h22v-46h24v-48h22v-24h26v-46h22v-22h24v-48h22v-46h22v-48h26v-22h22v-24h24v-48h70v48h24v24h22v22h24v48h24v46h24v48h22v46h24v46h22v22h22v94h26v26h-26v46h-68 v22h-46v26h-24v68h24v22h350v26h70v-26h44v-90h-22v-26h-22v-22h-70v-46h-22v-26h-26v-22h-22v-46h-24v-48h-22v-46h-26v-24h-22v-22h-24v-70h-22v-24h-26v-48h-22v-22h-22v-46h-24v-48h-22v-24h-24v-48h-24v-44h-24v-72h-22v-68h22v-350h24v-48h210v-24h48v-22h22v-48h-22 v-46h-72v-22h-48v22h-162v-22h-188v22h-208v46h-22v22h22v48h46v24h118v22h22v26h22v444h-22v46h-22v22h-24v70h-22v24h-26v22h-22v48h-24v24h-22v48h-24v46h-22v22h-26v48h-22v46h-24v22h-22v46h-26v26h-22v46h-22v22h-24v48h-22v24h-94v22h-46zM704 1644l10 6l-8 14l32 20 l-10 16l110 64l10 -16l152 90l-8 16l86 50l8 -16l12 8l8 -14l12 6l42 -76l-10 -6l18 -30l-44 -26l10 -16l-338 -198l-8 16l-12 -6l-8 14l-12 -6z" />
<glyph unicode="&#xde;" d="M218 108v506h24v776h-24v176h24v24h20v22h112v-22h46v-90h22v-80h74v22h44v-22h224v-20h68v-24h46v-22h44v-24h46v-20h22v-24h20v-22h24v-24h22v-22h24v-22h20v-22h24v-46h22v-24h24v-42h20v-68h24v-92h22v-32h24v-78h-24v-58h-22v-66h-24v-70h-20v-46h-24v-44h-22v-22 h-24v-24h-20v-20h-24v-46h-46v-24h-20v-22h-22v-20h-46v-24h-24v-22h-134v-24h-342v-194h-22v-24h-22v-22h-136v22h-20v66h-24zM442 754h4v-312h24v-24h66v-22h136v22h66v24h70v20h44v24h46v46h20v20h24v24h22v46h24v46h22v66h20v66h24v102h-24v70h-20v66h-22v24h-24v42h-22 v24h-24v46h-44v22h-22v22h-24v22h-20v24h-90v22h-226v-22h-22v-24h-24v-416h-4v-70z" />
<glyph unicode="&#xdf;" d="M200 26v66h24v24h44v22h66v24h24v20h22v338h24v160h-24v494h24v66h-24v46h-46v24h-110v20h-24v90h24v22h650v-22h114v-20h44v-24h22v-22h46v-44h20v-24h24v-46h22v-112h24v-24h-24v-88h-22v-44h-24v-46h-20v-24h-22v-20h-24v-24h-22v-22h-24v-24h-20v-20h20v-24h24v-22 h68v-22h20v-24h46v-20h24v-24h20v-22h24v-44h22v-24h24v-68h20v-202h-20v-44h-24v-46h-22v-44h-24v-24h-20v-22h-24v-24h-46v-22h-20v-20h-46v-24h-46v-22h-16l-48 158h20v20h24v24h44v46h22v44h24v46h22v112h-22v66h-24v46h-22v24h-24v20h-20v24h-24v22h-46v24h-44v20h-30 l-42 46v22h20l-4 66h-20l20 48h34v20h22v24h44v22h24v46h22v44h24v136h-24v66h-22v24h-24v22h-44v24h-90v20h-158v-20h-44v-46h-22v-382h16l-2 -182h-14v-538h22v-24h68v-22h84v-112h-108v-24h-134v24h-268v22h-24z" />
<glyph unicode="&#xe0;" d="M188 188h24v-44h20v-46h24v-20h46v-24h44v-22h46v-24h312v24h92v22h66v24h44v-24h46v-22h24v-24h156v24h66v22h90v24h24v66h-24v24h-20v20h-70v-20h-86v472h20v248h-20v44h-24v22h-22v24h-24v22h-46v20h-44v24h-314v-24h-114v-20h-44v-22h-44v-24h-44v-22h-46v-44h-24 v-114h24v-22h22v-24h112v24h24v22h20v68h24v22h22v24h44v22h46v22h180v-22h46v-22h20v-24h24v-22h22v-180h-22v-22h-24v-24h-66v-20h-112v20h-24v-20h-134v-24h-90v-22h-68v-24h-44v-20h-46v-24h-44v-22h-22v-24h-24v-46h-20v-44h-24v-158zM356 1344l18 30l-10 6l42 74 l12 -6l8 14l12 -6l8 16l86 -52l-8 -16l152 -90l10 16l110 -64l-10 -16l32 -18l-8 -14l10 -8l-52 -90l-12 6l-8 -14l-12 6l-8 -16l-338 200l10 16zM368 234v90h24v46h20v20h24v24h44v22h44v24h70v22h312v-22h24v-180h-24v-46h-20v-22h-46v-24h-44v-20h-46v-24h-112v-22h-24 v22h-134v24h-44v20h-44v46h-24z" />
<glyph unicode="&#xe1;" d="M188 188v158h24v44h20v46h24v24h22v22h44v24h46v20h44v24h68v22h90v24h134v20h24v-20h112v20h66v24h24v22h22v180h-22v22h-24v24h-20v22h-46v22h-180v-22h-46v-22h-44v-24h-22v-22h-24v-68h-20v-22h-24v-24h-112v24h-22v22h-24v114h24v44h46v22h44v24h44v22h44v20h114v24 h314v-24h44v-20h46v-22h24v-24h22v-22h24v-44h20v-248h-20v-472h86v20h70v-20h20v-24h24v-66h-24v-24h-90v-22h-66v-24h-156v24h-24v22h-46v24h-44v-24h-66v-22h-92v-24h-312v24h-46v22h-44v24h-46v20h-24v46h-20v44h-24zM368 234h24v-46h44v-20h44v-24h134v-22h24v22h112 v24h46v20h44v24h46v22h20v46h24v180h-24v22h-312v-22h-70v-24h-44v-22h-44v-24h-24v-20h-20v-46h-24v-90zM684 1218l10 6l-8 14l32 20l-10 16l110 64l10 -16l152 90l-8 16l86 50l8 -16l12 8l8 -14l12 6l42 -76l-10 -6l18 -30l-44 -26l10 -16l-338 -198l-8 16l-12 -6l-8 14 l-12 -6z" />
<glyph unicode="&#xe2;" d="M188 188v158h24v44h20v46h24v24h22v22h44v24h46v20h44v24h68v22h90v24h134v20h24v-20h112v20h66v24h24v22h22v180h-22v22h-24v24h-20v22h-46v22h-180v-22h-46v-22h-44v-24h-22v-22h-24v-68h-20v-22h-24v-24h-112v24h-22v22h-24v114h24v44h46v22h44v24h44v22h44v20h114v24 h314v-24h44v-20h46v-22h24v-24h22v-22h24v-44h20v-248h-20v-472h86v20h70v-20h20v-24h24v-66h-24v-24h-90v-22h-66v-24h-156v24h-24v22h-46v24h-44v-24h-66v-22h-92v-24h-312v24h-46v22h-44v24h-46v20h-24v46h-20v44h-24zM368 234h24v-46h44v-20h44v-24h134v-22h24v22h112 v24h46v20h44v24h46v22h20v46h24v180h-24v22h-312v-22h-70v-24h-44v-22h-44v-24h-24v-20h-20v-46h-24v-90zM550 1170l18 34l-12 6l150 254l12 -6l4 8l12 -6l4 8l12 -6l12 6l4 -8l12 6l4 -8l12 6l150 -254l-12 -6l18 -34l-22 -14l4 -6l-56 -34l-4 8l-10 -6l-6 8l-12 -6l-38 64 l12 8l-68 114l-68 -114l12 -8l-38 -64l-12 6l-6 -8l-10 6l-4 -8l-56 34l4 6z" />
<glyph unicode="&#xe4;" d="M188 188h24v-44h20v-46h24v-20h46v-24h44v-22h46v-24h312v24h92v22h66v24h44v-24h46v-22h24v-24h156v24h66v22h90v24h24v66h-24v24h-20v20h-70v-20h-86v472h20v248h-20v44h-24v22h-22v24h-24v22h-46v20h-44v24h-314v-24h-114v-20h-44v-22h-44v-24h-44v-22h-46v-44h-24 v-114h24v-22h22v-24h112v24h24v22h20v68h24v22h22v24h44v22h46v22h180v-22h46v-22h20v-24h24v-22h22v-180h-22v-22h-24v-24h-66v-20h-112v20h-24v-20h-134v-24h-90v-22h-68v-24h-44v-20h-46v-24h-44v-22h-22v-24h-24v-46h-20v-44h-24v-158zM368 234v90h24v46h20v20h24v24h44 v22h44v24h70v22h312v-22h24v-180h-24v-46h-20v-22h-46v-24h-44v-20h-46v-24h-112v-22h-24v22h-134v24h-44v20h-44v46h-24zM372 1196v136h24v22h20v24h70v20h22v-20h66v-24h24v-22h20v-136h-20v-44h-24v-22h-66v-24h-22v24h-70v46h-20v20h-24zM882 1242v70h24v42h44v24h46v20 h20v-20h68v-24h24v-22h20v-156h-20v-24h-24v-22h-22v-24h-90v24h-46v46h-20v66h-24z" />
<glyph unicode="&#xe6;" d="M-130 188v158h24v44h20v46h24v24h22v22h44v24h46v20h44v24h68v22h90v24h134v20h24v-20h112v20h66v24h8v68h24v44h14v90h-22v22h-24v24h-20v22h-46v22h-180v-22h-46v-22h-44v-24h-22v-22h-24v-68h-20v-22h-24v-24h-112v24h-22v22h-24v114h24v44h46v22h44v24h44v22h44v20 h114v24h314v-24h44v-20h46v-22h24v-24h6v2h24v22h44v24h46v22h44v20h46v24h314v-24h44v-20h46v-22h24v-24h42v-22h24v-22h20v-22h24v-46h22v-24h24v-44h22v-66h24v-182h-24v-20h-68v-24h-584v-22h-114v-24h-4v-66h4v-46h24v-44h22v-22h24v-24h20v-22h46v-24h46v-20h90v-24 h180v24h136v20h66v24h66v22h90v-22h24v-68h-24v-22h-20v-24h-46v-20h-46v-24h-90v-22h-90v-24h-112v-22h-224v22h-92v22h-8v-22h-66v-24h-156v24h-24v22h-46v24h-44v-24h-66v-22h-92v-24h-312v24h-46v22h-44v24h-46v20h-24v46h-20v44h-24zM50 234h24v-46h44v-20h44v-24h134 v-22h24v22h112v24h46v20h44v24h46v22h20v46h24v2h-16v112h-20v88h-300v-22h-70v-24h-44v-22h-44v-24h-24v-20h-20v-46h-24v-90zM798 620h362v20h202v24h24v44h20v24h-20v44h-24v22h-22v24h-24v44h-44v22h-22v24h-70v22h-176v-22h-46v-24h-24v-22h-22v-24h-24v-20h-20v-24 h-24v-22h-22v-44h-8v-92h-16v-20z" />
<glyph unicode="&#xe7;" d="M234 390v160h20v134h24v44h22v46h24v44h22v24h24v22h20v24h24v22h22v22h20v22h46v24h24v22h66v20h70v24h292v-24h66v-20h44v-22h24v-24h22v-22h20v-22h24v-46h22v-112h24v-44h-24v-46h-22v-22h-110v22h-46v46h-24v134h-20v22h-24v24h-68v22h-180v-22h-44v-24h-46v-22h-22 v-24h-24v-20h-20v-24h-24v-22h-22v-44h-24v-68h-20v-250h20v-66h24v-20h22v-46h24v-24h20v-22h46v-24h46v-20h114v-24h132v24h136v20h44v24h66v22h116v-22h20v-68h-20v-22h-24v-24h-46v-20h-66v-24h-46v-22h-110v-24h-70v-22h-8l26 -88l-8 -2l36 -132l-18 -4l4 -18l-16 -4 l4 -16l-86 -24l-4 16l-36 -8l-18 68l-18 -6l-56 218h-70v22h-90v24h-70v22h-20v24h-22v20h-24v24h-20v22h-24v24h-22v44h-24v46h-22v66h-24v66h-20z" />
<glyph unicode="&#xe8;" d="M222 370h20v-112h24v-46h22v-24h24v-44h22v-22h44v-24h22v-20h24v-24h44v-22h66v-24h92v-22h224v22h112v24h90v22h90v24h46v20h46v24h20v22h24v68h-24v22h-90v-22h-66v-24h-66v-20h-136v-24h-180v24h-90v20h-46v24h-46v22h-20v24h-24v22h-22v44h-24v46h-20v66h20v24h114 v22h584v24h68v20h24v182h-24v66h-22v44h-24v24h-22v46h-24v22h-20v22h-24v22h-42v24h-24v22h-46v20h-44v24h-314v-24h-46v-20h-44v-22h-46v-24h-44v-22h-24v-22h-22v-46h-20v-22h-24v-24h-22v-44h-24v-46h-22v-44h-24v-112h-20v-202zM376 1354l18 30l-10 6l42 74l12 -6l8 14 l12 -6l8 16l86 -52l-8 -16l152 -90l10 16l110 -64l-10 -16l32 -18l-8 -14l10 -8l-52 -90l-12 6l-8 -14l-12 6l-8 -16l-338 200l10 16zM444 596v112h24v44h22v22h24v24h20v20h24v24h22v22h24v24h46v22h176v-22h70v-24h22v-22h44v-44h24v-24h22v-22h24v-44h20v-24h-20v-44h-24 v-24h-202v-20h-362z" />
<glyph unicode="&#xe9;" d="M222 370v202h20v112h24v44h22v46h24v44h22v24h24v22h20v46h22v22h24v22h44v24h46v22h44v20h46v24h314v-24h44v-20h46v-22h24v-24h42v-22h24v-22h20v-22h24v-46h22v-24h24v-44h22v-66h24v-182h-24v-20h-68v-24h-584v-22h-114v-24h-20v-66h20v-46h24v-44h22v-22h24v-24h20 v-22h46v-24h46v-20h90v-24h180v24h136v20h66v24h66v22h90v-22h24v-68h-24v-22h-20v-24h-46v-20h-46v-24h-90v-22h-90v-24h-112v-22h-224v22h-92v24h-66v22h-44v24h-24v20h-22v24h-44v22h-22v44h-24v24h-22v46h-24v112h-20zM444 596h362v20h202v24h24v44h20v24h-20v44h-24v22 h-22v24h-24v44h-44v22h-22v24h-70v22h-176v-22h-46v-24h-24v-22h-22v-24h-24v-20h-20v-24h-24v-22h-22v-44h-24v-112zM606 1222l10 6l-8 14l32 20l-10 16l110 64l10 -16l152 90l-8 16l86 50l8 -16l12 8l8 -14l12 6l42 -76l-10 -6l18 -30l-44 -26l10 -16l-338 -198l-8 16 l-12 -6l-8 14l-12 -6z" />
<glyph unicode="&#xea;" d="M222 370v202h20v112h24v44h22v46h24v44h22v24h24v22h20v46h22v22h24v22h44v24h46v22h44v20h46v24h314v-24h44v-20h46v-22h24v-24h42v-22h24v-22h20v-22h24v-46h22v-24h24v-44h22v-66h24v-182h-24v-20h-68v-24h-584v-22h-114v-24h-20v-66h20v-46h24v-44h22v-22h24v-24h20 v-22h46v-24h46v-20h90v-24h180v24h136v20h66v24h66v22h90v-22h24v-68h-24v-22h-20v-24h-46v-20h-46v-24h-90v-22h-90v-24h-112v-22h-224v22h-92v24h-66v22h-44v24h-24v20h-22v24h-44v22h-22v44h-24v24h-22v46h-24v112h-20zM444 596h362v20h202v24h24v44h20v24h-20v44h-24v22 h-22v24h-24v44h-44v22h-22v24h-70v22h-176v-22h-46v-24h-24v-22h-22v-24h-24v-20h-20v-24h-24v-22h-22v-44h-24v-112zM566 1160l18 34l-12 6l150 254l12 -6l4 8l12 -6l4 8l12 -6l12 6l4 -8l12 6l4 -8l12 6l150 -254l-12 -6l18 -34l-22 -14l4 -6l-56 -34l-4 8l-10 -6l-6 8 l-12 -6l-38 64l12 8l-68 114l-68 -114l12 -8l-38 -64l-12 6l-6 -8l-10 6l-4 -8l-56 34l4 6z" />
<glyph unicode="&#xeb;" d="M222 370h20v-112h24v-46h22v-24h24v-44h22v-22h44v-24h22v-20h24v-24h44v-22h66v-24h92v-22h224v22h112v24h90v22h90v24h46v20h46v24h20v22h24v68h-24v22h-90v-22h-66v-24h-66v-20h-136v-24h-180v24h-90v20h-46v24h-46v22h-20v24h-24v22h-22v44h-24v46h-20v66h20v24h114 v22h584v24h68v20h24v182h-24v66h-22v44h-24v24h-22v46h-24v22h-20v22h-24v22h-42v24h-24v22h-46v20h-44v24h-314v-24h-46v-20h-44v-22h-46v-24h-44v-22h-24v-22h-22v-46h-20v-22h-24v-24h-22v-44h-24v-46h-22v-44h-24v-112h-20v-202zM382 1196v136h24v22h20v24h70v20h22v-20 h66v-24h24v-22h20v-136h-20v-44h-24v-22h-66v-24h-22v24h-70v46h-20v20h-24zM444 596v112h24v44h22v22h24v24h20v20h24v24h22v22h24v24h46v22h176v-22h70v-24h22v-22h44v-44h24v-24h22v-22h24v-44h20v-24h-20v-44h-24v-24h-202v-20h-362zM892 1242v70h24v42h44v24h46v20h20 v-20h68v-24h24v-22h20v-156h-20v-24h-24v-22h-22v-24h-90v24h-46v46h-20v66h-24z" />
<glyph unicode="&#xec;" d="M244 46h24v-46h46v-22h42v22h720v-22h114v22h44v24h22v90h-46v22h-358v24h-44v20h-24v700h24v66h-24v66h-46v24h-88v-24h-204v-20h-178v-24h-24v-66h24v-22h22v-24h90v24h156v-24h70v-676h-46v-20h-44v-24h-226v-22h-22v-44h-24v-24zM300 1356l18 30l-10 6l42 74l12 -6 l8 14l12 -6l8 16l86 -52l-8 -16l152 -90l10 16l110 -64l-10 -16l32 -18l-8 -14l10 -8l-52 -90l-12 6l-8 -14l-12 6l-8 -16l-338 200l10 16z" />
<glyph unicode="&#xed;" d="M244 46v24h24v44h22v22h226v24h44v20h46v676h-70v24h-156v-24h-90v24h-22v22h-24v66h24v24h178v20h204v24h88v-24h46v-66h24v-66h-24v-700h24v-20h44v-24h358v-22h46v-90h-22v-24h-44v-22h-114v22h-720v-22h-42v22h-46v46h-24zM628 1222l10 6l-8 14l32 20l-10 16l110 64 l10 -16l152 90l-8 16l86 50l8 -16l12 8l8 -14l12 6l42 -76l-10 -6l18 -30l-44 -26l10 -16l-338 -198l-8 16l-12 -6l-8 14l-12 -6z" />
<glyph unicode="&#xee;" d="M244 46v24h24v44h22v22h226v24h44v20h46v676h-70v24h-156v-24h-90v24h-22v22h-24v66h24v24h178v20h204v24h88v-24h46v-66h24v-66h-24v-700h24v-20h44v-24h358v-22h46v-90h-22v-24h-44v-22h-114v22h-720v-22h-42v22h-46v46h-24zM504 1148l18 34l-12 6l150 254l12 -6l4 8 l12 -6l4 8l12 -6l12 6l4 -8l12 6l4 -8l12 6l150 -254l-12 -6l18 -34l-22 -14l4 -6l-56 -34l-4 8l-10 -6l-6 8l-12 -6l-38 64l12 8l-68 114l-68 -114l12 -8l-38 -64l-12 6l-6 -8l-10 6l-4 -8l-56 34l4 6z" />
<glyph unicode="&#xef;" d="M244 46h24v-46h46v-22h42v22h720v-22h114v22h44v24h22v90h-46v22h-358v24h-44v20h-24v700h24v66h-24v66h-46v24h-88v-24h-204v-20h-178v-24h-24v-66h24v-22h22v-24h90v24h156v-24h70v-676h-46v-20h-44v-24h-226v-22h-22v-44h-24v-24zM320 1196v136h24v22h20v24h70v20h22 v-20h66v-24h24v-22h20v-136h-20v-44h-24v-22h-66v-24h-22v24h-70v46h-20v20h-24zM830 1242v70h24v42h44v24h46v20h20v-20h68v-24h24v-22h20v-156h-20v-24h-24v-22h-22v-24h-90v24h-46v46h-20v66h-24z" />
<glyph unicode="&#xf0;" d="M266 464v22h22v46h-22v90h22v90h24v20h22v70h24v22h20v24h24v20h22v24h44v22h46v24h20v20h70v24h156v-24h66v-20h46v-24h70v-22h20v-24h70v70h-24v66h-22v46h-24v44h-20v46h-24v44h-22v22h-14l-292 -138l-8 16l-18 -8l-8 16l-18 -8l-52 106l18 8l-8 16l52 24l-10 18 l178 84l8 -18l42 20h-26v24h-24v20h-46v22h-90v24h-112v22h-44v114h44v20h66v-20h136v-24h46v-22h44v-24h66v-20h24v-24h46v-22h22v-18l56 26l-8 20l138 64l8 -18l18 8l8 -16l18 10l42 -86l-18 -10l18 -36l-70 -32l8 -18l-84 -40v-34h24v-22h22v-46h24v-44h20v-70h22v-66h24 v-90h22v-112h24v-292h-24v-114h-22v-88h-24v-46h-22v-44h-20v-46h-24v-24h-22v-44h-24v-22h-20v-24h-24v-22h-46v-20h-44v-24h-92v-22h-156v22h-90v24h-46v20h-20v22h-24v24h-42v22h-46v44h-24v24h-20v46h-24v44h-22v68h-24v134h-22zM468 352h22v-68h24v-22h20v-44h24v-24 h22v-22h24v-24h46v-20h66v-24h68v24h66v20h22v24h24v22h22v24h24v20h20v46h24v46h22v66h24v204h-24v46h-22v44h-24v22h-20v20h-24v24h-22v22h-46v24h-66v22h-114v-22h-66v-24h-46v-22h-24v-24h-20v-42h-24v-24h-22v-314z" />
<glyph unicode="&#xf1;" d="M110 880v66h22v22h44v24h114v20h134v-20h24v-24h20v-42h90v20h24v22h46v24h88v20h68v24h202v-24h24v-20h42v-24h46v-22h24v-20h20v-24h24v-46h22v-66h24v-630h22v-24h114v-22h42v-114h-42v-22h-182v22h-224v46h-22v24h22v20h24v24h20v22h24v24h22v268h20v202h-20v114h-22 v46h-24v20h-20v24h-24v22h-46v24h-156v-24h-46v-22h-66v-24h-46v-20h-68v-46h-22v-202h-24v-250h24v-132h22v-24h114v-22h46v-24h20v-20h22v-24h-22v-22h-20v-24h-428v24h-24v22h-22v24h22v44h24v22h44v24h22v674h-22v22h-158v24h-22zM324 1202v136h22v20h66v24h226v-24h316 v24h176v-24h24v-20h22v-112h-22v-46h-90v-24h-694v24h-24v22h-22z" />
<glyph unicode="&#xf2;" d="M210 362h24v-46h20v-66h24v-46h22v-44h24v-24h22v-22h20v-24h46v-20h24v-24h44v-22h66v-24h70v-22h222v22h92v24h44v22h46v24h20v20h24v24h46v22h20v24h24v20h22v24h24v22h22v46h24v110h20v70h24v156h-24v112h-20v46h-24v44h-22v24h-24v46h-22v22h-24v24h-20v20h-24v22 h-22v24h-66v20h-68v24h-112v22h-156v-22h-92v-24h-44v-20h-46v-24h-44v-22h-24v-20h-22v-24h-44v-22h-22v-46h-24v-24h-22v-44h-24v-46h-20v-66h-24v-292zM320 1344l18 30l-10 6l42 74l12 -6l8 14l12 -6l8 16l86 -52l-8 -16l152 -90l10 16l110 -64l-10 -16l32 -18l-8 -14 l10 -8l-52 -90l-12 6l-8 -14l-12 6l-8 -16l-338 200l10 16zM390 428v160h22v88h24v68h20v46h24v20h22v24h24v22h20v24h46v22h270v-22h46v-24h46v-22h20v-24h24v-20h22v-70h20v-20h24v-46h22v-90h24v-112h-24v-90h-22v-46h-24v-44h-20v-46h-22v-22h-24v-24h-44v-20h-46v-24 h-66v-22h-136v22h-66v24h-46v20h-24v24h-20v22h-24v24h-22v22h-24v44h-20v22h-24v90h-22z" />
<glyph unicode="&#xf3;" d="M210 362v292h24v66h20v46h24v44h22v24h24v46h22v22h44v24h22v20h24v22h44v24h46v20h44v24h92v22h156v-22h112v-24h68v-20h66v-24h22v-22h24v-20h20v-24h24v-22h22v-46h24v-24h22v-44h24v-46h20v-112h24v-156h-24v-70h-20v-110h-24v-46h-22v-22h-24v-24h-22v-20h-24v-24 h-20v-22h-46v-24h-24v-20h-20v-24h-46v-22h-44v-24h-92v-22h-222v22h-70v24h-66v22h-44v24h-24v20h-46v24h-20v22h-22v24h-24v44h-22v46h-24v66h-20v46h-24zM390 428h22v-90h24v-22h20v-44h24v-22h22v-24h24v-22h20v-24h24v-20h46v-24h66v-22h136v22h66v24h46v20h44v24h24 v22h22v46h20v44h24v46h22v90h24v112h-24v90h-22v46h-24v20h-20v70h-22v20h-24v24h-20v22h-46v24h-46v22h-270v-22h-46v-24h-20v-22h-24v-24h-22v-20h-24v-46h-20v-68h-24v-88h-22v-160zM680 1222l10 6l-8 14l32 20l-10 16l110 64l10 -16l152 90l-8 16l86 50l8 -16l12 8 l8 -14l12 6l42 -76l-10 -6l18 -30l-44 -26l10 -16l-338 -198l-8 16l-12 -6l-8 14l-12 -6z" />
<glyph unicode="&#xf4;" d="M210 362v292h24v66h20v46h24v44h22v24h24v46h22v22h44v24h22v20h24v22h44v24h46v20h44v24h92v22h156v-22h112v-24h68v-20h66v-24h22v-22h24v-20h20v-24h24v-22h22v-46h24v-24h22v-44h24v-46h20v-112h24v-156h-24v-70h-20v-110h-24v-46h-22v-22h-24v-24h-22v-20h-24v-24 h-20v-22h-46v-24h-24v-20h-20v-24h-46v-22h-44v-24h-92v-22h-222v22h-70v24h-66v22h-44v24h-24v20h-46v24h-20v22h-22v24h-24v44h-22v46h-24v66h-20v46h-24zM390 428h22v-90h24v-22h20v-44h24v-22h22v-24h24v-22h20v-24h24v-20h46v-24h66v-22h136v22h66v24h46v20h44v24h24 v22h22v46h20v44h24v46h22v90h24v112h-24v90h-22v46h-24v20h-20v70h-22v20h-24v24h-20v22h-46v24h-46v22h-270v-22h-46v-24h-20v-22h-24v-24h-22v-20h-24v-46h-20v-68h-24v-88h-22v-160zM560 1174l18 34l-12 6l150 254l12 -6l4 8l12 -6l4 8l12 -6l12 6l4 -8l12 6l4 -8l12 6 l150 -254l-12 -6l18 -34l-22 -14l4 -6l-56 -34l-4 8l-10 -6l-6 8l-12 -6l-38 64l12 8l-68 114l-68 -114l12 -8l-38 -64l-12 6l-6 -8l-10 6l-4 -8l-56 34l4 6z" />
<glyph unicode="&#xf5;" d="M210 362v292h24v66h20v46h24v44h22v24h24v46h22v22h44v24h22v20h24v22h44v24h46v20h44v24h92v22h156v-22h112v-24h68v-20h66v-24h22v-22h24v-20h20v-24h24v-22h22v-46h24v-24h22v-44h24v-46h20v-112h24v-156h-24v-70h-20v-110h-24v-46h-22v-22h-24v-24h-22v-20h-24v-24 h-20v-22h-46v-24h-24v-20h-20v-24h-46v-22h-44v-24h-92v-22h-222v22h-70v24h-66v22h-44v24h-24v20h-46v24h-20v22h-22v24h-24v44h-22v46h-24v66h-20v46h-24zM344 1158v136h22v22h66v24h226v-24h316v24h176v-24h24v-22h22v-112h-22v-44h-90v-24h-694v24h-24v20h-22zM390 428 h22v-90h24v-22h20v-44h24v-22h22v-24h24v-22h20v-24h24v-20h46v-24h66v-22h136v22h66v24h46v20h44v24h24v22h22v46h20v44h24v46h22v90h24v112h-24v90h-22v46h-24v20h-20v70h-22v20h-24v24h-20v22h-46v24h-46v22h-270v-22h-46v-24h-20v-22h-24v-24h-22v-20h-24v-46h-20v-68 h-24v-88h-22v-160z" />
<glyph unicode="&#xf6;" d="M210 362h24v-46h20v-66h24v-46h22v-44h24v-24h22v-22h20v-24h46v-20h24v-24h44v-22h66v-24h70v-22h222v22h92v24h44v22h46v24h20v20h24v24h46v22h20v24h24v20h22v24h24v22h22v46h24v110h20v70h24v156h-24v112h-20v46h-24v44h-22v24h-24v46h-22v22h-24v24h-20v20h-24v22 h-22v24h-66v20h-68v24h-112v22h-156v-22h-92v-24h-44v-20h-46v-24h-44v-22h-24v-20h-22v-24h-44v-22h-22v-46h-24v-24h-22v-44h-24v-46h-20v-66h-24v-292zM372 1202v136h24v22h20v24h70v20h22v-20h66v-24h24v-22h20v-136h-20v-44h-24v-22h-66v-24h-22v24h-70v46h-20v20h-24z M390 428v160h22v88h24v68h20v46h24v20h22v24h24v22h20v24h46v22h270v-22h46v-24h46v-22h20v-24h24v-20h22v-70h20v-20h24v-46h22v-90h24v-112h-24v-90h-22v-46h-24v-44h-20v-46h-22v-22h-24v-24h-44v-20h-46v-24h-66v-22h-136v22h-66v24h-46v20h-24v24h-20v22h-24v24h-22v22 h-24v44h-20v22h-24v90h-22zM882 1248v70h24v42h44v24h46v20h20v-20h68v-24h24v-22h20v-156h-20v-24h-24v-22h-22v-24h-90v24h-46v46h-20v66h-24z" />
<glyph unicode="&#xf7;" d="M324 496v136h22v20h66v24h226v-24h316v24h176v-24h24v-20h22v-112h-22v-46h-90v-22h-694v22h-24v22h-22zM598 228v22h22v46h24v44h42v24h68v-24h66v-20h46v-46h24v-90h-24v-22h-22v-24h-24v-20h-156v20h-20v24h-24v66h-22zM598 858v22h22v68h24v22h20v24h136v-24h20v-22 h46v-68h24v-22h-24v-66h-22v-24h-44v-22h-136v22h-20v24h-24v66h-22z" />
<glyph unicode="&#xf8;" d="M210 362v292h24v66h20v46h24v44h22v24h24v46h22v22h44v24h22v20h24v22h44v24h46v20h44v24h92v22h156v-22h34v46h22v68h24v66h20v68h24v44h22v70h20v44h24v22h92v-22h20v-24h24v-90h-24v-44h-20v-46h-24v-46h-22v-66h-24v-66h-22v-46h-24v-2h14v-20h66v-24h22v-22h24v-20 h20v-24h24v-22h22v-46h24v-24h22v-44h24v-46h20v-112h24v-156h-24v-70h-20v-110h-24v-46h-22v-22h-24v-24h-22v-20h-24v-24h-20v-22h-46v-24h-24v-20h-20v-24h-46v-22h-44v-24h-92v-22h-212v-20h-20v-70h-24v-66h-22v-90h-24v-92h-20v-20h-24v-24h-68v-22h-24v22h-20v24h-24 v66h24v90h20v66h24v70h22v66h24v46h10v22h-44v24h-24v20h-46v24h-20v22h-22v24h-24v44h-22v46h-24v66h-20v46h-24zM390 428h22v-90h24v-22h20v-44h24v-22h22v-24h24v-22h34v66h22v70h24v46h20v44h22v66h24v92h20v66h24v44h22v70h24v66h22v66h24v2h-216v-22h-46v-24h-20v-22 h-24v-24h-22v-20h-24v-46h-20v-68h-24v-88h-22v-160zM672 136h10v-22h136v22h66v24h46v20h44v24h24v22h22v46h20v44h24v46h22v90h24v112h-24v90h-22v46h-24v20h-20v70h-22v20h-24v24h-20v22h-36v-88h-20v-70h-24v-66h-22v-44h-24v-70h-20v-66h-24v-46h-22v-66h-24v-70h-22 v-44h-24v-88h-20v-2z" />
<glyph unicode="&#xf9;" d="M110 906h22v-22h24v-24h110v-20h22v-46h24v-70h-24v-90h24v-112h-24v-20h24v-114h-24v-22h24v-136h22v-66h24v-24h20v-44h46v-22h24v-24h20v-22h46v-24h68v-20h134v20h114v24h66v22h66v24h70v-24h20v-22h46v-24h68v24h68v22h44v24h90v22h22v44h-22v46h-110v24h-46v20h-24 v586h24v114h-24v66h-22v22h-68v-22h-112v-24h-112v-22h-24v-66h24v-24h112v-20h22v-24h24v-562h-24v-24h-22v-20h-24v-24h-66v-22h-46v-24h-200v24h-68v22h-44v24h-24v44h-22v22h-24v66h-20v406h20v248h-20v22h-114v-22h-158v-24h-44v-42h-22v-24zM308 1350l18 30l-10 6 l42 74l12 -6l8 14l12 -6l8 16l86 -52l-8 -16l152 -90l10 16l110 -64l-10 -16l32 -18l-8 -14l10 -8l-52 -90l-12 6l-8 -14l-12 6l-8 -16l-338 200l10 16z" />
<glyph unicode="&#xfa;" d="M110 906v24h22v42h44v24h158v22h114v-22h20v-248h-20v-406h20v-66h24v-22h22v-44h24v-24h44v-22h68v-24h200v24h46v22h66v24h24v20h22v24h24v562h-24v24h-22v20h-112v24h-24v66h24v22h112v24h112v22h68v-22h22v-66h24v-114h-24v-586h24v-20h46v-24h110v-46h22v-44h-22 v-22h-90v-24h-44v-22h-68v-24h-68v24h-46v22h-20v24h-70v-24h-66v-22h-66v-24h-114v-20h-134v20h-68v24h-46v22h-20v24h-24v22h-46v44h-20v24h-24v66h-22v136h-24v22h24v114h-24v20h24v112h-24v90h24v70h-24v46h-22v20h-110v24h-24v22h-22zM658 1222l10 6l-8 14l32 20 l-10 16l110 64l10 -16l152 90l-8 16l86 50l8 -16l12 8l8 -14l12 6l42 -76l-10 -6l18 -30l-44 -26l10 -16l-338 -198l-8 16l-12 -6l-8 14l-12 -6z" />
<glyph unicode="&#xfb;" d="M110 906v24h22v42h44v24h158v22h114v-22h20v-248h-20v-406h20v-66h24v-22h22v-44h24v-24h44v-22h68v-24h200v24h46v22h66v24h24v20h22v24h24v562h-24v24h-22v20h-112v24h-24v66h24v22h112v24h112v22h68v-22h22v-66h24v-114h-24v-586h24v-20h46v-24h110v-46h22v-44h-22 v-22h-90v-24h-44v-22h-68v-24h-68v24h-46v22h-20v24h-70v-24h-66v-22h-66v-24h-114v-20h-134v20h-68v24h-46v22h-20v24h-24v22h-46v44h-20v24h-24v66h-22v136h-24v22h24v114h-24v20h24v112h-24v90h24v70h-24v46h-22v20h-110v24h-24v22h-22zM498 1168l18 34l-12 6l150 254 l12 -6l4 8l12 -6l4 8l12 -6l12 6l4 -8l12 6l4 -8l12 6l150 -254l-12 -6l18 -34l-22 -14l4 -6l-56 -34l-4 8l-10 -6l-6 8l-12 -6l-38 64l12 8l-68 114l-68 -114l12 -8l-38 -64l-12 6l-6 -8l-10 6l-4 -8l-56 34l4 6z" />
<glyph unicode="&#xfc;" d="M110 906h22v-22h24v-24h110v-20h22v-46h24v-70h-24v-90h24v-112h-24v-20h24v-114h-24v-22h24v-136h22v-66h24v-24h20v-44h46v-22h24v-24h20v-22h46v-24h68v-20h134v20h114v24h66v22h66v24h70v-24h20v-22h46v-24h68v24h68v22h44v24h90v22h22v44h-22v46h-110v24h-46v20h-24 v586h24v114h-24v66h-22v22h-68v-22h-112v-24h-112v-22h-24v-66h24v-24h112v-20h22v-24h24v-562h-24v-24h-22v-20h-24v-24h-66v-22h-46v-24h-200v24h-68v22h-44v24h-24v44h-22v22h-24v66h-20v406h20v248h-20v22h-114v-22h-158v-24h-44v-42h-22v-24zM336 1190v136h24v22h20v24 h70v20h22v-20h66v-24h24v-22h20v-136h-20v-44h-24v-22h-66v-24h-22v24h-70v46h-20v20h-24zM846 1236v70h24v42h44v24h46v20h20v-20h68v-24h24v-22h20v-156h-20v-24h-24v-22h-22v-24h-90v24h-46v46h-20v66h-24z" />
<glyph unicode="&#xfd;" d="M144 924v22h24v44h134v24h22v-24h46v24h44v-24h180v-20h46v-68h-24v-22h-66v-22h-24v-90h24v-46h20v-44h24v-46h22v-46h24v-44h22v-46h20v-20h24v-70h22v-46h24v-20h20v-24h46v24h24v20h20v70h24v66h22v46h24v44h22v68h22v68h22v66h22v70h-22v22h-112v22h-24v22h-20v22 h20v44h202v24h136v-24h24v24h90v-24h22v-44h20v-22h-20v-44h-68v-22h-68v-24h-22v-46h-24v-66h-20v-68h-24v-46h-22v-66h-24v-46h-20v-66h-24v-24h-22v-66h-22v-46h-22v-44h-22v-68h-24v-24h-22v-44h-24v-46h-20v-20h-24v-70h-22v-46h-24v-42h-20v-44h-24v-70h-22v-46h-24 v-20h-20v-46h-22v-44h-46v-24h-24v-22h-44v-22h-22v-22h-90v-22h-90v22h-66v22h-24v22h-22v66h22v46h24v24h132v-24h114v24h46v44h20v46h24v22h22v44h24v46h22v44h20v46h24v46h22v66h-22v44h-24v46h-20v46h-22v44h-24v22h-22v44h-24v46h-20v24h-24v46h-22v20h-24v46h-20v66 h-24v46h-22v44h-24v46h-20v44h-24v46h-22v24h-22v22h-134v44h-24zM674 1146l10 6l-8 14l32 20l-10 16l110 64l10 -16l152 90l-8 16l86 50l8 -16l12 8l8 -14l12 6l42 -76l-10 -6l18 -30l-44 -26l10 -16l-338 -198l-8 16l-12 -6l-8 14l-12 -6z" />
<glyph unicode="&#xfe;" d="M266 256h24v776h-24v356h24v24h20v22h112v-22h46v-90h22v-326h68v22h66v24h248v-24h44v-22h68v-24h44v-22h24v-20h22v-24h24v-22h20v-24h24v-44h22v-22h24v-70h20v-156h24v-180h-24v-46h-20v-46h-24v-42h-22v-44h-24v-24h-20v-22h-24v-24h-22v-22h-24v-22h-20v-22h-68 v-24h-44v-22h-114v-24h-158v24h-134v-400h-22v-24h-22v-22h-136v22h-20v66h-24v586zM490 210h24v-24h44v-22h46v-24h202v24h44v22h46v24h20v20h24v24h22v42h22v46h24v46h20v270h-20v46h-24v20h-22v24h-22v22h-24v24h-20v22h-24v24h-22v20h-44v24h-248v-24h-44v-20h-24v-630z " />
<glyph unicode="&#xff;" d="M144 924h24v-44h134v-22h22v-24h22v-46h24v-44h20v-46h24v-44h22v-46h24v-66h20v-46h24v-20h22v-46h24v-24h20v-46h24v-44h22v-22h24v-44h22v-46h20v-46h24v-44h22v-66h-22v-46h-24v-46h-20v-44h-22v-46h-24v-44h-22v-22h-24v-46h-20v-44h-46v-24h-114v24h-132v-24h-24 v-46h-22v-66h22v-22h24v-22h66v-22h90v22h90v22h22v22h44v22h24v24h46v44h22v46h20v20h24v46h22v70h24v44h20v42h24v46h22v70h24v20h20v46h24v44h22v24h24v68h22v44h22v46h22v66h22v24h24v66h20v46h24v66h22v46h24v68h20v66h24v46h22v24h68v22h68v44h20v22h-20v44h-22v24 h-90v-24h-24v24h-136v-24h-202v-44h-20v-22h20v-22h24v-22h112v-22h22v-70h-22v-66h-22v-68h-22v-68h-22v-44h-24v-46h-22v-66h-24v-70h-20v-20h-24v-24h-46v24h-20v20h-24v46h-22v70h-24v20h-20v46h-22v44h-24v46h-22v46h-24v44h-20v46h-24v90h24v22h66v22h24v68h-46v20 h-180v24h-44v-24h-46v24h-22v-24h-134v-44h-24v-22zM416 1210v136h24v22h20v24h70v20h22v-20h66v-24h24v-22h20v-136h-20v-44h-24v-22h-66v-24h-22v24h-70v46h-20v20h-24zM926 1256v70h24v42h44v24h46v20h20v-20h68v-24h24v-22h20v-156h-20v-24h-24v-22h-22v-24h-90v24h-46 v46h-20v66h-24z" />
<glyph unicode="&#x178;" d="M110 1370h46v-22h94v-24h22v-48h24v-22h22v-46h22v-26h26v-46h22v-22h24v-46h22v-48h26v-22h22v-46h24v-48h22v-24h24v-48h22v-22h26v-24h22v-70h24v-22h22v-46h22v-444h-22v-26h-22v-22h-118v-24h-46v-48h-22v-22h22v-46h208v-22h188v22h162v-22h48v22h72v46h22v48h-22 v22h-48v24h-210v48h-24v350h-22v68h22v72h24v44h24v48h24v24h22v48h24v46h22v22h22v48h26v24h22v70h24v22h22v24h26v46h22v48h24v46h22v22h26v26h22v46h70v22h22v26h22v90h-44v26h-70v-26h-350v-22h-24v-68h24v-26h46v-22h68v-46h26v-26h-26v-94h-22v-22h-22v-46h-24v-46 h-22v-48h-24v-46h-24v-48h-24v-22h-22v-24h-24v-48h-70v48h-24v24h-22v22h-26v48h-22v46h-22v48h-24v22h-22v46h-26v24h-22v48h-24v46h-22v48h-24v46h24v22h94v26h22v22h24v22h-24v46h-116v26h-118v-26h-70v26h-162v-26h-46v-116zM402 1632v136h24v22h20v24h70v20h22v-20h66 v-24h24v-22h20v-136h-20v-44h-24v-22h-66v-24h-22v24h-70v46h-20v20h-24zM912 1678v70h24v42h44v24h46v20h20v-20h68v-24h24v-22h20v-156h-20v-24h-24v-22h-22v-24h-90v24h-46v46h-20v66h-24z" />
<glyph unicode="&#x2c6;" d="M550 1660l18 34l-12 6l150 254l12 -6l4 8l12 -6l4 8l12 -6l12 6l4 -8l12 6l4 -8l12 6l150 -254l-12 -6l18 -34l-22 -14l4 -6l-56 -34l-4 8l-10 -6l-6 8l-12 -6l-38 64l12 8l-68 114l-68 -114l12 -8l-38 -64l-12 6l-6 -8l-10 6l-4 -8l-56 34l4 6z" />
<glyph unicode="&#x2000;" horiz-adv-x="992" />
<glyph unicode="&#x2001;" horiz-adv-x="1984" />
<glyph unicode="&#x2002;" horiz-adv-x="992" />
<glyph unicode="&#x2003;" horiz-adv-x="1984" />
<glyph unicode="&#x2004;" horiz-adv-x="661" />
<glyph unicode="&#x2005;" horiz-adv-x="496" />
<glyph unicode="&#x2006;" horiz-adv-x="330" />
<glyph unicode="&#x2007;" horiz-adv-x="330" />
<glyph unicode="&#x2008;" horiz-adv-x="248" />
<glyph unicode="&#x2009;" horiz-adv-x="396" />
<glyph unicode="&#x200a;" horiz-adv-x="110" />
<glyph unicode="&#x2010;" d="M404 576v136h22v20h66v24h226v-24h156v24h176v-24h24v-20h22v-112h-22v-46h-90v-22h-534v22h-24v22h-22z" />
<glyph unicode="&#x2011;" d="M404 576v136h22v20h66v24h226v-24h156v24h176v-24h24v-20h22v-112h-22v-46h-90v-22h-534v22h-24v22h-22z" />
<glyph unicode="&#x2012;" d="M404 576v136h22v20h66v24h226v-24h156v24h176v-24h24v-20h22v-112h-22v-46h-90v-22h-534v22h-24v22h-22z" />
<glyph unicode="&#x2013;" d="M324 528v136h22v22h66v24h226v-24h316v24h176v-24h24v-22h22v-112h-22v-44h-90v-24h-694v24h-24v20h-22z" />
<glyph unicode="&#x2014;" d="M-26 576v136h22v20h66v24h226v-24h1016v24h176v-24h24v-20h22v-112h-22v-46h-90v-22h-1394v22h-24v22h-22z" />
<glyph unicode="&#x2018;" d="M594 1470v110h20v24h24v22h66v24h68v-24h68v-22h46v-44h20v-70h-20v-136h-24v-156h-22v-22h22v-180h-22v-22h-24v-22h-112v22h-20v22h-24v136h-22v222h-24v116h-20z" />
<glyph unicode="&#x2019;" d="M594 1470v110h20v24h24v22h66v24h68v-24h68v-22h46v-44h20v-70h-20v-136h-24v-156h-22v-22h22v-180h-22v-22h-24v-22h-112v22h-20v22h-24v136h-22v222h-24v116h-20z" />
<glyph unicode="&#x201a;" d="M582 -306h20v44h24v22h22v44h24v24h20v22h22v90h-22v24h-20v22h-24v66h-22v46h22v68h44v22h46v24h66v-24h24v-22h46v-24h20v-44h24v-248h-24v-46h-20v-20h-24v-24h-22v-22h-24v-24h-20v-20h-24v-22h-22v-24h-24v-22h-42v-24h-24v24h-46v46h-20v22z" />
<glyph unicode="&#x201c;" d="M290 1450v136h20v24h24v20h158v-20h44v-24h22v-136h-22v-178h-24v-248h-20v-24h-24v-20h-68v20h-22v24h-22v112h-22v158h-24v156h-20zM940 1474v112h24v24h44v20h134v-20h44v-24h24v-158h-24v-336h-20v-68h-24v-24h-22v-20h-68v20h-22v24h-22v112h-24v202h-20v136h-24z " />
<glyph unicode="&#x201d;" d="M290 1450v136h20v24h24v20h158v-20h44v-24h22v-136h-22v-178h-24v-248h-20v-24h-24v-20h-68v20h-22v24h-22v112h-22v158h-24v156h-20zM940 1474v112h24v24h44v20h134v-20h44v-24h24v-158h-24v-336h-20v-68h-24v-24h-22v-20h-68v20h-22v24h-22v112h-24v202h-20v136h-24z " />
<glyph unicode="&#x201e;" d="M402 -306h20v44h24v22h22v44h24v24h20v22h22v90h-22v24h-20v22h-24v66h-22v46h22v68h44v22h46v24h66v-24h24v-22h46v-24h20v-44h24v-248h-24v-46h-20v-20h-24v-24h-22v-22h-24v-24h-20v-20h-24v-22h-22v-24h-24v-22h-42v-24h-24v24h-46v46h-20v22zM762 -306h20v44h24v22 h22v44h24v24h20v22h22v90h-22v24h-20v22h-24v66h-22v46h22v68h44v22h46v24h66v-24h24v-22h46v-24h20v-44h24v-248h-24v-46h-20v-20h-24v-24h-22v-22h-24v-24h-20v-20h-24v-22h-22v-24h-24v-22h-42v-24h-24v24h-46v46h-20v22z" />
<glyph unicode="&#x2022;" d="M558 726v44h24v92h22v20h24v24h22v22h90v24h20v-24h90v-22h24v-24h22v-44h24v-46h22v-22h-22v-66h-24v-24h-22v-20h-24v-24h-20v-22h-24v-24h-66v24h-66v22h-46v24h-24v20h-22v46h-24z" />
<glyph unicode="&#x2026;" d="M-34 -14v44h24v92h22v20h24v24h22v22h90v24h20v-24h90v-22h24v-24h22v-44h24v-46h22v-22h-22v-66h-24v-24h-22v-20h-24v-24h-20v-22h-24v-24h-66v24h-66v22h-46v24h-24v20h-22v46h-24zM558 -14v44h24v92h22v20h24v24h22v22h90v24h20v-24h90v-22h24v-24h22v-44h24v-46h22 v-22h-22v-66h-24v-24h-22v-20h-24v-24h-20v-22h-24v-24h-66v24h-66v22h-46v24h-24v20h-22v46h-24zM1150 -14v44h24v92h22v20h24v24h22v22h90v24h20v-24h90v-22h24v-24h22v-44h24v-46h22v-22h-22v-66h-24v-24h-22v-20h-24v-24h-20v-22h-24v-24h-66v24h-66v22h-46v24h-24v20 h-22v46h-24z" />
<glyph unicode="&#x202f;" horiz-adv-x="396" />
<glyph unicode="&#x2039;" d="M442 564v96l14 6l-10 20l452 336l10 -20l58 30l24 -38l10 8l58 -96l-14 -6l10 -18l-14 -10l10 -20l-108 -64l-14 20l-234 -196l234 -196l14 20l108 -64l-10 -20l14 -10l-10 -18l14 -6l-58 -96l-10 8l-24 -38l-58 30l-10 -20l-452 336l10 20z" />
<glyph unicode="&#x203a;" d="M442 318l14 6l-10 18l14 10l-10 20l108 64l14 -20l234 196l-234 196l-14 -20l-108 64l10 20l-14 10l10 18l-14 6l58 96l10 -8l24 38l58 -30l10 20l452 -336l-10 -20l14 -6v-96l-14 -6l10 -20l-452 -336l-10 20l-58 -30l-24 38l-10 -8z" />
<glyph unicode="&#x205f;" horiz-adv-x="496" />
<glyph unicode="&#x20ac;" d="M176 544v44h24v24h22v22h22v142h-44v44h-24v46h24v24h22v22h46v36h20v68h24v68h22v44h24v46h22v22h24v44h20v24h24v22h22v24h24v20h20v24h22v22h44v24h24v20h46v22h66v24h248v-24h114v-22h202v-20h20v-46h24v-44h-24v-226h24v-46h-24v-22h-20v-22h-92v22h-20v46h-24v112 h-22v44h-24v22h-20v24h-24v22h-46v24h-268v-24h-44v-22h-46v-24h-24v-22h-22v-22h-24v-46h-20v-22h-24v-44h-22v-68h-20v-90h-24v-14h360v22h136v-22h336v-22h22v-70h-22v-44h-136v-22h-24v22h-90v-22h-110v22h-92v-22h-90v22h-66v-22h-224v-30h-22v-68h20v2h46v-24h788v-46 h22v-66h-22v-24h-608v-22h-136v22h-88v-24h24v-86h20v-70h22v-22h24v-44h20v-24h24v-22h22v-24h46v-20h44v-24h46v-22h202v22h44v24h46v20h24v24h20v46h24v20h22v92h24v66h20v24h22v20h70v-20h44v-292h-24v-24h-20v-22h-24v-24h-46v-22h-22v-20h-44v-24h-46v-22h-90v-24h-90 v-20h-132v20h-114v24h-68v22h-44v24h-46v20h-20v22h-24v24h-22v22h-24v24h-20v44h-24v22h-22v24h-24v66h-22v46h-24v66h-20v68h-46v24h-22v22h-24z" />
<glyph unicode="&#x2122;" d="M44 1282v84h12v66h10v12h586v-12h10v-20h10v-206h-10v-24l-84 10l-10 14h-12v98h-10v10h-12v14h-32v10h-40v-10h-34v-14h-10v-172h10v-60h-10v-18h10v-62h-10v-82h10v-100h22v-12h32v-10h80v-14h12v-10h10v-60h-10v-22h-56v-10h-52v10h-300v92h10v14h36v10h44v12h32v12 h12v482h-12v14h-44v10h-6v-10h-32v-14h-12v-10h-10v-12h-12v-66h-12v-44h-22v-12l-62 10l-10 14h-10v88h-12zM714 1384v48h14v12h22v10h146v-10h30v-12h10v-8h14v-22h8v-22h14v-22h10v-32h10v-22h10v-22h10v-20h12v-22h12v-22h10v-20h12v-22h8v-32h10v-10h16v10h10v32h12v22 h10v32h10v22h10v20h12v22h12v32h10v32h10v32h12v12h10v22h10v20h210v-12h24v-90h-54v-10h-44v-226h-10v-58h10v-126h-10v-14h10v-64h10v-12h34v-10h30v-10h10v-12h14v-70h-14v-12h-40v-10h-72v10h-160v12h-12v10h-12v50h12v22h12v10h32v10h20v12h12v214h10v112h-10v22h-6 v-22h-10v-22h-10v-12h-10v-30h-12v-34h-10v-10h-12v-20h-10v-24h-12v-22h-8v-8h-10v-22h-12v-10h-60v10h-12v12h-10v10h-10v20h-12v10h-10v34h-10v20h-12v22h-10v22h-10v20h-12v22h-10v22h-14v22h-2v-96h-10v-90h10v-130h10v-34h10v-8h14v-12h42v-10h20v-32h12v-50h-12v-10 h-10v-12h-252v12h-12v82h12v10h10v10h20v12h12v8h10v174h14v306h-14v10h-22v10h-52v32h-14z" />
<glyph unicode="&#x25fc;" horiz-adv-x="1010" d="M0 0v1010h1010v-1010h-1010z" />
</font>
</defs>
</svg>
