<?xml version="1.0" standalone="no"?>
<!DOCTYPE svg PUBLIC "-//W3C//DTD SVG 1.1//EN" "http://www.w3.org/Graphics/SVG/1.1/DTD/svg11.dtd" >
<svg xmlns="http://www.w3.org/2000/svg" xmlns:xlink="http://www.w3.org/1999/xlink" version="1.1">
<metadata></metadata>
<defs>
<font id="jmh_typewriter_monoitalic" horiz-adv-x="1500" >
<font-face units-per-em="2048" ascent="1638" descent="-410" />
<missing-glyph horiz-adv-x="500" />
<glyph horiz-adv-x="0" />
<glyph unicode="&#xd;" />
<glyph />
<glyph />
<glyph unicode=" " />
<glyph unicode="!" d="M612 328h92l-4 -24h20l-4 -22h24l-4 -24h22l-6 -22h24l-4 -24h20l-8 -44h24l-4 -22h-24l-18 -90h-20l-4 -22h-24l-6 -24h-46l-2 -20h-66l-6 -24h-46l6 24h-44l2 20h-22l6 24h-24l4 22h-20l34 180h20l6 22h24l4 24h22l4 22h44zM832 1562h132l-4 -20h46l-4 -24h24l-8 -46 h20l-14 -66h24l-8 -46h-24l-30 -156h-20l-32 -156h-24l-34 -182h-22l-80 -406h-24l-12 -66h-44l-4 -22h-44l4 22h-24l4 24h-20l22 112h-24l82 426h-22l36 178h-24l14 70h-20l42 226h20l14 66h24l4 22h22l4 24h24z" />
<glyph unicode="&#x22;" d="M364 1630h158l-4 -20h44l-4 -24h22l-28 -136h-22l-34 -178h-24l-48 -248h-20l-4 -24h-24l-4 -20h-68l4 20h-22l4 24h-22l22 112h-22l30 158h-24l30 156h-20l28 136h20l4 24h24zM1038 1630h134l-4 -20h44l-4 -24h24l-32 -158h-24l-64 -336h-20l-14 -68h-24l-4 -24h-22 l-4 -20h-68l4 20h-22l4 24h-22l22 112h-24l40 202h-20l26 136h-24l22 112h24l4 24h44z" />
<glyph unicode="#" d="M1098 1562h24v-20h20v-24h24v-46h22v-20h-22v-112h-24v-46h-20v-90h-24v-112h-22v-114h-20v-22h20v-44h226v-24h46v-22h20v-68h-20v-22h-136v-22h-24v22h-90v-22h-88v-22h-24v-92h-20v-134h44v-22h224v-24h24v-22h20v-44h-20v-22h-46v-24h-246v-20h-46v-70h-24v-66h-22 v-136h-24v-156h-20v-70h-24v-66h-22v-46h-24v-20h-66v20h-20v136h20v90h24v112h22v66h20v114h24v68h22v114h24v112h20v90h24v112h22v110h24v92h22v134h24v112h20v114h24v136h22v88h24v24h42v20zM740 1542h66v-24h24v-134h-24v-90h-22v-68h-24v-92h-20v-110h-22v-136h-24v-66 h-20v-90h-24v-112h-22v-114h-24v-88h-22v-90h-24v-116h-20v-90h-24v-132h-22v-136h-24v-90h-20v-46h-24v-20h-22v-24h-20v24h-46v44h-24v66h24v92h22v110h24v70h20v88h22v68h24v92h-24v20h-268v24h-24v88h24v24h292v22h44v90h22v68h24v90h-90v22h-202v22h-24v90h24v24h312 v22h24v90h22v68h24v134h22v90h24v114h20v88h46v24z" />
<glyph unicode="$" d="M920 1722h92l-4 -24h20l-32 -156h24l-4 -24h22l-4 -22h68l-4 -24h66l-4 -20h68l-6 -22h24l-4 -24h20l-4 -22h24l-8 -44h22l-40 -206h-22l-4 -20h-44l-4 -22h-24l4 22h-68l4 20h-20l8 46h-24l26 136h-22l6 24h-24l4 20h-90l4 24h-112l-4 -24h-44l-4 -20h-46l-6 -24h-44 l-4 -22h-22l-4 -24h-24l-8 -44h-20l-14 -68h-24l-18 -90h24l-4 -20h20l-8 -46h24l-4 -24h22l-6 -22h44l-4 -22h70l-4 -22h112l-4 -24h66l-4 -22h68l-6 -24h66l-4 -20h46l-4 -24h22l-4 -22h24l-4 -22h44l-8 -44h22l-6 -24h24l-12 -66h20l-18 -90h24l-4 -24h-24l-22 -112h-20 l-10 -46h-24l-8 -44h-22l-8 -46h-24l-6 -22h-20l-4 -24h-46l-4 -20h-22l-4 -24h-44l-4 -22h-46l-6 -24h-68l-4 -20h-22l-4 -22h-24l-40 -204h-20l-34 -178h-24l-8 -46h-68l4 22h-20l4 24h-24l74 382h-46l4 22h-90l4 20h-112l6 24h-44l4 22h-46l4 24h-20l8 44h-24l40 202h24 l14 68h44l4 24h22l-4 -24h44l-10 -46h22l-12 -66h24l-10 -46h22l-4 -20h24l-4 -24h20l-4 -22h24l-4 -24h46l-6 -22h246l6 22h46l4 24h44l4 22h22l4 24h24l4 20h20l10 46h24l12 66h22l10 46h-22l12 68h-24l4 22h-20l6 24h-24l4 20h-22l4 24h-44l4 22h-70l6 24h-66l4 22h-66 l4 22h-90l4 22h-46l4 22h-44l4 24h-46l4 20h-24l6 24h-22l4 22h-24l4 24h-20l8 44h-22l10 46h-24l44 224h24l8 44h22l8 46h20l6 24h24l8 44h22l4 22h46l4 24h24l6 22h44l4 20h46l4 24h44l4 22h22l32 160h24l4 20h20z" />
<glyph unicode="%" d="M818 102h24l-4 -22h20l-4 -24h24l-4 -22h42l-6 -24h70l6 24h66l4 22h46l8 46h24l22 110h-24l4 24h-22l10 46h-24l4 22h-178l-4 -22h-24l-4 -24h-20l-10 -46h-24zM904 418h246l-4 -24h66l-4 -22h24l-6 -24h22l-4 -20h24l-8 -46h20l-14 -70h22l-26 -132h-22l-8 -46h-20 l-8 -44h-24l-6 -24h-22l-4 -22h-24l-4 -24h-44l-4 -20h-46l-6 -24h-178l6 24h-44l4 20h-46l4 24h-24l4 22h-22l8 44h-24l10 46h-20l40 202h20l8 46h24l8 44h22l6 24h46l4 22h24zM646 1294h20l10 46h-20l12 66h-24l4 24h-22l6 22h-44l4 20h-90l-4 -20h-46l-6 -22h-22l-4 -24 h-24l-8 -46h-20l-18 -90h20l-8 -44h24l-4 -22h46l-6 -24h112l6 24h44l4 22h22l4 24h24zM528 1608h66l-4 -22h114l-6 -24h66l-4 -20h112l-4 -24h68l-4 -22h22l-14 -66h-22l-4 -24h-90l-4 -22h-20l-26 -134h-24l-8 -46h-22l-10 -46h-24l-4 -24h-22l-4 -20h-24l-4 -22h-44 l-6 -24h-46l-4 -20h-156l4 20h-46l6 24h-44l4 22h-22l4 20h-24l4 24h-20l4 22h-24l14 70h-22l30 156h22l14 66h24l4 24h20l4 22h24l4 24h22l4 20h68l6 24h68zM1198 1586h90l-6 -24h20l-16 -90h-20l-10 -42h-24l-8 -46h-22l-14 -68h-24l-4 -22h-20l-12 -68h-22l-10 -46h-24 l-8 -46h-20l-14 -66h-24l-8 -44h-22l-14 -68h-24l-4 -22h-22l-12 -68h-24l-14 -68h-20l-8 -44h-24l-14 -68h-22l-8 -46h-24l-10 -44h-20l-8 -46h-24l-8 -44h-22l-14 -68h-20l-8 -44h-24l-14 -66h-22l-8 -46h-24l-14 -70h-22l-12 -66h-24l-14 -66h-20l-8 -46h-24l-14 -68h-22 l-8 -46h-24l-4 -20h-20l-6 -24h-70l6 24h-20l30 156h20l8 46h24l10 44h22l4 22h24l18 90h20l8 46h24l8 44h22l10 46h24l12 66h20l10 46h24l12 68h22l10 46h24l12 66h22l10 46h24l8 44h20l8 46h22l10 44h24l12 68h20l10 44h24l12 70h22l14 66h24l4 20h20l14 70h24l8 46h22 l8 44h24l10 46h22l12 66h24l14 66h20l12 70h24l4 20h22z" />
<glyph unicode="&#x26;" d="M276 394h20l-14 -66h24l-8 -46h22l-4 -24h24l-6 -22h20l-8 -44h46l-4 -24h24l-4 -22h66l-6 -24h202l6 24h70l4 22h20l4 24h46l4 20h24l4 24h20l14 68h-20l8 44h-24l10 46h-22l8 44h-24l10 46h-20l4 22h-24l8 44h-22l4 24h-24l4 22h-22l10 44h-24l4 24h-20l4 22h-24l6 24 h-22l4 22h-20l4 22h-136l-4 -22h-24l-4 -22h-46l-6 -24h-20l-4 -22h-24l-4 -24h-22l-10 -44h-24l-12 -66h-20zM826 1496h46l-4 -24h20l4 24h46l-4 -24h90l-4 -20h24l-6 -22h46l-8 -46h20l-18 -90h-20l-4 -24h-46l-4 -20h-68l4 20h-22l4 24h-46l4 22h-134l-4 -22h-46l-4 -24 h-20l-4 -20h-24l-26 -136h24l-10 -46h20l-4 -20h24l-8 -46h22l-4 -24h24l-6 -22h20l-4 -22h22l-4 -22h24l-4 -24h20l-4 -22h24l-6 -24h22l-4 -20h24l-8 -46h22l-4 -22h24l-4 -22h20l-4 -22h24l-10 -46h22l-4 -24h24l-4 -20h20l-6 -24h24l-8 -46h22l-8 -44h20l-10 -46h24 l6 24h46l34 180h22l10 46h24l4 22h268l-28 -136h-46l-4 -22h-42l-4 -24h-46l-4 -20h-24l-14 -70h-20l-12 -66h-24l-10 -46h-22l-8 -44h-24l-22 -112h46l-4 -24h24l4 24h20l4 20h46l4 24h66l-4 -24h46l-8 -44h24l-4 -22h-24l-18 -90h-22l-4 -22h-46l-6 -24h-44l-2 -20h-90 l2 20h-66l6 24h-24l4 22h-22l4 24h-46l4 22h-24l-4 -22h-42l-4 -24h-44l-4 -22h-46l-6 -24h-44l-2 -20h-70l-6 -24h-246l6 24h-68l2 20h-44l6 24h-46l4 22h-44l4 24h-22l4 22h-24l4 20h-20l6 24h-24l8 46h-22l8 44h-24l10 46h-22l8 46h-24l52 268h24l10 44h22l8 46h24l6 24 h22l4 22h24l4 22h20l4 22h24l4 22h42l4 24h46l4 20h44l6 24h24l12 68h-24l10 44h-20l4 24h-24l8 46h-22l14 66h-24l30 156h24l8 46h22l10 44h24l4 24h20l4 22h46l4 24h24l6 22h46l4 20h110z" />
<glyph unicode="'" d="M744 1650h68l-4 -24h68l-6 -22h46l-8 -44h20l-14 -70h-20l-26 -136h-24l-30 -156h-22l-4 -22h22l-36 -180h-22l-4 -22h-24l-4 -22h-112l4 22h-20l4 22h-24l28 136h-22l42 222h-24l22 116h-20l22 110h20l4 24h24l6 22h66z" />
<glyph unicode="(" d="M1060 1608h90l-4 -22h24l-6 -24h22l-12 -66h-22l-8 -44h-46l-6 -22h-24l-4 -24h-20l-4 -22h-24l-4 -24h-22l-4 -20h-24l-6 -24h-20l-4 -22h-22l-4 -24h-24l-4 -20h-20l-8 -46h-24l-6 -24h-22l-8 -46h-24l-8 -42h-22l-10 -44h-24l-8 -46h-20l-18 -90h-24l-22 -114h-22 l-16 -88h-24l-10 -46h24l-14 -68h-24l-8 -46h24l-22 -112h22l-22 -110h24l-8 -46h20l-14 -70h24l-8 -44h22l-10 -46h24l-4 -20h22l-8 -46h24l-4 -22h20l-6 -24h24l-8 -44h22l-4 -22h20l-4 -24h24l-4 -20h46l-6 -24h20l-4 -22h24l-8 -46h22l-4 -24h24l-18 -86h-46l-4 -24h-68 l4 24h-22l4 20h-24l4 24h-20l6 22h-22l4 20h-24l4 24h-20l4 22h-24l4 24h-22l4 22h-24l6 24h-22l4 20h-24l4 24h-20l4 22h-24l8 44h-22l6 24h-24l8 46h-20l8 42h-24l6 24h-22l4 22h-20l8 44h-24l14 70h-22l18 90h-24l8 46h-22l44 222h-24l14 70h24l30 156h22l16 90h24l14 68 h22l4 24h24l14 66h20l4 20h22l8 46h24l10 46h20l4 24h24l4 20h22l4 24h24l4 22h20l10 44h24l4 24h22l4 22h24l4 24h22l6 22h24l4 20h20l8 46h24l4 24h22l4 20h44l6 24h22z" />
<glyph unicode=")" d="M706 1632h90l-4 -24h24l-4 -22h22l-6 -24h24l-4 -20h22l-4 -24h24l-4 -22h44l-8 -44h22l-6 -22h24l-4 -24h20l-4 -22h22l-4 -24h24l-4 -20h20l-10 -46h24l-4 -24h22l-4 -20h24l-8 -46h22l-6 -24h24l-8 -46h20l-8 -42h24l-6 -24h22l-8 -44h24l-18 -90h20l-26 -136h24 l-74 -380h-24l-14 -70h-20l-8 -44h-24l-14 -68h-22l-8 -44h-24l-8 -46h-20l-6 -24h-24l-8 -42h-22l-4 -24h-24l-10 -46h-22l-2 -20h-24l-6 -24h-20l-4 -22h-24l-4 -24h-22l-4 -20h-20l-6 -24h-24l-4 -22h-22l-4 -24h-24l-4 -22h-20l-4 -24h-24l-4 -20h-22l-10 -46h-24 l-4 -20h-66l-4 -24h-46l4 24h-24l8 44h-18l6 22h18l8 44h24l4 22h22l4 24h24l4 22h44l6 24h22l4 20h24l8 46h22l6 24h24l2 20h20l10 46h24l4 24h22l4 22h24l10 44h20l8 46h22l8 44h24l10 46h20l18 90h24l16 88h22l70 362h-22l14 66h-24l18 90h-20l8 46h-24l14 68h-22l8 42 h-20l8 46h-24l6 24h-22l8 46h-24l4 20h-20l4 24h-24l4 22h-22l6 24h-24l8 44h-22l4 22h-44l4 24h-24l6 22h-22l4 20h-24l4 24h-20l22 112h20z" />
<glyph unicode="*" d="M774 1608h132l-4 -22h46l-14 -68h24l-4 -22h-24l-18 -90h-22l-30 -156h-24l-22 -116h-20l-4 -20h-24l-4 -22h-22l4 22h-46l8 44h-20l30 158h-24l22 114h-22l26 132h22l6 24h24zM576 956h70l-4 -22h20l-8 -46h22l-4 -22h-22l-10 -44h-20l-4 -24h-24l-8 -44h-22l-8 -44h-24 l-10 -46h-20l-8 -44h-24l-14 -70h-22l-8 -44h-44l-4 -22h-92l4 22h-44l4 24h-22l12 66h-24l6 24h24l8 44h22l4 22h20l6 24h24l4 22h22l4 22h24l4 22h22l4 22h24l4 24h20l4 20h24l6 24h22l4 22h24l4 24h20zM212 1270h134l-4 -20h46l-4 -24h44l-4 -22h46l-6 -24h46l-4 -22h20 l-4 -24h70l-4 -20h44l-4 -22h22l-14 -68h-22l-8 -46h-44l4 24h-90l4 22h-182l4 24h-90l4 20h-66l10 46h-24l18 90h24l8 46h22zM1202 1270h110l-4 -20h24l-4 -24h22l-10 -46h24l-12 -66h-24l-10 -46h-22l-4 -20h-158l-4 -24h-112l-4 -22h-90l-4 -24h-46l-18 -90h24l-4 -22h22 l-6 -24h24l-4 -20h20l-4 -24h24l-4 -22h22l-4 -22h22l-4 -22h24l-4 -22h20l-6 -24h24l-4 -22h22l-8 -44h24l-10 -46h-24l-4 -24h-22l-8 -44h-44l-4 -22h-92l4 22h-20l4 24h-24l8 44h-22l4 22h-24l10 44h-20l8 46h-24l14 68h-22l4 22h-24l8 46h-20l10 44h-24l4 22h24l12 68 h44l32 158h66l4 20h90l4 24h24l4 22h44l6 24h44l4 22h46l4 24h24z" />
<glyph unicode="+" d="M860 1428h44l-4 -20h22l-4 -24h24l-4 -22h20l-66 -338h-20l-30 -158h20l-4 -22h24l-6 -24h540l-4 -22h20l-4 -24h24l-14 -66h-24l-8 -44h-90l-4 -22h-20l4 22h-112l-4 -22h-24l4 22h-292l-4 -22h-46l-32 -160h-20l-34 -178h20l-40 -204h-20l-4 -22h-24l-4 -20h-46l-4 -24 h-20l4 24h-46l8 42h-24l102 518h-20l4 24h-92l4 22h-472l8 44h-20l6 24h20l8 42h24l4 24h136l4 22h88l-4 -22h24l4 22h110l-4 -22h70l4 22h132l110 564h24l4 24h46z" />
<glyph unicode="," d="M800 212h66l-4 -24h24l-4 -22h46l-6 -24h20l-8 -44h24l-48 -248h-24l-10 -46h-20l-2 -20h-24l-6 -24h-22l-4 -22h-24l-4 -24h-20l-4 -20h-24l-4 -22h-22l-6 -24h-24l-4 -22h-42l-4 -24h-24l4 24h-44l8 46h-18l4 22h18l8 44h24l4 22h22l8 44h24l6 24h20l4 22h22l18 90h-22 l4 24h-20l4 22h-24l14 66h-22l8 46h22l14 68h44l4 22h46z" />
<glyph unicode="-" d="M514 756h226l-4 -24h156l4 24h176l-4 -24h24l-4 -20h22l-22 -112h-22l-10 -46h-90l-4 -22h-534l4 22h-24l4 22h-22l28 136h22l4 20h66z" />
<glyph unicode="." d="M776 212h20l-4 -24h90l-4 -22h24l-6 -24h22l-8 -44h24l-8 -46h22l-6 -22h-22l-12 -66h-24l-4 -24h-22l-4 -20h-24l-6 -24h-20l-4 -22h-24l-4 -24h-66l4 24h-66l4 22h-46l6 24h-24l4 20h-22l8 46h-24l8 44h24l18 92h22l4 20h24l6 24h22l4 22h90z" />
<glyph unicode="/" d="M1192 1626h92l-6 -22h20l-4 -24h24l-18 -90h-24l-8 -44h-20l-8 -46h-24l-10 -46h-22l-12 -66h-24l-14 -66h-22l-8 -46h-24l-14 -68h-20l-8 -46h-22l-10 -44h-24l-16 -88h-20l-14 -70h-24l-12 -66h-22l-10 -44h-24l-12 -70h-20l-14 -66h-24l-8 -46h-22l-14 -66h-24 l-14 -70h-22l-8 -44h-24l-16 -88h-20l-10 -46h-24l-8 -44h-22l-18 -90h-20l-14 -70h-24l-12 -66h-22l-18 -90h-24l-18 -92h-20l-4 -20h-24l-4 -24h-68l-4 -22h-24l4 22h-20l4 24h-24l14 66h24l16 90h20l14 66h24l14 70h22l12 66h24l10 46h22l8 44h24l14 70h20l12 66h24 l12 66h22l14 70h24l10 46h20l8 44h22l12 66h24l18 92h20l14 66h24l8 44h22l14 70h24l12 66h22l14 66h24l14 70h20l8 44h24l12 68h22l14 68h24l12 66h20l14 68h24l8 44h22l14 70h20l8 44h24z" />
<glyph unicode="0" d="M1068 848h24l18 90h-24l24 132h-22l18 90h-24l14 70h-22l10 46h-20l8 44h-24l4 22h-22l4 24h-24l4 20h-44l4 22h-46l6 24h-112l-6 -24h-44l-4 -22h-46l-4 -20h-20l-4 -24h-24l-4 -22h-22l-8 -44h-24l-10 -46h-20l-14 -70h-24l-18 -90h-22l-34 -178h-24l-56 -292h24 l-26 -136h22l-18 -90h24l-14 -66h20l-4 -24h24l-8 -46h22l-4 -20h24l-6 -24h20l-4 -22h46l-4 -24h156l4 24h46l4 22h44l6 24h24l4 20h22l4 24h24l4 22h20l14 68h22l8 44h24l18 90h22l40 204h24l4 22h-24zM804 1568h202l-4 -24h90l-6 -22h24l-4 -24h42l-4 -20h24l-4 -24h22 l-4 -22h24l-6 -24h20l-4 -22h24l-4 -20h22l-8 -46h24l-14 -68h20l-8 -46h24l-22 -112h22l-26 -136h24l-76 -382h-24l-26 -136h-22l-12 -66h-24l-14 -66h-20l-4 -24h-24l-8 -46h-22l-10 -44h-24l-4 -22h-20l-4 -24h-24l-8 -44h-46l-6 -22h-22l-4 -24h-20l-4 -22h-24l-4 -20 h-90l-4 -24h-136l4 24h-112l4 20h-44l4 22h-46l4 24h-20l6 22h-46l4 24h-24l4 20h-22l4 24h-22l10 46h-22l8 44h-24l8 46h-22l14 66h-20l12 66h-24l32 160h-22l60 314h22l40 202h24l14 68h20l12 68h22l8 44h24l10 46h22l4 24h22l8 42h22l6 24h24l4 22h22l4 24h24l4 20h20 l4 24h70l6 22h66z" />
<glyph unicode="1" d="M950 1568h88l-4 -24h24l-6 -22h20l-130 -674h-20l-4 -24h20l-22 -112h-20l-4 -22h20l-24 -114h-20l-12 -66h20l-18 -90h-20l-34 -182h20l-10 -44h24l-4 -22h22l-4 -24h336l-4 -20h24l-22 -112h-854l4 20h-46l18 92h24l4 20h42l4 24h24l-4 -24h158l4 24h44l4 22h24l70 360 h-24l18 92h24l52 268h-24l40 202h24l48 250h-24l4 20h-134l-4 -20h-178l8 42h-24l14 70h24l4 20h20l4 24h248l6 22h114z" />
<glyph unicode="2" d="M862 1568h200l-4 -24h68l-6 -22h44l-4 -24h24l-4 -20h22l-4 -24h24l-4 -22h20l-6 -24h24l-4 -22h22l-4 -20h20l-8 -46h24l-14 -68h22l-36 -182h-22l-12 -66h-24l-12 -66h-20l-10 -46h-22l-4 -24h-24l-4 -20h-20l-4 -24h-24l-10 -46h-22l-4 -22h-24l-4 -24h-20l-4 -20h-24 l-10 -46h-22l-4 -20h-24l-4 -24h-22l-4 -22h-24l-10 -46h-20l-4 -22h-24l-4 -22h-22l-4 -24h-20l-4 -22h-24l-6 -24h-22l-4 -20h-24l-4 -24h-20l-4 -22h-24l-4 -22h-22l-10 -44h-24l-8 -46h-22l-4 -24h-24l-10 -44h316l-4 -22h22l4 22h226l6 24h44l4 20h46l-4 -20h46 l-18 -90h-24l-14 -70h-22l-4 -22h-46l-4 -20h-90l4 20h-20l-4 -20h-114l4 20h-178l-4 -20h-24l4 20h-66l-4 -20h-338l4 20h-24l4 22h-22l18 90h22l8 46h24l6 24h22l4 20h24l4 24h20l4 22h24l4 24h22l6 22h20l4 22h24l8 44h22l4 24h24l4 20h20l6 24h24l4 22h22l4 24h24l4 22 h22l4 22h24l10 46h20l4 22h24l4 24h22l4 20h24l6 24h20l8 42h22l4 24h24l4 22h20l10 46h24l4 24h22l8 44h24l10 46h22l12 66h24l12 66h20l42 206h-20l8 44h-24l4 22h-22l4 24h-24l4 20h-22l4 22h-68l6 24h-156l-6 -24h-22l-4 -22h-24l-4 -20h-22l-4 -24h-24l-4 -22h-20 l-22 -114h-24l-10 -46h-22l-4 -20h-24l-4 -24h-86l4 24h-24l4 20h-22l18 92h22l14 68h24l4 22h20l8 44h24l4 22h22l6 24h20l4 22h24l4 24h22l4 20h24l4 24h44l6 22h92z" />
<glyph unicode="3" d="M910 1544h46l-6 -22h110l-4 -24h68l-4 -20h44l-4 -24h46l-4 -22h24l-6 -24h20l-4 -22h24l-8 -44h22l-4 -22h20l-18 -90h24l-40 -202h-24l-12 -70h-20l-10 -44h-22l-4 -22h-24l-4 -24h-20l-4 -20h-24l-10 -46h24l-4 -24h20l-4 -22h24l-4 -24h22l-4 -20h20l-4 -22h24 l-6 -24h22l-8 -44h24l-10 -46h22l-16 -90h24l-26 -134h-24l-14 -68h-22l-12 -66h-24l-10 -46h-22l-8 -44h-24l-4 -24h-20l-6 -22h-22l-4 -24h-24l-4 -22h-20l-4 -20h-46l-4 -24h-68l-4 -22h-68l-6 -24h-336l6 24h-70l4 22h-42l4 24h-44l4 20h-46l4 22h-24l10 46h-22l4 24h22 l4 20h24l4 24h66l-4 -24h46l-4 -20h44l-4 -24h90l-6 -22h224l6 22h68l4 24h46l4 20h22l4 24h24l4 22h20l10 44h24l8 46h22l14 68h24l34 180h-24l14 68h-22l4 22h-24l8 44h-44l6 24h-22l4 22h-46l4 20h-180l4 24h-20l4 22h-24l14 70h24l4 20h132l4 24h68l4 22h46l10 44h22 l8 46h24l10 46h20l30 156h-20l8 46h-24l8 44h-22l6 24h-24l4 22h-22l4 24h-24l4 20h-86l4 22h-24l-4 -22h-90l-4 -20h-22l-4 -24h-24l-4 -22h-22l-8 -44h-24l-10 -46h-20l-4 -24h-24l-4 -22h-112l4 22h-20l16 90h20l14 70h24l4 20h22l10 46h20l4 22h46l4 24h44l4 20h46l4 24 h114z" />
<glyph unicode="4" d="M952 1612h20l-4 -24h70l-4 -20h20l-22 -114h-20l-10 -46h-24l-8 -42h-22l-8 -46h-24l-8 -44h-20l-6 -24h-22l-12 -68h-24l-10 -44h-20l-8 -46h-24l-8 -44h-22l-10 -46h-24l-8 -46h-22l-10 -44h-24l-8 -46h-20l-8 -44h-24l-10 -46h-22l-4 -22h-24l-8 -44h-20l-10 -46h-24 l-4 -20h-22l-8 -46h-20l-14 -68h-24l-4 -22h24l-4 -24h42l-4 -22h406l4 22h66l8 46h24l80 406h22l4 20h24l4 24h66l-4 -24h24l-4 -20h20l-84 -428h22l-4 -24h24l-4 -22h180l-6 -24h22l-8 -44h24l-4 -22h-24l-4 -22h-22l-4 -22h-180l-6 -22h-24l-8 -46h-22l-4 -24h22 l-26 -134h-22l-18 -88h-20l-4 -24h-24l-4 -22h-66l4 22h-46l12 66h-24l4 24h24l14 66h-24l36 182h-630l4 22h-44l8 44h-22l30 158h22l14 68h24l4 24h20l10 44h24l8 42h22l4 24h24l8 46h22l10 46h24l8 44h20l10 46h22l12 66h24l10 46h20l8 44h24l8 46h22l10 44h24l12 68h20 l6 24h24l12 66h22l12 66h24l10 46h22l8 44h24l10 46h20l4 24h24l4 20h22z" />
<glyph unicode="5" d="M1214 1544h66l-6 -22h46l-22 -114h-24l-4 -22h-46l-4 -20h-448l-4 -24h-22l-18 -90h-24l-38 -202h46l-6 -22h292l-4 -24h46l-4 -22h44l-4 -24h24l-4 -20h42l-6 -24h24l-4 -22h22l-4 -24h24l-8 -44h20l-6 -22h24l-8 -46h22l-8 -44h24l-18 -90h22l-4 -22h-22l-14 -68h22 l-4 -22h-22l-26 -136h-24l-8 -44h-22l-10 -46h-24l-4 -22h-20l-14 -68h-24l-4 -22h-22l-4 -24h-24l-8 -44h-20l-6 -22h-46l-4 -24h-20l-4 -22h-46l-4 -20h-46l-4 -24h-90l-4 -22h-336l4 22h-90l4 24h-46l4 20h-22l4 22h-24l14 70h24l4 20h112l-4 -20h90l-4 -24h182l4 24h66 l4 20h44l4 24h46l4 22h44l6 24h22l4 20h24l4 24h22l8 46h24l6 22h20l8 44h24l22 112h22l22 114h-22l18 90h-24l8 42h-20l4 24h-24l8 46h-46l6 22h-22l4 24h-24l4 20h-44l4 24h-248l-4 -24h-134l8 46h-22l54 270h22l60 314h44l4 24h542z" />
<glyph unicode="6" d="M422 396h24l-12 -66h22l-10 -46h24l-8 -46h20l-4 -20h24l-6 -24h22l-4 -22h24l-4 -24h22l-4 -20h66l-4 -24h68l4 24h66l4 20h46l4 24h24l4 22h22l6 24h24l8 44h20l4 22h24l14 68h22l60 314h-22l6 24h-24l8 42h-20l4 24h-24l4 22h-46l4 24h-66l6 22h-114l-6 -22h-66 l-4 -24h-46l-4 -22h-22l-4 -24h-24l-4 -20h-20l-4 -22h-24l-10 -44h-22l-8 -46h-24zM1152 1588h66l-4 -20h44l-22 -114h-44l-4 -22h-112l-6 -24h-90l-4 -22h-46l-4 -20h-24l-4 -24h-44l-4 -22h-22l-6 -24h-20l-2 -20h-24l-10 -46h-22l-4 -24h-24l-4 -22h-22l-10 -44h-24 l-8 -46h-20l-8 -44h-24l-10 -46h-22l-12 -66h-24l-14 -70h70l4 24h20l4 22h70l6 24h46l4 20h66l4 24h156l-4 -24h70l-4 -20h20l-6 -24h46l-4 -22h44l-4 -24h22l-4 -20h24l-4 -24h20l-6 -22h24l-12 -70h22l-4 -20h24l-18 -90h22l-18 -90h-22l-8 -46h22l-4 -22h-22l-26 -134 h-24l-14 -68h-22l-8 -44h-24l-10 -46h-20l-4 -24h-24l-8 -44h-46l-6 -22h-42l-4 -24h-24l-4 -22h-20l-4 -20h-46l-4 -24h-90l-4 -22h-156l4 22h-92l4 24h-44l4 20h-46l4 22h-24l4 24h-20l6 22h-24l8 44h-22l4 24h-24l10 46h-20l8 44h-22l8 46h-24l18 88h-22l22 114h-24 l56 292h24l22 112h22l18 90h24l12 66h22l14 70h20l10 44h24l8 46h22l4 22h24l8 44h20l6 24h24l4 22h22l4 24h24l4 20h20l4 22h24l6 24h22l4 22h46l4 24h24l4 20h66l4 24h44l6 22h46l4 24h136z" />
<glyph unicode="7" d="M410 1522h66l-4 -24h250l4 24h470l-4 -24h24l-4 -20h20l-4 -24h24l-26 -134h-24l-8 -44h-20l-10 -46h-24l-8 -46h-22l-18 -90h-24l-14 -66h-20l-8 -46h-24l-8 -44h-22l-10 -46h-22l-8 -44h-24l-10 -46h-20l-16 -90h-24l-14 -66h-22l-4 -24h-24l-10 -46h-20l-12 -66h-24 l-14 -70h-22l-12 -66h-24l-18 -90h-20l-4 -22h-24l-22 -114h-22l-8 -44h-24l-14 -68h-22l-4 -20h-20l-8 -46h-24l-6 -24h-46l-4 -20h-66l4 20h-24l6 24h-20l20 112h20l10 46h24l8 44h22l14 66h24l8 46h20l14 68h24l8 44h22l8 44h24l14 70h20l8 44h22l14 68h24l8 44h22l14 66 h24l8 46h20l14 70h24l8 44h22l4 22h24l14 68h20l14 68h24l8 44h22l8 46h24l10 44h20l18 92h24l2 20h-24l10 46h-650l4 24h-24l8 42h-20l14 70h20l4 20h46z" />
<glyph unicode="8" d="M380 420h24l-16 -90h22l-10 -46h24l-8 -46h20l-4 -20h24l-6 -24h22l-4 -22h68l-4 -24h66l-4 -20h92l4 20h66l4 24h44l4 22h46l6 24h24l4 20h20l8 46h24l4 24h22l18 88h22l14 68h-22l16 90h-22l10 46h-24l8 46h-20l4 20h-24l6 24h-46l4 22h-44l4 20h-46l4 24h-112l-4 -24 h-90l-4 -20h-44l-4 -22h-22l-6 -24h-24l-4 -20h-20l-8 -46h-24l-10 -46h-22l-12 -68h-24zM1086 1160h24l14 70h-24l18 90h-20l4 22h-24l8 44h-22l4 22h-44l6 24h-46l4 22h-156l-4 -22h-46l-6 -24h-44l-4 -22h-24l-4 -20h-22l-4 -24h-24l-12 -66h-20l-32 -160h20l-10 -46h24 l-2 -20h22l-6 -22h24l-4 -24h20l-4 -22h46l-4 -24h66l-4 -20h90l4 20h46l4 24h44l4 22h46l10 46h24l8 44h20zM834 1588h202l-4 -20h90l-4 -24h44l-6 -22h46l-4 -24h22l-4 -20h24l-8 -46h20l-6 -24h24l-8 -42h22l-8 -46h24l-44 -226h-24l-8 -44h-22l-10 -46h-24l-4 -22h-20 l-4 -24h-24l-4 -20h-22l-6 -24h-22l-4 -22h-24l-8 -44h24l-4 -24h22l-6 -22h46l-4 -24h20l-4 -22h24l-4 -24h22l-4 -20h24l-10 -46h20l-4 -20h24l-8 -46h22l-18 -90h24l-26 -136h-24l-18 -90h-22l-8 -46h-24l-4 -20h-20l-6 -24h-24l-4 -22h-22l-4 -24h-24l-4 -20h-20l-4 -24 h-24l-6 -22h-22l-4 -24h-46l-4 -22h-44l-4 -20h-136l-4 -24h-112l4 24h-156l4 20h-44l4 22h-46l4 24h-24l6 22h-22l4 24h-22l4 20h-22l4 24h-22l10 46h-24l8 44h-20l4 22h-24l22 112h-22l14 68h22l20 112h24l10 46h20l8 44h24l6 24h22l4 22h22l4 20h44l4 24h24l4 22h22l4 24 h24l6 22h44l4 24h-24l4 20h-20l4 24h-24l4 22h-22l6 24h-46l8 44h-22l4 22h-22l12 66h-22l14 70h-24l22 112h24l14 68h22l12 66h22l10 46h22l4 22h22l4 24h24l4 20h46l4 24h20l6 22h70l4 24h66z" />
<glyph unicode="9" d="M484 982h22l-18 -90h24l-4 -24h20l-8 -44h24l-6 -22h22l-4 -24h44l-4 -22h46l-4 -24h156l4 24h46l4 22h24l4 24h20l6 22h46l8 44h24l4 24h20l4 22h22l58 292h-22l8 46h-20l8 44h-24l10 46h-22l4 24h-24l4 20h-44l4 22h-66l6 24h-92l-6 -24h-44l-4 -22h-46l-4 -20h-44 l-4 -24h-22l-4 -22h-24l-8 -44h-20l-6 -24h-24l-26 -136h-22zM820 1568h136l-4 -24h70l-6 -22h66l-4 -24h44l-4 -20h22l-4 -24h46l-4 -22h24l-10 -46h20l-4 -20h24l-8 -46h22l-8 -44h24l-10 -46h20l-22 -114h24l-78 -404h-24l-18 -90h-20l-18 -90h-24l-18 -92h-22l-8 -44 h-24l-8 -44h-20l-4 -22h-24l-10 -46h-22l-4 -22h-24l-8 -44h-22l-6 -24h-20l-4 -22h-24l-4 -24h-22l-4 -20h-24l-4 -24h-20l-6 -22h-46l-4 -24h-44l-4 -22h-46l-4 -20h-46l-4 -24h-66l-4 -22h-90l-6 -24h-44l6 24h-92l8 46h-24l4 20h24l8 46h46l6 22h90l4 24h66l4 20h66 l4 24h46l4 22h46l10 44h24l4 24h44l4 22h22l4 24h24l10 44h20l8 44h24l8 44h22l10 46h24l8 46h20l26 134h-20l-4 -20h-46l-4 -24h-44l-4 -22h-46l-6 -24h-246l6 24h-70l4 22h-44l4 24h-22l4 20h-24l6 24h-22l4 22h-24l4 20h-20l8 46h-24l10 46h-22l8 44h-20l14 70h-24 l48 246h24l12 68h20l14 68h22l8 46h24l4 20h20l10 46h24l4 22h46l4 24h22l4 20h44l4 24h46l6 22h110z" />
<glyph unicode=":" d="M654 184h68l-4 -24h66l-4 -20h46l-8 -46h24l-18 -90h-24l-4 -22h-22l-6 -24h-24l-4 -20h-156l4 20h-20l6 24h-24l12 66h-22l4 22h22l10 46h24l8 44h42zM756 814h136l-6 -24h20l-4 -22h46l-12 -68h24l-6 -22h-24l-12 -66h-22l-4 -24h-44l-4 -22h-136l4 22h-20l4 24h-24 l12 66h-22l6 22h22l12 68h24l4 22h20z" />
<glyph unicode=";" d="M716 208h46q6 4 9 0t3 -8l-4 -16h38q6 -2 14 0t13 0t3 -8q-4 -8 -2 -11t10 -3t10 -2q-4 -14 -2 -20t14 -2q6 2 6 -3t-3 -14t-1 -11q-4 -8 -4 -11t4 -5t7 -2t11 2l-12 -54q-4 -6 -1 -9t6 -4t11 -1h6l-22 -116q4 -12 -10 -11t-18 -3q2 -12 -4 -16t-16 -2q-4 0 -6 -16 t-4 -20q0 -8 -6 -9t-13 0t-7 -5q0 -12 -5 -17t-17 -3q-2 0 -4 -4t-2 -8l-4 -20q2 -8 -4 -11t-12 -1t-12 -2q0 -12 -5 -17t-15 -3q-6 0 -6 -7t-2 -13t-11 -3t-11 0t-5 -11t-3 -10q-8 0 -13 -1t-8 -5t-3 -12q2 -6 -3 -7t-10 0t-9 0t-4 -7q2 -4 0 -8q-2 -6 -24 -6q-8 2 -13 1 t-8 -6t-3 -13q-2 -6 -8 -7t-12 1t-14 0q-2 2 -11 0t-13 0t-4 8q6 8 4 12t-8 4h-12l14 74q-2 6 2 8t9 1t9 0t2 7q-2 8 3 11t7 3h18l4 18q0 2 4 6t10 0q6 -2 8 1t2 9t2 9t8 1q8 -2 12 1t6 9l2 12q2 2 9 2t12 3t3 11q2 6 3 13t3 13t6 6q8 -2 12 0t6 8l2 14q-2 4 2 11t4 13t-6 8 q-4 -2 -8 -2q-10 0 -4 22q-12 0 -18 2t2 14q0 4 -4 5t-9 0t-9 1t0 8q4 8 3 12t-7 4h-14l10 54q4 6 2 9t-6 3h-10q-6 0 -8 2q-2 8 2 11t6 3h18l14 70q0 12 6 18t16 2q4 2 7 14t11 8q6 0 13 -1t14 0t9 5zM812 864h74q10 4 12 0t2 -8l-4 -14h38q14 0 20 -1t0 -13q-4 -6 0 -7 t9 0t7 -1t-2 -10q-6 -8 -2 -10t11 -2t9 -2q-8 -22 14 -18l-28 -150q2 -12 -9 -14t-13 -4q0 -8 -2 -13t-6 -6t-12 1q-4 -2 -6 -6v-8q-2 -4 -4 -7t-8 -1t-8 -1t-2 -8t-2 -8t-6 -3q-8 4 -11 0t-5 -7t-4 -9q2 -4 2 -6h-50q-4 -2 -12 0t-13 0t-5 -8q0 -8 -3 -11t-13 -2t-12 1h-8 q-10 -2 -14 0t0 12q4 6 -1 8t-14 0t-11 0q-14 -6 -10 8t0 14q-8 -2 -12 1t-3 8t5 11h-10q-4 0 -8 1t-4 5t2 10q2 4 4 12t1 13t-7 3q-8 0 -6 16l2 12q6 10 0 13t-18 3l8 38q-2 8 3 12t9 5t12 -1l10 50q-4 6 0 10l5 5t7 2t8 1q2 8 4 13t6 6t12 -1h12q6 0 10 4t4 12q-2 6 1 7 t8 0t9 0t4 7q-2 12 10 14t12 4z" />
<glyph unicode="&#x3c;" d="M428 660l14 6l-6 20l518 336l6 -20l64 30l16 -38l12 8l40 -96l-16 -6l6 -18l-16 -10l6 -20l-120 -64l-10 20l-272 -196l196 -196l18 20l96 -64l-14 -20l12 -10l-14 -18l12 -6l-76 -96l-8 8l-32 -38l-52 30l-14 -20l-386 336l14 20l-14 6z" />
<glyph unicode="=" d="M496 974l-4 -22h382l4 22h136l-4 -22h336l-4 -22h22l-14 -70h-22l-8 -44h-136l-4 -22h-24l4 22h-90l-4 -22h-110l4 22h-92l-4 -22h-90l4 22h-66l-4 -22h-448l4 22h-46l8 44h-24l10 46h24l4 24h22l4 22h136l4 22h90zM498 638l-6 -24h788l-8 -46h22l-14 -66h-22l-4 -24 h-608l-4 -22h-136l4 22h-336l4 24h-22l4 22h-24l10 44h24l4 24h22l4 22h246l6 24h46z" />
<glyph unicode="&#x3e;" d="M1072 564l-14 -6l6 -20l-518 -336l-6 20l-64 -30l-16 38l-12 -8l-40 96l16 6l-6 18l16 10l-6 20l120 64l10 -20l272 196l-196 196l-18 -20l-96 64l14 20l-12 10l14 18l-12 6l76 96l8 -8l32 38l52 -30l14 20l386 -336l-14 -20l14 -6z" />
<glyph unicode="?" d="M904 1540l-4 -22h90l-4 -24h22l-4 -20h44l-6 -24h24l-4 -22h22l-4 -20h24l-4 -24h22l-4 -22h24l-14 -70h20l-34 -180h-20l-14 -66h-24l-8 -46h-22l-10 -44h-24l-4 -22h-22l-4 -24h-24l-4 -20h-20l-4 -24h-24l-4 -22h-22l-6 -24h-20l-8 -46h-24l-4 -20h-22l-4 -22h-24 l-10 -44h-20l-8 -46h-24l-32 -160h-22l-4 -20h-114l4 20h-22l28 136h22l12 70h24l10 44h20l4 22h24l8 44h22l10 46h46l8 46h24l4 20h20l4 24h24l10 46h22l8 44h24l8 46h20l36 178h-20l12 68h-24l10 46h-46l4 22h-202l-4 -22h-24l-4 -24h-20l-10 -46h-22l-34 -180h-24l-4 -20 h-20l-6 -22h-116l6 22h-20l4 20h-24l30 160h24l4 20h20l10 46h24l8 46h22l4 24h24l8 42h46l6 24h44l4 20h22l4 24h66l4 22h180zM624 326l-4 -22h44l-4 -24h46l-10 -44h24l-8 -46h20l-12 -66h-20l-10 -46h-24l-8 -44h-46l-4 -22h-202l4 22h-24l4 24h-20l30 156h20l4 22h24 l10 44h46l4 24h44l4 22h68z" />
<glyph unicode="@" d="M1130 732h24v66h-24v44h-20v24h-22v22h-24v24h-20v22h-70v22h-66v-22h-70v-22h-20v-24h-46v-22h-20v-24h-24v-20h-22v-46h-24v-66h-20v-160h20v-66h24v-46h22v-20h24v-24h20v-22h202v22h46v24h44v42h24v24h22v112h20v136zM706 1586h88v-24h204v-20h66v-24h46v-22h20v-24 h24v-20h46v-22h22v-24h24v-46h20v-20h24v-70h22v-66h24v-136h20v-20h-20v-114h-24v-112h-22v-68h-24v-114h-20v-180h20v-42h46v-24h44v-22h24v-90h-44v-24h-114v24h-46v22h-22v24h-66v-24h-24v-22h-66v-24h-24v-22h-180v22h-66v24h-46v22h-20v24h-24v20h-22v24h-24v22h-22 v44h-24v112h-20v70h20v112h24v90h22v44h24v46h22v22h24v22h20v22h24v24h22v22h66v24h68v20h136v-20h90v-24h88v24h24v20h-24v182h-22v44h-24v22h-20v24h-22v20h-24v24h-44v22h-66v24h-70v22h-178v-22h-90v-24h-46v-22h-44v-24h-24v-20h-22v-24h-24v-22h-20v-24h-22v-20h-24 v-46h-20v-46h-24v-44h-22v-46h-24v-44h-22v-90h-24v-270h-20v-158h20v-134h24v-90h22v-90h24v-46h22v-44h24v-22h20v-46h24v-24h22v-20h20v-24h24v-22h22v-24h44v-20h24v-24h22v-22h46v-24h44v-22h70v-24h494v-86h-24v-24h-92v-22h-176v-24h-46v24h-136v22h-90v24h-66v20 h-46v24h-24v22h-44v20h-22v24h-44v22h-22v24h-24v22h-20v24h-24v20h-22v24h-24v22h-22v44h-24v24h-20v46h-24v66h-22v46h-24v112h-20v134h-24v450h24v90h20v90h24v46h22v66h24v46h20v44h24v24h22v22h24v44h22v24h24v22h20v24h24v22h22v20h44v24h22v22h44v24h70v20h90v24z " />
<glyph unicode="A" d="M630 610h20l-4 -20h338l4 20h46l14 70h-22l8 44h-24l16 88h-22l14 70h-24l14 66h-20l8 46h-22l14 68h-24l8 42h-20l8 46h-24l-4 -22h-46l-8 -44h-20l-14 -68h-24l-8 -44h-22l-18 -90h-24l-8 -46h-22l-14 -68h-24l-8 -44h-20zM980 1488h66l-4 -22h24l-4 -24h22l-8 -42h20 l-14 -70h24l-10 -44h22l-12 -68h24l-14 -68h22l-12 -66h24l-14 -68h20l-12 -68h24l-14 -66h22l-14 -70h24l-8 -44h20l-8 -44h24l-8 -44h22l-18 -90h24l-10 -46h20l-8 -46h22l-18 -90h24l-8 -44h22l-14 -68h24l-8 -44h20l-8 -46h24l-10 -44h46l-4 -24h66l-4 -22h44l-18 -90 h-20l-4 -22h-472l4 22h-70l12 66h24l6 24h90l4 22h66l4 24h24l14 66h-24l12 68h-20l14 68h-24l8 44h-22l4 22h-24l6 24h-312l4 20h-160l-4 -20h-42l-6 -24h-24l-16 -88h-22l-14 -70h-24l-18 -90h24l-4 -20h22l-4 -24h134l-4 -22h22l-14 -66h-22l-4 -24h-246l-4 -22h-226 l4 22h-44l18 90h24l4 22h44l4 24h42l4 20h24l6 24h22l12 66h24l4 24h20l14 68h24l12 66h22l14 68h24l8 46h22l10 46h24l8 44h20l18 90h24l8 44h22l8 44h24l14 70h20l8 44h22l14 68h24l18 90h20l12 66h24l14 68h22l8 46h24l18 90h22l18 88h44l4 24h24z" />
<glyph unicode="B" d="M1088 342h22l22 112h-22l12 66h-24l10 46h-22l4 24h-24l4 20h-20l4 24h-24l4 22h-46l6 24h-44l4 20h-90l4 24h-202l-4 -24h-22l-106 -538h22l-4 -24h68l-4 -22h224l4 22h44l4 24h46l4 20h24l6 24h44l8 46h22l8 44h24zM1108 1038h24l28 136h-24l12 66h-22l4 24h-24l4 22 h-44l6 24h-90l4 20h-158l-4 -20h-44l-10 -46h-22l-74 -382h22l-8 -46h158l4 22h68l4 24h44l4 20h22l4 24h44l6 22h24l8 46h22zM448 1442h650l-4 -22h114l-4 -20h44l-6 -24h22l-4 -22h46l-8 -44h20l-6 -24h24l-8 -46h22l-22 -112h24l-4 -24h-24l-18 -88h-22l-8 -44h-24 l-10 -46h-20l-4 -24h-22l-4 -20h-24l-4 -24h-22l-4 -22h-24l-6 -24h-20l-4 -20h20l-4 -24h24l-4 -22h68l-4 -22h20l-4 -24h46l-4 -20h24l-6 -24h20l-4 -22h24l-8 -44h22l-4 -24h24l-14 -68h20l-40 -202h-20l-8 -44h-24l-8 -46h-22l-10 -44h-24l-4 -24h-20l-4 -22h-24l-6 -24 h-46l-4 -22h-20l-4 -20h-46l-4 -24h-46l-4 -22h-90l-4 -24h-44l4 24h-248l-4 -24h-134l4 24h-268l4 22h-24l12 66h24l6 24h44l4 22h66l4 24h24l4 20h22l66 338h24l32 160h-24l96 494h24l12 66h-24l8 46h-46l6 24h-110l4 20h-24l18 90h24z" />
<glyph unicode="C" d="M782 1466h248l-4 -24h114l-4 -22h202l-4 -20h20l-10 -46h24l-8 -44h-24l-44 -226h24l-10 -46h-24l-4 -22h-20l-4 -22h-92l4 22h-20l10 46h-24l22 112h-22l8 44h-24l4 22h-20l4 24h-24l4 22h-46l6 24h-268l-6 -24h-44l-4 -22h-46l-4 -24h-24l-4 -22h-22l-4 -22h-24 l-10 -46h-20l-4 -22h-24l-8 -44h-22l-14 -68h-20l-18 -90h-24l-38 -202h-22l-14 -68h22l-34 -182h24l-18 -86h20l-14 -70h22l-4 -22h24l-8 -44h20l-4 -24h24l-4 -22h22l-6 -24h46l-4 -20h44l-4 -24h46l-4 -22h202l4 22h44l4 24h46l4 20h24l6 24h20l8 46h24l4 20h22l18 92h24 l12 66h20l6 24h22l4 20h70l-4 -20h44l-58 -292h-24l-4 -24h-20l-4 -22h-24l-6 -24h-46l-4 -22h-22l-4 -20h-44l-4 -24h-46l-4 -22h-90l-4 -24h-90l-4 -20h-132l4 20h-114l4 24h-68l4 22h-44l4 24h-46l4 20h-20l4 22h-24l6 24h-22l4 22h-24l4 24h-20l10 44h-24l4 22h-22l4 24 h-24l12 66h-22l10 46h-24l12 66h-20l22 114h-24l62 314h24l18 90h20l12 68h24l14 68h22l8 44h24l10 46h22l4 22h24l8 44h20l4 24h24l4 22h22l6 24h24l4 20h20l4 24h22l4 22h44l6 24h24l4 20h46l4 22h66z" />
<glyph unicode="D" d="M1168 656h22l18 90h-22l30 156h-24l14 70h-20l12 66h-22l6 24h-24l8 42h-22l4 24h-24l10 46h-44l4 22h-22l4 22h-24l4 22h-20l4 24h-90l4 22h-226l-4 -22h-22l-4 -24h-24l-136 -696h-20l-12 -70h20l-62 -312h24l-4 -24h66l-4 -22h136l4 22h66l4 24h70l4 20h44l6 24h46 l8 46h20l4 20h24l4 24h22l10 46h24l8 46h22l14 66h20l12 66h24zM378 1442h158l-4 -22h248l4 22h44l-4 -22h224l-4 -20h68l-6 -24h46l-4 -22h44l-4 -24h46l-4 -20h22l-6 -24h20l-4 -22h24l-4 -24h22l-4 -22h24l-4 -22h20l-4 -22h24l-10 -46h22l-4 -24h24l-8 -42h20l-14 -68 h24l-18 -92h22l-22 -110h24l-38 -202h-24l-26 -136h-22l-14 -66h-24l-14 -70h-20l-8 -46h-24l-8 -44h-22l-4 -22h-24l-6 -24h-20l-4 -20h-24l-8 -46h-46l-6 -24h-20l-4 -22h-22l-4 -20h-46l-4 -24h-24l-4 -22h-134l-4 -24h-650l4 24h-24l4 22h-22l12 66h46l6 24h66l4 22h44 l4 24h24l166 854h22l22 112h-22l10 46h22l8 44h-22l8 46h-24l4 22h-66l6 24h-90l4 20h-24l14 70h24l4 20h22z" />
<glyph unicode="E" d="M344 1442h1056l-4 -22h24l-14 -66h22l-18 -90h-22l-22 -114h-24l-12 -66h-20l-4 -22h-92l8 42h-24l22 114h-20l8 46h-46l4 22h-134l6 24h-338l-6 -24h-22l-56 -292h-24l-14 -68h24l-12 -68h22l-4 -22h246l8 46h24l8 44h22l14 68h24l4 22h46l-4 -22h20l-8 -46h24l-6 -22 h-24l-78 -406h-66l4 24h-24l10 46h-22l8 44h-24l10 46h-20l4 20h-66l4 24h-160l-8 -44h-22l-6 -24h-24l-86 -450h24l-10 -44h22l-4 -24h406l4 24h90l4 20h42l6 24h24l8 46h22l18 90h24l12 66h22l4 22h68l-4 -22h22l-8 -44h24l-62 -314h-24l-4 -24h-22l-4 -22h-44l-4 -24h-46 l4 24h-946l4 22h-20l4 24h-24l8 42h24l6 24h44l4 22h68l4 24h24l4 20h20l214 1104h-44l6 24h-112l4 20h-24l4 24h-22l14 66h22z" />
<glyph unicode="F" d="M526 1466h42l-4 -24h452l4 24h382l-4 -24h44l-8 -42h22l-40 -204h-22l-32 -158h-24l-4 -22h-66l4 22h-24l6 24h-20l30 156h-24l4 22h-22l4 24h-66l4 22h-90l6 24h-226l4 20h-136l-4 -20h-44l-92 -474h44l-6 -24h158l6 24h90l16 90h24l14 68h44l4 22h22l-4 -22h24l-4 -22 h20l-92 -474h-44l-4 -24h-22l4 24h-24l4 22h-20l14 70h-24l12 66h-22l6 24h-90l4 20h-136l-4 -20h-20l-6 -24h-24l-26 -136h-22l-22 -112h22l-4 -20h-22l-8 -46h22l-26 -136h24l-6 -24h20l-4 -20h70l-4 -24h132l-4 -22h24l-14 -66h-24l-4 -24h-20l-4 -22h-564l4 22h-44 l18 90h24l4 22h44l4 24h112l10 44h24l70 360h20l16 90h-20l36 180h20l22 112h-20l64 338h-24l6 24h-90l4 20h-22l-4 -20h-44l4 20h-46l8 46h-24l6 24h24l8 42h226z" />
<glyph unicode="G" d="M758 1466h292l-4 -24h114l-4 -22h202l-4 -20h22l-10 -46h24l-18 -90h-24l-44 -226h-22l-8 -44h-44l-4 -22h-24l4 22h-46l8 44h-20l22 112h-24l10 46h-22l8 44h-22l4 24h-24l4 22h-44l6 24h-46l4 20h-222l-4 -20h-46l-6 -24h-68l-4 -22h-22l-4 -24h-24l-4 -22h-20l-4 -22 h-24l-4 -22h-22l-10 -46h-24l-8 -44h-22l-10 -46h-24l-8 -44h-20l-22 -112h-22l-66 -338h22l-22 -114h20l-12 -66h24l-4 -22h22l-10 -46h24l-8 -44h22l-4 -24h44l-4 -22h24l-6 -24h22l-4 -20h68l-4 -24h46l-4 -22h202l4 22h44l4 24h46l4 20h44l6 24h22l42 224h-22l6 24h-24 l4 20h-180l4 24h-20l18 92h44l4 20h472l-4 -20h22l-18 -92h-22l-4 -24h-44l-4 -20h-46l-66 -338h-24l-6 -24h-110l-4 -22h-46l-4 -20h-46l-4 -24h-44l-4 -22h-66l-4 -24h-70l-4 -20h-112l4 20h-134l4 24h-46l4 22h-66l4 24h-46l4 20h-24l4 22h-20l6 24h-22l4 22h-24l4 24 h-20l4 20h-24l10 46h-22l8 44h-24l4 24h-20l10 46h-24l16 88h-22l32 160h-24l42 222h24l28 136h22l22 114h24l8 42h20l8 46h24l10 46h22l8 44h24l4 24h20l4 22h24l6 24h22l4 20h20l4 24h46l4 22h24l6 24h46l4 20h44l4 22h66z" />
<glyph unicode="H" d="M306 1420h362l-4 -20h66l-6 -24h24l-18 -90h-70l-4 -22h-44l-44 -226h-22l-38 -202h22l-6 -24h24l-4 -20h448l4 20h44l14 70h22l14 66h-22l60 316h-90l4 22h-90l10 44h-20l4 24h20l10 46h70l4 20h178l-4 -20h224l-6 -24h24l-18 -90h-68l-4 -22h-46l-8 -46h-20l-210 -1080 h20l-4 -22h90l-6 -24h46l-4 -22h22l-16 -90h-68l-4 -20h-312l4 20h-70l4 24h-20l12 66h20l4 22h46l6 24h24l4 22h20l74 382h22l14 70h-22l8 44h-382l4 22h-90l-4 -22h-44l-8 -44h-22l-88 -452h22l-4 -22h44l-6 -24h90l-4 -22h24l-16 -90h-90l-4 -20h-180l4 20h-66l-4 -20 h-92l4 20h-44l8 46h-24l4 24h24l8 42h44l6 24h68l52 272h24l8 42h-24l96 496h24l6 22h-24l38 202h24l14 68h-24l8 46h-46l4 22h-112l6 24h-24l12 66h24l6 24h22z" />
<glyph unicode="I" d="M1098 1466h20l-4 -24h156l-4 -22h24l-4 -20h22l-6 -24h-22l-12 -66h-114l-6 -24h-202l-4 -22h-20l-70 -362h-24l-12 -66h24l-128 -654h20l-4 -20h46l-4 -24h316l-4 -22h22l-6 -24h24l-12 -66h-46l-4 -22h-834l4 22h-20l4 24h-22l14 66h22l4 22h44l4 24h112l-4 -24h68 l4 24h46l10 44h22l174 898h24l18 92h-24l12 68h-22l4 22h-180l6 24h-158l4 20h-24l14 70h24l8 42h676z" />
<glyph unicode="J" d="M750 1442h652l-4 -22h22l-4 -20h24l-6 -24h-24l-8 -46h-22l-4 -20h-44l-6 -24h-24l6 24h-92l-6 -24h-20l-4 -22h-24l-52 -270h24l-18 -92h-24l-4 -20h24l-122 -630h-24l-14 -70h-22l-12 -66h-20l-6 -24h-24l-4 -22h-22l-4 -20h-24l-4 -24h-44l-4 -22h-92l-4 -24h-90 l-4 -20h-20l4 20h-202l4 24h-90l4 22h-66l4 24h-46l4 20h-70l4 22h-20l6 24h-24l18 90h-22l30 158h22l4 24h68l4 20h22l-4 -20h46l-4 -24h24l-10 -46h20l-8 -46h22l-8 -44h24l-4 -22h20l-6 -24h24l-4 -20h46l-4 -24h202l-4 -22h20l4 22h70l4 24h44l4 20h22l6 24h24l8 46h22 l196 1012h-46l4 22h-66l6 24h-180l4 20h-22l14 70h22z" />
<glyph unicode="K" d="M354 1466h22l-4 -24h114l4 24h20l-4 -24h248l-4 -22h24l-14 -66h-24l-4 -24h-90l-4 -20h-22l-10 -46h-24l-26 -136h24l-4 -24h-24l-8 -42h24l-18 -90h-24l-18 -90h24l-8 -46h22l-10 -44h24l4 20h44l6 24h22l4 22h24l4 24h20l4 20h24l4 24h22l6 22h20l4 24h24l4 22h22 l4 22h24l4 22h22l10 46h24l4 20h20l8 46h24l6 24h22l4 22h24l8 44h20l4 24h-20l10 46h-46l4 20h-44l18 90h20l4 22h70l4 24h20l-4 -24h136l4 24h156l-4 -24h70l-8 -42h20l-10 -46h-20l-4 -24h-24l-4 -20h-66l-6 -24h-46l-4 -22h-24l-4 -24h-20l-4 -22h-24l-4 -22h-22l-4 -22 h-24l-6 -24h-22l-8 -46h-20l-4 -20h-24l-4 -22h-22l-6 -24h-24l-4 -22h-20l-4 -22h-24l-4 -22h-22l-4 -24h-24l-10 -46h-20l-4 -20h-24l-4 -24h-22l-4 -22h-46l-18 -90h22l-4 -22h24l-8 -44h22l-6 -24h24l-4 -22h20l-4 -24h24l-4 -20h22l-4 -24h24l-6 -22h20l-4 -24h24 l-8 -46h22l-4 -20h24l-6 -24h20l-8 -42h22l-4 -24h24l-4 -22h22l-6 -24h24l-4 -22h20l-4 -24h24l-8 -44h22l-4 -22h24l-6 -24h20l-4 -20h90l-4 -24h92l-4 -22h20l-6 -24h24l-12 -66h-24l-4 -22h-44l-4 -24h-44l4 24h-204l4 22h-44l4 24h-22l4 20h-24l4 22h-22l10 46h-20 l4 24h-24l10 44h-22l4 22h-24l8 44h-20l4 24h-24l4 22h-22l6 24h-24l4 22h-20l8 44h-24l4 22h-22l6 24h-24l8 44h-22l4 22h-24l4 24h-20l6 22h-22l4 24h-24l4 20h-20l4 24h-46l4 22h-44l-4 -22h-46l-70 -362h-24l-4 -20h24l-14 -70h22l-4 -20h44l-4 -24h90l-4 -22h24l-6 -24 h22l-12 -66h-46l-4 -22h-292l4 22h-20l-4 -22h-136l4 22h-24l8 44h-22l4 22h22l6 24h24l4 22h46l4 24h44l4 20h22l214 1104h-22l6 24h-136l4 20h-24l8 46h-20l6 24h20l8 42h70z" />
<glyph unicode="L" d="M388 1466h584l-4 -24h46l-8 -42h20l-6 -24h-20l-4 -22h-24l-4 -24h-46l-4 -20h-112l-6 -24h-20l-4 -22h-24l-22 -114h24l-12 -66h-24l-14 -68h24l-18 -90h-24l-138 -720h24l-10 -44h44l-4 -24h248l4 24h178l4 20h68l6 24h46l20 112h20l28 136h24l4 20h112l-4 -20h24 l-62 -316h22l-14 -68h-22l-12 -66h-46l-4 -24h-158l4 24h-922l4 22h-44l8 44h-22l4 22h22l6 24h24l4 22h20l4 24h136l4 20h20l184 946h24l26 136h-24l4 22h-20l6 24h-202l4 20h-46l22 112h46z" />
<glyph unicode="M" d="M210 1488h226l-4 -22h66l-4 -24h20l-4 -22h24l-10 -44h22l-8 -46h24l-10 -44h22l-12 -68h24l-8 -44h20l-10 -46h24l-8 -44h22l-10 -46h24l-8 -44h20l-8 -46h24l-10 -46h22l-12 -66h20l-6 -24h24l-8 -44h68l8 44h24l6 24h20l12 66h24l10 46h22l12 68h24l10 46h20l8 42h24 l8 46h22l14 68h24l12 68h20l14 68h22l4 22h24l10 44h22l8 46h360l-4 -24h46l-22 -112h-24l4 24h-46l-4 -24h-44l-4 -20h-88l-10 -46h-24l-4 -24h24l-44 -224h-24l-12 -68h24l-22 -112h-24l-40 -202h24l-18 -90h-24l-4 -24h24l-12 -66h-24l-22 -112h24l-10 -46h-24l-8 -44h24 l-8 -46h20l-6 -24h68l-4 -20h68l-4 -24h22l-4 -22h24l-14 -66h-24l-4 -24h-90l-4 -22h-68l4 22h-336l4 24h-22l4 20h-24l4 22h24l10 46h22l4 24h66l4 20h46l6 24h24l86 450h20l62 316h-20l30 156h-24l-8 -44h-22l-4 -22h-24l-10 -46h-22l-8 -44h-20l-10 -46h-24l-4 -24h-22 l-12 -66h-24l-14 -68h-20l-4 -22h-24l-8 -46h-22l-10 -44h-24l-8 -46h-20l-4 -20h-24l-10 -46h-22l-4 -24h-46l4 24h-24l6 22h-20l4 24h-22l8 44h-24l4 22h-20l14 68h-24l8 44h-22l8 44h-24l10 46h-20l8 44h-24l10 46h-22l8 46h-24l8 44h-22l10 46h-68l-32 -158h-22l-12 -68 h22l-4 -22h-22l-52 -270h22l-54 -270h24l-12 -68h20l-4 -22h24l-6 -24h92l-4 -20h44l-14 -70h22l-4 -22h-22l-4 -20h-24l-4 -24h-448l4 24h-24l18 88h24l4 24h20l4 20h46l6 24h24l4 22h22l70 362h24l140 720h-24l4 20h-46l4 24h-112l14 66h-24l4 22h24l4 24h46z" />
<glyph unicode="N" d="M294 1466h136l-4 -24h202l-4 -22h24l-10 -44h20l-8 -46h24l-10 -44h22l-4 -22h24l-12 -68h20l-10 -46h22l-4 -22h24l-8 -44h20l-10 -46h24l-8 -44h22l-8 -46h24l-6 -22h22l-4 -24h24l-8 -44h20l-10 -46h24l-8 -44h22l-4 -22h24l-8 -46h20l-4 -20h24l-10 -46h22l-8 -44h20 l-4 -24h24l-6 -22h22l-8 -46h46l-4 -24h24l108 564h-24l36 180h-22l8 46h-24l4 22h-88l6 24h-44l4 20h-46l18 90h22l4 22h472l-4 -22h22l-18 -90h-22l-4 -20h-46l-6 -24h-44l-20 -112h-22l-14 -70h22l-22 -110h-22l-88 -450h22l-100 -518h-22l-4 -22h-44l-4 -24h-70l4 24 h-20l4 22h-24l4 24h-22l8 42h-24l10 46h-22l8 44h-24l10 46h-20l8 44h-22l8 46h-24l14 70h-20l4 20h-24l14 66h-22l4 24h-24l8 46h-20l6 22h-24l8 44h-22l8 46h-24l10 44h-22l4 24h-24l8 44h-20l8 44h-24l10 46h-22l4 24h-20l8 44h-24l10 46h-22l8 44h-24l4 22h-20l10 46 h-46l4 20h-24l-8 -42h-22l-118 -608h22l-40 -202h24l-8 -46h22l-6 -24h68l-4 -20h88l-4 -24h24l-4 -22h20l-18 -90h-132l-4 -22h-360l4 22h-46l8 44h-22l4 22h22l6 24h24l4 22h22l4 24h24l4 20h20l6 24h46l208 1080h-22l6 24h-114l4 20h-22l22 112h22z" />
<glyph unicode="O" d="M1098 656h24l40 202h-24l26 136h-20l18 90h-24l4 20h-22l8 46h-24l10 46h-22l8 44h-20l4 24h-46l4 22h-44l6 24h-46l4 20h-68l4 24h-92l-4 -24h-66l-4 -20h-66l-6 -24h-24l-4 -22h-20l-4 -24h-24l-8 -44h-22l-10 -46h-24l-8 -46h-22l-14 -66h-24l-16 -90h-20l-80 -404h20 l-16 -90h24l-14 -66h22l-8 -46h24l-10 -46h22l-4 -24h24l-4 -20h20l-4 -24h24l-4 -22h46l-6 -24h44l-4 -20h66l-4 -24h68l4 24h90l4 20h44l6 24h46l4 22h24l4 24h20l8 44h22l4 22h24l10 46h22l8 44h24l18 90h20zM836 1512h70l-4 -24h136l-4 -22h90l-4 -24h42l-4 -22h24 l-4 -20h22l-6 -24h44l-4 -22h24l-8 -44h22l-6 -24h24l-4 -22h20l-4 -24h24l-8 -44h22l-14 -68h24l-8 -44h20l-18 -90h24l-22 -112h22l-52 -272h-22l-22 -112h-24l-22 -110h-20l-8 -46h-24l-10 -46h-22l-8 -44h-24l-8 -46h-20l-6 -24h-46l-4 -20h-24l-4 -24h-20l-4 -22h-24 l-6 -24h-22l-4 -22h-46l-4 -20h-44l-4 -24h-136l-4 -22h-202l4 22h-90l4 24h-44l4 20h-46l4 22h-46l6 24h-20l4 22h-24l8 44h-22l6 24h-20l4 22h-24l8 44h-22l4 24h-24l14 68h-20l12 66h-24l18 90h-22l74 382h22l32 160h24l8 42h20l14 70h24l4 22h22l12 68h24l4 22h20l6 24 h22l8 44h44l4 22h24l6 24h46l4 20h22l4 22h44l4 24h90l4 22h66z" />
<glyph unicode="P" d="M1142 952h22l40 208h-22l10 48h-24l4 22h-22l4 24h-22l6 22h-26l4 26h-46l4 22h-48l6 24h-94l-6 -24h-22l6 24h-162l-6 -24h-24l-104 -538h24l-4 -22h232l4 22h94l4 24h46l4 22h48l10 48h22l4 24h24zM358 1486h794l-4 -22h116l-6 -24h24l-4 -22h48l-4 -22h22l-4 -26h24 l-4 -22h22l-10 -46h26l-4 -26h22l-10 -46h24l-54 -278h-24l-10 -48h-22l-8 -46h-26l-10 -48h-22l-4 -24h-24l-4 -22h-22l-6 -26h-48l-4 -22h-46l-4 -22h-46l-4 -24h-94l-6 -22h-70l-4 -26h-280l-14 -68h-22l-68 -350h22l-8 -48h46l-6 -24h162l-4 -22h48l-4 -26h24l-14 -68 h-24l-4 -22h-70l-6 -26h-162l6 26h-72l-6 -26h-324l6 26h-26l18 90h26l4 26h22l4 22h116l6 24h24l4 22h22l214 1098h-22l8 48h-46l6 24h-116l-6 -24h-48l10 46h-24l12 70h24l6 24h22z" />
<glyph unicode="Q" d="M1078 530h24l76 396h-24l14 72h-22l14 70h-24l14 68h-22l8 46h-26l6 26h-22l8 46h-46l6 22h-70l4 26h-46l4 22h-26l6 24h-162l-6 -24h-46l-4 -22h-48l-4 -26h-46l-6 -22h-22l-4 -24h-26l-10 -48h-22l-4 -22h-24l-14 -70h-22l-8 -44h-24l-18 -94h-22l-86 -446h22l-18 -92 h24l-10 -48h22l-8 -46h24l-10 -48h22l-4 -22h26l-6 -24h22l-4 -22h24l-4 -26h22l-4 -22h48l-6 -24h68l-4 -22h166l4 22h68l6 24h26l4 22h22l4 26h46l10 46h22l4 22h26l10 48h22l12 68h24l18 94h22zM776 1486h210l-4 -22h116l-6 -24h46l-4 -22h48l-4 -22h22l-4 -26h24l-4 -22 h46l-6 -24h22l-8 -48h26l-6 -22h22l-8 -46h24l-10 -48h22l-8 -46h26l-14 -68h22l-14 -72h24l-82 -420h-24l-22 -118h-22l-14 -70h-26l-8 -46h-22l-10 -48h-24l-4 -22h-22l-6 -24h-26l-8 -48h-22l-4 -22h-24l-6 -24h-46l-4 -22h-22l-8 -48h-48l-6 -24h-22l-14 -70h22l-4 -22 h22l-4 -24h26l-4 -22h22l-6 -24h24l-8 -48h22l-4 -22h24l-6 -24h22l-4 -22h26l-4 -26h22l-4 -22h72l4 22h46l-4 -22h44l-24 -116h-44l-4 -24h-72l-4 -22h-46l-6 -26h-48l-4 -22h-68l4 22h-24l10 48h-22l8 46h-26l10 48h-22l4 22h-22l10 46h-24l4 26h-22l10 46h-26l8 48h-46 l10 46h-48l8 46h-46l4 22h-46l6 26h-164l4 22h-46l4 22h-22l6 24h-48l4 22h-24l4 26h-46l4 22h-22l10 46h-26l4 26h-22l4 22h-22l10 46h-24l10 48h-22l8 46h-26l14 70h-22l18 94h-24l86 444h24l18 94h22l14 68h26l8 46h22l6 26h24l8 46h22l6 22h22l4 26h26l4 22h22l6 24h24 l4 22h22l4 26h24l4 22h22l4 22h72l6 24h94z" />
<glyph unicode="R" d="M1096 998h22l32 162h-22l14 70h-22l4 24h-24l6 22h-48l4 26h-22l4 22h-94l6 24h-234l-6 -24h-22l-8 -48h-24l-88 -444h24l-4 -22h326l4 22h46l6 26h26l4 22h22l4 24h24l4 22h22zM376 1486h138l-4 -22h46l4 22h72l-4 -22h210l4 22h94l-4 -22h234l-6 -24h68l-4 -22h22 l-4 -22h26l-4 -26h22l-4 -22h24l-6 -24h22l-4 -22h26l-10 -48h22l-18 -94h24l-32 -162h-24l-14 -72h-22l-8 -46h-26l-4 -22h-22l-10 -48h-46l-4 -24h-26l-4 -22h-46l-6 -26h-44l-4 -22h-46l-4 -22h-48l-10 -46h22l-4 -26h48l-4 -22h24l-6 -24h22l-4 -22h22l-4 -24h24l-4 -24 h22l-10 -46h26l-4 -24h22l-4 -22h24l-10 -48h22l-8 -46h26l-6 -22h22l-8 -48h24l-10 -46h22l-8 -48h48l-6 -24h46l-4 -22h116l-4 -26h24l-14 -68h-24l-10 -48h-304l6 26h-22l4 22h-24l4 22h-22l10 46h-26l4 26h-22l10 46h-24l4 22h-22l8 48h-22l10 46h-24l10 48h-22l8 46 h-26l10 48h-22l8 46h-24l10 46h-48l4 24h-22l8 46h-24l6 24h-22l4 22h-48l4 26h-24l6 22h-138l-6 -22h-24l-94 -492h24l-6 -24h48l-4 -22h136l-4 -26h48l-14 -68h-22l-4 -22h-538l4 22h-22l14 68h22l4 26h26l4 22h68l6 24h46l222 1146h-24l4 22h-22l6 24h-46l-6 -24h-22 l6 24h-72l4 22h-22l12 70h22l6 24h24z" />
<glyph unicode="S" d="M808 1512h328l-4 -26h210l-4 -22h22l-14 -68h26l-4 -26h-26l-14 -68h26l-10 -48h-26l-4 -24h26l-18 -94h-26l-10 -46h-22l-4 -22h-46l-4 -22h-26l4 22h-46l10 46h-22l22 116h-26l4 24h-22l10 48h-46l4 22h-22l6 24h-94l4 22h-188l-4 -22h-68l-6 -24h-24l-4 -22h-22 l-4 -26h-26l-6 -22h-22l-8 -46h-24l-32 -162h24l-10 -48h22l-8 -46h26l-6 -26h22l-4 -22h70l-4 -24h70l-4 -22h46l-6 -26h94l-4 -22h116l-4 -24h46l-4 -22h48l-6 -26h46l-4 -22h22l-4 -22h26l-4 -24h22l-6 -22h24l-4 -26h22l-4 -22h26l-14 -70h22l-14 -70h24l-26 -140h-24 l-14 -70h-22l-10 -46h-26l-8 -48h-22l-6 -24h-24l-4 -22h-22l-4 -26h-26l-4 -22h-22l-6 -24h-46l-4 -22h-48l-4 -22h-68l-6 -26h-396l6 26h-120l-6 -26h-94l6 26h-44l8 44h-24l64 328h24l10 48h22l4 22h94l-10 -48h22l-12 -68h26l-14 -70h22l-10 -46h24l-4 -26h22l-4 -22h48 l-6 -24h46l-4 -22h282l4 22h46l6 24h46l4 22h22l4 26h22l4 22h26l6 24h22l18 94h24l14 70h-24l12 68h-22l10 48h-26l4 24h-22l4 22h-22l6 24h-46l4 22h-72l4 26h-68l6 22h-72l4 24h-116l4 22h-68l4 22h-48l6 26h-24l4 22h-48l4 24h-46l4 22h-22l10 48h-26l4 24h-22l10 48 h-22l14 68h-24l18 94h24l18 94h22l8 46h22l10 48h26l10 46h22l4 22h46l4 26h26l4 22h22l4 22h46l6 24h72l4 22h68z" />
<glyph unicode="T" d="M218 1464h1140l-6 -24h26l-8 -44h22l-68 -350h-22l-10 -48h-116l10 48h-26l40 208h-22l6 22h-24l4 26h-68l4 22h-164l-4 -22h-72l-4 -26h-22l-88 -444h22l-8 -46h-22l-22 -116h22l-10 -48h-22l-50 -256h22l-22 -116h-22l-10 -46h22l-8 -48h48l-6 -24h68l-4 -22h166 l-4 -26h22l-4 -22h24l-10 -46h-24l-10 -48h-116l-4 -22h-24l4 22h-630l24 116h22l4 26h72l4 22h94l6 24h70l4 22h22l214 1098h-22l4 26h-94l4 22h-94l-4 -22h-70l-4 -26h-24l-6 -22h-22l-4 -24h-24l-28 -140h-22l-18 -92h-48l-4 -24h-68l10 46h-26l36 188h-22l18 94h22 l26 138h26z" />
<glyph unicode="U" d="M188 1486h232l-4 -22h140l4 22h24l-4 -22h70l-6 -24h22l-4 -22h-22l-8 -48h-22l-4 -22h-94l-6 -24h-24l-14 -70h-22l-94 -490h22l-100 -514h24l-6 -24h22l-4 -22h24l-4 -26h22l-4 -22h48l-6 -24h46l-4 -22h188l4 22h94l6 24h44l4 22h24l4 26h22l4 22h26l10 46h22l40 210 h24l6 24h-24l144 748h-22l14 70h-48l6 24h-68l4 22h-24l4 26h-24l8 44h24l6 24h442l-6 -24h22l-16 -92h-46l-6 -24h-68l-8 -48h-22l-20 -94h-26l-176 -910h-22l-14 -68h-24l-8 -48h-22l-10 -46h-26l-4 -26h-22l-4 -22h-46l-6 -24h-26l-4 -22h-68l-4 -22h-46l-6 -26h-374 l6 26h-46l4 22h-46l4 22h-48l6 24h-24l4 22h-22l8 48h-26l10 46h-22l14 72h-24l204 1052h-22l4 22h-22l6 24h-94l4 22h-46l18 94h46z" />
<glyph unicode="V" d="M332 1512h186l-4 -26h120l-10 -46h22l-4 -22h-22l-8 -48h-120l-4 -22h-46l-10 -46h-22l-4 -26h22l-24 -116h24l-14 -70h22l-18 -92h26l-14 -72h22l-12 -68h24l-10 -48h22l-18 -94h26l-14 -68h22l-18 -94h22l-8 -48h24l-14 -70h22l-14 -70h24l-14 -68h24l-4 -26h24l-4 -22 h22l8 48h24l10 46h22l14 70h26l12 68h22l18 94h24l10 46h22l18 94h26l18 94h22l18 94h22l14 70h24l18 94h22l22 114h26l28 142h-26l6 24h-116l4 22h-22l18 94h22l4 22h444l-4 -22h22l-22 -116h-22l-6 -24h-46l-4 -22h-48l-10 -48h-22l-14 -72h-24l-12 -68h-22l-14 -68h-26 l-14 -72h-22l-14 -70h-24l-14 -72h-22l-12 -68h-24l-14 -70h-22l-18 -94h-26l-14 -70h-22l-14 -70h-24l-14 -72h-22l-18 -90h-22l-14 -72h-26l-12 -70h-22l-14 -72h-24l-10 -46h-22l-4 -22h-26l-4 -22h-22l-6 -26h-118l6 26h-22l8 44h-24l14 72h-22l10 46h-22l12 70h-26 l10 46h-22l18 94h-24l10 48h-22l12 68h-26l14 72h-22l14 68h-24l14 72h-22l8 44h-26l14 72h-22l14 70h-24l14 72h-22l14 68h-24l12 70h-22l14 70h-22l14 70h-26l10 46h-22l4 26h-24l4 22h-48l6 24h-22l4 22h-24l4 26h-22l14 68h22l4 22h210z" />
<glyph unicode="W" d="M62 1486h282l-4 -22h22l4 22h46l-4 -22h120l-6 -24h22l-12 -70h-116l-4 -22h-72l-10 -46h-22l-4 -26h22l-38 -186h24l-50 -258h22l-36 -184h26l-40 -212h22l-14 -70h24l-4 -22h22l4 22h26l10 48h22l8 46h24l14 70h22l14 70h22l18 94h24l8 44h22l10 48h26l14 72h22l8 46 h94l-4 -24h24l-4 -22h22l-14 -72h26l-10 -48h22l-12 -68h24l-10 -48h22l-18 -92h22l-10 -48h24l-8 -46h22l-4 -22h26l-6 -26h22l6 26h24l8 46h22l42 210h26l36 188h22l82 418h-22l4 26h-26l4 22h-22l6 24h-118l4 22h-22l12 70h22l6 24h166l4 22h396l-22 -116h-72l-4 -22h-46 l-6 -24h-48l-14 -70h-22l-32 -164h-24l-22 -116h-22l-46 -236h-22l-22 -116h-24l-32 -162h-22l-40 -210h-26l-24 -118h-22l-12 -70h-24l-10 -46h-22l-10 -48h-120l6 26h-22l4 22h-24l14 68h-22l14 72h-22l8 48h-24l14 68h-22l14 72h-26l14 70h-22l12 68h-24l10 48h-22l4 24 h-72l-8 -48h-22l-14 -70h-26l-10 -48h-22l-12 -68h-24l-14 -70h-22l-18 -94h-22l-18 -94h-24l-10 -46h-22l-4 -22h-26l-6 -26h-94l6 26h-22l4 22h-24l14 68h-22l22 120h-26l24 116h-22l26 140h-24l42 210h-22l22 116h-22l36 188h-24l32 162h-22l28 140h-26l4 26h-22l4 22 h-46l6 24h-94l22 116h68z" />
<glyph unicode="X" d="M302 1512h256l-4 -26h210l-4 -22h24l-6 -24h22l-8 -44h-22l-4 -26h-68l-4 -22h-46l-14 -72h22l-14 -68h24l-6 -26h22l-8 -46h22l-10 -46h24l-4 -22h22l-8 -48h26l-6 -22h22l-8 -46h24l-6 -26h70l6 26h24l4 22h22l4 24h26l10 48h22l8 44h24l6 24h22l12 68h22l10 48h24 l24 118h-68l4 22h-46l18 94h22l4 22h350l4 26h46l-4 -26h68l-4 -22h26l-18 -94h-26l-4 -22h-22l-6 -24h-92l-4 -22h-22l-4 -26h-26l-6 -22h-22l-4 -24h-24l-10 -48h-22l-4 -22h-26l-8 -46h-22l-6 -24h-24l-8 -44h-22l-4 -26h-26l-10 -46h-22l-4 -22h-24l-10 -48h-22l-4 -24 h-22l-10 -48h-24l-8 -46h-22l-4 -22h22l-10 -48h24l-8 -46h22l-10 -48h22l-4 -22h24l-10 -46h22l-4 -24h26l-4 -24h22l-10 -46h24l-8 -46h22l-6 -26h26l-8 -44h22l-4 -24h24l-10 -48h22l-10 -46h26l-4 -22h22l-8 -48h46l-6 -24h116l-4 -22h24l-8 -48h22l-10 -46h-46l-4 -22 h-420l4 22h-46l4 22h-22l18 94h44l6 24h46l18 94h-22l14 70h-24l4 24h-22l14 70h-22l4 22h-24l4 24h-22l10 46h-26l4 24h-22l4 24h-24l10 46h-48l4 22h-22l-4 -22h-24l-10 -46h-22l-4 -24h-26l-10 -48h-22l-8 -46h-24l-10 -48h-22l-4 -22h-22l-8 -46h-24l-10 -48h-22 l-10 -46h-26l-12 -70h72l-6 -24h68l-18 -94h-24l-4 -22h-44l-4 -22h-422l4 22h-22l4 22h-24l18 94h46l6 24h94l4 22h22l4 26h24l4 22h22l6 24h26l8 48h22l6 22h24l8 46h22l10 48h26l4 22h22l8 46h24l6 24h22l4 24h26l8 46h22l6 24h24l4 22h22l14 72h22l4 22h24l18 94h-24 l14 70h-22l4 24h-22l10 48h-24l4 22h-22l4 24h-26l10 48h-22l4 22h-24l10 46h-22l8 46h-26l4 22h-22l10 48h-24l10 46h-22l4 26h-26l4 22h-22l6 24h-92l4 22h-48z" />
<glyph unicode="Y" d="M170 1512h162l-4 -26h70l4 26h118l-4 -26h116l-10 -46h24l-4 -22h-24l-4 -22h-22l-4 -26h-94l-4 -22h-24l-10 -46h24l-10 -48h22l-8 -46h24l-10 -48h22l-4 -24h26l-10 -46h22l-4 -22h24l-8 -48h22l-10 -46h22l-10 -48h26l-4 -22h22l-4 -24h24l-10 -48h70l10 48h24l4 24 h22l4 22h24l10 48h24l10 46h24l8 48h22l10 46h24l8 46h22l4 22h22l20 94h26l4 26h-26l10 46h-68l4 22h-46l4 26h-24l14 68h24l4 22h350l4 26h70l-4 -26h44l-18 -90h-22l-4 -26h-22l-4 -22h-70l-10 -46h-22l-4 -26h-26l-6 -22h-22l-8 -46h-24l-10 -48h-22l-8 -46h-26l-6 -24 h-22l-4 -22h-24l-14 -70h-22l-4 -24h-26l-10 -48h-22l-4 -22h-22l-8 -46h-24l-10 -48h-22l-4 -24h-24l-10 -48h-24l-8 -44h-24l-14 -72h-22l-14 -68h22l-68 -350h24l-8 -48h210l-6 -24h48l-4 -22h22l-8 -48h-22l-10 -46h-72l-4 -22h-48l4 22h-162l-4 -22h-188l4 22h-208 l10 46h-22l4 22h22l8 48h46l6 24h118l4 22h22l4 26h22l86 444h-22l10 46h-22l4 22h-24l14 70h-22l4 24h-26l4 22h-22l10 48h-24l4 24h-22l10 48h-24l8 46h-22l6 22h-26l8 48h-22l10 46h-24l4 22h-22l8 46h-26l6 26h-22l8 46h-22l6 22h-24l8 48h-22l6 24h-94l4 22h-46l22 116 h46z" />
<glyph unicode="Z" d="M492 1512h234l-4 -26h628l-4 -22h48l-6 -24h24l-22 -116h-24l-8 -48h-22l-6 -22h-26l-8 -46h-22l-6 -26h-24l-4 -22h-22l-4 -24h-24l-10 -46h-22l-4 -22h-26l-4 -22h-22l-10 -48h-24l-4 -24h-22l-4 -22h-22l-10 -48h-26l-4 -24h-22l-10 -48h-24l-4 -22h-22l-4 -24h-26 l-10 -48h-22l-4 -22h-24l-4 -22h-22l-10 -46h-24l-4 -26h-22l-4 -22h-26l-10 -46h-22l-4 -24h-24l-10 -48h-22l-8 -46h-22l-4 -22h-26l-6 -26h-22l-8 -44h-24l-4 -24h-22l-10 -48h-26l-4 -22h-22l-10 -46h-24l-8 -48h46l-6 -24h398l6 24h140l4 22h48l4 26h22l4 22h24l6 24 h22l8 48h24l14 68h22l10 48h120l-10 -48h22l-32 -162h-22l-26 -142h-26l-14 -68h-22l-6 -26h-186l6 26h-700l-6 -26h-94l6 26h-48l4 22h-22l32 162h22l8 48h26l6 24h22l4 22h22l10 48h24l4 24h22l8 44h26l6 26h22l4 22h24l8 46h22l6 24h24l4 24h22l8 46h26l6 24h22l4 22h24 l10 48h22l4 24h26l4 22h22l10 48h22l4 22h24l4 24h22l10 48h26l4 22h22l4 24h24l10 48h22l4 22h24l4 24h22l10 48h26l4 22h22l4 22h24l10 46h22l4 24h26l10 48h22l8 46h22l6 22h24l14 72h-444l-6 -24h-68l-4 -22h-26l-4 -26h-46l-14 -68h-22l-14 -72h-24l-10 -46h-116l6 24 h-22l46 234h22l22 116h22l4 22h24z" />
<glyph unicode="[" d="M654 1530h62l4 20h226l-4 -24h22l4 24h176l-4 -24h24l-4 -20h22l-22 -112h-22l-8 -46h-90l-6 -22h-240l-228 -1176h128l-4 -24h22l4 24h176l-4 -24h24l-4 -20h22l-22 -112h-22l-10 -46h-90l-4 -22h-400l2 12h-40l6 22h-20l12 66h-24l98 506h24l152 776h-24l34 176h18 l4 22h6v2h16l4 18h4v4z" />
<glyph unicode="\" d="M672 1604h24l-8 -44h20l-14 -70h22l-8 -44h24l-14 -68h20l-12 -66h24l-14 -68h22l-12 -68h24l-8 -44h20l-14 -70h24l-14 -66h22l-12 -66h24l-14 -70h22l-8 -44h24l-14 -66h20l-18 -92h24l-12 -66h22l-8 -44h20l-10 -46h24l-14 -70h22l-12 -66h24l-12 -66h20l-14 -70h24 l-8 -44h22l-10 -46h24l-12 -66h22l-14 -70h24l-14 -66h20l-16 -90h24l-14 -66h-24l-4 -24h-20l-4 -22h-24l4 22h-68l4 24h-24l4 20h-20l18 92h-24l18 90h-22l12 66h-24l14 70h-20l18 90h-22l8 44h-24l10 46h-20l16 88h-24l8 44h-22l14 70h-24l14 66h-22l8 46h-24l14 66h-20 l12 70h-24l10 44h-22l12 66h-24l14 70h-20l16 88h-24l10 44h-22l8 46h-20l14 68h-24l8 46h-22l14 66h-24l12 66h-22l10 46h-24l8 46h-20l8 44h-24l18 90h24l4 24h20l6 22h92z" />
<glyph unicode="]" d="M1156 1526h4l-4 -18h16v-2h6l-4 -22h18l-34 -176h-24l-152 -776h24l-98 -506h-24l-12 -66h-20l-6 -22h-40l-2 -12h-400l4 22h-90l10 46h-22l22 112h22l4 20h24l4 24h176l-4 -24h22l4 24h128l228 1176h-240l6 22h-90l8 46h-22l22 112h22l4 20h24l4 24h176l-4 -24h22l4 24 h226l-4 -20h62v-4z" />
<glyph unicode="^" d="M804 1952l14 6l2 -8l14 6l2 -8l12 6l102 -254l-14 -6l12 -34l-26 -14l4 -6l-62 -34l-4 8l-10 -6l-4 8l-14 -6l-26 64l14 8l-46 114l-90 -114l10 -8l-50 -64l-10 6l-8 -8l-10 6l-4 -8l-50 34l4 6l-18 14l24 34l-10 6l198 254l12 -6l6 8l10 -6l6 8z" />
<glyph unicode="_" d="M128 -418h136l-4 -20h876l4 20h66l-4 -20h70l4 20h132l-4 -20h44l-10 -46h24l-16 -90h-24l-4 -22h-1144l4 22h-114l-4 -22h-20l4 22h-88l4 22h-24l18 90h24l4 24h42z" />
<glyph unicode="`" d="M942 1762l28 -18l-10 -14l8 -8l-70 -90l-10 6l-12 -14l-10 6l-12 -16l-298 200l12 16l-38 26l24 30l-10 6l58 74l10 -6l10 14l12 -6l10 16l76 -52l-10 -16l134 -90l14 16l96 -64z" />
<glyph unicode="a" d="M928 280h24l34 180h-24l4 22h-312l-4 -22h-70l-4 -24h-44l-4 -22h-44l-6 -24h-24l-4 -20h-20l-8 -46h-24l-18 -90h24l-8 -46h44l-4 -20h44l-6 -24h134l-4 -22h24l4 22h112l6 24h46l4 20h44l4 24h46l4 22h20zM808 1044h314l-4 -24h44l-4 -20h46l-4 -22h24l-6 -24h22 l-4 -22h24l-8 -44h20l-48 -248h-20l-92 -472h86l4 20h70l-4 -20h20l-6 -24h24l-12 -66h-24l-4 -24h-90l-4 -22h-66l-6 -24h-156l6 24h-24l4 22h-46l4 24h-44l-4 -24h-66l-4 -22h-92l-6 -24h-312l6 24h-46l4 22h-44l4 24h-46l4 20h-24l8 46h-20l10 44h-24l30 158h24l8 44h20 l10 46h24l4 24h22l4 22h44l6 24h46l4 20h44l4 24h68l4 22h90l4 24h134l4 20h24l-4 -20h112l4 20h66l6 24h24l4 22h22l34 180h-22l4 22h-24l6 24h-20l4 22h-46l4 22h-180l-4 -22h-46l-4 -22h-44l-6 -24h-22l-4 -22h-24l-12 -68h-20l-4 -22h-24l-6 -24h-112l6 24h-22l4 22h-24 l22 114h24l8 44h46l4 22h44l6 24h44l4 22h44l4 20h114z" />
<glyph unicode="b" d="M1072 506h24l12 66h-24l14 68h-20l8 44h-24l8 44h-22l6 24h-24l4 22h-22l4 24h-24l4 20h-20l4 24h-70l4 22h-246l-4 -22h-46l-4 -24h-44l-8 -44h-22l-110 -562h22l-4 -24h24l-4 -20h20l-6 -24h90l-4 -22h182l4 22h44l6 24h46l4 20h20l4 24h46l10 46h24l4 22h22l8 44h24 l8 46h20zM552 1538h136l-4 -20h22l-8 -46h24l-6 -24h-24l-42 -222h-22l-44 -226h22l-4 -22h68l4 22h112l4 20h226l-4 -20h66l-4 -22h46l-6 -24h24l-4 -22h44l-4 -22h22l-4 -22h20l-6 -24h24l-8 -46h22l-4 -20h24l-8 -46h20l-10 -44h24l-26 -136h22l-30 -158h-22l-18 -90h-24 l-12 -66h-20l-10 -46h-24l-4 -24h-22l-4 -20h-24l-6 -24h-20l-4 -22h-22l-4 -24h-24l-4 -20h-44l-4 -24h-22l-4 -22h-70l-6 -24h-66l-4 -22h-292l4 22h-134l-4 -22h-112l4 22h-24l88 452h24l162 832h-24l8 44h-22l4 22h-134l6 24h-24l4 22h-22l4 24h22l10 44h44l4 22h114 l4 24h66z" />
<glyph unicode="c" d="M786 1044h292l-4 -24h66l-4 -20h44l-4 -22h24l-6 -24h22l-4 -22h20l-4 -22h24l-10 -46h22l-20 -112h24l-10 -44h-24l-8 -46h-22l-4 -22h-110l4 22h-46l8 46h-24l26 134h-20l4 22h-24l6 24h-68l4 22h-180l-4 -22h-44l-6 -24h-46l-4 -22h-22l-4 -24h-24l-4 -20h-20l-4 -24 h-24l-4 -22h-22l-10 -44h-24l-12 -68h-20l-50 -250h20l-12 -66h24l-4 -20h22l-8 -46h24l-6 -24h20l-4 -22h46l-4 -24h46l-4 -20h114l-6 -24h132l6 24h136l4 20h44l4 24h66l4 22h116l-4 -22h20l-14 -68h-20l-4 -22h-24l-4 -24h-46l-4 -20h-66l-4 -24h-46l-4 -22h-110l-6 -24 h-70l-4 -22h-268l4 22h-90l6 24h-70l4 22h-20l4 24h-22l4 20h-24l4 24h-20l4 22h-24l6 24h-22l8 44h-24l10 46h-22l12 66h-24l12 66h-20l32 160h20l26 134h24l8 44h22l10 46h24l8 44h22l4 24h24l4 22h20l6 24h24l4 22h22l4 22h20l4 22h46l6 24h24l4 22h66l4 20h70z" />
<glyph unicode="d" d="M354 436h22l-18 -90h24l-8 -42h22l-4 -24h24l-10 -46h20l-4 -22h24l-4 -24h22l-4 -20h44l-6 -24h158l-4 -22h44l4 22h90l6 24h46l4 20h24l4 24h20l40 202h24l60 314h-24l18 90h-44l4 24h-46l4 22h-66l6 24h-156l-6 -24h-70l-4 -22h-44l-4 -24h-46l-8 -44h-20l-4 -22h-24 l-6 -24h-22l-8 -44h-24l-14 -68h-22zM1222 1538h112l-12 -66h20l-18 -90h-20l-18 -90h20l-12 -66h-20l-194 -992h20l-8 -46h114l-4 -20h46l-18 -90h-24l-4 -24h-90l-4 -22h-66l-6 -24h-136l6 24h-112l-6 -24h-90l-4 -22h-292l4 22h-44l6 24h-46l4 22h-24l4 24h-42l4 20h-24 l4 24h-22l4 22h-24l10 44h-20l4 24h-24l10 46h-22l16 88h-24l52 270h24l14 68h22l14 68h24l8 46h20l4 20h24l4 24h22l4 22h24l6 24h20l4 22h22l4 22h46l4 22h44l6 24h46l4 22h360l-4 -22h66l12 66h24l8 46h-24l28 136h24l12 66h-24l8 44h-66l4 22h-114l18 90h24l6 24h46 l4 22h110l4 24h70z" />
<glyph unicode="e" d="M1082 684h20l4 24h-20l10 44h-24l4 22h-22l4 24h-24l8 44h-44l4 22h-22l6 24h-70l4 22h-176l-4 -22h-46l-6 -24h-24l-4 -22h-22l-4 -24h-24l-4 -20h-20l-4 -24h-24l-4 -22h-22l-10 -44h-24l-22 -112h362l4 20h202l6 24h24zM724 1044h314l-4 -24h44l-4 -20h46l-4 -22h24 l-6 -24h42l-4 -22h24l-4 -22h20l-4 -22h24l-10 -46h22l-4 -24h24l-8 -44h22l-14 -66h24l-34 -182h-24l-4 -20h-68l-6 -24h-584l-4 -22h-114l-4 -24h-20l-14 -66h20l-8 -46h24l-8 -44h22l-4 -22h24l-6 -24h20l-4 -22h46l-4 -24h46l-4 -20h90l-6 -24h180l6 24h136l4 20h66 l4 24h66l4 22h90l-4 -22h24l-14 -68h-24l-4 -22h-20l-4 -24h-46l-4 -20h-46l-4 -24h-90l-4 -22h-90l-6 -24h-112l-4 -22h-224l4 22h-92l6 24h-66l4 22h-44l4 24h-24l4 20h-22l4 24h-44l4 22h-22l10 44h-24l4 24h-22l10 46h-24l20 112h-20l40 202h20l22 112h24l8 44h22l10 46 h24l8 44h22l4 24h24l4 22h20l10 46h22l4 22h24l4 22h44l6 24h46l4 22h44l4 20h46z" />
<glyph unicode="f" d="M970 1548h180l-4 -20h248l-4 -24h24l-4 -22h20l-6 -24h-20l-18 -90h-46l-4 -22h-24l-4 -24h-156l4 24h-112l4 22h-180l-4 -22h-46l-4 -24h-20l-4 -20h-24l-8 -46h-22l-44 -226h22l-4 -20h24l-6 -24h358l6 24h90l-6 -24h46l-16 -88h-24l-6 -24h-66l-4 -22h-24l4 22h-360 l-4 -22h-44l-126 -654h24l-10 -44h20l-4 -22h248l-4 -24h68l4 24h44l-4 -24h44l-18 -90h-20l-4 -22h-92l-4 -24h-20l4 24h-744l4 22h-20l14 70h20l4 20h46l4 24h156l4 22h46l6 24h24l126 650h-24l4 24h-46l4 22h-156l6 24h-22l4 20h-24l4 24h24l8 44h46l6 24h156l4 20h22 l34 182h24l18 90h20l8 44h24l10 46h22l4 22h24l4 24h20l4 20h46l6 24h24l4 22h42l4 24h90z" />
<glyph unicode="g" d="M1036 -230h24l26 136h-24l6 24h-20l4 22h-46l4 20h-44l4 24h-564l-4 -24h-20l-4 -20h-24l-4 -22h-22l-6 -24h-24l-8 -44h-20l-22 -112h20l-8 -46h24l-6 -24h22l-4 -20h44l-4 -24h114l-4 -22h112l-4 -22h22l4 22h180l4 22h70l4 24h66l4 20h44l6 24h22l4 22h24l4 24h20z M496 560h20l-10 -46h24l-4 -24h22l-4 -20h24l-4 -24h66l-4 -22h202l4 22h44l4 24h46l8 44h24l10 46h22l34 178h-22l10 46h-24l8 44h-22l4 24h-44l4 22h-46l6 24h-180l-6 -24h-46l-4 -22h-44l-4 -24h-22l-8 -44h-24l-10 -46h-20zM694 1010h248l-6 -24h68l-4 -22h68l-4 -22h44 l-4 -24h272l-4 -20h20l-10 -46h24l-4 -24h-24l-4 -20h-20l-4 -24h-160l-4 -22h-22l-6 -24h22l-34 -178h-22l-10 -46h-24l-8 -44h-20l-8 -46h-22l-6 -24h-24l-4 -20h-44l-4 -24h-46l-4 -22h-66l-4 -24h-202l-6 -22h-46l-2 -20h-24l-6 -24h-20l-4 -22h-24l-8 -44h-22l-6 -24 h46l-4 -22h336l-4 -24h22l4 24h136l-4 -24h134l-4 -20h46l-4 -24h22l-4 -22h24l-6 -24h44l-4 -22h22l-44 -226h-22l-8 -44h-24l-10 -46h-20l-4 -20h-24l-4 -24h-22l-4 -22h-46l-4 -22h-24l-4 -24h-44l-4 -20h-66l-6 -24h-66l-4 -22h-116l-4 -24h-176l4 24h-206l4 22h-66 l6 24h-44l4 20h-46l4 24h-22l4 22h-24l8 46h-20l4 20h-24l14 70h-20l16 90h22l12 66h24l6 24h20l8 42h24l4 24h22l4 22h24l10 46h22l4 24h-22l22 110h22l8 46h20l6 24h24l2 20h22l10 46h24l4 22h-24l4 24h-22l4 20h-24l6 24h-20l8 46h-22l4 20h-24l14 70h-22l40 202h22 l12 66h24l8 46h22l6 24h20l4 20h46l4 24h24l4 22h44l4 22h66z" />
<glyph unicode="h" d="M630 1528h70l-4 -24h22l-4 -22h24l-24 -114h-24l-30 -156h-22l-12 -68h22l-14 -68h-22l-22 -112h22l-12 -66h24l4 20h90l4 24h20l4 22h66l4 22h46l6 24h250l-6 -24h66l-4 -22h22l-4 -22h24l-4 -24h20l-4 -20h24l-6 -24h22l-8 -46h24l-12 -66h20l-18 -90h24l-26 -136h-24 l-84 -428h136l-4 -20h46l-14 -70h-24l-4 -22h-22l-4 -24h-358l4 24h-46l18 92h46l4 20h20l4 24h22l48 248h24l52 268h-24l14 68h-22l10 46h-20l4 22h-24l4 24h-22l4 20h-44l4 24h-182l-4 -24h-66l-4 -20h-68l-4 -24h-46l-4 -22h-20l-6 -24h-24l-4 -22h-22l-100 -518h22 l-14 -66h44l-4 -24h114l-4 -20h42l-14 -70h-20l-4 -22h-226l-4 -24h-178l4 24h-44l22 112h44l4 24h22l4 22h24l188 966h20l14 70h-20l18 90h-24l4 22h-46l4 20h-90l4 24h-22l4 22h-24l10 46h24l4 24h46l4 20h90l6 24h46l4 22h86z" />
<glyph unicode="i" d="M944 1486h112l-4 -22h44l-6 -24h24l-2 -20h22l-28 -136h-22l-4 -22h-24l-4 -24h-20l-4 -20h-24l-4 -24h-46l-6 -22h-66l6 22h-66l4 24h-24l4 20h-22l26 136h22l10 46h24l2 20h20l6 24h46zM834 1036h88l-4 -24h46l-14 -66h24l-12 -66h-24l-136 -700h24l-4 -20h44l-4 -24 h358l-4 -22h46l-18 -90h-22l-4 -24h-44l-6 -22h-114l6 22h-720l-6 -22h-42l6 22h-46l8 46h-24l4 24h24l10 44h22l4 22h226l4 24h44l4 20h46l132 676h-70l4 24h-156l-4 -24h-90l4 24h-22l4 22h-24l14 66h24l4 24h178l4 20h204z" />
<glyph unicode="j" d="M1102 1464h156l-6 -24h24l-2 -20h22l-10 -46h24l-4 -24h-24l-14 -66h-22l-4 -22h-24l-4 -24h-20l-4 -20h-24l-4 -24h-46l-6 -22h-66l6 22h-46l4 24h-44l12 66h-22l10 46h22l12 66h24l6 24h20l2 20h46zM1126 1012h90l-4 -20h24l-4 -24h20l-118 -606h24l-32 -158h-24 l-16 -90h24l-10 -44h-24l-4 -24h24l-48 -248h-24l-22 -112h-20l-8 -44h-46l-6 -24h-24l-4 -22h-20l-4 -20h-46l-4 -24h-68l-4 -22h-158l-6 -24h-66l6 24h-156l4 22h-90l4 24h-46l4 20h-24l4 22h-18l6 24h-24l8 44h22l8 46h20l6 22h24l4 24h66l-4 -24h46l-6 -22h44l-4 -24h22 l-4 -22h46l-4 -24h44l-4 -20h160l4 20h44l4 24h22l4 22h22l4 24h44l32 156h24l8 46h-24l22 112h24l14 68h-24l140 720h-268l4 22h-68l4 24h-22l4 22h-24l4 24h24l10 42h46l4 24h358z" />
<glyph unicode="k" d="M604 1530h66l-4 -20h46l-52 -272h-22l-132 -674h22l-4 -22h44l4 22h24l6 24h22l4 20h24l4 22h46l4 24h20l4 22h22l6 24h24l2 20h20l6 24h24l4 22h22l4 24h24l4 20h20l14 70h-20l4 22h-24l14 66h24l4 24h404l-4 -24h24l-6 -22h20l-8 -44h-20l-4 -22h-70l-4 -24h-46l-4 -22 h-44l-6 -24h-46l-4 -20h-42l-4 -24h-24l-4 -22h-20l-6 -24h-46l-2 -20h-24l-6 -24h-22l-4 -22h-24l-4 -24h-20l-18 -88h20l-4 -24h24l-8 -44h22l-6 -22h24l-4 -24h22l-8 -46h24l-4 -20h20l-6 -24h24l-4 -22h22l-4 -24h20l-4 -20h24l-4 -22h22l-10 -46h24l-4 -24h44l-4 -20 h22l-4 -24h70l4 24h132l-8 -46h24l-6 -24h-24l-8 -44h-42l-4 -22h-24l-4 -24h-66l-6 -22h-136l6 22h-46l4 24h-24l4 22h-20l4 24h-22l4 20h-24l6 24h-20l4 22h-24l4 24h-22l4 20h-24l4 24h-22l10 46h-24l4 22h-20l8 44h-24l4 22h-22l10 44h-24l4 24h-20l4 22h-24l10 46h-42 l4 24h-24l-4 -24h-22l-6 -22h-24l-4 -24h-22l-4 -22h-24l-4 -24h-20l-4 -20h-24l-6 -24h-22l-30 -158h22l-8 -44h24l-4 -22h90l-6 -24h46l-4 -20h20l-8 -46h-20l-4 -24h-316l-6 -22h-92l6 22h-20l4 24h-24l8 46h24l10 44h44l4 22h22l26 136h24l4 20h-24l14 70h24l4 20h-24 l26 136h24l22 112h-24l16 90h24l6 24h-24l8 46h24l70 358h-24l36 182h-156l4 20h-24l8 46h-22l6 24h22l2 20h24l6 24h110l4 22h46l4 24h90z" />
<glyph unicode="l" d="M916 1530h132l-4 -20h24l-34 -180h20l-6 -24h-20l-100 -516h-24l-48 -248h24l-30 -160h-24l-36 -178h24l-8 -44h44l-4 -24h292l-4 -22h46l-6 -24h22l-4 -20h24l-4 -24h-24l-8 -46h-68l-6 -22h-114l6 22h-378l-6 -22h-92l6 22h-246l16 90h22l6 24h20l4 22h226l4 24h24 l4 20h22l26 136h-22l14 66h22l184 948h-22l4 20h-160l-4 -20h-156l4 20h-22l16 90h22l6 24h90l4 22h156l4 24h116z" />
<glyph unicode="m" d="M712 1036h24l-4 -24h86l-4 -20h46l-4 -24h46l-6 -22h68l6 22h46l4 24h90l4 20h202l-4 -20h44l-4 -24h22l-6 -22h24l-8 -44h20l-4 -22h24l-14 -70h22l-78 -404h-22l-48 -246h22l-4 -24h46l-4 -22h66l-10 -44h24l-4 -24h-24l-8 -46h-338l4 24h-20l4 22h-24l4 24h24l4 20h20 l6 24h24l12 66h22l118 610h-22l10 44h-44l8 46h-182l-4 -24h-20l-4 -22h-24l-6 -24h-22l-126 -650h22l-4 -24h24l-4 -22h66l-10 -44h24l-4 -24h-24l-8 -46h-314l4 24h-24l12 66h24l6 24h22l4 22h20l26 136h24l86 448h-24l14 70h-20l4 20h-22l10 46h-24l4 24h-156l-4 -24h-24 l-4 -22h-46l-6 -24h-20l-4 -20h-24l-122 -630h24l-4 -24h20l-4 -22h92l-6 -24h24l-4 -20h20l-4 -24h-20l-4 -22h-24l-4 -24h-314l4 24h-46l18 90h22l4 22h24l4 24h22l126 650h-22l6 24h-136l8 46h-24l8 46h24l10 42h66l4 24h116l4 20h90l-4 -20h42l-4 -24h24l4 24h90l4 20 h112z" />
<glyph unicode="n" d="M924 1036h202l-4 -24h24l-4 -20h42l-4 -24h46l-6 -22h24l-4 -20h20l-4 -24h24l-8 -46h22l-14 -66h24l-122 -630h22l-4 -24h114l-4 -22h42l-22 -114h-42l-6 -22h-182l6 22h-224l8 46h-22l4 24h22l4 20h24l6 24h20l4 22h24l4 24h22l52 268h20l40 202h-20l22 114h-22l8 46 h-24l4 20h-20l6 24h-24l4 22h-46l4 24h-156l-4 -24h-46l-4 -22h-66l-6 -24h-46l-4 -20h-68l-8 -46h-22l-40 -202h-24l-48 -250h24l-26 -132h22l-4 -24h114l-4 -22h46l-6 -24h20l-4 -20h22l-4 -24h-22l-4 -22h-20l-4 -24h-428l4 24h-24l4 22h-22l4 24h22l10 44h24l4 22h44 l4 24h22l132 674h-22l4 22h-158l4 24h-22l12 66h22l6 22h44l4 24h114l4 20h134l-4 -20h24l-4 -24h20l-10 -42h90l4 20h24l6 22h46l4 24h88l4 20h68z" />
<glyph unicode="o" d="M1078 452h24l22 112h-24l18 90h-22l10 46h-24l2 20h-20l14 70h-22l4 20h-24l6 24h-20l4 22h-46l4 24h-46l4 22h-270l-4 -22h-46l-4 -24h-20l-4 -22h-24l-6 -24h-22l-4 -20h-24l-8 -46h-20l-14 -68h-24l-16 -88h-22l-32 -160h22l-18 -90h24l-4 -22h20l-8 -44h24l-4 -22h22 l-6 -24h24l-4 -22h20l-4 -24h24l-4 -20h46l-4 -24h66l-4 -22h136l4 22h66l4 24h46l4 20h44l4 24h24l4 22h22l10 46h20l8 44h24l10 46h22zM772 1058h156l-4 -22h112l-4 -24h68l-4 -20h66l-4 -24h22l-6 -22h24l-4 -20h20l-4 -24h24l-4 -22h22l-8 -46h24l-6 -24h22l-8 -44h24 l-10 -46h20l-20 -112h24l-32 -156h-24l-12 -70h-20l-22 -110h-24l-10 -46h-22l-4 -22h-24l-4 -24h-22l-4 -20h-24l-4 -24h-20l-4 -22h-46l-6 -24h-24l-4 -20h-20l-4 -24h-46l-4 -22h-44l-4 -24h-92l-6 -22h-222l6 22h-70l4 24h-66l4 22h-44l4 24h-24l4 20h-46l6 24h-20l4 22 h-22l4 24h-24l8 44h-22l10 46h-24l12 66h-20l10 46h-24l56 292h24l12 66h20l10 46h24l8 44h22l6 24h24l8 46h22l4 22h44l4 24h22l4 20h24l6 22h44l4 24h46l4 20h44l4 24h92z" />
<glyph unicode="p" d="M572 502h24l-44 -226h22l-12 -66h24l-4 -24h44l-6 -22h46l-4 -24h202l4 24h44l6 22h46l4 24h20l4 20h24l4 24h22l8 42h22l10 46h24l8 46h20l52 270h-20l10 46h-24l4 20h-22l4 24h-22l4 22h-24l6 24h-20l4 22h-24l4 24h-22l4 20h-44l4 24h-248l-4 -24h-44l-4 -20h-24 l-8 -46h-22l-48 -248h-24zM566 1042h46l-6 -24h46l-4 -22h20l-4 -24h24l4 24h90l4 22h66l6 24h248l-6 -24h44l-4 -22h68l-4 -24h44l-4 -22h24l-4 -20h22l-4 -24h24l-6 -22h20l-4 -24h24l-8 -44h22l-4 -22h24l-14 -70h20l-30 -156h24l-36 -180h-24l-8 -46h-20l-10 -46h-24 l-8 -42h-22l-8 -44h-24l-4 -24h-20l-6 -22h-24l-4 -24h-22l-4 -22h-24l-4 -22h-20l-4 -22h-68l-6 -24h-44l-4 -22h-114l-4 -24h-158l4 24h-134l-8 -44h-22l-44 -226h22l-18 -90h44l-4 -22h112l-4 -24h24l-14 -66h-46l-4 -22h-402l4 22h-46l14 66h22l4 24h68l4 22h22l14 68 h20l210 1080h-20l4 24h-22l4 20h-134l4 24h-24l14 66h24l4 22h44l4 24h112l4 22h44z" />
<glyph unicode="q" d="M402 432h22l-12 -66h24l-8 -46h20l-10 -44h24l-4 -22h22l-4 -24h24l-4 -20h20l-4 -24h46l-6 -22h90l-4 -24h202l4 24h46l6 22h24l4 24h20l118 606h-20l4 24h-24l4 20h-22l4 24h-204l6 22h-22l-6 -22h-66l-4 -24h-46l-4 -20h-24l-4 -24h-44l-4 -22h-22l-10 -46h-24l-4 -24 h-20l-8 -44h-24l-14 -66h-22zM1200 1062h66l-4 -20h24l-32 -158h-24l-230 -1192h24l-6 -24h46l-4 -22h90l-18 -90h-68l-4 -22h-338l4 22h-46l10 44h-20l4 22h44l4 24h46l4 22h22l6 24h24l4 20h20l56 292h-20l4 24h-182l-4 -24h-134l4 24h-68l4 22h-68l6 24h-46l4 22h-44 l4 22h-46l4 22h-20l4 24h-24l10 46h-22l4 20h-22l8 46h-24l14 66h-20l8 46h-24l48 246h24l18 90h20l14 70h24l4 22h22l8 44h22l4 24h24l6 22h20l4 24h24l4 20h22l4 22h44l4 24h46l4 22h90l6 24h246l-6 -24h70l-4 -22h112l4 22h20l6 24h24z" />
<glyph unicode="r" d="M1126 1062h68l-4 -20h90l-6 -24h46l-4 -22h20l-4 -24h24l-22 -112h-24l-4 -20h-20l-4 -24h-204l4 24h-68l4 20h-20l-4 -20h-90l-4 -24h-46l-4 -22h-44l-6 -24h-24l-4 -22h-22l-4 -24h-24l-4 -20h-22l-4 -24h-24l-6 -22h-20l-90 -472h20l-6 -22h24l-4 -24h338l-4 -22h22 l-8 -44h24l-6 -24h-24l-4 -22h-22l-4 -24h-226l4 24h-20l-4 -24h-474l4 24h-20l4 22h-24l14 68h24l4 22h110l4 24h46l6 22h22l8 44h24l70 362h-24l8 42h24l4 24h-24l36 182h-22l4 20h-46l4 24h-68l-4 -24h-112l-4 -20h-20l8 44h-24l18 88h24l4 24h132l4 22h136l6 24h114 l-10 -46h20l-4 -24h24l-12 -66h22l-10 -46h44l4 24h46l6 22h22l4 24h24l4 20h44l4 22h46l4 24h44l4 22h46l6 24h88z" />
<glyph unicode="s" d="M844 1062h112l-4 -20h90l-6 -24h182l-4 -22h20l-4 -24h24l-18 -88h22l-22 -114h-22l-12 -66h-44l-4 -24h-24l4 24h-68l8 44h-24l10 46h-20l12 66h-22l4 24h-68l6 22h-248l-6 -22h-44l-4 -24h-22l-4 -20h-24l-8 -46h-20l-14 -70h20l-8 -44h24l-6 -22h22l-4 -24h66l-4 -20 h160l-4 -22h134l-4 -24h66l-4 -22h46l-6 -24h46l-4 -20h20l-4 -24h24l-4 -22h22l-6 -24h24l-12 -66h20l-30 -156h-20l-4 -24h-24l-6 -22h-22l-8 -46h-24l-4 -22h-20l-4 -22h-46l-6 -24h-24l-4 -22h-46l-4 -24h-132l-4 -20h-204l4 20h-132l4 24h-24l-4 -24h-112l4 24h-24 l4 22h-22l6 24h-24l16 90h-20l14 66h20l4 24h-20l8 42h20l10 46h24l4 24h90l-4 -24h22l-4 -22h24l-14 -66h22l-8 -44h24l-4 -24h20l-6 -22h46l-4 -24h44l-4 -22h248l4 22h44l4 24h46l6 22h20l8 44h24l26 136h-24l4 22h-42l6 24h-68l2 20h-90l6 24h-178l4 22h-70l4 24h-44 l4 20h-46l6 24h-22l4 22h-24l4 24h-20l8 42h-24l10 46h-22l22 114h22l12 66h24l4 24h20l6 22h24l4 24h22l4 20h24l4 22h22l4 24h44l4 22h46l6 24h134z" />
<glyph unicode="t" d="M586 1268h90l-6 -24h22l-8 -46h24l-4 -22h-24l-26 -134h24l-6 -24h90l-4 -22h44l4 22h358l6 24h24l-6 -24h22l-4 -22h24l-16 -90h-46l-6 -22h-134l6 22h-24l-6 -22h-404l-34 -180h-22l-100 -518h22l-6 -22h22l-4 -24h24l-4 -22h224l4 22h158l4 24h66l6 22h114l-6 -22h46 l-12 -68h-24l-4 -22h-46l-6 -24h-46l-4 -22h-66l-4 -24h-114l-4 -20h-202l-4 -24h-110l4 24h-68l4 20h-44l4 24h-46l10 46h-24l4 22h-20l8 44h-24l100 518h24l40 202h-46l4 24h-114l6 22h-22l12 66h22l4 24h136l4 22h24l10 44h20l34 182h46z" />
<glyph unicode="u" d="M428 1018h114l-4 -22h20l-48 -248h-20l-78 -406h20l-14 -66h24l-4 -22h22l-8 -44h24l-4 -24h44l-6 -22h68l-4 -24h200l4 24h46l6 22h66l4 24h24l4 20h22l4 24h24l110 562h-24l4 24h-22l4 20h-112l4 24h-24l14 66h24l4 22h112l4 24h112l4 22h68l-4 -22h22l-12 -66h24 l-22 -114h-24l-114 -586h24l-4 -20h46l-4 -24h110l-10 -46h22l-8 -44h-22l-4 -22h-90l-6 -24h-44l-4 -22h-68l-4 -24h-68l4 24h-46l4 22h-20l6 24h-70l-6 -24h-66l-4 -22h-66l-4 -24h-114l-4 -20h-134l4 20h-68l4 24h-46l4 22h-20l6 24h-24l4 22h-46l8 44h-20l4 24h-24 l14 66h-22l26 136h-24l4 22h24l22 114h-24l4 20h24l22 112h-24l18 90h24l14 70h-24l8 46h-22l4 20h-110l4 24h-24l6 22h-22l4 24h22l8 42h44l4 24h158z" />
<glyph unicode="v" d="M1388 990h16l-10 -50h-16l-10 -56h-90l-4 -24h-22l-8 -44h-24l-4 -22h-20l-14 -70h-24l-14 -66h-22l-8 -44h-24l-12 -68h-22l-10 -44h-24l-8 -46h-20l-6 -24h-24l-12 -66h-22l-4 -24h-24l-14 -66h-20l-12 -66h-24l-10 -46h-22l-8 -46h-20l-8 -44h-24l-6 -24h-22l-8 -46 h-24l-4 -20h-136l4 20h-20l4 24h-24l10 46h-22l4 22h-24l12 68h-20l10 46h-22l8 44h-24l8 42h-22l10 46h-24l8 46h-20l14 68h-24l4 22h-22l14 68h-24l8 46h-20l12 66h-24l10 46h-22l8 44h-24l14 68h-20l8 44h-24l4 24h-158l6 22h-20l4 24h-24l8 42h24l4 24h20l4 22h362 l-4 -22h90l-4 -24h22l-12 -66h-68l-6 -22h-44l-12 -68h20l-14 -68h24l-8 -44h22l-14 -70h24l-8 -42h22l-8 -46h20l-14 -68h24l-10 -46h22l-8 -44h24l-8 -46h20l-10 -46h24l-4 -20h22l-4 -22h24l-8 -44h20l4 20h24l4 24h22l4 22h24l14 66h22l8 46h24l14 68h20l8 46h22l14 66 h24l12 66h20l10 46h24l8 44h22l30 160h-66l6 22h-90l8 44h-22l4 22h22l4 24h44l4 22h358l6 24h68z" />
<glyph unicode="w" d="M482 1042l-6 -24h90l-16 -88h-24l-4 -24h-156l-6 -22h-24l-30 -160h24l-18 -90h22l-16 -88h24l-14 -68h20l-18 -90h24l-8 -46h22l-14 -66h24l4 20h20l6 24h24l8 46h22l12 66h24l18 90h22l14 70h20l8 42h24l14 70h22l4 20h44l4 24h46l-4 -24h24l-4 -20h20l-10 -46h24 l-8 -44h22l-12 -68h24l-14 -68h22l-10 -46h24l-12 -66h20l-4 -24h22l-10 -46h24l10 46h44l16 90h22l14 70h24l18 90h22l18 88h22l22 114h22l12 66h-22l4 24h-22l6 22h-158l4 24h-20l4 20h-24l4 22h24l8 46h42l6 24h428l-6 -24h22l-4 -22h22l-4 -24h24l-4 -22h-24l-4 -20h-22 l-4 -24h-44l-6 -22h-46l-8 -44h-24l-8 -46h-20l-28 -136h-22l-16 -90h-24l-10 -46h-20l-12 -66h-24l-14 -68h-22l-22 -112h-24l-8 -46h-22l-18 -90h-22l-8 -44h-22l-10 -46h-24l-4 -22h-22l-4 -24h-110l4 24h-24l10 46h-22l8 44h-24l8 46h-22l14 66h-24l18 90h-20l12 68h-24 l14 68h-66l-14 -68h-24l-8 -46h-22l-18 -88h-24l-12 -68h-20l-14 -68h-22l-8 -44h-24l-6 -24h-22l-8 -46h-114l4 24h-20l4 22h-24l10 46h-22l12 68h-24l14 66h-20l18 90h-24l12 68h-22l14 68h-22l12 66h-24l14 70h-20l18 88h-24l16 90h-22l10 46h-24l8 44h-44l4 24h-68 l12 56h-16l10 52h16l10 50h428z" />
<glyph unicode="x" d="M288 1014h338l-4 -24h110l-10 -44h24l-4 -22h-24l-4 -22h-20l-4 -22h-22l-4 -22h-24l-14 -70h46l-8 -44h20l-4 -22h24l-6 -24h22l-4 -20h24l-4 -24h44l-4 -22h22l4 22h46l4 24h24l4 20h20l6 24h24l4 22h22l4 24h24l4 20h20l14 70h-20l4 22h-46l4 22h-24l4 22h-20l4 22h20 l6 24h24l4 20h404l-4 -20h20l-18 -90h-110l-4 -22h-46l-4 -24h-20l-6 -22h-24l-4 -24h-22l-4 -20h-46l-4 -24h-24l-10 -46h-20l-4 -20h-24l-8 -46h-22l-4 -24h-20l-6 -22h-24l-20 -110h24l-6 -24h20l-4 -22h22l-4 -24h24l-4 -22h20l-8 -44h46l-6 -24h24l-4 -22h22l-8 -44h24 l-4 -22h20l-6 -24h24l-4 -22h22l-4 -24h44l-4 -20h90l-4 -24h22l-6 -22h24l-8 -44h22l-4 -24h-22l-4 -22h-472l4 22h-22l18 90h66l4 24h22l12 66h-22l6 24h-20l4 22h-24l8 44h-22l4 22h-24l6 24h-20l2 20h-24l6 24h-22l4 22h-90l-4 -22h-24l-8 -44h-22l-6 -24h-44l-8 -46 h-22l-4 -20h-24l-4 -22h-20l-10 -46h-24l-4 -24h24l-8 -44h86l-6 -22h24l-8 -44h-24l-8 -46h-424l4 22h-24l18 90h24l4 24h66l4 20h66l4 24h24l4 22h22l6 24h24l4 22h20l4 20h24l8 46h22l6 24h46l8 44h24l4 22h20l4 24h24l4 22h22l24 114h-22l8 42h-24l4 24h-20l4 22h-24 l4 24h-22l4 20h-24l6 24h-22l4 22h-24l4 24h-20l4 20h-24l4 24h-22l6 22h-24l4 24h-44l4 22h-134l4 22h-24l14 68h24l4 20h22z" />
<glyph unicode="y" d="M414 1014h22l-4 -24h46l4 24h44l-4 -24h180l-4 -20h46l-14 -68h-24l-4 -22h-66l-4 -22h-24l-18 -90h24l-8 -46h20l-10 -44h24l-8 -46h22l-10 -46h24l-8 -44h22l-8 -46h20l-4 -20h24l-14 -70h22l-10 -46h24l-2 -20h20l-6 -24h46l6 24h24l2 20h20l14 70h24l14 66h22l8 46 h24l8 44h22l14 68h22l14 68h22l12 66h22l14 70h-22l4 22h-112l4 22h-24l4 22h-20l4 22h20l10 44h202l4 24h136l-4 -24h24l4 24h90l-4 -24h22l-10 -44h20l-4 -22h-20l-8 -44h-68l-4 -22h-68l-4 -24h-22l-10 -46h-24l-12 -66h-20l-14 -68h-24l-8 -46h-22l-14 -66h-24l-8 -46 h-20l-14 -66h-24l-4 -24h-22l-12 -66h-22l-10 -46h-22l-8 -44h-22l-14 -68h-24l-4 -24h-22l-8 -44h-24l-10 -46h-20l-4 -20h-24l-14 -70h-22l-8 -46h-24l-8 -42h-20l-8 -44h-24l-14 -70h-22l-10 -46h-24l-4 -20h-20l-8 -46h-22l-8 -44h-46l-6 -24h-24l-4 -22h-44l-4 -22h-22 l-4 -22h-90l-4 -22h-90l4 22h-66l4 22h-24l4 22h-22l14 66h22l8 46h24l4 24h132l-4 -24h114l4 24h46l10 44h20l8 46h24l4 22h22l8 44h24l10 46h22l8 44h20l10 46h24l8 46h22l14 66h-22l8 44h-24l8 46h-20l10 46h-22l8 44h-24l4 22h-22l8 44h-24l10 46h-20l4 24h-24l10 46 h-22l4 20h-24l8 46h-20l14 66h-24l8 46h-22l8 44h-24l10 46h-20l8 44h-24l10 46h-22l4 24h-22l4 22h-134l8 44h-24l4 22h24l10 44h134z" />
<glyph unicode="z" d="M504 1014h472l-4 -24h178l4 24h114l-4 -24h22l-4 -20h24l-14 -68h-24l-8 -44h-22l-4 -24h-24l-6 -22h-20l-4 -24h-24l-4 -20h-22l-4 -24h-24l-4 -22h-20l-6 -24h-24l-4 -20h-22l-4 -24h-20l-4 -22h-24l-4 -24h-22l-6 -22h-24l-2 -20h-22l-6 -24h-24l-4 -22h-20l-4 -24 h-24l-4 -20h-22l-6 -24h-24l-4 -22h-20l-4 -24h-46l-4 -22h-24l-8 -44h-20l-6 -24h-46l-4 -22h-22l-4 -24h-24l-4 -20h-20l-4 -22h-24l-18 -90h44l-4 -24h136l4 24h22l-4 -24h158l4 24h112l4 20h46l4 24h20l4 22h24l6 24h22l8 42h24l8 46h44l6 24h46l-6 -24h22l-34 -178h-22 l-18 -90h-24l-4 -24h-22l-4 -22h-788l4 22h-66l4 24h-22l14 66h-24l4 24h24l4 20h22l8 46h22l6 24h24l4 22h20l4 20h24l4 24h22l4 22h24l6 24h20l2 20h24l6 24h22l4 22h24l4 24h44l10 46h22l4 20h24l4 24h22l4 22h20l6 24h24l2 20h22l6 22h24l4 24h20l4 22h46l4 24h24l4 20 h20l6 24h24l8 46h22l4 20h46l10 46h24l4 24h-24l4 22h-404l-4 -22h-46l-10 -46h-24l-8 -44h-20l-14 -70h-46l-4 -20h-44l4 20h-24l10 46h-22l4 24h22l26 134h24l14 68h20l4 20h24z" />
<glyph unicode="{" d="M554 686l104 -92l-86 -444h128l-4 -24h22l4 24h176l-4 -24h24l-4 -20h22l-22 -112h-22l-10 -46h-90l-4 -22h-400l2 12h-40l6 22h-20l12 66h-24l98 506h24l8 44l-142 114l6 10l-6 2l8 42l6 4l-2 8l188 114l86 438h-24l34 176h18l4 22h6v2h16l4 18h4v4h62l4 20h226l-4 -24 h22l4 24h176l-4 -24h24l-4 -20h22l-22 -112h-22l-8 -46h-90l-6 -22h-240l-100 -516l-132 -56z" />
<glyph unicode="|" d="M718 -16h-22l-4 -24h-22l-6 -22h-136l6 22h-20l12 66h-24l98 506h24l152 776h-24l34 176h24l4 24h20l4 22h112l-4 -22h46l-18 -90h22z" />
<glyph unicode="}" d="M836 810l100 516h-240l6 22h-90l8 46h-22l22 112h22l4 20h24l4 24h176l-4 -24h22l4 24h226l-4 -20h62v-4h4l-4 -18h16v-2h6l-4 -22h18l-34 -176h-24l-86 -438l144 -114l-6 -8l6 -4l-8 -42l-6 -2l2 -10l-190 -114l-8 -44h24l-98 -506h-24l-12 -66h-20l-6 -22h-40l-2 -12 h-400l4 22h-90l10 46h-22l22 112h22l4 20h24l4 24h176l-4 -24h22l4 24h128l86 444l140 92l14 68z" />
<glyph unicode="~" d="M434 710h226l-6 -24h316l6 24h176l-6 -24h24l-4 -22h22l-22 -112h-22l-8 -44h-90l-4 -24h-694l4 24h-24l4 20h-22l26 136h22l4 22h66z" />
<glyph unicode="&#xa0;" />
<glyph unicode="&#xa1;" d="M886 1096h-92l4 24h-20l4 22h-24l6 24h-22l4 20h-24l4 24h-20l10 46h-24l4 20h24l16 92h20l4 20h24l6 24h46l4 22h66l4 24h46l-4 -24h44l-4 -22h22l-6 -24h24l-4 -20h20l-34 -182h-20l-4 -20h-24l-6 -24h-22l-4 -22h-44zM666 -140h-132l4 22h-46l4 24h-24l10 44h-20 l12 68h-24l10 44h24l30 158h20l30 156h24l36 180h22l78 408h24l14 66h44l4 22h44l-4 -22h24l-6 -24h20l-22 -112h24l-82 -428h22l-36 -178h24l-12 -68h20l-44 -226h-20l-14 -68h-24l-4 -20h-22l-4 -24h-24z" />
<glyph unicode="&#xa2;" d="M930 1270h66l-4 -20h24l-14 -70h22l-16 -88h24l-6 -24h46l-4 -20h86l-4 -24h46l-4 -22h24l-4 -24h20l-6 -22h24l-8 -44h22l-22 -114h24l-4 -22h-24l-12 -66h-22l-6 -24h-68l6 24h-46l4 22h-20l4 22h-22l12 68h-24l14 66h-20l4 24h-24l4 22h-268l-4 -22h-46l-4 -24h-24 l-4 -22h-46l-6 -24h-20l-4 -20h-24l-8 -46h-22l-4 -22h-24l-14 -68h-20l-52 -268h20l-8 -46h24l-10 -44h22l-4 -24h24l-4 -22h20l-4 -24h24l-6 -22h46l-4 -24h22l-4 -20h336l4 20h90l4 24h66l6 22h46l4 24h24l-4 -24h46l-18 -90h-24l-4 -22h-22l-6 -24h-46l-4 -20h-44 l-4 -22h-70l-4 -24h-86l-4 -22h-70l-6 -24h-46l-2 -20h-20l-10 -46h-24l-34 -180h-22l-14 -66h-24l-4 -24h-66l4 24h-20l4 20h-24l54 272h-22l8 44h-70l4 22h-44l4 24h-46l4 22h-20l4 20h-24l6 24h-22l4 22h-24l4 24h-20l4 20h-22l10 46h-24l8 46h-22l8 44h-24l66 338h24 l14 68h22l8 44h24l8 44h22l6 24h20l8 46h24l4 22h22l4 22h44l6 22h24l4 24h22l4 22h44l4 24h92l4 20h44l6 24h22l8 42h24l18 92h20l4 24h24z" />
<glyph unicode="&#xa6;" d="M502 26l98 506h24l46 230l196 -14l-148 -764h-22l-4 -24h-22l-6 -22h-136l6 22h-20l12 66h-24zM890 868h-200l86 440h-24l34 176h24l4 24h20l4 22h112l-4 -22h46l-18 -90h22z" />
<glyph unicode="&#xa7;" d="M876 1186h86l-4 -16h70l-4 -18h140l-2 -18h16l-4 -18h18l-14 -68h18l-16 -88h-18l-10 -52h-34l-4 -18h-18l4 18h-54l6 34h-18l8 36h-16l10 52h-16l2 18h-52l4 18h-192l-4 -18h-34l-2 -18h-18l-4 -16h-18l-6 -36h-16l-12 -54h16l-6 -34h18l-4 -18h18l-2 -18h50l-4 -16h124 l-4 -16h104l-2 -18h50l-4 -18h36l-4 -16h2v-2h34l-2 -16h16l-4 -18h18l-4 -18h18l-4 -18h18l-10 -52h14l-22 -120h-14l-4 -18h-18l-4 -18h-18l-6 -36h-18l-4 -16h-16l-4 -18h-36l-2 -18h-18l-4 -18h20l-4 -16h16l-2 -18h18l-4 -18h16l-4 -18h20l-10 -50h16l-24 -122h-16 l-2 -18h-20l-4 -18h-16l-8 -36h-18l-2 -16h-16l-4 -16h-36l-4 -18h-20l-2 -18h-36l-4 -18h-100l-4 -16h-158l4 16h-100l4 18h-20l-4 -18h-88l4 18h-18l2 18h-16l4 18h-20l14 68h-14l10 52h14l4 18h-14l6 34h14l6 36h20l4 18h70l-4 -18h16l-2 -18h20l-10 -52h16l-8 -34h20 l-2 -18h12l-4 -18h36l-4 -18h36l-4 -18h190l4 18h36l4 18h36l4 18h12l6 34h20l20 106h-20l4 18h-30l4 18h-54l2 14h-70l4 18h-136l4 18h-56l2 16h-84l4 18h-20l4 18h-16l2 18h-20l14 70h-14l20 104h14l8 34h2l2 18h18l4 18h16l4 18h20l4 18h16l2 16h20l4 18h16l4 18h32l2 16 h-32l4 18h-18l4 18h-18l2 18h-16l8 32h-20l6 36h-16l18 88h16l10 52h20l2 18h16l4 18h18l4 18h18l2 14h18l4 18h14l4 18h36l2 18h36l4 18h104zM770 454h86l2 18h34l4 18h34l4 18h16l4 18h-16l6 32h-20l6 36h-12l10 52h-18l4 18h-54l4 18h-190l-4 -18h-36l-4 -18h-16l-2 -16 h-20l-8 -36h-12l-6 -36h12l-6 -32h20l-4 -18h16l-4 -18h36l-4 -18h34l-2 -16h106v-2z" />
<glyph unicode="&#xa8;" d="M408 1828l4 22h20l6 24h70l4 20h22l-4 -20h66l-6 -24h24l-4 -22h20l-26 -136h-20l-8 -44h-24l-4 -22h-66l-6 -24h-22l6 24h-70l8 46h-20l4 20h-24l26 136h24zM914 1808l8 42h44l6 24h46l4 20h20l-4 -20h68l-6 -24h24l-4 -22h20l-30 -156h-20l-4 -24h-24l-4 -22h-22 l-6 -24h-90l6 24h-46l8 46h-20l12 66h-24l14 70h24z" />
<glyph unicode="&#xa9;" d="M1294 642h36v246h-36v134h-36v68h-32v32h-32v106h-34v30h-36v36h-28v36h-72v34h-66v34h-486v-34h-68v-34h-28v-36h-38v-36h-32v-30h-34v-68h-32v-104h-34v-132h-34v-318h34v-134h34v-32h32v-70h34v-30h32v-38h38v-32h28v-38h38v-28h68v-38h98v-34h284v34h96v38h72v28h64 v38h36v32h34v68h32v70h32v68h36v134zM658 1560h152v-36h168v-32h104v-34h98v-34h36v-34h32v-30h34v-38h32v-30h36v-70h36v-38h30v-66h38v-70h28v-170h38v-160h-38v-106h-28v-166h-38v-70h-30v-34h-36v-34h-36v-34h-32v-32h-34v-36h-68v-34h-34v-32h-32v-36h-70v-36h-66v-34 h-136v-34h-252v34h-106v34h-96v36h-68v36h-36v32h-68v34h-32v36h-32v32h-36v68h-34v70h-34v100h-32v72h-34v364h34v100h32v70h34v66h34v38h36v70h32v30h70v38h30v30h36v34h68v34h68v34h64v32h138v36zM650 1212h190v-16h86v-12h154v-12h16v-28h16v-26h-16v-136h16v-28h-16 v-14h-16v-12h-70v12h-14v28h-20v68h-16v26h-20v12h-14v16h-18v12h-36v16h-202v-16h-36v-12h-34v-16h-18v-12h-18v-12h-16v-30h-16v-12h-18v-26h-16v-42h-16v-54h-18v-122h-18v-40h18v-110h18v-52h16v-42h16v-12h18v-28h16v-14h16v-14h18v-14h36v-12h32v-12h34v-16h156v16h32 v12h36v12h18v14h14v28h20v12h16v56h20v40h14v14h16v12h54v-12h32v-176h-16v-12h-16v-16h-20v-14h-34v-14h-16v-12h-34v-14h-36v-12h-68v-16h-66v-10h-102v10h-86v16h-54v12h-32v14h-34v12h-16v14h-18v14h-18v16h-16v12h-16v26h-20v14h-14v14h-20v40h-16v28h-20v40h-14v68 h-18v190h18v54h14v40h20v42h16v26h20v28h14v14h20v24h16v16h16v12h18v16h18v12h16v14h16v14h34v14h16v12h36v12h50v16z" />
<glyph unicode="&#xaa;" d="M972 1736q16 0 20 -10q18 0 20 -12h4q12 0 16 -6q-2 -4 4 -8q4 -2 6 -2q-2 -4 0 -6l6 -8q0 -4 6 0q4 2 6 2q0 -12 -2 -22l4 -2q4 2 6 0l-22 -112q0 -2 -1 -14t-5 -18t-12 -10l-38 -198q-2 -4 0 -5t7 0t7 1q12 16 24 10q8 -2 15 0t13 0t8 -10q10 -8 8 -12q18 -4 10 -26 q-2 -2 -3 -14t-7 -16l-6 -4l-2 -4q-4 -8 -18 -10q-20 -2 -32 0q-4 -6 -9 -9t-12 -3t-13 2l2 -6v-6h-74q-2 0 -10 -1t-14 0t-8 7q2 4 -2 6l-6 4l-2 4q-2 0 -9 1t-11 3h-6q-8 -2 -12 -2l-4 -2l-2 2q-6 0 -8 -4q-4 -4 -8 -5t-9 -2t-9 -1t-9 1t-7 1q-2 -2 -1 -6t1 -6h-160 q-20 -6 -24 12q-14 -4 -20 8q-20 0 -22 14q-6 -2 -11 1t-7 9q-8 0 -10 8t4 16q-2 2 -14 -6l4 26q-8 -4 -12 -4l12 60q0 4 2 16t5 20t13 14q2 2 4 7t5 9t7 6q8 18 12 20t9 8t9 6q2 2 0 8l-4 2q8 2 12 2h12q4 -2 4 4l-2 4q4 2 10 3t12 1q6 -2 2 6q0 2 12 4h6q4 -2 6 2 q12 8 24 10h8q8 -2 8 2q4 4 9 6t9 2h26l-2 4q0 6 2 8h70q2 6 12 9t18 1t10 -10q4 -2 8 -1t9 1t9 -2q6 16 34 12q-2 4 2 8t8 4t8 4l8 6l12 60l-8 12q-14 -6 -12 8q2 2 -1 5l-5 5q-18 4 -20 12q-8 2 -30 2h-30l-5 -5t-6 -5t-7 -3t-8 1q-8 -14 -20 -12q-4 2 -6 -2l-4 -4 l-18 -14q-4 -22 -10 -28l-6 -6l-7 -7t-7 -3q-2 -2 0 -6t0 -6h-38q-4 0 -15 -1t-19 0t-12 7q0 2 -4 6l-6 8q-2 2 -6 -1t-6 -1l14 70q0 18 12 18h2q2 2 2 6q-2 8 7 14t19 4q4 6 10 9t12 1q4 6 11 10t13 2q8 12 24 10l4 4q6 6 10 6q0 2 19 1t21 -1q4 0 5 5t5 7h158zM676 1126 l-4 -18h242l4 18h136l-4 -18h18l-2 -16h16l-18 -88h-16l-6 -34h-70l-4 -18h-532l4 18h-18l2 16h-16l22 106h16l2 16h50l4 18h174zM756 1430q-10 -12 -24 -12l-2 2q-8 2 -10 -2q0 -18 -24 -10q-2 0 2 -12l-24 2q-6 -10 -10 -12l-8 -6l-6 -4q-12 -22 -16 -22q-2 -2 -2 -8 t-2 -8q12 -4 8 -22q8 0 13 -2t5 -8q18 0 20 -12h104q8 18 26 12q4 6 11 9t11 1q10 14 22 12q2 -2 6 3t10 7q0 4 2 8l4 8t8 6q2 8 4 18l8 40q2 2 -3 5t-7 5q-16 2 -60 2h-66z" />
<glyph unicode="&#xab;" d="M168 660l14 6l-6 20l518 336l6 -20l64 30l16 -38l12 8l40 -96l-16 -6l6 -18l-16 -10l6 -20l-120 -64l-10 20l-272 -196l196 -196l18 20l96 -64l-14 -20l12 -10l-14 -18l12 -6l-76 -96l-8 8l-32 -38l-52 30l-14 -20l-386 336l14 20l-14 6zM688 660l14 6l-6 20l518 336 l6 -20l64 30l16 -38l12 8l40 -96l-16 -6l6 -18l-16 -10l6 -20l-120 -64l-10 20l-272 -196l196 -196l18 20l96 -64l-14 -20l12 -10l-14 -18l12 -6l-76 -96l-8 8l-32 -38l-52 30l-14 -20l-386 336l14 20l-14 6z" />
<glyph unicode="&#xac;" d="M1000 156l44 226h24l30 156h-4l-2 -6h-874l4 22h-24l4 22h-22l28 136h22l4 20h66l4 24h226l-4 -24h496l4 24h134v4h112l-4 -22h46l-18 -90h22l-102 -534h-22l-6 -24h-22l-4 -22h-136l4 22h-20l14 66h-24z" />
<glyph unicode="&#xad;" d="M514 756h226l-4 -24h156l4 24h176l-4 -24h24l-4 -20h22l-22 -112h-22l-10 -46h-90l-4 -22h-534l4 22h-24l4 22h-22l28 136h22l4 20h66z" />
<glyph unicode="&#xae;" d="M658 1560h152v-36h168v-32h104v-34h98v-34h36v-34h32v-30h34v-38h32v-30h36v-70h36v-38h30v-66h38v-70h28v-170h38v-160h-38v-106h-28v-166h-38v-70h-30v-34h-36v-34h-36v-34h-32v-32h-34v-36h-68v-34h-34v-32h-32v-36h-70v-36h-66v-34h-136v-34h-252v34h-106v34h-96v36 h-68v36h-36v32h-68v34h-32v36h-32v32h-36v68h-34v70h-34v100h-32v72h-34v364h34v100h32v70h34v66h34v38h36v70h32v30h70v38h30v30h36v34h68v34h68v34h64v32h138v36zM342 1208h94v-12h32v12h48v-12h144v12h64v-12h160v-12h46v-12h16v-12h18v-16h14v-12h18v-12h14v-12h18v-28 h16v-52h16v-88h-16v-40h-16v-26h-18v-12h-14v-26h-32v-14h-18v-12h-32v-14h-30v-12h-32v-12h-32v-26h16v-14h32v-12h16v-14h16v-12h14v-12h16v-14h16v-26h18v-12h14v-12h18v-28h14v-24h18v-12h16v-28h16v-24h14v-28h34v-12h30v-12h80v-14h8v4h32v68h36v134h36v246h-36v134 h-36v68h-32v32h-32v106h-34v30h-36v36h-28v36h-72v34h-66v34h-486v-34h-68v-34h-28v-36h-38v-36h-32v-30h-34v-68h-32v-104h-34v-132h-34v-318h34v-134h34v-32h32v-70h34v-30h32v-38h38v-32h28v-38h38v-28h68v-38h98v-34h284v34h96v38h72v28h64v38h36v32h34v68h-184v16h-14 v12h-18v12h-14v26h-18v14h-16v24h-16v12h-14v28h-16v24h-16v28h-16v24h-16v28h-16v24h-16v26h-34v14h-14v24h-16v14h-16v12h-32v14h-16v12h-96v-12h-16v-272h16v-12h34v-12h92v-14h34v-38h-16v-12h-368v12h-14v38h14v14h18v12h46v12h32v634h-16v12h-16v12h-30v-12h-16v12 h-50v12h-14v40h14v12h18v12zM900 940h14v88h-14v40h-16v12h-16v12h-32v16h-16v12h-64v12h-160v-12h-16v-28h-16v-244h16v-12h224v12h32v14h16v12h16v14h16v12h16v40zM1226 370v28h-8v-28h8z" />
<glyph unicode="&#xb0;" d="M690 1966h168q-8 -12 -3 -15t17 -1h8q10 0 14 -2t0 -12q18 0 14 -18q10 4 9 -6t9 -8q6 0 5 -6t-4 -13t-1 -11q8 4 10 0t2 -8l-4 -22q-2 -12 -1 -16t11 -2l-16 -78q2 -6 -1 -11t-7 -7t-10 -4q0 -2 -1 -11t-4 -14t-9 -3q-6 0 -7 -14t-5 -16q-10 4 -14 -2q-6 -14 -8 -14 q-6 0 -9 -3t-3 -7t-4 -6t-8 2q-8 -18 -22 -18q-10 6 -14 -5t-10 -9q-8 2 -13 1t-8 -5t-3 -12h-108q-12 -4 -12 6t-4 10h-8q-10 0 -14 2t0 10q-2 4 -15 3t-11 5t1 8t-5 2t-8 2t-2 8q2 4 -4 6t-7 4t3 12q8 12 -3 14t-7 6v8q2 10 1 15t-11 1l24 120v11t4 13t12 2q2 2 4 15t8 15 q8 -2 10 1t3 12t1 11q4 4 12 8t6 14q8 2 13 1t12 0t7 7q0 4 3 6t7 2t7 2t1 10zM712 1880q-2 -14 -20 -16q2 -8 -1 -11t-7 -3t-7 -2t-5 -8q0 -12 -3 -18t-15 -4l-12 -60q0 -6 8 -8q10 -2 2 -14q12 4 13 0t1 -10t4 -6q8 4 8 -7t8 -7t11 1l4 -4t1 -6t2 -7q2 0 18 -1t16 3 q-2 4 0 8q2 6 24 6q22 -4 26 14q4 2 12 1t12 0t6 9q0 12 3 18t15 4l12 64q-14 2 -12 18q-8 -2 -11 1t0 13t3 12q2 4 -8 6t-4 14h-104z" />
<glyph unicode="&#xb1;" d="M828 1192h30l4 12h82l-4 -12h16l-2 -16h16l-4 -14h12l-54 -278h-12l-10 -52h12l-2 -14h16l-4 -16h358l-2 -14h14l-4 -18h14l-18 -96h-14l-6 -30h-60l-2 -14h-66l2 14h-22l-2 -14h-68l2 14h-154l-20 -14l-22 -106h-12l-12 -64h12l-36 -190h-12l-4 -14h-30l-20 -14l-2 -14 h-66l2 14h-30l6 28h-16l66 346h-14l4 14h-60l2 14q-74 2 -151 8t-147 6l-8 16h-14l14 70h14l4 26h14l4 18h90l2 14h282l74 374h16zM282 166h158l-4 -18h642l4 18h122l-4 -18h18l-2 -14h16l-16 -78h-16l-6 -32h-64l-4 -16h-906l4 16h-16l2 16h-16l20 94h16l2 14h46z" />
<glyph unicode="&#xb4;" d="M540 1774l122 64l8 -16l168 90l-4 16l96 50l4 -16l14 8l6 -14l12 6l28 -76l-12 -6l12 -30l-48 -26l6 -16l-376 -198l-4 16l-14 -6l-6 14l-12 -6l-36 90l12 6l-6 14l36 20z" />
<glyph unicode="&#xb5;" d="M226 -186l42 214h18l30 148h-18l32 166h8l4 24h-24l4 22h24l22 114h-24l4 20h24l22 112h-24l18 90h24l14 70h-24l8 46h-22l4 20h-110l4 24h-24l6 22h-22l4 24h22l8 42h44l4 24h158l4 22h114l-4 -22h20l-48 -248h-20l-74 -382h2l-4 -24h18l-14 -66h24l-4 -22h22l-8 -44h24 l-4 -24h44l-6 -22h68l-4 -24h120l4 24h46l6 22h66l4 24h24l4 20h22l4 24h24l110 562h-24l4 24h-22l4 20h-112l4 24h-24l14 66h24l4 22h112l4 24h112l4 22h68l-4 -22h22l-12 -66h24l-22 -114h-24l-114 -586h24l-4 -20h46l-4 -24h12l-30 -136h-34l-4 -22h-68l-4 -24h-68l4 24 h-46l4 22h-20l6 24h-70l-6 -24h-66l-4 -22h-66l-4 -24h-34l-4 -20h-134l4 20h-68l4 24h-46l4 22h-2l-52 -276h-16l-6 -22h-16l-4 -22h-98l4 22h-14l12 62h-18z" />
<glyph unicode="&#xb7;" d="M738 1310h52l-4 -16h50l-2 -14h34l-6 -28h16l-8 -44h-16l-18 -88h-18l-18 -100h-16l-4 -14h16l-22 -114h-16l-2 -14h-18l-4 -14h-84l4 14h-16l2 14h-18l18 86h-16l26 142h-18l16 74h-14l14 72h14l2 14h18l2 14h50z" />
<glyph unicode="&#xb8;" d="M572 -104l-6 10l10 6l-6 10l10 6l-6 10l276 170l4 -12l36 20l12 -20l6 4l28 -52l-8 -6l6 -8l-10 -8l4 -10l-68 -44l-6 12l-124 -76l108 -60l8 12l62 -32l-8 -12l6 -6l-6 -10l8 -4l-42 -58l-6 4l-16 -24l-32 16l-8 -14l-240 132l8 12l-8 2l8 14l-8 2z" />
<glyph unicode="&#xba;" d="M966 1738l-4 -24h66l-4 -20h24l-4 -24h22l-4 -22h24l-10 -44h20l-12 -70h22l-26 -132h-22l-10 -46h-20l-8 -46h-24l-6 -24h-22l-2 -20h-24l-6 -24h-44l-4 -22h-46l-4 -24h-178l4 24h-44l4 22h-46l6 24h-24l2 20h-20l10 46h-24l8 46h-22l40 202h22l8 44h24l10 46h20l4 24 h46l4 20h24l4 24h246zM738 1604h-24l-4 -24h-20l-8 -46h-24l-22 -112h24l-4 -20h20l-6 -24h24l-4 -22h42l-4 -24h70l4 24h66l4 22h46l10 44h24l22 112h-24l4 24h-22l8 46h-24l4 20h-178zM660 1126l-4 -18h242l4 18h136l-4 -18h18l-2 -16h16l-18 -88h-16l-6 -34h-70l-4 -18 h-532l4 18h-18l2 16h-16l22 106h16l2 16h50l4 18h174z" />
<glyph unicode="&#xbb;" d="M812 564l-14 -6l6 -20l-518 -336l-6 20l-64 -30l-16 38l-12 -8l-40 96l16 6l-6 18l16 10l-6 20l120 64l10 -20l272 196l-196 196l-18 -20l-96 64l14 20l-12 10l14 18l-12 6l76 96l8 -8l32 38l52 -30l14 20l386 -336l-14 -20l14 -6zM1332 564l-14 -6l6 -20l-518 -336 l-6 20l-64 -30l-16 38l-12 -8l-40 96l16 6l-6 18l16 10l-6 20l120 64l10 -20l272 196l-196 196l-18 -20l-96 64l14 20l-12 10l14 18l-12 6l76 96l8 -8l32 38l52 -30l14 20l386 -336l-14 -20l14 -6z" />
<glyph unicode="&#xbc;" d="M1284 952h112l-4 -24h24l-10 -46h-24l-4 -20h-22l-4 -24h-44l-4 -22h-46l-6 -24h-44l-2 -20h-46l-6 -22h-44l-4 -24h-46l-4 -22h-46l-4 -24h-42l-4 -20h-44l-6 -24h-24l-4 -22h-66l-4 -24h-46l-4 -20h-46l-4 -24h-44l-6 -22h-24l-4 -24h-42l-4 -22h-46l-4 -24h-68l-4 -20 h-46l-4 -22h-46l-6 -24h-44l-4 -20h-22l-4 -24h-44l-4 -22h-46l-6 -24h-44l-4 -22h-22l4 22h-24l6 24h-22l12 66h22l6 24h24l4 22h46l4 20h44l4 24h66l4 22h46l4 24h44l6 22h22l4 24h46l4 20h68l4 24h46l4 22h20l6 24h46l4 20h90l4 24h22l4 22h24l4 24h44l6 22h46l2 20h44 l6 24h42l4 22h46l4 24h46l4 20h44l6 24h46l4 22h44zM642 1582h160l-4 -24h20l-12 -66h22l-22 -112h-22l-76 -382h22l-8 -46h44l-4 -24h160l-4 -22h22l-18 -90h-564l4 22h-42l18 90h42l4 24h160l4 22h22l80 406h-22l8 44h-114l-4 -22h-66l4 22h-22l8 44h-24l8 44h24l10 46 h178zM834 478h90l-4 -24h22l-8 -42h-22l-10 -44h-24l-8 -46h-20l-10 -46h-24l-12 -68h-22l-10 -46h-24l-8 -44h-20l-18 -88h246l4 20h22l32 158h24l12 68h20l4 22h46l-4 -22h24l-4 -24h20l-30 -156h24l-10 -46h22l-4 -20h90l-4 -24h22l-4 -22h24l-14 -68h-24l-8 -46h-112 l-4 -20h-22l-14 -70h-24l-8 -42h-20l-4 -24h-70l4 24h-20l4 20h-24l14 68h-22l8 44h-46l4 24h-24l-4 -24h-292l4 24h-20l4 22h-24l6 24h-22l20 110h22l14 68h24l4 24h20l10 44h24l8 46h22l12 66h24l6 24h22l12 66h24l10 46h20l4 20h24z" />
<glyph unicode="&#xbd;" d="M772 1572l-4 -24h24l-4 -22h20l-110 -564h46l-4 -20h156l-4 -24h24l-4 -22h22l-10 -46h-22l-4 -22h-562l4 22h-22l14 68h42l4 24h160l8 44h22l76 384h-22l12 66h-90l-4 -24h-90l4 24h-22l4 20h-24l14 70h24l4 22h132l4 24h182zM1376 986l-4 -24h22l-18 -90h-42l-4 -22 h-24l-4 -22h-66l-4 -22h-46l-4 -24h-44l-6 -22h-46l-4 -24h-46l-4 -20h-44l-4 -22h-46l-4 -24h-44l-6 -22h-46l-4 -22h-44l-4 -22h-22l-4 -24h-46l-4 -22h-44l-6 -24h-66l-4 -20h-24l-4 -24h-46l-4 -22h-66l-4 -24h-46l-4 -20h-44l-6 -24h-24l-4 -22h-46l-4 -22h-42l-4 -24 h-24l-4 -20h-66l4 20h-24l18 92h24l4 20h44l4 24h68l4 22h44l4 24h22l4 20h68l6 24h46l4 22h46l4 24h20l4 22h70l4 22h42l6 22h44l4 24h24l4 22h46l4 20h46l4 24h20l6 22h46l4 24h44l4 22h46l4 22h44l4 22h68l6 24h44l4 22h24l4 24h46l4 20h20l4 24h90zM1038 514l-4 -24h66 l-4 -22h46l-4 -24h24l-4 -20h20l-6 -24h24l-8 -44h22l-8 -44h24l-14 -70h-24l-8 -44h-22l-10 -46h-24l-4 -22h-20l-4 -24h-46l-4 -20h-24l-4 -24h-44l-6 -22h-22l-4 -20h-70l-4 -24h-42l-4 -22h-24l-4 -24h-44l-4 -22h-22l-6 -24h-24l-4 -20h24l-4 -24h268l4 24h46l4 20h44 l6 24h70l-6 -24h20l-22 -110h-20l-8 -46h-46l-4 -24h-68l4 24h-182l-4 -24h-336l4 24h-42l4 22h-24l18 90h24l8 44h20l6 24h22l4 22h44l4 24h24l4 22h68l4 24h44l4 20h24l6 22h46l4 24h44l4 20h22l4 24h20l4 22h46l6 24h24l4 22h22l4 24h24l22 110h-24l4 24h-22l4 22h-90 l4 22h-22l-4 -22h-134l-4 -22h-24l-4 -24h-22l-10 -44h-24l-8 -46h-22l-4 -20h-24l-4 -24h-66l8 44h-20l8 46h20l14 68h22l8 44h24l6 24h20l4 20h46l4 24h46l4 22h68l4 24h202z" />
<glyph unicode="&#xbe;" d="M834 478h90l-4 -24h22l-8 -42h-22l-10 -44h-24l-8 -46h-20l-10 -46h-24l-12 -68h-22l-10 -46h-24l-8 -44h-20l-18 -88h246l4 20h22l32 158h24l12 68h20l4 22h46l-4 -22h24l-4 -24h20l-30 -156h24l-10 -46h22l-4 -20h90l-4 -24h22l-4 -22h24l-14 -68h-24l-8 -46h-112 l-4 -20h-22l-14 -70h-24l-8 -42h-20l-4 -24h-70l4 24h-20l4 20h-24l14 68h-22l8 44h-46l4 24h-24l-4 -24h-292l4 24h-20l4 22h-24l6 24h-22l20 110h22l14 68h24l4 24h20l10 44h24l8 46h22l12 66h24l6 24h22l12 66h24l10 46h20l4 20h24zM590 1584h48l-2 -12h64l-2 -12h40 l-2 -12h26l-2 -12h28l-2 -12h14l-4 -12h12l-2 -12h14l-4 -22h12l-2 -12h12l-10 -48h14l-30 -122l-8 -4l-8 -38h-12l-4 -22h-16q0 -4 -4 -8l-8 -4l-2 -14h-16q0 -2 -1 -2t-1 -2l-2 -2l-8 -4l-2 -4h14l-2 -12h12l-2 -12h14l-2 -12h12l-2 -12h12l-2 -12h14l-4 -12h14l-4 -24h14 l-4 -24h12l-10 -46h14l-22 -88l-10 -4l-6 -36h-12q-4 -8 -8 -17t-4 -13l-10 -4l-4 -24h-16q-4 -8 -8 -20l-8 -4l-2 -12h-12l-4 -12h-16q0 -2 -1 -4t-1 -4l-10 -4l-2 -12h-12l-2 -10h-28l-2 -14h-40l-2 -12h-40l-4 -12h-218l4 12h-40l2 12q-4 0 -10 2t-10 2l-2 10q-4 0 -10 2 t-10 2l-4 6h-28l2 12h-14l6 24h-12l8 26l14 6v4l12 6l2 14l52 -6l4 -8h28l-2 -10h26l-2 -12h52l-4 -12h112l4 12h40l2 12h32v4l12 6q0 4 4 8l12 6q0 2 4 6l10 6q4 4 4 8t2 8l12 6q6 8 6 18l12 6q0 4 4 15t6 15l10 6l16 76h-14l6 38q-4 2 -10 2l-2 6h-14l4 24h-26l4 12h-12 l2 12h-28l2 12h-106l2 12h-12l2 12h-14l14 50l12 6l2 10h78l2 14h40l2 12h30q4 4 4 8t2 8l10 6q6 8 6 18l12 6l4 24h12l12 64h-12l6 24h-14l4 24q-2 0 -4 1t-4 1l-2 12q-4 2 -10 2l-2 10q-2 2 -8 2l-2 10q-4 2 -10 2l-4 6h-98l-2 -10h-16q0 -2 -1 -4t-1 -4l-10 -4l-2 -12 h-16q-4 -8 -8 -20l-8 -4l-6 -24h-16q0 -2 -1 -4t-1 -4l-10 -4l-2 -12h-86l2 12h-10l16 60l8 6q0 6 4 17t6 15l12 6l2 10h12l6 24h12l2 12h26l2 12h26l2 12h28l2 12h66zM1284 952h112l-4 -24h24l-10 -46h-24l-4 -20h-22l-4 -24h-44l-4 -22h-46l-6 -24h-44l-2 -20h-46l-6 -22 h-44l-4 -24h-46l-4 -22h-46l-4 -24h-42l-4 -20h-44l-6 -24h-24l-4 -22h-66l-4 -24h-46l-4 -20h-46l-4 -24h-44l-6 -22h-24l-4 -24h-42l-4 -22h-46l-4 -24h-68l-4 -20h-46l-4 -22h-46l-6 -24h-44l-4 -20h-22l-4 -24h-44l-4 -22h-46l-6 -24h-44l-4 -22h-22l4 22h-24l6 24h-22 l12 66h22l6 24h24l4 22h46l4 20h44l4 24h66l4 22h46l4 24h44l6 22h22l4 24h46l4 20h68l4 24h46l4 22h20l6 24h46l4 20h90l4 24h22l4 22h24l4 24h44l6 22h46l2 20h44l6 24h42l4 22h46l4 24h46l4 20h44l6 24h46l4 22h44z" />
<glyph unicode="&#xbf;" d="M594 -140l4 20h-90l4 24h-22l4 22h-44l6 24h-24l4 22h-22l4 20h-24l4 24h-22l4 22h-24l14 68h-20l34 182h20l14 66h24l8 46h22l10 44h24l4 22h22l4 24h24l4 20h20l4 24h24l6 22h22l4 24h20l8 46h24l4 20h22l4 22h24l10 44h20l8 46h24l32 160h22l4 20h114l-4 -20h22 l-26 -136h-22l-14 -70h-24l-10 -44h-20l-4 -22h-24l-8 -44h-22l-8 -46h-46l-10 -46h-24l-4 -20h-20l-4 -24h-24l-10 -46h-22l-8 -44h-24l-8 -46h-20l-36 -178h20l-14 -70h24l-8 -44h46l-4 -22h202l4 22h24l6 24h20l8 44h22l34 182h24l4 20h20l6 22h116l-6 -22h20l-4 -20h24 l-30 -160h-24l-4 -22h-20l-8 -44h-24l-10 -46h-22l-4 -24h-24l-8 -42h-46l-6 -24h-44l-4 -22h-22l-4 -24h-66l-4 -20h-180zM874 1074l4 22h-44l4 24h-46l10 44h-24l8 46h-20l14 66h20l8 46h24l8 44h46l4 22h202l-4 -22h24l-4 -24h20l-30 -156h-20l-4 -22h-24l-10 -44h-46 l-4 -24h-44l-4 -22h-68z" />
<glyph unicode="&#xc0;" d="M652 724h20l8 44h24l14 68h22l8 46h24l18 90h22l8 44h24l14 68h20l8 44h46l4 22h24l-8 -46h20l-8 -42h24l-14 -68h22l-8 -46h20l-14 -66h24l-14 -70h22l-16 -88h24l-8 -44h22l-14 -70h-46l-4 -20h-338l4 20h-20zM976 1466h-24l-4 -24h-44l-18 -88h-22l-18 -90h-24l-8 -46 h-22l-14 -68h-24l-12 -66h-20l-18 -90h-24l-14 -68h-22l-8 -44h-20l-14 -70h-24l-8 -44h-22l-8 -44h-24l-18 -90h-20l-8 -44h-24l-10 -46h-22l-8 -46h-24l-14 -68h-22l-12 -66h-24l-14 -68h-20l-4 -24h-24l-12 -66h-22l-6 -24h-24l-4 -20h-42l-4 -24h-44l-4 -22h-24l-18 -90 h44l-4 -22h226l4 22h246l4 24h22l14 66h-22l4 22h-134l4 24h-22l4 20h-24l18 90h24l14 70h22l16 88h24l6 24h42l4 20h160l-4 -20h312l-6 -24h24l-4 -22h22l-8 -44h24l-14 -68h20l-12 -68h24l-14 -66h-24l-4 -24h-66l-4 -22h-90l-6 -24h-24l-12 -66h70l-4 -22h472l4 22h20 l18 90h-44l4 22h-66l4 24h-46l10 44h-24l8 46h-20l8 44h-24l14 68h-22l8 44h-24l18 90h-22l8 46h-20l10 46h-24l18 90h-22l8 44h-24l8 44h-20l8 44h-24l14 70h-22l14 66h-24l12 68h-20l14 68h-24l12 66h-22l14 68h-24l12 68h-22l10 44h-24l14 70h-20l8 42h-22l4 24h-24l4 22 h-66zM1058 1690l28 -18l-10 -14l8 -8l-70 -90l-10 6l-12 -14l-10 6l-12 -16l-298 200l12 16l-38 26l24 30l-10 6l58 74l10 -6l10 14l12 -6l10 16l76 -52l-10 -16l134 -90l14 16l96 -64z" />
<glyph unicode="&#xc1;" d="M626 610h20l-4 -20h338l4 20h46l14 70h-22l8 44h-24l16 88h-22l14 70h-24l14 66h-20l8 46h-22l14 68h-24l8 42h-20l8 46h-24l-4 -22h-46l-8 -44h-20l-14 -68h-24l-8 -44h-22l-18 -90h-24l-8 -46h-22l-14 -68h-24l-8 -44h-20zM976 1488h66l-4 -22h24l-4 -24h22l-8 -42h20 l-14 -70h24l-10 -44h22l-12 -68h24l-14 -68h22l-12 -66h24l-14 -68h20l-12 -68h24l-14 -66h22l-14 -70h24l-8 -44h20l-8 -44h24l-8 -44h22l-18 -90h24l-10 -46h20l-8 -46h22l-18 -90h24l-8 -44h22l-14 -68h24l-8 -44h20l-8 -46h24l-10 -44h46l-4 -24h66l-4 -22h44l-18 -90 h-20l-4 -22h-472l4 22h-70l12 66h24l6 24h90l4 22h66l4 24h24l14 66h-24l12 68h-20l14 68h-24l8 44h-22l4 22h-24l6 24h-312l4 20h-160l-4 -20h-42l-6 -24h-24l-16 -88h-22l-14 -70h-24l-18 -90h24l-4 -20h22l-4 -24h134l-4 -22h22l-14 -66h-22l-4 -24h-246l-4 -22h-226 l4 22h-44l18 90h24l4 22h44l4 24h42l4 20h24l6 24h22l12 66h24l4 24h20l14 68h24l12 66h22l14 68h24l8 46h22l10 46h24l8 44h20l18 90h24l8 44h22l8 44h24l14 70h20l8 44h22l14 68h24l18 90h20l12 66h24l14 68h22l8 46h24l18 90h22l18 88h44l4 24h24zM1006 1702l122 64 l8 -16l168 90l-4 16l96 50l4 -16l14 8l6 -14l12 6l28 -76l-12 -6l12 -30l-48 -26l6 -16l-376 -198l-4 16l-14 -6l-6 14l-12 -6l-36 90l12 6l-6 14l36 20z" />
<glyph unicode="&#xc2;" d="M980 1488h66l-4 -22h24l-4 -24h22l-8 -42h20l-14 -70h24l-10 -44h22l-12 -68h24l-14 -68h22l-12 -66h24l-14 -68h20l-12 -68h24l-14 -66h22l-14 -70h24l-8 -44h20l-8 -44h24l-8 -44h22l-18 -90h24l-10 -46h20l-8 -46h22l-18 -90h24l-8 -44h22l-14 -68h24l-8 -44h20 l-8 -46h24l-10 -44h46l-4 -24h66l-4 -22h44l-18 -90h-20l-4 -22h-472l4 22h-70l12 66h24l6 24h90l4 22h66l4 24h24l14 66h-24l12 68h-20l14 68h-24l8 44h-22l4 22h-24l6 24h-312l4 20h-160l-4 -20h-42l-6 -24h-24l-16 -88h-22l-14 -70h-24l-18 -90h24l-4 -20h22l-4 -24h134 l-4 -22h22l-14 -66h-22l-4 -24h-246l-4 -22h-226l4 22h-44l18 90h24l4 22h44l4 24h42l4 20h24l6 24h22l12 66h24l4 24h20l14 68h24l12 66h22l14 68h24l8 46h22l10 46h24l8 44h20l18 90h24l8 44h22l8 44h24l14 70h20l8 44h22l14 68h24l18 90h20l12 66h24l14 68h22l8 46h24 l18 90h22l18 88h44l4 24h24zM630 610h20l-4 -20h338l4 20h46l14 70h-22l8 44h-24l16 88h-22l14 70h-24l14 66h-20l8 46h-22l14 68h-24l8 42h-20l8 46h-24l-4 -22h-46l-8 -44h-20l-14 -68h-24l-8 -44h-22l-18 -90h-24l-8 -46h-22l-14 -68h-24l-8 -44h-20zM1090 1876l12 6 l4 -8l12 6l2 -8l14 6l100 -254l-12 -6l10 -34l-24 -14l4 -6l-64 -34l-2 8l-12 -6l-4 8l-12 -6l-26 64l14 8l-46 114l-90 -114l10 -8l-50 -64l-12 6l-8 -8l-8 6l-6 -8l-48 34l4 6l-20 14l26 34l-12 6l200 254l10 -6l6 8l12 -6l4 8z" />
<glyph unicode="&#xc4;" d="M652 724h20l8 44h24l14 68h22l8 46h24l18 90h22l8 44h24l14 68h20l8 44h46l4 22h24l-8 -46h20l-8 -42h24l-14 -68h22l-8 -46h20l-14 -66h24l-14 -70h22l-16 -88h24l-8 -44h22l-14 -70h-46l-4 -20h-338l4 20h-20zM976 1466h-24l-4 -24h-44l-18 -88h-22l-18 -90h-24l-8 -46 h-22l-14 -68h-24l-12 -66h-20l-18 -90h-24l-14 -68h-22l-8 -44h-20l-14 -70h-24l-8 -44h-22l-8 -44h-24l-18 -90h-20l-8 -44h-24l-10 -46h-22l-8 -46h-24l-14 -68h-22l-12 -66h-24l-14 -68h-20l-4 -24h-24l-12 -66h-22l-6 -24h-24l-4 -20h-42l-4 -24h-44l-4 -22h-24l-18 -90 h44l-4 -22h226l4 22h246l4 24h22l14 66h-22l4 22h-134l4 24h-22l4 20h-24l18 90h24l14 70h22l16 88h24l6 24h42l4 20h160l-4 -20h312l-6 -24h24l-4 -22h22l-8 -44h24l-14 -68h20l-12 -68h24l-14 -66h-24l-4 -24h-66l-4 -22h-90l-6 -24h-24l-12 -66h70l-4 -22h472l4 22h20 l18 90h-44l4 22h-66l4 24h-46l10 44h-24l8 46h-20l8 44h-24l14 68h-22l8 44h-24l18 90h-22l8 46h-20l10 46h-24l18 90h-22l8 44h-24l8 44h-20l8 44h-24l14 70h-22l14 66h-24l12 68h-20l14 68h-24l12 66h-22l14 68h-24l12 68h-22l10 44h-24l14 70h-20l8 42h-22l4 24h-24l4 22 h-66zM718 1762l4 22h20l4 24h70l4 20h22l-4 -20h66l-4 -24h24l-4 -22h20l-26 -136h-20l-10 -44h-24l-4 -22h-66l-4 -24h-22l4 24h-70l10 46h-20l4 20h-24l26 136h24zM1224 1742l8 42h44l4 24h46l4 20h20l-4 -20h68l-4 -24h24l-4 -22h20l-30 -156h-20l-6 -24h-24l-4 -22h-22 l-4 -24h-90l4 24h-46l10 46h-20l12 66h-24l14 70h24z" />
<glyph unicode="&#xc6;" d="M690 1480h66l-4 -22h24l-2 -16h946l-4 -22h24l-14 -66h22l-18 -90h-22l-22 -114h-24l-12 -66h-20l-4 -22h-92l8 42h-24l22 114h-20l8 46h-46l4 22h-134l6 24h-338l-156 4l30 -108l-6 -32l40 -180h-16l-14 -68h24l-12 -68h22l-4 -22h246l8 46h24l8 44h22l14 68h24l4 22h46 l-4 -22h20l-8 -46h24l-6 -22h-24l-78 -406h-66l4 24h-24l10 46h-22l8 44h-24l10 46h-20l4 20h-66l4 24h-160l-2 -8h20l-8 -44h22l-18 -90h24l-8 -46h20l-10 -46h22l-18 -90h24l-8 -44h22l-14 -68h24l-8 -44h20l-8 -46h24l-10 -44h46l-2 -16h138l4 24h90l4 20h42l6 24h24 l8 46h22l18 90h24l12 66h22l4 22h68l-4 -22h22l-8 -44h24l-62 -314h-24l-4 -24h-22l-4 -22h-44l-4 -24h-46l4 24h-250l-2 -8h-472l4 22h-70l14 66h24l4 24h90l4 22h66l4 24h24l14 66h-24l12 68h-20l14 68h-24l8 44h-22l6 22h-24l4 24h-312l4 20h-160l-4 -20h-42l-4 -24h-24 l-18 -88h-22l-14 -70h-24l-18 -90h24l-4 -20h22l-4 -24h134l-4 -22h22l-12 -66h-22l-6 -24h-246l-4 -22h-226l4 22h-44l18 90h24l4 22h44l4 24h42l4 20h24l6 24h22l12 66h24l4 24h20l14 68h24l14 66h22l12 68h24l10 46h22l8 46h24l8 44h20l18 90h24l8 44h22l10 44h24l12 70 h20l10 44h22l12 68h24l18 90h20l12 66h24l14 68h22l10 46h24l16 90h22l18 88h44l4 24h24zM340 602h20l-4 -20h338l4 20h46l14 70h-22l8 44h-24l18 88h-22l12 70h-24l14 66h-20l8 46h-22l14 68h-24l8 42h-20l8 46h-24l-4 -22h-46l-8 -44h-20l-14 -68h-24l-8 -44h-22l-18 -90 h-24l-8 -46h-22l-14 -68h-24l-8 -44h-20z" />
<glyph unicode="&#xc7;" d="M1030 1466l-4 -24h114l-4 -22h202l-4 -20h20l-10 -46h24l-8 -44h-24l-44 -226h24l-10 -46h-24l-4 -22h-20l-4 -22h-92l4 22h-20l10 46h-24l22 112h-22l8 44h-24l4 22h-20l4 24h-24l4 22h-46l6 24h-268l-6 -24h-44l-4 -22h-46l-4 -24h-24l-4 -22h-22l-4 -22h-24l-10 -46 h-20l-4 -22h-24l-8 -44h-22l-14 -68h-20l-18 -90h-24l-38 -202h-22l-14 -68h22l-34 -182h24l-18 -86h20l-14 -70h22l-4 -22h24l-8 -44h20l-4 -24h24l-4 -22h22l-6 -24h46l-4 -20h44l-4 -24h46l-4 -22h202l4 22h44l4 24h46l4 20h24l6 24h20l8 46h24l4 20h22l18 92h24l12 66 h20l6 24h22l4 20h70l-4 -20h44l-58 -292h-24l-4 -24h-20l-4 -22h-24l-6 -24h-46l-4 -22h-22l-4 -20h-44l-4 -24h-46l-4 -22h-90l-4 -24h-20l10 -142l-10 -4l10 -148l-22 -6v-20l-16 -4v-18l-94 -26l-2 18l-38 -10l-6 78l-20 -6l-10 268h-8l4 20h-114l4 24h-68l4 22h-44l4 24 h-46l4 20h-20l4 22h-24l6 24h-22l4 22h-24l4 24h-20l10 44h-24l4 22h-22l4 24h-24l12 66h-22l10 46h-24l12 66h-20l22 114h-24l62 314h24l18 90h20l12 68h24l14 68h22l8 44h24l10 46h22l4 22h24l8 44h20l4 24h24l4 22h22l6 24h24l4 20h20l4 24h22l4 22h44l6 24h24l4 20h46 l4 22h66l4 24h248z" />
<glyph unicode="&#xc8;" d="M340 1420h-22l-14 -66h22l-4 -24h24l-4 -20h112l-6 -24h44l-214 -1104h-20l-4 -20h-24l-4 -24h-68l-4 -22h-44l-6 -24h-24l-8 -42h24l-4 -24h20l-4 -22h946l-4 -24h46l4 24h44l4 22h22l4 24h24l62 314h-24l8 44h-22l4 22h-68l-4 -22h-22l-12 -66h-24l-18 -90h-22l-8 -46 h-24l-6 -24h-42l-4 -20h-90l-4 -24h-406l4 24h-22l10 44h-24l86 450h24l6 24h22l8 44h160l-4 -24h66l-4 -20h20l-10 -46h24l-8 -44h22l-10 -46h24l-4 -24h66l78 406h24l6 22h-24l8 46h-20l4 22h-46l-4 -22h-24l-14 -68h-22l-8 -44h-24l-8 -46h-246l4 22h-22l12 68h-24l14 68 h24l56 292h22l6 24h338l-6 -24h134l-4 -22h46l-8 -46h20l-22 -114h24l-8 -42h92l4 22h20l12 66h24l22 114h22l18 90h-22l14 66h-24l4 22h-1056zM1078 1684l28 -18l-10 -14l8 -8l-68 -90l-12 6l-10 -14l-12 6l-10 -16l-300 200l14 16l-40 26l24 30l-8 6l56 74l10 -6l12 14 l10 -6l12 16l76 -52l-12 -16l134 -90l14 16l98 -64z" />
<glyph unicode="&#xc9;" d="M344 1442h1056l-4 -22h24l-14 -66h22l-18 -90h-22l-22 -114h-24l-12 -66h-20l-4 -22h-92l8 42h-24l22 114h-20l8 46h-46l4 22h-134l6 24h-338l-6 -24h-22l-56 -292h-24l-14 -68h24l-12 -68h22l-4 -22h246l8 46h24l8 44h22l14 68h24l4 22h46l-4 -22h20l-8 -46h24l-6 -22 h-24l-78 -406h-66l4 24h-24l10 46h-22l8 44h-24l10 46h-20l4 20h-66l4 24h-160l-8 -44h-22l-6 -24h-24l-86 -450h24l-10 -44h22l-4 -24h406l4 24h90l4 20h42l6 24h24l8 46h22l18 90h24l12 66h22l4 22h68l-4 -22h22l-8 -44h24l-62 -314h-24l-4 -24h-22l-4 -22h-44l-4 -24h-46 l4 24h-946l4 22h-20l4 24h-24l8 42h24l6 24h44l4 22h68l4 24h24l4 20h20l214 1104h-44l6 24h-112l4 20h-24l4 24h-22l14 66h22zM728 1702l122 64l8 -16l168 90l-4 16l96 50l4 -16l14 8l6 -14l12 6l28 -76l-12 -6l12 -30l-48 -26l6 -16l-376 -198l-4 16l-14 -6l-6 14l-12 -6 l-36 90l12 6l-6 14l36 20z" />
<glyph unicode="&#xca;" d="M344 1442h1056l-4 -22h24l-14 -66h22l-18 -90h-22l-22 -114h-24l-12 -66h-20l-4 -22h-92l8 42h-24l22 114h-20l8 46h-46l4 22h-134l6 24h-338l-6 -24h-22l-56 -292h-24l-14 -68h24l-12 -68h22l-4 -22h246l8 46h24l8 44h22l14 68h24l4 22h46l-4 -22h20l-8 -46h24l-6 -22 h-24l-78 -406h-66l4 24h-24l10 46h-22l8 44h-24l10 46h-20l4 20h-66l4 24h-160l-8 -44h-22l-6 -24h-24l-86 -450h24l-10 -44h22l-4 -24h406l4 24h90l4 20h42l6 24h24l8 46h22l18 90h24l12 66h22l4 22h68l-4 -22h22l-8 -44h24l-62 -314h-24l-4 -24h-22l-4 -22h-44l-4 -24h-46 l4 24h-946l4 22h-20l4 24h-24l8 42h24l6 24h44l4 22h68l4 24h24l4 20h20l214 1104h-44l6 24h-112l4 20h-24l4 24h-22l14 66h22zM1010 1880l14 6l2 -8l14 6l2 -8l12 6l102 -254l-14 -6l12 -34l-26 -14l4 -6l-62 -34l-4 8l-10 -6l-4 8l-14 -6l-26 64l14 8l-46 114l-90 -114 l10 -8l-50 -64l-10 6l-8 -8l-10 6l-4 -8l-50 34l4 6l-18 14l24 34l-10 6l198 254l12 -6l6 8l10 -6l6 8z" />
<glyph unicode="&#xcb;" d="M340 1420h-22l-14 -66h22l-4 -24h24l-4 -20h112l-6 -24h44l-214 -1104h-20l-4 -20h-24l-4 -24h-68l-4 -22h-44l-6 -24h-24l-8 -42h24l-4 -24h20l-4 -22h946l-4 -24h46l4 24h44l4 22h22l4 24h24l62 314h-24l8 44h-22l4 22h-68l-4 -22h-22l-12 -66h-24l-18 -90h-22l-8 -46 h-24l-6 -24h-42l-4 -20h-90l-4 -24h-406l4 24h-22l10 44h-24l86 450h24l6 24h22l8 44h160l-4 -24h66l-4 -20h20l-10 -46h24l-8 -44h22l-10 -46h24l-4 -24h66l78 406h24l6 22h-24l8 46h-20l4 22h-46l-4 -22h-24l-14 -68h-22l-8 -44h-24l-8 -46h-246l4 22h-22l12 68h-24l14 68 h24l56 292h22l6 24h338l-6 -24h134l-4 -22h46l-8 -46h20l-22 -114h24l-8 -42h92l4 22h20l12 66h24l22 114h22l18 90h-22l14 66h-24l4 22h-1056zM626 1772l4 22h20l4 24h70l4 20h22l-4 -20h66l-4 -24h24l-4 -22h20l-26 -136h-20l-10 -44h-24l-4 -22h-66l-4 -24h-22l4 24h-70 l10 46h-20l4 20h-24l26 136h24zM1132 1752l8 42h44l4 24h46l4 20h20l-4 -20h68l-4 -24h24l-4 -22h20l-30 -156h-20l-6 -24h-24l-4 -22h-22l-4 -24h-90l4 24h-46l10 46h-20l12 66h-24l14 70h24z" />
<glyph unicode="&#xcc;" d="M1094 1442h-676l-8 -42h-24l-14 -70h24l-4 -20h158l-6 -24h180l-4 -22h22l-12 -68h24l-18 -92h-24l-174 -898h-22l-10 -44h-46l-4 -24h-68l4 24h-112l-4 -24h-44l-4 -22h-22l-14 -66h22l-4 -24h20l-4 -22h834l4 22h46l12 66h-24l6 24h-22l4 22h-316l4 24h-46l4 20h-20 l128 654h-24l12 66h24l70 362h20l4 22h202l6 24h114l12 66h22l6 24h-22l4 20h-24l4 22h-156l4 24h-20zM936 1680l28 -18l-10 -14l8 -8l-70 -90l-10 6l-12 -14l-10 6l-12 -16l-298 200l12 16l-38 26l24 30l-10 6l58 74l10 -6l10 14l12 -6l10 16l76 -52l-10 -16l134 -90l14 16 l96 -64z" />
<glyph unicode="&#xcd;" d="M1096 1466h20l-4 -24h156l-4 -22h24l-4 -20h22l-6 -24h-22l-12 -66h-114l-6 -24h-202l-4 -22h-20l-70 -362h-24l-12 -66h24l-128 -654h20l-4 -20h46l-4 -24h316l-4 -22h22l-6 -24h24l-12 -66h-46l-4 -22h-834l4 22h-20l4 24h-22l14 66h22l4 22h44l4 24h112l-4 -24h68 l4 24h46l10 44h22l174 898h24l18 92h-24l12 68h-22l4 22h-180l6 24h-158l4 20h-24l14 70h24l8 42h676zM856 1702l122 64l8 -16l168 90l-4 16l96 50l4 -16l14 8l6 -14l12 6l28 -76l-12 -6l12 -30l-48 -26l6 -16l-376 -198l-4 16l-14 -6l-6 14l-12 -6l-36 90l12 6l-6 14l36 20 z" />
<glyph unicode="&#xce;" d="M1098 1466h20l-4 -24h156l-4 -22h24l-4 -20h22l-6 -24h-22l-12 -66h-114l-6 -24h-202l-4 -22h-20l-70 -362h-24l-12 -66h24l-128 -654h20l-4 -20h46l-4 -24h316l-4 -22h22l-6 -24h24l-12 -66h-46l-4 -22h-834l4 22h-20l4 24h-22l14 66h22l4 22h44l4 24h112l-4 -24h68 l4 24h46l10 44h22l174 898h24l18 92h-24l12 68h-22l4 22h-180l6 24h-158l4 20h-24l14 70h24l8 42h676zM948 1892l14 6l2 -8l14 6l2 -8l14 6l100 -254l-14 -6l12 -34l-24 -14l2 -6l-62 -34l-2 8l-12 -6l-4 8l-14 -6l-26 64l14 8l-46 114l-90 -114l10 -8l-50 -64l-10 6l-8 -8 l-8 6l-6 -8l-50 34l6 6l-20 14l24 34l-10 6l200 254l10 -6l6 8l10 -6l6 8z" />
<glyph unicode="&#xcf;" d="M1090 1442h-676l-8 -42h-24l-14 -70h24l-4 -20h158l-6 -24h180l-4 -22h22l-12 -68h24l-18 -92h-24l-174 -898h-22l-10 -44h-46l-4 -24h-68l4 24h-112l-4 -24h-44l-4 -22h-22l-14 -66h22l-4 -24h20l-4 -22h834l4 22h46l12 66h-24l6 24h-22l4 22h-316l4 24h-46l4 20h-20 l128 654h-24l12 66h24l70 362h20l4 22h202l6 24h114l12 66h22l6 24h-22l4 20h-24l4 22h-156l4 24h-20zM580 1770l4 22h20l4 24h70l4 20h22l-4 -20h66l-4 -24h24l-4 -22h20l-28 -136h-20l-8 -44h-24l-4 -22h-66l-4 -24h-22l4 24h-70l8 46h-20l4 20h-24l28 136h24zM1086 1750 l8 42h44l4 24h46l4 20h20l-4 -20h68l-4 -24h24l-4 -22h20l-32 -156h-20l-4 -24h-24l-4 -22h-22l-4 -24h-90l4 24h-46l8 46h-20l14 66h-24l14 70h24z" />
<glyph unicode="&#xd0;" d="M378 1442h158l-4 -22h248l4 22h44l-4 -22h224l-4 -20h68l-6 -24h46l-4 -22h44l-4 -24h46l-4 -20h22l-6 -24h20l-4 -22h24l-4 -24h22l-4 -22h24l-4 -22h20l-4 -22h24l-10 -46h22l-4 -24h24l-8 -42h20l-14 -68h24l-18 -92h22l-22 -110h24l-38 -202h-24l-26 -136h-22 l-14 -66h-24l-14 -70h-20l-8 -46h-24l-8 -44h-22l-4 -22h-24l-6 -24h-20l-4 -20h-24l-8 -46h-46l-6 -24h-20l-4 -22h-22l-4 -20h-46l-4 -24h-24l-4 -22h-134l-4 -24h-650l4 24h-24l4 22h-22l12 66h46l6 24h66l4 22h44l4 24h24l88 446h-162l4 22h-24l4 22h-22l26 136h22l4 20 h66l4 24h120l36 184h22l22 112h-22l10 46h22l8 44h-22l8 46h-24l4 22h-66l6 24h-90l4 20h-24l14 70h24l4 20h22zM1168 656h22l18 90h-22l30 156h-24l14 70h-20l12 66h-22l6 24h-24l8 42h-22l4 24h-24l10 46h-44l4 22h-22l4 22h-24l4 22h-20l4 24h-90l4 22h-226l-4 -22h-22 l-4 -24h-24l-84 -432h244l4 24h176l-4 -24h24l-4 -20h22l-22 -112h-22l-8 -46h-90l-4 -22h-354l-14 -64h-20l-12 -70h20l-62 -312h24l-4 -24h66l-4 -22h136l4 22h66l4 24h70l4 20h44l6 24h46l8 46h20l4 20h24l4 24h22l10 46h24l8 46h22l14 66h20l12 66h24z" />
<glyph unicode="&#xd1;" d="M614 1788h226l-4 -24h316l4 24h176l-4 -24h24l-4 -22h22l-22 -112h-22l-8 -44h-90l-6 -24h-694l6 24h-24l4 20h-22l26 136h22l4 22h66zM294 1466h136l-4 -24h202l-4 -22h24l-10 -44h20l-8 -46h24l-10 -44h22l-4 -22h24l-12 -68h20l-10 -46h22l-4 -22h24l-8 -44h20 l-10 -46h24l-8 -44h22l-8 -46h24l-6 -22h22l-4 -24h24l-8 -44h20l-10 -46h24l-8 -44h22l-4 -22h24l-8 -46h20l-4 -20h24l-10 -46h22l-8 -44h20l-4 -24h24l-6 -22h22l-8 -46h46l-4 -24h24l108 564h-24l36 180h-22l8 46h-24l4 22h-88l6 24h-44l4 20h-46l18 90h22l4 22h472 l-4 -22h22l-18 -90h-22l-4 -20h-46l-6 -24h-44l-20 -112h-22l-14 -70h22l-22 -110h-22l-88 -450h22l-100 -518h-22l-4 -22h-44l-4 -24h-70l4 24h-20l4 22h-24l4 24h-22l8 42h-24l10 46h-22l8 44h-24l10 46h-20l8 44h-22l8 46h-24l14 70h-20l4 20h-24l14 66h-22l4 24h-24 l8 46h-20l6 22h-24l8 44h-22l8 46h-24l10 44h-22l4 24h-24l8 44h-20l8 44h-24l10 46h-22l4 24h-20l8 44h-24l10 46h-22l8 44h-24l4 22h-20l10 46h-46l4 20h-24l-8 -42h-22l-118 -608h22l-40 -202h24l-8 -46h22l-6 -24h68l-4 -20h88l-4 -24h24l-4 -22h20l-18 -90h-132l-4 -22 h-360l4 22h-46l8 44h-22l4 22h22l6 24h24l4 22h22l4 24h24l4 20h20l6 24h46l208 1080h-22l6 24h-114l4 20h-22l22 112h22z" />
<glyph unicode="&#xd2;" d="M1068 498h-20l-18 -90h-24l-8 -44h-22l-10 -46h-24l-4 -22h-22l-8 -44h-20l-4 -24h-24l-4 -22h-46l-6 -24h-44l-4 -20h-90l-4 -24h-68l4 24h-66l4 20h-44l6 24h-46l4 22h-24l4 24h-20l4 20h-24l4 24h-22l10 46h-24l8 46h-22l14 66h-24l16 90h-20l80 404h20l16 90h24 l14 66h22l8 46h24l10 46h22l8 44h24l4 24h20l4 22h24l6 24h66l4 20h66l4 24h92l-4 -24h68l-4 -20h46l-6 -24h44l-4 -22h46l-4 -24h20l-8 -44h22l-10 -46h24l-8 -46h22l-4 -20h24l-18 -90h20l-26 -136h24l-40 -202h-24zM832 1488h-66l-4 -22h-90l-4 -24h-44l-4 -22h-22 l-4 -20h-46l-6 -24h-24l-4 -22h-44l-8 -44h-22l-6 -24h-20l-4 -22h-24l-12 -68h-22l-4 -22h-24l-14 -70h-20l-8 -42h-24l-32 -160h-22l-74 -382h22l-18 -90h24l-12 -66h20l-14 -68h24l-4 -24h22l-8 -44h24l-4 -22h20l-6 -24h22l-8 -44h24l-4 -22h20l-6 -24h46l-4 -22h46 l-4 -20h44l-4 -24h90l-4 -22h202l4 22h136l4 24h44l4 20h46l4 22h22l6 24h24l4 22h20l4 24h24l4 20h46l6 24h20l8 46h24l8 44h22l10 46h24l8 46h20l22 110h24l22 112h22l52 272h-22l22 112h-24l18 90h-20l8 44h-24l14 68h-22l8 44h-24l4 24h-20l4 22h-24l6 24h-22l8 44h-24 l4 22h-44l6 24h-22l4 20h-24l4 22h-42l4 24h-90l4 22h-136l4 24h-70zM946 1696l30 -18l-12 -14l8 -8l-68 -90l-12 6l-10 -14l-10 6l-12 -16l-300 200l14 16l-40 26l24 30l-8 6l56 74l12 -6l10 14l10 -6l12 16l76 -52l-12 -16l136 -90l12 16l98 -64z" />
<glyph unicode="&#xd3;" d="M1098 656h24l40 202h-24l26 136h-20l18 90h-24l4 20h-22l8 46h-24l10 46h-22l8 44h-20l4 24h-46l4 22h-44l6 24h-46l4 20h-68l4 24h-92l-4 -24h-66l-4 -20h-66l-6 -24h-24l-4 -22h-20l-4 -24h-24l-8 -44h-22l-10 -46h-24l-8 -46h-22l-14 -66h-24l-16 -90h-20l-80 -404h20 l-16 -90h24l-14 -66h22l-8 -46h24l-10 -46h22l-4 -24h24l-4 -20h20l-4 -24h24l-4 -22h46l-6 -24h44l-4 -20h66l-4 -24h68l4 24h90l4 20h44l6 24h46l4 22h24l4 24h20l8 44h22l4 22h24l10 46h22l8 44h24l18 90h20zM836 1512h70l-4 -24h136l-4 -22h90l-4 -24h42l-4 -22h24 l-4 -20h22l-6 -24h44l-4 -22h24l-8 -44h22l-6 -24h24l-4 -22h20l-4 -24h24l-8 -44h22l-14 -68h24l-8 -44h20l-18 -90h24l-22 -112h22l-52 -272h-22l-22 -112h-24l-22 -110h-20l-8 -46h-24l-10 -46h-22l-8 -44h-24l-8 -46h-20l-6 -24h-46l-4 -20h-24l-4 -24h-20l-4 -22h-24 l-6 -24h-22l-4 -22h-46l-4 -20h-44l-4 -24h-136l-4 -22h-202l4 22h-90l4 24h-44l4 20h-46l4 22h-46l6 24h-20l4 22h-24l8 44h-22l6 24h-20l4 22h-24l8 44h-22l4 24h-24l14 68h-20l12 66h-24l18 90h-22l74 382h22l32 160h24l8 42h20l14 70h24l4 22h22l12 68h24l4 22h20l6 24 h22l8 44h44l4 22h24l6 24h46l4 20h22l4 22h44l4 24h90l4 22h66zM890 1712l122 64l8 -16l168 90l-4 16l96 50l4 -16l14 8l6 -14l12 6l28 -76l-12 -6l12 -30l-48 -26l6 -16l-376 -198l-4 16l-14 -6l-6 14l-12 -6l-36 90l12 6l-6 14l36 20z" />
<glyph unicode="&#xd4;" d="M836 1512h70l-4 -24h136l-4 -22h90l-4 -24h42l-4 -22h24l-4 -20h22l-6 -24h44l-4 -22h24l-8 -44h22l-6 -24h24l-4 -22h20l-4 -24h24l-8 -44h22l-14 -68h24l-8 -44h20l-18 -90h24l-22 -112h22l-52 -272h-22l-22 -112h-24l-22 -110h-20l-8 -46h-24l-10 -46h-22l-8 -44h-24 l-8 -46h-20l-6 -24h-46l-4 -20h-24l-4 -24h-20l-4 -22h-24l-6 -24h-22l-4 -22h-46l-4 -20h-44l-4 -24h-136l-4 -22h-202l4 22h-90l4 24h-44l4 20h-46l4 22h-46l6 24h-20l4 22h-24l8 44h-22l6 24h-20l4 22h-24l8 44h-22l4 24h-24l14 68h-20l12 66h-24l18 90h-22l74 382h22 l32 160h24l8 42h20l14 70h24l4 22h22l12 68h24l4 22h20l6 24h22l8 44h44l4 22h24l6 24h46l4 20h22l4 22h44l4 24h90l4 22h66zM1098 656h24l40 202h-24l26 136h-20l18 90h-24l4 20h-22l8 46h-24l10 46h-22l8 44h-20l4 24h-46l4 22h-44l6 24h-46l4 20h-68l4 24h-92l-4 -24h-66 l-4 -20h-66l-6 -24h-24l-4 -22h-20l-4 -24h-24l-8 -44h-22l-10 -46h-24l-8 -46h-22l-14 -66h-24l-16 -90h-20l-80 -404h20l-16 -90h24l-14 -66h22l-8 -46h24l-10 -46h22l-4 -24h24l-4 -20h20l-4 -24h24l-4 -22h46l-6 -24h44l-4 -20h66l-4 -24h68l4 24h90l4 20h44l6 24h46 l4 22h24l4 24h20l8 44h22l4 22h24l10 46h22l8 44h24l18 90h20zM958 1886l12 6l4 -8l12 6l2 -8l14 6l100 -254l-12 -6l10 -34l-24 -14l2 -6l-62 -34l-2 8l-12 -6l-4 8l-12 -6l-26 64l14 8l-46 114l-90 -114l10 -8l-50 -64l-12 6l-8 -8l-8 6l-6 -8l-50 34l6 6l-20 14l26 34 l-12 6l200 254l10 -6l6 8l12 -6l4 8z" />
<glyph unicode="&#xd5;" d="M616 1776h226l-4 -24h316l4 24h176l-4 -24h24l-4 -22h22l-22 -112h-22l-10 -44h-90l-4 -24h-694l4 24h-24l4 20h-22l28 136h22l4 22h66zM1094 656h24l40 202h-24l26 136h-20l18 90h-24l4 20h-22l8 46h-24l10 46h-22l8 44h-20l4 24h-46l4 22h-44l6 24h-46l4 20h-68l4 24 h-92l-4 -24h-66l-4 -20h-66l-6 -24h-24l-4 -22h-20l-4 -24h-24l-8 -44h-22l-10 -46h-24l-8 -46h-22l-14 -66h-24l-16 -90h-20l-80 -404h20l-16 -90h24l-14 -66h22l-8 -46h24l-10 -46h22l-4 -24h24l-4 -20h20l-4 -24h24l-4 -22h46l-6 -24h44l-4 -20h66l-4 -24h68l4 24h90 l4 20h44l6 24h46l4 22h24l4 24h20l8 44h22l4 22h24l10 46h22l8 44h24l18 90h20zM832 1512h70l-4 -24h136l-4 -22h90l-4 -24h42l-4 -22h24l-4 -20h22l-6 -24h44l-4 -22h24l-8 -44h22l-6 -24h24l-4 -22h20l-4 -24h24l-8 -44h22l-14 -68h24l-8 -44h20l-18 -90h24l-22 -112h22 l-52 -272h-22l-22 -112h-24l-22 -110h-20l-8 -46h-24l-10 -46h-22l-8 -44h-24l-8 -46h-20l-6 -24h-46l-4 -20h-24l-4 -24h-20l-4 -22h-24l-6 -24h-22l-4 -22h-46l-4 -20h-44l-4 -24h-136l-4 -22h-202l4 22h-90l4 24h-44l4 20h-46l4 22h-46l6 24h-20l4 22h-24l8 44h-22l6 24 h-20l4 22h-24l8 44h-22l4 24h-24l14 68h-20l12 66h-24l18 90h-22l74 382h22l32 160h24l8 42h20l14 70h24l4 22h22l12 68h24l4 22h20l6 24h22l8 44h44l4 22h24l6 24h46l4 20h22l4 22h44l4 24h90l4 22h66z" />
<glyph unicode="&#xd6;" d="M1068 498h-20l-18 -90h-24l-8 -44h-22l-10 -46h-24l-4 -22h-22l-8 -44h-20l-4 -24h-24l-4 -22h-46l-6 -24h-44l-4 -20h-90l-4 -24h-68l4 24h-66l4 20h-44l6 24h-46l4 22h-24l4 24h-20l4 20h-24l4 24h-22l10 46h-24l8 46h-22l14 66h-24l16 90h-20l80 404h20l16 90h24 l14 66h22l8 46h24l10 46h22l8 44h24l4 24h20l4 22h24l6 24h66l4 20h66l4 24h92l-4 -24h68l-4 -20h46l-6 -24h44l-4 -22h46l-4 -24h20l-8 -44h22l-10 -46h24l-8 -46h22l-4 -20h24l-18 -90h20l-26 -136h24l-40 -202h-24zM832 1488h-66l-4 -22h-90l-4 -24h-44l-4 -22h-22 l-4 -20h-46l-6 -24h-24l-4 -22h-44l-8 -44h-22l-6 -24h-20l-4 -22h-24l-12 -68h-22l-4 -22h-24l-14 -70h-20l-8 -42h-24l-32 -160h-22l-74 -382h22l-18 -90h24l-12 -66h20l-14 -68h24l-4 -24h22l-8 -44h24l-4 -22h20l-6 -24h22l-8 -44h24l-4 -22h20l-6 -24h46l-4 -22h46 l-4 -20h44l-4 -24h90l-4 -22h202l4 22h136l4 24h44l4 20h46l4 22h22l6 24h24l4 22h20l4 24h24l4 20h46l6 24h20l8 46h24l8 44h22l10 46h24l8 46h20l22 110h24l22 112h22l52 272h-22l22 112h-24l18 90h-20l8 44h-24l14 68h-22l8 44h-24l4 24h-20l4 22h-24l6 24h-22l8 44h-24 l4 22h-44l6 24h-22l4 20h-24l4 22h-42l4 24h-90l4 22h-136l4 24h-70zM598 1766l4 22h20l6 24h70l4 20h22l-4 -20h66l-6 -24h24l-4 -22h20l-26 -136h-20l-8 -44h-24l-4 -22h-66l-6 -24h-22l6 24h-70l8 46h-20l4 20h-24l26 136h24zM1104 1746l8 42h44l6 24h46l4 20h20l-4 -20 h68l-6 -24h24l-4 -22h20l-30 -156h-20l-4 -24h-24l-4 -22h-22l-6 -24h-90l6 24h-46l8 46h-20l12 66h-24l14 70h24z" />
<glyph unicode="&#xd7;" d="M330 1208l36 32l12 -14l18 14l14 -16l20 16l14 -14l16 14l194 -240l-20 -14l90 -112l18 14l12 -14l22 16l12 -16l456 380l14 -14l16 14l14 -18l20 18l38 -48l-20 -16l24 -32l-76 -62l12 -16l-16 -14l-12 16l-94 -80l12 -16l-20 -16l-14 14l-246 -206l14 -16l-40 -32 l92 -112l-18 -14l102 -126l16 14l116 -144l-16 -16l12 -14l-20 -18l10 -14l-38 -32l14 -18l-16 -14l-14 18l-38 -32l-26 28l-18 -16l-298 366l-16 -14l-12 16l-80 -64l-10 16l-398 -334l-28 30l-16 -14l-12 18l16 14l-24 30l20 16l-14 18l116 96l-14 16l74 62l14 -16l18 16 l-10 16l92 78l12 -16l60 50l-14 16l112 92l-320 400l20 16l-14 18l40 32z" />
<glyph unicode="&#xd8;" d="M1188 1626h92l-6 -22h20l-4 -24h24l-18 -90h-24l-8 -44h-20l-8 -46h-24l-6 -24h32l-4 -22h24l-8 -44h22l-6 -24h24l-4 -22h20l-4 -24h24l-8 -44h22l-14 -68h24l-8 -44h20l-18 -90h24l-22 -112h22l-52 -272h-22l-22 -112h-24l-22 -110h-20l-8 -46h-24l-10 -46h-22l-8 -44 h-24l-8 -46h-20l-6 -24h-46l-4 -20h-24l-4 -24h-20l-4 -22h-24l-6 -24h-22l-4 -22h-46l-4 -20h-44l-4 -24h-136l-4 -22h-202l4 22h-32l-8 -42h-22l-18 -90h-24l-18 -92h-20l-4 -20h-24l-4 -24h-68l-4 -22h-24l4 22h-20l4 24h-24l14 66h24l16 90h20l14 66h24l14 70h10l2 18 h-46l6 24h-20l4 22h-24l8 44h-22l6 24h-20l4 22h-24l8 44h-22l4 24h-24l14 68h-20l12 66h-24l18 90h-22l74 382h22l32 160h24l8 42h20l14 70h24l4 22h22l12 68h24l4 22h20l6 24h22l8 44h44l4 22h24l6 24h46l4 20h22l4 22h44l4 24h90l4 22h66l4 24h70l-4 -24h136l-4 -22h56 l4 24h22l14 70h20l8 44h24zM416 252h12l10 48h20l12 66h24l12 66h22l14 70h24l10 46h20l8 44h22l12 66h24l18 92h20l14 66h24l8 44h22l14 70h24l12 66h22l14 66h24l14 70h20l8 44h24l12 68h22l14 66h-34l4 20h-68l4 24h-92l-4 -24h-66l-4 -20h-66l-6 -24h-24l-4 -22h-20 l-4 -24h-24l-8 -44h-22l-10 -46h-24l-8 -46h-22l-14 -66h-24l-16 -90h-20l-80 -404h20l-16 -90h24l-14 -66h22l-8 -46h24l-10 -46h22l-4 -24h24zM1098 656h24l40 202h-24l26 136h-20l18 90h-24l4 20h-22l8 46h-24l10 46h-10l-4 -20h-24l-14 -68h-20l-8 -46h-22l-10 -44h-24 l-16 -88h-20l-14 -70h-24l-12 -66h-22l-10 -44h-24l-12 -70h-20l-14 -66h-24l-8 -46h-22l-14 -66h-24l-14 -70h-22l-8 -44h-24l-16 -88h-20l-10 -46h-24l-8 -44h-22l-6 -28h12l-4 -20h66l-4 -24h68l4 24h90l4 20h44l6 24h46l4 22h24l4 24h20l8 44h22l4 22h24l10 46h22l8 44 h24l18 90h20z" />
<glyph unicode="&#xd9;" d="M184 1464h-46l-18 -94h46l-4 -22h94l-6 -24h22l-4 -22h22l-204 -1052h24l-14 -72h22l-10 -46h26l-8 -48h22l-4 -22h24l-6 -24h48l-4 -22h46l-4 -22h46l-6 -26h374l6 26h46l4 22h68l4 22h26l6 24h46l4 22h22l4 26h26l10 46h22l8 48h24l14 68h22l176 910h26l20 94h22l8 48 h68l6 24h46l16 92h-22l6 24h-442l-6 -24h-24l-8 -44h24l-4 -26h24l-4 -22h68l-6 -24h48l-14 -70h22l-144 -748h24l-6 -24h-24l-40 -210h-22l-10 -46h-26l-4 -22h-22l-4 -26h-24l-4 -22h-44l-6 -24h-94l-4 -22h-188l4 22h-46l6 24h-48l4 22h-22l4 26h-24l4 22h-22l6 24h-24 l100 514h-22l94 490h22l14 70h24l6 24h94l4 22h22l8 48h22l4 22h-22l6 24h-70l4 22h-24l-4 -22h-140l4 22h-232zM872 1686l30 -18l-12 -14l8 -8l-68 -90l-12 6l-10 -14l-10 6l-12 -16l-300 200l14 16l-40 26l24 30l-8 6l56 74l12 -6l10 14l10 -6l12 16l76 -52l-12 -16 l136 -90l12 16l98 -64z" />
<glyph unicode="&#xda;" d="M188 1486h232l-4 -22h140l4 22h24l-4 -22h70l-6 -24h22l-4 -22h-22l-8 -48h-22l-4 -22h-94l-6 -24h-24l-14 -70h-22l-94 -490h22l-100 -514h24l-6 -24h22l-4 -22h24l-4 -26h22l-4 -22h48l-6 -24h46l-4 -22h188l4 22h94l6 24h44l4 22h24l4 26h22l4 22h26l10 46h22l40 210 h24l6 24h-24l144 748h-22l14 70h-48l6 24h-68l4 22h-24l4 26h-24l8 44h24l6 24h442l-6 -24h22l-16 -92h-46l-6 -24h-68l-8 -48h-22l-20 -94h-26l-176 -910h-22l-14 -68h-24l-8 -48h-22l-10 -46h-26l-4 -26h-22l-4 -22h-46l-6 -24h-26l-4 -22h-68l-4 -22h-46l-6 -26h-374 l6 26h-46l4 22h-46l4 22h-48l6 24h-24l4 22h-22l8 48h-26l10 46h-22l14 72h-24l204 1052h-22l4 22h-22l6 24h-94l4 22h-46l18 94h46zM846 1702l122 64l8 -16l168 90l-4 16l96 50l4 -16l14 8l6 -14l12 6l28 -76l-12 -6l12 -30l-48 -26l6 -16l-376 -198l-4 16l-14 -6l-6 14 l-12 -6l-36 90l12 6l-6 14l36 20z" />
<glyph unicode="&#xdb;" d="M188 1486h232l-4 -22h140l4 22h24l-4 -22h70l-6 -24h22l-4 -22h-22l-8 -48h-22l-4 -22h-94l-6 -24h-24l-14 -70h-22l-94 -490h22l-100 -514h24l-6 -24h22l-4 -22h24l-4 -26h22l-4 -22h48l-6 -24h46l-4 -22h188l4 22h94l6 24h44l4 22h24l4 26h22l4 22h26l10 46h22l40 210 h24l6 24h-24l144 748h-22l14 70h-48l6 24h-68l4 22h-24l4 26h-24l8 44h24l6 24h442l-6 -24h22l-16 -92h-46l-6 -24h-68l-8 -48h-22l-20 -94h-26l-176 -910h-22l-14 -68h-24l-8 -48h-22l-10 -46h-26l-4 -26h-22l-4 -22h-46l-6 -24h-26l-4 -22h-68l-4 -22h-46l-6 -26h-374 l6 26h-46l4 22h-46l4 22h-48l6 24h-24l4 22h-22l8 48h-26l10 46h-22l14 72h-24l204 1052h-22l4 22h-22l6 24h-94l4 22h-46l18 94h46zM888 1884l12 6l2 -8l14 6l2 -8l14 6l100 -254l-12 -6l10 -34l-24 -14l2 -6l-62 -34l-2 8l-12 -6l-4 8l-14 -6l-24 64l12 8l-46 114 l-90 -114l12 -8l-52 -64l-10 6l-8 -8l-8 6l-6 -8l-50 34l6 6l-20 14l26 34l-12 6l200 254l10 -6l6 8l10 -6l6 8z" />
<glyph unicode="&#xdc;" d="M184 1464h-46l-18 -94h46l-4 -22h94l-6 -24h22l-4 -22h22l-204 -1052h24l-14 -72h22l-10 -46h26l-8 -48h22l-4 -22h24l-6 -24h48l-4 -22h46l-4 -22h46l-6 -26h374l6 26h46l4 22h68l4 22h26l6 24h46l4 22h22l4 26h26l10 46h22l8 48h24l14 68h22l176 910h26l20 94h22l8 48 h68l6 24h46l16 92h-22l6 24h-442l-6 -24h-24l-8 -44h24l-4 -26h24l-4 -22h68l-6 -24h48l-14 -70h22l-144 -748h24l-6 -24h-24l-40 -210h-22l-10 -46h-26l-4 -22h-22l-4 -26h-24l-4 -22h-44l-6 -24h-94l-4 -22h-188l4 22h-46l6 24h-48l4 22h-22l4 26h-24l4 22h-22l6 24h-24 l100 514h-22l94 490h22l14 70h24l6 24h94l4 22h22l8 48h22l4 22h-22l6 24h-70l4 22h-24l-4 -22h-140l4 22h-232zM512 1766l4 22h20l6 24h70l4 20h22l-4 -20h66l-6 -24h24l-4 -22h20l-26 -136h-20l-8 -44h-24l-4 -22h-66l-6 -24h-22l6 24h-70l8 46h-20l4 20h-24l26 136h24z M1018 1746l8 42h44l6 24h46l4 20h20l-4 -20h68l-6 -24h24l-4 -22h20l-30 -156h-20l-4 -24h-24l-4 -22h-22l-6 -24h-90l6 24h-46l8 46h-20l12 66h-24l14 70h24z" />
<glyph unicode="&#xdd;" d="M170 1512h162l-4 -26h70l4 26h118l-4 -26h116l-10 -46h24l-4 -22h-24l-4 -22h-22l-4 -26h-94l-4 -22h-24l-10 -46h24l-10 -48h22l-8 -46h24l-10 -48h22l-4 -24h26l-10 -46h22l-4 -22h24l-8 -48h22l-10 -46h22l-10 -48h26l-4 -22h22l-4 -24h24l-10 -48h70l10 48h24l4 24 h22l4 22h24l10 48h24l10 46h24l8 48h22l10 46h24l8 46h22l4 22h22l20 94h26l4 26h-26l10 46h-68l4 22h-46l4 26h-24l14 68h24l4 22h350l4 26h70l-4 -26h44l-18 -90h-22l-4 -26h-22l-4 -22h-70l-10 -46h-22l-4 -26h-26l-6 -22h-22l-8 -46h-24l-10 -48h-22l-8 -46h-26l-6 -24 h-22l-4 -22h-24l-14 -70h-22l-4 -24h-26l-10 -48h-22l-4 -22h-22l-8 -46h-24l-10 -48h-22l-4 -24h-24l-10 -48h-24l-8 -44h-24l-14 -72h-22l-14 -68h22l-68 -350h24l-8 -48h210l-6 -24h48l-4 -22h22l-8 -48h-22l-10 -46h-72l-4 -22h-48l4 22h-162l-4 -22h-188l4 22h-208 l10 46h-22l4 22h22l8 48h46l6 24h118l4 22h22l4 26h22l86 444h-22l10 46h-22l4 22h-24l14 70h-22l4 24h-26l4 22h-22l10 48h-24l4 24h-22l10 48h-24l8 46h-22l6 22h-26l8 48h-22l10 46h-24l4 22h-22l8 46h-26l6 26h-22l8 46h-22l6 22h-24l8 48h-22l6 24h-94l4 22h-46l22 116 h46zM780 1700l122 64l6 -16l170 90l-4 16l96 50l4 -16l14 8l4 -14l14 6l28 -76l-12 -6l12 -30l-48 -26l6 -16l-376 -198l-6 16l-12 -6l-6 14l-12 -6l-36 90l12 6l-6 14l36 20z" />
<glyph unicode="&#xde;" d="M624 1420h74l4 22h44l-4 -22h224l-4 -20h68l-6 -24h46l-4 -22h44l-4 -24h46l-4 -20h22l-6 -24h20l-4 -22h24l-4 -24h22l-4 -22h24l-4 -22h20l-4 -22h24l-10 -46h22l-4 -24h24l-8 -42h20l-14 -68h24l-18 -92h22l-6 -32h24l-16 -78h-24l-10 -58h-22l-14 -66h-24l-12 -70 h-20l-10 -46h-24l-8 -44h-22l-4 -22h-24l-6 -24h-20l-4 -20h-24l-8 -46h-46l-4 -24h-20l-4 -22h-22l-4 -20h-46l-6 -24h-24l-4 -22h-134l-4 -24h-342l-38 -194h-22l-4 -24h-22l-6 -22h-136l6 22h-20l12 66h-24l98 506h24l152 776h-24l34 176h24l4 24h20l4 22h112l-4 -22h46 l-18 -90h22zM1134 902h-24l14 70h-20l12 66h-22l6 24h-24l8 42h-22l4 24h-24l10 46h-44l4 22h-22l4 22h-24l4 22h-20l4 24h-90l4 22h-226l-4 -22h-22l-4 -24h-24l-80 -416h-4l-14 -70h4l-62 -312h24l-4 -24h66l-4 -22h136l4 22h66l4 24h70l4 20h44l6 24h46l8 46h20l4 20h24 l4 24h22l10 46h24l8 46h22l14 66h20l12 66h24z" />
<glyph unicode="&#xdf;" d="M448 1442h650l-4 -22h114l-4 -20h44l-6 -24h22l-4 -22h46l-8 -44h20l-6 -24h24l-8 -46h22l-22 -112h24l-4 -24h-24l-18 -88h-22l-8 -44h-24l-10 -46h-20l-4 -24h-22l-4 -20h-24l-4 -24h-22l-4 -22h-24l-6 -24h-20l-4 -20h20l-4 -24h24l-4 -22h68l-4 -22h20l-4 -24h46 l-4 -20h24l-6 -24h20l-4 -22h24l-8 -44h22l-4 -24h24l-14 -68h20l-40 -202h-20l-8 -44h-24l-8 -46h-22l-10 -44h-24l-4 -24h-20l-4 -22h-24l-6 -24h-46l-4 -22h-20l-4 -20h-46l-4 -24h-46l-4 -22h-16l-18 158h20l4 20h24l6 24h44l8 46h22l8 44h24l10 46h22l22 112h-22l12 66 h-24l10 46h-22l4 24h-24l4 20h-20l4 24h-24l4 22h-46l6 24h-44l4 20h-30l-34 46l4 22h20l10 66h-20l28 48h34l4 20h22l4 24h44l6 22h24l8 46h22l8 44h24l28 136h-24l12 66h-22l4 24h-24l4 22h-44l6 24h-90l4 20h-158l-4 -20h-44l-10 -46h-22l-74 -382h16l-36 -182h-14 l-106 -538h22l-4 -24h68l-4 -22h84l-22 -112h-108l-4 -24h-134l4 24h-268l4 22h-24l12 66h24l6 24h44l4 22h66l4 24h24l4 20h22l66 338h24l32 160h-24l96 494h24l12 66h-24l8 46h-46l6 24h-110l4 20h-24l18 90h24z" />
<glyph unicode="&#xe0;" d="M918 234h-20l-4 -22h-46l-4 -24h-44l-4 -20h-46l-6 -24h-112l-4 -22h-24l4 22h-134l6 24h-44l4 20h-44l8 46h-24l18 90h24l8 46h20l4 20h24l6 24h44l4 22h44l4 24h70l4 22h312l-4 -22h24l-34 -180h-24zM804 1020h-114l-4 -20h-44l-4 -22h-44l-6 -24h-44l-4 -22h-46 l-8 -44h-24l-22 -114h24l-4 -22h22l-6 -24h112l6 24h24l4 22h20l12 68h24l4 22h22l6 24h44l4 22h46l4 22h180l-4 -22h46l-4 -22h20l-6 -24h24l-4 -22h22l-34 -180h-22l-4 -22h-24l-6 -24h-66l-4 -20h-112l4 20h-24l-4 -20h-134l-4 -24h-90l-4 -22h-68l-4 -24h-44l-4 -20h-46 l-6 -24h-44l-4 -22h-22l-4 -24h-24l-10 -46h-20l-8 -44h-24l-30 -158h24l-10 -44h20l-8 -46h24l-4 -20h46l-4 -24h44l-4 -22h46l-6 -24h312l6 24h92l4 22h66l4 24h44l-4 -24h46l-4 -22h24l-6 -24h156l6 24h66l4 22h90l4 24h24l12 66h-24l6 24h-20l4 20h-70l-4 -20h-86 l92 472h20l48 248h-20l8 44h-24l4 22h-22l6 24h-24l4 22h-46l4 20h-44l4 24h-314zM996 1250l28 -18l-10 -14l8 -8l-70 -90l-10 6l-10 -14l-12 6l-10 -16l-300 200l14 16l-40 26l24 30l-8 6l56 74l10 -6l12 14l10 -6l12 16l76 -52l-12 -16l134 -90l14 16l98 -64z" />
<glyph unicode="&#xe1;" d="M892 280h24l34 180h-24l4 22h-312l-4 -22h-70l-4 -24h-44l-4 -22h-44l-6 -24h-24l-4 -20h-20l-8 -46h-24l-18 -90h24l-8 -46h44l-4 -20h44l-6 -24h134l-4 -22h24l4 22h112l6 24h46l4 20h44l4 24h46l4 22h20zM772 1044h314l-4 -24h44l-4 -20h46l-4 -22h24l-6 -24h22 l-4 -22h24l-8 -44h20l-48 -248h-20l-92 -472h86l4 20h70l-4 -20h20l-6 -24h24l-12 -66h-24l-4 -24h-90l-4 -22h-66l-6 -24h-156l6 24h-24l4 22h-46l4 24h-44l-4 -24h-66l-4 -22h-92l-6 -24h-312l6 24h-46l4 22h-44l4 24h-46l4 20h-24l8 46h-20l10 44h-24l30 158h24l8 44h20 l10 46h24l4 24h22l4 22h44l6 24h46l4 20h44l4 24h68l4 22h90l4 24h134l4 20h24l-4 -20h112l4 20h66l6 24h24l4 22h22l34 180h-22l4 22h-24l6 24h-20l4 22h-46l4 22h-180l-4 -22h-46l-4 -22h-44l-6 -24h-22l-4 -22h-24l-12 -68h-20l-4 -22h-24l-6 -24h-112l6 24h-22l4 22h-24 l22 114h24l8 44h46l4 22h44l6 24h44l4 22h44l4 20h114zM886 1274l124 64l6 -16l170 90l-6 16l96 50l6 -16l12 8l6 -14l14 6l26 -76l-10 -6l12 -30l-50 -26l8 -16l-378 -198l-4 16l-14 -6l-4 14l-14 -6l-34 90l10 6l-4 14l36 20z" />
<glyph unicode="&#xe2;" d="M808 1044h314l-4 -24h44l-4 -20h46l-4 -22h24l-6 -24h22l-4 -22h24l-8 -44h20l-48 -248h-20l-92 -472h86l4 20h70l-4 -20h20l-6 -24h24l-12 -66h-24l-4 -24h-90l-4 -22h-66l-6 -24h-156l6 24h-24l4 22h-46l4 24h-44l-4 -24h-66l-4 -22h-92l-6 -24h-312l6 24h-46l4 22h-44 l4 24h-46l4 20h-24l8 46h-20l10 44h-24l30 158h24l8 44h20l10 46h24l4 24h22l4 22h44l6 24h46l4 20h44l4 24h68l4 22h90l4 24h134l4 20h24l-4 -20h112l4 20h66l6 24h24l4 22h22l34 180h-22l4 22h-24l6 24h-20l4 22h-46l4 22h-180l-4 -22h-46l-4 -22h-44l-6 -24h-22l-4 -22 h-24l-12 -68h-20l-4 -22h-24l-6 -24h-112l6 24h-22l4 22h-24l22 114h24l8 44h46l4 22h44l6 24h44l4 22h44l4 20h114zM928 280h24l34 180h-24l4 22h-312l-4 -22h-70l-4 -24h-44l-4 -22h-44l-6 -24h-24l-4 -20h-20l-8 -46h-24l-18 -90h24l-8 -46h44l-4 -20h44l-6 -24h134 l-4 -22h24l4 22h112l6 24h46l4 20h44l4 24h46l4 22h20zM1002 1462l12 6l2 -8l14 6l2 -8l14 6l100 -254l-12 -6l10 -34l-24 -14l2 -6l-62 -34l-2 8l-12 -6l-4 8l-14 -6l-24 64l12 8l-46 114l-90 -114l12 -8l-52 -64l-10 6l-8 -8l-8 6l-6 -8l-50 34l6 6l-20 14l26 34l-12 6 l200 254l10 -6l6 8l10 -6l6 8z" />
<glyph unicode="&#xe4;" d="M894 234h-20l-4 -22h-46l-4 -24h-44l-4 -20h-46l-6 -24h-112l-4 -22h-24l4 22h-134l6 24h-44l4 20h-44l8 46h-24l18 90h24l8 46h20l4 20h24l6 24h44l4 22h44l4 24h70l4 22h312l-4 -22h24l-34 -180h-24zM780 1020h-114l-4 -20h-44l-4 -22h-44l-6 -24h-44l-4 -22h-46 l-8 -44h-24l-22 -114h24l-4 -22h22l-6 -24h112l6 24h24l4 22h20l12 68h24l4 22h22l6 24h44l4 22h46l4 22h180l-4 -22h46l-4 -22h20l-6 -24h24l-4 -22h22l-34 -180h-22l-4 -22h-24l-6 -24h-66l-4 -20h-112l4 20h-24l-4 -20h-134l-4 -24h-90l-4 -22h-68l-4 -24h-44l-4 -20h-46 l-6 -24h-44l-4 -22h-22l-4 -24h-24l-10 -46h-20l-8 -44h-24l-30 -158h24l-10 -44h20l-8 -46h24l-4 -20h46l-4 -24h44l-4 -22h46l-6 -24h312l6 24h92l4 22h66l4 24h44l-4 -24h46l-4 -22h24l-6 -24h156l6 24h66l4 22h90l4 24h24l12 66h-24l6 24h-20l4 20h-70l-4 -20h-86 l92 472h20l48 248h-20l8 44h-24l4 22h-22l6 24h-24l4 22h-46l4 20h-44l4 24h-314zM598 1332l4 22h20l4 24h70l4 20h22l-4 -20h66l-4 -24h24l-4 -22h20l-26 -136h-20l-10 -44h-24l-4 -22h-66l-4 -24h-22l4 24h-70l10 46h-20l4 20h-24l26 136h24zM1104 1312l8 42h44l4 24h46 l4 20h20l-4 -20h68l-4 -24h24l-4 -22h20l-30 -156h-20l-6 -24h-24l-4 -22h-22l-4 -24h-90l4 24h-46l10 46h-20l12 66h-24l14 70h24z" />
<glyph unicode="&#xe6;" d="M1096 1068h314l-4 -24h44l-4 -20h46l-4 -22h24l-4 -24h42l-6 -22h24l-4 -22h20l-4 -22h24l-8 -46h22l-6 -24h24l-8 -44h22l-12 -66h24l-36 -182h-24l-4 -20h-68l-4 -24h-584l-4 -22h-114l-6 -24h-4l-12 -66h4l-10 -46h24l-8 -44h22l-4 -22h24l-4 -24h20l-6 -22h46l-4 -24 h46l-4 -20h90l-4 -24h180l4 24h136l4 20h66l4 24h66l6 22h90l-6 -22h24l-12 -68h-24l-4 -22h-20l-6 -24h-46l-4 -20h-46l-4 -24h-90l-4 -22h-90l-4 -24h-112l-6 -22h-224l6 22h-92l4 22h-8l-4 -22h-66l-6 -24h-156l6 24h-24l4 22h-46l4 24h-44l-4 -24h-66l-4 -22h-92l-6 -24 h-312l6 24h-46l4 22h-44l4 24h-46l4 20h-24l8 46h-20l10 44h-24l30 158h24l8 44h20l10 46h24l4 24h22l4 22h44l6 24h46l4 20h44l4 24h68l4 22h90l4 24h134l4 20h24l-4 -20h112l4 20h66l6 24h8l12 68h24l10 44h14l16 90h-22l4 22h-24l6 24h-20l4 22h-46l4 22h-180l-4 -22h-46 l-4 -22h-44l-6 -24h-22l-4 -22h-24l-12 -68h-20l-4 -22h-24l-6 -24h-112l6 24h-22l4 22h-24l22 114h24l8 44h46l4 22h44l6 24h44l4 22h44l4 20h114l4 24h314l-4 -24h44l-4 -20h46l-4 -22h24l-6 -24h6v2h24l6 22h44l4 24h46l4 22h44l4 20h46zM574 280h24v2h-16l22 112h-20 l16 88h-300l-4 -22h-70l-4 -24h-44l-4 -22h-44l-6 -24h-24l-4 -20h-20l-8 -46h-24l-18 -90h24l-8 -46h44l-4 -20h44l-6 -24h134l-4 -22h24l4 22h112l6 24h46l4 20h44l4 24h46l4 22h20zM1454 708h20l6 24h-20l8 44h-24l4 22h-22l4 24h-24l10 44h-44l4 22h-22l4 24h-70l4 22 h-176l-4 -22h-46l-4 -24h-24l-4 -22h-22l-6 -24h-24l-4 -20h-20l-4 -24h-24l-4 -22h-22l-8 -44h-8l-18 -92h-16l-4 -20h362l4 20h202l4 24h24z" />
<glyph unicode="&#xe7;" d="M1078 1044l-4 -24h66l-4 -20h44l-4 -22h24l-6 -24h22l-4 -22h20l-4 -22h24l-10 -46h22l-20 -112h24l-10 -44h-24l-8 -46h-22l-4 -22h-110l4 22h-46l8 46h-24l26 134h-20l4 22h-24l6 24h-68l4 22h-180l-4 -22h-44l-6 -24h-46l-4 -22h-22l-4 -24h-24l-4 -20h-20l-4 -24h-24 l-4 -22h-22l-10 -44h-24l-12 -68h-20l-50 -250h20l-12 -66h24l-4 -20h22l-8 -46h24l-6 -24h20l-4 -22h46l-4 -24h46l-4 -20h114l-6 -24h132l6 24h136l4 20h44l4 24h66l4 22h116l-4 -22h20l-14 -68h-20l-4 -22h-24l-4 -24h-46l-4 -20h-66l-4 -24h-46l-4 -22h-110l-6 -24h-70 l-4 -22h-8l10 -88l-10 -2l12 -132l-20 -4v-18l-16 -4v-16l-90 -24v16l-38 -8l-4 68l-20 -6l-14 218h-70l4 22h-90l6 24h-70l4 22h-20l4 24h-22l4 20h-24l4 24h-20l4 22h-24l6 24h-22l8 44h-24l10 46h-22l12 66h-24l12 66h-20l32 160h20l26 134h24l8 44h22l10 46h24l8 44h22 l4 24h24l4 22h20l6 24h24l4 22h22l4 22h20l4 22h46l6 24h24l4 22h66l4 20h70l4 24h292z" />
<glyph unicode="&#xe8;" d="M1074 640h-24l-6 -24h-202l-4 -20h-362l22 112h24l10 44h22l4 22h24l4 24h20l4 20h24l4 24h22l4 22h24l6 24h46l4 22h176l-4 -22h70l-6 -24h22l-4 -22h44l-8 -44h24l-4 -24h22l-4 -22h24l-10 -44h20l-4 -24h-20zM720 1020h-46l-4 -20h-44l-4 -22h-46l-6 -24h-44l-4 -22 h-24l-4 -22h-22l-10 -46h-20l-4 -22h-24l-4 -24h-22l-8 -44h-24l-10 -46h-22l-8 -44h-24l-22 -112h-20l-40 -202h20l-20 -112h24l-10 -46h22l-4 -24h24l-10 -44h22l-4 -22h44l-4 -24h22l-4 -20h24l-4 -24h44l-4 -22h66l-6 -24h92l-4 -22h224l4 22h112l6 24h90l4 22h90l4 24 h46l4 20h46l4 24h20l4 22h24l14 68h-24l4 22h-90l-4 -22h-66l-4 -24h-66l-4 -20h-136l-6 -24h-180l6 24h-90l4 20h-46l4 24h-46l4 22h-20l6 24h-24l4 22h-22l8 44h-24l8 46h-20l14 66h20l4 24h114l4 22h584l6 24h68l4 20h24l34 182h-24l14 66h-22l8 44h-24l4 24h-22l10 46 h-24l4 22h-20l4 22h-24l4 22h-42l6 24h-24l4 22h-46l4 20h-44l4 24h-314zM968 1260l28 -18l-10 -14l8 -8l-70 -90l-10 6l-10 -14l-12 6l-10 -16l-300 200l14 16l-40 26l24 30l-8 6l56 74l10 -6l12 14l10 -6l12 16l74 -52l-10 -16l134 -90l14 16l98 -64z" />
<glyph unicode="&#xe9;" d="M1082 684h20l4 24h-20l10 44h-24l4 22h-22l4 24h-24l8 44h-44l4 22h-22l6 24h-70l4 22h-176l-4 -22h-46l-6 -24h-24l-4 -22h-22l-4 -24h-24l-4 -20h-20l-4 -24h-24l-4 -22h-22l-10 -44h-24l-22 -112h362l4 20h202l6 24h24zM724 1044h314l-4 -24h44l-4 -20h46l-4 -22h24 l-6 -24h42l-4 -22h24l-4 -22h20l-4 -22h24l-10 -46h22l-4 -24h24l-8 -44h22l-14 -66h24l-34 -182h-24l-4 -20h-68l-6 -24h-584l-4 -22h-114l-4 -24h-20l-14 -66h20l-8 -46h24l-8 -44h22l-4 -22h24l-6 -24h20l-4 -22h46l-4 -24h46l-4 -20h90l-6 -24h180l6 24h136l4 20h66 l4 24h66l4 22h90l-4 -22h24l-14 -68h-24l-4 -22h-20l-4 -24h-46l-4 -20h-46l-4 -24h-90l-4 -22h-90l-6 -24h-112l-4 -22h-224l4 22h-92l6 24h-66l4 22h-44l4 24h-24l4 20h-22l4 24h-44l4 22h-22l10 44h-24l4 24h-22l10 46h-24l20 112h-20l40 202h20l22 112h24l8 44h22l10 46 h24l8 44h22l4 24h24l4 22h20l10 46h22l4 22h24l4 22h44l6 24h46l4 22h44l4 20h46zM796 1278l122 64l6 -16l170 90l-4 16l96 50l4 -16l14 8l4 -14l14 6l28 -76l-12 -6l12 -30l-48 -26l6 -16l-376 -198l-6 16l-12 -6l-6 14l-12 -6l-36 90l12 6l-6 14l36 20z" />
<glyph unicode="&#xea;" d="M724 1044h314l-4 -24h44l-4 -20h46l-4 -22h24l-6 -24h42l-4 -22h24l-4 -22h20l-4 -22h24l-10 -46h22l-4 -24h24l-8 -44h22l-14 -66h24l-34 -182h-24l-4 -20h-68l-6 -24h-584l-4 -22h-114l-4 -24h-20l-14 -66h20l-8 -46h24l-8 -44h22l-4 -22h24l-6 -24h20l-4 -22h46 l-4 -24h46l-4 -20h90l-6 -24h180l6 24h136l4 20h66l4 24h66l4 22h90l-4 -22h24l-14 -68h-24l-4 -22h-20l-4 -24h-46l-4 -20h-46l-4 -24h-90l-4 -22h-90l-6 -24h-112l-4 -22h-224l4 22h-92l6 24h-66l4 22h-44l4 24h-24l4 20h-22l4 24h-44l4 22h-22l10 44h-24l4 24h-22l10 46 h-24l20 112h-20l40 202h20l22 112h24l8 44h22l10 46h24l8 44h22l4 24h24l4 22h20l10 46h22l4 22h24l4 22h44l6 24h46l4 22h44l4 20h46zM1082 684h20l4 24h-20l10 44h-24l4 22h-22l4 24h-24l8 44h-44l4 22h-22l6 24h-70l4 22h-176l-4 -22h-46l-6 -24h-24l-4 -22h-22l-4 -24 h-24l-4 -20h-20l-4 -24h-24l-4 -22h-22l-10 -44h-24l-22 -112h362l4 20h202l6 24h24zM966 1452l12 6l2 -8l14 6l2 -8l14 6l100 -254l-12 -6l10 -34l-24 -14l2 -6l-62 -34l-2 8l-12 -6l-4 8l-14 -6l-24 64l12 8l-46 114l-90 -114l12 -8l-52 -64l-10 6l-8 -8l-8 6l-6 -8 l-50 34l6 6l-20 14l26 34l-12 6l200 254l10 -6l6 8l10 -6l6 8z" />
<glyph unicode="&#xeb;" d="M1062 640h-24l-6 -24h-202l-4 -20h-362l22 112h24l10 44h22l4 22h24l4 24h20l4 20h24l4 24h22l4 22h24l6 24h46l4 22h176l-4 -22h70l-6 -24h22l-4 -22h44l-8 -44h24l-4 -24h22l-4 -22h24l-10 -44h20l-4 -24h-20zM708 1020h-46l-4 -20h-44l-4 -22h-46l-6 -24h-44l-4 -22 h-24l-4 -22h-22l-10 -46h-20l-4 -22h-24l-4 -24h-22l-8 -44h-24l-10 -46h-22l-8 -44h-24l-22 -112h-20l-40 -202h20l-20 -112h24l-10 -46h22l-4 -24h24l-10 -44h22l-4 -22h44l-4 -24h22l-4 -20h24l-4 -24h44l-4 -22h66l-6 -24h92l-4 -22h224l4 22h112l6 24h90l4 22h90l4 24 h46l4 20h46l4 24h20l4 22h24l14 68h-24l4 22h-90l-4 -22h-66l-4 -24h-66l-4 -20h-136l-6 -24h-180l6 24h-90l4 20h-46l4 24h-46l4 22h-20l6 24h-24l4 22h-22l8 44h-24l8 46h-20l14 66h20l4 24h114l4 22h584l6 24h68l4 20h24l34 182h-24l14 66h-22l8 44h-24l4 24h-22l10 46 h-24l4 22h-20l4 22h-24l4 22h-42l6 24h-24l4 22h-46l4 20h-44l4 24h-314zM570 1332l4 22h20l4 24h70l4 20h22l-4 -20h66l-4 -24h24l-4 -22h20l-26 -136h-20l-10 -44h-24l-4 -22h-66l-4 -24h-22l4 24h-70l10 46h-20l4 20h-24l26 136h24zM1076 1312l8 42h44l4 24h46l4 20h20 l-4 -20h68l-4 -24h24l-4 -22h20l-30 -156h-20l-6 -24h-24l-4 -22h-22l-4 -24h-90l4 24h-46l10 46h-20l12 66h-24l14 70h24z" />
<glyph unicode="&#xec;" d="M830 1012h-204l-4 -20h-178l-4 -24h-24l-14 -66h24l-4 -22h22l-4 -24h90l4 24h156l-4 -24h70l-132 -676h-46l-4 -20h-44l-4 -24h-226l-4 -22h-22l-10 -44h-24l-4 -24h24l-8 -46h46l-6 -22h42l6 22h720l-6 -22h114l6 22h44l4 24h22l18 90h-46l4 22h-358l4 24h-44l4 20h-24 l136 700h24l12 66h-24l14 66h-46l4 24h-88zM958 1262l28 -18l-10 -14l8 -8l-68 -90l-12 6l-10 -14l-12 6l-10 -16l-300 200l14 16l-40 26l24 30l-8 6l56 74l10 -6l12 14l10 -6l12 16l76 -52l-12 -16l134 -90l14 16l98 -64z" />
<glyph unicode="&#xed;" d="M796 1036h88l-4 -24h46l-14 -66h24l-12 -66h-24l-136 -700h24l-4 -20h44l-4 -24h358l-4 -22h46l-18 -90h-22l-4 -24h-44l-6 -22h-114l6 22h-720l-6 -22h-42l6 22h-46l8 46h-24l4 24h24l10 44h22l4 22h226l4 24h44l4 20h46l132 676h-70l4 24h-156l-4 -24h-90l4 24h-22 l4 22h-24l14 66h24l4 24h178l4 20h204zM846 1278l122 64l6 -16l170 90l-4 16l96 50l4 -16l14 8l4 -14l14 6l28 -76l-12 -6l12 -30l-48 -26l6 -16l-376 -198l-6 16l-12 -6l-6 14l-12 -6l-36 90l12 6l-6 14l36 20z" />
<glyph unicode="&#xee;" d="M834 1036h88l-4 -24h46l-14 -66h24l-12 -66h-24l-136 -700h24l-4 -20h44l-4 -24h358l-4 -22h46l-18 -90h-22l-4 -24h-44l-6 -22h-114l6 22h-720l-6 -22h-42l6 22h-46l8 46h-24l4 24h24l10 44h22l4 22h226l4 24h44l4 20h46l132 676h-70l4 24h-156l-4 -24h-90l4 24h-22 l4 22h-24l14 66h24l4 24h178l4 20h204zM966 1440l14 6l2 -8l14 6l2 -8l14 6l100 -254l-14 -6l12 -34l-24 -14l2 -6l-62 -34l-2 8l-12 -6l-4 8l-14 -6l-26 64l14 8l-46 114l-90 -114l10 -8l-50 -64l-10 6l-8 -8l-8 6l-6 -8l-50 34l6 6l-20 14l24 34l-10 6l200 254l10 -6l6 8 l10 -6l6 8z" />
<glyph unicode="&#xef;" d="M802 1012h-204l-4 -20h-178l-4 -24h-24l-14 -66h24l-4 -22h22l-4 -24h90l4 24h156l-4 -24h70l-132 -676h-46l-4 -20h-44l-4 -24h-226l-4 -22h-22l-10 -44h-24l-4 -24h24l-8 -46h46l-6 -22h42l6 22h720l-6 -22h114l6 22h44l4 24h22l18 90h-46l4 22h-358l4 24h-44l4 20h-24 l136 700h24l12 66h-24l14 66h-46l4 24h-88zM558 1332l4 22h20l4 24h70l4 20h22l-4 -20h66l-4 -24h24l-4 -22h20l-26 -136h-20l-10 -44h-24l-4 -22h-66l-4 -24h-22l4 24h-70l10 46h-20l4 20h-24l26 136h24zM1064 1312l8 42h44l4 24h46l4 20h20l-4 -20h68l-4 -24h24l-4 -22h20 l-30 -156h-20l-6 -24h-24l-4 -22h-22l-4 -24h-90l4 24h-46l10 46h-20l12 66h-24l14 70h24z" />
<glyph unicode="&#xf0;" d="M618 1256l194 84l4 -18l46 20h-26l4 24h-24l4 20h-46l4 22h-90l6 24h-112l4 22h-44l22 114h44l4 20h66l-4 -20h136l-4 -24h46l-6 -22h44l-4 -24h66l-4 -20h24l-4 -24h46l-4 -22h22l-4 -18l60 26l-4 20l152 64l4 -18l20 8l4 -16l20 10l26 -86l-20 -10l10 -36l-76 -32 l4 -18l-92 -40l-6 -34h24l-4 -22h22l-8 -46h24l-10 -44h20l-14 -70h22l-12 -66h24l-18 -90h22l-22 -112h24l-56 -292h-24l-22 -114h-22l-18 -88h-24l-8 -46h-22l-8 -44h-20l-10 -46h-24l-4 -24h-22l-8 -44h-24l-6 -22h-20l-4 -24h-24l-4 -22h-46l-4 -20h-44l-4 -24h-92 l-4 -22h-156l4 22h-90l4 24h-46l4 20h-20l4 22h-24l4 24h-42l6 22h-46l8 44h-24l4 24h-20l10 46h-24l8 44h-22l14 68h-24l26 134h-22l4 22h22l8 46h-22l18 90h22l18 90h24l4 20h22l12 70h24l6 22h20l4 24h24l4 20h22l4 24h44l4 22h46l6 24h20l4 20h70l4 24h156l-4 -24h66 l-4 -20h46l-6 -24h70l-4 -22h20l-4 -24h70l14 70h-24l12 66h-22l10 46h-24l8 44h-20l8 46h-24l10 44h-22l4 22h-14l-320 -138l-4 16l-20 -8l-4 16l-20 -8l-32 106l20 8l-6 16l58 24zM984 600h-24l8 46h-22l10 44h-24l4 22h-20l4 20h-24l4 24h-22l4 22h-46l4 24h-66l6 22 h-114l-6 -22h-66l-4 -24h-46l-4 -22h-24l-4 -24h-20l-8 -42h-24l-6 -24h-22l-60 -314h22l-14 -68h24l-4 -22h20l-8 -44h24l-6 -24h22l-4 -22h24l-4 -24h46l-4 -20h66l-4 -24h68l4 24h66l4 20h22l4 24h24l4 22h22l6 24h24l4 20h20l8 46h24l10 46h22l12 66h24z" />
<glyph unicode="&#xf1;" d="M608 1382h226l-6 -24h316l6 24h176l-6 -24h24l-2 -20h22l-22 -112h-22l-10 -46h-90l-4 -24h-694l4 24h-24l4 22h-22l28 136h22l2 20h66zM912 1036h202l-4 -24h24l-4 -20h42l-4 -24h46l-6 -22h24l-4 -20h20l-4 -24h24l-8 -46h22l-14 -66h24l-122 -630h22l-4 -24h114 l-4 -22h42l-22 -114h-42l-6 -22h-182l6 22h-224l8 46h-22l4 24h22l4 20h24l6 24h20l4 22h24l4 24h22l52 268h20l40 202h-20l22 114h-22l8 46h-24l4 20h-20l6 24h-24l4 22h-46l4 24h-156l-4 -24h-46l-4 -22h-66l-6 -24h-46l-4 -20h-68l-8 -46h-22l-40 -202h-24l-48 -250h24 l-26 -132h22l-4 -24h114l-4 -22h46l-6 -24h20l-4 -20h22l-4 -24h-22l-4 -22h-20l-4 -24h-428l4 24h-24l4 22h-22l4 24h22l10 44h24l4 22h44l4 24h22l132 674h-22l4 22h-158l4 24h-22l12 66h22l6 22h44l4 24h114l4 20h134l-4 -20h24l-4 -24h20l-10 -42h90l4 20h24l6 22h46 l4 24h88l4 20h68z" />
<glyph unicode="&#xf2;" d="M1062 362h-22l-10 -46h-24l-8 -44h-20l-10 -46h-22l-4 -22h-24l-4 -24h-44l-4 -20h-46l-4 -24h-66l-4 -22h-136l4 22h-66l4 24h-46l4 20h-24l4 24h-20l4 22h-24l6 24h-22l4 22h-24l8 44h-20l4 22h-24l18 90h-22l32 160h22l16 88h24l14 68h20l8 46h24l4 20h22l6 24h24 l4 22h20l4 24h46l4 22h270l-4 -22h46l-4 -24h46l-4 -22h20l-6 -24h24l-4 -20h22l-14 -70h20l-2 -20h24l-10 -46h22l-18 -90h24l-22 -112h-24zM768 1036h-92l-4 -24h-44l-4 -20h-46l-4 -24h-44l-6 -22h-24l-4 -20h-22l-4 -24h-44l-4 -22h-22l-8 -46h-24l-6 -24h-22l-8 -44 h-24l-10 -46h-20l-12 -66h-24l-56 -292h24l-10 -46h20l-12 -66h24l-10 -46h22l-8 -44h24l-4 -24h22l-4 -22h20l-6 -24h46l-4 -20h24l-4 -24h44l-4 -22h66l-4 -24h70l-6 -22h222l6 22h92l4 24h44l4 22h46l4 24h20l4 20h24l6 24h46l4 22h20l4 24h24l4 20h22l4 24h24l4 22h22 l10 46h24l22 110h20l12 70h24l32 156h-24l20 112h-20l10 46h-24l8 44h-22l6 24h-24l8 46h-22l4 22h-24l4 24h-20l4 20h-24l6 22h-22l4 24h-66l4 20h-68l4 24h-112l4 22h-156zM898 1250l28 -18l-10 -14l8 -8l-70 -90l-10 6l-10 -14l-12 6l-10 -16l-300 200l14 16l-40 26 l24 30l-8 6l56 74l10 -6l12 14l10 -6l12 16l76 -52l-12 -16l134 -90l14 16l98 -64z" />
<glyph unicode="&#xf3;" d="M1078 452h24l22 112h-24l18 90h-22l10 46h-24l2 20h-20l14 70h-22l4 20h-24l6 24h-20l4 22h-46l4 24h-46l4 22h-270l-4 -22h-46l-4 -24h-20l-4 -22h-24l-6 -24h-22l-4 -20h-24l-8 -46h-20l-14 -68h-24l-16 -88h-22l-32 -160h22l-18 -90h24l-4 -22h20l-8 -44h24l-4 -22h22 l-6 -24h24l-4 -22h20l-4 -24h24l-4 -20h46l-4 -24h66l-4 -22h136l4 22h66l4 24h46l4 20h44l4 24h24l4 22h22l10 46h20l8 44h24l10 46h22zM772 1058h156l-4 -22h112l-4 -24h68l-4 -20h66l-4 -24h22l-6 -22h24l-4 -20h20l-4 -24h24l-4 -22h22l-8 -46h24l-6 -24h22l-8 -44h24 l-10 -46h20l-20 -112h24l-32 -156h-24l-12 -70h-20l-22 -110h-24l-10 -46h-22l-4 -22h-24l-4 -24h-22l-4 -20h-24l-4 -24h-20l-4 -22h-46l-6 -24h-24l-4 -20h-20l-4 -24h-46l-4 -22h-44l-4 -24h-92l-6 -22h-222l6 22h-70l4 24h-66l4 22h-44l4 24h-24l4 20h-46l6 24h-20l4 22 h-22l4 24h-24l8 44h-22l10 46h-24l12 66h-20l10 46h-24l56 292h24l12 66h20l10 46h24l8 44h22l6 24h24l8 46h22l4 22h44l4 24h22l4 20h24l6 22h44l4 24h46l4 20h44l4 24h92zM858 1278l122 64l6 -16l170 90l-4 16l96 50l4 -16l14 8l4 -14l14 6l28 -76l-12 -6l12 -30l-48 -26 l6 -16l-376 -198l-6 16l-12 -6l-6 14l-12 -6l-36 90l12 6l-6 14l36 20z" />
<glyph unicode="&#xf4;" d="M772 1058h156l-4 -22h112l-4 -24h68l-4 -20h66l-4 -24h22l-6 -22h24l-4 -20h20l-4 -24h24l-4 -22h22l-8 -46h24l-6 -24h22l-8 -44h24l-10 -46h20l-20 -112h24l-32 -156h-24l-12 -70h-20l-22 -110h-24l-10 -46h-22l-4 -22h-24l-4 -24h-22l-4 -20h-24l-4 -24h-20l-4 -22 h-46l-6 -24h-24l-4 -20h-20l-4 -24h-46l-4 -22h-44l-4 -24h-92l-6 -22h-222l6 22h-70l4 24h-66l4 22h-44l4 24h-24l4 20h-46l6 24h-20l4 22h-22l4 24h-24l8 44h-22l10 46h-24l12 66h-20l10 46h-24l56 292h24l12 66h20l10 46h24l8 44h22l6 24h24l8 46h22l4 22h44l4 24h22 l4 20h24l6 22h44l4 24h46l4 20h44l4 24h92zM1078 452h24l22 112h-24l18 90h-22l10 46h-24l2 20h-20l14 70h-22l4 20h-24l6 24h-20l4 22h-46l4 24h-46l4 22h-270l-4 -22h-46l-4 -24h-20l-4 -22h-24l-6 -24h-22l-4 -20h-24l-8 -46h-20l-14 -68h-24l-16 -88h-22l-32 -160h22 l-18 -90h24l-4 -22h20l-8 -44h24l-4 -22h22l-6 -24h24l-4 -22h20l-4 -24h24l-4 -20h46l-4 -24h66l-4 -22h136l4 22h66l4 24h46l4 20h44l4 24h24l4 22h22l10 46h20l8 44h24l10 46h22zM950 1466l14 6l2 -8l12 6l4 -8l12 6l100 -254l-12 -6l12 -34l-26 -14l4 -6l-64 -34l-2 8 l-10 -6l-6 8l-12 -6l-26 64l14 8l-46 114l-90 -114l10 -8l-50 -64l-12 6l-6 -8l-10 6l-6 -8l-48 34l4 6l-18 14l24 34l-12 6l200 254l12 -6l4 8l12 -6l6 8z" />
<glyph unicode="&#xf5;" d="M578 1340h226l-6 -24h316l6 24h176l-6 -24h24l-4 -22h22l-22 -112h-22l-8 -44h-90l-4 -24h-694l4 24h-24l4 20h-22l26 136h22l4 22h66zM1058 452h24l22 112h-24l18 90h-22l10 46h-24l2 20h-20l14 70h-22l4 20h-24l6 24h-20l4 22h-46l4 24h-46l4 22h-270l-4 -22h-46 l-4 -24h-20l-4 -22h-24l-6 -24h-22l-4 -20h-24l-8 -46h-20l-14 -68h-24l-16 -88h-22l-32 -160h22l-18 -90h24l-4 -22h20l-8 -44h24l-4 -22h22l-6 -24h24l-4 -22h20l-4 -24h24l-4 -20h46l-4 -24h66l-4 -22h136l4 22h66l4 24h46l4 20h44l4 24h24l4 22h22l10 46h20l8 44h24 l10 46h22zM752 1058h156l-4 -22h112l-4 -24h68l-4 -20h66l-4 -24h22l-6 -22h24l-4 -20h20l-4 -24h24l-4 -22h22l-8 -46h24l-6 -24h22l-8 -44h24l-10 -46h20l-20 -112h24l-32 -156h-24l-12 -70h-20l-22 -110h-24l-10 -46h-22l-4 -22h-24l-4 -24h-22l-4 -20h-24l-4 -24h-20 l-4 -22h-46l-6 -24h-24l-4 -20h-20l-4 -24h-46l-4 -22h-44l-4 -24h-92l-6 -22h-222l6 22h-70l4 24h-66l4 22h-44l4 24h-24l4 20h-46l6 24h-20l4 22h-22l4 24h-24l8 44h-22l10 46h-24l12 66h-20l10 46h-24l56 292h24l12 66h20l10 46h24l8 44h22l6 24h24l8 46h22l4 22h44l4 24 h22l4 20h24l6 22h44l4 24h46l4 20h44l4 24h92z" />
<glyph unicode="&#xf6;" d="M1062 362h-22l-10 -46h-24l-8 -44h-20l-10 -46h-22l-4 -22h-24l-4 -24h-44l-4 -20h-46l-4 -24h-66l-4 -22h-136l4 22h-66l4 24h-46l4 20h-24l4 24h-20l4 22h-24l6 24h-22l4 22h-24l8 44h-20l4 22h-24l18 90h-22l32 160h22l16 88h24l14 68h20l8 46h24l4 20h22l6 24h24 l4 22h20l4 24h46l4 22h270l-4 -22h46l-4 -24h46l-4 -22h20l-6 -24h24l-4 -20h22l-14 -70h20l-2 -20h24l-10 -46h22l-18 -90h24l-22 -112h-24zM768 1036h-92l-4 -24h-44l-4 -20h-46l-4 -24h-44l-6 -22h-24l-4 -20h-22l-4 -24h-44l-4 -22h-22l-8 -46h-24l-6 -24h-22l-8 -44 h-24l-10 -46h-20l-12 -66h-24l-56 -292h24l-10 -46h20l-12 -66h24l-10 -46h22l-8 -44h24l-4 -24h22l-4 -22h20l-6 -24h46l-4 -20h24l-4 -24h44l-4 -22h66l-4 -24h70l-6 -22h222l6 22h92l4 24h44l4 22h46l4 24h20l4 20h24l6 24h46l4 22h20l4 24h24l4 20h22l4 24h24l4 22h22 l10 46h24l22 110h20l12 70h24l32 156h-24l20 112h-20l10 46h-24l8 44h-22l6 24h-24l8 46h-22l4 22h-24l4 24h-20l4 20h-24l6 22h-22l4 24h-66l4 20h-68l4 24h-112l4 22h-156zM562 1338l4 22h20l4 24h70l4 20h22l-4 -20h66l-4 -24h24l-4 -22h20l-28 -136h-20l-8 -44h-24 l-4 -22h-66l-4 -24h-22l4 24h-70l8 46h-20l4 20h-24l28 136h24zM1068 1318l8 42h44l4 24h46l4 20h20l-4 -20h68l-4 -24h24l-4 -22h20l-32 -156h-20l-4 -24h-24l-4 -22h-22l-4 -24h-90l4 24h-46l8 46h-20l14 66h-24l14 70h24z" />
<glyph unicode="&#xf7;" d="M432 676h226l-4 -24h316l4 24h176l-4 -24h24l-4 -20h22l-22 -112h-22l-8 -46h-90l-6 -22h-694l6 22h-24l4 22h-22l26 136h22l4 20h66zM646 364h68l-4 -24h66l-4 -20h46l-10 -46h24l-18 -90h-24l-4 -22h-22l-4 -24h-24l-4 -20h-156l4 20h-20l4 24h-24l14 66h-22l4 22h22 l8 46h24l10 44h42zM746 994h136l-4 -24h20l-4 -22h46l-14 -68h24l-4 -22h-24l-14 -66h-22l-4 -24h-44l-4 -22h-136l4 22h-20l4 24h-24l14 66h-22l4 22h22l14 68h24l4 22h20z" />
<glyph unicode="&#xf8;" d="M1192 1464h92l-4 -22h20l-6 -24h24l-16 -90h-24l-10 -44h-20l-8 -46h-24l-10 -46h-22l-12 -66h-24l-12 -66h-22l-10 -46h-24v-2h14l-4 -20h66l-4 -24h22l-6 -22h24l-4 -20h20l-4 -24h24l-4 -22h22l-8 -46h24l-6 -24h22l-8 -44h24l-10 -46h20l-20 -112h24l-32 -156h-24 l-12 -70h-20l-22 -110h-24l-10 -46h-22l-4 -22h-24l-4 -24h-22l-4 -20h-24l-4 -24h-20l-4 -22h-46l-6 -24h-24l-4 -20h-20l-4 -24h-46l-4 -22h-44l-4 -24h-92l-6 -22h-212l-4 -20h-20l-12 -70h-24l-14 -66h-22l-18 -90h-24l-16 -92h-20l-4 -20h-24l-6 -24h-68l-4 -22h-24 l4 22h-20l6 24h-24l12 66h24l18 90h20l12 66h24l14 70h22l12 66h24l10 46h10l4 22h-44l4 24h-24l4 20h-46l6 24h-20l4 22h-22l4 24h-24l8 44h-22l10 46h-24l12 66h-20l10 46h-24l56 292h24l12 66h20l10 46h24l8 44h22l6 24h24l8 46h22l4 22h44l4 24h22l4 20h24l6 22h44l4 24 h46l4 20h44l4 24h92l4 22h156l-4 -22h34l10 46h22l12 68h24l14 66h20l12 68h24l10 44h22l12 70h20l10 44h24zM1072 452h24l22 112h-24l18 90h-22l10 46h-24l2 20h-20l14 70h-22l4 20h-24l6 24h-20l4 22h-36l-18 -88h-20l-14 -70h-24l-12 -66h-22l-8 -44h-24l-14 -70h-20 l-14 -66h-24l-8 -46h-22l-12 -66h-24l-14 -70h-22l-10 -44h-24l-16 -88h-20v-2h10l-4 -22h136l4 22h66l4 24h46l4 20h44l4 24h24l4 22h22l10 46h20l8 44h24l10 46h22zM464 204h34l14 66h22l14 70h24l8 46h20l8 44h22l14 66h24l18 92h20l12 66h24l8 44h22l14 70h24l14 66h22 l12 66h24v2h-216l-4 -22h-46l-4 -24h-20l-4 -22h-24l-6 -24h-22l-4 -20h-24l-8 -46h-20l-14 -68h-24l-16 -88h-22l-32 -160h22l-18 -90h24l-4 -22h20l-8 -44h24l-4 -22h22l-6 -24h24z" />
<glyph unicode="&#xf9;" d="M424 996h-158l-4 -24h-44l-8 -42h-22l-4 -24h22l-6 -22h24l-4 -24h110l-4 -20h22l-8 -46h24l-14 -70h-24l-18 -90h24l-22 -112h-24l-4 -20h24l-22 -114h-24l-4 -22h24l-26 -136h22l-14 -66h24l-4 -24h20l-8 -44h46l-4 -22h24l-6 -24h20l-4 -22h46l-4 -24h68l-4 -20h134 l4 20h114l4 24h66l4 22h66l6 24h70l-6 -24h20l-4 -22h46l-4 -24h68l4 24h68l4 22h44l6 24h90l4 22h22l8 44h-22l10 46h-110l4 24h-46l4 20h-24l114 586h24l22 114h-24l12 66h-22l4 22h-68l-4 -22h-112l-4 -24h-112l-4 -22h-24l-14 -66h24l-4 -24h112l-4 -20h22l-4 -24h24 l-110 -562h-24l-4 -24h-22l-4 -20h-24l-4 -24h-66l-6 -22h-46l-4 -24h-200l4 24h-68l6 22h-44l4 24h-24l8 44h-22l4 22h-24l14 66h-20l78 406h20l48 248h-20l4 22h-114zM880 1256l28 -18l-12 -14l10 -8l-70 -90l-10 6l-12 -14l-10 6l-12 -16l-298 200l12 16l-38 26l24 30 l-10 6l56 74l12 -6l10 14l12 -6l10 16l76 -52l-10 -16l134 -90l12 16l98 -64z" />
<glyph unicode="&#xfa;" d="M428 1018h114l-4 -22h20l-48 -248h-20l-78 -406h20l-14 -66h24l-4 -22h22l-8 -44h24l-4 -24h44l-6 -22h68l-4 -24h200l4 24h46l6 22h66l4 24h24l4 20h22l4 24h24l110 562h-24l4 24h-22l4 20h-112l4 24h-24l14 66h24l4 22h112l4 24h112l4 22h68l-4 -22h22l-12 -66h24 l-22 -114h-24l-114 -586h24l-4 -20h46l-4 -24h110l-10 -46h22l-8 -44h-22l-4 -22h-90l-6 -24h-44l-4 -22h-68l-4 -24h-68l4 24h-46l4 22h-20l6 24h-70l-6 -24h-66l-4 -22h-66l-4 -24h-114l-4 -20h-134l4 20h-68l4 24h-46l4 22h-20l6 24h-24l4 22h-46l8 44h-20l4 24h-24 l14 66h-22l26 136h-24l4 22h24l22 114h-24l4 20h24l22 112h-24l18 90h24l14 70h-24l8 46h-22l4 20h-110l4 24h-24l6 22h-22l4 24h22l8 42h44l4 24h158zM828 1278l122 64l6 -16l170 90l-4 16l96 50l4 -16l14 8l4 -14l14 6l28 -76l-12 -6l12 -30l-48 -26l6 -16l-376 -198 l-6 16l-12 -6l-6 14l-12 -6l-36 90l12 6l-6 14l36 20z" />
<glyph unicode="&#xfb;" d="M428 1018h114l-4 -22h20l-48 -248h-20l-78 -406h20l-14 -66h24l-4 -22h22l-8 -44h24l-4 -24h44l-6 -22h68l-4 -24h200l4 24h46l6 22h66l4 24h24l4 20h22l4 24h24l110 562h-24l4 24h-22l4 20h-112l4 24h-24l14 66h24l4 22h112l4 24h112l4 22h68l-4 -22h22l-12 -66h24 l-22 -114h-24l-114 -586h24l-4 -20h46l-4 -24h110l-10 -46h22l-8 -44h-22l-4 -22h-90l-6 -24h-44l-4 -22h-68l-4 -24h-68l4 24h-46l4 22h-20l6 24h-70l-6 -24h-66l-4 -22h-66l-4 -24h-114l-4 -20h-134l4 20h-68l4 24h-46l4 22h-20l6 24h-24l4 22h-46l8 44h-20l4 24h-24 l14 66h-22l26 136h-24l4 22h24l22 114h-24l4 20h24l22 112h-24l18 90h24l14 70h-24l8 46h-22l4 20h-110l4 24h-24l6 22h-22l4 24h22l8 42h44l4 24h158zM878 1460l14 6l2 -8l14 6l2 -8l14 6l100 -254l-14 -6l12 -34l-24 -14l2 -6l-62 -34l-2 8l-12 -6l-4 8l-14 -6l-26 64 l14 8l-46 114l-90 -114l10 -8l-50 -64l-10 6l-8 -8l-8 6l-6 -8l-50 34l6 6l-20 14l24 34l-10 6l200 254l10 -6l6 8l10 -6l6 8z" />
<glyph unicode="&#xfc;" d="M424 996h-158l-4 -24h-44l-8 -42h-22l-4 -24h22l-6 -22h24l-4 -24h110l-4 -20h22l-8 -46h24l-14 -70h-24l-18 -90h24l-22 -112h-24l-4 -20h24l-22 -114h-24l-4 -22h24l-26 -136h22l-14 -66h24l-4 -24h20l-8 -44h46l-4 -22h24l-6 -24h20l-4 -22h46l-4 -24h68l-4 -20h134 l4 20h114l4 24h66l4 22h66l6 24h70l-6 -24h20l-4 -22h46l-4 -24h68l4 24h68l4 22h44l6 24h90l4 22h22l8 44h-22l10 46h-110l4 24h-46l4 20h-24l114 586h24l22 114h-24l12 66h-22l4 22h-68l-4 -22h-112l-4 -24h-112l-4 -22h-24l-14 -66h24l-4 -24h112l-4 -20h22l-4 -24h24 l-110 -562h-24l-4 -24h-22l-4 -20h-24l-4 -24h-66l-6 -22h-46l-4 -24h-200l4 24h-68l6 22h-44l4 24h-24l8 44h-22l4 22h-24l14 66h-20l78 406h20l48 248h-20l4 22h-114zM514 1326l6 22h20l4 24h70l4 20h22l-4 -20h66l-4 -24h24l-6 -22h20l-26 -136h-20l-8 -44h-24l-4 -22 h-66l-6 -24h-22l6 24h-70l8 46h-20l4 20h-24l26 136h24zM1020 1306l10 42h44l4 24h46l4 20h20l-4 -20h68l-4 -24h24l-6 -22h20l-30 -156h-20l-4 -24h-24l-4 -22h-22l-6 -24h-90l6 24h-46l8 46h-20l14 66h-24l12 70h24z" />
<glyph unicode="&#xfd;" d="M414 1014h22l-4 -24h46l4 24h44l-4 -24h180l-4 -20h46l-14 -68h-24l-4 -22h-66l-4 -22h-24l-18 -90h24l-8 -46h20l-10 -44h24l-8 -46h22l-10 -46h24l-8 -44h22l-8 -46h20l-4 -20h24l-14 -70h22l-10 -46h24l-2 -20h20l-6 -24h46l6 24h24l2 20h20l14 70h24l14 66h22l8 46 h24l8 44h22l14 68h22l14 68h22l12 66h22l14 70h-22l4 22h-112l4 22h-24l4 22h-20l4 22h20l10 44h202l4 24h136l-4 -24h24l4 24h90l-4 -24h22l-10 -44h20l-4 -22h-20l-8 -44h-68l-4 -22h-68l-4 -24h-22l-10 -46h-24l-12 -66h-20l-14 -68h-24l-8 -46h-22l-14 -66h-24l-8 -46 h-20l-14 -66h-24l-4 -24h-22l-12 -66h-22l-10 -46h-22l-8 -44h-22l-14 -68h-24l-4 -24h-22l-8 -44h-24l-10 -46h-20l-4 -20h-24l-14 -70h-22l-8 -46h-24l-8 -42h-20l-8 -44h-24l-14 -70h-22l-10 -46h-24l-4 -20h-20l-8 -46h-22l-8 -44h-46l-6 -24h-24l-4 -22h-44l-4 -22h-22 l-4 -22h-90l-4 -22h-90l4 22h-66l4 22h-24l4 22h-22l14 66h22l8 46h24l4 24h132l-4 -24h114l4 24h46l10 44h20l8 46h24l4 22h22l8 44h24l10 46h22l8 44h20l10 46h24l8 46h22l14 66h-22l8 44h-24l8 46h-20l10 46h-22l8 44h-24l4 22h-22l8 44h-24l10 46h-20l4 24h-24l10 46 h-22l4 20h-24l8 46h-20l14 66h-24l8 46h-22l8 44h-24l10 46h-20l8 44h-24l10 46h-22l4 24h-22l4 22h-134l8 44h-24l4 22h24l10 44h134zM846 1202l124 64l6 -16l170 90l-6 16l96 50l6 -16l12 8l6 -14l14 6l26 -76l-10 -6l12 -30l-50 -26l8 -16l-378 -198l-4 16l-14 -6l-4 14 l-14 -6l-34 90l10 6l-4 14l36 20z" />
<glyph unicode="&#xfe;" d="M656 996h68l4 22h66l6 24h248l-6 -24h44l-4 -22h68l-4 -24h44l-4 -22h24l-4 -20h22l-4 -24h24l-6 -22h20l-4 -24h24l-8 -44h22l-4 -22h24l-14 -70h20l-30 -156h24l-36 -180h-24l-8 -46h-20l-10 -46h-24l-8 -42h-22l-8 -44h-24l-4 -24h-20l-6 -22h-24l-4 -24h-22l-4 -22 h-24l-4 -22h-20l-4 -22h-68l-6 -24h-44l-4 -22h-114l-4 -24h-158l4 24h-134l-78 -400h-22l-4 -24h-22l-4 -22h-136l4 22h-18l10 66h-22l112 586h24l152 776h-24l68 356h24l6 24h20l4 22h112l-4 -22h46l-18 -90h22zM528 210l-4 -24h44l-6 -22h46l-4 -24h202l4 24h44l6 22h46 l4 24h20l4 20h24l4 24h22l8 42h22l10 46h24l8 46h20l52 270h-20l10 46h-24l4 20h-22l4 24h-22l4 22h-24l6 24h-20l4 22h-24l4 24h-22l4 20h-44l4 24h-248l-4 -24h-44l-4 -20h-24l-122 -630h24z" />
<glyph unicode="&#xff;" d="M410 990h-134l-10 -44h-24l-4 -22h24l-8 -44h134l-4 -22h22l-4 -24h22l-10 -46h24l-8 -44h20l-10 -46h24l-8 -44h22l-8 -46h24l-14 -66h20l-8 -46h24l-4 -20h22l-10 -46h24l-4 -24h20l-10 -46h24l-8 -44h22l-4 -22h24l-8 -44h22l-10 -46h20l-8 -46h24l-8 -44h22l-14 -66 h-22l-8 -46h-24l-10 -46h-20l-8 -44h-22l-10 -46h-24l-8 -44h-22l-4 -22h-24l-8 -46h-20l-10 -44h-46l-4 -24h-114l4 24h-132l-4 -24h-24l-8 -46h-22l-14 -66h22l-4 -22h24l-4 -22h66l-4 -22h90l4 22h90l4 22h22l4 22h44l4 22h24l6 24h46l8 44h22l8 46h20l4 20h24l10 46h22 l14 70h24l8 44h20l8 42h24l8 46h22l14 70h24l4 20h20l10 46h24l8 44h22l4 24h24l14 68h22l8 44h22l10 46h22l12 66h22l4 24h24l14 66h20l8 46h24l14 66h22l8 46h24l14 68h20l12 66h24l10 46h22l4 24h68l4 22h68l8 44h20l4 22h-20l10 44h-22l4 24h-90l-4 -24h-24l4 24h-136 l-4 -24h-202l-10 -44h-20l-4 -22h20l-4 -22h24l-4 -22h112l-4 -22h22l-14 -70h-22l-12 -66h-22l-14 -68h-22l-14 -68h-22l-8 -44h-24l-8 -46h-22l-14 -66h-24l-14 -70h-20l-2 -20h-24l-6 -24h-46l6 24h-20l2 20h-24l10 46h-22l14 70h-24l4 20h-20l8 46h-22l8 44h-24l10 46 h-22l8 46h-24l10 44h-20l8 46h-24l18 90h24l4 22h66l4 22h24l14 68h-46l4 20h-180l4 24h-44l-4 -24h-46l4 24h-22zM616 1346l4 22h20l6 24h70l4 20h22l-4 -20h66l-6 -24h24l-4 -22h20l-26 -136h-20l-8 -44h-24l-4 -22h-66l-6 -24h-22l6 24h-70l8 46h-20l4 20h-24l26 136h24z M1122 1326l8 42h44l6 24h46l4 20h20l-4 -20h68l-6 -24h24l-4 -22h20l-30 -156h-20l-4 -24h-24l-4 -22h-22l-6 -24h-90l6 24h-46l8 46h-20l14 66h-24l12 70h24z" />
<glyph unicode="&#x178;" d="M166 1486h-46l-22 -116h46l-4 -22h94l-6 -24h22l-8 -48h24l-6 -22h22l-8 -46h22l-6 -26h26l-8 -46h22l-4 -22h24l-10 -46h22l-8 -48h26l-6 -22h22l-8 -46h24l-10 -48h22l-4 -24h24l-10 -48h22l-4 -22h26l-4 -24h22l-14 -70h24l-4 -22h22l-10 -46h22l-86 -444h-22l-4 -26 h-22l-4 -22h-118l-6 -24h-46l-8 -48h-22l-4 -22h22l-10 -46h208l-4 -22h188l4 22h162l-4 -22h48l4 22h72l10 46h22l8 48h-22l4 22h-48l6 24h-210l8 48h-24l68 350h-22l14 68h22l14 72h24l8 44h24l10 48h24l4 24h22l10 48h24l8 46h22l4 22h22l10 48h26l4 24h22l14 70h24l4 22 h22l6 24h26l8 46h22l10 48h24l8 46h22l6 22h26l4 26h22l10 46h70l4 22h22l4 26h22l18 90h-44l4 26h-70l-4 -26h-350l-4 -22h-24l-14 -68h24l-4 -26h46l-4 -22h68l-10 -46h26l-4 -26h-26l-20 -94h-22l-4 -22h-22l-8 -46h-24l-10 -46h-22l-8 -48h-24l-10 -46h-24l-10 -48h-24 l-4 -22h-22l-4 -24h-24l-10 -48h-70l10 48h-24l4 24h-22l4 22h-26l10 48h-22l10 46h-22l8 48h-24l4 22h-22l10 46h-26l4 24h-22l10 48h-24l8 46h-22l10 48h-24l10 46h24l4 22h94l4 26h22l4 22h24l4 22h-24l10 46h-116l4 26h-118l-4 -26h-70l4 26h-162zM490 1768l4 22h20 l6 24h70l4 20h22l-4 -20h66l-6 -24h24l-4 -22h20l-26 -136h-20l-8 -44h-24l-4 -22h-66l-6 -24h-22l6 24h-70l8 46h-20l4 20h-24l26 136h24zM996 1748l8 42h44l6 24h46l4 20h20l-4 -20h68l-6 -24h24l-4 -22h20l-30 -156h-20l-4 -24h-24l-4 -22h-22l-6 -24h-90l6 24h-46l8 46 h-20l14 66h-24l12 70h24z" />
<glyph unicode="&#x2c6;" d="M804 1952l14 6l2 -8l14 6l2 -8l12 6l102 -254l-14 -6l12 -34l-26 -14l4 -6l-62 -34l-4 8l-10 -6l-4 8l-14 -6l-26 64l14 8l-46 114l-90 -114l10 -8l-50 -64l-10 6l-8 -8l-10 6l-4 -8l-50 34l4 6l-18 14l24 34l-10 6l198 254l12 -6l6 8l10 -6l6 8z" />
<glyph unicode="&#x2000;" horiz-adv-x="992" />
<glyph unicode="&#x2001;" horiz-adv-x="1984" />
<glyph unicode="&#x2002;" horiz-adv-x="992" />
<glyph unicode="&#x2003;" horiz-adv-x="1984" />
<glyph unicode="&#x2004;" horiz-adv-x="661" />
<glyph unicode="&#x2005;" horiz-adv-x="496" />
<glyph unicode="&#x2006;" horiz-adv-x="330" />
<glyph unicode="&#x2007;" horiz-adv-x="330" />
<glyph unicode="&#x2008;" horiz-adv-x="248" />
<glyph unicode="&#x2009;" horiz-adv-x="396" />
<glyph unicode="&#x200a;" horiz-adv-x="110" />
<glyph unicode="&#x2010;" d="M514 756h226l-4 -24h156l4 24h176l-4 -24h24l-4 -20h22l-22 -112h-22l-10 -46h-90l-4 -22h-534l4 22h-24l4 22h-22l28 136h22l4 20h66z" />
<glyph unicode="&#x2011;" d="M514 756h226l-4 -24h156l4 24h176l-4 -24h24l-4 -20h22l-22 -112h-22l-10 -46h-90l-4 -22h-534l4 22h-24l4 22h-22l28 136h22l4 20h66z" />
<glyph unicode="&#x2012;" d="M514 756h226l-4 -24h156l4 24h176l-4 -24h24l-4 -20h22l-22 -112h-22l-10 -46h-90l-4 -22h-534l4 22h-24l4 22h-22l28 136h22l4 20h66z" />
<glyph unicode="&#x2013;" d="M434 710h226l-6 -24h316l6 24h176l-6 -24h24l-4 -22h22l-22 -112h-22l-8 -44h-90l-4 -24h-694l4 24h-24l4 20h-22l26 136h22l4 22h66z" />
<glyph unicode="&#x2014;" d="M84 756h226l-4 -24h1016l4 24h176l-4 -24h24l-4 -20h22l-22 -112h-22l-10 -46h-90l-4 -22h-1394l4 22h-24l4 22h-22l28 136h22l4 20h66z" />
<glyph unicode="&#x2018;" d="M744 1650h68l-4 -24h68l-6 -22h46l-8 -44h20l-14 -70h-20l-26 -136h-24l-30 -156h-22l-4 -22h22l-36 -180h-22l-4 -22h-24l-4 -22h-112l4 22h-20l4 22h-24l28 136h-22l42 222h-24l22 116h-20l22 110h20l4 24h24l6 22h66z" />
<glyph unicode="&#x2019;" d="M744 1650h68l-4 -24h68l-6 -22h46l-8 -44h20l-14 -70h-20l-26 -136h-24l-30 -156h-22l-4 -22h22l-36 -180h-22l-4 -22h-24l-4 -22h-112l4 22h-20l4 22h-24l28 136h-22l42 222h-24l22 116h-20l22 110h20l4 24h24l6 22h66z" />
<glyph unicode="&#x201a;" d="M800 212h66l-4 -24h24l-4 -22h46l-6 -24h20l-8 -44h24l-48 -248h-24l-10 -46h-20l-2 -20h-24l-6 -24h-22l-4 -22h-24l-4 -24h-20l-4 -20h-24l-4 -22h-22l-6 -24h-24l-4 -22h-42l-4 -24h-24l4 24h-44l8 46h-18l4 22h18l8 44h24l4 22h22l8 44h24l6 24h20l4 22h22l18 90h-22 l4 24h-20l4 22h-24l14 66h-22l8 46h22l14 68h44l4 22h46z" />
<glyph unicode="&#x201c;" d="M364 1630h158l-4 -20h44l-4 -24h22l-28 -136h-22l-34 -178h-24l-48 -248h-20l-4 -24h-24l-4 -20h-68l4 20h-22l4 24h-22l22 112h-22l30 158h-24l30 156h-20l28 136h20l4 24h24zM1038 1630h134l-4 -20h44l-4 -24h24l-32 -158h-24l-64 -336h-20l-14 -68h-24l-4 -24h-22 l-4 -20h-68l4 20h-22l4 24h-22l22 112h-24l40 202h-20l26 136h-24l22 112h24l4 24h44z" />
<glyph unicode="&#x201d;" d="M364 1630h158l-4 -20h44l-4 -24h22l-28 -136h-22l-34 -178h-24l-48 -248h-20l-4 -24h-24l-4 -20h-68l4 20h-22l4 24h-22l22 112h-22l30 158h-24l30 156h-20l28 136h20l4 24h24zM1038 1630h134l-4 -20h44l-4 -24h24l-32 -158h-24l-64 -336h-20l-14 -68h-24l-4 -24h-22 l-4 -20h-68l4 20h-22l4 24h-22l22 112h-24l40 202h-20l26 136h-24l22 112h24l4 24h44z" />
<glyph unicode="&#x201e;" d="M620 212h66l-4 -24h24l-4 -22h46l-6 -24h20l-8 -44h24l-48 -248h-24l-10 -46h-20l-2 -20h-24l-6 -24h-22l-4 -22h-24l-4 -24h-20l-4 -20h-24l-4 -22h-22l-6 -24h-24l-4 -22h-42l-4 -24h-24l4 24h-44l8 46h-18l4 22h18l8 44h24l4 22h22l8 44h24l6 24h20l4 22h22l18 90h-22 l4 24h-20l4 22h-24l14 66h-22l8 46h22l14 68h44l4 22h46zM980 212h66l-4 -24h24l-4 -22h46l-6 -24h20l-8 -44h24l-48 -248h-24l-10 -46h-20l-2 -20h-24l-6 -24h-22l-4 -22h-24l-4 -24h-20l-4 -20h-24l-4 -22h-22l-6 -24h-24l-4 -22h-42l-4 -24h-24l4 24h-46l10 46h-20l4 22 h20l8 44h24l4 22h22l8 44h24l6 24h20l4 22h22l18 90h-22l4 24h-20l4 22h-24l14 66h-22l8 46h22l14 68h44l4 22h46z" />
<glyph unicode="&#x2022;" d="M778 952h20l-4 -24h90l-4 -22h24l-6 -24h22l-8 -44h24l-10 -46h22l-4 -22h-22l-12 -66h-24l-4 -24h-22l-4 -20h-24l-6 -24h-20l-4 -22h-24l-4 -24h-66l4 24h-66l4 22h-46l6 24h-24l4 20h-22l8 46h-24l8 44h24l18 92h22l4 20h24l6 24h22l4 22h90z" />
<glyph unicode="&#x2026;" d="M186 212h20l-4 -24h90l-4 -22h24l-6 -24h22l-8 -44h24l-8 -46h22l-6 -22h-22l-12 -66h-24l-4 -24h-22l-4 -20h-24l-6 -24h-20l-4 -22h-24l-4 -24h-66l4 24h-66l4 22h-46l6 24h-24l4 20h-22l8 46h-24l8 44h24l18 92h22l4 20h24l6 24h22l4 22h90zM778 212h20l-4 -24h90 l-4 -22h24l-6 -24h22l-8 -44h24l-8 -46h22l-6 -22h-22l-12 -66h-24l-4 -24h-22l-4 -20h-24l-6 -24h-20l-4 -22h-24l-4 -24h-66l4 24h-66l4 22h-46l6 24h-24l4 20h-22l8 46h-24l8 44h24l18 92h22l4 20h24l6 24h22l4 22h90zM1370 212h20l-4 -24h90l-4 -22h24l-6 -24h22l-8 -44 h24l-8 -46h22l-6 -22h-22l-12 -66h-24l-4 -24h-22l-4 -20h-24l-6 -24h-20l-4 -22h-24l-4 -24h-66l4 24h-66l4 22h-46l6 24h-24l4 20h-22l8 46h-24l8 44h24l18 92h22l4 20h24l6 24h22l4 22h90z" />
<glyph unicode="&#x202f;" horiz-adv-x="396" />
<glyph unicode="&#x2039;" d="M428 660l14 6l-6 20l518 336l6 -20l64 30l16 -38l12 8l40 -96l-16 -6l6 -18l-16 -10l6 -20l-120 -64l-10 20l-272 -196l196 -196l18 20l96 -64l-14 -20l12 -10l-14 -18l12 -6l-76 -96l-8 8l-32 -38l-52 30l-14 -20l-386 336l14 20l-14 6z" />
<glyph unicode="&#x203a;" d="M1072 564l-14 -6l6 -20l-518 -336l-6 20l-64 -30l-16 38l-12 -8l-40 96l16 6l-6 18l16 10l-6 20l120 64l10 -20l272 196l-196 196l-18 -20l-96 64l14 20l-12 10l14 18l-12 6l76 96l8 -8l32 38l52 -30l14 20l386 -336l-14 -20l14 -6z" />
<glyph unicode="&#x205f;" horiz-adv-x="496" />
<glyph unicode="&#x20ac;" d="M514 658v-24h788v-46h22v-66h-22v-24h-608v-22h-136v22h-88v-24h24v-86h20v-70h22v-22h24v-44h20v-24h24v-22h22v-24h46v-20h44v-24h46v-22h202v22h44v24h46v20h24v24h20v46h24v20h22v92h24v66h20v24h22v20h70v-20h44v-292h-24v-24h-20v-22h-24v-24h-46v-22h-22v-20h-44 v-24h-46v-22h-90v-24h-90v-20h-132v20h-114v24h-68v22h-44v24h-46v20h-20v22h-24v24h-22v22h-24v24h-20v44h-24v22h-22v24h-24v66h-22v46h-24v66h-20v68h-46v24h-22v22h-24v44h24v24h22v22h22v142h-44v44h-24v46h24v24h22v22h46v36h20v68h24v68h22v44h24v46h22v22h24v44h20 v24h24v22h22v24h24v20h20v24h22v22h44v24h24v20h46v22h66v24h248v-24h114v-22h202v-20h20v-46h24v-44h-24v-226h24v-46h-24v-22h-20v-22h-92v22h-20v46h-24v112h-22v44h-24v22h-20v24h-24v22h-46v24h-268v-24h-44v-22h-46v-24h-24v-22h-22v-22h-24v-46h-20v-22h-24v-44h-22 v-68h-20v-90h-24v-14h360v22h136v-22h336v-22h22v-70h-22v-44h-136v-22h-24v22h-90v-22h-110v22h-92v-22h-90v22h-66v-22h-224v-30h-22v-68h20v2h46z" />
<glyph unicode="&#x2122;" d="M56 1432h10v12h586v-12h10v-20h10v-206h-10v-24l-84 10l-10 14h-12v98h-10v10h-12v14h-32v10h-40v-10h-34v-14h-10v-172h10v-60h-10v-18h10v-62h-10v-82h10v-100h22v-12h32v-10h80v-14h12v-10h10v-60h-10v-22h-56v-10h-52v10h-300v92h10v14h36v10h44v12h32v12h12v482h-12 v14h-44v10h-6v-10h-32v-14h-12v-10h-10v-12h-12v-66h-12v-44h-22v-12l-62 10l-10 14h-10v88h-12v84h12v66zM728 1444h22v10h146v-10h30v-12h10v-8h14v-22h8v-22h14v-22h10v-32h10v-22h10v-22h10v-20h12v-22h12v-22h10v-20h12v-22h8v-32h10v-10h16v10h10v32h12v22h10v32h10 v22h10v20h12v22h12v32h10v32h10v32h12v12h10v22h10v20h210v-12h24v-90h-54v-10h-44v-226h-10v-58h10v-126h-10v-14h10v-64h10v-12h34v-10h30v-10h10v-12h14v-70h-14v-12h-40v-10h-72v10h-160v12h-12v10h-12v50h12v22h12v10h32v10h20v12h12v214h10v112h-10v22h-6v-22h-10v-22 h-10v-12h-10v-30h-12v-34h-10v-10h-12v-20h-10v-24h-12v-22h-8v-8h-10v-22h-12v-10h-60v10h-12v12h-10v10h-10v20h-12v10h-10v34h-10v20h-12v22h-10v22h-10v20h-12v22h-10v22h-14v22h-2v-96h-10v-90h10v-130h10v-34h10v-8h14v-12h42v-10h20v-32h12v-50h-12v-10h-10v-12h-252 v12h-12v82h12v10h10v10h20v12h12v8h10v174h14v306h-14v10h-22v10h-52v32h-14v48h14v12z" />
<glyph unicode="&#x25fc;" horiz-adv-x="1010" d="M0 1010h1010v-1010h-1010v1010z" />
</font>
</defs>
</svg>
